<svg width="218" height="38" viewBox="0 0 218 38" fill="none" xmlns="http://www.w3.org/2000/svg">
<mask id="mask0_16_7816" style="mask-type:luminance" maskUnits="userSpaceOnUse" x="119" y="5" width="23" height="29">
<path d="M127.577 10.2031C128.885 10.2031 130.174 10.1651 131.482 10.2981C134.117 10.5641 135.653 12.6351 135.311 15.2381C134.989 17.6891 133.321 18.8101 131.179 19.0001C129.871 19.1141 128.563 19.0951 127.274 19.0761C126.629 19.0761 125.985 19.0571 125.34 19.0761C124.942 19.0761 124.923 18.8481 124.923 18.5441C124.923 17.2331 124.923 15.9221 124.923 14.6111C124.923 13.3001 124.923 11.9891 124.923 10.6781C124.923 10.3931 124.98 10.2031 125.34 10.2031C125.663 10.2031 125.985 10.2031 126.326 10.2031C126.743 10.2031 127.179 10.2031 127.596 10.2031M122.497 5.32005C120.696 5.32005 119.786 6.27005 119.672 8.03705C119.672 8.24605 119.672 8.43605 119.672 8.62605C119.672 12.1601 119.672 15.6941 119.672 19.2281C119.672 22.7621 119.672 26.3341 119.672 29.8871C119.672 30.2481 119.672 30.6281 119.748 30.9701C119.9 31.8631 120.355 32.5471 121.208 32.9271C123.028 33.7061 124.923 32.5281 124.961 30.5521C124.98 28.4431 124.961 26.3341 124.961 24.2251C124.961 23.7881 125.075 23.5981 125.549 23.6171C126.516 23.6551 127.463 23.6551 128.43 23.6171C129.643 23.5791 130.629 24.0351 131.482 24.8331C132.127 25.4221 132.62 26.1441 133.113 26.8471C134.288 28.5191 135.463 30.2101 136.638 31.8821C137.226 32.7181 138.022 33.2121 139.084 33.0981C141.093 32.8891 142.098 30.8371 141.055 29.1081C140.695 28.5001 140.259 27.9111 139.842 27.3411C138.648 25.7261 137.681 23.9211 136.127 22.5721C135.823 22.3061 136.108 22.2301 136.278 22.1161C139.463 19.9311 140.923 16.9481 140.562 13.1481C140.126 8.70206 137.037 5.70005 132.259 5.33905C130.838 5.22505 129.416 5.20605 127.994 5.20605C126.193 5.20605 124.374 5.26305 122.554 5.26305" fill="white"/>
</mask>
<g mask="url(#mask0_16_7816)">
<path d="M142.022 5.24414H119.616V33.7061H142.022V5.24414Z" fill="#FCFCFC"/>
</g>
<mask id="mask1_16_7816" style="mask-type:luminance" maskUnits="userSpaceOnUse" x="145" y="4" width="22" height="30">
<path d="M152.733 5.35798C149.567 6.13698 147.292 7.99898 146.477 11.21C145.624 14.497 146.515 17.613 149.984 19.437C151.728 20.349 153.623 20.824 155.462 21.432C156.922 21.907 158.419 22.363 159.784 23.104C161.756 24.168 161.377 26.087 160.391 27.132C159.519 28.063 158.401 28.462 157.149 28.595C154.59 28.842 152.41 28.025 150.534 26.334C149.984 25.84 149.415 25.327 148.714 25.004C148.069 24.7 147.425 24.719 146.837 25.099C145.245 26.106 144.43 27.702 146.136 29.545C146.23 29.659 146.344 29.773 146.458 29.868C149.169 32.376 152.448 33.459 156.126 33.535C156.694 33.554 157.244 33.497 157.794 33.421C160.429 33.098 162.742 32.148 164.505 30.115C166.571 27.74 167.026 24.13 165.585 21.489C164.732 19.912 163.348 18.905 161.775 18.107C160.069 17.233 158.211 16.777 156.41 16.226C155.045 15.808 153.642 15.466 152.448 14.649C150.989 13.661 150.97 11.799 152.391 10.735C153.301 10.07 154.344 9.84198 155.443 9.82298C157.453 9.78498 159.14 10.545 160.543 11.951C162.002 13.414 163.234 13.357 164.618 11.818C164.713 11.723 164.789 11.609 164.865 11.495C165.471 10.659 165.49 9.86098 164.903 8.98698C164.505 8.37898 163.993 7.86598 163.405 7.44798C161.092 5.81398 158.59 4.95898 155.955 4.95898C154.913 4.95898 153.851 5.09198 152.77 5.35798" fill="white"/>
</mask>
<g mask="url(#mask1_16_7816)">
<path d="M167.007 4.95898H144.411V33.535H167.007V4.95898Z" fill="#FCFCFC"/>
</g>
<mask id="mask2_16_7816" style="mask-type:luminance" maskUnits="userSpaceOnUse" x="70" y="5" width="22" height="29">
<path d="M75.75 19.6842C75.75 18.1832 75.75 16.7012 75.75 15.2002C75.75 13.6992 75.75 12.3122 75.75 10.8682C75.75 10.4312 75.8637 10.2412 76.3566 10.2412C77.0201 10.2412 77.6835 10.2412 78.366 10.2412C79.4275 10.2412 80.5081 10.2412 81.5696 10.2792C83.1809 10.3552 84.5269 11.0202 85.4178 12.4262C86.6689 14.4402 86.2708 17.4802 84.5458 18.9622C83.579 19.7982 82.3848 20.1212 81.1336 20.1592C80.1479 20.1972 79.1432 20.1972 78.1575 20.1972C77.5319 20.1972 76.9063 20.1972 76.2808 20.1972C75.8827 20.1972 75.7879 20.0262 75.7879 19.6652M76.5272 5.28218C75.5415 5.28218 74.5557 5.28218 73.57 5.28218C73.1909 5.28218 72.7928 5.30118 72.4136 5.39618C71.2383 5.68118 70.499 6.68818 70.499 8.05618C70.499 11.7802 70.499 15.4852 70.499 19.2092C70.499 19.7412 70.499 20.2732 70.499 20.8052C70.499 23.9972 70.499 27.1702 70.499 30.3622C70.499 31.6352 71.1246 32.5852 72.1672 32.9652C74.006 33.6302 75.7689 32.4142 75.8068 30.4382C75.8258 28.8992 75.8068 27.3412 75.8068 25.8022C75.8068 25.1182 75.8068 25.1182 76.4893 25.0992C78.2333 25.0992 79.9962 25.1182 81.7402 25.0992C83.1999 25.0802 84.6027 24.7192 85.9107 24.0542C89.683 22.1732 91.7493 17.7462 91.3133 13.8702C90.7635 9.02518 87.0102 5.47218 82.0625 5.32018C80.7545 5.28218 79.4655 5.26318 78.1575 5.26318C77.6077 5.26318 77.0769 5.26318 76.5272 5.26318" fill="white"/>
</mask>
<g mask="url(#mask2_16_7816)">
<path d="M91.7116 5.30127H70.4424V33.6493H91.7116V5.30127Z" fill="#FCFCFC"/>
</g>
<mask id="mask3_16_7816" style="mask-type:luminance" maskUnits="userSpaceOnUse" x="170" y="5" width="19" height="29">
<path d="M174.305 5.30078C173.945 5.30078 173.566 5.31978 173.206 5.35778C172.144 5.45278 171.31 6.11778 171.007 7.14378C170.893 7.52378 170.855 7.92278 170.855 8.32178C170.855 11.9508 170.855 15.5988 170.855 19.2278C170.855 22.8568 170.855 26.6188 170.855 30.3238C170.855 31.3878 171.215 32.2808 172.182 32.8318C172.713 33.1358 173.3 33.1738 173.888 33.1738C177.869 33.1738 181.85 33.1738 185.812 33.1738C186.096 33.1738 186.38 33.1548 186.665 33.1168C188.314 32.9268 189.281 31.4638 188.769 29.8868C188.447 28.8988 187.537 28.2718 186.361 28.2718C183.12 28.2718 179.897 28.2718 176.656 28.2718C176.175 28.2718 175.935 28.0311 175.935 27.5498V22.0778C175.935 21.6091 176.175 21.3748 176.656 21.3748C179.139 21.3748 181.641 21.3748 184.144 21.3748C185.338 21.3748 186.305 20.6908 186.627 19.6838C186.949 18.7148 186.627 17.7078 185.812 17.0998C185.243 16.6818 184.598 16.5488 183.916 16.5488C181.452 16.5488 178.987 16.5488 176.542 16.5488C176.068 16.5488 175.935 16.3968 175.935 15.9408C175.954 14.2688 175.954 12.5968 175.935 10.9248C175.935 10.4118 176.087 10.2598 176.599 10.2788C179.461 10.2788 182.324 10.2788 185.186 10.2788C185.603 10.2788 186.02 10.2598 186.437 10.2218C187.669 10.1078 188.56 9.23378 188.655 8.07478C188.769 6.78278 188.068 5.75678 186.835 5.43378C186.399 5.31978 185.944 5.31978 185.489 5.31978H179.878C178.002 5.31978 176.144 5.31978 174.267 5.31978" fill="white"/>
</mask>
<g mask="url(#mask3_16_7816)">
<path d="M189.319 5.30078H170.855V33.1738H189.319V5.30078Z" fill="#FCFCFC"/>
</g>
<mask id="mask4_16_7816" style="mask-type:luminance" maskUnits="userSpaceOnUse" x="91" y="4" width="25" height="30">
<path d="M99.9008 22.629C101.095 19.494 102.27 16.359 103.465 13.205C103.484 13.129 103.54 13.053 103.616 12.901C103.749 13.205 103.844 13.433 103.92 13.661C105.019 16.606 106.137 19.532 107.237 22.477C107.464 23.104 107.464 23.123 106.82 23.123C104.64 23.123 102.479 23.123 100.299 23.123C99.9008 23.123 99.7302 23.066 99.9008 22.629ZM102.593 5.16798C101.721 5.52898 101.266 6.23198 100.924 7.06798C98.7634 12.331 96.5834 17.613 94.4034 22.876C93.5124 25.042 92.6025 27.208 91.7305 29.374C91.3135 30.4 91.3324 31.407 92.1286 32.262C93.5314 33.763 95.7493 33.402 96.5455 31.521C96.9815 30.476 97.3796 29.412 97.7587 28.348C97.9103 27.911 98.1378 27.759 98.6117 27.759C101.948 27.759 105.284 27.759 108.621 27.759C109.095 27.759 109.322 27.911 109.474 28.348C109.853 29.431 110.251 30.514 110.706 31.559C111.218 32.737 112.393 33.364 113.549 33.117C114.876 32.832 115.748 31.825 115.748 30.495C115.786 30.077 115.616 29.621 115.426 29.184C112.867 23.009 110.327 16.834 107.768 10.659C107.199 9.27199 106.649 7.88498 106.043 6.51698C105.588 5.50998 104.659 4.95898 103.673 4.95898C103.332 4.95898 102.972 5.01598 102.631 5.16798" fill="white"/>
</mask>
<g mask="url(#mask4_16_7816)">
<path d="M115.767 4.97803H91.3135V33.782H115.767V4.97803Z" fill="#FCFCFC"/>
</g>
<mask id="mask5_16_7816" style="mask-type:luminance" maskUnits="userSpaceOnUse" x="191" y="4" width="26" height="30">
<path d="M203.631 5.07307C200.503 5.37707 197.754 6.51707 195.498 8.68307C192.484 11.5521 191.214 15.1621 191.176 19.2281C191.138 20.5011 191.29 21.7551 191.612 22.9711C192.731 27.3031 195.214 30.5711 199.422 32.3571C203.763 34.2001 208.066 33.8391 212.275 31.8441C213.602 31.2171 214.777 30.3811 215.611 29.1651C216.445 27.9871 216.275 26.8281 215.194 25.8211C214.095 24.7951 213.033 24.7381 211.839 25.6311C211.63 25.7831 211.441 25.9351 211.251 26.1061C209.261 27.9681 206.91 28.8231 204.142 28.4811C201.735 28.1961 199.782 27.1511 198.361 25.2131C196.465 22.6101 196.162 19.6841 196.825 16.6441C197.489 13.5661 199.308 11.3431 202.436 10.3931C205.583 9.44307 208.483 9.84207 210.967 12.1791C212.464 13.5851 213.469 13.5281 214.872 12.0461C214.929 11.9891 214.986 11.9131 215.042 11.8561C215.895 10.8301 215.914 9.88007 215.08 8.83507C214.493 8.09407 213.772 7.48607 212.957 7.03007C210.569 5.64307 208.01 4.99707 205.318 4.99707C204.768 4.99707 204.199 5.01607 203.631 5.07307Z" fill="white"/>
</mask>
<g mask="url(#mask5_16_7816)">
<path d="M216.426 4.97803H191.119V34.181H216.426V4.97803Z" fill="#FCFCFC"/>
</g>
<path d="M18.0842 10.051C20.6434 4.826 26.027 0 34.1025 0C34.5006 0 34.8797 0 35.2967 0.038C39.5999 0.437 47.5995 3.287 45.1162 7.144C44.2632 8.284 42.6329 8.512 41.4955 7.638C37.9886 4.484 31.0694 4.332 27.5625 6.821C22.539 9.69 22.975 13.87 21.0035 14.478C19.6955 14.782 18.4444 15.276 17.307 15.979C16.018 16.777 14.9185 17.784 14.0275 19C13.6484 19.627 13.0039 20.14 12.2267 20.064C11.0324 19.988 9.70545 19.893 7.90458 20.919C3.67727 23.484 4.41658 28.747 8.22684 30.913C9.23153 31.483 10.3879 31.768 11.5632 31.768H17.3828C20.7761 31.844 20.7192 36.784 17.326 36.803H10.9376C10.4068 36.803 9.8571 36.746 9.34527 36.632H9.30736C-3.69682 33.782 -2.93855 16.036 10.786 14.972C12.7385 12.73 15.2976 11.039 18.1221 10.07M34.6522 16.34L23.2404 32.908C22.4442 34.067 22.7475 35.625 23.9228 36.404C25.0981 37.183 26.6715 36.898 27.4677 35.739L38.8795 19.171C41.6661 14.915 48.1682 15.067 51.3529 18.753C57.6654 25.745 48.68 35.872 40.1875 30.115C37.4578 28.196 34.5006 32.281 37.2114 34.219C38.6521 35.245 41.5334 36.86 45.2868 36.86C58.6891 36.442 61.7032 22.097 55.1632 15.428C52.623 12.483 48.8317 10.982 45.0783 10.982C41.0216 10.982 36.9839 12.749 34.6333 16.359" fill="#FCFCFC"/>
</svg>
