<svg version="1.1" xmlns="http://www.w3.org/2000/svg" viewBox="0 0 1206 1019.5" width="1206" height="1019.5">
  <!-- svg-source:excalidraw -->
  
  <defs>
    <style class="style-fonts">
      @font-face {
        font-family: "Virgil";
        src: url("https://excalidraw.com/Virgil.woff2");
      }
      @font-face {
        font-family: "Cascadia";
        src: url("https://excalidraw.com/Cascadia.woff2");
      }
    </style>
    
  </defs>
  <rect x="0" y="0" width="1206" height="1019.5" fill="#ffffff"></rect><g stroke-linecap="round" transform="translate(700 10) rotate(0 248 436)"><path d="M32 0 C134.62 -0.21, 236.65 -0.13, 464 0 M464 0 C484.43 0.77, 497.36 8.94, 496 32 M496 32 C498.88 277.94, 498.72 523.39, 496 840 M496 840 C495.35 860.21, 483.56 873.3, 464 872 M464 872 C292.89 870.28, 122.5 871.92, 32 872 M32 872 C11.94 872.93, -1.86 862.91, 0 840 M0 840 C-1.53 662.39, -1.58 484.86, 0 32 M0 32 C1.24 11.66, 12.23 0.15, 32 0" stroke="#1e1e1e" stroke-width="2.5" fill="none" stroke-dasharray="8 10"></path></g><g transform="translate(705 15) rotate(0 40.59166717529297 25)"><text x="0" y="0" font-family="Virgil, Segoe UI Emoji" font-size="20px" fill="#1e1e1e" text-anchor="start" style="white-space: pre;" direction="ltr" dominant-baseline="text-before-edge"></text><text x="0" y="25" font-family="Virgil, Segoe UI Emoji" font-size="20px" fill="#1e1e1e" text-anchor="start" style="white-space: pre;" direction="ltr" dominant-baseline="text-before-edge"> Realm 1</text></g><g stroke-linecap="round" transform="translate(10 292) rotate(0 172.5 129)"><path d="M7.86 8.16 C7.86 8.16, 7.86 8.16, 7.86 8.16 M7.86 8.16 C7.86 8.16, 7.86 8.16, 7.86 8.16 M1.43 27.75 C8.36 17.75, 14.5 12.42, 24.4 1.33 M1.43 27.75 C8.96 18.77, 14.76 12.17, 24.4 1.33 M0.91 40.54 C10.04 29.72, 15.91 21.22, 36.34 -0.21 M0.91 40.54 C10.06 28.97, 21.09 18.87, 36.34 -0.21 M1.04 52.58 C12.31 38.63, 23.72 28.45, 46.97 -0.25 M1.04 52.58 C19.67 31.89, 38.01 10.89, 46.97 -0.25 M1.18 64.62 C20.51 42.76, 39.42 19.09, 57.6 -0.28 M1.18 64.62 C18.9 44.71, 35.55 23.98, 57.6 -0.28 M1.31 76.67 C13.15 58.31, 29.54 44.18, 67.57 0.44 M1.31 76.67 C27.38 48.62, 51.95 19.24, 67.57 0.44 M0.79 89.46 C21.94 67, 42.4 40.37, 78.2 0.41 M0.79 89.46 C20.93 66.15, 40.96 43.63, 78.2 0.41 M0.92 101.5 C24.34 72.68, 47.98 45, 88.83 0.37 M0.92 101.5 C20.15 79.67, 39.96 57.34, 88.83 0.37 M1.05 113.54 C35.29 76.75, 66.75 36.07, 99.46 0.34 M1.05 113.54 C29.81 79.67, 59.43 45.44, 99.46 0.34 M1.19 125.58 C20.94 97.58, 45.43 74.96, 110.09 0.3 M1.19 125.58 C25.15 97.8, 48.49 70.86, 110.09 0.3 M0.66 138.38 C36.3 96.31, 74.05 52.68, 120.72 0.27 M0.66 138.38 C41.19 92.57, 80.6 47.17, 120.72 0.27 M0.8 150.42 C28.43 119.95, 52.58 86.25, 131.35 0.23 M0.8 150.42 C50.34 95.05, 97.55 39.69, 131.35 0.23 M0.93 162.46 C44.27 115.25, 85.27 65.76, 141.98 0.2 M0.93 162.46 C52.06 102.24, 102.91 44.05, 141.98 0.2 M1.06 174.5 C37.39 131.65, 75.2 88.64, 152.61 0.16 M1.06 174.5 C29.81 139.87, 61.81 104.41, 152.61 0.16 M0.54 187.3 C37.91 142.42, 75.92 100.89, 163.24 0.13 M0.54 187.3 C53.25 123.92, 109 60.56, 163.24 0.13 M0.67 199.34 C43.66 146.9, 90.93 92.72, 173.87 0.09 M0.67 199.34 C61.09 126.52, 123.98 55.99, 173.87 0.09 M0.81 211.38 C71.27 129.1, 143.55 45.93, 184.5 0.06 M0.81 211.38 C57.25 147.63, 111.91 83.48, 184.5 0.06 M0.94 223.42 C76.62 136.07, 153.93 45.78, 195.13 0.03 M0.94 223.42 C40 178.74, 77.89 132.79, 195.13 0.03 M1.07 235.46 C49.83 178.63, 98.6 121.04, 205.76 -0.01 M1.07 235.46 C48.52 183.42, 93.54 130.74, 205.76 -0.01 M4.49 243.73 C75.19 156.6, 150.47 72.76, 216.39 -0.04 M4.49 243.73 C49.27 193.8, 93.36 142.66, 216.39 -0.04 M9.21 250.49 C59.66 189.48, 112.73 130.15, 227.02 -0.08 M9.21 250.49 C54.13 200.76, 97.35 150.83, 227.02 -0.08 M15.91 254.98 C66.18 198.17, 113.1 142.52, 237.65 -0.11 M15.91 254.98 C103.2 157.72, 188.08 58.01, 237.65 -0.11 M24.57 257.21 C74.99 201.46, 122.26 145.29, 248.28 -0.15 M24.57 257.21 C76.04 197.05, 130.17 135.24, 248.28 -0.15 M33.89 258.68 C94.26 186.71, 157.08 112.87, 258.91 -0.18 M33.89 258.68 C91.1 193.33, 146.94 129.94, 258.91 -0.18 M44.52 258.65 C133.54 156.47, 220.73 56.7, 269.54 -0.22 M44.52 258.65 C104.71 189.55, 163.62 122.06, 269.54 -0.22 M55.15 258.62 C142.43 157.41, 227.37 59.41, 280.17 -0.25 M55.15 258.62 C108.64 200.08, 159.83 140.77, 280.17 -0.25 M65.78 258.58 C147.86 164.83, 226.8 72.19, 290.8 -0.28 M65.78 258.58 C139.13 175.8, 210.55 91.69, 290.8 -0.28 M76.41 258.55 C160.78 162.81, 243.23 66.36, 300.78 0.44 M76.41 258.55 C142.83 182.72, 207.1 108.21, 300.78 0.44 M87.04 258.51 C154.07 183.07, 218.03 106.72, 311.41 0.4 M87.04 258.51 C172.78 159.74, 258.18 60.45, 311.41 0.4 M97.67 258.48 C155.89 191.63, 213.18 125.81, 321.38 1.12 M97.67 258.48 C164.21 181.15, 230.8 103.24, 321.38 1.12 M108.3 258.44 C184.22 168.19, 263.07 76.14, 330.04 3.35 M108.3 258.44 C179.1 176.54, 251.1 93.35, 330.04 3.35 M118.93 258.41 C172.75 198.8, 228.38 135.38, 336.74 7.84 M118.93 258.41 C173.01 194.94, 229.28 130.01, 336.74 7.84 M129.56 258.37 C188.46 192.15, 246.2 122.47, 341.46 14.6 M129.56 258.37 C203.67 172.42, 278.48 86.18, 341.46 14.6 M140.19 258.34 C202.81 185.07, 265.91 114.61, 344.22 23.62 M140.19 258.34 C197.07 194.83, 252.7 130.31, 344.22 23.62 M150.82 258.3 C229.05 168.26, 304.68 79.97, 345.67 34.16 M150.82 258.3 C226.96 171.45, 302.47 83.71, 345.67 34.16 M161.45 258.27 C200.67 213.21, 240.93 164.88, 345.8 46.2 M161.45 258.27 C228.34 178.64, 297.57 97.82, 345.8 46.2 M172.08 258.24 C241.35 179.62, 311.54 98.6, 345.93 58.24 M172.08 258.24 C219.01 203.01, 267.33 146.27, 345.93 58.24 M182.71 258.2 C231.62 199.42, 283.09 143.87, 345.41 71.03 M182.71 258.2 C233.74 198.2, 284.75 140.06, 345.41 71.03 M192.68 258.92 C248.92 194.34, 306.72 127.49, 345.54 83.07 M192.68 258.92 C250.38 193.17, 306.7 128.26, 345.54 83.07 M203.31 258.89 C246.98 210.47, 290.82 160.66, 345.68 95.11 M203.31 258.89 C255.43 199.5, 305.12 139.93, 345.68 95.11 M213.94 258.85 C263.89 199.89, 314.15 141.55, 345.81 107.16 M213.94 258.85 C260.48 206.77, 306.3 154.6, 345.81 107.16 M224.57 258.82 C261.28 216.26, 300.34 171.08, 345.94 119.2 M224.57 258.82 C259.9 219.37, 296.89 177.38, 345.94 119.2 M235.2 258.78 C265.51 226.46, 295.48 188.48, 345.42 131.99 M235.2 258.78 C256.39 233.9, 278.48 208.55, 345.42 131.99 M245.83 258.75 C268.14 236.47, 289.46 210.01, 345.55 144.03 M245.83 258.75 C268.74 230.55, 293.03 203.69, 345.55 144.03 M256.46 258.71 C280.82 231.9, 304.45 204.31, 345.69 156.07 M256.46 258.71 C279.71 231.58, 303.19 204.64, 345.69 156.07 M267.09 258.68 C292.02 232.85, 310.96 207.73, 345.82 168.11 M267.09 258.68 C299.92 222.28, 330.73 187.33, 345.82 168.11 M277.72 258.65 C306.95 226.53, 333.92 197.52, 345.95 180.16 M277.72 258.65 C301.21 231.55, 323.61 205.35, 345.95 180.16 M288.35 258.61 C310.51 235.42, 331.11 209.52, 345.43 192.95 M288.35 258.61 C305.64 238.04, 324.76 216.88, 345.43 192.95 M298.98 258.58 C309.06 247.98, 320.41 235.46, 345.56 204.99 M298.98 258.58 C308.27 247.32, 317.79 237.08, 345.56 204.99 M309.61 258.54 C321.45 246.81, 329.43 234.37, 345.7 217.03 M309.61 258.54 C319.57 246.59, 328.89 236.76, 345.7 217.03 M320.9 257.75 C328.9 249.01, 337.18 239.38, 345.17 229.83 M320.9 257.75 C327.91 249.6, 336.92 240.01, 345.17 229.83" stroke="#ffc9c9" stroke-width="1" fill="none"></path><path d="M32 0 C104.04 1.28, 173.9 2.99, 313 0 M32 0 C113.93 1.59, 196.26 2.2, 313 0 M313 0 C334.94 0.21, 343.74 10.31, 345 32 M313 0 C333.88 -0.53, 346.37 12.95, 345 32 M345 32 C344.1 101.78, 343.74 169.24, 345 226 M345 32 C343.63 82.08, 344.88 133.71, 345 226 M345 226 C345.83 247.44, 335.53 257.8, 313 258 M345 226 C344.04 249.21, 333.87 257.91, 313 258 M313 258 C247.32 256.8, 178.08 256.65, 32 258 M313 258 C212.65 258.6, 110.91 258.3, 32 258 M32 258 C10.95 258.97, -0.31 249.15, 0 226 M32 258 C12.4 256.7, -1.43 249.01, 0 226 M0 226 C-0.7 171.67, 0.41 118.24, 0 32 M0 226 C2.29 174.68, 2.04 126.22, 0 32 M0 32 C1.84 11.65, 10.07 -0.33, 32 0 M0 32 C-0.1 9.86, 12.7 -1.22, 32 0" stroke="#1e1e1e" stroke-width="2" fill="none"></path></g><g transform="translate(49 316) rotate(0 140.76666259765625 12.5)"><text x="0" y="0" font-family="Virgil, Segoe UI Emoji" font-size="20px" fill="#1e1e1e" text-anchor="start" style="white-space: pre;" direction="ltr" dominant-baseline="text-before-edge">RealmKeyRotationCertificate</text></g><g transform="translate(51 357) rotate(0 107.75833129882812 87.5)"><text x="0" y="0" font-family="Virgil, Segoe UI Emoji" font-size="20px" fill="#1e1e1e" text-anchor="start" style="white-space: pre;" direction="ltr" dominant-baseline="text-before-edge">- author</text><text x="0" y="25" font-family="Virgil, Segoe UI Emoji" font-size="20px" fill="#1e1e1e" text-anchor="start" style="white-space: pre;" direction="ltr" dominant-baseline="text-before-edge">- timestamp</text><text x="0" y="50" font-family="Virgil, Segoe UI Emoji" font-size="20px" fill="#1e1e1e" text-anchor="start" style="white-space: pre;" direction="ltr" dominant-baseline="text-before-edge">- realm_id</text><text x="0" y="75" font-family="Virgil, Segoe UI Emoji" font-size="20px" fill="#1e1e1e" text-anchor="start" style="white-space: pre;" direction="ltr" dominant-baseline="text-before-edge">- key_index</text><text x="0" y="100" font-family="Virgil, Segoe UI Emoji" font-size="20px" fill="#1e1e1e" text-anchor="start" style="white-space: pre;" direction="ltr" dominant-baseline="text-before-edge">- key_canary</text><text x="0" y="125" font-family="Virgil, Segoe UI Emoji" font-size="20px" fill="#1e1e1e" text-anchor="start" style="white-space: pre;" direction="ltr" dominant-baseline="text-before-edge">- encryption_algorithm</text><text x="0" y="150" font-family="Virgil, Segoe UI Emoji" font-size="20px" fill="#1e1e1e" text-anchor="start" style="white-space: pre;" direction="ltr" dominant-baseline="text-before-edge">- hash_algorithm</text></g><g stroke-linecap="round" transform="translate(28 596) rotate(0 171 111)"><path d="M7.86 8.16 C7.86 8.16, 7.86 8.16, 7.86 8.16 M7.86 8.16 C7.86 8.16, 7.86 8.16, 7.86 8.16 M1.43 27.75 C7.54 21.25, 9.41 18.21, 24.4 1.33 M1.43 27.75 C8.38 19.06, 15.64 11.2, 24.4 1.33 M0.91 40.54 C9.73 31.6, 17.6 21.2, 36.34 -0.21 M0.91 40.54 C9.92 29.85, 18.94 20.46, 36.34 -0.21 M1.04 52.58 C12.08 42.85, 22.7 28.93, 46.97 -0.25 M1.04 52.58 C11.83 41.08, 21.48 29.5, 46.97 -0.25 M1.18 64.62 C15.04 48.36, 30.62 28.16, 57.6 -0.28 M1.18 64.62 C15.72 47.24, 27.74 32.61, 57.6 -0.28 M0.65 77.42 C17.21 56.94, 36.42 35.98, 67.57 0.44 M0.65 77.42 C23.28 51.11, 44.41 26.59, 67.57 0.44 M0.79 89.46 C20.9 66.76, 41.56 42.39, 78.2 0.41 M0.79 89.46 C28.96 60.09, 54.64 28.48, 78.2 0.41 M0.92 101.5 C20.47 78.98, 44.25 52.63, 88.83 0.37 M0.92 101.5 C20.12 81.47, 38.67 59.3, 88.83 0.37 M1.05 113.54 C32.35 74.71, 65.47 41.28, 99.46 0.34 M1.05 113.54 C22.05 89.28, 41.91 66.72, 99.46 0.34 M0.53 126.34 C28.6 97.93, 51.79 69.32, 110.09 0.3 M0.53 126.34 C34 86.81, 68.28 46, 110.09 0.3 M0.66 138.38 C48.79 85.25, 93.34 32.02, 120.72 0.27 M0.66 138.38 C46.74 85.18, 92.19 30.25, 120.72 0.27 M0.8 150.42 C39.89 107.36, 79.77 60.91, 131.35 0.23 M0.8 150.42 C32.11 115.6, 62.71 78.4, 131.35 0.23 M0.93 162.46 C47.2 109.67, 95.34 52.27, 141.98 0.2 M0.93 162.46 C28.54 130.08, 57.37 96.44, 141.98 0.2 M0.41 175.26 C44.61 127.35, 85.67 76.79, 152.61 0.16 M0.41 175.26 C43.06 127.71, 85.32 78.09, 152.61 0.16 M0.54 187.3 C42.68 138.5, 85.83 88.48, 163.24 0.13 M0.54 187.3 C42.44 139.87, 83.67 91.95, 163.24 0.13 M1.33 198.58 C69.14 120.73, 137.09 41.38, 173.87 0.09 M1.33 198.58 C45 146.66, 88.6 96.78, 173.87 0.09 M4.09 207.61 C43.27 159.73, 85.21 112.4, 184.5 0.06 M4.09 207.61 C53.16 151.69, 103.21 96.57, 184.5 0.06 M8.81 214.36 C52.92 161.4, 98.64 111.03, 195.13 0.03 M8.81 214.36 C66.01 148.4, 124.12 81.91, 195.13 0.03 M15.51 218.86 C64.47 159.68, 115.64 100.13, 205.76 -0.01 M15.51 218.86 C72.92 151.23, 131.06 84.01, 205.76 -0.01 M24.17 221.09 C101.73 134.49, 179.44 46.61, 216.39 -0.04 M24.17 221.09 C80.26 156.83, 136.17 90.86, 216.39 -0.04 M33.49 222.56 C71.35 176.01, 113.26 126.99, 227.02 -0.08 M33.49 222.56 C98.22 149.07, 161.84 76.52, 227.02 -0.08 M44.12 222.53 C91.08 165.71, 138.51 112.05, 237.65 -0.11 M44.12 222.53 C82.04 178.87, 120.88 134.99, 237.65 -0.11 M54.75 222.49 C105.66 162.5, 157.08 104.14, 248.28 -0.15 M54.75 222.49 C97.18 173.59, 138.86 125.58, 248.28 -0.15 M65.38 222.46 C127.12 152.25, 186.48 81.88, 258.91 -0.18 M65.38 222.46 C125.28 152.6, 186.32 83.11, 258.91 -0.18 M76.01 222.42 C115.88 177.29, 155.36 130.86, 269.54 -0.22 M76.01 222.42 C151.79 136.4, 227.6 49.95, 269.54 -0.22 M86.64 222.39 C153.05 147.51, 218.92 68.71, 280.17 -0.25 M86.64 222.39 C134.97 165.36, 183.67 108.66, 280.17 -0.25 M97.27 222.35 C136.71 176.35, 178.45 129.26, 290.8 -0.28 M97.27 222.35 C167.84 141.67, 238.37 61.24, 290.8 -0.28 M107.9 222.32 C151.55 169.67, 199.37 119.22, 300.78 0.44 M107.9 222.32 C176.4 144.26, 245.82 65.51, 300.78 0.44 M118.53 222.29 C162.8 170.13, 208.23 118.87, 311.41 0.4 M118.53 222.29 C193.45 137.46, 268.59 52.3, 311.41 0.4 M129.16 222.25 C184.58 160.7, 235.56 101.15, 320.73 1.88 M129.16 222.25 C179.98 162.51, 231.94 103.41, 320.73 1.88 M139.79 222.22 C213.3 138.98, 284.97 56.08, 328.73 4.86 M139.79 222.22 C180.17 177.93, 220.09 130.59, 328.73 4.86 M150.42 222.18 C213.18 152.19, 275.14 79.1, 334.77 10.11 M150.42 222.18 C216.11 146.87, 282.06 70.09, 334.77 10.11 M161.05 222.15 C230.31 141.7, 300.04 59.64, 339.5 16.87 M161.05 222.15 C218.42 155.09, 277.53 87.45, 339.5 16.87 M171.68 222.11 C219.69 164.44, 268.98 109.99, 341.6 26.64 M171.68 222.11 C228.65 158.16, 285.75 93.83, 341.6 26.64 M182.31 222.08 C237.61 157.98, 293.55 94.03, 342.39 37.93 M182.31 222.08 C234.86 160.57, 289.15 97.99, 342.39 37.93 M192.94 222.04 C242.37 164.69, 292.24 106.02, 341.86 50.72 M192.94 222.04 C249.79 157.15, 306.61 91.74, 341.86 50.72 M203.57 222.01 C246.52 169.61, 292.7 120.94, 342 62.77 M203.57 222.01 C251.59 166.92, 299.92 112.8, 342 62.77 M214.2 221.98 C253.05 174.59, 293.62 130.5, 342.13 74.81 M214.2 221.98 C246.37 185.76, 277.17 149.98, 342.13 74.81 M224.17 222.7 C268.31 174.11, 308.52 122.97, 342.26 86.85 M224.17 222.7 C270.49 166.73, 318.34 113.34, 342.26 86.85 M234.8 222.66 C256.98 196.65, 277.51 172.28, 342.4 98.89 M234.8 222.66 C273.22 178.53, 312.82 133.37, 342.4 98.89 M245.43 222.63 C277.46 187.78, 309.66 152.91, 341.87 111.68 M245.43 222.63 C268.02 195.94, 292.87 166.55, 341.87 111.68 M256.06 222.59 C291.7 182.11, 324.8 146.47, 342.01 123.72 M256.06 222.59 C281.9 192.06, 307.2 162.09, 342.01 123.72 M266.69 222.56 C281.44 203.96, 295.92 188.15, 342.14 135.77 M266.69 222.56 C296.98 189.26, 324.94 156.76, 342.14 135.77 M277.32 222.52 C294.12 204.42, 306.78 186.16, 342.27 147.81 M277.32 222.52 C300.82 197.72, 323.44 171.7, 342.27 147.81 M287.95 222.49 C299.53 209.39, 310.02 194.71, 342.41 159.85 M287.95 222.49 C308.44 197.95, 329.34 175, 342.41 159.85 M298.58 222.45 C312 207.36, 322.69 193.85, 341.88 172.64 M298.58 222.45 C311.77 207, 323.91 192.98, 341.88 172.64 M309.21 222.42 C321.7 210.72, 329.39 198.12, 342.02 184.68 M309.21 222.42 C319.97 209.16, 332.84 194.91, 342.02 184.68 M321.16 220.88 C327.38 217.04, 330.31 207.69, 342.15 196.72 M321.16 220.88 C327.3 213.4, 334.11 206.72, 342.15 196.72" stroke="#ffc9c9" stroke-width="1" fill="none"></path><path d="M32 0 C97.12 -1.42, 159.01 -0.23, 310 0 M32 0 C113.66 1.22, 194.78 1.05, 310 0 M310 0 C333.03 1.06, 340.21 9.25, 342 32 M310 0 C331.44 2.26, 340.09 9.72, 342 32 M342 32 C340.84 77.03, 341.87 123.28, 342 190 M342 32 C340.32 88.26, 340.99 144.52, 342 190 M342 190 C341.56 212.17, 330.52 222.27, 310 222 M342 190 C341.66 209.26, 333.34 222.07, 310 222 M310 222 C204.03 221.27, 98.55 221.28, 32 222 M310 222 C221.5 220.54, 131.57 219.76, 32 222 M32 222 C11.17 222.75, -1.41 211.63, 0 190 M32 222 C12.17 223.29, 0.18 212.39, 0 190 M0 190 C-0.61 157.06, 1.87 124.22, 0 32 M0 190 C-0.18 136.04, 0.26 79.92, 0 32 M0 32 C-0.75 12.43, 8.89 -1.33, 32 0 M0 32 C-0.56 10.73, 9.26 -1.59, 32 0" stroke="#1e1e1e" stroke-width="2" fill="none"></path></g><g transform="translate(66 618) rotate(0 102.20833587646484 12.5)"><text x="0" y="0" font-family="Virgil, Segoe UI Emoji" font-size="20px" fill="#1e1e1e" text-anchor="start" style="white-space: pre;" direction="ltr" dominant-baseline="text-before-edge">RealmRoleCertificate</text></g><g transform="translate(63 678) rotate(0 57.766666412353516 62.5)"><text x="0" y="0" font-family="Virgil, Segoe UI Emoji" font-size="20px" fill="#1e1e1e" text-anchor="start" style="white-space: pre;" direction="ltr" dominant-baseline="text-before-edge">- author</text><text x="0" y="25" font-family="Virgil, Segoe UI Emoji" font-size="20px" fill="#1e1e1e" text-anchor="start" style="white-space: pre;" direction="ltr" dominant-baseline="text-before-edge">- timestamp</text><text x="0" y="50" font-family="Virgil, Segoe UI Emoji" font-size="20px" fill="#1e1e1e" text-anchor="start" style="white-space: pre;" direction="ltr" dominant-baseline="text-before-edge">- realm_id</text><text x="0" y="75" font-family="Virgil, Segoe UI Emoji" font-size="20px" fill="#1e1e1e" text-anchor="start" style="white-space: pre;" direction="ltr" dominant-baseline="text-before-edge">- user_id</text><text x="0" y="100" font-family="Virgil, Segoe UI Emoji" font-size="20px" fill="#1e1e1e" text-anchor="start" style="white-space: pre;" direction="ltr" dominant-baseline="text-before-edge">- user_role</text></g><g stroke-linecap="round" transform="translate(767 363) rotate(0 120.5 142.5)"><path d="M7.86 8.16 C7.86 8.16, 7.86 8.16, 7.86 8.16 M7.86 8.16 C7.86 8.16, 7.86 8.16, 7.86 8.16 M1.43 27.75 C6.92 24.02, 12.13 15.83, 24.4 1.33 M1.43 27.75 C11.2 17.09, 18.96 8.25, 24.4 1.33 M0.91 40.54 C10.33 28.49, 24.75 15.03, 36.34 -0.21 M0.91 40.54 C13.11 25.79, 25.45 10.94, 36.34 -0.21 M1.04 52.58 C14.14 35.43, 29.82 22.15, 46.97 -0.25 M1.04 52.58 C11.34 40.01, 22.57 27.25, 46.97 -0.25 M1.18 64.62 C22.05 38.75, 42.76 16.71, 57.6 -0.28 M1.18 64.62 C19.47 45.38, 36.54 23.97, 57.6 -0.28 M1.31 76.67 C23.31 50.74, 43.66 28.06, 67.57 0.44 M1.31 76.67 C25.91 47.86, 52.08 17.52, 67.57 0.44 M0.79 89.46 C26.7 57.4, 54.6 25.59, 78.2 0.41 M0.79 89.46 C24.24 61.27, 49 35.1, 78.2 0.41 M0.92 101.5 C31.4 64.62, 61.49 32.03, 88.83 0.37 M0.92 101.5 C33.58 65.23, 65.25 26.19, 88.83 0.37 M1.05 113.54 C25.25 85.9, 44.37 60.15, 99.46 0.34 M1.05 113.54 C22.85 89.52, 44.66 64.07, 99.46 0.34 M1.19 125.58 C38.79 84.17, 73.47 42.8, 110.09 0.3 M1.19 125.58 C32.52 90.85, 63.87 52.96, 110.09 0.3 M0.66 138.38 C38.69 98.61, 72.28 58.2, 120.72 0.27 M0.66 138.38 C35.47 99.12, 69.94 60.68, 120.72 0.27 M0.8 150.42 C27.19 119.6, 56.19 88.81, 131.35 0.23 M0.8 150.42 C29.25 117.28, 59.12 83.27, 131.35 0.23 M0.93 162.46 C51.53 103.58, 102.56 45.31, 141.98 0.2 M0.93 162.46 C44.73 111.47, 88.53 60.29, 141.98 0.2 M1.06 174.5 C56.96 108.26, 114.44 41.68, 152.61 0.16 M1.06 174.5 C35.47 136.48, 68.63 98.17, 152.61 0.16 M0.54 187.3 C55.7 120.19, 114.74 53.75, 163.24 0.13 M0.54 187.3 C51.22 128.2, 102.79 69.08, 163.24 0.13 M0.67 199.34 C67.64 120.17, 133.05 42.42, 173.87 0.09 M0.67 199.34 C59.48 131.87, 117.31 65.13, 173.87 0.09 M0.81 211.38 C62.8 143.1, 120.8 73.61, 184.5 0.06 M0.81 211.38 C50.44 155.28, 100.43 96.83, 184.5 0.06 M0.94 223.42 C60.7 156.44, 117.69 89.77, 195.13 0.03 M0.94 223.42 C77.08 134.69, 155.04 45.67, 195.13 0.03 M0.42 236.22 C52.48 175.21, 104.45 116.44, 205.76 -0.01 M0.42 236.22 C73.94 152.95, 146.74 68.91, 205.76 -0.01 M0.55 248.26 C59.31 179.18, 120.57 110.69, 215.08 1.47 M0.55 248.26 C45.23 198.17, 88.59 148.93, 215.08 1.47 M1.34 259.54 C45.21 207.13, 91.35 155.33, 224.4 2.94 M1.34 259.54 C67.75 185.01, 132.95 109.04, 224.4 2.94 M3.44 269.32 C57.8 205.52, 112.67 142.73, 231.09 7.43 M3.44 269.32 C80.89 182.08, 156.66 94.04, 231.09 7.43 M8.17 276.08 C55.01 224.09, 99.96 170.62, 237.13 12.68 M8.17 276.08 C61.69 215.26, 115.55 155.37, 237.13 12.68 M14.2 281.33 C100.46 179.22, 188.51 77.33, 239.89 21.71 M14.2 281.33 C96.89 185.66, 181.05 89.65, 239.89 21.71 M22.87 283.55 C102.13 191.89, 181.75 102.7, 241.33 32.24 M22.87 283.55 C82.32 215.08, 140.3 147.43, 241.33 32.24 M32.18 285.03 C86.94 221.85, 140.63 158.05, 241.47 44.28 M32.18 285.03 C81.98 225.37, 135.35 165.55, 241.47 44.28 M42.81 285 C107.62 208.6, 175.3 132.82, 241.6 56.32 M42.81 285 C102.75 218.44, 161.06 150.27, 241.6 56.32 M53.44 284.96 C112.47 219.9, 167.49 154.85, 241.08 69.11 M53.44 284.96 C111.7 216.83, 169.34 150.68, 241.08 69.11 M64.07 284.93 C113.57 230.01, 163.27 174.46, 241.21 81.15 M64.07 284.93 C130.19 207.32, 197.79 128.68, 241.21 81.15 M74.7 284.89 C122.04 228.73, 170.7 173.17, 241.34 93.2 M74.7 284.89 C117.91 235.6, 160.52 186.82, 241.34 93.2 M85.33 284.86 C125 235.83, 167.96 186.88, 241.48 105.24 M85.33 284.86 C145.77 216.56, 206.33 147.24, 241.48 105.24 M95.96 284.82 C140.53 229.13, 189.26 176.62, 241.61 117.28 M95.96 284.82 C151.32 220.76, 207.76 154.68, 241.61 117.28 M106.59 284.79 C151.33 234.87, 190.46 186.75, 241.09 130.07 M106.59 284.79 C150.87 232.99, 195.25 181.23, 241.09 130.07 M117.22 284.75 C165.45 226.31, 216.52 170.52, 241.22 142.11 M117.22 284.75 C163.38 230.67, 208.41 178.46, 241.22 142.11 M127.2 285.47 C165.11 243.08, 200.71 200.72, 241.35 154.15 M127.2 285.47 C153.9 253.7, 181.31 222.36, 241.35 154.15 M137.83 285.44 C161.75 259.73, 186.73 231.16, 241.49 166.2 M137.83 285.44 C164.78 253.33, 192.72 221.36, 241.49 166.2 M148.46 285.41 C178.01 250.07, 211.04 213.01, 241.62 178.24 M148.46 285.41 C176.39 254.06, 205.4 220.47, 241.62 178.24 M159.09 285.37 C183.13 257.37, 208.88 227.21, 241.1 191.03 M159.09 285.37 C186.06 254.66, 211.62 225.61, 241.1 191.03 M169.72 285.34 C193.68 260.62, 215.9 232.85, 241.23 203.07 M169.72 285.34 C191.34 261.12, 213.74 235.69, 241.23 203.07 M180.35 285.3 C201.47 261.03, 223.86 238.59, 241.36 215.11 M180.35 285.3 C199.88 263.38, 220.04 239.13, 241.36 215.11 M190.98 285.27 C207.47 265.02, 223.93 247.22, 241.5 227.15 M190.98 285.27 C209.91 262.83, 231.24 238.82, 241.5 227.15 M201.61 285.23 C211.79 273.91, 223.57 259.2, 241.63 239.2 M201.61 285.23 C213.04 270.85, 224.9 257.38, 241.63 239.2 M212.24 285.2 C222.29 271.46, 233.78 260.02, 241.11 251.99 M212.24 285.2 C220.92 274.56, 230 264.54, 241.11 251.99 M225.49 282.14 C229.84 279.93, 231.32 274.79, 239.27 266.3 M225.49 282.14 C227.72 279.01, 231.25 275.8, 239.27 266.3" stroke="#b2f2bb" stroke-width="1" fill="none"></path><path d="M32 0 C84.06 -1.34, 135.88 0.86, 209 0 M32 0 C84 -0.43, 134.37 -1.51, 209 0 M209 0 C229.38 -0.88, 242.31 10.59, 241 32 M209 0 C231.39 -2.13, 239.78 8.6, 241 32 M241 32 C240.51 83.63, 240.7 133.59, 241 253 M241 32 C241.85 109.76, 241.17 187.42, 241 253 M241 253 C240.71 272.82, 228.86 286.65, 209 285 M241 253 C241.76 273.06, 231.43 284.72, 209 285 M209 285 C150.47 285.79, 90.14 283.57, 32 285 M209 285 C139.84 285.65, 71.06 285.36, 32 285 M32 285 C12.55 285.86, 0.22 273.11, 0 253 M32 285 C11.59 282.87, -1.24 273.08, 0 253 M0 253 C1.97 180.73, 1.72 106.83, 0 32 M0 253 C-1.53 175.7, -1.08 96.76, 0 32 M0 32 C-1.56 12.66, 11.27 1.62, 32 0 M0 32 C-1.07 9.01, 11.12 0.41, 32 0" stroke="#1e1e1e" stroke-width="2" fill="none"></path></g><g transform="translate(772 380.5) rotate(0 102.69999694824219 125)"><text x="0" y="0" font-family="Virgil, Segoe UI Emoji" font-size="20px" fill="#1e1e1e" text-anchor="start" style="white-space: pre;" direction="ltr" dominant-baseline="text-before-edge"></text><text x="0" y="25" font-family="Virgil, Segoe UI Emoji" font-size="20px" fill="#1e1e1e" text-anchor="start" style="white-space: pre;" direction="ltr" dominant-baseline="text-before-edge">       KeyBundle</text><text x="0" y="50" font-family="Virgil, Segoe UI Emoji" font-size="20px" fill="#1e1e1e" text-anchor="start" style="white-space: pre;" direction="ltr" dominant-baseline="text-before-edge"></text><text x="0" y="75" font-family="Virgil, Segoe UI Emoji" font-size="20px" fill="#1e1e1e" text-anchor="start" style="white-space: pre;" direction="ltr" dominant-baseline="text-before-edge">  - author</text><text x="0" y="100" font-family="Virgil, Segoe UI Emoji" font-size="20px" fill="#1e1e1e" text-anchor="start" style="white-space: pre;" direction="ltr" dominant-baseline="text-before-edge">  - timestamp</text><text x="0" y="125" font-family="Virgil, Segoe UI Emoji" font-size="20px" fill="#1e1e1e" text-anchor="start" style="white-space: pre;" direction="ltr" dominant-baseline="text-before-edge">  - realm_id</text><text x="0" y="150" font-family="Virgil, Segoe UI Emoji" font-size="20px" fill="#1e1e1e" text-anchor="start" style="white-space: pre;" direction="ltr" dominant-baseline="text-before-edge">  - key_index1: key1</text><text x="0" y="175" font-family="Virgil, Segoe UI Emoji" font-size="20px" fill="#1e1e1e" text-anchor="start" style="white-space: pre;" direction="ltr" dominant-baseline="text-before-edge">  - key_index2: key2</text><text x="0" y="200" font-family="Virgil, Segoe UI Emoji" font-size="20px" fill="#1e1e1e" text-anchor="start" style="white-space: pre;" direction="ltr" dominant-baseline="text-before-edge">  - ...</text><text x="0" y="225" font-family="Virgil, Segoe UI Emoji" font-size="20px" fill="#1e1e1e" text-anchor="start" style="white-space: pre;" direction="ltr" dominant-baseline="text-before-edge"></text></g><g stroke-linecap="round" transform="translate(774.5 695) rotate(0 120.5 74.5)"><path d="M7.86 8.16 C7.86 8.16, 7.86 8.16, 7.86 8.16 M7.86 8.16 C7.86 8.16, 7.86 8.16, 7.86 8.16 M1.43 27.75 C8.49 22.03, 14.43 12.12, 24.4 1.33 M1.43 27.75 C10.43 16.84, 19.07 6.39, 24.4 1.33 M0.91 40.54 C14.22 24.36, 27.49 9, 36.34 -0.21 M0.91 40.54 C11.73 28.27, 22.87 17.07, 36.34 -0.21 M1.04 52.58 C12.29 38.46, 21.98 27.26, 46.97 -0.25 M1.04 52.58 C18.43 32.17, 35.76 12.57, 46.97 -0.25 M1.18 64.62 C21.83 42.85, 40.12 18.85, 57.6 -0.28 M1.18 64.62 C16.93 46.24, 32.46 27.26, 57.6 -0.28 M1.31 76.67 C26.41 49.38, 51.06 20, 67.57 0.44 M1.31 76.67 C21.59 54.12, 39.93 31.64, 67.57 0.44 M1.44 88.71 C26.76 58.5, 54.27 27.77, 78.2 0.41 M1.44 88.71 C26.79 60.03, 51.98 29.66, 78.2 0.41 M0.92 101.5 C22.41 81.32, 38.2 57, 88.83 0.37 M0.92 101.5 C22.57 77.78, 42.94 52.39, 88.83 0.37 M1.05 113.54 C25.28 84.65, 52.89 56.57, 99.46 0.34 M1.05 113.54 C39.2 68.55, 78.23 24.03, 99.46 0.34 M1.19 125.58 C39.16 83.21, 71.87 40.38, 110.09 0.3 M1.19 125.58 C33.89 89.32, 63.73 52.99, 110.09 0.3 M3.94 134.61 C46.58 83.09, 91.32 33.73, 120.72 0.27 M3.94 134.61 C38.23 94.04, 74.76 53.44, 120.72 0.27 M9.33 140.61 C38.99 108.05, 68.83 72.65, 131.35 0.23 M9.33 140.61 C56.95 85.94, 102.92 31.26, 131.35 0.23 M15.36 145.86 C61.06 89.05, 111.26 37.42, 141.98 0.2 M15.36 145.86 C44.81 110.59, 75.14 76.68, 141.98 0.2 M24.03 148.09 C56.12 110.37, 89.7 73.76, 152.61 0.16 M24.03 148.09 C51.84 117.07, 79.31 85.51, 152.61 0.16 M33.34 149.56 C70.4 105.17, 112.45 60.65, 163.24 0.13 M33.34 149.56 C71.08 105.35, 108.38 61.37, 163.24 0.13 M43.97 149.53 C80.84 108.59, 117.42 64.25, 173.87 0.09 M43.97 149.53 C92.11 94.2, 141.44 38.37, 173.87 0.09 M54.6 149.49 C106.54 91.38, 156.71 29.75, 184.5 0.06 M54.6 149.49 C90.05 110.32, 126.6 69.37, 184.5 0.06 M65.23 149.46 C114.33 95.79, 159.97 37.84, 195.13 0.03 M65.23 149.46 C117.75 90.07, 168.28 32.19, 195.13 0.03 M75.86 149.42 C110.59 109.39, 146.59 69.3, 205.76 -0.01 M75.86 149.42 C116.38 103.56, 156.17 55.94, 205.76 -0.01 M86.49 149.39 C137.79 91.76, 188.12 32.54, 215.74 0.71 M86.49 149.39 C125.72 104.15, 163.02 60.97, 215.74 0.71 M97.12 149.35 C137.94 105.17, 178.38 57.8, 224.4 2.94 M97.12 149.35 C127.17 112.22, 157.93 77.08, 224.4 2.94 M107.75 149.32 C154.16 94.82, 200.13 39.93, 231.09 7.43 M107.75 149.32 C135.81 116.08, 166.05 82.35, 231.09 7.43 M118.38 149.29 C156.85 106.85, 196.6 60.62, 237.13 12.68 M118.38 149.29 C146.81 114.52, 175.27 82.4, 237.13 12.68 M129.01 149.25 C170.05 105.49, 209.17 58.61, 239.89 21.71 M129.01 149.25 C163.47 110.48, 196.27 71.78, 239.89 21.71 M139.64 149.22 C165.63 121.02, 190.07 95.44, 241.33 32.24 M139.64 149.22 C178.26 101.61, 219.5 57.31, 241.33 32.24 M150.27 149.18 C177.14 114.13, 208.03 82.72, 241.47 44.28 M150.27 149.18 C175.2 119.88, 198.76 92.42, 241.47 44.28 M160.9 149.15 C177.96 129.54, 193.09 113.71, 241.6 56.32 M160.9 149.15 C184.58 120.11, 209.65 94.01, 241.6 56.32 M171.54 149.11 C188.12 132.77, 203.63 110.77, 241.08 69.11 M171.54 149.11 C190.44 128.41, 208.77 105.94, 241.08 69.11 M182.17 149.08 C201.29 124.54, 220.52 104.39, 241.21 81.15 M182.17 149.08 C198.8 129.13, 214.71 111.82, 241.21 81.15 M192.8 149.04 C208.36 134.48, 220.65 115.85, 241.34 93.2 M192.8 149.04 C207.93 130.52, 223.16 114.06, 241.34 93.2 M203.43 149.01 C218.27 134.87, 231.44 120.2, 241.48 105.24 M203.43 149.01 C216.7 133.27, 232.03 117.67, 241.48 105.24 M214.06 148.98 C224.38 135.52, 236.31 126, 241.61 117.28 M214.06 148.98 C223.55 137.08, 234.19 125.46, 241.61 117.28 M228.62 144.41 C230.68 140.04, 232.83 138.77, 237.15 134.6 M228.62 144.41 C231.35 141.78, 234.54 138.43, 237.15 134.6" stroke="#b2f2bb" stroke-width="1" fill="none"></path><path d="M32 0 C96.93 -2.38, 161.95 -2.22, 209 0 M32 0 C73.55 -1.17, 114.6 -1.33, 209 0 M209 0 C232.23 -0.89, 241.12 10.74, 241 32 M209 0 C232.37 -0.72, 243.08 10.53, 241 32 M241 32 C240.5 54.65, 241.74 76.61, 241 117 M241 32 C240.12 64.92, 241.22 96.53, 241 117 M241 117 C241.4 139.02, 231.41 147.23, 209 149 M241 117 C239.11 139.15, 229.88 150.97, 209 149 M209 149 C156.99 146.18, 99.84 147.65, 32 149 M209 149 C170.23 149.98, 131.81 150.92, 32 149 M32 149 C10.64 150.9, 0 138.89, 0 117 M32 149 C10.99 147.43, 2.1 137.46, 0 117 M0 117 C2.09 84.29, 1.79 55.66, 0 32 M0 117 C-1.07 88.54, 0.01 59.84, 0 32 M0 32 C0.2 12.16, 10.97 0.07, 32 0 M0 32 C0.62 9.22, 11.55 0.97, 32 0" stroke="#1e1e1e" stroke-width="2" fill="none"></path></g><g transform="translate(779.5 707) rotate(0 100.625 62.5)"><text x="0" y="0" font-family="Virgil, Segoe UI Emoji" font-size="20px" fill="#1e1e1e" text-anchor="start" style="white-space: pre;" direction="ltr" dominant-baseline="text-before-edge"></text><text x="0" y="25" font-family="Virgil, Segoe UI Emoji" font-size="20px" fill="#1e1e1e" text-anchor="start" style="white-space: pre;" direction="ltr" dominant-baseline="text-before-edge">    KeyBundleAccess</text><text x="0" y="50" font-family="Virgil, Segoe UI Emoji" font-size="20px" fill="#1e1e1e" text-anchor="start" style="white-space: pre;" direction="ltr" dominant-baseline="text-before-edge"></text><text x="0" y="75" font-family="Virgil, Segoe UI Emoji" font-size="20px" fill="#1e1e1e" text-anchor="start" style="white-space: pre;" direction="ltr" dominant-baseline="text-before-edge">  - keys_bundle_key</text><text x="0" y="100" font-family="Virgil, Segoe UI Emoji" font-size="20px" fill="#1e1e1e" text-anchor="start" style="white-space: pre;" direction="ltr" dominant-baseline="text-before-edge"></text></g><g mask="url(#mask-hefIxt3N7BMTLCh5iQQNQ)" stroke-linecap="round"><g transform="translate(1014.8774455228679 781.4976906394398) rotate(0 46.7493410600855 -100.33427499857726)"><path d="M-0.63 1.12 C15.88 -14.39, 99.55 -59.34, 98.87 -93.16 C98.19 -126.97, 12.54 -183.92, -4.7 -201.79 M1.24 0.66 C17.68 -14.7, 99.44 -58.42, 98.33 -91.97 C97.23 -125.51, 11.72 -182.23, -5.38 -200.62" stroke="#1e1e1e" stroke-width="2" fill="none"></path></g><g transform="translate(1014.8774455228679 781.4976906394398) rotate(0 46.7493410600855 -100.33427499857726)"><path d="M22.76 -190.2 C16.61 -192.01, 5.64 -195.99, -5.38 -200.62 M22.76 -190.2 C13.98 -192.2, 8.07 -195.35, -5.38 -200.62" stroke="#1e1e1e" stroke-width="2" fill="none"></path></g><g transform="translate(1014.8774455228679 781.4976906394398) rotate(0 46.7493410600855 -100.33427499857726)"><path d="M9.47 -174.56 C7.13 -180.75, -0.06 -189.19, -5.38 -200.62 M9.47 -174.56 C4.32 -181, 2.08 -188.47, -5.38 -200.62" stroke="#1e1e1e" stroke-width="2" fill="none"></path></g></g><mask id="mask-hefIxt3N7BMTLCh5iQQNQ"><rect x="0" y="0" fill="#fff" width="1217.8439297741534" height="1082.9953812788797"></rect><rect x="1046.6665669420715" y="651.5" fill="#000" width="132.60000610351562" height="75" opacity="1"></rect></mask><g transform="translate(1046.6665669420713 651.5) rotate(0 14.960219640882087 29.66341564086258)"><text x="66.30000305175781" y="0" font-family="Virgil, Segoe UI Emoji" font-size="20px" fill="#1e1e1e" text-anchor="middle" style="white-space: pre;" direction="ltr" dominant-baseline="text-before-edge">symmetric</text><text x="66.30000305175781" y="25" font-family="Virgil, Segoe UI Emoji" font-size="20px" fill="#1e1e1e" text-anchor="middle" style="white-space: pre;" direction="ltr" dominant-baseline="text-before-edge">encryption</text><text x="66.30000305175781" y="50" font-family="Virgil, Segoe UI Emoji" font-size="20px" fill="#1e1e1e" text-anchor="middle" style="white-space: pre;" direction="ltr" dominant-baseline="text-before-edge">+ user signing</text></g><g mask="url(#mask-nvHamXvrl1yBHzCINTE1z)" stroke-linecap="round"><g transform="translate(355 388) rotate(0 205.37854800049934 79.9555186769506)"><path d="M-0.37 -0.38 C37.69 7.12, 158.84 17.49, 227.42 44.47 C296 71.46, 380.6 142.12, 411.12 161.53 M1.64 -1.62 C40.18 6.08, 161.68 18.89, 229.83 45.74 C297.97 72.58, 380.38 140.09, 410.52 159.47" stroke="#1e1e1e" stroke-width="2" fill="none"></path></g><g transform="translate(355 388) rotate(0 205.37854800049934 79.9555186769506)"><path d="M1.38 -7.89 C2.94 -7.59, 3.69 -6.68, 4.88 -5.51 C6.07 -4.34, 8.3 -2.71, 8.51 -0.88 C8.72 0.94, 7.32 4.11, 6.14 5.45 C4.97 6.8, 3.16 6.92, 1.45 7.2 C-0.27 7.48, -2.56 7.77, -4.15 7.12 C-5.73 6.48, -7.51 5.06, -8.06 3.33 C-8.61 1.6, -7.86 -1.33, -7.45 -3.25 C-7.04 -5.16, -7.24 -7.28, -5.6 -8.16 C-3.97 -9.03, 0.57 -8.87, 2.38 -8.49 C4.2 -8.11, 5.29 -5.97, 5.28 -5.87 M-3.78 -9.56 C-2.12 -10.35, 1.58 -8.73, 3.45 -7.86 C5.32 -6.99, 6.78 -5.75, 7.44 -4.33 C8.11 -2.91, 7.62 -0.83, 7.44 0.67 C7.27 2.17, 7.86 3.48, 6.39 4.68 C4.92 5.88, 0.39 7.69, -1.39 7.87 C-3.18 8.04, -3.18 6.69, -4.33 5.75 C-5.48 4.8, -7.62 4.04, -8.27 2.19 C-8.93 0.34, -8.85 -3.6, -8.25 -5.38 C-7.65 -7.15, -5.5 -7.9, -4.67 -8.47 C-3.83 -9.04, -3.57 -8.88, -3.26 -8.81" stroke="none" stroke-width="0" fill="#1e1e1e"></path></g><g transform="translate(355 388) rotate(0 205.37854800049934 79.9555186769506)"><path d="M412.26 151.96 C413.83 152.26, 414.58 153.17, 415.77 154.34 C416.95 155.5, 419.18 157.14, 419.4 158.96 C419.61 160.79, 418.21 163.95, 417.03 165.3 C415.85 166.64, 414.05 166.77, 412.33 167.05 C410.62 167.32, 408.33 167.61, 406.74 166.97 C405.16 166.32, 403.37 164.9, 402.82 163.18 C402.28 161.45, 403.03 158.51, 403.44 156.6 C403.85 154.68, 403.65 152.56, 405.28 151.69 C406.92 150.81, 411.46 150.97, 413.27 151.36 C415.08 151.74, 416.17 153.87, 416.16 153.97 M407.11 150.29 C408.77 149.5, 412.47 151.11, 414.34 151.98 C416.21 152.86, 417.66 154.09, 418.33 155.51 C419 156.94, 418.51 159.02, 418.33 160.52 C418.16 162.02, 418.75 163.32, 417.28 164.52 C415.81 165.72, 411.28 167.53, 409.49 167.71 C407.71 167.89, 407.71 166.54, 406.56 165.59 C405.41 164.65, 403.27 163.89, 402.61 162.04 C401.96 160.18, 402.04 156.24, 402.64 154.47 C403.24 152.69, 405.39 151.95, 406.22 151.38 C407.05 150.8, 407.32 150.97, 407.63 151.04" stroke="none" stroke-width="0" fill="#1e1e1e"></path></g></g><mask id="mask-nvHamXvrl1yBHzCINTE1z"><rect x="0" y="0" fill="#fff" width="865.809298055857" height="649"></rect><rect x="540.9749984741211" y="408" fill="#000" width="84.05000305175781" height="50" opacity="1"></rect></mask><g transform="translate(540.9749984741211 408) rotate(0 19.403549526378242 59.9555186769506)"><text x="42.025001525878906" y="0" font-family="Virgil, Segoe UI Emoji" font-size="20px" fill="#1e1e1e" text-anchor="middle" style="white-space: pre;" direction="ltr" dominant-baseline="text-before-edge">Created</text><text x="42.025001525878906" y="25" font-family="Virgil, Segoe UI Emoji" font-size="20px" fill="#1e1e1e" text-anchor="middle" style="white-space: pre;" direction="ltr" dominant-baseline="text-before-edge">together</text></g><g mask="url(#mask-_er7wmnmKJA05JbJPXnag)" stroke-linecap="round"><g transform="translate(372.4270436051888 706.5203048074369) rotate(0 200.177997828851 45.340690243442964)"><path d="M-0.66 -0.14 C35.2 7.84, 149.24 32.83, 216.18 47.98 C283.13 63.13, 370.17 83.72, 401.01 90.77 M1.2 -1.26 C37.33 6.9, 151.91 33.88, 218.41 49.42 C284.91 64.95, 369.69 85.02, 400.22 91.95" stroke="#1e1e1e" stroke-width="2" fill="none"></path></g><g transform="translate(372.4270436051888 706.5203048074369) rotate(0 200.177997828851 45.340690243442964)"><path d="M-1.95 -7.85 C-0.32 -8.33, 1.99 -7.72, 3.65 -7.04 C5.32 -6.35, 7.43 -5.27, 8.03 -3.76 C8.64 -2.25, 7.82 0.32, 7.27 2.03 C6.72 3.74, 6.36 5.37, 4.74 6.52 C3.11 7.67, -0.35 8.99, -2.49 8.93 C-4.62 8.87, -6.92 7.54, -8.06 6.16 C-9.21 4.79, -9.33 2.45, -9.34 0.66 C-9.34 -1.14, -9.52 -3.19, -8.1 -4.6 C-6.69 -6, -2.57 -7.27, -0.83 -7.76 C0.91 -8.25, 2.33 -7.61, 2.34 -7.54 M2.24 -7.4 C3.99 -6.74, 7.01 -5.13, 8.15 -3.53 C9.28 -1.93, 9.73 0.71, 9.05 2.22 C8.37 3.73, 6.05 4.28, 4.05 5.51 C2.06 6.75, -1 9.54, -2.93 9.62 C-4.86 9.7, -6.39 7.74, -7.53 6.01 C-8.67 4.29, -9.89 1.09, -9.77 -0.73 C-9.64 -2.56, -7.92 -3.5, -6.8 -4.96 C-5.69 -6.41, -4.96 -8.92, -3.07 -9.47 C-1.18 -10.03, 3.71 -8.41, 4.53 -8.27 C5.35 -8.14, 2.3 -8.75, 1.82 -8.68" stroke="none" stroke-width="0" fill="#1e1e1e"></path></g><g transform="translate(372.4270436051888 706.5203048074369) rotate(0 200.177997828851 45.340690243442964)"><path d="M398.93 84.24 C400.56 83.76, 402.87 84.37, 404.53 85.05 C406.19 85.73, 408.31 86.82, 408.91 88.33 C409.51 89.84, 408.7 92.41, 408.15 94.12 C407.6 95.83, 407.24 97.46, 405.61 98.61 C403.99 99.76, 400.52 101.08, 398.39 101.02 C396.26 100.96, 393.95 99.63, 392.81 98.25 C391.67 96.87, 391.55 94.54, 391.54 92.74 C391.53 90.95, 391.35 88.9, 392.77 87.49 C394.19 86.09, 398.3 84.82, 400.04 84.33 C401.78 83.84, 403.2 84.48, 403.22 84.55 M403.12 84.69 C404.86 85.35, 407.89 86.96, 409.02 88.56 C410.16 90.16, 410.61 92.8, 409.92 94.31 C409.24 95.82, 406.92 96.37, 404.93 97.6 C402.93 98.84, 399.88 101.63, 397.95 101.71 C396.02 101.79, 394.48 99.83, 393.35 98.1 C392.21 96.38, 390.99 93.18, 391.11 91.35 C391.23 89.53, 392.96 88.59, 394.07 87.13 C395.19 85.68, 395.92 83.17, 397.81 82.62 C399.69 82.06, 404.59 83.68, 405.41 83.81 C406.22 83.95, 403.18 83.34, 402.7 83.41" stroke="none" stroke-width="0" fill="#1e1e1e"></path></g></g><mask id="mask-_er7wmnmKJA05JbJPXnag"><rect x="0" y="0" fill="#fff" width="873.5" height="897.5577074280941"></rect><rect x="533.5761002644897" y="717.1885415621102" fill="#000" width="111.9000015258789" height="75" opacity="1"></rect></mask><g transform="translate(533.5761002644897 717.1885415621102) rotate(0 39.02894116955014 34.672453488769634)"><text x="55.95000076293945" y="0" font-family="Virgil, Segoe UI Emoji" font-size="20px" fill="#1e1e1e" text-anchor="middle" style="white-space: pre;" direction="ltr" dominant-baseline="text-before-edge">Created</text><text x="55.95000076293945" y="25" font-family="Virgil, Segoe UI Emoji" font-size="20px" fill="#1e1e1e" text-anchor="middle" style="white-space: pre;" direction="ltr" dominant-baseline="text-before-edge">together</text><text x="55.95000076293945" y="50" font-family="Virgil, Segoe UI Emoji" font-size="20px" fill="#1e1e1e" text-anchor="middle" style="white-space: pre;" direction="ltr" dominant-baseline="text-before-edge">(on sharing)</text></g><g mask="url(#mask-OQ384gYSP3V3vgoFjWL5h)" stroke-linecap="round"><g transform="translate(356.5175285070525 466.3797975703234) rotate(0 208.00988483730026 122.56423116959897)"><path d="M-0.35 1.14 C36.59 14.06, 152.43 36.86, 221.88 77.25 C291.34 117.64, 383.99 215.86, 416.37 243.49 M1.67 0.7 C38.42 13.83, 151.84 38.13, 220.87 78.75 C289.89 119.37, 383.21 216.97, 415.81 244.43" stroke="#1e1e1e" stroke-width="2" fill="none"></path></g><g transform="translate(356.5175285070525 466.3797975703234) rotate(0 208.00988483730026 122.56423116959897)"><path d="M2.14 -7.97 C3.87 -7.61, 6.18 -4.49, 7.3 -2.77 C8.42 -1.04, 9.16 0.78, 8.88 2.38 C8.6 3.98, 6.96 5.61, 5.64 6.81 C4.31 8.01, 2.78 9.34, 0.94 9.59 C-0.9 9.84, -3.92 9.37, -5.39 8.29 C-6.86 7.21, -7.4 4.79, -7.87 3.13 C-8.34 1.46, -8.91 -0.28, -8.22 -1.71 C-7.54 -3.14, -5.48 -4.73, -3.75 -5.47 C-2.03 -6.21, 0.95 -6.11, 2.12 -6.16 C3.29 -6.21, 3.36 -5.9, 3.27 -5.77 M-2.74 -7.55 C-1.13 -8.06, 0.48 -6.44, 1.92 -5.64 C3.36 -4.84, 4.75 -4.08, 5.91 -2.77 C7.06 -1.45, 9.16 0.68, 8.85 2.25 C8.54 3.83, 5.66 5.61, 4.04 6.67 C2.43 7.73, 0.83 8.26, -0.86 8.59 C-2.56 8.92, -4.66 9.74, -6.11 8.63 C-7.55 7.53, -9.15 4, -9.54 1.94 C-9.92 -0.11, -9.41 -2.31, -8.43 -3.7 C-7.44 -5.09, -4.57 -5.74, -3.64 -6.39 C-2.71 -7.04, -2.77 -7.46, -2.83 -7.59" stroke="none" stroke-width="0" fill="#1e1e1e"></path></g><g transform="translate(356.5175285070525 466.3797975703234) rotate(0 208.00988483730026 122.56423116959897)"><path d="M418.3 235.31 C420.03 235.68, 422.34 238.79, 423.46 240.52 C424.58 242.24, 425.32 244.07, 425.04 245.66 C424.76 247.26, 423.12 248.89, 421.8 250.09 C420.48 251.3, 418.94 252.63, 417.1 252.88 C415.27 253.12, 412.24 252.65, 410.77 251.58 C409.31 250.5, 408.77 248.08, 408.29 246.41 C407.82 244.75, 407.25 243.01, 407.94 241.58 C408.62 240.14, 410.68 238.56, 412.41 237.82 C414.13 237.08, 417.11 237.18, 418.28 237.13 C419.45 237.08, 419.52 237.39, 419.43 237.51 M413.42 235.73 C415.03 235.23, 416.64 236.85, 418.08 237.65 C419.52 238.45, 420.91 239.2, 422.07 240.52 C423.22 241.83, 425.32 243.97, 425.01 245.54 C424.7 247.11, 421.82 248.9, 420.21 249.95 C418.59 251.01, 416.99 251.55, 415.3 251.87 C413.6 252.2, 411.5 253.03, 410.06 251.92 C408.61 250.81, 407.01 247.28, 406.62 245.23 C406.24 243.17, 406.75 240.97, 407.74 239.59 C408.72 238.2, 411.59 237.55, 412.52 236.9 C413.45 236.25, 413.39 235.83, 413.33 235.69" stroke="none" stroke-width="0" fill="#1e1e1e"></path></g></g><mask id="mask-OQ384gYSP3V3vgoFjWL5h"><rect x="0" y="0" fill="#fff" width="872.5" height="810.5950739982868"></rect><rect x="536.5010995015502" y="518.6885415621101" fill="#000" width="84.05000305175781" height="50" opacity="1"></rect></mask><g transform="translate(536.5010995015502 518.6885415621102) rotate(0 28.026313842802494 70.25548717781214)"><text x="42.025001525878906" y="0" font-family="Virgil, Segoe UI Emoji" font-size="20px" fill="#1e1e1e" text-anchor="middle" style="white-space: pre;" direction="ltr" dominant-baseline="text-before-edge">Created</text><text x="42.025001525878906" y="25" font-family="Virgil, Segoe UI Emoji" font-size="20px" fill="#1e1e1e" text-anchor="middle" style="white-space: pre;" direction="ltr" dominant-baseline="text-before-edge">together</text></g><g mask="url(#mask-nEmGK5lu16Ym9VAZju5CN)" stroke-linecap="round"><g transform="translate(909.9942691545593 846) rotate(0 -200.82424740547475 66.87322814146381)"><path d="M0.44 0.49 C-30 21.56, -115.51 106.92, -182.6 126.66 C-249.68 146.41, -365.69 120.45, -402.08 118.99 M-0.79 -0.3 C-31.35 20.4, -116.84 105.31, -183.33 124.89 C-249.83 144.47, -363.53 118.16, -399.76 117.16" stroke="#1e1e1e" stroke-width="2" fill="none"></path></g><g transform="translate(909.9942691545593 846) rotate(0 -200.82424740547475 66.87322814146381)"><path d="M-15.37 25.99 C-9.85 18.92, -4.8 8.76, 0.44 0.49 M-15.37 25.99 C-9.04 15.51, -2.72 6.23, 0.44 0.49" stroke="#1e1e1e" stroke-width="2" fill="none"></path></g><g transform="translate(909.9942691545593 846) rotate(0 -200.82424740547475 66.87322814146381)"><path d="M-28.06 9.86 C-18.69 7.6, -9.82 2.3, 0.44 0.49 M-28.06 9.86 C-16.88 5.57, -5.71 2.45, 0.44 0.49" stroke="#1e1e1e" stroke-width="2" fill="none"></path></g></g><mask id="mask-nEmGK5lu16Ym9VAZju5CN"><rect x="0" y="0" fill="#fff" width="1410.9885383091187" height="1072"></rect><rect x="674.9166679382324" y="934.5" fill="#000" width="104.16666412353516" height="75" opacity="1"></rect></mask><g transform="translate(674.9166679382324 934.5) rotate(0 34.25335381085216 -21.626771858536188)"><text x="52.08333206176758" y="0" font-family="Virgil, Segoe UI Emoji" font-size="20px" fill="#1e1e1e" text-anchor="middle" style="white-space: pre;" direction="ltr" dominant-baseline="text-before-edge">per-user</text><text x="52.08333206176758" y="25" font-family="Virgil, Segoe UI Emoji" font-size="20px" fill="#1e1e1e" text-anchor="middle" style="white-space: pre;" direction="ltr" dominant-baseline="text-before-edge">asymmetric</text><text x="52.08333206176758" y="50" font-family="Virgil, Segoe UI Emoji" font-size="20px" fill="#1e1e1e" text-anchor="middle" style="white-space: pre;" direction="ltr" dominant-baseline="text-before-edge">encryption</text></g><g stroke-linecap="round" transform="translate(826 83) rotate(0 62.5 47)"><path d="M3.15 9.36 C3.15 9.36, 3.15 9.36, 3.15 9.36 M3.15 9.36 C3.15 9.36, 3.15 9.36, 3.15 9.36 M0.66 24.42 C6.77 16.14, 17.84 5.26, 20.99 1.02 M0.66 24.42 C8.66 16.67, 16.47 7.95, 20.99 1.02 M0.79 36.46 C9.24 29.3, 15.41 18.34, 32.28 0.24 M0.79 36.46 C11.14 22.42, 24.21 10.44, 32.28 0.24 M0.92 48.5 C14.94 32.58, 24.51 18.66, 42.91 0.2 M0.92 48.5 C12.26 35.88, 22.86 22.29, 42.91 0.2 M0.4 61.3 C17.66 42.17, 35.67 17.78, 53.54 0.17 M0.4 61.3 C16.22 44.07, 31.58 25.38, 53.54 0.17 M0.53 73.34 C22.63 48.38, 45.81 22.5, 63.51 0.89 M0.53 73.34 C15.61 56.65, 32.33 38.5, 63.51 0.89 M3.29 82.36 C20.56 60.96, 43.1 37.44, 74.14 0.85 M3.29 82.36 C21.73 60.46, 41.95 37.07, 74.14 0.85 M8.02 89.12 C33.08 60.45, 57.51 32.24, 84.77 0.82 M8.02 89.12 C34.29 58.93, 59.05 28.8, 84.77 0.82 M14.71 93.61 C31.69 72.41, 50.07 53.46, 95.4 0.78 M14.71 93.61 C32.26 72.21, 50.32 49.93, 95.4 0.78 M24.68 94.33 C51.34 65.79, 73.1 36.54, 106.03 0.75 M24.68 94.33 C43.81 70.58, 65.47 48.82, 106.03 0.75 M35.31 94.3 C64.28 62.61, 88.01 32.67, 114.7 2.98 M35.31 94.3 C66.5 59.14, 96.79 23.19, 114.7 2.98 M45.94 94.26 C62.99 75.09, 77.19 57.12, 120.73 8.23 M45.94 94.26 C62.76 74.74, 80.49 56.19, 120.73 8.23 M56.57 94.23 C81.42 63.17, 106.63 36.28, 124.15 16.49 M56.57 94.23 C76.52 71.49, 96.64 48.79, 124.15 16.49 M67.2 94.19 C87.5 70.25, 104.72 50.24, 125.59 27.03 M67.2 94.19 C81.41 78.06, 94.23 63.61, 125.59 27.03 M77.83 94.16 C89.77 79.52, 103.87 67.63, 125.73 39.07 M77.83 94.16 C89.33 80.4, 100.48 68.11, 125.73 39.07 M88.46 94.13 C100.22 78.57, 110.44 68.27, 125.2 51.86 M88.46 94.13 C100.38 80.75, 112.57 67.06, 125.2 51.86 M99.09 94.09 C105.44 84.82, 112.27 77.42, 125.34 63.9 M99.09 94.09 C109.07 82.32, 118.13 70.5, 125.34 63.9 M111.04 92.55 C114.85 88.06, 116.24 86.52, 124.81 76.7 M111.04 92.55 C116 87.93, 119.39 82.94, 124.81 76.7" stroke="#a5d8ff" stroke-width="1" fill="none"></path><path d="M23.5 0 C41.95 -1.58, 59.51 0.66, 101.5 0 M23.5 0 C45.08 0.69, 69.21 -0.38, 101.5 0 M101.5 0 C117.4 -0.97, 126.37 8.86, 125 23.5 M101.5 0 C116.54 1.42, 126.97 9.16, 125 23.5 M125 23.5 C124.48 36.31, 125.94 49.77, 125 70.5 M125 23.5 C124.16 40.64, 124.5 58.19, 125 70.5 M125 70.5 C126.76 86.95, 118.01 95.49, 101.5 94 M125 70.5 C123.25 84.12, 118.35 94.51, 101.5 94 M101.5 94 C80.17 92.77, 64.27 94.25, 23.5 94 M101.5 94 C76.03 95.03, 51.19 94.82, 23.5 94 M23.5 94 C7.24 94.5, 1.15 86.68, 0 70.5 M23.5 94 C7.55 94.02, 2.28 85.26, 0 70.5 M0 70.5 C1.74 59.72, -0.14 48.01, 0 23.5 M0 70.5 C1.08 55.02, -0.35 37.99, 0 23.5 M0 23.5 C-1.64 9.77, 7.88 -0.6, 23.5 0 M0 23.5 C-0.72 7.52, 8.67 0.71, 23.5 0" stroke="#1e1e1e" stroke-width="2" fill="none"></path></g><g transform="translate(862.3666667938232 117.5) rotate(0 26.133333206176758 12.5)"><text x="26.133333206176758" y="0" font-family="Virgil, Segoe UI Emoji" font-size="20px" fill="#1e1e1e" text-anchor="middle" style="white-space: pre;" direction="ltr" dominant-baseline="text-before-edge">Vlob 1</text></g><g stroke-linecap="round" transform="translate(977 86) rotate(0 62.5 47)"><path d="M3.15 9.36 C3.15 9.36, 3.15 9.36, 3.15 9.36 M3.15 9.36 C3.15 9.36, 3.15 9.36, 3.15 9.36 M0.66 24.42 C6.39 19.09, 8.7 15.02, 20.99 1.02 M0.66 24.42 C7.82 15.03, 16.12 7.01, 20.99 1.02 M0.79 36.46 C9.1 26.26, 19.29 14.62, 32.28 0.24 M0.79 36.46 C7.35 27.59, 16.17 19.45, 32.28 0.24 M0.92 48.5 C15.05 31.79, 29.64 14.68, 42.91 0.2 M0.92 48.5 C12.43 34.76, 23.58 21.14, 42.91 0.2 M0.4 61.3 C14.15 45.65, 26.65 32.99, 53.54 0.17 M0.4 61.3 C11.32 47.71, 22.23 35.97, 53.54 0.17 M0.53 73.34 C12.05 58.74, 26.2 44.35, 63.51 0.89 M0.53 73.34 C22.07 48.47, 44.25 22.91, 63.51 0.89 M3.29 82.36 C27.08 52.54, 51.69 27.33, 74.14 0.85 M3.29 82.36 C19.57 64.05, 35.31 47.44, 74.14 0.85 M8.02 89.12 C28.65 63.32, 53.06 37.24, 84.77 0.82 M8.02 89.12 C37.88 54.15, 69.23 19.08, 84.77 0.82 M14.71 93.61 C35.34 73.05, 50.7 52.06, 95.4 0.78 M14.71 93.61 C45.19 60.78, 75 25.63, 95.4 0.78 M24.68 94.33 C53.66 58.27, 82.6 25.72, 106.03 0.75 M24.68 94.33 C51.87 62.89, 78.67 31.66, 106.03 0.75 M35.31 94.3 C55.37 73.99, 74.58 52.57, 114.7 2.98 M35.31 94.3 C59.01 68.67, 81.66 42.08, 114.7 2.98 M45.94 94.26 C71.99 66.52, 96.65 38.22, 120.73 8.23 M45.94 94.26 C75.67 60.45, 103.39 28.16, 120.73 8.23 M56.57 94.23 C79.98 66.51, 104.73 40.98, 124.15 16.49 M56.57 94.23 C77.54 70.13, 95.72 48.76, 124.15 16.49 M67.2 94.19 C84.38 75.81, 99.4 58.62, 125.59 27.03 M67.2 94.19 C85.89 74.73, 102.26 54.46, 125.59 27.03 M77.83 94.16 C91.71 78.25, 106.13 62.21, 125.73 39.07 M77.83 94.16 C90.59 81, 102.7 66.78, 125.73 39.07 M88.46 94.13 C98.42 80.14, 110.57 68.99, 125.2 51.86 M88.46 94.13 C101.62 80.11, 114.15 65.74, 125.2 51.86 M99.09 94.09 C109.58 83.92, 118.23 72.49, 125.34 63.9 M99.09 94.09 C107.73 82.55, 118.66 73.01, 125.34 63.9 M111.04 92.55 C116.3 87.98, 117.56 86.29, 124.81 76.7 M111.04 92.55 C114.06 88.24, 118.78 84.09, 124.81 76.7" stroke="#a5d8ff" stroke-width="1" fill="none"></path><path d="M23.5 0 C51.5 -0.55, 78.74 -1.39, 101.5 0 M23.5 0 C41.4 -0.12, 60.4 0.73, 101.5 0 M101.5 0 C118.01 1.49, 123.48 6.05, 125 23.5 M101.5 0 C118.35 0.51, 123.84 6.52, 125 23.5 M125 23.5 C126.3 34.48, 125.05 41.94, 125 70.5 M125 23.5 C125.14 41.37, 124.61 59.02, 125 70.5 M125 70.5 C126.15 86.68, 116.92 94.01, 101.5 94 M125 70.5 C127.28 85.26, 115.39 93.76, 101.5 94 M101.5 94 C81.93 92.35, 63.51 91.9, 23.5 94 M101.5 94 C78.6 93.61, 56.51 95.29, 23.5 94 M23.5 94 C7.88 93.4, -0.63 85.89, 0 70.5 M23.5 94 C8.67 94.71, 0.14 87.9, 0 70.5 M0 70.5 C-1.9 57, 0.14 40.24, 0 23.5 M0 70.5 C-0.73 56.73, -1.14 41.83, 0 23.5 M0 23.5 C1.06 8.89, 6.26 0.82, 23.5 0 M0 23.5 C1.93 6.6, 9.54 -0.79, 23.5 0" stroke="#1e1e1e" stroke-width="2" fill="none"></path></g><g transform="translate(1008.9583339691162 120.5) rotate(0 30.54166603088379 12.5)"><text x="30.54166603088379" y="0" font-family="Virgil, Segoe UI Emoji" font-size="20px" fill="#1e1e1e" text-anchor="middle" style="white-space: pre;" direction="ltr" dominant-baseline="text-before-edge">Vlob 2</text></g><g mask="url(#mask-y0GzVcOtaCMgx2t4wxHK3)" stroke-linecap="round"><g transform="translate(986 563) rotate(0 74.72192784035053 -189.79835339705)"><path d="M0.52 0.11 C25.13 -22.69, 136.01 -74.69, 148.64 -137.64 C161.26 -200.59, 88.61 -337.52, 76.29 -377.58 M-0.66 -0.87 C23.76 -23.45, 135.22 -73.3, 148.02 -136.44 C160.82 -199.58, 88.36 -339.62, 76.15 -379.71" stroke="#1e1e1e" stroke-width="2" fill="none"></path></g><g transform="translate(986 563) rotate(0 74.72192784035053 -189.79835339705)"><path d="M75.64 -379.12 L87.83 -371.31 L75.88 -364.28 L77.69 -379.67" stroke="none" stroke-width="0" fill="#1e1e1e" fill-rule="evenodd"></path><path d="M76.15 -379.71 C80.4 -375.04, 83.64 -370.43, 87.08 -369.44 M76.15 -379.71 C80.4 -376.62, 83.01 -372.97, 87.08 -369.44 M87.08 -369.44 C83.06 -367.41, 81.47 -366.21, 75.31 -364.73 M87.08 -369.44 C83.75 -368.87, 81.32 -367.59, 75.31 -364.73 M75.31 -364.73 C74.58 -369.38, 74.43 -371.41, 76.15 -379.71 M75.31 -364.73 C75.31 -370.62, 76.3 -376.29, 76.15 -379.71 M76.15 -379.71 C76.15 -379.71, 76.15 -379.71, 76.15 -379.71 M76.15 -379.71 C76.15 -379.71, 76.15 -379.71, 76.15 -379.71" stroke="#1e1e1e" stroke-width="2" fill="none"></path></g></g><mask id="mask-y0GzVcOtaCMgx2t4wxHK3"><rect x="0" y="0" fill="#fff" width="1234" height="1041"></rect><rect x="1086.875" y="401" fill="#000" width="94.25" height="50" opacity="1"></rect></mask><g transform="translate(1086.875 401) rotate(0 -26.15307215964947 -27.798353397049965)"><text x="47.125" y="0" font-family="Virgil, Segoe UI Emoji" font-size="20px" fill="#1e1e1e" text-anchor="middle" style="white-space: pre;" direction="ltr" dominant-baseline="text-before-edge">symmetric</text><text x="47.125" y="25" font-family="Virgil, Segoe UI Emoji" font-size="20px" fill="#1e1e1e" text-anchor="middle" style="white-space: pre;" direction="ltr" dominant-baseline="text-before-edge">encryption</text></g><g mask="url(#mask-cpFgJ-XMwQOlX2O5mDjAT)" stroke-linecap="round"><g transform="translate(969 534) rotate(0 18.173572067082887 -176.63199104665313)"><path d="M0.9 -0.46 C15.83 -30.32, 97.62 -119.75, 88.64 -178.17 C79.66 -236.6, -29.58 -321.87, -52.98 -350.99 M-0.09 -1.75 C14.74 -32.03, 95.93 -121.35, 87.5 -179.86 C79.07 -238.37, -27.53 -324.07, -50.7 -352.8" stroke="#1e1e1e" stroke-width="2" fill="none"></path></g><g transform="translate(969 534) rotate(0 18.173572067082887 -176.63199104665313)"><path d="M-49.07 -354.45 L-35.29 -348.38 L-46.7 -337.15 L-51.61 -354" stroke="none" stroke-width="0" fill="#1e1e1e" fill-rule="evenodd"></path><path d="M-50.7 -352.8 C-48.15 -352.22, -43.46 -352.08, -36.63 -347.58 M-50.7 -352.8 C-45.3 -350.83, -40.1 -349, -36.63 -347.58 M-36.63 -347.58 C-38.03 -346.24, -39.77 -342.41, -45.66 -338.67 M-36.63 -347.58 C-40.4 -344.72, -43.41 -340.61, -45.66 -338.67 M-45.66 -338.67 C-47.59 -342.44, -47.24 -344.4, -50.7 -352.8 M-45.66 -338.67 C-47.96 -343.03, -49.25 -348.2, -50.7 -352.8 M-50.7 -352.8 C-50.7 -352.8, -50.7 -352.8, -50.7 -352.8 M-50.7 -352.8 C-50.7 -352.8, -50.7 -352.8, -50.7 -352.8" stroke="#1e1e1e" stroke-width="2" fill="none"></path></g></g><mask id="mask-cpFgJ-XMwQOlX2O5mDjAT"><rect x="0" y="0" fill="#fff" width="1209.811055627173" height="986"></rect><rect x="1010.875" y="330" fill="#000" width="94.25" height="50" opacity="1"></rect></mask><g transform="translate(1010.875 330) rotate(0 -23.701427932917113 27.368008953346873)"><text x="47.125" y="0" font-family="Virgil, Segoe UI Emoji" font-size="20px" fill="#1e1e1e" text-anchor="middle" style="white-space: pre;" direction="ltr" dominant-baseline="text-before-edge">symmetric</text><text x="47.125" y="25" font-family="Virgil, Segoe UI Emoji" font-size="20px" fill="#1e1e1e" text-anchor="middle" style="white-space: pre;" direction="ltr" dominant-baseline="text-before-edge">encryption</text></g></svg>