<svg version="1.1" xmlns="http://www.w3.org/2000/svg" viewBox="0 0 1431.0500030517578 690" width="1431.0500030517578" height="690">
  <!-- svg-source:excalidraw -->
  
  <defs>
    <style class="style-fonts">
      @font-face {
        font-family: "Virgil";
        src: url("https://excalidraw.com/Virgil.woff2");
      }
      @font-face {
        font-family: "Cascadia";
        src: url("https://excalidraw.com/Cascadia.woff2");
      }
    </style>
    
  </defs>
  <rect x="0" y="0" width="1431.0500030517578" height="690" fill="#ffffff"></rect><g stroke-linecap="round" transform="translate(93.5 326.5) rotate(0 216 136.5)"><path d="M7.86 8.16 C7.86 8.16, 7.86 8.16, 7.86 8.16 M7.86 8.16 C7.86 8.16, 7.86 8.16, 7.86 8.16 M1.43 27.75 C7.6 19.81, 11.01 16.5, 24.4 1.33 M1.43 27.75 C9.91 18.75, 16.55 9.66, 24.4 1.33 M0.91 40.54 C10.98 30.78, 17.72 19.67, 36.34 -0.21 M0.91 40.54 C12.37 26.18, 24.16 12.41, 36.34 -0.21 M1.04 52.58 C18.01 34.14, 36.15 10.6, 46.97 -0.25 M1.04 52.58 C18.64 32.93, 34.27 14.13, 46.97 -0.25 M1.18 64.62 C22.52 38.67, 44.62 13.42, 57.6 -0.28 M1.18 64.62 C16.97 47.44, 31.67 30.36, 57.6 -0.28 M1.31 76.67 C19.63 53.29, 41.43 33.29, 67.57 0.44 M1.31 76.67 C25.02 50.6, 46.83 22.77, 67.57 0.44 M0.79 89.46 C28.8 55.59, 59.97 23.44, 78.2 0.41 M0.79 89.46 C18.58 69.57, 36.01 47.17, 78.2 0.41 M0.92 101.5 C25.79 69, 53.73 38.43, 88.83 0.37 M0.92 101.5 C34.85 63.07, 66.54 26.21, 88.83 0.37 M1.05 113.54 C30.55 82.65, 57.88 48.29, 99.46 0.34 M1.05 113.54 C34.54 73.94, 68.11 33.63, 99.46 0.34 M1.19 125.58 C22.53 99.26, 45.95 74.26, 110.09 0.3 M1.19 125.58 C35.96 84.94, 71.74 45.27, 110.09 0.3 M0.66 138.38 C28.25 108.33, 53.08 79.29, 120.72 0.27 M0.66 138.38 C24.52 109.92, 50.42 80.93, 120.72 0.27 M0.8 150.42 C34 110.41, 70.33 72.88, 131.35 0.23 M0.8 150.42 C40.81 105.15, 82.42 58.57, 131.35 0.23 M0.93 162.46 C33.3 123.45, 68.1 84.41, 141.98 0.2 M0.93 162.46 C32.05 125.87, 65.12 87.31, 141.98 0.2 M1.06 174.5 C57.74 108.28, 114.33 45.01, 152.61 0.16 M1.06 174.5 C34.36 138.89, 66.08 100.33, 152.61 0.16 M0.54 187.3 C51.47 126.83, 102.35 71.27, 163.24 0.13 M0.54 187.3 C59.4 121.9, 117.33 54.94, 163.24 0.13 M0.67 199.34 C61.55 129.52, 124.97 59.07, 173.87 0.09 M0.67 199.34 C67.31 121.86, 133.81 45.39, 173.87 0.09 M0.81 211.38 C63.51 141.56, 122.65 74.62, 184.5 0.06 M0.81 211.38 C56.68 147.38, 113.79 83.29, 184.5 0.06 M0.94 223.42 C44.29 176.76, 85.26 126.23, 195.13 0.03 M0.94 223.42 C63.36 151.19, 127.34 76.94, 195.13 0.03 M0.42 236.22 C54.73 176.52, 106.57 114.84, 205.76 -0.01 M0.42 236.22 C70.47 156.34, 139.55 76.41, 205.76 -0.01 M1.21 247.5 C67.95 168.45, 137.63 91.01, 216.39 -0.04 M1.21 247.5 C45.78 195.5, 92.29 141.83, 216.39 -0.04 M3.31 257.28 C55.24 198.78, 107.13 137.02, 227.02 -0.08 M3.31 257.28 C72.02 178.23, 142.75 97.61, 227.02 -0.08 M8.03 264.04 C98.75 160.59, 189.77 56.28, 237.65 -0.11 M8.03 264.04 C92.34 163.8, 177.88 65.94, 237.65 -0.11 M14.07 269.28 C72 200.35, 132.29 130.34, 248.28 -0.15 M14.07 269.28 C106.51 161.75, 200.35 53.39, 248.28 -0.15 M22.08 272.27 C98.24 184.2, 175.06 96.45, 258.91 -0.18 M22.08 272.27 C114.96 165.1, 207.8 59.21, 258.91 -0.18 M32.05 272.99 C96.56 194.89, 163.72 118.4, 269.54 -0.22 M32.05 272.99 C123.74 166.6, 214.58 63, 269.54 -0.22 M42.68 272.95 C131.8 168.34, 222.33 66.06, 280.17 -0.25 M42.68 272.95 C93.64 214.59, 143.9 155.34, 280.17 -0.25 M53.31 272.92 C134.44 181.02, 215.09 89.67, 290.8 -0.28 M53.31 272.92 C139.51 177.52, 222.93 80.3, 290.8 -0.28 M63.94 272.89 C149.05 174.9, 231.34 77.69, 300.78 0.44 M63.94 272.89 C127.48 201.41, 189.06 130.26, 300.78 0.44 M74.57 272.85 C125.9 216.13, 174.25 157.73, 311.41 0.4 M74.57 272.85 C124.97 213.75, 177.65 154.78, 311.41 0.4 M85.2 272.82 C148.12 200.45, 210.45 128.79, 322.04 0.37 M85.2 272.82 C158.11 190.63, 228.84 108.65, 322.04 0.37 M95.83 272.78 C180.25 173.9, 266.06 76.01, 332.67 0.33 M95.83 272.78 C189.23 165.23, 281.46 58.42, 332.67 0.33 M106.46 272.75 C159.69 212.11, 214.58 149.24, 343.3 0.3 M106.46 272.75 C193.08 172.95, 279.47 73.22, 343.3 0.3 M117.09 272.71 C211 162.6, 306.38 55.45, 353.93 0.26 M117.09 272.71 C186.52 191.61, 258.24 109.77, 353.93 0.26 M127.72 272.68 C216.29 170.32, 307.21 65.04, 364.56 0.23 M127.72 272.68 C188.98 206, 248.15 137.61, 364.56 0.23 M138.35 272.64 C184.91 216.72, 232.74 162.85, 375.19 0.19 M138.35 272.64 C206.07 195.32, 271.23 119.51, 375.19 0.19 M148.33 273.36 C236.68 169.62, 326.43 65.27, 385.82 0.16 M148.33 273.36 C198.84 215.79, 248.74 158.42, 385.82 0.16 M158.96 273.33 C210.88 211.21, 266.8 148.5, 396.45 0.12 M158.96 273.33 C225.78 197.06, 291.4 121.42, 396.45 0.12 M169.59 273.3 C234.2 196.08, 302.55 120.75, 406.42 0.85 M169.59 273.3 C234.09 202.3, 296.06 129.79, 406.42 0.85 M180.22 273.26 C267.96 169.6, 357.55 68.29, 415.09 3.07 M180.22 273.26 C263.44 177.13, 346.57 80.63, 415.09 3.07 M190.85 273.23 C253.42 203.09, 314.73 130.22, 422.44 6.81 M190.85 273.23 C258.41 197.74, 324.48 122.09, 422.44 6.81 M201.48 273.19 C274.82 188.07, 346.26 103.8, 427.82 12.82 M201.48 273.19 C288.81 174.2, 375.12 75.13, 427.82 12.82 M212.11 273.16 C287.18 186.27, 361 104.09, 431.23 21.08 M212.11 273.16 C281.68 193.82, 351.12 115.53, 431.23 21.08 M222.74 273.12 C266.8 223.43, 309.59 171.83, 432.02 32.37 M222.74 273.12 C292.43 191.22, 364.09 110.07, 432.02 32.37 M233.37 273.09 C310.77 185.76, 387.48 98.34, 432.15 44.41 M233.37 273.09 C282.6 218.51, 332.48 162.57, 432.15 44.41 M244 273.05 C305.65 202.31, 369.71 128.3, 432.29 56.45 M244 273.05 C282.86 224.93, 323.65 179.1, 432.29 56.45 M254.63 273.02 C313.88 201.75, 375.07 130.11, 432.42 68.49 M254.63 273.02 C315.79 204.54, 375.66 134.2, 432.42 68.49 M265.26 272.98 C308.83 222.29, 351.65 172.12, 431.9 81.29 M265.26 272.98 C317.46 211.77, 369.08 152.65, 431.9 81.29 M275.89 272.95 C314.95 227.62, 351.12 184.04, 432.03 93.33 M275.89 272.95 C325.97 213.31, 376.93 155.29, 432.03 93.33 M286.52 272.92 C332.55 219.6, 379.55 163.91, 432.16 105.37 M286.52 272.92 C336.14 214.37, 387.34 155.28, 432.16 105.37 M297.15 272.88 C343.84 222.39, 387.99 169.78, 432.3 117.41 M297.15 272.88 C333.28 230.62, 369.64 188.44, 432.3 117.41 M307.78 272.85 C343.81 226.74, 385.32 182.3, 432.43 129.45 M307.78 272.85 C352.39 222.07, 396.24 171.9, 432.43 129.45 M318.41 272.81 C364.14 222.5, 405.23 172.04, 431.91 142.25 M318.41 272.81 C356.74 229.31, 394.55 186.14, 431.91 142.25 M329.04 272.78 C367.1 228.82, 409.08 184.52, 432.04 154.29 M329.04 272.78 C365.66 231.89, 401.09 189.79, 432.04 154.29 M339.67 272.74 C373.07 233.36, 405.21 197.41, 432.17 166.33 M339.67 272.74 C359.01 250.03, 378.63 228.93, 432.17 166.33 M350.3 272.71 C378.38 240.3, 407.56 205.15, 432.31 178.37 M350.3 272.71 C374.94 245.28, 396.88 217.84, 432.31 178.37 M360.93 272.67 C387.32 240.9, 411.81 213.08, 432.44 190.41 M360.93 272.67 C379.57 252.93, 396.39 231.1, 432.44 190.41 M370.9 273.39 C383.78 258.85, 396.98 241.34, 431.92 203.21 M370.9 273.39 C389.73 250.14, 411.26 226.73, 431.92 203.21 M381.53 273.36 C396.69 255.34, 410.37 240.93, 432.05 215.25 M381.53 273.36 C393.01 260.74, 402.37 248.09, 432.05 215.25 M392.16 273.33 C400.8 261.94, 413.83 251.29, 432.18 227.29 M392.16 273.33 C406.89 258.37, 420.17 241.9, 432.18 227.29 M403.45 272.54 C415.43 258.32, 424.64 249.72, 432.31 239.33 M403.45 272.54 C410.97 264.72, 418.14 256.37, 432.31 239.33 M416.05 270.24 C420.65 265.06, 423.06 261.01, 430.48 253.63 M416.05 270.24 C419.43 267.3, 421.53 262.82, 430.48 253.63" stroke="#ffc9c9" stroke-width="1" fill="none"></path><path d="M32 0 C138.49 -0.76, 244.82 -2, 400 0 M400 0 C419.78 0.99, 432.95 10.62, 432 32 M432 32 C431.4 80.55, 433.33 128.26, 432 241 M432 241 C433.76 260.66, 422.3 273.14, 400 273 M400 273 C253.69 270.54, 109.23 270.08, 32 273 M32 273 C11.56 271.27, -1.96 263.62, 0 241 M0 241 C-0.57 165.57, 0.87 91.9, 0 32 M0 32 C-0.75 9.72, 8.8 1.7, 32 0" stroke="#1e1e1e" stroke-width="2.5" fill="none" stroke-dasharray="8 10"></path></g><g transform="translate(189.04166412353516 559.5) rotate(0 120.45833587646484 17.5)"><text x="120.45833587646484" y="0" font-family="Virgil, Segoe UI Emoji" font-size="28px" fill="#1e1e1e" text-anchor="middle" style="white-space: pre;" direction="ltr" dominant-baseline="text-before-edge">Parsec v2 server</text></g><g stroke-linecap="round" transform="translate(823.5 418) rotate(0 265.5 117)"><path d="M7.86 8.16 C7.86 8.16, 7.86 8.16, 7.86 8.16 M7.86 8.16 C7.86 8.16, 7.86 8.16, 7.86 8.16 M6.68 21.71 C11.84 17.76, 12.95 15.09, 21.12 5.11 M6.68 21.71 C9.27 16.63, 13.49 12.58, 21.12 5.11 M4.85 36.01 C12.26 25.2, 19.36 17.59, 34.37 2.05 M4.85 36.01 C11.38 29.76, 18.02 22.27, 34.37 2.05 M4.98 48.06 C20.78 33.46, 33.05 16.16, 45 2.02 M4.98 48.06 C13.3 37.67, 21.45 27.97, 45 2.02 M5.11 60.1 C23.89 39.64, 42.62 15.82, 55.63 1.98 M5.11 60.1 C23.64 39.78, 39.98 19.67, 55.63 1.98 M4.59 72.89 C23.6 47.82, 47.85 25.25, 66.26 1.95 M4.59 72.89 C21.3 54.52, 38.2 35.18, 66.26 1.95 M4.72 84.93 C25.14 63.44, 41.53 41.71, 76.89 1.91 M4.72 84.93 C21.06 64.58, 37.7 46.86, 76.89 1.91 M4.86 96.97 C25.58 71.37, 49.74 43.92, 87.52 1.88 M4.86 96.97 C27.52 69.42, 51.19 42.72, 87.52 1.88 M4.99 109.01 C25.81 87.37, 45.02 63.31, 98.15 1.85 M4.99 109.01 C28.38 81.98, 53.09 56.19, 98.15 1.85 M5.12 121.06 C35.88 85.11, 63.09 50.99, 108.78 1.81 M5.12 121.06 C41.13 78.23, 79.87 35.8, 108.78 1.81 M5.26 133.1 C43.14 89.96, 83.3 45.81, 119.41 1.78 M5.26 133.1 C49.65 82.98, 93.6 33.38, 119.41 1.78 M4.73 145.89 C40.72 102.81, 81.34 59.45, 130.04 1.74 M4.73 145.89 C43.42 100.17, 81.61 55.39, 130.04 1.74 M4.87 157.93 C39.75 118.18, 76.68 74.76, 140.67 1.71 M4.87 157.93 C40.46 119.24, 74.95 79.34, 140.67 1.71 M5 169.97 C42.25 125.98, 84.92 79.93, 150.65 2.43 M5 169.97 C56.59 113.33, 107.19 54.48, 150.65 2.43 M5.13 182.01 C43.3 139.94, 80.27 96.78, 161.28 2.39 M5.13 182.01 C44.51 137.63, 83.27 92.84, 161.28 2.39 M5.27 194.05 C66.91 124.83, 128.3 53.88, 171.91 2.36 M5.27 194.05 C40.13 153.76, 74.46 113.32, 171.91 2.36 M1.46 210.62 C41.95 166.48, 81.22 119.44, 182.54 2.32 M1.46 210.62 C41.52 166.27, 81.01 120.78, 182.54 2.32 M4.22 219.65 C71.68 144.26, 136.46 68.99, 193.17 2.29 M4.22 219.65 C47.49 168.75, 91.81 117.06, 193.17 2.29 M9.6 225.65 C81.81 141.11, 152.34 59.68, 203.8 2.26 M9.6 225.65 C79.03 142.79, 149.88 61.9, 203.8 2.26 M14.98 231.65 C59.94 181.5, 105.02 129.64, 214.43 2.22 M14.98 231.65 C69.75 166.28, 126.11 103.5, 214.43 2.22 M22.33 235.39 C99.37 144.53, 179.25 53.25, 225.06 2.19 M22.33 235.39 C96.6 150.89, 170.78 65.23, 225.06 2.19 M32.96 235.36 C109.62 146.59, 187.9 56.83, 235.69 2.15 M32.96 235.36 C74.76 187.79, 114.73 142.01, 235.69 2.15 M43.59 235.32 C118.93 148.76, 194.03 63.85, 246.32 2.12 M43.59 235.32 C94.4 174.94, 146.3 116.04, 246.32 2.12 M54.22 235.29 C105.56 176.26, 158.59 116.87, 256.95 2.08 M54.22 235.29 C132.56 145.5, 209.02 57.02, 256.95 2.08 M64.85 235.25 C130.89 159.04, 194.97 86.69, 267.58 2.05 M64.85 235.25 C129.25 160.79, 194.59 85.76, 267.58 2.05 M75.48 235.22 C130.85 174.3, 183.04 113.99, 278.21 2.01 M75.48 235.22 C155.26 144.54, 236.72 51.15, 278.21 2.01 M86.11 235.18 C140.77 173.33, 195.84 109.38, 288.84 1.98 M86.11 235.18 C128.58 182.86, 172.84 131.69, 288.84 1.98 M96.74 235.15 C150.84 171.67, 206.59 110.44, 299.47 1.94 M96.74 235.15 C170.03 152.82, 241.48 70.64, 299.47 1.94 M107.37 235.12 C181.51 147.76, 255.92 61.88, 310.1 1.91 M107.37 235.12 C161.9 172.64, 213.94 111.54, 310.1 1.91 M118 235.08 C180.5 160.33, 246.66 87.64, 320.73 1.88 M118 235.08 C189.92 151.59, 260.48 69.98, 320.73 1.88 M128.63 235.05 C199.39 150.91, 273.21 67.28, 331.36 1.84 M128.63 235.05 C194.9 159.91, 260.46 84.08, 331.36 1.84 M139.26 235.01 C201.38 166.11, 260.4 94.74, 341.99 1.81 M139.26 235.01 C181.38 185.8, 225.29 135.15, 341.99 1.81 M149.89 234.98 C216.8 160.06, 280.41 83.39, 352.62 1.77 M149.89 234.98 C220.43 153.99, 289.8 73.75, 352.62 1.77 M160.52 234.94 C217.33 167.21, 275.63 99.98, 363.25 1.74 M160.52 234.94 C236.09 147.7, 310.48 61.62, 363.25 1.74 M171.15 234.91 C238.59 154.26, 304.93 77.28, 373.88 1.7 M171.15 234.91 C214.77 182.34, 258.88 131.17, 373.88 1.7 M181.79 234.87 C223.56 187.36, 264.42 139.68, 383.85 2.42 M181.79 234.87 C254.76 150.83, 326 68.36, 383.85 2.42 M192.42 234.84 C271.54 143.72, 353.36 49.58, 394.48 2.39 M192.42 234.84 C254.17 161.76, 315.94 90.84, 394.48 2.39 M203.05 234.81 C271.25 158.6, 338.28 78.27, 405.11 2.35 M203.05 234.81 C267.4 159.57, 333.9 83.68, 405.11 2.35 M213.68 234.77 C279.55 160.1, 344.64 87.05, 415.74 2.32 M213.68 234.77 C279.15 157.7, 345.72 81.76, 415.74 2.32 M224.31 234.74 C276.07 178.1, 327.55 119.12, 426.37 2.29 M224.31 234.74 C292.39 154.77, 361.06 75.81, 426.37 2.29 M234.94 234.7 C280.68 179.46, 326.92 127.74, 437 2.25 M234.94 234.7 C288.87 174.96, 340.64 115.22, 437 2.25 M244.91 235.42 C298.81 173.76, 354.49 111.86, 447.63 2.22 M244.91 235.42 C298.15 170.14, 353.49 106.78, 447.63 2.22 M255.54 235.39 C306.78 171.3, 363.18 110.24, 458.26 2.18 M255.54 235.39 C305.02 180.1, 353.92 124.03, 458.26 2.18 M266.17 235.35 C340.89 152.03, 414.41 68.34, 468.89 2.15 M266.17 235.35 C329.36 161.73, 391.07 89.66, 468.89 2.15 M276.8 235.32 C332.89 169.15, 390.52 103.48, 479.52 2.11 M276.8 235.32 C332.31 171.33, 390.01 107.29, 479.52 2.11 M287.43 235.28 C346.33 169.52, 404.29 101.45, 490.15 2.08 M287.43 235.28 C336.14 179.17, 384.91 122.82, 490.15 2.08 M298.06 235.25 C367.94 151.92, 438.84 70.7, 500.78 2.04 M298.06 235.25 C365.48 157.93, 432.7 79.78, 500.78 2.04 M308.69 235.21 C360.11 173.64, 413.66 114.99, 510.76 2.76 M308.69 235.21 C385.76 147.58, 461.68 58.98, 510.76 2.76 M319.32 235.18 C369.58 179.52, 416.87 123.35, 518.11 6.5 M319.32 235.18 C364.96 181.72, 410.41 128.6, 518.11 6.5 M329.95 235.15 C378.86 178.92, 426.78 123.99, 525.46 10.24 M329.95 235.15 C376.68 181.18, 422.52 128.06, 525.46 10.24 M340.58 235.11 C409.92 154.22, 478.03 75.1, 530.84 16.25 M340.58 235.11 C407.89 157.7, 475.19 80.2, 530.84 16.25 M351.21 235.08 C404.08 169.96, 460.97 106.57, 532.94 26.02 M351.21 235.08 C392.84 186.38, 437.33 135.37, 532.94 26.02 M361.84 235.04 C400.92 192.63, 439.29 147.73, 532.42 38.82 M361.84 235.04 C420.03 166, 481.46 97.75, 532.42 38.82 M372.47 235.01 C407.97 193.16, 445.29 153.46, 532.55 50.86 M372.47 235.01 C409.77 192.51, 445.6 150.15, 532.55 50.86 M383.1 234.97 C434.85 174.37, 484.92 116.03, 532.68 62.9 M383.1 234.97 C415.98 195.56, 450.8 155.87, 532.68 62.9 M393.73 234.94 C434.69 190.77, 473.36 145.07, 532.82 74.94 M393.73 234.94 C441.86 178.7, 492.47 121.24, 532.82 74.94 M404.36 234.9 C448.26 179.6, 494.49 128.87, 532.95 86.98 M404.36 234.9 C436.5 198.98, 468.28 161.7, 532.95 86.98 M414.99 234.87 C448.92 193.06, 484.28 153.9, 533.08 99.02 M414.99 234.87 C458.69 182.96, 502.12 131.37, 533.08 99.02 M425.62 234.84 C460.09 193.04, 495.18 155.33, 532.56 111.82 M425.62 234.84 C449.51 204.13, 475.79 174.69, 532.56 111.82 M436.25 234.8 C473.02 191.41, 508.08 149.37, 532.69 123.86 M436.25 234.8 C471.21 193.51, 505.78 152.9, 532.69 123.86 M446.88 234.77 C465.07 212.12, 486.91 189.69, 532.82 135.9 M446.88 234.77 C472.65 206.06, 498.32 176, 532.82 135.9 M457.51 234.73 C489.48 200.97, 518.45 167.65, 532.96 147.94 M457.51 234.73 C473.61 217.16, 488.71 199.49, 532.96 147.94 M468.14 234.7 C482.17 217.57, 495.06 202.01, 533.09 159.98 M468.14 234.7 C486.02 214.89, 503.02 193.65, 533.09 159.98 M478.12 235.42 C491.44 220.3, 507.37 202.59, 533.22 172.02 M478.12 235.42 C494.83 215.83, 509.4 197.75, 533.22 172.02 M488.75 235.38 C505.77 215.69, 522.98 196.16, 533.36 184.06 M488.75 235.38 C501.63 221.68, 512.9 209.03, 533.36 184.06 M500.03 234.59 C506.47 223.55, 516.12 214.15, 532.83 196.86 M500.03 234.59 C507.28 225.6, 515.2 218.11, 532.83 196.86 M509.35 236.07 C517.26 227.05, 524.51 218, 535.59 205.88 M509.35 236.07 C519.14 225.14, 528.3 214.91, 535.59 205.88" stroke="#b2f2bb" stroke-width="1" fill="none"></path><path d="M32 0 C205.99 1.54, 380.2 1.57, 499 0 M499 0 C519.87 -1.39, 532.71 9.52, 531 32 M531 32 C531.63 90.05, 532.26 146.61, 531 202 M531 202 C532.17 222.29, 520.13 233.26, 499 234 M499 234 C389.41 234.96, 281.21 234.24, 32 234 M32 234 C9.72 235, -1.07 222.24, 0 202 M0 202 C2.35 143.61, 3.12 86.46, 0 32 M0 32 C1.47 9.19, 10.05 0.42, 32 0" stroke="#1e1e1e" stroke-width="2.5" fill="none" stroke-dasharray="8 10"></path></g><g transform="translate(968.9749984741211 612) rotate(0 120.0250015258789 17.5)"><text x="120.0250015258789" y="0" font-family="Virgil, Segoe UI Emoji" font-size="28px" fill="#1e1e1e" text-anchor="middle" style="white-space: pre;" direction="ltr" dominant-baseline="text-before-edge">Parsec v3 server</text></g><g stroke-linecap="round" transform="translate(84 10) rotate(0 125.5 44.000000000000014)"><path d="M5.2 5.85 C5.2 5.85, 5.2 5.85, 5.2 5.85 M5.2 5.85 C5.2 5.85, 5.2 5.85, 5.2 5.85 M4.02 19.4 C6.83 16.22, 9.68 12.27, 16.49 5.06 M4.02 19.4 C8.46 13.77, 13.11 8.83, 16.49 5.06 M3.5 32.19 C11.87 21.95, 19.35 14.54, 27.12 5.02 M3.5 32.19 C12.12 22.34, 21.16 11.77, 27.12 5.02 M3.63 44.23 C12.2 34.8, 22.05 24, 37.75 4.99 M3.63 44.23 C14.89 31.51, 26.19 17.85, 37.75 4.99 M3.76 56.27 C21.39 34.69, 40.97 16.47, 48.38 4.95 M3.76 56.27 C20.17 38.43, 35.8 19.02, 48.38 4.95 M1.27 71.33 C21.32 48.27, 39.29 26.99, 59.01 4.92 M1.27 71.33 C24.64 44.34, 47.8 18.6, 59.01 4.92 M4.03 80.35 C24.94 57.07, 48.18 33.2, 69.64 4.88 M4.03 80.35 C21.93 59.84, 39.65 38.71, 69.64 4.88 M10.72 84.85 C30.65 62.55, 49.51 36.84, 80.27 4.85 M10.72 84.85 C28.6 62.38, 49.06 40.36, 80.27 4.85 M16.76 90.1 C41.59 65.92, 61.96 37.95, 90.9 4.81 M16.76 90.1 C37.7 66.63, 57.05 42.48, 90.9 4.81 M26.08 91.57 C42.82 69.9, 61.87 53.17, 101.53 4.78 M26.08 91.57 C47.36 66.1, 67.72 41.82, 101.53 4.78 M36.71 91.54 C61.16 62.6, 86.23 36.81, 112.16 4.75 M36.71 91.54 C56.98 68.86, 74.82 45.92, 112.16 4.75 M47.34 91.5 C68.14 66.59, 89.82 42.88, 122.79 4.71 M47.34 91.5 C64.28 70.71, 83.08 50.46, 122.79 4.71 M57.97 91.47 C79.97 66.31, 103.06 42.81, 133.42 4.68 M57.97 91.47 C79.41 67.7, 101.37 43.22, 133.42 4.68 M68.6 91.43 C86.68 67.83, 108 42.96, 144.05 4.64 M68.6 91.43 C91.14 67.78, 113.34 41.88, 144.05 4.64 M79.23 91.4 C101.87 66.33, 125.19 38.12, 154.68 4.61 M79.23 91.4 C103.25 64.23, 127.17 37.99, 154.68 4.61 M89.86 91.36 C107.35 68, 126.87 44.85, 165.31 4.57 M89.86 91.36 C115.44 62.17, 140.52 32.17, 165.31 4.57 M100.49 91.33 C119.08 69.57, 135.94 51.09, 175.94 4.54 M100.49 91.33 C119.72 68.74, 140.15 45.42, 175.94 4.54 M111.12 91.3 C127.24 71.26, 146.71 52.51, 186.57 4.5 M111.12 91.3 C127.19 72.04, 141.97 54.71, 186.57 4.5 M121.75 91.26 C145.16 64.05, 167.74 35.21, 197.2 4.47 M121.75 91.26 C148.02 59.63, 175.18 30.03, 197.2 4.47 M132.38 91.23 C157.1 58.73, 186.23 28.2, 207.83 4.44 M132.38 91.23 C150.98 70.79, 167.66 50, 207.83 4.44 M143.01 91.19 C170.06 58.3, 196.91 29.87, 218.46 4.4 M143.01 91.19 C170.89 60.79, 197.33 28.55, 218.46 4.4 M152.99 91.91 C180.43 59.25, 209.33 26.21, 231.06 2.1 M152.99 91.91 C178.15 63.59, 201.84 34.05, 231.06 2.1 M163.62 91.88 C188.2 64.88, 213.58 35.15, 241.03 2.82 M163.62 91.88 C193.2 58.06, 223.54 24.01, 241.03 2.82 M174.25 91.84 C203.38 59.81, 233.64 24.34, 247.72 7.32 M174.25 91.84 C192.72 69.13, 212.34 46.79, 247.72 7.32 M184.88 91.81 C206.26 64.09, 231.2 38.73, 251.14 15.58 M184.88 91.81 C201.52 72.88, 218.81 52.54, 251.14 15.58 M195.51 91.77 C213.06 72.38, 233.15 51.98, 256.52 21.59 M195.51 91.77 C207.98 76.85, 221.29 61.52, 256.52 21.59 M206.14 91.74 C222.39 69.3, 240.93 52.59, 256.65 33.63 M206.14 91.74 C222.9 72.91, 238.48 53.76, 256.65 33.63 M216.77 91.71 C228.09 78.36, 242.49 62.99, 256.79 45.67 M216.77 91.71 C226.69 80.96, 236.22 69.61, 256.79 45.67 M230.02 88.65 C237.72 80.63, 241.74 74.53, 256.92 57.71 M230.02 88.65 C237.6 79.53, 245.88 69.62, 256.92 57.71" stroke="#ffc9c9" stroke-width="1" fill="none"></path><path d="M22 0 C64.63 0.44, 107.4 -2.23, 229 0 M229 0 C243.48 0.28, 249.9 8.64, 251 22 M251 22 C252.13 34.23, 251.5 47.4, 251 66 M251 66 C249.1 80.93, 243.01 86.32, 229 88 M229 88 C146.77 90.87, 64.24 91.06, 22 88 M22 88 C5.83 87.3, -0.69 81.91, 0 66 M0 66 C0.07 47.58, 2.34 32.13, 0 22 M0 22 C1.38 6.02, 5.35 1.52, 22 0" stroke="#1e1e1e" stroke-width="2.5" fill="none" stroke-dasharray="8 10"></path></g><g transform="translate(158 35) rotate(0 34.75833511352539 12.5)"><text x="0" y="0" font-family="Virgil, Segoe UI Emoji" font-size="20px" fill="#1e1e1e" text-anchor="start" style="white-space: pre;" direction="ltr" dominant-baseline="text-before-edge">Client 1</text></g><g stroke-linecap="round"><g transform="translate(232.63941409842482 101.00000000000003) rotate(0 296.41992414050134 177.85480893777216)"><path d="M-0.61 1.04 C98.08 35.31, 556.86 146.95, 591.13 205.97 C625.41 264.99, 269.21 330.66, 205.04 355.16 M1.27 0.55 C99.91 34.46, 556.52 145.55, 590.33 204.36 C624.13 263.18, 268.04 328.57, 204.1 353.43" stroke="#1e1e1e" stroke-width="2" fill="none"></path></g><g transform="translate(232.63941409842482 101.00000000000003) rotate(0 296.41992414050134 177.85480893777216)"><path d="M202.78 355.36 L213.93 344.83 L219.16 355.22 L202.63 352.63" stroke="none" stroke-width="0" fill="#1e1e1e" fill-rule="evenodd"></path><path d="M204.1 353.43 C207.87 351.73, 210.27 348.88, 215.56 343.75 M204.1 353.43 C208.8 349.32, 212.91 345.76, 215.56 343.75 M215.56 343.75 C217.55 348.44, 217.52 350.82, 218.88 355.99 M215.56 343.75 C216.63 346.43, 216.84 349.55, 218.88 355.99 M218.88 355.99 C213.95 356.57, 210.63 353.78, 204.1 353.43 M218.88 355.99 C214.02 354.46, 209.22 354.62, 204.1 353.43 M204.1 353.43 C204.1 353.43, 204.1 353.43, 204.1 353.43 M204.1 353.43 C204.1 353.43, 204.1 353.43, 204.1 353.43" stroke="#1e1e1e" stroke-width="2" fill="none"></path></g></g><mask></mask><g stroke-linecap="round" transform="translate(178 413) rotate(0 126.01401869158877 44.5)"><path d="M22.25 0 C90.06 1.37, 153.31 2.37, 229.78 0 C242.94 0.52, 249.69 9.58, 252.03 22.25 C250.48 36.48, 252.17 50.46, 252.03 66.75 C253.92 80.34, 243.26 91.29, 229.78 89 C153.25 88.47, 77.89 89.16, 22.25 89 C8.03 86.33, -2.25 82.57, 0 66.75 C1.73 52.9, 2.31 42.22, 0 22.25 C-2.1 7.04, 5.66 -0.91, 22.25 0" stroke="none" stroke-width="0" fill="#ffc9c9"></path><path d="M22.25 0 C92.33 -2.15, 160.63 0.09, 229.78 0 M229.78 0 C242.84 -1.21, 252.03 7.24, 252.03 22.25 M252.03 22.25 C252.64 39.13, 253.35 54.15, 252.03 66.75 M252.03 66.75 C252.85 79.59, 245.53 89.35, 229.78 89 M229.78 89 C155.01 88.24, 78.46 86.71, 22.25 89 M22.25 89 C8.87 90.15, -1.2 80.44, 0 66.75 M0 66.75 C0.7 53.61, 0.48 39.76, 0 22.25 M0 22.25 C0.93 6.15, 6.72 0.33, 22.25 0" stroke="#1e1e1e" stroke-width="2.5" fill="none" stroke-dasharray="8 10"></path></g><g transform="translate(195.45568434100284 442.94392523364485) rotate(0 108.55833435058591 14.556074766355138)"><text x="108.55833435058594" y="0" font-family="Virgil, Segoe UI Emoji" font-size="23.289719626168225px" fill="#1e1e1e" text-anchor="middle" style="white-space: pre;" direction="ltr" dominant-baseline="text-before-edge">LegacyOrganization</text></g><g stroke-linecap="round" transform="translate(10 242) rotate(0 314 218.5)"><path d="M32 0 C207.85 -0.33, 381.99 0.12, 596 0 M596 0 C619.03 -0.68, 626.92 8.72, 628 32 M628 32 C626.32 170.87, 626.09 307.04, 628 405 M628 405 C627.95 428.16, 615.87 437.14, 596 437 M596 437 C455.57 439.1, 313.9 439.49, 32 437 M32 437 C8.9 436.08, -1.99 427.19, 0 405 M0 405 C1.71 304.12, 0.1 201.65, 0 32 M0 32 C0.19 9.5, 9.36 0.05, 32 0" stroke="#1e1e1e" stroke-width="2.5" fill="none" stroke-dasharray="8 10"></path></g><g transform="translate(455 257) rotate(0 81.125 12.5)"><text x="0" y="0" font-family="Virgil, Segoe UI Emoji" font-size="20px" fill="#1e1e1e" text-anchor="start" style="white-space: pre;" direction="ltr" dominant-baseline="text-before-edge">Parsec v2 SAAS</text></g><g stroke-linecap="round" transform="translate(705 246) rotate(0 354 217)"><path d="M32 0 C196.75 2.5, 361.47 2.55, 676 0 M676 0 C697.91 -1.43, 708.34 11.87, 708 32 M708 32 C709.49 140.6, 710.34 250.49, 708 402 M708 402 C707.81 423.47, 696.96 435.68, 676 434 M676 434 C504.43 435.66, 333.12 434.47, 32 434 M32 434 C10.42 432.28, -0.64 422, 0 402 M0 402 C2.17 277.52, 1.51 154.51, 0 32 M0 32 C-0.65 12.64, 12.54 -1.77, 32 0" stroke="#1e1e1e" stroke-width="2.5" fill="none" stroke-dasharray="8 10"></path></g><g transform="translate(1186 268) rotate(0 80.81666564941406 12.5)"><text x="0" y="0" font-family="Virgil, Segoe UI Emoji" font-size="20px" fill="#1e1e1e" text-anchor="start" style="white-space: pre;" direction="ltr" dominant-baseline="text-before-edge">Parsec v3 SAAS</text></g><g transform="translate(568 139) rotate(0 130.3000030517578 25)"><text x="0" y="0" font-family="Virgil, Segoe UI Emoji" font-size="20px" fill="#1e1e1e" text-anchor="start" style="white-space: pre;" direction="ltr" dominant-baseline="text-before-edge">parsec://saas.parsec.cloud</text><text x="0" y="25" font-family="Virgil, Segoe UI Emoji" font-size="20px" fill="#1e1e1e" text-anchor="start" style="white-space: pre;" direction="ltr" dominant-baseline="text-before-edge">(no User-Agent)</text></g><g stroke-linecap="round" transform="translate(1023 16) rotate(0 111 43.5)"><path d="M5.13 5.79 C5.13 5.79, 5.13 5.79, 5.13 5.79 M5.13 5.79 C5.13 5.79, 5.13 5.79, 5.13 5.79 M0.67 23.11 C5.49 18.24, 7.71 11.39, 20.36 0.47 M0.67 23.11 C7.66 14.76, 16.33 4.79, 20.36 0.47 M0.81 35.15 C7.46 24.94, 18.6 16.47, 30.99 0.44 M0.81 35.15 C11.1 24.15, 20.87 12.38, 30.99 0.44 M0.94 47.19 C9.69 37.6, 18.74 24.01, 41.62 0.4 M0.94 47.19 C12.13 34.22, 22.31 22.58, 41.62 0.4 M0.42 59.99 C12.41 48.48, 21.78 34.76, 52.25 0.37 M0.42 59.99 C18.99 38.12, 39.49 16.37, 52.25 0.37 M1.21 71.27 C17.11 53.8, 36.6 31.92, 62.88 0.33 M1.21 71.27 C20.29 48.35, 41.28 25.91, 62.88 0.33 M4.62 79.54 C33.38 46.87, 57.95 17.99, 73.51 0.3 M4.62 79.54 C31.19 49.09, 55.9 20.17, 73.51 0.3 M10.66 84.79 C37.73 53.15, 67.64 22, 84.14 0.26 M10.66 84.79 C36.98 54.21, 62.63 24.18, 84.14 0.26 M19.32 87.02 C45.01 55.74, 69.39 27.7, 94.77 0.23 M19.32 87.02 C45.79 55, 74.07 23.73, 94.77 0.23 M29.95 86.99 C51.02 63.54, 75.45 37.96, 105.4 0.19 M29.95 86.99 C53.34 57.57, 79.24 29.8, 105.4 0.19 M40.58 86.95 C62.31 58.25, 86.79 33.69, 116.03 0.16 M40.58 86.95 C64.97 59.64, 88.94 33.57, 116.03 0.16 M51.21 86.92 C75.07 59.43, 97.04 36.86, 126.66 0.12 M51.21 86.92 C77.55 58.14, 102.18 29.37, 126.66 0.12 M61.84 86.88 C85.63 56.5, 111.02 30.13, 137.29 0.09 M61.84 86.88 C91.84 54.45, 120.21 19.9, 137.29 0.09 M72.47 86.85 C89.98 70.27, 107.27 48.37, 147.92 0.06 M72.47 86.85 C92.79 62.7, 114.46 40.54, 147.92 0.06 M83.1 86.81 C106.8 61.71, 130.61 33.27, 158.55 0.02 M83.1 86.81 C105 61.45, 128.12 35.78, 158.55 0.02 M93.73 86.78 C109.7 68.98, 123.06 49.75, 169.18 -0.01 M93.73 86.78 C109.38 69.38, 126.25 50.41, 169.18 -0.01 M104.36 86.74 C130.12 56.3, 156.51 27.21, 179.81 -0.05 M104.36 86.74 C130.1 57.28, 154.88 27.49, 179.81 -0.05 M114.33 87.46 C141.68 57.1, 165.89 28.58, 190.44 -0.08 M114.33 87.46 C140.9 56.06, 167.97 24.95, 190.44 -0.08 M124.96 87.43 C152.49 54.07, 183.06 21.35, 200.41 0.64 M124.96 87.43 C151.29 56.64, 180.63 22.83, 200.41 0.64 M135.59 87.4 C153.37 71.88, 168.86 50, 210.39 1.36 M135.59 87.4 C159.52 59.88, 181.84 33.5, 210.39 1.36 M146.22 87.36 C175.19 53.75, 201.96 22.1, 217.08 5.85 M146.22 87.36 C161.47 70.27, 178.88 51.52, 217.08 5.85 M156.85 87.33 C181.58 60.76, 206.06 31.54, 220.49 14.12 M156.85 87.33 C171.92 68.67, 188.79 51.5, 220.49 14.12 M167.48 87.29 C178.51 71.54, 189.5 60.15, 221.94 24.65 M167.48 87.29 C184.42 68.39, 200.83 49.83, 221.94 24.65 M178.11 87.26 C192.66 70.12, 206.74 55.22, 222.07 36.69 M178.11 87.26 C191 72.79, 204.29 58.95, 222.07 36.69 M188.75 87.22 C197.89 78.47, 206.35 70.14, 222.2 48.73 M188.75 87.22 C200.91 72.95, 213.03 59.97, 222.2 48.73 M199.38 87.19 C203.17 80.52, 211.5 75.52, 222.34 60.77 M199.38 87.19 C207.87 78.79, 214.74 69.52, 222.34 60.77 M211.97 84.89 C216.36 80.4, 217.21 76.62, 220.5 75.08 M211.97 84.89 C214.46 82.15, 217.47 79.01, 220.5 75.08" stroke="#b2f2bb" stroke-width="1" fill="none"></path><path d="M21.75 0 C59.67 1.92, 99.32 1.94, 200.25 0 M200.25 0 C214.54 -0.82, 221.14 8.59, 222 21.75 M222 21.75 C222.7 34.83, 220.41 49.43, 222 65.25 M222 65.25 C221.34 78.67, 216.29 87.88, 200.25 87 M200.25 87 C146.77 85.38, 91.7 85.55, 21.75 87 M21.75 87 C5.94 86.21, 0.95 78, 0 65.25 M0 65.25 C-1.83 50.32, 0.03 36.84, 0 21.75 M0 21.75 C0.22 5.68, 8.5 1.54, 21.75 0" stroke="#1e1e1e" stroke-width="2.5" fill="none" stroke-dasharray="8 10"></path></g><g transform="translate(1088 43) rotate(0 39.16666793823242 12.5)"><text x="0" y="0" font-family="Virgil, Segoe UI Emoji" font-size="20px" fill="#1e1e1e" text-anchor="start" style="white-space: pre;" direction="ltr" dominant-baseline="text-before-edge">Client 2</text></g><g stroke-linecap="round" transform="translate(1058 459) rotate(0 105 61)"><path d="M30.5 0 C67.91 -1.41, 107.9 -1.56, 179.5 0 C198.09 -0.21, 212.6 11.13, 210 30.5 C212.49 53.07, 207.46 81.99, 210 91.5 C212.57 111.47, 201.49 125.3, 179.5 122 C148.26 118.02, 108.9 118.79, 30.5 122 C9.71 123.27, 0.91 113.92, 0 91.5 C-2.42 67.93, -1.6 44.12, 0 30.5 C-0.59 13.59, 10.45 -2.45, 30.5 0" stroke="none" stroke-width="0" fill="#b2f2bb"></path><path d="M30.5 0 C83.29 2.21, 137.86 1.71, 179.5 0 M179.5 0 C198.61 -1.54, 210.63 10.18, 210 30.5 M210 30.5 C208.68 49.56, 208.83 71.77, 210 91.5 M210 91.5 C208.85 109.96, 199.04 122.47, 179.5 122 M179.5 122 C132.8 120.61, 83.43 121.05, 30.5 122 M30.5 122 C9.53 122.35, 1.76 109.87, 0 91.5 M0 91.5 C1.57 66.93, 0.43 47.29, 0 30.5 M0 30.5 C0.88 9.68, 10.75 -0.46, 30.5 0" stroke="#1e1e1e" stroke-width="2.5" fill="none" stroke-dasharray="8 10"></path></g><g transform="translate(1084.474998474121 507.5) rotate(0 78.5250015258789 12.5)"><text x="78.5250015258789" y="0" font-family="Virgil, Segoe UI Emoji" font-size="20px" fill="#1e1e1e" text-anchor="middle" style="white-space: pre;" direction="ltr" dominant-baseline="text-before-edge">NewOrganization</text></g><g stroke-linecap="round"><g transform="translate(1134.816564876077 104) rotate(0 0.34932233144570546 175.027083442438)"><path d="M0.1 0.09 C0.22 58.42, 0.63 291.57, 0.73 349.91 M-0.03 0.01 C0.08 58.36, 0.57 291.74, 0.68 350.04" stroke="#1e1e1e" stroke-width="2" fill="none"></path></g><g transform="translate(1134.816564876077 104) rotate(0 0.34932233144570546 175.027083442438)"><path d="M0.65 349.96 L-5.49 336.19 L6.96 336.65 L0.68 350.05" stroke="none" stroke-width="0" fill="#1e1e1e" fill-rule="evenodd"></path><path d="M0.68 350.04 C-1.13 346.06, -3.36 341.84, -5.69 336.46 M0.68 350.04 C-1.66 345.14, -3.93 340.01, -5.69 336.46 M-5.69 336.46 C-1.85 336.41, 2.3 336.6, 6.99 336.44 M-5.69 336.46 C-1.04 336.45, 3.65 336.39, 6.99 336.44 M6.99 336.44 C4.97 340.54, 3.27 344.34, 0.68 350.04 M6.99 336.44 C4.77 341.25, 2.59 346.08, 0.68 350.04 M0.68 350.04 C0.68 350.04, 0.68 350.04, 0.68 350.04 M0.68 350.04 C0.68 350.04, 0.68 350.04, 0.68 350.04" stroke="#1e1e1e" stroke-width="2" fill="none"></path></g></g><mask></mask><g transform="translate(1145.6999969482422 147.5) rotate(0 137.6750030517578 25)"><text x="0" y="0" font-family="Virgil, Segoe UI Emoji" font-size="20px" fill="#1e1e1e" text-anchor="start" style="white-space: pre;" direction="ltr" dominant-baseline="text-before-edge">parsec://saas.parsec.cloud</text><text x="0" y="25" font-family="Virgil, Segoe UI Emoji" font-size="20px" fill="#1e1e1e" text-anchor="start" style="white-space: pre;" direction="ltr" dominant-baseline="text-before-edge">User-Agent: Parsec-Client/3</text></g><g stroke-linecap="round" transform="translate(761.5 293) rotate(0 247 45)"><path d="M5.33 5.96 C5.33 5.96, 5.33 5.96, 5.33 5.96 M5.33 5.96 C5.33 5.96, 5.33 5.96, 5.33 5.96 M0.22 24.04 C6.81 15.46, 13.81 8.48, 20.56 0.64 M0.22 24.04 C6.5 17.06, 13.19 10.11, 20.56 0.64 M0.35 36.08 C10.46 25.18, 19.88 16.41, 31.19 0.61 M0.35 36.08 C9.55 24.67, 20.6 13.49, 31.19 0.61 M-0.17 48.88 C12.95 32.95, 28.71 13.57, 41.82 0.57 M-0.17 48.88 C15.58 30.61, 31.98 11, 41.82 0.57 M-0.04 60.92 C14.75 43.68, 31.28 23.99, 52.45 0.54 M-0.04 60.92 C11.4 48.53, 22.1 34, 52.45 0.54 M0.75 72.2 C26.4 43.6, 52.25 15.11, 63.08 0.51 M0.75 72.2 C18.59 53.1, 35.59 31.85, 63.08 0.51 M4.16 80.47 C24.25 56.73, 44.78 31.46, 73.71 0.47 M4.16 80.47 C21.57 59.3, 40.76 38.75, 73.71 0.47 M8.89 87.23 C32.45 60.86, 57.17 35.23, 84.34 0.44 M8.89 87.23 C37.62 52.95, 68.28 18.77, 84.34 0.44 M17.55 89.46 C46.07 53.44, 78.13 18.56, 94.97 0.4 M17.55 89.46 C42.57 61.91, 66.96 34.59, 94.97 0.4 M28.18 89.42 C47.81 63.67, 71.39 42.29, 105.6 0.37 M28.18 89.42 C43.81 71.16, 59.62 52.77, 105.6 0.37 M38.81 89.39 C58.38 65.39, 77.95 42.45, 116.23 0.33 M38.81 89.39 C59.21 68.24, 77.92 45.49, 116.23 0.33 M48.79 90.11 C70.51 65.31, 94.35 37.91, 126.2 1.05 M48.79 90.11 C75.71 59.38, 102.44 26.38, 126.2 1.05 M59.42 90.07 C74.61 70.13, 92.42 47.85, 136.83 1.02 M59.42 90.07 C77.61 68.15, 96.53 46.99, 136.83 1.02 M70.05 90.04 C91.28 65.49, 108.95 44.84, 147.46 0.98 M70.05 90.04 C96.6 60.25, 122.47 28.38, 147.46 0.98 M80.68 90.01 C112.39 53.13, 142.32 18.16, 158.09 0.95 M80.68 90.01 C102.27 65.09, 124.9 39.91, 158.09 0.95 M91.31 89.97 C113.95 65.65, 140.15 36.21, 168.72 0.92 M91.31 89.97 C108.38 70.32, 126.23 48.89, 168.72 0.92 M101.94 89.94 C129.11 59.5, 155.69 27.17, 179.35 0.88 M101.94 89.94 C124.4 64.45, 146.46 37.43, 179.35 0.88 M112.57 89.9 C131.51 68.62, 152.98 47.05, 189.98 0.85 M112.57 89.9 C137.2 60.47, 162.2 31.61, 189.98 0.85 M123.2 89.87 C153.01 53.95, 183.55 19.2, 200.61 0.81 M123.2 89.87 C150.08 59.38, 177.33 26.22, 200.61 0.81 M133.83 89.83 C161.28 56.48, 189.79 25.7, 211.24 0.78 M133.83 89.83 C159.06 61.44, 184.69 33.52, 211.24 0.78 M144.46 89.8 C170.04 61.63, 198.15 29.74, 221.87 0.74 M144.46 89.8 C169.96 61, 193.3 31.14, 221.87 0.74 M155.09 89.76 C170.14 71.29, 186.43 52.59, 232.5 0.71 M155.09 89.76 C183.22 57.26, 210.52 26.33, 232.5 0.71 M165.72 89.73 C193.37 59.66, 216.14 28.85, 243.13 0.67 M165.72 89.73 C182.88 71.54, 200.22 51.9, 243.13 0.67 M176.35 89.7 C202.36 58.68, 231.64 28.44, 253.76 0.64 M176.35 89.7 C203.78 57.74, 230.3 27.34, 253.76 0.64 M186.98 89.66 C201.37 70.25, 218.38 52.59, 264.39 0.6 M186.98 89.66 C217.34 56.68, 245.17 22.47, 264.39 0.6 M197.61 89.63 C218.62 65.45, 239.47 42.8, 275.02 0.57 M197.61 89.63 C215.59 69.12, 233.62 47.33, 275.02 0.57 M208.24 89.59 C235.12 58.45, 261.08 28.61, 285.65 0.54 M208.24 89.59 C237.79 55.67, 267.54 21.12, 285.65 0.54 M218.87 89.56 C241.05 62.26, 265.5 35.63, 296.28 0.5 M218.87 89.56 C248.31 56.93, 276.31 24.74, 296.28 0.5 M229.5 89.52 C257.23 54.53, 289.79 22.64, 306.26 1.22 M229.5 89.52 C250.03 64.4, 273 40.02, 306.26 1.22 M239.47 90.24 C256.21 71.32, 277.05 48.68, 316.89 1.19 M239.47 90.24 C261.8 63.12, 286.71 36.74, 316.89 1.19 M250.1 90.21 C278.78 57.63, 304.69 26.66, 327.52 1.15 M250.1 90.21 C279.3 58.98, 307.22 26.41, 327.52 1.15 M260.73 90.17 C287.56 60.07, 311.46 31.08, 338.15 1.12 M260.73 90.17 C278.15 70.84, 294.3 50.26, 338.15 1.12 M271.36 90.14 C298.56 57.68, 322.14 30.5, 348.78 1.08 M271.36 90.14 C286.61 71.22, 302.64 52.35, 348.78 1.08 M281.99 90.1 C306.99 61.94, 333.84 32.2, 359.41 1.05 M281.99 90.1 C306.06 63.48, 331.39 33.53, 359.41 1.05 M292.62 90.07 C321.36 59.44, 347.68 27.86, 370.04 1.01 M292.62 90.07 C309.08 69.4, 328.89 47.83, 370.04 1.01 M303.25 90.04 C332.66 54.61, 360.64 23.82, 380.67 0.98 M303.25 90.04 C330.63 59.75, 358.19 27.7, 380.67 0.98 M313.88 90 C340.13 60.35, 365.32 28.51, 391.3 0.95 M313.88 90 C340.45 59.23, 365.63 28.5, 391.3 0.95 M324.51 89.97 C353.96 55.24, 382.41 25.62, 401.93 0.91 M324.51 89.97 C352.57 57.88, 380.22 24.7, 401.93 0.91 M335.14 89.93 C360.91 59.34, 385.78 32.1, 412.56 0.88 M335.14 89.93 C355.29 66.79, 376.24 45.75, 412.56 0.88 M345.77 89.9 C374.85 55.8, 405.8 20.08, 423.19 0.84 M345.77 89.9 C372.4 61.18, 397.32 29.55, 423.19 0.84 M356.4 89.86 C378.88 66, 399.43 40.04, 433.82 0.81 M356.4 89.86 C373.52 72.61, 388.48 52.42, 433.82 0.81 M367.03 89.83 C384.26 71.1, 401.37 48.93, 444.45 0.77 M367.03 89.83 C391.89 61.22, 418.75 32.55, 444.45 0.77 M377.66 89.79 C402.25 65.23, 423.38 37.46, 455.08 0.74 M377.66 89.79 C397.21 66.72, 417.16 46.16, 455.08 0.74 M388.29 89.76 C412.68 59.8, 437.71 34.1, 465.71 0.7 M388.29 89.76 C416.41 57.08, 443.88 25.54, 465.71 0.7 M398.92 89.73 C423.06 62.77, 449.03 33.41, 476.34 0.67 M398.92 89.73 C423.77 61.02, 449 30.94, 476.34 0.67 M409.55 89.69 C437.84 56.14, 469.55 22.34, 484.34 3.65 M409.55 89.69 C430.11 64.97, 450.83 41.2, 484.34 3.65 M419.53 90.41 C441.17 66.97, 463.86 40.01, 490.38 8.9 M419.53 90.41 C434.67 71.75, 450.22 54.06, 490.38 8.9 M430.16 90.38 C454.27 60.87, 476.81 36.25, 493.79 17.17 M430.16 90.38 C453.15 65.3, 475.28 38.96, 493.79 17.17 M440.79 90.34 C451.89 79.47, 463.6 64.72, 493.93 29.21 M440.79 90.34 C461.12 66.42, 481.5 41.65, 493.93 29.21 M451.42 90.31 C468.39 73.6, 483.39 55.49, 494.06 41.25 M451.42 90.31 C463.6 76.95, 474.65 64.26, 494.06 41.25 M462.05 90.27 C468.64 81.05, 474.78 75.68, 494.19 53.29 M462.05 90.27 C472.01 78.59, 484.22 64.31, 494.19 53.29 M473.33 89.48 C478.38 83.27, 482.95 79.52, 493.67 66.09 M473.33 89.48 C478.44 83.22, 483.31 77.11, 493.67 66.09 M487.24 85.68 C487.95 84.62, 488.83 84.14, 489.87 82.66 M487.24 85.68 C487.86 84.94, 488.55 84.05, 489.87 82.66" stroke="#b2f2bb" stroke-width="1" fill="none"></path><path d="M22.5 0 C165.91 1.12, 311.04 1.09, 471.5 0 M471.5 0 C487.32 -0.32, 492.61 9.43, 494 22.5 M494 22.5 C495.88 38.14, 494.07 53.28, 494 67.5 M494 67.5 C495.52 83.94, 486.29 90.16, 471.5 90 M471.5 90 C324.77 88.65, 180.43 88.24, 22.5 90 M22.5 90 C8.16 91.24, -0.66 82.42, 0 67.5 M0 67.5 C-1.83 56.74, 1.11 41.69, 0 22.5 M0 22.5 C1.61 5.79, 8.54 -1.02, 22.5 0" stroke="#1e1e1e" stroke-width="2.5" fill="none" stroke-dasharray="8 10"></path></g><g transform="translate(971.0416679382324 320.5) rotate(0 37.45833206176758 17.5)"><text x="37.45833206176758" y="0" font-family="Virgil, Segoe UI Emoji" font-size="28px" fill="#1e1e1e" text-anchor="middle" style="white-space: pre;" direction="ltr" dominant-baseline="text-before-edge">Proxy</text></g></svg>