<svg width="24" height="24" viewBox="0 0 24 24" fill="none" xmlns="http://www.w3.org/2000/svg">
<path d="M11.0625 1.5C11.1122 1.5 11.1601 1.51952 11.1953 1.55469C11.2305 1.58985 11.25 1.63777 11.25 1.6875V8.25C11.25 8.84674 11.4872 9.41886 11.9092 9.84082C12.3311 10.2628 12.9033 10.5 13.5 10.5H20.0625C20.1122 10.5 20.1601 10.5195 20.1953 10.5547C20.2305 10.5899 20.25 10.6378 20.25 10.6875V19.5C20.25 20.2956 19.9337 21.0585 19.3711 21.6211C18.8085 22.1837 18.0456 22.5 17.25 22.5H6.75C5.95435 22.5 5.19152 22.1837 4.62891 21.6211C4.0663 21.0585 3.75 20.2956 3.75 19.5V4.5C3.75 3.70435 4.0663 2.94152 4.62891 2.37891C5.19152 1.8163 5.95435 1.5 6.75 1.5H11.0625ZM11.9639 12.001C11.5603 12.0211 11.25 12.3679 11.25 12.7715V15.75H8.25C8.14861 15.75 8.04829 15.7707 7.95508 15.8105C7.86178 15.8505 7.77706 15.909 7.70703 15.9824C7.63699 16.0559 7.58231 16.1431 7.54688 16.2383C7.5115 16.3334 7.49609 16.4348 7.50098 16.5361C7.52119 16.9397 7.86793 17.25 8.27148 17.25H11.25V20.25C11.25 20.3514 11.2706 20.4517 11.3105 20.5449C11.3505 20.6382 11.4089 20.7229 11.4824 20.793C11.5559 20.863 11.6431 20.9177 11.7383 20.9531C11.8333 20.9885 11.9348 21.0039 12.0361 20.999C12.4397 20.9788 12.75 20.6321 12.75 20.2285V17.25H15.7285C16.1321 17.25 16.4803 16.9397 16.5 16.5361C16.5049 16.4347 16.4886 16.3334 16.4531 16.2383C16.4176 16.1431 16.3631 16.0559 16.293 15.9824C16.223 15.9091 16.1391 15.8504 16.0459 15.8105C15.9525 15.7706 15.8516 15.7499 15.75 15.75H12.75V12.75C12.75 12.6486 12.7293 12.5483 12.6895 12.4551C12.6495 12.3618 12.591 12.277 12.5176 12.207C12.4441 12.137 12.3569 12.0823 12.2617 12.0469C12.1666 12.0115 12.0652 11.9961 11.9639 12.001ZM12.8623 2.07324C12.8803 2.07686 12.8971 2.0857 12.9102 2.09863L19.6514 8.83984C19.6643 8.85287 19.6731 8.8697 19.6768 8.8877C19.6803 8.90583 19.678 8.9253 19.6709 8.94238C19.6638 8.95932 19.652 8.97413 19.6367 8.98438C19.6214 8.9946 19.6033 8.9999 19.585 9H13.5C13.3011 9 13.1104 8.92093 12.9697 8.78027C12.8291 8.63962 12.75 8.44891 12.75 8.25V2.16504C12.7501 2.14665 12.7554 2.12856 12.7656 2.11328C12.7759 2.09804 12.7907 2.08618 12.8076 2.0791C12.8247 2.07204 12.8442 2.06966 12.8623 2.07324Z" fill="var(--fill-color, #000000)"/>
</svg>
