<svg width="26" height="27" viewBox="0 0 26 27" fill="none" xmlns="http://www.w3.org/2000/svg">
<path d="M20.0625 10.5H13.5C12.9033 10.5 12.331 10.2629 11.909 9.84099C11.4871 9.41903 11.25 8.84674 11.25 8.25V1.6875C11.25 1.63777 11.2302 1.59008 11.1951 1.55492C11.1599 1.51975 11.1122 1.5 11.0625 1.5H6.75C5.95435 1.5 5.19129 1.81607 4.62868 2.37868C4.06607 2.94129 3.75 3.70435 3.75 4.5V19.5C3.75 20.2956 4.06607 21.0587 4.62868 21.6213C5.19129 22.1839 5.95435 22.5 6.75 22.5H17.25C18.0456 22.5 18.8087 22.1839 19.3713 21.6213C19.9339 21.0587 20.25 20.2956 20.25 19.5V10.6875C20.25 10.6378 20.2302 10.5901 20.1951 10.5549C20.1599 10.5198 20.1122 10.5 20.0625 10.5Z" fill="#3D3D5C"/>
<path d="M19.6509 8.84016L12.9098 2.09906C12.8967 2.08603 12.8801 2.07716 12.8619 2.07358C12.8438 2.06999 12.825 2.07185 12.8079 2.07891C12.7908 2.08598 12.7762 2.09793 12.7659 2.11328C12.7556 2.12862 12.7501 2.14667 12.75 2.16516V8.25C12.75 8.44891 12.829 8.63968 12.9697 8.78033C13.1103 8.92098 13.3011 9 13.5 9H19.5848C19.6033 8.99992 19.6214 8.99438 19.6367 8.98408C19.6521 8.97377 19.664 8.95916 19.6711 8.94207C19.6781 8.92499 19.68 8.9062 19.6764 8.88807C19.6728 8.86994 19.664 8.85327 19.6509 8.84016Z" fill="#3D3D5C"/>
<path d="M12 20C12 16.134 15.134 13 19 13V13C22.866 13 26 16.134 26 20V20C26 23.866 22.866 27 19 27V27C15.134 27 12 23.866 12 20V20Z" fill="#E5F1FF"/>
<path fill-rule="evenodd" clip-rule="evenodd" d="M19 15.625C19.2416 15.625 19.4375 15.8209 19.4375 16.0625V19.5625H22.9375C23.1791 19.5625 23.375 19.7584 23.375 20C23.375 20.2416 23.1791 20.4375 22.9375 20.4375H19.4375V23.9375C19.4375 24.1791 19.2416 24.375 19 24.375C18.7584 24.375 18.5625 24.1791 18.5625 23.9375V20.4375H15.0625C14.8209 20.4375 14.625 20.2416 14.625 20C14.625 19.7584 14.8209 19.5625 15.0625 19.5625H18.5625V16.0625C18.5625 15.8209 18.7584 15.625 19 15.625Z" fill="#3D3D5C" stroke="#3D3D5C" stroke-width="0.5" stroke-linecap="round" stroke-linejoin="round"/>
</svg>
