<svg id="Capa_1" enable-background="new 0 0 791.454 791.454" viewBox="0 0 791.454 791.454" xmlns="http://www.w3.org/2000/svg"><g><g id="Vrstva_x0020_1_1_"><path clip-rule="evenodd" d="m202.63 0h264.877l224.149 233.97v454.364c0 56.904-45.927 103.12-102.831 103.12h-386.195c-56.615 0-102.831-46.216-102.831-103.12v-585.503c-.001-56.615 46.216-102.831 102.831-102.831z" fill="#092f41" fill-rule="evenodd"/><g fill="#fff"><path clip-rule="evenodd" d="m467.218 0v231.948h224.438z" fill-rule="evenodd" opacity=".302"/><path d="m300.262 554.018-8.666-25.419h-44.194l-8.666 25.419h-35.529l49.971-134.027h32.351l49.971 134.027zm-43.039-53.726h24.552l-12.421-35.529zm88.966 53.726v-134.027h57.193c13.865 0 25.13 4.044 33.507 11.843 8.666 7.799 12.709 18.198 12.709 31.196s-4.044 23.397-12.709 31.196c-8.377 7.799-19.642 11.554-33.507 11.554h-22.819v48.238zm34.373-77.412h19.064c4.91 0 8.954-1.155 11.843-3.466 2.6-2.6 4.044-5.777 4.044-10.11s-1.444-7.799-4.044-10.11c-2.889-2.6-6.932-3.755-11.843-3.755h-19.064zm164.646 77.412-35.818-55.171-11.265 12.132v43.039h-34.373v-134.027h34.373v45.35l41.595-45.35h44.483l-50.838 54.015 54.882 80.012z"/></g></g></g></svg>