<svg width="120" height="120" viewBox="0 0 120 120" fill="none" xmlns="http://www.w3.org/2000/svg">
<g filter="url(#filter0_d_31060_32836)">
<mask id="mask0_31060_32836" style="mask-type:luminance" maskUnits="userSpaceOnUse" x="20" y="16" width="80" height="80">
<path fill-rule="evenodd" clip-rule="evenodd" d="M100 40.9152C100 39.9655 100 39.0157 99.9946 38.0659C99.9898 37.2658 99.9806 36.4659 99.9588 35.6662C99.9118 33.9232 99.809 32.1653 99.499 30.4417C99.1847 28.6933 98.6713 27.066 97.8622 25.4773C97.0669 23.9159 96.028 22.4871 94.7884 21.2483C93.5491 20.0096 92.1199 18.9713 90.5578 18.1765C88.9675 17.3673 87.3385 16.8541 85.5882 16.5398C83.8644 16.2303 82.106 16.1277 80.363 16.0806C79.5627 16.0589 78.7624 16.0498 77.9619 16.0449C77.0116 16.039 76.0613 16.0395 75.111 16.0395L64.0773 16H55.825L44.9865 16.0395C44.0344 16.0395 43.0823 16.039 42.1301 16.0449C41.328 16.0498 40.5263 16.0589 39.7244 16.0806C37.9773 16.1277 36.2149 16.2304 34.4871 16.5403C32.7344 16.8545 31.1029 17.3675 29.5105 18.1761C27.9452 18.9711 26.5129 20.0094 25.2709 21.2483C24.0292 22.487 22.9883 23.9155 22.1915 25.4767C21.3803 27.0661 20.8659 28.6943 20.5508 30.4437C20.2405 32.1666 20.1377 33.924 20.0904 35.6662C20.0688 36.466 20.0595 37.2659 20.0547 38.0659C20.0488 39.0158 20 40.1957 20 41.1455L20.0003 51.8339L20 60.1746L20.0493 71.09C20.0493 72.0411 20.0489 72.9921 20.0547 73.9432C20.0595 74.7444 20.0688 75.5453 20.0905 76.3462C20.1377 78.0914 20.2407 79.8519 20.5513 81.5778C20.8663 83.3286 21.3806 84.9582 22.1911 86.5489C22.988 88.1126 24.0291 89.5432 25.2709 90.7837C26.5128 92.0242 27.9447 93.0638 29.5097 93.8598C31.1031 94.6701 32.7353 95.184 34.4891 95.4986C36.2162 95.8086 37.978 95.9115 39.7244 95.9585C40.5263 95.9802 41.3281 95.9894 42.1302 95.9943C43.0824 96.0001 44.0344 95.9997 44.9865 95.9997L55.9229 96H64.1958L75.111 95.9996C76.0613 95.9996 77.0116 96.0001 77.9619 95.9943C78.7624 95.9894 79.5627 95.9802 80.363 95.9585C82.1066 95.9114 83.8656 95.8084 85.5902 95.4983C87.3395 95.1836 88.9677 94.6699 90.5571 93.8601C92.1195 93.0642 93.549 92.0244 94.7884 90.7837C96.0278 89.5434 97.0666 88.1129 97.862 86.5496C98.6715 84.9581 99.1849 83.3277 99.4994 81.5758C99.8091 79.8505 99.9118 78.0907 99.9589 76.3462C99.9806 75.5452 99.9898 74.7443 99.9946 73.9432C100 72.9921 100 72.0411 100 71.09C100 71.09 99.9994 60.3673 99.9994 60.1746V51.8251C99.9994 51.6828 100 40.9152 100 40.9152Z" fill="white"/>
</mask>
<g mask="url(#mask0_31060_32836)">
<g filter="url(#filter1_dddi_31060_32836)">
<rect x="19.0385" y="15.0391" width="82.0513" height="82.0513" rx="17.5" fill="url(#paint0_linear_31060_32836)"/>
<path d="M48.5393 46.8845C51.1956 41.2141 56.7997 36 65.206 36C65.6122 36 66.0185 36.0109 66.4456 36.0326C70.9247 36.4562 79.2477 39.5521 76.6643 43.7234C75.7789 44.9618 74.0706 45.2008 72.8935 44.2557C69.2372 40.8557 62.0497 40.671 58.4039 43.365C53.1852 46.4717 53.6331 50.9906 51.581 51.6424C50.2268 51.9683 48.9143 52.5006 47.7372 53.261C46.4039 54.1191 45.2581 55.2163 44.3206 56.5307C43.9247 57.215 43.2581 57.769 42.4352 57.6713C41.1852 57.5844 39.8102 57.4757 37.9352 58.6055C33.5289 61.3863 34.3102 67.0784 38.2685 69.4139C39.3206 70.0331 40.5185 70.3373 41.7372 70.3373H47.7997C51.331 70.4133 51.2685 75.7578 47.7372 75.7904H41.081C40.5185 75.7904 39.9664 75.7361 39.4143 75.6166C39.4039 75.6166 39.3831 75.6166 39.3622 75.6057C25.8414 72.5207 26.6122 53.3153 40.9039 52.1638C42.9247 49.7414 45.5914 47.8948 48.5289 46.8628M65.7164 53.6412L53.8414 71.5756C53.0185 72.8248 53.331 74.5194 54.5393 75.3667C55.7477 76.214 57.4039 75.8882 58.2372 74.6498L70.1122 56.7153C73.0081 52.0986 79.7685 52.2725 83.0914 56.2591C89.6643 63.8305 80.3206 74.791 71.4872 68.5558C68.6539 66.4918 65.5706 70.8913 68.3831 72.9878C69.8935 74.0958 72.8727 75.8338 76.7893 75.8338C90.7268 75.3885 93.8518 59.8547 87.0706 52.6418C84.4352 49.459 80.4872 47.8296 76.5706 47.8296C72.3414 47.8296 68.1539 49.7306 65.706 53.6412" fill="white"/>
</g>
</g>
</g>
<defs>
<filter id="filter0_d_31060_32836" x="0" y="0" width="120" height="120" filterUnits="userSpaceOnUse" color-interpolation-filters="sRGB">
<feFlood flood-opacity="0" result="BackgroundImageFix"/>
<feColorMatrix in="SourceAlpha" type="matrix" values="0 0 0 0 0 0 0 0 0 0 0 0 0 0 0 0 0 0 127 0" result="hardAlpha"/>
<feOffset dy="4"/>
<feGaussianBlur stdDeviation="10"/>
<feComposite in2="hardAlpha" operator="out"/>
<feColorMatrix type="matrix" values="0 0 0 0 0 0 0 0 0 0 0 0 0 0 0 0 0 0 0.15 0"/>
<feBlend mode="normal" in2="BackgroundImageFix" result="effect1_dropShadow_31060_32836"/>
<feBlend mode="normal" in="SourceGraphic" in2="effect1_dropShadow_31060_32836" result="shape"/>
</filter>
<filter id="filter1_dddi_31060_32836" x="16.7308" y="13.8852" width="86.6667" height="86.6662" filterUnits="userSpaceOnUse" color-interpolation-filters="sRGB">
<feFlood flood-opacity="0" result="BackgroundImageFix"/>
<feColorMatrix in="SourceAlpha" type="matrix" values="0 0 0 0 0 0 0 0 0 0 0 0 0 0 0 0 0 0 127 0" result="hardAlpha"/>
<feOffset dy="1.15385"/>
<feGaussianBlur stdDeviation="1.15385"/>
<feColorMatrix type="matrix" values="0 0 0 0 0 0 0 0 0 0 0 0 0 0 0 0 0 0 0.1 0"/>
<feBlend mode="normal" in2="BackgroundImageFix" result="effect1_dropShadow_31060_32836"/>
<feColorMatrix in="SourceAlpha" type="matrix" values="0 0 0 0 0 0 0 0 0 0 0 0 0 0 0 0 0 0 127 0" result="hardAlpha"/>
<feOffset dy="0.769231"/>
<feGaussianBlur stdDeviation="0.576923"/>
<feColorMatrix type="matrix" values="0 0 0 0 0 0 0 0 0 0 0 0 0 0 0 0 0 0 0.1 0"/>
<feBlend mode="normal" in2="effect1_dropShadow_31060_32836" result="effect2_dropShadow_31060_32836"/>
<feColorMatrix in="SourceAlpha" type="matrix" values="0 0 0 0 0 0 0 0 0 0 0 0 0 0 0 0 0 0 127 0" result="hardAlpha"/>
<feOffset dy="0.192308"/>
<feGaussianBlur stdDeviation="0.192308"/>
<feColorMatrix type="matrix" values="0 0 0 0 0 0 0 0 0 0 0 0 0 0 0 0 0 0 0.1 0"/>
<feBlend mode="normal" in2="effect2_dropShadow_31060_32836" result="effect3_dropShadow_31060_32836"/>
<feBlend mode="normal" in="SourceGraphic" in2="effect3_dropShadow_31060_32836" result="shape"/>
<feColorMatrix in="SourceAlpha" type="matrix" values="0 0 0 0 0 0 0 0 0 0 0 0 0 0 0 0 0 0 127 0" result="hardAlpha"/>
<feOffset dy="-0.384615"/>
<feGaussianBlur stdDeviation="0.192308"/>
<feComposite in2="hardAlpha" operator="arithmetic" k2="-1" k3="1"/>
<feColorMatrix type="matrix" values="0 0 0 0 0 0 0 0 0 0 0 0 0 0 0 0 0 0 0.05 0"/>
<feBlend mode="normal" in2="shape" result="effect4_innerShadow_31060_32836"/>
</filter>
<linearGradient id="paint0_linear_31060_32836" x1="17.8611" y1="13.7179" x2="118.369" y2="56.415" gradientUnits="userSpaceOnUse">
<stop stop-color="#4092FF"/>
<stop offset="1" stop-color="#0058CC"/>
</linearGradient>
</defs>
</svg>
