<svg width="28" height="28" viewBox="0 0 28 28" fill="none" xmlns="http://www.w3.org/2000/svg">
<path d="M25.375 14C25.375 7.71805 20.282 2.625 14 2.625C7.71805 2.625 2.625 7.71805 2.625 14C2.625 20.282 7.71805 25.375 14 25.375C20.282 25.375 25.375 20.282 25.375 14ZM13.7457 18.9963C13.6641 18.9153 13.5993 18.8191 13.5548 18.7131C13.5104 18.6071 13.4873 18.4934 13.4869 18.3785C13.4864 18.2636 13.5086 18.1497 13.5522 18.0433C13.5957 17.937 13.6598 17.8402 13.7408 17.7587L16.602 14.875H9.29688C9.06481 14.875 8.84225 14.7828 8.67816 14.6187C8.51406 14.4546 8.42188 14.2321 8.42188 14C8.42188 13.7679 8.51406 13.5454 8.67816 13.3813C8.84225 13.2172 9.06481 13.125 9.29688 13.125H16.602L13.7408 10.2413C13.6598 10.1597 13.5958 10.0629 13.5523 9.95646C13.5087 9.85005 13.4866 9.7361 13.4871 9.62113C13.4876 9.50616 13.5107 9.39242 13.5552 9.28639C13.5997 9.18037 13.6646 9.08414 13.7463 9.0032C13.8279 8.92227 13.9247 8.8582 14.0311 8.81468C14.1375 8.77115 14.2515 8.74901 14.3664 8.74951C14.5986 8.75054 14.8209 8.84376 14.9844 9.00867L19.326 13.3837C19.4887 13.5476 19.5799 13.7691 19.5799 14C19.5799 14.2309 19.4887 14.4524 19.326 14.6163L14.9844 18.9913C14.9034 19.0731 14.8071 19.1381 14.701 19.1826C14.5949 19.2271 14.4811 19.2502 14.3661 19.2507C14.251 19.2511 14.137 19.2289 14.0305 19.1853C13.9241 19.1416 13.8273 19.0774 13.7457 18.9963Z" fill="url(#paint0_linear_32606_150770)"/>
<defs>
<linearGradient id="paint0_linear_32606_150770" x1="2.29857" y1="2.25869" x2="30.166" y2="14.0971" gradientUnits="userSpaceOnUse">
<stop stop-color="#338BFF"/>
<stop offset="1" stop-color="#0058CC"/>
</linearGradient>
</defs>
</svg>
