<svg width="32" height="32" viewBox="0 0 32 32" fill="none" xmlns="http://www.w3.org/2000/svg">
<path d="M13.5731 1.03446C14.8971 -0.34482 17.1029 -0.34482 18.4269 1.03446L18.6306 1.24661C19.455 2.10539 20.6718 2.46457 21.8304 2.19108L22.1105 2.12497C23.9635 1.68755 25.81 2.8738 26.1825 4.74101L26.253 5.09429C26.4838 6.25153 27.3041 7.2032 28.4146 7.60219L28.7426 7.72003C30.5209 8.3589 31.4243 10.3366 30.743 12.099L30.5957 12.4801C30.1733 13.5728 30.3498 14.8065 31.0615 15.737L31.3077 16.0588C32.4532 17.5564 32.1445 19.7028 30.6234 20.8168L30.3146 21.043C29.3669 21.7371 28.8499 22.8752 28.9506 24.0456L28.9842 24.4359C29.1468 26.3254 27.7163 27.9758 25.8229 28.0831L25.5103 28.1009C24.3263 28.168 23.2651 28.8536 22.7172 29.9053L22.5676 30.1925C21.6852 31.8862 19.5716 32.5066 17.9138 31.5585L17.6702 31.4191C16.6354 30.8273 15.3646 30.8273 14.3298 31.4191L14.0862 31.5585C12.4284 32.5066 10.3148 31.8862 9.43242 30.1925L9.28284 29.9053C8.73493 28.8536 7.67373 28.168 6.48972 28.1009L6.17711 28.0831C4.28369 27.9758 2.85319 26.3254 3.01581 24.4359L3.04941 24.0456C3.15014 22.8752 2.63311 21.7371 1.68543 21.043L1.37658 20.8168C-0.144508 19.7028 -0.453198 17.5564 0.692308 16.0588L0.938464 15.737C1.65022 14.8065 1.82667 13.5728 1.40426 12.4801L1.25696 12.099C0.575655 10.3366 1.4791 8.3589 3.25735 7.72003L3.58536 7.60219C4.6959 7.2032 5.5162 6.25152 5.74705 5.09429L5.81752 4.74101C6.18999 2.8738 8.03646 1.68755 9.88953 2.12497L10.1696 2.19108C11.3282 2.46457 12.545 2.10539 13.3694 1.2466L13.5731 1.03446Z" fill="url(#paint0_linear_36046_80189)"/>
<path d="M16 7.62012C17.3916 8.42865 18.958 8.89191 20.5654 8.9707C21.3031 10.4323 22.3874 11.6923 23.7217 12.6406C23.5481 14.2926 23.7868 15.9634 24.415 17.501C23.3884 18.7954 22.6961 20.3247 22.3994 21.9502C20.8677 22.4821 19.4851 23.3763 18.373 24.5566C16.8138 24.1785 15.1852 24.1784 13.626 24.5566C12.5138 23.3764 11.1315 22.482 9.59961 21.9502C9.30287 20.3246 8.61078 18.7955 7.58398 17.501C8.21229 15.9633 8.45093 14.2927 8.27734 12.6406C9.61183 11.6923 10.6958 10.4324 11.4336 8.9707C13.0413 8.89204 14.6081 8.42881 16 7.62012Z" stroke="#929292" stroke-opacity="0.1" stroke-width="13.4054"/>
<path d="M4.24658 16.2048C4.24658 9.54411 9.64616 4.14453 16.3069 4.14453C22.9676 4.14453 28.3672 9.5441 28.3672 16.2048V16.4528C28.3672 23.1136 22.9676 28.5131 16.3069 28.5131C9.64616 28.5131 4.24658 23.1136 4.24658 16.4529V16.2048Z" fill="black" fill-opacity="0.04"/>
<path d="M16.3071 5.2998C22.3296 5.29995 27.2114 10.1826 27.2114 16.2051V16.4531C27.2113 22.4755 22.3295 27.3573 16.3071 27.3574C10.2846 27.3574 5.402 22.4756 5.40186 16.4531V16.2051C5.40186 10.1825 10.2845 5.2998 16.3071 5.2998Z" stroke="white" stroke-opacity="0.3" stroke-width="2.31076"/>
<path d="M14.2802 18.5236L11.9645 16.184C11.8399 16.0578 11.6706 15.9868 11.4941 15.9868C11.3175 15.9868 11.1483 16.0578 11.0236 16.184C10.7633 16.447 10.7633 16.8717 11.0236 17.1347L13.8131 19.9529C14.0734 20.2158 14.4938 20.2158 14.7541 19.9529L21.8146 12.8197C22.0749 12.5568 22.0749 12.132 21.8146 11.8691C21.6899 11.7428 21.5207 11.6719 21.3441 11.6719C21.1676 11.6719 20.9983 11.7428 20.8737 11.8691L14.2802 18.5236Z" fill="white" stroke="#FDFDFD" stroke-width="0.462151"/>
<path d="M28.4013 16.3491C28.4013 23.0852 22.9956 28.5458 16.3274 28.5458C9.65911 28.5458 4.25342 23.0852 4.25342 16.3491C4.25342 9.61301 9.65911 4.15234 16.3274 4.15234C22.9956 4.15234 28.4013 9.61301 28.4013 16.3491ZM6.77196 16.3491C6.77196 21.6801 11.0501 26.0017 16.3274 26.0017C21.6047 26.0017 25.8828 21.6801 25.8828 16.3491C25.8828 11.0181 21.6047 6.69649 16.3274 6.69649C11.0501 6.69649 6.77196 11.0181 6.77196 16.3491Z" fill="url(#paint1_linear_36046_80189)" fill-opacity="0.5"/>
<defs>
<linearGradient id="paint0_linear_36046_80189" x1="5.61873" y1="2.99694" x2="23.173" y2="30.6636" gradientUnits="userSpaceOnUse">
<stop stop-color="#D2E0ED"/>
<stop offset="0.109389" stop-color="#BFC8E7"/>
<stop offset="0.463563" stop-color="#CBCDFC"/>
<stop offset="0.739611" stop-color="#C3ADCB"/>
<stop offset="1" stop-color="#9699B5"/>
</linearGradient>
<linearGradient id="paint1_linear_36046_80189" x1="16.3274" y1="4.15234" x2="16.3274" y2="28.5458" gradientUnits="userSpaceOnUse">
<stop stop-color="white"/>
<stop offset="0.0001" stop-color="white" stop-opacity="0.81"/>
<stop offset="1" stop-color="white" stop-opacity="0"/>
</linearGradient>
</defs>
</svg>
