<svg width="56" height="56" viewBox="0 0 56 56" fill="none" xmlns="http://www.w3.org/2000/svg">
<g opacity="0.3">
<path d="M11.1483 2H26.974L40.3712 15.9702V43.1376C40.3712 46.5301 37.6154 49.2859 34.2138 49.2859H11.1484C7.75583 49.2859 5 46.5301 5 43.1376V8.14836C4.99994 4.75583 7.75577 2 11.1483 2V2Z" fill="url(#paint0_linear_1151_18945)"/>
<path opacity="0.302" fill-rule="evenodd" clip-rule="evenodd" d="M26.9558 2V15.8611H40.3712L26.9558 2Z" fill="white"/>
</g>
<path d="M16.0365 6.88818H31.8622L45.2594 20.8584V48.0257C45.2594 51.4183 42.5036 54.1741 39.102 54.1741H16.0365C12.644 54.1741 9.88818 51.4183 9.88818 48.0257V13.0365C9.88812 9.64401 12.644 6.88818 16.0365 6.88818V6.88818Z" fill="url(#paint1_linear_1151_18945)"/>
<path opacity="0.302" fill-rule="evenodd" clip-rule="evenodd" d="M31.844 6.88818V20.7493H45.2594L31.844 6.88818Z" fill="white"/>
<g filter="url(#filter0_d_1151_18945)">
<path d="M26.182 29.4958C26.182 29.0459 26.5468 28.6812 26.9967 28.6812C27.4467 28.6812 27.8114 29.0459 27.8114 29.4958V34.1803H32.4959C32.9458 34.1803 33.3106 34.5451 33.3106 34.995C33.3106 35.445 32.9458 35.8097 32.4959 35.8097H27.8114V40.4942C27.8114 40.9441 27.4467 41.3089 26.9967 41.3089C26.5468 41.3089 26.182 40.9441 26.182 40.4942V35.8097H21.4976C21.0476 35.8097 20.6829 35.445 20.6829 34.995C20.6829 34.5451 21.0476 34.1803 21.4976 34.1803H26.182V29.4958Z" fill="white"/>
</g>
<defs>
<filter id="filter0_d_1151_18945" x="7.44402" y="16.6646" width="39.1051" height="39.1051" filterUnits="userSpaceOnUse" color-interpolation-filters="sRGB">
<feFlood flood-opacity="0" result="BackgroundImageFix"/>
<feColorMatrix in="SourceAlpha" type="matrix" values="0 0 0 0 0 0 0 0 0 0 0 0 0 0 0 0 0 0 127 0" result="hardAlpha"/>
<feOffset dy="1.22204"/>
<feGaussianBlur stdDeviation="3.05509"/>
<feComposite in2="hardAlpha" operator="out"/>
<feColorMatrix type="matrix" values="0 0 0 0 0 0 0 0 0 0 0 0 0 0 0 0 0 0 0.08 0"/>
<feBlend mode="normal" in2="BackgroundImageFix" result="effect1_dropShadow_1151_18945"/>
<feBlend mode="normal" in="SourceGraphic" in2="effect1_dropShadow_1151_18945" result="shape"/>
</filter>
<linearGradient id="paint0_linear_1151_18945" x1="4.49247" y1="1.23862" x2="50.9482" y2="16.001" gradientUnits="userSpaceOnUse">
<stop stop-color="#338BFF"/>
<stop offset="1" stop-color="#0058CC"/>
</linearGradient>
<linearGradient id="paint1_linear_1151_18945" x1="9.38065" y1="6.1268" x2="55.8364" y2="20.8891" gradientUnits="userSpaceOnUse">
<stop stop-color="#338BFF"/>
<stop offset="1" stop-color="#0058CC"/>
</linearGradient>
</defs>
</svg>
