<svg id="Capa_1" enable-background="new 0 0 791.454 791.454" viewBox="0 0 791.454 791.454" xmlns="http://www.w3.org/2000/svg"><g><g id="Vrstva_x0020_1_2_"><path clip-rule="evenodd" d="m202.63 0h264.877l224.149 233.97v454.364c0 56.904-45.927 103.12-102.831 103.12h-386.195c-56.615 0-102.831-46.216-102.831-103.12v-585.503c-.001-56.615 46.216-102.831 102.831-102.831z" fill="#00a1e0" fill-rule="evenodd"/><g fill="#fff"><path clip-rule="evenodd" d="m467.218 0v231.948h224.438z" fill-rule="evenodd" opacity=".302"/><path d="m448.443 590.413h-15.02v-28.596h3.177c7.51 0 11.265-4.044 11.265-12.132v-41.884c0-6.644 1.733-11.843 4.622-15.309 3.177-3.177 7.799-6.066 13.865-8.666-5.777-2.311-10.399-5.199-13.576-8.666-3.177-3.466-4.91-8.377-4.91-15.02v-41.884c0-8.088-3.755-12.132-11.265-12.132h-3.177v-28.596h15.02c8.954 0 16.176 2.889 21.953 8.666s8.666 12.998 8.666 21.664v44.772c0 10.976 6.066 16.465 18.198 16.465v29.752c-12.132 0-18.198 5.488-18.198 16.753v44.483c0 8.666-2.889 15.887-8.666 21.664-5.779 5.778-13 8.666-21.954 8.666zm-105.431 0c-8.666 0-16.176-2.889-21.953-8.666s-8.666-12.998-8.666-21.664v-44.483c0-11.265-6.066-16.753-18.198-16.753v-29.752c12.132 0 18.198-5.488 18.198-16.465v-44.772c0-8.666 2.889-15.887 8.666-21.664s13.287-8.666 21.953-8.666h15.309v28.596h-3.466c-7.51 0-11.265 4.044-11.265 12.132v41.884c0 6.644-1.444 11.554-4.622 15.02-3.177 3.466-7.799 6.355-13.865 8.666 6.066 2.6 10.688 5.488 13.865 8.666 3.177 3.466 4.622 8.666 4.622 15.309v41.884c0 8.088 3.755 12.132 11.265 12.132h3.466v28.596z"/></g></g></g></svg>