<svg width="56" height="56" viewBox="0 0 56 56" fill="none" xmlns="http://www.w3.org/2000/svg">
<path d="M54.7106 17.5544C54.7106 15.9264 54.0591 14.3651 52.8995 13.2139C51.7399 12.0627 50.1672 11.416 48.5272 11.416H28.2348C27.712 11.4177 27.429 11.416 26.7652 10.9776C26.1014 10.5391 25.1541 8.63519 24.1725 7.57143C23.1909 6.50767 21.4833 5.99763 20.2606 6.00001C19.0378 6.00238 9.53387 6.00001 7.89395 6.00001C6.25403 6.00001 4.57564 6.45293 3.52168 7.79789C2.46771 9.14285 1.71062 11.2381 1.71062 14.0467C1.71062 16.8554 1.71057 42.1081 1.71057 42.1081C1.71057 42.3407 1.80364 42.5637 1.96929 42.7282C2.13495 42.8926 2.35963 42.985 2.5939 42.985H53.8272C54.0615 42.985 54.2861 42.8926 54.4518 42.7282C54.6175 42.5637 54.7105 42.3407 54.7105 42.1081L54.7106 17.5544Z" fill="#0058CC"/>
<path d="M1.71062 43.8616C1.71062 45.4896 2.36208 47.0509 3.52168 48.2021C4.68128 49.3533 6.25403 50 7.89395 50H48.5272C50.1672 50 51.7399 49.3533 52.8995 48.2021C54.0591 47.0509 54.7106 45.4896 54.7106 43.8616V17.5544C54.7106 17.3218 54.6175 17.099 54.4519 16.9346C54.2862 16.7701 54.0615 16.6777 53.8272 16.6777H2.59396C2.35968 16.6777 2.135 16.7701 1.96935 16.9346C1.80369 17.099 1.71062 17.3221 1.71062 17.5546V43.8616Z" fill="#0058CC"/>
<path d="M1.71057 18.609C1.71057 16.6158 3.32639 15 5.3196 15H51.1015C53.0948 15 54.7106 16.6158 54.7106 18.609V46.391C54.7106 48.3842 53.0948 50 51.1015 50H5.3196C3.32639 50 1.71057 48.3842 1.71057 46.391V18.609Z" fill="url(#paint0_linear_1151_9932)"/>
<g filter="url(#filter0_d_1151_9932)">
<path fill-rule="evenodd" clip-rule="evenodd" d="M27.7596 24.5688C28.2256 24.5688 28.6033 24.9214 28.6033 25.3563V33.6918L32.2251 30.3115C32.5545 30.0039 33.0887 30.0039 33.4182 30.3115C33.7477 30.619 33.7477 31.1175 33.4182 31.425L28.3562 36.1496C28.0267 36.4571 27.4925 36.4571 27.1631 36.1496L22.101 31.425C21.7716 31.1175 21.7716 30.619 22.101 30.3115C22.4305 30.0039 22.9647 30.0039 23.2942 30.3115L26.916 33.6918V25.3563C26.916 24.9214 27.2937 24.5688 27.7596 24.5688Z" fill="white"/>
<path d="M19.0981 39.3331V36.3802C19.0981 35.9453 19.4505 35.593 19.8854 35.593C20.3203 35.593 20.6726 35.9453 20.6726 36.3802V39.3331C20.6726 39.9854 21.2016 40.5144 21.8539 40.5144H33.6653C34.3176 40.5144 34.8466 39.9854 34.8466 39.3331V36.3802C34.8466 35.9453 35.199 35.593 35.6339 35.593C36.0688 35.593 36.4211 35.9453 36.4211 36.3802V39.3331C36.4211 40.8551 35.1874 42.0889 33.6653 42.0889H21.8539C20.3318 42.0889 19.0981 40.8551 19.0981 39.3331Z" fill="white"/>
</g>
<defs>
<filter id="filter0_d_1151_9932" x="4.13669" y="9.31233" width="47.2454" height="47.2454" filterUnits="userSpaceOnUse" color-interpolation-filters="sRGB">
<feFlood flood-opacity="0" result="BackgroundImageFix"/>
<feColorMatrix in="SourceAlpha" type="matrix" values="0 0 0 0 0 0 0 0 0 0 0 0 0 0 0 0 0 0 127 0" result="hardAlpha"/>
<feOffset dy="1.47642"/>
<feGaussianBlur stdDeviation="3.69105"/>
<feComposite in2="hardAlpha" operator="out"/>
<feColorMatrix type="matrix" values="0 0 0 0 0 0 0 0 0 0 0 0 0 0 0 0 0 0 0.08 0"/>
<feBlend mode="normal" in2="BackgroundImageFix" result="effect1_dropShadow_1151_9932"/>
<feBlend mode="normal" in="SourceGraphic" in2="effect1_dropShadow_1151_9932" result="shape"/>
</filter>
<linearGradient id="paint0_linear_1151_9932" x1="0.950086" y1="14.4364" x2="55.1565" y2="49.3068" gradientUnits="userSpaceOnUse">
<stop stop-color="#338BFF"/>
<stop offset="1" stop-color="#0058CC"/>
</linearGradient>
</defs>
</svg>
