<svg width="24" height="24" viewBox="0 0 24 24" fill="none" xmlns="http://www.w3.org/2000/svg">
<path d="M12 14.25C13.2426 14.25 14.25 13.2426 14.25 12C14.25 10.7574 13.2426 9.75 12 9.75C10.7574 9.75 9.75 10.7574 9.75 12C9.75 13.2426 10.7574 14.25 12 14.25Z" fill="url(#paint0_linear_32705_82904)"/>
<path d="M19.5 14.25C20.7426 14.25 21.75 13.2426 21.75 12C21.75 10.7574 20.7426 9.75 19.5 9.75C18.2574 9.75 17.25 10.7574 17.25 12C17.25 13.2426 18.2574 14.25 19.5 14.25Z" fill="url(#paint1_linear_32705_82904)"/>
<path d="M4.5 14.25C5.74264 14.25 6.75 13.2426 6.75 12C6.75 10.7574 5.74264 9.75 4.5 9.75C3.25736 9.75 2.25 10.7574 2.25 12C2.25 13.2426 3.25736 14.25 4.5 14.25Z" fill="url(#paint2_linear_32705_82904)"/>
<defs>
<linearGradient id="paint0_linear_32705_82904" x1="1.9702" y1="9.67754" x2="8.39505" y2="21.5048" gradientUnits="userSpaceOnUse">
<stop stop-color="#338BFF"/>
<stop offset="1" stop-color="#0058CC"/>
</linearGradient>
<linearGradient id="paint1_linear_32705_82904" x1="1.9702" y1="9.67754" x2="8.39505" y2="21.5048" gradientUnits="userSpaceOnUse">
<stop stop-color="#338BFF"/>
<stop offset="1" stop-color="#0058CC"/>
</linearGradient>
<linearGradient id="paint2_linear_32705_82904" x1="1.9702" y1="9.67754" x2="8.39505" y2="21.5048" gradientUnits="userSpaceOnUse">
<stop stop-color="#338BFF"/>
<stop offset="1" stop-color="#0058CC"/>
</linearGradient>
</defs>
</svg>
