<svg id="Capa_1" enable-background="new 0 0 791.454 791.454" viewBox="0 0 791.454 791.454" xmlns="http://www.w3.org/2000/svg"><g><g id="Vrstva_x0020_1_5_" clip-rule="evenodd" fill-rule="evenodd"><path d="m202.8 0h264.71l224.217 233.922v454.459c0 56.891-46.182 103.073-103.073 103.073h-385.854c-56.891 0-103.073-46.182-103.073-103.073v-585.308c0-56.891 46.182-103.073 103.073-103.073z" fill="#00733b"/><g fill="#fff"><path d="m467.176 0v231.914h224.552z" opacity=".302"/><path d="m274.081 580.623h105.081v39.824h-105.081zm137.877-203.469h105.416v39.489h-105.416zm-137.877 0h105.081v39.489h-105.081zm137.877 66.93h105.416v39.824h-105.416zm-137.877 0h105.081v39.824h-105.081zm137.877 69.608h105.416v39.824h-105.416zm-137.877 0h105.081v39.824h-105.081zm137.877 66.931h105.416v39.824h-105.416z"/></g></g></g></svg>