<svg width="24" height="24" viewBox="0 0 24 24" fill="var(--fill-color, hsla(240, 20%, 13%, 1))" xmlns="http://www.w3.org/2000/svg">
<path fill-rule="evenodd" clip-rule="evenodd" d="M21.2529 8.25C21.5634 8.25031 21.871 8.31475 22.1553 8.43946C22.4395 8.56416 22.6949 8.74646 22.9053 8.97461C23.1157 9.20279 23.2766 9.47226 23.3779 9.76563C23.4792 10.059 23.5189 10.3703 23.4942 10.6797V10.6924L22.7334 18.415C22.7229 19.1036 22.4425 19.7606 21.9522 20.2441C21.4618 20.7277 20.801 20.9991 20.1123 21H4.38575C3.69698 20.9992 3.03538 20.7278 2.54493 20.2441C2.05466 19.7606 1.77421 19.1036 1.76368 18.415L1.00685 10.6924V10.6797C0.982087 10.3704 1.02179 10.059 1.12306 9.76563C1.22444 9.47218 1.38617 9.20281 1.59669 8.97461C1.8072 8.74645 2.06238 8.5641 2.34669 8.43946C2.63107 8.31481 2.93854 8.25018 3.24904 8.25H21.2529ZM13.0547 10.5147C12.7484 10.2282 12.2516 10.2282 11.9453 10.5147L8.2295 13.9912C7.92328 14.2778 7.92331 14.7427 8.2295 15.0293C8.53579 15.3159 9.03254 15.3158 9.33888 15.0293L11.7158 12.8057V18.5664C11.716 18.9716 12.0669 19.2998 12.5 19.2998C12.9331 19.2998 13.284 18.9716 13.2842 18.5664V12.8057L15.6611 15.0293C15.9675 15.3158 16.4642 15.3159 16.7705 15.0293C17.0767 14.7427 17.0767 14.2778 16.7705 13.9912L13.0547 10.5147Z" fill="var(--fill-color, hsla(240, 20%, 13%, 1))"/>
<path d="M8.68068 3C9.19978 2.99899 9.70814 3.15286 10.1397 3.44141L11.4424 4.31251C11.6272 4.43545 11.8445 4.50072 12.0664 4.50001H19.374C20.8214 4.50012 21.999 5.30261 21.999 6.75001H2.49904V5.62501C2.49978 4.92904 2.77645 4.26166 3.26857 3.76954C3.76068 3.27748 4.42812 3.00075 5.12404 3H8.68068Z" fill="var(--fill-color, hsla(240, 20%, 13%, 1))"/>
</svg>
