<svg width="24" height="24" viewBox="0 0 24 24" fill="none" xmlns="http://www.w3.org/2000/svg">
<path d="M22.4812 5.26873C22.9734 5.76101 23.25 6.42869 23.25 7.12488V7.87488C23.25 7.97434 23.2105 8.06972 23.1402 8.14005C23.0698 8.21037 22.9745 8.24988 22.875 8.24988H1.125C1.02554 8.24988 0.930161 8.21037 0.859835 8.14005C0.789509 8.06972 0.75 7.97434 0.75 7.87488V5.62488C0.75 4.92869 1.02656 4.26101 1.51884 3.76873C2.01113 3.27644 2.67881 2.99988 3.375 2.99988H6.93234C7.45145 2.99887 7.95911 3.15242 8.39062 3.44098L9.69375 4.31238C9.87854 4.43533 10.0957 4.50059 10.3177 4.49988H20.625C21.3212 4.49988 21.9889 4.77644 22.4812 5.26873Z" fill="var(--fill-color, #000000)"/>
<path d="M1.51884 20.231C1.02656 19.7388 0.75 19.0711 0.75 18.3749V10.1249C0.75 10.0254 0.789509 9.93004 0.859835 9.85972C0.930161 9.78939 1.02554 9.74988 1.125 9.74988H22.875C22.9745 9.74988 23.0698 9.78939 23.1402 9.85972C23.2105 9.93004 23.25 10.0254 23.25 10.1249V12H16C14.3431 12 13 13.3431 13 15V20.9999H3.375C2.67881 20.9999 2.01113 20.7233 1.51884 20.231Z" fill="var(--fill-color, #000000)"/>
<path fill-rule="evenodd" clip-rule="evenodd" d="M18.227 14.773C18.227 14.3461 18.5731 14 19 14C19.4269 14 19.773 14.3461 19.773 14.773V17.727H22.727C23.1539 17.727 23.5 18.0731 23.5 18.5C23.5 18.9269 23.1539 19.273 22.727 19.273H19.773V22.227C19.773 22.6539 19.4269 23 19 23C18.5731 23 18.227 22.6539 18.227 22.227V19.273H15.273C14.8461 19.273 14.5 18.9269 14.5 18.5C14.5 18.0731 14.8461 17.727 15.273 17.727H18.227V14.773Z" fill="var(--fill-color, #000000)"/>
</svg>
