<svg viewBox="0 0 56 56" fill="none" xmlns="http://www.w3.org/2000/svg">
<path d="M54.25 18.0292C54.25 16.4752 53.6047 14.9848 52.456 13.886C51.3074 12.7872 49.7495 12.1698 48.125 12.1698H28.024C27.5061 12.1714 27.2258 12.1698 26.5683 11.7513C25.9107 11.3328 24.5345 8.62869 23.5276 7.9846C22.5208 7.3405 21.3362 6.99775 20.125 7.00002C18.9137 7.00228 9.4995 7.00002 7.87505 7.00002C6.2506 7.00002 4.69268 7.61734 3.54402 8.71618C2.39536 9.81502 1.75005 13.127 1.75005 14.681L1.75 41.4668C1.75 41.6888 1.84219 41.9017 2.00628 42.0587C2.17038 42.2157 2.39293 42.3039 2.625 42.3039H53.375C53.607 42.3039 53.8296 42.2157 53.9937 42.0587C54.1578 41.9017 54.2499 41.6888 54.2499 41.4668L54.25 18.0292Z" fill="#0058CC"/>
<path d="M1.75005 43.1407C1.75005 44.6947 2.39536 46.185 3.54402 47.2838C4.69268 48.3827 6.2506 49 7.87505 49H48.125C49.7495 49 51.3074 48.3827 52.456 47.2838C53.6047 46.185 54.25 44.6947 54.25 43.1407V18.0292C54.25 17.8072 54.1578 17.5945 53.9937 17.4376C53.8296 17.2806 53.6071 17.1924 53.375 17.1924H2.62505C2.39299 17.1924 2.17043 17.2806 2.00633 17.4376C1.84224 17.5945 1.75005 17.8074 1.75005 18.0294V43.1407Z" fill="#0058CC"/>
<path d="M1.75 18.1666C1.75 16.5098 3.09315 15.1666 4.75 15.1666H51.25C52.9069 15.1666 54.25 16.5098 54.25 18.1666V46C54.25 47.6568 52.9069 49 51.25 49H4.75C3.09315 49 1.75 47.6568 1.75 46V18.1666Z" fill="url(#paint0_linear_28375_53435)"/>
<defs>
<linearGradient id="paint0_linear_28375_53435" x1="0.996689" y1="14.6219" x2="53.9164" y2="49.5061" gradientUnits="userSpaceOnUse">
<stop stop-color="#4092FF"/>
<stop offset="1" stop-color="#0058CC"/>
</linearGradient>
</defs>
</svg>
