<svg width="24" height="24" viewBox="0 0 24 24" fill="none" xmlns="http://www.w3.org/2000/svg">
<path d="M17.25 0.75H6.75C5.95462 0.750869 5.19206 1.06722 4.62964 1.62964C4.06722 2.19206 3.75087 2.95462 3.75 3.75V20.25C3.75087 21.0454 4.06722 21.8079 4.62964 22.3704C5.19206 22.9328 5.95462 23.2491 6.75 23.25H17.25C18.0454 23.2491 18.8079 22.9328 19.3704 22.3704C19.9328 21.8079 20.2491 21.0454 20.25 20.25V3.75C20.2491 2.95462 19.9328 2.19206 19.3704 1.62964C18.8079 1.06722 18.0454 0.750869 17.25 0.75ZM15.6319 13.3364C15.9867 13.7194 16.1602 14.2345 16.1189 14.7867C16.0378 15.8864 15.1992 16.7812 14.25 16.7812C13.3008 16.7812 12.4608 15.8864 12.3806 14.7867C12.3403 14.2289 12.5123 13.7128 12.8653 13.3336C13.2183 12.9544 13.7063 12.75 14.25 12.75C14.5085 12.7463 14.7648 12.7965 15.0028 12.8975C15.2407 12.9985 15.455 13.1479 15.6319 13.3364ZM9 3.75C9 3.55109 9.07902 3.36032 9.21967 3.21967C9.36032 3.07902 9.55109 3 9.75 3H14.25C14.4489 3 14.6397 3.07902 14.7803 3.21967C14.921 3.36032 15 3.55109 15 3.75C15 3.94891 14.921 4.13968 14.7803 4.28033C14.6397 4.42098 14.4489 4.5 14.25 4.5H9.75C9.55109 4.5 9.36032 4.42098 9.21967 4.28033C9.07902 4.13968 9 3.94891 9 3.75ZM17.8594 20.8045C17.8054 20.867 17.7383 20.917 17.6629 20.9507C17.5875 20.9845 17.5056 21.0013 17.423 21H11.077C10.9944 21.0013 10.9125 20.9845 10.8371 20.9507C10.7617 20.917 10.6946 20.867 10.6406 20.8045C10.5821 20.7344 10.54 20.6519 10.5176 20.5633C10.4952 20.4747 10.4931 20.3822 10.5113 20.2927C10.6636 19.4695 11.1384 18.7781 11.8847 18.293C12.5475 17.8622 13.3875 17.625 14.25 17.625C15.1125 17.625 15.9525 17.8622 16.6153 18.293C17.3616 18.7781 17.8364 19.4695 17.9888 20.2927C18.007 20.3822 18.0048 20.4747 17.9824 20.5633C17.96 20.6519 17.9179 20.7344 17.8594 20.8045Z" fill="url(#paint0_linear_35945_70858)"/>
<defs>
<linearGradient id="paint0_linear_35945_70858" x1="3.51325" y1="0.387712" x2="25.2616" y2="7.16296" gradientUnits="userSpaceOnUse">
<stop stop-color="#338BFF"/>
<stop offset="1" stop-color="#0058CC"/>
</linearGradient>
</defs>
</svg>
