<svg id="Capa_1" enable-background="new 0 0 791.454 791.454" viewBox="0 0 791.454 791.454" xmlns="http://www.w3.org/2000/svg"><g><g id="Vrstva_x0020_1"><path clip-rule="evenodd" d="m202.718 0h264.814l224.164 233.873v454.622c0 56.868-46.092 102.959-102.959 102.959h-386.019c-56.868 0-102.959-46.092-102.959-102.959v-585.536c0-56.867 46.091-102.959 102.959-102.959z" fill="#f60" fill-rule="evenodd"/><g fill="#fff"><path clip-rule="evenodd" d="m467.212 0v231.952h224.484z" fill-rule="evenodd" opacity=".302"/><path d="m287.966 590.55h40.01c1.067 0 2.027-.747 2.241-1.707l11.736-42.144h45.345l12.59 42.144c.32.96 1.28 1.707 2.347 1.707h41.504c1.387 0 2.454-1.067 2.454-2.347 0-.427-.107-.747-.213-1.067l-52.92-170.497c-.32-.96-1.174-1.6-2.241-1.6h-50.68c-1.067 0-2.027.64-2.241 1.6l-52.28 170.817c-.213.747 0 1.494.427 2.134.428.533 1.175.96 1.921.96zm194.823-139.129c13.443 0 23.153-9.069 23.153-21.659-.32-12.91-9.709-21.872-22.939-21.872-6.722 0-12.697 2.347-16.858 6.508-3.841 3.948-5.868 9.496-5.761 15.364-.107 5.761 1.92 11.096 5.868 15.044 4.054 4.268 9.922 6.615 16.537 6.615zm-18.991 10.456c-1.387 0-2.454 1.067-2.454 2.347v123.978c0 1.28 1.067 2.347 2.454 2.347h38.516c1.28 0 2.347-1.067 2.347-2.347v-123.978c0-1.28-1.067-2.347-2.347-2.347zm-83.541 51.213h-31.368l9.282-33.288c1.6-5.975 3.201-13.017 4.801-19.845.32-1.6.64-3.094 1.067-4.695 2.027 8.215 4.268 17.071 6.508 24.646z"/></g></g></g></svg>