<svg id="Capa_1" enable-background="new 0 0 791.454 791.454" viewBox="0 0 791.454 791.454" xmlns="http://www.w3.org/2000/svg"><g><g id="Vrstva_x0020_1_7_"><path clip-rule="evenodd" d="m202.669 0h264.71l224.322 233.811v454.727c0 56.689-46.227 102.916-102.916 102.916h-386.116c-56.932 0-102.916-46.227-102.916-102.916v-585.622c0-56.932 45.984-102.916 102.916-102.916z" fill="#008bf5" fill-rule="evenodd"/><g fill="#fff"><path clip-rule="evenodd" d="m467.136 0v231.865h224.565z" fill-rule="evenodd" opacity=".302"/><path d="m232.351 574.917v-143.79h36.738v143.79zm109.728 1.703c-14.355 0-27.25-4.623-37.955-13.381-10.948-9.002-16.788-19.951-17.761-32.845l31.629-9.245c.73 7.056 3.406 12.895 8.516 17.518 5.109 4.623 10.948 7.056 17.274 7.056 5.353 0 9.732-1.216 12.895-3.406 3.406-2.433 4.866-5.596 4.866-9.245 0-3.163-1.216-5.839-3.893-8.029-2.433-2.19-5.839-4.136-9.975-5.353-4.379-1.46-9.002-2.676-14.111-4.136s-10.219-3.163-15.328-5.353c-4.866-2.19-9.489-4.866-13.868-7.786-4.136-2.92-7.542-7.299-9.975-12.652-2.676-5.353-3.893-11.678-3.893-18.977 0-11.678 4.866-21.654 15.085-29.439 9.975-7.786 22.14-11.922 36.252-11.922 14.111 0 26.52 3.649 36.982 10.462 10.462 6.812 17.031 15.814 19.464 26.763l-32.845 13.868c-1.46-6.326-4.136-11.192-8.272-14.841s-9.245-5.353-15.328-5.353c-4.623 0-8.272.973-10.948 2.676-2.676 1.946-3.893 4.379-3.893 7.542s1.703 5.596 5.353 7.542c3.406 1.703 8.029 3.163 13.138 4.136 5.353.973 10.948 2.433 17.274 4.379 6.082 1.946 11.678 4.623 17.031 7.542 5.353 3.163 9.732 7.786 13.382 14.355 3.406 6.569 5.109 14.355 5.109 23.357 0 13.381-5.109 24.087-15.328 32.359-10.464 8.272-24.089 12.409-40.877 12.408zm142.817 0c-21.654 0-39.658-7.056-53.769-21.167-14.111-13.868-21.167-31.386-21.167-52.309 0-21.167 7.056-38.685 21.167-52.553 14.111-14.111 32.116-21.167 53.769-21.167 21.167 0 38.928 7.056 53.039 21.167 14.111 13.868 21.167 31.386 21.167 52.553 0 20.924-7.056 38.441-21.167 52.309-14.111 14.112-31.871 21.167-53.039 21.167zm-27.736-43.307c7.299 8.029 16.301 11.922 27.493 11.922 10.949 0 20.194-3.893 27.25-11.922s10.705-18.004 10.705-30.169c0-12.408-3.649-22.384-10.705-30.412-7.056-8.029-16.301-11.922-27.25-11.922-11.192 0-20.194 3.893-27.493 11.922-7.056 8.029-10.705 18.004-10.705 30.412 0 12.165 3.65 22.14 10.705 30.169z"/></g></g></g></svg>