<svg id="Capa_1" enable-background="new 0 0 791.454 791.454" viewBox="0 0 791.454 791.454" xmlns="http://www.w3.org/2000/svg"><g><g id="Vrstva_x0020_1_10_"><path clip-rule="evenodd" d="m202.63 0h264.877l224.149 233.97v454.364c0 56.904-45.927 103.12-102.831 103.12h-386.195c-56.615 0-102.831-46.216-102.831-103.12v-585.503c-.001-56.615 46.216-102.831 102.831-102.831z" fill="#e0c600" fill-rule="evenodd"/><g fill="#fff"><path clip-rule="evenodd" d="m467.218 0v231.948h224.438z" fill-rule="evenodd" opacity=".302"/><path d="m289.285 537.553c3.177.578 6.355.867 9.532.867 13.287 0 19.931-6.355 19.931-18.775v-107.453h38.706v109.764c0 17.042-4.333 30.041-12.998 38.995-8.377 8.666-20.22 13.287-35.24 13.287-6.066 0-12.71-.578-19.931-2.022zm150.203 37.262c-16.176 0-30.618-4.911-42.75-14.732-12.132-10.11-18.775-22.242-19.642-36.973l35.24-10.11c.867 7.799 4.044 14.443 9.532 19.642 5.777 5.199 12.132 7.799 19.353 7.799 6.066 0 10.688-1.444 14.443-4.044s5.488-5.777 5.488-10.11c0-3.466-1.444-6.644-4.333-8.954-2.889-2.6-6.644-4.622-11.265-6.066-4.622-1.444-9.821-3.177-15.598-4.622-5.777-1.444-11.554-3.466-17.331-6.066-5.488-2.311-10.688-5.199-15.309-8.666-4.622-3.177-8.377-8.088-11.554-14.154-2.889-6.066-4.333-12.998-4.333-21.086 0-13.287 5.777-24.264 17.042-32.929 11.265-8.954 24.841-13.287 40.728-13.287 15.598 0 29.463 3.755 41.306 11.554 11.554 7.51 18.775 17.62 21.664 30.041l-36.684 15.309c-1.733-6.932-4.622-12.421-9.243-16.465s-10.399-6.066-17.042-6.066c-5.199 0-9.243 1.155-12.421 3.177-2.889 2.022-4.333 4.91-4.333 8.377s2.022 6.066 6.066 8.377c3.755 2.022 8.666 3.755 14.731 4.622 5.777.867 12.132 2.6 19.064 4.91s13.287 5.199 19.353 8.377c5.777 3.466 10.688 8.954 14.731 16.176 4.044 7.221 5.777 15.887 5.777 26.285 0 14.731-5.777 26.863-17.331 36.107-11.553 8.956-26.573 13.577-45.349 13.577z"/></g></g></g></svg>