<svg width="109" height="101" viewBox="0 0 109 101" fill="none" xmlns="http://www.w3.org/2000/svg">
<path fill-rule="evenodd" clip-rule="evenodd" d="M55.4247 0.0403985C65.3643 -0.617657 73.65 6.89244 81.1393 13.1666C88.025 18.9352 93.1464 26.0671 96.2958 34.2804C99.5508 42.7689 100.945 51.6721 99.3192 60.5774C97.4843 70.6302 94.3369 80.8663 86.5221 87.8271C78.1566 95.2786 66.7026 101.512 55.4247 99.6758C44.4329 97.8862 39.0706 86.3427 31.1831 78.8174C24.8001 72.7275 18.3246 67.31 13.7293 59.8952C7.85727 50.4201 -3.35845 40.2708 0.970288 30.0664C5.37379 19.6858 22.0189 22.0092 32.1767 16.4082C40.7237 11.6954 45.5785 0.692272 55.4247 0.0403985Z" fill="#F9F9FB"/>
<path d="M16.6846 22.2836C16.6846 18.1005 20.0756 14.7095 24.2587 14.7095C24.2587 14.7095 43.4134 14.7095 48.3531 14.7095C53.2927 14.7095 56.0369 22.2836 62.0194 22.2836C68.0018 22.2836 85.6198 22.5031 85.6198 22.5031C89.8029 22.5031 93.1939 25.8941 93.1939 30.0772L90.779 53.3483C90.779 57.5314 87.3879 60.9224 83.2049 60.9224H26.2345C22.0515 60.9224 18.6604 57.5314 18.6604 53.3483L16.6846 22.2836Z" fill="url(#paint0_linear_1075_9738)"/>
<path opacity="0.3" fill-rule="evenodd" clip-rule="evenodd" d="M32.3772 27.2066C32.134 27.8013 32 28.4523 32 29.1346V70.926C32 73.7414 34.2823 76.0237 37.0977 76.0237H73.5324C76.3478 76.0237 78.6301 73.7414 78.6301 70.926V29.1346C78.6301 28.4648 78.5009 27.8252 78.2661 27.2393L74.9469 29.2222L70.889 27L78.163 27H39.7778L36.058 29.2222L32.3772 27.2066ZM47.5555 27L43.8357 29.2222L39.7778 27L47.5555 27ZM55.3333 27L51.6135 29.2222L47.5555 27L55.3333 27ZM63.1111 27L59.3913 29.2222L55.3333 27L63.1111 27ZM63.1111 27L67.1692 29.2222L70.889 27L63.1111 27Z" fill="url(#paint1_linear_1075_9738)"/>
<path fill-rule="evenodd" clip-rule="evenodd" d="M30.3772 30.2066C30.134 30.8013 30 31.4523 30 32.1346V73.926C30 76.7414 32.2823 79.0237 35.0977 79.0237H71.5324C74.3478 79.0237 76.6301 76.7414 76.6301 73.926V32.1346C76.6301 31.4648 76.5009 30.8252 76.2661 30.2393L72.9469 32.2222L68.889 30L76.163 30H37.7778L34.058 32.2222L30.3772 30.2066ZM45.5555 30L41.8357 32.2222L37.7778 30L45.5555 30ZM53.3333 30L49.6135 32.2222L45.5555 30L53.3333 30ZM61.1111 30L57.3913 32.2222L53.3333 30L61.1111 30ZM61.1111 30L65.1692 32.2222L68.889 30L61.1111 30Z" fill="url(#paint2_linear_1075_9738)"/>
<g filter="url(#filter0_d_1075_9738)">
<path d="M13.062 49.3959C13.062 44.5111 16.1359 42.0413 22.7769 42.0413C28.4301 42.0413 38.6386 42.0413 48.792 42.0413C55.1586 42.0413 57.4089 33.8086 62.4034 33.8086H89.6811C93.561 33.8086 96.7063 36.9539 96.7063 40.8338L92.3708 77.8262C91.8768 81.9974 89.2255 84.8514 85.3455 84.8514H23.7649C19.8849 84.8514 17.2885 81.723 16.7396 77.8262L13.062 49.3959Z" fill="#C2C2D6"/>
<path d="M62.4038 33.8682H89.6812C93.4082 33.8682 96.4517 36.7949 96.6382 40.4756L96.647 40.834L92.312 77.8193C92.0663 79.8944 91.2842 81.6375 90.0854 82.8613C88.8873 84.0846 87.2696 84.792 85.3452 84.792H23.7651C20.0442 84.792 17.5064 81.8863 16.855 78.1787L16.7983 77.8184L13.1216 49.3955C13.1217 46.9667 13.885 45.1476 15.4653 43.9336C17.0489 42.7172 19.462 42.1006 22.7769 42.1006H48.7915C52.0028 42.1006 54.1735 40.0226 56.1548 37.9658C57.1479 36.9349 58.0929 35.9109 59.1011 35.1426C60.108 34.3752 61.1728 33.8682 62.4038 33.8682Z" stroke="#C2C2D6" stroke-width="0.118551"/>
</g>
<path d="M67.8013 61.6679C67.8013 68.8476 62.1066 75.8452 54.8998 75.8452C47.6929 75.8452 41.8013 68.8476 41.8013 61.6679C41.8013 54.4882 47.6929 49.8452 54.8998 49.8452C62.1066 49.8452 67.8013 54.4882 67.8013 61.6679Z" fill="#F9F9FB" fill-opacity="0.7"/>
<path d="M60.8866 66.5124L55.835 56.5308C55.4769 55.8231 54.5231 55.8231 54.1647 56.5308L49.1134 66.5124C49.0356 66.666 48.9966 66.8385 49.0002 67.0129C49.0038 67.1874 49.0499 67.3578 49.1339 67.5077C49.2179 67.6576 49.3369 67.7817 49.4795 67.868C49.622 67.9543 49.7832 67.9998 49.9471 68H60.0514C60.2155 68 60.3768 67.9547 60.5196 67.8686C60.6623 67.7824 60.7816 67.6583 60.8658 67.5084C60.9499 67.3585 60.9961 67.1879 60.9998 67.0133C61.0034 66.8387 60.9644 66.6661 60.8866 66.5124ZM55 66.4547C54.8828 66.4547 54.7681 66.4177 54.6706 66.3484C54.5732 66.2791 54.4972 66.1805 54.4523 66.0653C54.4074 65.95 54.3957 65.8232 54.4186 65.7009C54.4414 65.5785 54.4979 65.4661 54.5808 65.3779C54.6637 65.2897 54.7694 65.2296 54.8843 65.2053C54.9993 65.1809 55.1185 65.1934 55.2269 65.2412C55.3352 65.2889 55.4278 65.3698 55.4929 65.4735C55.558 65.5772 55.5928 65.6992 55.5928 65.8239C55.5928 65.9067 55.5775 65.9888 55.5477 66.0653C55.5179 66.1418 55.4742 66.2114 55.4192 66.2699C55.3641 66.3285 55.2988 66.375 55.2269 66.4067C55.1549 66.4384 55.0779 66.4547 55 66.4547ZM55.6438 60.1109L55.4737 63.9585C55.4737 64.0923 55.4237 64.2207 55.3348 64.3153C55.2458 64.4099 55.1252 64.4631 54.9994 64.4631C54.8736 64.4631 54.753 64.4099 54.6641 64.3153C54.5751 64.2207 54.5252 64.0923 54.5252 63.9585L54.355 60.1125C54.3512 60.0206 54.3648 59.9288 54.395 59.8426C54.4253 59.7564 54.4715 59.6776 54.5309 59.6108C54.5904 59.544 54.6619 59.4907 54.7412 59.4539C54.8204 59.4172 54.9058 59.3978 54.9923 59.3969H54.9985C55.0856 59.3969 55.1717 59.4156 55.2518 59.4519C55.3318 59.4883 55.4041 59.5415 55.4643 59.6084C55.5245 59.6753 55.5714 59.7545 55.602 59.8412C55.6326 59.9279 55.6465 60.0203 55.6426 60.1128L55.6438 60.1109Z" fill="#CC3347"/>
<defs>
<filter id="filter0_d_1075_9738" x="1.06201" y="25.8086" width="107.645" height="75.0428" filterUnits="userSpaceOnUse" color-interpolation-filters="sRGB">
<feFlood flood-opacity="0" result="BackgroundImageFix"/>
<feColorMatrix in="SourceAlpha" type="matrix" values="0 0 0 0 0 0 0 0 0 0 0 0 0 0 0 0 0 0 127 0" result="hardAlpha"/>
<feOffset dy="4"/>
<feGaussianBlur stdDeviation="6"/>
<feComposite in2="hardAlpha" operator="out"/>
<feColorMatrix type="matrix" values="0 0 0 0 0 0 0 0 0 0 0 0 0 0 0 0 0 0 0.08 0"/>
<feBlend mode="normal" in2="BackgroundImageFix" result="effect1_dropShadow_1075_9738"/>
<feBlend mode="normal" in="SourceGraphic" in2="effect1_dropShadow_1075_9738" result="shape"/>
</filter>
<linearGradient id="paint0_linear_1075_9738" x1="-15.625" y1="-0.624999" x2="79.6158" y2="86.5642" gradientUnits="userSpaceOnUse">
<stop stop-color="#8585AD"/>
<stop offset="1" stop-color="#D1D1E0"/>
</linearGradient>
<linearGradient id="paint1_linear_1075_9738" x1="55.315" y1="24.0369" x2="55.315" y2="76.0237" gradientUnits="userSpaceOnUse">
<stop stop-color="#EAEAF1"/>
<stop offset="1" stop-color="#C2C2D6"/>
</linearGradient>
<linearGradient id="paint2_linear_1075_9738" x1="53.315" y1="27.0369" x2="53.315" y2="79.0237" gradientUnits="userSpaceOnUse">
<stop stop-color="#EAEAF1"/>
<stop offset="1" stop-color="#C2C2D6"/>
</linearGradient>
</defs>
</svg>
