<svg width="400" height="164" viewBox="0 0 400 164" fill="none" xmlns="http://www.w3.org/2000/svg">
<g clip-path="url(#clip0_39033_73857)">
<rect width="400" height="164" fill="#F9FAFE"/>
<g filter="url(#filter0_d_39033_73857)">
<path d="M60 45.1962C60 40.6696 63.6696 37 68.1962 37H340.644C345.17 37 348.84 40.6696 348.84 45.1962V237.752C348.84 242.278 345.17 245.948 340.644 245.948H68.1962C63.6696 245.948 60 242.278 60 237.752V45.1962Z" fill="white"/>
<g clip-path="url(#clip1_39033_73857)">
<rect width="275.954" height="196.234" transform="translate(66.1543 43.1484)" fill="white"/>
<path d="M172.32 78.8887C173.643 78.8889 174.716 79.9614 174.716 81.2842V104.28C174.716 105.603 173.643 106.676 172.32 106.676H129.011C127.688 106.676 126.615 105.603 126.615 104.28V81.2842C126.615 79.9612 127.688 78.8887 129.011 78.8887H172.32Z" stroke="#C2C2D6" stroke-width="0.191634"/>
<g clip-path="url(#clip2_39033_73857)">
<path d="M127.477 81.2831C127.477 80.4364 128.163 79.75 129.01 79.75H172.319C173.166 79.75 173.852 80.4364 173.852 81.2831V104.279C173.852 105.126 173.166 105.812 172.319 105.812H129.01C128.163 105.812 127.477 105.126 127.477 104.279V81.2831Z" fill="white"/>
<path d="M127.477 81.2831C127.477 80.4364 128.163 79.75 129.01 79.75H172.319C173.166 79.75 173.852 80.4364 173.852 81.2831V96.8055C173.852 97.6522 173.166 98.3385 172.319 98.3385H129.01C128.163 98.3385 127.477 97.6522 127.477 96.8055V81.2831Z" fill="#F9F9FB"/>
<rect x="130.543" y="84.3516" width="29.7033" height="4.02432" rx="1.53308" fill="#E0E0EB"/>
<rect x="130.543" y="91.1484" width="9.39009" height="2.10798" rx="1.05399" fill="#C2C2D6"/>
<g clip-path="url(#clip3_39033_73857)">
<path d="M144.009 92.0303C143.991 92.0262 143.974 92.017 143.961 92.0038C143.949 91.9907 143.94 91.9741 143.936 91.9561C143.89 91.7364 143.79 91.5479 143.641 91.4051C143.469 91.2394 143.239 91.1473 143 91.1484C142.787 91.1484 142.591 91.2185 142.433 91.3509C142.325 91.4422 142.239 91.5569 142.181 91.6862C142.175 91.7001 142.166 91.7123 142.154 91.7218C142.142 91.7314 142.128 91.7379 142.113 91.741C141.952 91.7747 141.807 91.8449 141.699 91.9438C141.547 92.0819 141.467 92.2708 141.467 92.4899C141.467 92.7055 141.553 92.9024 141.709 93.0444C141.86 93.1811 142.063 93.2564 142.281 93.2564H143.838C144.032 93.2564 144.199 93.2051 144.321 93.1081C144.46 92.9976 144.533 92.8336 144.533 92.6336C144.533 92.2889 144.281 92.0912 144.009 92.0303ZM143.438 91.9767L142.793 92.7433C142.784 92.7538 142.773 92.7622 142.761 92.7681C142.748 92.774 142.735 92.7771 142.721 92.7773H142.719C142.706 92.7773 142.693 92.7745 142.68 92.7691C142.668 92.7636 142.657 92.7557 142.648 92.7457L142.373 92.4411C142.339 92.4028 142.339 92.3433 142.375 92.3069C142.384 92.2978 142.395 92.2906 142.407 92.2858C142.419 92.281 142.432 92.2788 142.445 92.2791C142.458 92.2795 142.471 92.2824 142.483 92.2879C142.495 92.2933 142.505 92.3011 142.514 92.3107L142.717 92.5358L143.292 91.8531C143.3 91.8434 143.31 91.8355 143.321 91.8297C143.332 91.8239 143.344 91.8204 143.357 91.8193C143.369 91.8182 143.382 91.8196 143.394 91.8235C143.406 91.8273 143.417 91.8334 143.427 91.8415C143.436 91.8496 143.444 91.8595 143.45 91.8707C143.456 91.8819 143.46 91.8941 143.461 91.9066C143.462 91.9192 143.46 91.9318 143.456 91.9438C143.453 91.9558 143.447 91.9669 143.438 91.9765L143.438 91.9767Z" fill="#006EFF"/>
</g>
<path d="M128.627 102.071C128.627 101.065 129.442 100.25 130.447 100.25H139.263C140.268 100.25 141.083 101.065 141.083 102.071V102.071C141.083 103.076 140.268 103.891 139.263 103.891H130.447C129.442 103.891 128.627 103.076 128.627 102.071V102.071Z" fill="white"/>
<rect x="130.16" y="101.016" width="9.39009" height="2.10798" rx="1.05399" fill="#E0E0EB"/>
<rect x="156.605" y="100.445" width="3.64105" height="3.25778" rx="1.53308" fill="#E0E0EB"/>
<rect x="162.547" y="100.445" width="3.83269" height="3.25778" rx="1.53308" fill="#E0E0EB"/>
<rect x="168.678" y="100.445" width="3.64105" height="3.25778" rx="1.53308" fill="#E0E0EB"/>
</g>
<path d="M223.295 78.8887C224.618 78.8889 225.69 79.9614 225.69 81.2842V104.28C225.69 105.603 224.618 106.676 223.295 106.676H179.985C178.662 106.676 177.59 105.603 177.59 104.28V81.2842C177.59 79.9612 178.662 78.8887 179.985 78.8887H223.295Z" stroke="#C2C2D6" stroke-width="0.191634"/>
<g clip-path="url(#clip4_39033_73857)">
<path d="M178.451 81.2831C178.451 80.4364 179.138 79.75 179.984 79.75H223.294C224.14 79.75 224.827 80.4364 224.827 81.2831V104.279C224.827 105.126 224.14 105.812 223.294 105.812H179.984C179.138 105.812 178.451 105.126 178.451 104.279V81.2831Z" fill="white"/>
<path d="M178.451 81.2831C178.451 80.4364 179.138 79.75 179.984 79.75H223.294C224.14 79.75 224.827 80.4364 224.827 81.2831V96.8055C224.827 97.6522 224.14 98.3385 223.294 98.3385H179.984C179.138 98.3385 178.451 97.6522 178.451 96.8055V81.2831Z" fill="#F9F9FB"/>
<rect x="181.518" y="84.3516" width="29.7033" height="4.02432" rx="1.53308" fill="#E0E0EB"/>
<rect x="181.518" y="91.1484" width="9.39009" height="2.10798" rx="1.05399" fill="#C2C2D6"/>
<g clip-path="url(#clip5_39033_73857)">
<path d="M194.983 92.0303C194.965 92.0262 194.949 92.017 194.936 92.0038C194.923 91.9907 194.914 91.9741 194.911 91.9561C194.865 91.7364 194.764 91.5479 194.616 91.4051C194.444 91.2394 194.214 91.1473 193.974 91.1484C193.762 91.1484 193.566 91.2185 193.407 91.3509C193.299 91.4422 193.213 91.5569 193.156 91.6862C193.15 91.7001 193.14 91.7123 193.129 91.7218C193.117 91.7314 193.103 91.7379 193.088 91.741C192.926 91.7747 192.782 91.8449 192.674 91.9438C192.522 92.0819 192.441 92.2708 192.441 92.4899C192.441 92.7055 192.528 92.9024 192.684 93.0444C192.834 93.1811 193.038 93.2564 193.256 93.2564H194.813C195.007 93.2564 195.174 93.2051 195.296 93.1081C195.434 92.9976 195.508 92.8336 195.508 92.6336C195.508 92.2889 195.256 92.0912 194.983 92.0303ZM194.413 91.9767L193.768 92.7433C193.759 92.7538 193.748 92.7622 193.735 92.7681C193.723 92.774 193.709 92.7771 193.696 92.7773H193.694C193.681 92.7773 193.667 92.7745 193.655 92.7691C193.643 92.7636 193.632 92.7557 193.623 92.7457L193.348 92.4411C193.313 92.4028 193.313 92.3433 193.35 92.3069C193.359 92.2978 193.37 92.2906 193.382 92.2858C193.394 92.281 193.407 92.2788 193.42 92.2791C193.433 92.2795 193.446 92.2824 193.457 92.2879C193.469 92.2933 193.48 92.3011 193.489 92.3107L193.692 92.5358L194.266 91.8531C194.275 91.8434 194.284 91.8355 194.296 91.8297C194.307 91.8239 194.319 91.8204 194.332 91.8193C194.344 91.8182 194.357 91.8196 194.369 91.8235C194.381 91.8273 194.392 91.8334 194.401 91.8415C194.411 91.8496 194.419 91.8595 194.425 91.8707C194.431 91.8819 194.434 91.8941 194.435 91.9066C194.436 91.9192 194.435 91.9318 194.431 91.9438C194.427 91.9558 194.421 91.9669 194.413 91.9765L194.413 91.9767Z" fill="#006EFF"/>
</g>
<path d="M179.602 102.071C179.602 101.065 180.417 100.25 181.422 100.25H190.237C191.243 100.25 192.058 101.065 192.058 102.071V102.071C192.058 103.076 191.243 103.891 190.237 103.891H181.422C180.417 103.891 179.602 103.076 179.602 102.071V102.071Z" fill="white"/>
<rect x="181.135" y="101.016" width="9.39009" height="2.10798" rx="1.05399" fill="#E0E0EB"/>
<rect x="207.58" y="100.445" width="3.64105" height="3.25778" rx="1.53308" fill="#E0E0EB"/>
<rect x="213.521" y="100.445" width="3.83269" height="3.25778" rx="1.53308" fill="#E0E0EB"/>
<rect x="219.652" y="100.445" width="3.64105" height="3.25778" rx="1.53308" fill="#E0E0EB"/>
</g>
<path d="M274.27 78.8887C275.592 78.8889 276.665 79.9614 276.665 81.2842V104.28C276.665 105.603 275.592 106.676 274.27 106.676H230.96C229.637 106.676 228.565 105.603 228.564 104.28V81.2842C228.564 79.9612 229.637 78.8887 230.96 78.8887H274.27Z" stroke="#C2C2D6" stroke-width="0.191634"/>
<g clip-path="url(#clip6_39033_73857)">
<path d="M229.426 81.2831C229.426 80.4364 230.112 79.75 230.959 79.75H274.268C275.115 79.75 275.801 80.4364 275.801 81.2831V104.279C275.801 105.126 275.115 105.812 274.268 105.812H230.959C230.112 105.812 229.426 105.126 229.426 104.279V81.2831Z" fill="white"/>
<path d="M229.426 81.2831C229.426 80.4364 230.112 79.75 230.959 79.75H274.268C275.115 79.75 275.801 80.4364 275.801 81.2831V96.8055C275.801 97.6522 275.115 98.3385 274.268 98.3385H230.959C230.112 98.3385 229.426 97.6522 229.426 96.8055V81.2831Z" fill="#F9F9FB"/>
<rect x="232.492" y="84.3516" width="29.7033" height="4.02432" rx="1.53308" fill="#E0E0EB"/>
<rect x="232.492" y="91.1484" width="9.39009" height="2.10798" rx="1.05399" fill="#C2C2D6"/>
<g clip-path="url(#clip7_39033_73857)">
<path d="M245.958 92.0303C245.94 92.0262 245.923 92.017 245.911 92.0038C245.898 91.9907 245.889 91.9741 245.885 91.9561C245.839 91.7364 245.739 91.5479 245.591 91.4051C245.418 91.2394 245.188 91.1473 244.949 91.1484C244.736 91.1484 244.54 91.2185 244.382 91.3509C244.274 91.4422 244.188 91.5569 244.131 91.6862C244.124 91.7001 244.115 91.7123 244.103 91.7218C244.091 91.7314 244.077 91.7379 244.062 91.741C243.901 91.7747 243.757 91.8449 243.648 91.9438C243.496 92.0819 243.416 92.2708 243.416 92.4899C243.416 92.7055 243.502 92.9024 243.658 93.0444C243.809 93.1811 244.012 93.2564 244.23 93.2564H245.787C245.981 93.2564 246.148 93.2051 246.27 93.1081C246.409 92.9976 246.482 92.8336 246.482 92.6336C246.482 92.2889 246.231 92.0912 245.958 92.0303ZM245.388 91.9767L244.742 92.7433C244.733 92.7538 244.722 92.7622 244.71 92.7681C244.697 92.774 244.684 92.7771 244.67 92.7773H244.669C244.655 92.7773 244.642 92.7745 244.63 92.7691C244.617 92.7636 244.606 92.7557 244.598 92.7457L244.323 92.4411C244.288 92.4028 244.288 92.3433 244.324 92.3069C244.334 92.2978 244.345 92.2906 244.357 92.2858C244.369 92.281 244.382 92.2788 244.395 92.2791C244.408 92.2795 244.42 92.2824 244.432 92.2879C244.444 92.2933 244.454 92.3011 244.463 92.3107L244.666 92.5358L245.241 91.8531C245.249 91.8434 245.259 91.8355 245.27 91.8297C245.281 91.8239 245.294 91.8204 245.306 91.8193C245.319 91.8182 245.331 91.8196 245.343 91.8235C245.355 91.8273 245.366 91.8334 245.376 91.8415C245.386 91.8496 245.394 91.8595 245.399 91.8707C245.405 91.8819 245.409 91.8941 245.41 91.9066C245.411 91.9192 245.409 91.9318 245.406 91.9438C245.402 91.9558 245.396 91.9669 245.388 91.9765L245.388 91.9767Z" fill="#006EFF"/>
</g>
<path d="M230.576 102.071C230.576 101.065 231.391 100.25 232.397 100.25H241.212C242.217 100.25 243.032 101.065 243.032 102.071V102.071C243.032 103.076 242.217 103.891 241.212 103.891H232.397C231.391 103.891 230.576 103.076 230.576 102.071V102.071Z" fill="white"/>
<rect x="232.109" y="101.016" width="9.39009" height="2.10798" rx="1.05399" fill="#E0E0EB"/>
<rect x="258.555" y="100.445" width="3.64105" height="3.25778" rx="1.53308" fill="#E0E0EB"/>
<rect x="264.496" y="100.445" width="3.83269" height="3.25778" rx="1.53308" fill="#E0E0EB"/>
<rect x="270.627" y="100.445" width="3.64105" height="3.25778" rx="1.53308" fill="#E0E0EB"/>
</g>
<rect width="221.146" height="26.0623" transform="translate(120.961 43.1484)" fill="white"/>
<path d="M123.26 61.159C123.26 59.8889 124.289 58.8594 125.559 58.8594H337.507C338.777 58.8594 339.807 59.8889 339.807 61.159V66.908C339.807 68.1781 338.777 69.2076 337.507 69.2076H125.559C124.289 69.2076 123.26 68.1781 123.26 66.908V61.159Z" fill="#F9F9FB"/>
<rect x="127.092" y="62.3125" width="3.44942" height="3.44942" rx="1.53308" fill="#C2C2D6"/>
<rect x="131.691" y="62.8906" width="29.7033" height="2.29961" rx="1.14981" fill="#C2C2D6"/>
<rect x="239.965" y="62.8828" width="18.0136" height="2.29961" rx="1.14981" fill="#E0E0EB"/>
<path d="M260.901 66.3336C260.901 66.413 260.966 66.4773 261.045 66.4773C261.124 66.4773 261.189 66.413 261.189 66.3336L261.045 66.3336L260.901 66.3336ZM261.045 61.7344L260.901 61.7344L260.901 66.3336L261.045 66.3336L261.189 66.3336L261.189 61.7344L261.045 61.7344Z" fill="#E0E0EB"/>
<path d="M264.111 63.4559C264.111 62.1858 265.141 61.1562 266.411 61.1562H295.731C297.001 61.1562 298.031 62.1858 298.031 63.4559V64.6057C298.031 65.8757 297.001 66.9053 295.731 66.9053H266.411C265.141 66.9053 264.111 65.8757 264.111 64.6057V63.4559Z" fill="#EAEAF1"/>
<g clip-path="url(#clip8_39033_73857)">
<path fill-rule="evenodd" clip-rule="evenodd" d="M303.97 62.9766C304.023 62.9766 304.065 63.0195 304.065 63.0724V64.7574L304.573 64.2503C304.61 64.2128 304.671 64.2128 304.708 64.2503C304.746 64.2877 304.746 64.3483 304.708 64.3858L304.037 65.0565C304 65.0939 303.939 65.0939 303.902 65.0565L303.231 64.3858C303.194 64.3483 303.194 64.2877 303.231 64.2503C303.269 64.2128 303.329 64.2128 303.367 64.2503L303.874 64.7574V63.0724C303.874 63.0195 303.917 62.9766 303.97 62.9766ZM305.052 63.0046C305.089 62.9672 305.15 62.9672 305.187 63.0046L305.858 63.6753C305.895 63.7128 305.895 63.7734 305.858 63.8109C305.821 63.8483 305.76 63.8483 305.722 63.8109L305.215 63.3037V64.9887C305.215 65.0416 305.172 65.0845 305.119 65.0845C305.067 65.0845 305.024 65.0416 305.024 64.9887V63.3037L304.517 63.8109C304.479 63.8483 304.418 63.8483 304.381 63.8109C304.344 63.7734 304.344 63.7128 304.381 63.6753L305.052 63.0046Z" fill="#A3A3C2"/>
</g>
<rect x="307.611" y="62.8828" width="14.9475" height="2.29961" rx="1.14981" fill="#C2C2D6"/>
<g clip-path="url(#clip9_39033_73857)">
<path d="M329.913 63.9409H329.098C329.041 63.9409 328.986 63.9182 328.946 63.8778C328.906 63.8374 328.883 63.7825 328.883 63.7253V62.9109C328.883 62.8537 328.906 62.7989 328.946 62.7585C328.986 62.718 329.041 62.6953 329.098 62.6953H329.913C329.97 62.6953 330.025 62.718 330.065 62.7585C330.106 62.7989 330.128 62.8537 330.128 62.9109V63.7253C330.128 63.7825 330.106 63.8374 330.065 63.8778C330.025 63.9182 329.97 63.9409 329.913 63.9409Z" fill="#A3A3C2"/>
<path d="M331.35 63.9409H330.536C330.478 63.9409 330.424 63.9182 330.383 63.8778C330.343 63.8374 330.32 63.7825 330.32 63.7253V62.9109C330.32 62.8537 330.343 62.7989 330.383 62.7585C330.424 62.718 330.478 62.6953 330.536 62.6953H331.35C331.407 62.6953 331.462 62.718 331.503 62.7585C331.543 62.7989 331.566 62.8537 331.566 62.9109V63.7253C331.566 63.7825 331.543 63.8374 331.503 63.8778C331.462 63.9182 331.407 63.9409 331.35 63.9409Z" fill="#A3A3C2"/>
<path d="M329.913 65.3782H329.098C329.041 65.3782 328.986 65.3555 328.946 65.315C328.906 65.2746 328.883 65.2198 328.883 65.1626V64.3482C328.883 64.291 328.906 64.2361 328.946 64.1957C328.986 64.1553 329.041 64.1326 329.098 64.1326H329.913C329.97 64.1326 330.025 64.1553 330.065 64.1957C330.106 64.2361 330.128 64.291 330.128 64.3482V65.1626C330.128 65.2198 330.106 65.2746 330.065 65.315C330.025 65.3555 329.97 65.3782 329.913 65.3782Z" fill="#A3A3C2"/>
<path d="M331.35 65.3782H330.536C330.478 65.3782 330.424 65.3555 330.383 65.315C330.343 65.2746 330.32 65.2198 330.32 65.1626V64.3482C330.32 64.291 330.343 64.2361 330.383 64.1957C330.424 64.1553 330.478 64.1326 330.536 64.1326H331.35C331.407 64.1326 331.462 64.1553 331.503 64.1957C331.543 64.2361 331.566 64.291 331.566 64.3482V65.1626C331.566 65.2198 331.543 65.2746 331.503 65.315C331.462 65.3555 331.407 65.3782 331.35 65.3782Z" fill="#A3A3C2"/>
</g>
<g clip-path="url(#clip10_39033_73857)">
<path fill-rule="evenodd" clip-rule="evenodd" d="M333.717 63.6331C333.759 63.591 333.827 63.591 333.87 63.6331L334.44 64.2037L335.011 63.6331C335.053 63.591 335.121 63.591 335.163 63.6331C335.205 63.6752 335.205 63.7435 335.163 63.7856L334.516 64.4323C334.474 64.4744 334.406 64.4744 334.364 64.4323L333.717 63.7856C333.675 63.7435 333.675 63.6752 333.717 63.6331Z" fill="#8585AD"/>
</g>
<rect width="216.547" height="15.714" transform="translate(123.26 43.1484)" fill="white"/>
<g clip-path="url(#clip11_39033_73857)">
<path d="M128.854 50.7324C128.844 50.7228 128.83 50.7174 128.816 50.7174C128.802 50.7174 128.789 50.7228 128.779 50.7324L127.539 51.9172C127.534 51.9223 127.529 51.9283 127.526 51.935C127.524 51.9417 127.522 51.949 127.522 51.9562L127.522 53.0683C127.522 53.1255 127.545 53.1803 127.585 53.2207C127.626 53.2612 127.68 53.2839 127.738 53.2839H128.385C128.414 53.2839 128.441 53.2725 128.461 53.2523C128.481 53.2321 128.493 53.2047 128.493 53.1761V52.2598C128.493 52.2455 128.498 52.2318 128.509 52.2217C128.519 52.2116 128.532 52.2059 128.547 52.2059H129.086C129.1 52.2059 129.114 52.2116 129.124 52.2217C129.134 52.2318 129.14 52.2455 129.14 52.2598V53.1761C129.14 53.2047 129.151 53.2321 129.171 53.2523C129.191 53.2725 129.219 53.2839 129.247 53.2839H129.894C129.952 53.2839 130.006 53.2612 130.047 53.2207C130.087 53.1803 130.11 53.1255 130.11 53.0683V51.9562C130.11 51.949 130.109 51.9417 130.106 51.935C130.103 51.9283 130.099 51.9223 130.093 51.9172L128.854 50.7324Z" fill="#99C5FF"/>
<path d="M130.399 51.6949L129.895 51.2128V50.4812C129.895 50.4526 129.883 50.4252 129.863 50.405C129.843 50.3848 129.816 50.3734 129.787 50.3734H129.464C129.435 50.3734 129.408 50.3848 129.387 50.405C129.367 50.4252 129.356 50.4526 129.356 50.4812V50.6968L128.966 50.3237C128.929 50.2868 128.875 50.2656 128.816 50.2656C128.758 50.2656 128.703 50.2868 128.667 50.3238L127.234 51.6948C127.192 51.7352 127.187 51.8017 127.225 51.8455C127.235 51.8565 127.246 51.8655 127.259 51.8719C127.273 51.8783 127.287 51.8819 127.302 51.8826C127.316 51.8833 127.331 51.8809 127.344 51.8758C127.358 51.8706 127.371 51.8628 127.381 51.8526L128.779 50.5168C128.789 50.5072 128.802 50.5018 128.816 50.5018C128.83 50.5018 128.844 50.5072 128.854 50.5168L130.252 51.8526C130.272 51.8724 130.3 51.8832 130.328 51.8826C130.357 51.882 130.384 51.8702 130.404 51.8497C130.445 51.8068 130.442 51.7361 130.399 51.6949Z" fill="#99C5FF"/>
</g>
<rect x="132.076" y="50.625" width="29.7033" height="2.29961" rx="1.14981" fill="#CCE2FF"/>
<g clip-path="url(#clip12_39033_73857)">
<path d="M296.862 52.4766C296.848 52.4602 296.835 52.4437 296.822 52.4278C296.64 52.2087 296.531 52.0764 296.531 51.4562C296.531 51.135 296.454 50.8715 296.303 50.6739C296.191 50.5279 296.04 50.4172 295.841 50.3353C295.838 50.3339 295.836 50.332 295.834 50.3298C295.763 50.0902 295.567 49.9297 295.346 49.9297C295.125 49.9297 294.929 50.0902 294.858 50.3295C294.856 50.3317 294.854 50.3335 294.851 50.3349C294.387 50.526 294.161 50.8927 294.161 51.4559C294.161 52.0764 294.052 52.2087 293.871 52.4276C293.857 52.4435 293.844 52.4596 293.83 52.4764C293.795 52.519 293.773 52.5708 293.766 52.6257C293.759 52.6806 293.768 52.7363 293.792 52.7862C293.843 52.8932 293.951 52.9597 294.075 52.9597H296.618C296.741 52.9597 296.849 52.8933 296.9 52.7867C296.924 52.7368 296.933 52.6811 296.926 52.6261C296.919 52.5712 296.897 52.5193 296.862 52.4766Z" fill="#8585AD"/>
<path d="M295.346 53.6186C295.465 53.6186 295.582 53.5863 295.684 53.5252C295.786 53.4641 295.87 53.3765 295.926 53.2717C295.929 53.2667 295.93 53.2611 295.93 53.2554C295.93 53.2497 295.928 53.2442 295.925 53.2393C295.922 53.2345 295.918 53.2304 295.913 53.2277C295.908 53.2249 295.903 53.2234 295.897 53.2234H294.795C294.79 53.2234 294.784 53.2248 294.779 53.2276C294.774 53.2304 294.77 53.2344 294.767 53.2393C294.764 53.2442 294.762 53.2497 294.762 53.2554C294.762 53.2611 294.763 53.2667 294.766 53.2717C294.822 53.3765 294.906 53.4641 295.008 53.5252C295.11 53.5862 295.227 53.6185 295.346 53.6186Z" fill="#8585AD"/>
</g>
<line x1="304.067" y1="49.4766" x2="304.067" y2="54.0758" stroke="#E0E0EB" stroke-width="0.191634"/>
<rect x="316.428" y="50.625" width="19.7383" height="2.29961" rx="1.14981" fill="#A3A3C2"/>
<g clip-path="url(#clip13_39033_73857)">
<path d="M312.21 49.2891C310.836 49.2891 309.719 50.4067 309.719 51.7803C309.719 53.154 310.836 54.2716 312.21 54.2716C313.584 54.2716 314.701 53.154 314.701 51.7803C314.701 50.4067 313.584 49.2891 312.21 49.2891ZM311.609 50.6882C311.76 50.5274 311.974 50.4389 312.21 50.4389C312.446 50.4389 312.658 50.528 312.81 50.6897C312.965 50.8535 313.04 51.0737 313.022 51.3103C312.986 51.7803 312.622 52.1636 312.21 52.1636C311.798 52.1636 311.433 51.7803 311.398 51.3102C311.38 51.0716 311.455 50.8508 311.609 50.6882ZM312.21 53.8883C311.929 53.8885 311.65 53.8321 311.391 53.7227C311.132 53.6132 310.897 53.4527 310.701 53.2509C310.813 53.0907 310.956 52.9546 311.122 52.8503C311.427 52.6546 311.813 52.5468 312.21 52.5468C312.607 52.5468 312.993 52.6546 313.298 52.8503C313.464 52.9545 313.607 53.0907 313.719 53.2509C313.523 53.4527 313.288 53.6132 313.029 53.7227C312.77 53.8322 312.491 53.8885 312.21 53.8883V53.8883Z" fill="url(#paint0_linear_39033_73857)"/>
</g>
<g clip-path="url(#clip14_39033_73857)">
<path d="M314.126 54.6341C313.611 54.6341 313.191 54.215 313.191 53.6998C313.191 53.1847 313.611 52.7656 314.126 52.7656C314.641 52.7656 315.06 53.1847 315.06 53.6998C315.06 54.215 314.641 54.6341 314.126 54.6341Z" fill="#2EB865"/>
</g>
<rect x="313.168" y="52.7385" width="1.91634" height="1.91634" rx="0.958172" stroke="white" stroke-width="0.383269"/>
<g clip-path="url(#clip15_39033_73857)">
<path d="M66.1543 43.1484H118.662C119.932 43.1484 120.962 44.178 120.962 45.4481V237.082C120.962 238.352 119.932 239.382 118.662 239.382H66.1543V43.1484Z" fill="#002C66"/>
<path d="M70.7539 52.3456C70.7539 51.4989 71.4403 50.8125 72.287 50.8125H74.0117C74.8584 50.8125 75.5448 51.4989 75.5448 52.3456V54.0703C75.5448 54.917 74.8584 55.6034 74.0117 55.6034H72.287C71.4403 55.6034 70.7539 54.917 70.7539 54.0703V52.3456Z" fill="#FCFCFC"/>
<rect x="72.0957" y="52.1562" width="2.10798" height="2.10798" rx="1.05399" fill="#CCE2FF"/>
<rect x="77.8438" y="51.7734" width="29.7033" height="2.87452" rx="1.43726" fill="#E0E0EB"/>
<g clip-path="url(#clip16_39033_73857)">
<path fill-rule="evenodd" clip-rule="evenodd" d="M114.237 53.5796C114.28 53.6233 114.28 53.6941 114.237 53.7377L113.566 54.4084C113.522 54.4521 113.452 54.4521 113.408 54.4084L112.737 53.7377C112.694 53.6941 112.694 53.6233 112.737 53.5796C112.781 53.536 112.852 53.536 112.895 53.5796L113.487 54.1713L114.079 53.5796C114.122 53.536 114.193 53.536 114.237 53.5796Z" fill="#FCFCFC"/>
<path fill-rule="evenodd" clip-rule="evenodd" d="M112.738 52.8423C112.694 52.7986 112.694 52.7278 112.738 52.6842L113.409 52.0134C113.452 51.9698 113.523 51.9698 113.567 52.0134L114.237 52.6842C114.281 52.7278 114.281 52.7986 114.237 52.8423C114.194 52.8859 114.123 52.8859 114.079 52.8423L113.488 52.2506L112.896 52.8423C112.852 52.8859 112.781 52.8859 112.738 52.8423Z" fill="#FCFCFC"/>
</g>
</g>
<rect opacity="0.25" x="66.2344" y="43.2344" width="275.576" height="196.395" fill="black"/>
</g>
<g filter="url(#filter1_d_39033_73857)">
<rect x="187" y="67" width="42" height="73.5" rx="15.1667" fill="#F9FAFE" shape-rendering="crispEdges"/>
<path fill-rule="evenodd" clip-rule="evenodd" d="M196.333 71.5938C193.756 71.5938 191.667 73.6504 191.667 76.1875V131.312C191.667 133.85 193.756 135.906 196.333 135.906H219.667C222.244 135.906 224.333 133.85 224.333 131.312V76.1875C224.333 73.6504 222.244 71.5938 219.667 71.5938H217.185C216.978 72.3816 216.561 73.1084 215.966 73.6936C215.091 74.5551 213.904 75.0391 212.667 75.0391H203.333C202.096 75.0391 200.909 74.5551 200.034 73.6936C199.439 73.1084 199.022 72.3816 198.815 71.5938H196.333ZM196.333 67H219.667C224.821 67 229 71.1134 229 76.1875V131.312C229 136.387 224.821 140.5 219.667 140.5H196.333C191.179 140.5 187 136.387 187 131.312V76.1875C187 71.1134 191.179 67 196.333 67Z" fill="#51517B"/>
<path fill-rule="evenodd" clip-rule="evenodd" d="M208 97C205.791 97 204 98.8648 204 101.165V103.207C202.895 103.207 202 104.133 202 105.276V109.931C202 111.074 202.895 112 204 112H212C213.105 112 214 111.074 214 109.931V105.276C214 104.133 213.105 103.207 212 103.207V101.165C212 98.8648 210.209 97 208 97ZM210.444 103.207V101.165C210.444 99.8872 209.227 98.6198 208 98.6198C206.773 98.6198 205.556 99.8872 205.556 101.165V103.207H210.444Z" fill="#51517B"/>
</g>
</g>
</g>
<defs>
<filter id="filter0_d_39033_73857" x="55.7623" y="33.6098" width="297.315" height="217.421" filterUnits="userSpaceOnUse" color-interpolation-filters="sRGB">
<feFlood flood-opacity="0" result="BackgroundImageFix"/>
<feColorMatrix in="SourceAlpha" type="matrix" values="0 0 0 0 0 0 0 0 0 0 0 0 0 0 0 0 0 0 127 0" result="hardAlpha"/>
<feOffset dy="0.847543"/>
<feGaussianBlur stdDeviation="2.11886"/>
<feComposite in2="hardAlpha" operator="out"/>
<feColorMatrix type="matrix" values="0 0 0 0 0 0 0 0 0 0 0 0 0 0 0 0 0 0 0.15 0"/>
<feBlend mode="normal" in2="BackgroundImageFix" result="effect1_dropShadow_39033_73857"/>
<feBlend mode="normal" in="SourceGraphic" in2="effect1_dropShadow_39033_73857" result="shape"/>
</filter>
<filter id="filter1_d_39033_73857" x="163.667" y="43.6667" width="88.6667" height="120.167" filterUnits="userSpaceOnUse" color-interpolation-filters="sRGB">
<feFlood flood-opacity="0" result="BackgroundImageFix"/>
<feColorMatrix in="SourceAlpha" type="matrix" values="0 0 0 0 0 0 0 0 0 0 0 0 0 0 0 0 0 0 127 0" result="hardAlpha"/>
<feOffset/>
<feGaussianBlur stdDeviation="11.6667"/>
<feComposite in2="hardAlpha" operator="out"/>
<feColorMatrix type="matrix" values="0 0 0 0 0 0 0 0 0 0 0 0 0 0 0 0 0 0 0.25 0"/>
<feBlend mode="normal" in2="BackgroundImageFix" result="effect1_dropShadow_39033_73857"/>
<feBlend mode="normal" in="SourceGraphic" in2="effect1_dropShadow_39033_73857" result="shape"/>
</filter>
<linearGradient id="paint0_linear_39033_73857" x1="309.647" y1="49.2088" x2="315.751" y2="51.8016" gradientUnits="userSpaceOnUse">
<stop stop-color="#338BFF"/>
<stop offset="1" stop-color="#0058CC"/>
</linearGradient>
<clipPath id="clip0_39033_73857">
<rect width="400" height="164" fill="white"/>
</clipPath>
<clipPath id="clip1_39033_73857">
<rect width="275.954" height="196.234" fill="white" transform="translate(66.1543 43.1484)"/>
</clipPath>
<clipPath id="clip2_39033_73857">
<path d="M127.477 81.2831C127.477 80.4364 128.163 79.75 129.01 79.75H172.319C173.166 79.75 173.852 80.4364 173.852 81.2831V104.279C173.852 105.126 173.166 105.812 172.319 105.812H129.01C128.163 105.812 127.477 105.126 127.477 104.279V81.2831Z" fill="white"/>
</clipPath>
<clipPath id="clip3_39033_73857">
<rect width="3.06615" height="3.06615" fill="white" transform="translate(141.467 90.6719)"/>
</clipPath>
<clipPath id="clip4_39033_73857">
<path d="M178.451 81.2831C178.451 80.4364 179.138 79.75 179.984 79.75H223.294C224.14 79.75 224.827 80.4364 224.827 81.2831V104.279C224.827 105.126 224.14 105.812 223.294 105.812H179.984C179.138 105.812 178.451 105.126 178.451 104.279V81.2831Z" fill="white"/>
</clipPath>
<clipPath id="clip5_39033_73857">
<rect width="3.06615" height="3.06615" fill="white" transform="translate(192.441 90.6719)"/>
</clipPath>
<clipPath id="clip6_39033_73857">
<path d="M229.426 81.2831C229.426 80.4364 230.112 79.75 230.959 79.75H274.268C275.115 79.75 275.801 80.4364 275.801 81.2831V104.279C275.801 105.126 275.115 105.812 274.268 105.812H230.959C230.112 105.812 229.426 105.126 229.426 104.279V81.2831Z" fill="white"/>
</clipPath>
<clipPath id="clip7_39033_73857">
<rect width="3.06615" height="3.06615" fill="white" transform="translate(243.416 90.6719)"/>
</clipPath>
<clipPath id="clip8_39033_73857">
<rect width="3.06615" height="3.06615" fill="white" transform="translate(303.012 62.5)"/>
</clipPath>
<clipPath id="clip9_39033_73857">
<rect width="3.06615" height="3.06615" fill="white" transform="translate(328.691 62.5)"/>
</clipPath>
<clipPath id="clip10_39033_73857">
<rect width="2.29961" height="2.29961" fill="white" transform="translate(333.291 62.8828)"/>
</clipPath>
<clipPath id="clip11_39033_73857">
<rect width="3.44942" height="3.44942" fill="white" transform="translate(127.092 50.0469)"/>
</clipPath>
<clipPath id="clip12_39033_73857">
<rect width="4.21596" height="4.21596" fill="white" transform="translate(293.238 49.6641)"/>
</clipPath>
<clipPath id="clip13_39033_73857">
<rect width="6.1323" height="6.1323" fill="white" transform="translate(309.145 48.7109)"/>
</clipPath>
<clipPath id="clip14_39033_73857">
<rect x="312.977" y="52.5469" width="2.29961" height="2.29961" rx="1.14981" fill="white"/>
</clipPath>
<clipPath id="clip15_39033_73857">
<path d="M66.1543 43.1484H118.662C119.932 43.1484 120.962 44.178 120.962 45.4481V237.082C120.962 238.352 119.932 239.382 118.662 239.382H66.1543V43.1484Z" fill="white"/>
</clipPath>
<clipPath id="clip16_39033_73857">
<rect width="2.68288" height="2.68288" fill="white" transform="translate(112.146 51.8672)"/>
</clipPath>
</defs>
</svg>
