<svg width="121" height="85" viewBox="0 0 121 85" fill="none" xmlns="http://www.w3.org/2000/svg">
<path d="M40.3911 20.4834C43.8294 13.445 51.0969 7 61.978 7C62.5039 7 63.0297 7.01348 63.5825 7.04045C69.3804 7.5663 80.1536 11.4091 76.8097 16.5867C75.6636 18.1238 73.4523 18.4204 71.9287 17.2474C67.1961 13.0271 57.8925 12.7978 53.1734 16.1417C46.4182 19.998 46.998 25.607 44.3418 26.416C42.5889 26.8205 40.89 27.4812 39.3664 28.4251C37.6405 29.4903 36.1574 30.8521 34.9439 32.4836C34.4315 33.333 33.5686 34.0207 32.5034 33.8993C30.8854 33.7914 29.1056 33.6566 26.6786 35.0589C20.9751 38.5106 21.9863 45.5759 27.11 48.4748C28.4718 49.2434 30.0224 49.6209 31.6 49.6209H39.4473C44.0182 49.7153 43.9373 56.3491 39.3664 56.3896H30.7505C30.0224 56.3896 29.3078 56.3222 28.5932 56.1738C28.5797 56.1738 28.5527 56.1738 28.5258 56.1604C11.0244 52.3311 12.0221 28.4925 30.5213 27.0632C33.1371 24.0565 36.5888 21.7643 40.3911 20.4834ZM62.6387 28.897L47.2677 51.158C46.2025 52.7086 46.607 54.812 48.171 55.8637C49.7351 56.9154 51.879 56.5109 52.9576 54.9738L68.3287 32.7128C72.077 26.9823 80.8278 27.1981 85.1289 32.1465C93.6369 41.5444 81.5424 55.1491 70.1085 47.4096C66.441 44.8478 62.4499 50.3086 66.0904 52.9109C68.0455 54.2862 71.9018 56.4435 76.9715 56.4435C95.0122 55.8907 99.0573 36.6095 90.2796 27.6565C86.8683 23.7059 81.7581 21.6834 76.6884 21.6834C71.2141 21.6834 65.8073 24.043 62.6387 28.897Z" fill="#33334C"/>
<g filter="url(#filter0_d_744_12424)">
<rect x="76.469" y="37" width="24" height="24" rx="12" fill="#F5D6DA"/>
</g>
<path d="M92.0627 44.1563C92.4079 43.8111 92.9676 43.8111 93.3127 44.1563C93.6579 44.5014 93.6579 45.0611 93.3127 45.4063L89.719 49L93.3127 52.5938C93.6579 52.9389 93.6579 53.4986 93.3127 53.8438C92.9676 54.1889 92.4079 54.1889 92.0627 53.8438L88.469 50.25L84.8752 53.8438C84.5301 54.1889 83.9704 54.1889 83.6252 53.8438C83.2801 53.4986 83.2801 52.9389 83.6252 52.5938L87.219 49L83.6252 45.4063C83.2801 45.0611 83.2801 44.5014 83.6252 44.1563C83.9704 43.8111 84.5301 43.8111 84.8752 44.1563L88.469 47.75L92.0627 44.1563Z" fill="#B82E40"/>
<defs>
<filter id="filter0_d_744_12424" x="56.469" y="21" width="64" height="64" filterUnits="userSpaceOnUse" color-interpolation-filters="sRGB">
<feFlood flood-opacity="0" result="BackgroundImageFix"/>
<feColorMatrix in="SourceAlpha" type="matrix" values="0 0 0 0 0 0 0 0 0 0 0 0 0 0 0 0 0 0 127 0" result="hardAlpha"/>
<feOffset dy="4"/>
<feGaussianBlur stdDeviation="10"/>
<feComposite in2="hardAlpha" operator="out"/>
<feColorMatrix type="matrix" values="0 0 0 0 0 0 0 0 0 0 0 0 0 0 0 0 0 0 0.15 0"/>
<feBlend mode="normal" in2="BackgroundImageFix" result="effect1_dropShadow_744_12424"/>
<feBlend mode="normal" in="SourceGraphic" in2="effect1_dropShadow_744_12424" result="shape"/>
</filter>
</defs>
</svg>
