<svg width="32" height="32" viewBox="0 0 32 32" fill="none" xmlns="http://www.w3.org/2000/svg">
<g filter="url(#filter0_d_16_8183)">
<path fill-rule="evenodd" clip-rule="evenodd" d="M30 10.7203C30 10.3879 30.0001 10.0555 29.9981 9.72308C29.9964 9.44305 29.9932 9.16308 29.9856 8.88318C29.9691 8.27313 29.9332 7.65785 29.8247 7.05459C29.7146 6.44264 29.5349 5.87309 29.2518 5.31707C28.9734 4.77056 28.6098 4.27047 28.1759 3.83692C27.7422 3.40336 27.2419 3.03997 26.6952 2.76177C26.1386 2.47855 25.5685 2.29893 24.9559 2.18893C24.3525 2.0806 23.7371 2.04468 23.127 2.0282C22.8469 2.02063 22.5668 2.01743 22.2867 2.0157C21.9541 2.01366 21.6215 2.01383 21.2889 2.01383L17.4271 2H14.5387L10.7453 2.01383C10.412 2.01383 10.0788 2.01366 9.74554 2.0157C9.4648 2.01743 9.18419 2.02063 8.90355 2.0282C8.29207 2.04468 7.67523 2.08064 7.07048 2.1891C6.45703 2.29906 5.88602 2.47861 5.32868 2.76164C4.78081 3.03987 4.2795 3.40329 3.84483 3.83692C3.41022 4.27044 3.04591 4.77043 2.76704 5.31683C2.4831 5.87313 2.30307 6.44301 2.19277 7.05531C2.08417 7.65832 2.04818 8.2734 2.03164 8.88318C2.02409 9.16312 2.02083 9.44308 2.01913 9.72308C2.01709 10.0555 2 10.4685 2 10.8009L2.0001 14.5418L2 17.4611L2.01726 21.2815C2.01726 21.6144 2.01713 21.9472 2.01913 22.2801C2.02083 22.5605 2.02409 22.8409 2.03167 23.1212C2.04818 23.732 2.08424 24.3482 2.19294 24.9522C2.30321 25.565 2.4832 26.1354 2.7669 26.6921C3.04581 27.2394 3.41018 27.7401 3.84483 28.1743C4.27947 28.6085 4.78064 28.9723 5.32841 29.2509C5.88609 29.5345 6.45737 29.7144 7.07119 29.8245C7.67567 29.933 8.29231 29.969 8.90355 29.9855C9.18419 29.9931 9.46483 29.9963 9.74558 29.998C10.0788 30 10.412 29.9999 10.7453 29.9999L14.573 30H17.4685L21.2889 29.9999C21.6215 29.9999 21.9541 30 22.2867 29.998C22.5668 29.9963 22.8469 29.9931 23.127 29.9855C23.7373 29.969 24.353 29.933 24.9566 29.8244C25.5688 29.7143 26.1387 29.5345 26.695 29.251C27.2418 28.9725 27.7421 28.6085 28.1759 28.1743C28.6097 27.7402 28.9733 27.2395 29.2517 26.6923C29.535 26.1353 29.7147 25.5647 29.8248 24.9515C29.9332 24.3477 29.9691 23.7318 29.9856 23.1212C29.9932 22.8408 29.9964 22.5605 29.9981 22.2801C30.0002 21.9472 30 21.6144 30 21.2815C30 21.2815 29.9998 17.5286 29.9998 17.4611V14.5388C29.9998 14.489 30 10.7203 30 10.7203Z" fill="white"/>
</g>
<mask id="mask0_16_8183" style="mask-type:luminance" maskUnits="userSpaceOnUse" x="2" y="2" width="28" height="28">
<path fill-rule="evenodd" clip-rule="evenodd" d="M30 10.7203C30 10.3879 30.0001 10.0555 29.9981 9.72308C29.9964 9.44305 29.9932 9.16308 29.9856 8.88318C29.9691 8.27313 29.9332 7.65785 29.8247 7.05459C29.7146 6.44264 29.5349 5.87309 29.2518 5.31707C28.9734 4.77056 28.6098 4.27047 28.1759 3.83692C27.7422 3.40336 27.2419 3.03997 26.6952 2.76177C26.1386 2.47855 25.5685 2.29893 24.9559 2.18893C24.3525 2.0806 23.7371 2.04468 23.127 2.0282C22.8469 2.02063 22.5668 2.01743 22.2867 2.0157C21.9541 2.01366 21.6215 2.01383 21.2889 2.01383L17.4271 2H14.5387L10.7453 2.01383C10.412 2.01383 10.0788 2.01366 9.74554 2.0157C9.4648 2.01743 9.18419 2.02063 8.90355 2.0282C8.29207 2.04468 7.67523 2.08064 7.07048 2.1891C6.45703 2.29906 5.88602 2.47861 5.32868 2.76164C4.78081 3.03987 4.2795 3.40329 3.84483 3.83692C3.41022 4.27044 3.04591 4.77043 2.76704 5.31683C2.4831 5.87313 2.30307 6.44301 2.19277 7.05531C2.08417 7.65832 2.04818 8.2734 2.03164 8.88318C2.02409 9.16312 2.02083 9.44308 2.01913 9.72308C2.01709 10.0555 2 10.4685 2 10.8009L2.0001 14.5418L2 17.4611L2.01726 21.2815C2.01726 21.6144 2.01713 21.9472 2.01913 22.2801C2.02083 22.5605 2.02409 22.8409 2.03167 23.1212C2.04818 23.732 2.08424 24.3482 2.19294 24.9522C2.30321 25.565 2.4832 26.1354 2.7669 26.6921C3.04581 27.2394 3.41018 27.7401 3.84483 28.1743C4.27947 28.6085 4.78064 28.9723 5.32841 29.2509C5.88609 29.5345 6.45737 29.7144 7.07119 29.8245C7.67567 29.933 8.29231 29.969 8.90355 29.9855C9.18419 29.9931 9.46483 29.9963 9.74558 29.998C10.0788 30 10.412 29.9999 10.7453 29.9999L14.573 30H17.4685L21.2889 29.9999C21.6215 29.9999 21.9541 30 22.2867 29.998C22.5668 29.9963 22.8469 29.9931 23.127 29.9855C23.7373 29.969 24.353 29.933 24.9566 29.8244C25.5688 29.7143 26.1387 29.5345 26.695 29.251C27.2418 28.9725 27.7421 28.6085 28.1759 28.1743C28.6097 27.7402 28.9733 27.2395 29.2517 26.6923C29.535 26.1353 29.7147 25.5647 29.8248 24.9515C29.9332 24.3477 29.9691 23.7318 29.9856 23.1212C29.9932 22.8408 29.9964 22.5605 29.9981 22.2801C30.0002 21.9472 30 21.6144 30 21.2815C30 21.2815 29.9998 17.5286 29.9998 17.4611V14.5388C29.9998 14.489 30 10.7203 30 10.7203Z" fill="white"/>
</mask>
<g mask="url(#mask0_16_8183)">
<g filter="url(#filter1_dddi_16_8183)">
<rect x="2" y="2" width="28.0417" height="28.0417" rx="5.98076" fill="url(#paint0_linear_16_8183)"/>
<path d="M12.062 12.8726C12.9671 10.9405 14.8767 9.16382 17.7411 9.16382C17.8795 9.16382 18.0179 9.16752 18.1634 9.17492C19.6897 9.31928 22.5257 10.3742 21.6454 11.7955C21.3437 12.2175 20.7616 12.2989 20.3605 11.9769C19.1147 10.8183 16.6656 10.7554 15.4233 11.6734C13.6451 12.732 13.7977 14.2718 13.0985 14.4938C12.637 14.6049 12.1898 14.7863 11.7887 15.0454C11.3344 15.3378 10.944 15.7116 10.6245 16.1595C10.4897 16.3927 10.2625 16.5814 9.98209 16.5481C9.55616 16.5185 9.08764 16.4815 8.44875 16.8664C6.94735 17.814 7.21356 19.7535 8.56233 20.5494C8.92082 20.7603 9.329 20.864 9.74428 20.864H11.81C13.0133 20.8899 12.992 22.711 11.7887 22.7221H9.52066C9.329 22.7221 9.14088 22.7036 8.95276 22.6629C8.94921 22.6629 8.94211 22.6629 8.93501 22.6592C4.3279 21.608 4.59055 15.0639 9.46033 14.6715C10.1489 13.8461 11.0576 13.2169 12.0585 12.8652M17.915 15.1749L13.8687 21.2859C13.5883 21.7116 13.6948 22.289 14.1065 22.5777C14.5182 22.8664 15.0826 22.7554 15.3665 22.3334L19.4128 16.2224C20.3996 14.6493 22.7031 14.7085 23.8354 16.0669C26.0751 18.6468 22.8912 22.3815 19.8814 20.2569C18.9159 19.5537 17.8653 21.0527 18.8236 21.7671C19.3383 22.1447 20.3534 22.7369 21.688 22.7369C26.4371 22.5851 27.5019 17.2921 25.1913 14.8344C24.2933 13.7499 22.948 13.1947 21.6135 13.1947C20.1724 13.1947 18.7455 13.8424 17.9114 15.1749" fill="white"/>
</g>
</g>
<defs>
<filter id="filter0_d_16_8183" x="1.6875" y="2" width="28.625" height="28.625" filterUnits="userSpaceOnUse" color-interpolation-filters="sRGB">
<feFlood flood-opacity="0" result="BackgroundImageFix"/>
<feColorMatrix in="SourceAlpha" type="matrix" values="0 0 0 0 0 0 0 0 0 0 0 0 0 0 0 0 0 0 127 0" result="hardAlpha"/>
<feOffset dy="0.3125"/>
<feGaussianBlur stdDeviation="0.15625"/>
<feColorMatrix type="matrix" values="0 0 0 0 0 0 0 0 0 0 0 0 0 0 0 0 0 0 0.3 0"/>
<feBlend mode="normal" in2="BackgroundImageFix" result="effect1_dropShadow_16_8183"/>
<feBlend mode="normal" in="SourceGraphic" in2="effect1_dropShadow_16_8183" result="shape"/>
</filter>
<filter id="filter1_dddi_16_8183" x="1.21133" y="1.60566" width="29.6188" height="29.619" filterUnits="userSpaceOnUse" color-interpolation-filters="sRGB">
<feFlood flood-opacity="0" result="BackgroundImageFix"/>
<feColorMatrix in="SourceAlpha" type="matrix" values="0 0 0 0 0 0 0 0 0 0 0 0 0 0 0 0 0 0 127 0" result="hardAlpha"/>
<feOffset dy="0.394336"/>
<feGaussianBlur stdDeviation="0.394336"/>
<feColorMatrix type="matrix" values="0 0 0 0 0 0 0 0 0 0 0 0 0 0 0 0 0 0 0.1 0"/>
<feBlend mode="normal" in2="BackgroundImageFix" result="effect1_dropShadow_16_8183"/>
<feColorMatrix in="SourceAlpha" type="matrix" values="0 0 0 0 0 0 0 0 0 0 0 0 0 0 0 0 0 0 127 0" result="hardAlpha"/>
<feOffset dy="0.262891"/>
<feGaussianBlur stdDeviation="0.197168"/>
<feColorMatrix type="matrix" values="0 0 0 0 0 0 0 0 0 0 0 0 0 0 0 0 0 0 0.1 0"/>
<feBlend mode="normal" in2="effect1_dropShadow_16_8183" result="effect2_dropShadow_16_8183"/>
<feColorMatrix in="SourceAlpha" type="matrix" values="0 0 0 0 0 0 0 0 0 0 0 0 0 0 0 0 0 0 127 0" result="hardAlpha"/>
<feOffset dy="0.0657227"/>
<feGaussianBlur stdDeviation="0.0657227"/>
<feColorMatrix type="matrix" values="0 0 0 0 0 0 0 0 0 0 0 0 0 0 0 0 0 0 0.1 0"/>
<feBlend mode="normal" in2="effect2_dropShadow_16_8183" result="effect3_dropShadow_16_8183"/>
<feBlend mode="normal" in="SourceGraphic" in2="effect3_dropShadow_16_8183" result="shape"/>
<feColorMatrix in="SourceAlpha" type="matrix" values="0 0 0 0 0 0 0 0 0 0 0 0 0 0 0 0 0 0 127 0" result="hardAlpha"/>
<feOffset dy="-0.131445"/>
<feGaussianBlur stdDeviation="0.0657227"/>
<feComposite in2="hardAlpha" operator="arithmetic" k2="-1" k3="1"/>
<feColorMatrix type="matrix" values="0 0 0 0 0 0 0 0 0 0 0 0 0 0 0 0 0 0 0.05 0"/>
<feBlend mode="normal" in2="shape" result="effect4_innerShadow_16_8183"/>
</filter>
<linearGradient id="paint0_linear_16_8183" x1="1.59764" y1="1.54848" x2="35.947" y2="16.1405" gradientUnits="userSpaceOnUse">
<stop stop-color="#338BFF"/>
<stop offset="1" stop-color="#0058CC"/>
</linearGradient>
</defs>
</svg>
