<svg width="28" height="28" viewBox="0 0 28 28" fill="none" xmlns="http://www.w3.org/2000/svg">
<path d="M27.125 7.00329C27.126 6.32899 26.9321 5.66877 26.5668 5.10201C26.2015 4.53525 25.6803 4.08608 25.0657 3.80852C24.4512 3.53095 23.7696 3.43681 23.1029 3.5374C22.4361 3.63799 21.8126 3.92904 21.3073 4.37555C21.0338 4.61685 20.7993 4.89911 20.6123 5.21227V5.21555C20.5827 5.26477 20.5548 5.31508 20.5275 5.3654L20.5144 5.39219C20.4914 5.4354 20.4701 5.47915 20.4493 5.52344C20.4427 5.53711 20.4367 5.55079 20.4307 5.56446C20.4127 5.60438 20.3952 5.64485 20.3787 5.68586C20.3716 5.70282 20.3651 5.71977 20.3585 5.73672C20.3438 5.775 20.3295 5.81329 20.3159 5.85211L20.2962 5.91008C20.2841 5.94727 20.2727 5.985 20.2617 6.02274C20.2552 6.04407 20.2491 6.06485 20.2437 6.08618C20.2333 6.12282 20.2245 6.16 20.2158 6.19555C20.2103 6.21797 20.2048 6.2404 20.1999 6.26282C20.1923 6.3 20.1852 6.33774 20.1786 6.37219C20.1742 6.39516 20.1698 6.41813 20.166 6.4411C20.16 6.47938 20.1551 6.51821 20.1502 6.55704C20.1474 6.57946 20.1441 6.60188 20.1414 6.62485C20.137 6.66696 20.1343 6.70907 20.131 6.75172C20.131 6.77141 20.1277 6.7911 20.1266 6.81079C20.1234 6.87313 20.1212 6.93547 20.1212 6.99891C20.1212 7.0536 20.1212 7.10829 20.1255 7.15969V7.19469C20.1285 7.2461 20.1323 7.2975 20.137 7.34891L20.1403 7.37516C20.1452 7.42165 20.1507 7.46758 20.1578 7.51297C20.1578 7.52227 20.1578 7.53211 20.1616 7.54141C20.1693 7.59118 20.1786 7.6404 20.1884 7.68961C20.1884 7.70165 20.1934 7.71313 20.1955 7.72516C20.2054 7.77219 20.2163 7.81922 20.2284 7.86571C20.2284 7.86954 20.2284 7.87282 20.2284 7.8761C20.2409 7.92477 20.2546 7.97235 20.2694 8.01993L20.2809 8.05711C20.2956 8.1036 20.3109 8.14899 20.3273 8.19438C20.3306 8.20422 20.3345 8.21407 20.3383 8.22391C20.353 8.26274 20.3684 8.30157 20.3842 8.33985C20.3886 8.35133 20.393 8.36227 20.3979 8.37321C20.4165 8.41641 20.4356 8.45961 20.4559 8.50227L20.4739 8.53891C20.493 8.57719 20.5122 8.61547 20.5324 8.65321C20.8179 9.18374 21.2348 9.63209 21.7432 9.95532C21.8767 10.0406 22.0159 10.1164 22.1599 10.1823L22.1812 10.1921C22.2782 10.2359 22.3772 10.2752 22.4782 10.3102L22.5302 10.3277L22.6122 10.3534C22.6368 10.3611 22.6614 10.3677 22.6866 10.3748L22.7916 10.4021L22.8862 10.424L22.9491 10.4366L23.0491 10.4546L23.1005 10.4628C23.1498 10.4699 23.1995 10.4765 23.2493 10.482L23.2914 10.4858C23.3313 10.4891 23.3718 10.4923 23.4123 10.4945L23.4593 10.4973C23.514 10.4973 23.5654 10.5016 23.619 10.5016C23.6824 10.5016 23.7448 10.5016 23.8071 10.4962L23.8662 10.4918C23.9088 10.4885 23.9509 10.4858 23.993 10.4814L24.0614 10.4727C24.0997 10.4677 24.1385 10.4628 24.1768 10.4568L24.2457 10.4442C24.2829 10.4377 24.3206 10.4306 24.3551 10.4229L24.4223 10.407C24.4595 10.3983 24.4967 10.3895 24.5317 10.3791C24.553 10.3737 24.5738 10.3677 24.5952 10.3611C24.6329 10.3502 24.6706 10.3387 24.7078 10.3266L24.7658 10.307C24.8046 10.2933 24.8429 10.2791 24.8812 10.2643L24.932 10.2441C24.973 10.2277 25.0135 10.2102 25.0534 10.1921L25.0945 10.1735C25.1388 10.1527 25.1825 10.1314 25.2257 10.1084L25.2525 10.0953C25.3028 10.068 25.3531 10.0406 25.4023 10.0106H25.4056C25.7213 9.82498 26.0062 9.59141 26.25 9.31821C26.8147 8.67937 27.1259 7.85591 27.125 7.00329Z" fill="url(#paint0_linear_35422_1548)"/>
<path d="M20.3098 11.0764L14.537 15.5663C14.3835 15.6856 14.1945 15.7504 14 15.7504C13.8055 15.7504 13.6165 15.6856 13.463 15.5663L5.58797 9.44125C5.49545 9.37138 5.41773 9.28382 5.35934 9.18365C5.30095 9.08349 5.26305 8.97271 5.24784 8.85777C5.23263 8.74283 5.24042 8.62601 5.27075 8.51411C5.30107 8.4022 5.35334 8.29744 5.42451 8.20591C5.49567 8.11438 5.58432 8.0379 5.6853 7.98093C5.78628 7.92395 5.89757 7.88761 6.01272 7.87402C6.12786 7.86043 6.24456 7.86986 6.35603 7.90176C6.46749 7.93366 6.57151 7.9874 6.66203 8.05985L14 13.767L19.1527 9.75954C18.6541 8.95298 18.3836 8.02631 18.37 7.0782C18.3565 6.13009 18.6003 5.19605 19.0755 4.37555H4.8125C4.00054 4.37642 3.22209 4.69935 2.64794 5.2735C2.0738 5.84764 1.75087 6.62609 1.75 7.43805V20.5631C1.75087 21.375 2.0738 22.1535 2.64794 22.7276C3.22209 23.3017 4.00054 23.6247 4.8125 23.6256H23.1875C23.9995 23.6247 24.7779 23.3017 25.3521 22.7276C25.9262 22.1535 26.2491 21.375 26.25 20.5631V11.55C25.3289 12.0835 24.2672 12.324 23.2061 12.2394C22.145 12.1548 21.1348 11.7492 20.3098 11.0764Z" fill="url(#paint1_linear_35422_1548)"/>
<defs>
<linearGradient id="paint0_linear_35422_1548" x1="1.3859" y1="3.17415" x2="29.8995" y2="18.4452" gradientUnits="userSpaceOnUse">
<stop stop-color="#338BFF"/>
<stop offset="1" stop-color="#0058CC"/>
</linearGradient>
<linearGradient id="paint1_linear_35422_1548" x1="1.3859" y1="3.17415" x2="29.8995" y2="18.4452" gradientUnits="userSpaceOnUse">
<stop stop-color="#338BFF"/>
<stop offset="1" stop-color="#0058CC"/>
</linearGradient>
</defs>
</svg>
