<svg id="Capa_1" enable-background="new 0 0 791.454 791.454" viewBox="0 0 791.454 791.454" xmlns="http://www.w3.org/2000/svg"><g><g id="Vrstva_x0020_1_11_"><path clip-rule="evenodd" d="m202.621 0h264.884l224.238 233.828v454.717c0 56.783-46.126 102.909-103.061 102.909h-386.06c-56.783 0-102.909-46.126-102.909-102.909v-585.636c-.001-56.783 46.125-102.909 102.908-102.909z" fill="#0067bd" fill-rule="evenodd"/><g fill="#fff"><path clip-rule="evenodd" d="m467.2 0v232.002h224.542z" fill-rule="evenodd" opacity=".302"/><path d="m438.885 494.45 89.665 56.63v-115.544zm-15.071 10.047-23.596 15.528c-1.37.913-2.892 1.37-4.567 1.37-1.522 0-3.197-.457-4.567-1.37l-23.444-15.528-104.279 65.916c1.37 7.916 7.916 14.005 16.137 14.005h232.458c8.221 0 14.767-6.089 15.984-14.005zm88.142-102.757h-232.458c-8.373 0-14.919 6.241-16.137 14.158l132.29 87.229 132.29-87.229c-1.218-7.916-7.764-14.158-15.985-14.158zm-249.051 33.796v115.544l89.512-56.63z"/></g></g></g></svg>