<svg width="198" height="129" viewBox="0 0 198 129" fill="none" xmlns="http://www.w3.org/2000/svg">
<g filter="url(#filter0_d_30685_32538)">
<g clip-path="url(#clip0_30685_32538)">
<g clip-path="url(#clip1_30685_32538)">
<rect width="166" height="118.044" transform="translate(16 14)" fill="white"/>
<g clip-path="url(#clip2_30685_32538)">
<path d="M16 14H47.5861C48.3501 14 48.9694 14.6193 48.9694 15.3833V130.661C48.9694 131.425 48.3501 132.044 47.5861 132.044H16V14Z" fill="#002C66"/>
<rect x="16.9222" y="14.9219" width="31.125" height="11.9889" rx="0.691667" fill="#F0F7FF" fill-opacity="0.15"/>
<rect width="4.72639" height="4.72639" transform="translate(18.7667 16.7656)" fill="white"/>
<rect x="18.7667" y="16.7656" width="4.72639" height="4.72639" rx="2.36319" fill="#F3F3F7"/>
<path d="M20.2139 19.6875H20.0848V18.5578H20.2268L20.6465 19.51L21.0644 18.5578H21.2049V19.6875H21.0757V18.8128L20.6916 19.6875H20.5996L20.2139 18.8128V19.6875ZM21.8326 19.6988C21.7562 19.6988 21.6879 19.6821 21.6277 19.6488C21.5674 19.6154 21.5201 19.5681 21.4856 19.5067C21.4512 19.4443 21.434 19.3706 21.434 19.2856C21.434 19.1996 21.4512 19.1253 21.4856 19.0629C21.5211 19.0005 21.569 18.9526 21.6293 18.9193C21.6906 18.8859 21.7595 18.8693 21.8358 18.8693C21.9122 18.8693 21.9806 18.8859 22.0408 18.9193C22.1021 18.9526 22.15 19.0005 22.1844 19.0629C22.2199 19.1243 22.2377 19.1974 22.2377 19.2824C22.2377 19.3685 22.2199 19.4427 22.1844 19.5051C22.1489 19.5675 22.1005 19.6154 22.0392 19.6488C21.9779 19.6821 21.909 19.6988 21.8326 19.6988ZM21.831 19.5842C21.8783 19.5842 21.923 19.574 21.965 19.5535C22.0069 19.532 22.0408 19.4992 22.0666 19.4551C22.0935 19.4099 22.107 19.3529 22.107 19.284C22.107 19.2141 22.0941 19.1571 22.0682 19.113C22.0424 19.0688 22.0085 19.0366 21.9666 19.0161C21.9257 18.9946 21.8816 18.9838 21.8342 18.9838C21.7869 18.9838 21.7428 18.9946 21.7019 19.0161C21.661 19.0366 21.6277 19.0694 21.6018 19.1146C21.5771 19.1587 21.5647 19.2152 21.5647 19.284C21.5647 19.354 21.5771 19.411 21.6018 19.4551C21.6266 19.4992 21.6589 19.532 21.6987 19.5535C21.7395 19.574 21.7837 19.5842 21.831 19.5842Z" fill="#0058CC"/>
<rect x="24.8764" y="17.3203" width="10.0292" height="1.26806" rx="0.634028" fill="#F0F7FF" fill-opacity="0.3"/>
<path d="M25.2305 20.9336H25.011V19.6425H25.2563L25.6916 20.6459L26.1269 19.6425H26.3704V20.9336H26.1527V20.0612L25.7746 20.9336H25.6086L25.2305 20.0612V20.9336ZM27.0414 20.9465C26.9528 20.9465 26.8735 20.9274 26.8034 20.8893C26.7333 20.85 26.6786 20.7953 26.6393 20.7252C26.5999 20.6539 26.5803 20.5702 26.5803 20.4743C26.5803 20.3772 26.6005 20.293 26.6411 20.2216C26.6817 20.1503 26.7376 20.0956 26.809 20.0575C26.8803 20.0181 26.9596 19.9985 27.0469 19.9985C27.1354 19.9985 27.2147 20.0181 27.2848 20.0575C27.3561 20.0956 27.4127 20.1503 27.4545 20.2216C27.4963 20.2917 27.5172 20.3747 27.5172 20.4706C27.5172 20.5678 27.4957 20.652 27.4527 20.7233C27.4109 20.7946 27.3537 20.85 27.2811 20.8893C27.2098 20.9274 27.1299 20.9465 27.0414 20.9465ZM27.0395 20.7602C27.0826 20.7602 27.1231 20.7498 27.1613 20.7289C27.2006 20.708 27.2326 20.6766 27.2572 20.6348C27.2818 20.5918 27.2941 20.537 27.2941 20.4706C27.2941 20.4067 27.2824 20.3538 27.259 20.312C27.2356 20.269 27.2049 20.237 27.1668 20.2161C27.1287 20.1952 27.0875 20.1847 27.0432 20.1847C27.0002 20.1847 26.9602 20.1952 26.9233 20.2161C26.8877 20.237 26.8588 20.269 26.8366 20.312C26.8145 20.3538 26.8034 20.4079 26.8034 20.4743C26.8034 20.5383 26.8139 20.5918 26.8348 20.6348C26.8569 20.6766 26.8858 20.708 26.9215 20.7289C26.9571 20.7498 26.9965 20.7602 27.0395 20.7602ZM27.7126 20.0114H27.9007L27.9155 20.1017C27.9462 20.0698 27.9825 20.0446 28.0243 20.0261C28.0673 20.0077 28.1134 19.9985 28.1626 19.9985C28.2352 19.9985 28.2973 20.0138 28.3489 20.0446C28.4018 20.0741 28.4424 20.1183 28.4706 20.1774C28.4989 20.2352 28.5131 20.3077 28.5131 20.395V20.9336H28.3046V20.4227C28.3046 20.3452 28.2887 20.2868 28.2567 20.2475C28.226 20.2081 28.1792 20.1884 28.1165 20.1884C28.0526 20.1884 28.004 20.2087 27.9708 20.2493C27.9376 20.2887 27.921 20.3471 27.921 20.4245V20.9336H27.7126V20.0114ZM29.3442 20.9465C29.2532 20.9465 29.1677 20.9305 29.0878 20.8985C29.0079 20.8666 28.9378 20.8217 28.8775 20.7639C28.8185 20.7049 28.7718 20.6354 28.7373 20.5555C28.7041 20.4743 28.6875 20.3852 28.6875 20.288C28.6875 20.1921 28.7041 20.1042 28.7373 20.0243C28.7718 19.9431 28.8185 19.873 28.8775 19.814C28.9378 19.755 29.0079 19.7095 29.0878 19.6775C29.1677 19.6456 29.2532 19.6296 29.3442 19.6296C29.4352 19.6296 29.52 19.6456 29.5987 19.6775C29.6786 19.7095 29.7481 19.755 29.8071 19.814C29.8674 19.873 29.9141 19.9431 29.9473 20.0243C29.9817 20.1042 29.9989 20.1921 29.9989 20.288C29.9989 20.3852 29.9817 20.4743 29.9473 20.5555C29.9141 20.6354 29.8674 20.7049 29.8071 20.7639C29.7481 20.8217 29.6786 20.8666 29.5987 20.8985C29.52 20.9305 29.4352 20.9465 29.3442 20.9465ZM29.3442 20.7602C29.4278 20.7602 29.5022 20.7412 29.5673 20.703C29.6325 20.6637 29.6835 20.609 29.7204 20.5389C29.7573 20.4676 29.7758 20.3839 29.7758 20.288C29.7758 20.1909 29.7573 20.1073 29.7204 20.0372C29.6835 19.9671 29.6325 19.913 29.5673 19.8749C29.5022 19.8355 29.4278 19.8159 29.3442 19.8159C29.2606 19.8159 29.1862 19.8355 29.121 19.8749C29.0558 19.913 29.0042 19.9671 28.9661 20.0372C28.9292 20.1073 28.9107 20.1909 28.9107 20.288C28.9107 20.3839 28.9292 20.4676 28.9661 20.5389C29.0042 20.609 29.0558 20.6637 29.121 20.703C29.1862 20.7412 29.2606 20.7602 29.3442 20.7602ZM30.1893 20.0114H30.3774L30.394 20.1257C30.4186 20.095 30.4475 20.0698 30.4807 20.0501C30.5139 20.0292 30.5495 20.0151 30.5877 20.0077C30.627 20.0003 30.6663 20.0015 30.7057 20.0114V20.2032C30.6737 20.1921 30.6393 20.1897 30.6024 20.1958C30.5667 20.2007 30.5335 20.2143 30.5028 20.2364C30.4721 20.2573 30.4469 20.2874 30.4272 20.3268C30.4075 20.3649 30.3977 20.4122 30.3977 20.4688V20.9336H30.1893V20.0114ZM31.5272 20.0114H31.7153V20.7953C31.7153 20.8998 31.6895 20.9895 31.6378 21.0645C31.5862 21.1408 31.5118 21.1992 31.4147 21.2398C31.3175 21.2816 31.2007 21.3025 31.0642 21.3025L31.0329 21.1236C31.1878 21.1199 31.3052 21.0904 31.3851 21.035C31.4663 20.9797 31.5069 20.9004 31.5069 20.7971V20.7953H31.5309C31.5026 20.8371 31.4614 20.8727 31.4073 20.9022C31.3544 20.9317 31.2911 20.9465 31.2173 20.9465C31.1361 20.9465 31.0642 20.9268 31.0015 20.8875C30.9388 20.8481 30.8896 20.7928 30.8539 20.7215C30.8195 20.6502 30.8023 20.5672 30.8023 20.4725C30.8023 20.3778 30.8195 20.2948 30.8539 20.2235C30.8896 20.1522 30.9388 20.0968 31.0015 20.0575C31.0642 20.0181 31.1361 19.9985 31.2173 19.9985C31.2628 19.9985 31.304 20.0046 31.3409 20.0169C31.379 20.028 31.4122 20.0433 31.4405 20.063C31.47 20.0815 31.494 20.1024 31.5124 20.1257L31.5272 20.0114ZM31.0255 20.4725C31.0255 20.5573 31.0476 20.6262 31.0919 20.6791C31.1361 20.7319 31.1952 20.7584 31.2689 20.7584C31.312 20.7584 31.3513 20.7473 31.387 20.7252C31.4226 20.7018 31.4515 20.6686 31.4737 20.6256C31.4958 20.5825 31.5069 20.5315 31.5069 20.4725C31.5069 20.411 31.4958 20.3594 31.4737 20.3175C31.4515 20.2745 31.422 20.2419 31.3851 20.2198C31.3495 20.1977 31.3108 20.1866 31.2689 20.1866C31.1952 20.1866 31.1361 20.213 31.0919 20.2659C31.0476 20.3175 31.0255 20.3864 31.0255 20.4725ZM32.5095 20.9336L32.491 20.8211C32.4615 20.8604 32.4265 20.8906 32.3859 20.9115C32.3453 20.9324 32.2912 20.9428 32.2236 20.9428C32.1597 20.9428 32.1043 20.9324 32.0576 20.9115C32.0109 20.8893 31.9746 20.8592 31.9488 20.8211C31.9242 20.7817 31.9119 20.7362 31.9119 20.6846C31.9119 20.6071 31.9402 20.5426 31.9967 20.4909C32.0545 20.4381 32.1388 20.4055 32.2494 20.3932L32.491 20.3673V20.2954C32.491 20.2659 32.4781 20.2395 32.4523 20.2161C32.4265 20.1915 32.3853 20.1792 32.3287 20.1792C32.2795 20.1792 32.2365 20.1915 32.1996 20.2161C32.164 20.2395 32.14 20.2751 32.1277 20.3231L31.9469 20.2567C31.9703 20.1755 32.0164 20.1122 32.0853 20.0667C32.1554 20.0212 32.2402 19.9985 32.3398 19.9985C32.4603 19.9985 32.5507 20.0286 32.6109 20.0888C32.6712 20.1491 32.7013 20.2259 32.7013 20.3194V20.9336H32.5095ZM32.491 20.5278L32.2697 20.5555C32.223 20.5616 32.1879 20.5752 32.1646 20.5961C32.1412 20.6157 32.1295 20.6409 32.1295 20.6717C32.1295 20.7 32.1406 20.7246 32.1627 20.7455C32.1861 20.7651 32.2175 20.775 32.2568 20.775C32.3072 20.775 32.3496 20.7657 32.3841 20.7473C32.4197 20.7289 32.4462 20.7024 32.4634 20.668C32.4818 20.6336 32.491 20.5911 32.491 20.5407V20.5278ZM32.9325 20.0114H33.1206L33.1354 20.1017C33.1661 20.0698 33.2024 20.0446 33.2442 20.0261C33.2873 20.0077 33.3334 19.9985 33.3825 19.9985C33.4551 19.9985 33.5172 20.0138 33.5688 20.0446C33.6217 20.0741 33.6623 20.1183 33.6906 20.1774C33.7189 20.2352 33.733 20.3077 33.733 20.395V20.9336H33.5246V20.4227C33.5246 20.3452 33.5086 20.2868 33.4766 20.2475C33.4459 20.2081 33.3991 20.1884 33.3364 20.1884C33.2725 20.1884 33.2239 20.2087 33.1907 20.2493C33.1575 20.2887 33.1409 20.3471 33.1409 20.4245V20.9336H32.9325V20.0114ZM33.9923 20.0114H34.2007V20.9336H33.9923V20.0114ZM34.0974 19.8712C34.0593 19.8712 34.0274 19.8583 34.0015 19.8325C33.9757 19.8066 33.9628 19.7759 33.9628 19.7402C33.9628 19.7021 33.9757 19.6701 34.0015 19.6443C34.0274 19.6185 34.0593 19.6056 34.0974 19.6056C34.1343 19.6056 34.1657 19.6185 34.1915 19.6443C34.2173 19.6701 34.2302 19.7021 34.2302 19.7402C34.2302 19.7759 34.2173 19.8066 34.1915 19.8325C34.1657 19.8583 34.1343 19.8712 34.0974 19.8712ZM34.6089 20.6366C34.6176 20.6711 34.6323 20.6975 34.6532 20.7159C34.6753 20.7344 34.6993 20.7473 34.7251 20.7547C34.751 20.7608 34.7756 20.7639 34.7989 20.7639C34.8469 20.7639 34.8844 20.7547 34.9114 20.7362C34.9397 20.7166 34.9539 20.692 34.9539 20.6625C34.9539 20.6379 34.9446 20.6188 34.9262 20.6053C34.9077 20.5918 34.8838 20.5813 34.8543 20.5739C34.826 20.5653 34.7965 20.5567 34.7657 20.5481C34.7325 20.5395 34.6969 20.5297 34.6587 20.5186C34.6219 20.5075 34.5868 20.4922 34.5536 20.4725C34.5204 20.4528 34.4934 20.4276 34.4725 20.3969C34.4516 20.3661 34.4411 20.328 34.4411 20.2825C34.4411 20.2247 34.4571 20.1749 34.4891 20.1331C34.521 20.0901 34.5647 20.0569 34.62 20.0335C34.6753 20.0101 34.7374 19.9985 34.8063 19.9985C34.8887 19.9985 34.96 20.0157 35.0203 20.0501C35.0805 20.0845 35.1242 20.1349 35.1512 20.2013L34.9686 20.2604C34.96 20.2432 34.9471 20.2284 34.9299 20.2161C34.9139 20.2038 34.8942 20.1952 34.8709 20.1903C34.8487 20.1841 34.826 20.1811 34.8026 20.1811C34.7633 20.1811 34.7301 20.1891 34.703 20.205C34.676 20.221 34.6624 20.2438 34.6624 20.2733C34.6624 20.288 34.6667 20.3009 34.6753 20.312C34.6852 20.3231 34.6981 20.3323 34.7141 20.3397C34.7301 20.3458 34.7491 20.352 34.7713 20.3581C34.7934 20.363 34.8168 20.3692 34.8413 20.3766C34.8807 20.3876 34.9194 20.3999 34.9575 20.4135C34.9969 20.4258 35.0326 20.4417 35.0645 20.4614C35.0977 20.4811 35.1235 20.5069 35.142 20.5389C35.1617 20.5709 35.1727 20.6114 35.1752 20.6606C35.1752 20.7135 35.1598 20.7621 35.1291 20.8063C35.0983 20.8494 35.0541 20.8838 34.9963 20.9096C34.9397 20.9342 34.8721 20.9465 34.7934 20.9465C34.7024 20.9465 34.6243 20.9268 34.5591 20.8875C34.494 20.8481 34.4497 20.7848 34.4263 20.6975L34.6089 20.6366ZM35.921 20.9336L35.9025 20.8211C35.873 20.8604 35.838 20.8906 35.7974 20.9115C35.7568 20.9324 35.7027 20.9428 35.6351 20.9428C35.5712 20.9428 35.5158 20.9324 35.4691 20.9115C35.4224 20.8893 35.3861 20.8592 35.3603 20.8211C35.3357 20.7817 35.3234 20.7362 35.3234 20.6846C35.3234 20.6071 35.3517 20.5426 35.4082 20.4909C35.466 20.4381 35.5503 20.4055 35.6609 20.3932L35.9025 20.3673V20.2954C35.9025 20.2659 35.8896 20.2395 35.8638 20.2161C35.838 20.1915 35.7968 20.1792 35.7402 20.1792C35.6911 20.1792 35.648 20.1915 35.6111 20.2161C35.5755 20.2395 35.5515 20.2751 35.5392 20.3231L35.3584 20.2567C35.3818 20.1755 35.4279 20.1122 35.4968 20.0667C35.5669 20.0212 35.6517 19.9985 35.7513 19.9985C35.8718 19.9985 35.9622 20.0286 36.0224 20.0888C36.0827 20.1491 36.1128 20.2259 36.1128 20.3194V20.9336H35.921ZM35.9025 20.5278L35.6812 20.5555C35.6345 20.5616 35.5994 20.5752 35.5761 20.5961C35.5527 20.6157 35.541 20.6409 35.541 20.6717C35.541 20.7 35.5521 20.7246 35.5742 20.7455C35.5976 20.7651 35.629 20.775 35.6683 20.775C35.7187 20.775 35.7611 20.7657 35.7956 20.7473C35.8312 20.7289 35.8577 20.7024 35.8749 20.668C35.8933 20.6336 35.9025 20.5911 35.9025 20.5407V20.5278ZM36.403 20.0114V19.7531H36.6151V20.0114H36.8309V20.194H36.6151V20.6034C36.6151 20.6588 36.6256 20.6975 36.6465 20.7196C36.6674 20.7405 36.6944 20.7522 36.7276 20.7547C36.7621 20.7559 36.7965 20.7541 36.8309 20.7491V20.9262C36.7781 20.9373 36.7258 20.9404 36.6742 20.9354C36.6237 20.9317 36.5782 20.9182 36.5377 20.8949C36.4971 20.8703 36.4645 20.8346 36.4399 20.7879C36.4153 20.7412 36.403 20.6797 36.403 20.6034V20.194H36.2739V20.0114H36.403ZM37.04 20.0114H37.2484V20.9336H37.04V20.0114ZM37.1451 19.8712C37.107 19.8712 37.075 19.8583 37.0492 19.8325C37.0234 19.8066 37.0105 19.7759 37.0105 19.7402C37.0105 19.7021 37.0234 19.6701 37.0492 19.6443C37.075 19.6185 37.107 19.6056 37.1451 19.6056C37.182 19.6056 37.2133 19.6185 37.2392 19.6443C37.265 19.6701 37.2779 19.7021 37.2779 19.7402C37.2779 19.7759 37.265 19.8066 37.2392 19.8325C37.2133 19.8583 37.182 19.8712 37.1451 19.8712ZM37.9351 20.9465C37.8466 20.9465 37.7673 20.9274 37.6972 20.8893C37.6271 20.85 37.5724 20.7953 37.533 20.7252C37.4937 20.6539 37.474 20.5702 37.474 20.4743C37.474 20.3772 37.4943 20.293 37.5349 20.2216C37.5754 20.1503 37.6314 20.0956 37.7027 20.0575C37.774 20.0181 37.8533 19.9985 37.9406 19.9985C38.0292 19.9985 38.1085 20.0181 38.1786 20.0575C38.2499 20.0956 38.3065 20.1503 38.3483 20.2216C38.3901 20.2917 38.411 20.3747 38.411 20.4706C38.411 20.5678 38.3895 20.652 38.3464 20.7233C38.3046 20.7946 38.2474 20.85 38.1749 20.8893C38.1036 20.9274 38.0236 20.9465 37.9351 20.9465ZM37.9333 20.7602C37.9763 20.7602 38.0169 20.7498 38.055 20.7289C38.0943 20.708 38.1263 20.6766 38.1509 20.6348C38.1755 20.5918 38.1878 20.537 38.1878 20.4706C38.1878 20.4067 38.1761 20.3538 38.1528 20.312C38.1294 20.269 38.0987 20.237 38.0605 20.2161C38.0224 20.1952 37.9812 20.1847 37.937 20.1847C37.8939 20.1847 37.854 20.1952 37.8171 20.2161C37.7814 20.237 37.7525 20.269 37.7304 20.312C37.7082 20.3538 37.6972 20.4079 37.6972 20.4743C37.6972 20.5383 37.7076 20.5918 37.7285 20.6348C37.7507 20.6766 37.7796 20.708 37.8152 20.7289C37.8509 20.7498 37.8902 20.7602 37.9333 20.7602ZM38.6063 20.0114H38.7945L38.8092 20.1017C38.84 20.0698 38.8762 20.0446 38.918 20.0261C38.9611 20.0077 39.0072 19.9985 39.0564 19.9985C39.1289 19.9985 39.191 20.0138 39.2427 20.0446C39.2955 20.0741 39.3361 20.1183 39.3644 20.1774C39.3927 20.2352 39.4068 20.3077 39.4068 20.395V20.9336H39.1984V20.4227C39.1984 20.3452 39.1824 20.2868 39.1504 20.2475C39.1197 20.2081 39.073 20.1884 39.0103 20.1884C38.9463 20.1884 38.8978 20.2087 38.8646 20.2493C38.8314 20.2887 38.8148 20.3471 38.8148 20.4245V20.9336H38.6063V20.0114Z" fill="#E5F1FF"/>
<g clip-path="url(#clip3_30685_32538)">
<path d="M44.3386 19.5261L44.968 20.2606C44.9782 20.2724 44.9908 20.2819 45.0049 20.2884C45.0191 20.295 45.0345 20.2983 45.0501 20.2983C45.0657 20.2983 45.0811 20.295 45.0952 20.2884C45.1094 20.2819 45.122 20.2724 45.1321 20.2606L45.7616 19.5261C45.8216 19.456 45.7718 19.3477 45.6795 19.3477L44.4205 19.3477C44.3282 19.3477 44.2784 19.456 44.3386 19.5261Z" fill="#F9F9FB"/>
</g>
<g clip-path="url(#clip4_30685_32538)">
<path d="M45.7615 18.7396L45.1321 18.005C45.1219 17.9932 45.1093 17.9837 45.0952 17.9772C45.081 17.9707 45.0656 17.9673 45.05 17.9673C45.0344 17.9673 45.019 17.9707 45.0049 17.9772C44.9907 17.9837 44.9781 17.9932 44.968 18.005L44.3385 18.7396C44.2785 18.8097 44.3283 18.918 44.4206 18.918L45.6796 18.918C45.7719 18.918 45.8217 18.8097 45.7615 18.7396Z" fill="#F9F9FB"/>
</g>
<mask id="path-11-inside-1_30685_32538" fill="white">
<path d="M16.9222 23.3359H48.0472V26.9095H16.9222V23.3359Z"/>
</mask>
<path d="M16.9222 23.4512H48.0472V23.2207H16.9222V23.4512Z" fill="#F0F7FF" fill-opacity="0.15" mask="url(#path-11-inside-1_30685_32538)"/>
<rect opacity="0.7" x="18.7667" y="24.4883" width="19.4819" height="1.26806" rx="0.634028" fill="#F0F7FF" fill-opacity="0.6"/>
<rect opacity="0.9" x="18.3055" y="29.6797" width="20.1736" height="2.075" rx="0.691667" fill="#F0F7FF" fill-opacity="0.6"/>
<rect x="18.3055" y="33.5977" width="28.3583" height="4.15" rx="0.461111" fill="#F0F7FF" fill-opacity="0.15"/>
<g clip-path="url(#clip5_30685_32538)">
<path d="M21.6342 35.3103H21.1299V34.806C21.1299 34.7487 21.1071 34.6937 21.0665 34.6532C21.026 34.6126 20.971 34.5898 20.9137 34.5898H20.0491C19.9918 34.5898 19.9368 34.6126 19.8963 34.6532C19.8557 34.6937 19.833 34.7487 19.833 34.806V36.6793C19.833 36.6984 19.8406 36.7167 19.8541 36.7302C19.8676 36.7437 19.8859 36.7513 19.905 36.7513H20.3733C20.3829 36.7513 20.3921 36.7475 20.3988 36.7408C20.4056 36.734 20.4094 36.7248 20.4094 36.7153V36.3931C20.4094 36.3543 20.4392 36.321 20.4779 36.3191C20.4877 36.3186 20.4974 36.3201 20.5066 36.3235C20.5157 36.327 20.5241 36.3322 20.5311 36.3389C20.5382 36.3456 20.5438 36.3537 20.5476 36.3627C20.5515 36.3717 20.5535 36.3813 20.5535 36.3911V36.7153C20.5535 36.7248 20.5573 36.734 20.564 36.7408C20.5708 36.7475 20.5799 36.7513 20.5895 36.7513H21.7783C21.7974 36.7513 21.8157 36.7437 21.8292 36.7302C21.8427 36.7167 21.8503 36.6984 21.8503 36.6793V35.5265C21.8503 35.4692 21.8276 35.4142 21.787 35.3736C21.7465 35.3331 21.6915 35.3103 21.6342 35.3103ZM20.1305 36.4625C20.1156 36.4645 20.1005 36.4617 20.0872 36.4546C20.0739 36.4475 20.0632 36.4364 20.0566 36.4229C20.0499 36.4094 20.0477 36.3942 20.0501 36.3793C20.0526 36.3645 20.0596 36.3508 20.0702 36.3401C20.0809 36.3295 20.0946 36.3225 20.1094 36.32C20.1243 36.3175 20.1395 36.3198 20.153 36.3264C20.1665 36.3331 20.1776 36.3438 20.1847 36.3571C20.1918 36.3703 20.1946 36.3855 20.1926 36.4004C20.1906 36.4162 20.1834 36.4308 20.1721 36.442C20.1609 36.4533 20.1463 36.4605 20.1305 36.4625ZM20.1305 36.1023C20.1156 36.1042 20.1005 36.1015 20.0872 36.0944C20.0739 36.0873 20.0632 36.0762 20.0566 36.0627C20.0499 36.0492 20.0477 36.0339 20.0501 36.0191C20.0526 36.0042 20.0596 35.9905 20.0702 35.9799C20.0809 35.9693 20.0946 35.9622 20.1094 35.9598C20.1243 35.9573 20.1395 35.9596 20.153 35.9662C20.1665 35.9729 20.1776 35.9836 20.1847 35.9968C20.1918 36.0101 20.1946 36.0253 20.1926 36.0402C20.1906 36.0559 20.1834 36.0706 20.1721 36.0818C20.1609 36.093 20.1463 36.1002 20.1305 36.1023ZM20.1305 35.742C20.1156 35.744 20.1005 35.7412 20.0872 35.7341C20.0739 35.727 20.0632 35.7159 20.0566 35.7024C20.0499 35.6889 20.0477 35.6737 20.0501 35.6588C20.0526 35.644 20.0596 35.6303 20.0702 35.6196C20.0809 35.609 20.0946 35.602 20.1094 35.5995C20.1243 35.5971 20.1395 35.5993 20.153 35.606C20.1665 35.6126 20.1776 35.6233 20.1847 35.6366C20.1918 35.6499 20.1946 35.665 20.1926 35.6799C20.1906 35.6957 20.1834 35.7103 20.1721 35.7215C20.1609 35.7328 20.1463 35.74 20.1305 35.742ZM20.1305 35.3818C20.1156 35.3837 20.1005 35.381 20.0872 35.3739C20.0739 35.3668 20.0632 35.3557 20.0566 35.3422C20.0499 35.3287 20.0477 35.3134 20.0501 35.2986C20.0526 35.2838 20.0596 35.27 20.0702 35.2594C20.0809 35.2488 20.0946 35.2417 20.1094 35.2393C20.1243 35.2368 20.1395 35.2391 20.153 35.2457C20.1665 35.2524 20.1776 35.2631 20.1847 35.2763C20.1918 35.2896 20.1946 35.3048 20.1926 35.3197C20.1906 35.3354 20.1834 35.3501 20.1721 35.3613C20.1609 35.3725 20.1463 35.3797 20.1305 35.3818ZM20.1305 35.0215C20.1156 35.0235 20.1005 35.0207 20.0872 35.0136C20.0739 35.0065 20.0632 34.9954 20.0566 34.9819C20.0499 34.9684 20.0477 34.9532 20.0501 34.9384C20.0526 34.9235 20.0596 34.9098 20.0702 34.8992C20.0809 34.8885 20.0946 34.8815 20.1094 34.879C20.1243 34.8766 20.1395 34.8788 20.153 34.8855C20.1665 34.8921 20.1776 34.9028 20.1847 34.9161C20.1918 34.9294 20.1946 34.9445 20.1926 34.9595C20.1906 34.9752 20.1834 34.9898 20.1721 35.0011C20.1609 35.0123 20.1463 35.0195 20.1305 35.0215ZM20.4908 36.1023C20.4759 36.1042 20.4607 36.1015 20.4474 36.0944C20.4342 36.0873 20.4235 36.0762 20.4168 36.0627C20.4102 36.0492 20.4079 36.0339 20.4104 36.0191C20.4128 36.0042 20.4199 35.9905 20.4305 35.9799C20.4411 35.9693 20.4548 35.9622 20.4697 35.9598C20.4845 35.9573 20.4998 35.9596 20.5133 35.9662C20.5268 35.9729 20.5379 35.9836 20.545 35.9968C20.5521 36.0101 20.5548 36.0253 20.5529 36.0402C20.5508 36.0559 20.5436 36.0706 20.5324 36.0818C20.5212 36.093 20.5065 36.1002 20.4908 36.1023ZM20.4908 35.742C20.4759 35.744 20.4607 35.7412 20.4474 35.7341C20.4342 35.727 20.4235 35.7159 20.4168 35.7024C20.4102 35.6889 20.4079 35.6737 20.4104 35.6588C20.4128 35.644 20.4199 35.6303 20.4305 35.6196C20.4411 35.609 20.4548 35.602 20.4697 35.5995C20.4845 35.5971 20.4998 35.5993 20.5133 35.606C20.5268 35.6126 20.5379 35.6233 20.545 35.6366C20.5521 35.6499 20.5548 35.665 20.5529 35.6799C20.5508 35.6957 20.5436 35.7103 20.5324 35.7215C20.5212 35.7328 20.5065 35.74 20.4908 35.742ZM20.4908 35.3818C20.4759 35.3837 20.4607 35.381 20.4474 35.3739C20.4342 35.3668 20.4235 35.3557 20.4168 35.3422C20.4102 35.3287 20.4079 35.3134 20.4104 35.2986C20.4128 35.2838 20.4199 35.27 20.4305 35.2594C20.4411 35.2488 20.4548 35.2417 20.4697 35.2393C20.4845 35.2368 20.4998 35.2391 20.5133 35.2457C20.5268 35.2524 20.5379 35.2631 20.545 35.2763C20.5521 35.2896 20.5548 35.3048 20.5529 35.3197C20.5508 35.3354 20.5436 35.3501 20.5324 35.3613C20.5212 35.3725 20.5065 35.3797 20.4908 35.3818ZM20.4908 35.0215C20.4759 35.0235 20.4607 35.0207 20.4474 35.0136C20.4342 35.0065 20.4235 34.9954 20.4168 34.9819C20.4102 34.9684 20.4079 34.9532 20.4104 34.9384C20.4128 34.9235 20.4199 34.9098 20.4305 34.8992C20.4411 34.8885 20.4548 34.8815 20.4697 34.879C20.4845 34.8766 20.4998 34.8788 20.5133 34.8855C20.5268 34.8921 20.5379 34.9028 20.545 34.9161C20.5521 34.9294 20.5548 34.9445 20.5529 34.9595C20.5508 34.9752 20.5436 34.9898 20.5324 35.0011C20.5212 35.0123 20.5065 35.0195 20.4908 35.0215ZM20.851 36.4625C20.8361 36.4645 20.8209 36.4617 20.8077 36.4546C20.7944 36.4475 20.7837 36.4364 20.777 36.4229C20.7704 36.4094 20.7681 36.3942 20.7706 36.3793C20.7731 36.3645 20.7801 36.3508 20.7907 36.3401C20.8014 36.3295 20.8151 36.3225 20.8299 36.32C20.8448 36.3175 20.86 36.3198 20.8735 36.3264C20.887 36.3331 20.8981 36.3438 20.9052 36.3571C20.9123 36.3703 20.9151 36.3855 20.9131 36.4004C20.9111 36.4162 20.9039 36.4308 20.8926 36.442C20.8814 36.4533 20.8668 36.4605 20.851 36.4625ZM20.851 36.1023C20.8361 36.1042 20.8209 36.1015 20.8077 36.0944C20.7944 36.0873 20.7837 36.0762 20.777 36.0627C20.7704 36.0492 20.7681 36.0339 20.7706 36.0191C20.7731 36.0042 20.7801 35.9905 20.7907 35.9799C20.8014 35.9693 20.8151 35.9622 20.8299 35.9598C20.8448 35.9573 20.86 35.9596 20.8735 35.9662C20.887 35.9729 20.8981 35.9836 20.9052 35.9968C20.9123 36.0101 20.9151 36.0253 20.9131 36.0402C20.9111 36.0559 20.9039 36.0706 20.8926 36.0818C20.8814 36.093 20.8668 36.1002 20.851 36.1023ZM20.851 35.742C20.8361 35.744 20.8209 35.7412 20.8077 35.7341C20.7944 35.727 20.7837 35.7159 20.777 35.7024C20.7704 35.6889 20.7681 35.6737 20.7706 35.6588C20.7731 35.644 20.7801 35.6303 20.7907 35.6196C20.8014 35.609 20.8151 35.602 20.8299 35.5995C20.8448 35.5971 20.86 35.5993 20.8735 35.606C20.887 35.6126 20.8981 35.6233 20.9052 35.6366C20.9123 35.6499 20.9151 35.665 20.9131 35.6799C20.9111 35.6957 20.9039 35.7103 20.8926 35.7215C20.8814 35.7328 20.8668 35.74 20.851 35.742ZM20.851 35.3818C20.8361 35.3837 20.8209 35.381 20.8077 35.3739C20.7944 35.3668 20.7837 35.3557 20.777 35.3422C20.7704 35.3287 20.7681 35.3134 20.7706 35.2986C20.7731 35.2838 20.7801 35.27 20.7907 35.2594C20.8014 35.2488 20.8151 35.2417 20.8299 35.2393C20.8448 35.2368 20.86 35.2391 20.8735 35.2457C20.887 35.2524 20.8981 35.2631 20.9052 35.2763C20.9123 35.2896 20.9151 35.3048 20.9131 35.3197C20.9111 35.3354 20.9039 35.3501 20.8926 35.3613C20.8814 35.3725 20.8668 35.3797 20.851 35.3818ZM20.851 35.0215C20.8361 35.0235 20.8209 35.0207 20.8077 35.0136C20.7944 35.0065 20.7837 34.9954 20.777 34.9819C20.7704 34.9684 20.7681 34.9532 20.7706 34.9384C20.7731 34.9235 20.7801 34.9098 20.7907 34.8992C20.8014 34.8885 20.8151 34.8815 20.8299 34.879C20.8448 34.8766 20.86 34.8788 20.8735 34.8855C20.887 34.8921 20.8981 34.9028 20.9052 34.9161C20.9123 34.9294 20.9151 34.9445 20.9131 34.9595C20.9111 34.9752 20.9039 34.9898 20.8926 35.0011C20.8814 35.0123 20.8668 35.0195 20.851 35.0215ZM21.6882 36.6072H21.1299V35.4544H21.6342C21.6533 35.4544 21.6716 35.462 21.6851 35.4755C21.6987 35.489 21.7062 35.5074 21.7062 35.5265V36.5892C21.7062 36.594 21.7043 36.5986 21.701 36.6019C21.6976 36.6053 21.693 36.6072 21.6882 36.6072Z" fill="#FCFCFC"/>
<path d="M21.4901 36.319C21.4758 36.319 21.4619 36.3232 21.4501 36.3312C21.4382 36.3391 21.429 36.3503 21.4235 36.3635C21.4181 36.3767 21.4167 36.3911 21.4194 36.4051C21.4222 36.4191 21.4291 36.4319 21.4391 36.442C21.4492 36.4521 21.4621 36.4589 21.476 36.4617C21.49 36.4645 21.5045 36.4631 21.5177 36.4576C21.5308 36.4522 21.5421 36.4429 21.55 36.4311C21.5579 36.4192 21.5621 36.4053 21.5621 36.3911C21.5621 36.372 21.5546 36.3536 21.541 36.3401C21.5275 36.3266 21.5092 36.319 21.4901 36.319Z" fill="#FCFCFC"/>
<path d="M21.4901 35.9588C21.4758 35.9588 21.4619 35.963 21.4501 35.9709C21.4382 35.9788 21.429 35.9901 21.4235 36.0032C21.4181 36.0164 21.4167 36.0309 21.4194 36.0449C21.4222 36.0588 21.4291 36.0717 21.4391 36.0818C21.4492 36.0918 21.4621 36.0987 21.476 36.1015C21.49 36.1043 21.5045 36.1028 21.5177 36.0974C21.5308 36.0919 21.5421 36.0827 21.55 36.0708C21.5579 36.059 21.5621 36.0451 21.5621 36.0308C21.5621 36.0117 21.5546 35.9934 21.541 35.9799C21.5275 35.9664 21.5092 35.9588 21.4901 35.9588Z" fill="#FCFCFC"/>
<path d="M21.4901 35.5985C21.4758 35.5985 21.4619 35.6027 21.4501 35.6107C21.4382 35.6186 21.429 35.6298 21.4235 35.643C21.4181 35.6562 21.4167 35.6707 21.4194 35.6846C21.4222 35.6986 21.4291 35.7114 21.4391 35.7215C21.4492 35.7316 21.4621 35.7385 21.476 35.7412C21.49 35.744 21.5045 35.7426 21.5177 35.7371C21.5308 35.7317 21.5421 35.7224 21.55 35.7106C21.5579 35.6988 21.5621 35.6848 21.5621 35.6706C21.5621 35.6515 21.5546 35.6331 21.541 35.6196C21.5275 35.6061 21.5092 35.5985 21.4901 35.5985Z" fill="#FCFCFC"/>
<path d="M21.2019 36.319C21.1877 36.319 21.1737 36.3232 21.1619 36.3312C21.15 36.3391 21.1408 36.3503 21.1353 36.3635C21.1299 36.3767 21.1285 36.3911 21.1312 36.4051C21.134 36.4191 21.1409 36.4319 21.151 36.442C21.161 36.4521 21.1739 36.4589 21.1878 36.4617C21.2018 36.4645 21.2163 36.4631 21.2295 36.4576C21.2426 36.4522 21.2539 36.4429 21.2618 36.4311C21.2697 36.4192 21.2739 36.4053 21.2739 36.3911C21.2739 36.372 21.2664 36.3536 21.2528 36.3401C21.2393 36.3266 21.221 36.319 21.2019 36.319Z" fill="#FCFCFC"/>
<path d="M21.2019 35.9588C21.1877 35.9588 21.1737 35.963 21.1619 35.9709C21.15 35.9788 21.1408 35.9901 21.1353 36.0032C21.1299 36.0164 21.1285 36.0309 21.1312 36.0449C21.134 36.0588 21.1409 36.0717 21.151 36.0818C21.161 36.0918 21.1739 36.0987 21.1878 36.1015C21.2018 36.1043 21.2163 36.1028 21.2295 36.0974C21.2426 36.0919 21.2539 36.0827 21.2618 36.0708C21.2697 36.059 21.2739 36.0451 21.2739 36.0308C21.2739 36.0117 21.2664 35.9934 21.2528 35.9799C21.2393 35.9664 21.221 35.9588 21.2019 35.9588Z" fill="#FCFCFC"/>
<path d="M21.2019 35.5985C21.1877 35.5985 21.1737 35.6027 21.1619 35.6107C21.15 35.6186 21.1408 35.6298 21.1353 35.643C21.1299 35.6562 21.1285 35.6707 21.1312 35.6846C21.134 35.6986 21.1409 35.7114 21.151 35.7215C21.161 35.7316 21.1739 35.7385 21.1878 35.7412C21.2018 35.744 21.2163 35.7426 21.2295 35.7371C21.2426 35.7317 21.2539 35.7224 21.2618 35.7106C21.2697 35.6988 21.2739 35.6848 21.2739 35.6706C21.2739 35.6515 21.2664 35.6331 21.2528 35.6196C21.2393 35.6061 21.221 35.5985 21.2019 35.5985Z" fill="#FCFCFC"/>
</g>
<rect opacity="0.5" x="23.3777" y="35.0391" width="13.8333" height="1.26806" rx="0.634028" fill="#F0F7FF" fill-opacity="0.6"/>
<g clip-path="url(#clip6_30685_32538)">
<path d="M21.6342 40.3806H21.1299V39.8763C21.1299 39.819 21.1071 39.764 21.0665 39.7235C21.026 39.6829 20.971 39.6602 20.9137 39.6602H20.0491C19.9918 39.6602 19.9368 39.6829 19.8963 39.7235C19.8557 39.764 19.833 39.819 19.833 39.8763V41.7496C19.833 41.7687 19.8406 41.787 19.8541 41.8005C19.8676 41.814 19.8859 41.8216 19.905 41.8216H20.3733C20.3829 41.8216 20.3921 41.8178 20.3988 41.8111C20.4056 41.8043 20.4094 41.7951 20.4094 41.7856V41.4634C20.4094 41.4246 20.4392 41.3913 20.4779 41.3894C20.4877 41.3889 20.4974 41.3905 20.5066 41.3939C20.5157 41.3973 20.5241 41.4025 20.5311 41.4092C20.5382 41.4159 20.5438 41.424 20.5476 41.433C20.5515 41.442 20.5535 41.4516 20.5535 41.4614V41.7856C20.5535 41.7951 20.5573 41.8043 20.564 41.8111C20.5708 41.8178 20.5799 41.8216 20.5895 41.8216H21.7783C21.7974 41.8216 21.8157 41.814 21.8292 41.8005C21.8427 41.787 21.8503 41.7687 21.8503 41.7496V40.5968C21.8503 40.5395 21.8276 40.4845 21.787 40.4439C21.7465 40.4034 21.6915 40.3806 21.6342 40.3806ZM20.1305 41.5328C20.1156 41.5348 20.1005 41.532 20.0872 41.5249C20.0739 41.5178 20.0632 41.5067 20.0566 41.4932C20.0499 41.4797 20.0477 41.4645 20.0501 41.4496C20.0526 41.4348 20.0596 41.4211 20.0702 41.4104C20.0809 41.3998 20.0946 41.3928 20.1094 41.3903C20.1243 41.3879 20.1395 41.3901 20.153 41.3968C20.1665 41.4034 20.1776 41.4141 20.1847 41.4274C20.1918 41.4407 20.1946 41.4558 20.1926 41.4707C20.1906 41.4865 20.1834 41.5011 20.1721 41.5123C20.1609 41.5236 20.1463 41.5308 20.1305 41.5328ZM20.1305 41.1726C20.1156 41.1745 20.1005 41.1718 20.0872 41.1647C20.0739 41.1576 20.0632 41.1465 20.0566 41.133C20.0499 41.1195 20.0477 41.1042 20.0501 41.0894C20.0526 41.0746 20.0596 41.0608 20.0702 41.0502C20.0809 41.0396 20.0946 41.0325 20.1094 41.0301C20.1243 41.0276 20.1395 41.0299 20.153 41.0365C20.1665 41.0432 20.1776 41.0539 20.1847 41.0671C20.1918 41.0804 20.1946 41.0956 20.1926 41.1105C20.1906 41.1262 20.1834 41.1409 20.1721 41.1521C20.1609 41.1633 20.1463 41.1705 20.1305 41.1726ZM20.1305 40.8123C20.1156 40.8143 20.1005 40.8115 20.0872 40.8044C20.0739 40.7973 20.0632 40.7862 20.0566 40.7727C20.0499 40.7592 20.0477 40.744 20.0501 40.7292C20.0526 40.7143 20.0596 40.7006 20.0702 40.69C20.0809 40.6793 20.0946 40.6723 20.1094 40.6698C20.1243 40.6674 20.1395 40.6696 20.153 40.6763C20.1665 40.6829 20.1776 40.6936 20.1847 40.7069C20.1918 40.7202 20.1946 40.7353 20.1926 40.7503C20.1906 40.766 20.1834 40.7806 20.1721 40.7919C20.1609 40.8031 20.1463 40.8103 20.1305 40.8123ZM20.1305 40.4521C20.1156 40.4541 20.1005 40.4513 20.0872 40.4442C20.0739 40.4371 20.0632 40.426 20.0566 40.4125C20.0499 40.399 20.0477 40.3838 20.0501 40.3689C20.0526 40.3541 20.0596 40.3404 20.0702 40.3297C20.0809 40.3191 20.0946 40.312 20.1094 40.3096C20.1243 40.3071 20.1395 40.3094 20.153 40.316C20.1665 40.3227 20.1776 40.3334 20.1847 40.3467C20.1918 40.3599 20.1946 40.3751 20.1926 40.39C20.1906 40.4058 20.1834 40.4204 20.1721 40.4316C20.1609 40.4428 20.1463 40.45 20.1305 40.4521ZM20.1305 40.0919C20.1156 40.0938 20.1005 40.091 20.0872 40.0839C20.0739 40.0768 20.0632 40.0658 20.0566 40.0523C20.0499 40.0388 20.0477 40.0235 20.0501 40.0087C20.0526 39.9938 20.0596 39.9801 20.0702 39.9695C20.0809 39.9588 20.0946 39.9518 20.1094 39.9493C20.1243 39.9469 20.1395 39.9491 20.153 39.9558C20.1665 39.9624 20.1776 39.9732 20.1847 39.9864C20.1918 39.9997 20.1946 40.0148 20.1926 40.0298C20.1906 40.0455 20.1834 40.0601 20.1721 40.0714C20.1609 40.0826 20.1463 40.0898 20.1305 40.0919ZM20.4908 41.1726C20.4759 41.1745 20.4607 41.1718 20.4474 41.1647C20.4342 41.1576 20.4235 41.1465 20.4168 41.133C20.4102 41.1195 20.4079 41.1042 20.4104 41.0894C20.4128 41.0746 20.4199 41.0608 20.4305 41.0502C20.4411 41.0396 20.4548 41.0325 20.4697 41.0301C20.4845 41.0276 20.4998 41.0299 20.5133 41.0365C20.5268 41.0432 20.5379 41.0539 20.545 41.0671C20.5521 41.0804 20.5548 41.0956 20.5529 41.1105C20.5508 41.1262 20.5436 41.1409 20.5324 41.1521C20.5212 41.1633 20.5065 41.1705 20.4908 41.1726ZM20.4908 40.8123C20.4759 40.8143 20.4607 40.8115 20.4474 40.8044C20.4342 40.7973 20.4235 40.7862 20.4168 40.7727C20.4102 40.7592 20.4079 40.744 20.4104 40.7292C20.4128 40.7143 20.4199 40.7006 20.4305 40.69C20.4411 40.6793 20.4548 40.6723 20.4697 40.6698C20.4845 40.6674 20.4998 40.6696 20.5133 40.6763C20.5268 40.6829 20.5379 40.6936 20.545 40.7069C20.5521 40.7202 20.5548 40.7353 20.5529 40.7503C20.5508 40.766 20.5436 40.7806 20.5324 40.7919C20.5212 40.8031 20.5065 40.8103 20.4908 40.8123ZM20.4908 40.4521C20.4759 40.4541 20.4607 40.4513 20.4474 40.4442C20.4342 40.4371 20.4235 40.426 20.4168 40.4125C20.4102 40.399 20.4079 40.3838 20.4104 40.3689C20.4128 40.3541 20.4199 40.3404 20.4305 40.3297C20.4411 40.3191 20.4548 40.312 20.4697 40.3096C20.4845 40.3071 20.4998 40.3094 20.5133 40.316C20.5268 40.3227 20.5379 40.3334 20.545 40.3467C20.5521 40.3599 20.5548 40.3751 20.5529 40.39C20.5508 40.4058 20.5436 40.4204 20.5324 40.4316C20.5212 40.4428 20.5065 40.45 20.4908 40.4521ZM20.4908 40.0919C20.4759 40.0938 20.4607 40.091 20.4474 40.0839C20.4342 40.0768 20.4235 40.0658 20.4168 40.0523C20.4102 40.0388 20.4079 40.0235 20.4104 40.0087C20.4128 39.9938 20.4199 39.9801 20.4305 39.9695C20.4411 39.9588 20.4548 39.9518 20.4697 39.9493C20.4845 39.9469 20.4998 39.9491 20.5133 39.9558C20.5268 39.9624 20.5379 39.9732 20.545 39.9864C20.5521 39.9997 20.5548 40.0148 20.5529 40.0298C20.5508 40.0455 20.5436 40.0601 20.5324 40.0714C20.5212 40.0826 20.5065 40.0898 20.4908 40.0919ZM20.851 41.5328C20.8361 41.5348 20.8209 41.532 20.8077 41.5249C20.7944 41.5178 20.7837 41.5067 20.777 41.4932C20.7704 41.4797 20.7681 41.4645 20.7706 41.4496C20.7731 41.4348 20.7801 41.4211 20.7907 41.4104C20.8014 41.3998 20.8151 41.3928 20.8299 41.3903C20.8448 41.3879 20.86 41.3901 20.8735 41.3968C20.887 41.4034 20.8981 41.4141 20.9052 41.4274C20.9123 41.4407 20.9151 41.4558 20.9131 41.4707C20.9111 41.4865 20.9039 41.5011 20.8926 41.5123C20.8814 41.5236 20.8668 41.5308 20.851 41.5328ZM20.851 41.1726C20.8361 41.1745 20.8209 41.1718 20.8077 41.1647C20.7944 41.1576 20.7837 41.1465 20.777 41.133C20.7704 41.1195 20.7681 41.1042 20.7706 41.0894C20.7731 41.0746 20.7801 41.0608 20.7907 41.0502C20.8014 41.0396 20.8151 41.0325 20.8299 41.0301C20.8448 41.0276 20.86 41.0299 20.8735 41.0365C20.887 41.0432 20.8981 41.0539 20.9052 41.0671C20.9123 41.0804 20.9151 41.0956 20.9131 41.1105C20.9111 41.1262 20.9039 41.1409 20.8926 41.1521C20.8814 41.1633 20.8668 41.1705 20.851 41.1726ZM20.851 40.8123C20.8361 40.8143 20.8209 40.8115 20.8077 40.8044C20.7944 40.7973 20.7837 40.7862 20.777 40.7727C20.7704 40.7592 20.7681 40.744 20.7706 40.7292C20.7731 40.7143 20.7801 40.7006 20.7907 40.69C20.8014 40.6793 20.8151 40.6723 20.8299 40.6698C20.8448 40.6674 20.86 40.6696 20.8735 40.6763C20.887 40.6829 20.8981 40.6936 20.9052 40.7069C20.9123 40.7202 20.9151 40.7353 20.9131 40.7503C20.9111 40.766 20.9039 40.7806 20.8926 40.7919C20.8814 40.8031 20.8668 40.8103 20.851 40.8123ZM20.851 40.4521C20.8361 40.4541 20.8209 40.4513 20.8077 40.4442C20.7944 40.4371 20.7837 40.426 20.777 40.4125C20.7704 40.399 20.7681 40.3838 20.7706 40.3689C20.7731 40.3541 20.7801 40.3404 20.7907 40.3297C20.8014 40.3191 20.8151 40.312 20.8299 40.3096C20.8448 40.3071 20.86 40.3094 20.8735 40.316C20.887 40.3227 20.8981 40.3334 20.9052 40.3467C20.9123 40.3599 20.9151 40.3751 20.9131 40.39C20.9111 40.4058 20.9039 40.4204 20.8926 40.4316C20.8814 40.4428 20.8668 40.45 20.851 40.4521ZM20.851 40.0919C20.8361 40.0938 20.8209 40.091 20.8077 40.0839C20.7944 40.0768 20.7837 40.0658 20.777 40.0523C20.7704 40.0388 20.7681 40.0235 20.7706 40.0087C20.7731 39.9938 20.7801 39.9801 20.7907 39.9695C20.8014 39.9588 20.8151 39.9518 20.8299 39.9493C20.8448 39.9469 20.86 39.9491 20.8735 39.9558C20.887 39.9624 20.8981 39.9732 20.9052 39.9864C20.9123 39.9997 20.9151 40.0148 20.9131 40.0298C20.9111 40.0455 20.9039 40.0601 20.8926 40.0714C20.8814 40.0826 20.8668 40.0898 20.851 40.0919ZM21.6882 41.6775H21.1299V40.5247H21.6342C21.6533 40.5247 21.6716 40.5323 21.6851 40.5458C21.6987 40.5594 21.7062 40.5777 21.7062 40.5968V41.6595C21.7062 41.6643 21.7043 41.6689 21.701 41.6722C21.6976 41.6756 21.693 41.6775 21.6882 41.6775Z" fill="#F0F7FF"/>
<path d="M21.4901 41.3893C21.4758 41.3893 21.4619 41.3935 21.4501 41.4015C21.4382 41.4094 21.429 41.4206 21.4235 41.4338C21.4181 41.447 21.4167 41.4615 21.4194 41.4754C21.4222 41.4894 21.4291 41.5022 21.4391 41.5123C21.4492 41.5224 21.4621 41.5293 21.476 41.532C21.49 41.5348 21.5045 41.5334 21.5177 41.5279C21.5308 41.5225 21.5421 41.5132 21.55 41.5014C21.5579 41.4896 21.5621 41.4756 21.5621 41.4614C21.5621 41.4423 21.5546 41.4239 21.541 41.4104C21.5275 41.3969 21.5092 41.3893 21.4901 41.3893Z" fill="#F0F7FF"/>
<path d="M21.4901 41.0291C21.4758 41.0291 21.4619 41.0333 21.4501 41.0412C21.4382 41.0491 21.429 41.0604 21.4235 41.0736C21.4181 41.0867 21.4167 41.1012 21.4194 41.1152C21.4222 41.1292 21.4291 41.142 21.4391 41.1521C21.4492 41.1622 21.4621 41.169 21.476 41.1718C21.49 41.1746 21.5045 41.1731 21.5177 41.1677C21.5308 41.1622 21.5421 41.153 21.55 41.1412C21.5579 41.1293 21.5621 41.1154 21.5621 41.1011C21.5621 41.082 21.5546 41.0637 21.541 41.0502C21.5275 41.0367 21.5092 41.0291 21.4901 41.0291Z" fill="#F0F7FF"/>
<path d="M21.4901 40.6688C21.4758 40.6688 21.4619 40.6731 21.4501 40.681C21.4382 40.6889 21.429 40.7001 21.4235 40.7133C21.4181 40.7265 21.4167 40.741 21.4194 40.7549C21.4222 40.7689 21.4291 40.7818 21.4391 40.7918C21.4492 40.8019 21.4621 40.8088 21.476 40.8115C21.49 40.8143 21.5045 40.8129 21.5177 40.8074C21.5308 40.802 21.5421 40.7928 21.55 40.7809C21.5579 40.7691 21.5621 40.7551 21.5621 40.7409C21.5621 40.7218 21.5546 40.7035 21.541 40.6899C21.5275 40.6764 21.5092 40.6688 21.4901 40.6688Z" fill="#F0F7FF"/>
<path d="M21.2019 41.3893C21.1877 41.3893 21.1737 41.3935 21.1619 41.4015C21.15 41.4094 21.1408 41.4206 21.1353 41.4338C21.1299 41.447 21.1285 41.4615 21.1312 41.4754C21.134 41.4894 21.1409 41.5022 21.151 41.5123C21.161 41.5224 21.1739 41.5293 21.1878 41.532C21.2018 41.5348 21.2163 41.5334 21.2295 41.5279C21.2426 41.5225 21.2539 41.5132 21.2618 41.5014C21.2697 41.4896 21.2739 41.4756 21.2739 41.4614C21.2739 41.4423 21.2664 41.4239 21.2528 41.4104C21.2393 41.3969 21.221 41.3893 21.2019 41.3893Z" fill="#F0F7FF"/>
<path d="M21.2019 41.0291C21.1877 41.0291 21.1737 41.0333 21.1619 41.0412C21.15 41.0491 21.1408 41.0604 21.1353 41.0736C21.1299 41.0867 21.1285 41.1012 21.1312 41.1152C21.134 41.1292 21.1409 41.142 21.151 41.1521C21.161 41.1622 21.1739 41.169 21.1878 41.1718C21.2018 41.1746 21.2163 41.1731 21.2295 41.1677C21.2426 41.1622 21.2539 41.153 21.2618 41.1412C21.2697 41.1293 21.2739 41.1154 21.2739 41.1011C21.2739 41.082 21.2664 41.0637 21.2528 41.0502C21.2393 41.0367 21.221 41.0291 21.2019 41.0291Z" fill="#F0F7FF"/>
<path d="M21.2019 40.6688C21.1877 40.6688 21.1737 40.6731 21.1619 40.681C21.15 40.6889 21.1408 40.7001 21.1353 40.7133C21.1299 40.7265 21.1285 40.741 21.1312 40.7549C21.134 40.7689 21.1409 40.7818 21.151 40.7918C21.161 40.8019 21.1739 40.8088 21.1878 40.8115C21.2018 40.8143 21.2163 40.8129 21.2295 40.8074C21.2426 40.802 21.2539 40.7928 21.2618 40.7809C21.2697 40.7691 21.2739 40.7551 21.2739 40.7409C21.2739 40.7218 21.2664 40.7035 21.2528 40.6899C21.2393 40.6764 21.221 40.6688 21.2019 40.6688Z" fill="#F0F7FF"/>
</g>
<rect opacity="0.5" x="23.3778" y="40.1094" width="14.0639" height="1.26806" rx="0.634028" fill="#F0F7FF" fill-opacity="0.6"/>
<g clip-path="url(#clip7_30685_32538)">
<path d="M21.6342 45.4549H21.1299V44.9505C21.1299 44.8932 21.1071 44.8382 21.0665 44.7977C21.026 44.7571 20.971 44.7344 20.9137 44.7344H20.0491C19.9918 44.7344 19.9368 44.7571 19.8963 44.7977C19.8557 44.8382 19.833 44.8932 19.833 44.9505V46.8238C19.833 46.8429 19.8406 46.8612 19.8541 46.8747C19.8676 46.8882 19.8859 46.8958 19.905 46.8958H20.3733C20.3829 46.8958 20.3921 46.892 20.3988 46.8853C20.4056 46.8785 20.4094 46.8694 20.4094 46.8598V46.5376C20.4094 46.4988 20.4392 46.4656 20.4779 46.4636C20.4877 46.4632 20.4974 46.4647 20.5066 46.4681C20.5157 46.4715 20.5241 46.4767 20.5311 46.4834C20.5382 46.4902 20.5438 46.4983 20.5476 46.5072C20.5515 46.5162 20.5535 46.5258 20.5535 46.5356V46.8598C20.5535 46.8694 20.5573 46.8785 20.564 46.8853C20.5708 46.892 20.5799 46.8958 20.5895 46.8958H21.7783C21.7974 46.8958 21.8157 46.8882 21.8292 46.8747C21.8427 46.8612 21.8503 46.8429 21.8503 46.8238V45.671C21.8503 45.6137 21.8276 45.5587 21.787 45.5182C21.7465 45.4776 21.6915 45.4549 21.6342 45.4549ZM20.1305 46.6071C20.1156 46.609 20.1005 46.6062 20.0872 46.5991C20.0739 46.592 20.0632 46.581 20.0566 46.5675C20.0499 46.554 20.0477 46.5387 20.0501 46.5239C20.0526 46.509 20.0596 46.4953 20.0702 46.4847C20.0809 46.474 20.0946 46.467 20.1094 46.4645C20.1243 46.4621 20.1395 46.4643 20.153 46.471C20.1665 46.4776 20.1776 46.4883 20.1847 46.5016C20.1918 46.5149 20.1946 46.53 20.1926 46.545C20.1906 46.5607 20.1834 46.5753 20.1721 46.5866C20.1609 46.5978 20.1463 46.605 20.1305 46.6071ZM20.1305 46.2468C20.1156 46.2488 20.1005 46.246 20.0872 46.2389C20.0739 46.2318 20.0632 46.2207 20.0566 46.2072C20.0499 46.1937 20.0477 46.1785 20.0501 46.1636C20.0526 46.1488 20.0596 46.1351 20.0702 46.1244C20.0809 46.1138 20.0946 46.1067 20.1094 46.1043C20.1243 46.1018 20.1395 46.1041 20.153 46.1107C20.1665 46.1174 20.1776 46.1281 20.1847 46.1414C20.1918 46.1546 20.1946 46.1698 20.1926 46.1847C20.1906 46.2005 20.1834 46.2151 20.1721 46.2263C20.1609 46.2375 20.1463 46.2448 20.1305 46.2468ZM20.1305 45.8866C20.1156 45.8885 20.1005 45.8857 20.0872 45.8786C20.0739 45.8715 20.0632 45.8605 20.0566 45.847C20.0499 45.8335 20.0477 45.8182 20.0501 45.8034C20.0526 45.7885 20.0596 45.7748 20.0702 45.7642C20.0809 45.7535 20.0946 45.7465 20.1094 45.744C20.1243 45.7416 20.1395 45.7438 20.153 45.7505C20.1665 45.7571 20.1776 45.7679 20.1847 45.7811C20.1918 45.7944 20.1946 45.8095 20.1926 45.8245C20.1906 45.8402 20.1834 45.8548 20.1721 45.8661C20.1609 45.8773 20.1463 45.8845 20.1305 45.8866ZM20.1305 45.5263C20.1156 45.5283 20.1005 45.5255 20.0872 45.5184C20.0739 45.5113 20.0632 45.5002 20.0566 45.4867C20.0499 45.4732 20.0477 45.458 20.0501 45.4431C20.0526 45.4283 20.0596 45.4146 20.0702 45.4039C20.0809 45.3933 20.0946 45.3863 20.1094 45.3838C20.1243 45.3813 20.1395 45.3836 20.153 45.3903C20.1665 45.3969 20.1776 45.4076 20.1847 45.4209C20.1918 45.4341 20.1946 45.4493 20.1926 45.4642C20.1906 45.48 20.1834 45.4946 20.1721 45.5058C20.1609 45.5171 20.1463 45.5243 20.1305 45.5263ZM20.1305 45.1661C20.1156 45.168 20.1005 45.1653 20.0872 45.1582C20.0739 45.1511 20.0632 45.14 20.0566 45.1265C20.0499 45.113 20.0477 45.0977 20.0501 45.0829C20.0526 45.068 20.0596 45.0543 20.0702 45.0437C20.0809 45.0331 20.0946 45.026 20.1094 45.0236C20.1243 45.0211 20.1395 45.0234 20.153 45.03C20.1665 45.0367 20.1776 45.0474 20.1847 45.0606C20.1918 45.0739 20.1946 45.0891 20.1926 45.104C20.1906 45.1197 20.1834 45.1344 20.1721 45.1456C20.1609 45.1568 20.1463 45.164 20.1305 45.1661ZM20.4908 46.2468C20.4759 46.2488 20.4607 46.246 20.4474 46.2389C20.4342 46.2318 20.4235 46.2207 20.4168 46.2072C20.4102 46.1937 20.4079 46.1785 20.4104 46.1636C20.4128 46.1488 20.4199 46.1351 20.4305 46.1244C20.4411 46.1138 20.4548 46.1067 20.4697 46.1043C20.4845 46.1018 20.4998 46.1041 20.5133 46.1107C20.5268 46.1174 20.5379 46.1281 20.545 46.1414C20.5521 46.1546 20.5548 46.1698 20.5529 46.1847C20.5508 46.2005 20.5436 46.2151 20.5324 46.2263C20.5212 46.2375 20.5065 46.2448 20.4908 46.2468ZM20.4908 45.8866C20.4759 45.8885 20.4607 45.8857 20.4474 45.8786C20.4342 45.8715 20.4235 45.8605 20.4168 45.847C20.4102 45.8335 20.4079 45.8182 20.4104 45.8034C20.4128 45.7885 20.4199 45.7748 20.4305 45.7642C20.4411 45.7535 20.4548 45.7465 20.4697 45.744C20.4845 45.7416 20.4998 45.7438 20.5133 45.7505C20.5268 45.7571 20.5379 45.7679 20.545 45.7811C20.5521 45.7944 20.5548 45.8095 20.5529 45.8245C20.5508 45.8402 20.5436 45.8548 20.5324 45.8661C20.5212 45.8773 20.5065 45.8845 20.4908 45.8866ZM20.4908 45.5263C20.4759 45.5283 20.4607 45.5255 20.4474 45.5184C20.4342 45.5113 20.4235 45.5002 20.4168 45.4867C20.4102 45.4732 20.4079 45.458 20.4104 45.4431C20.4128 45.4283 20.4199 45.4146 20.4305 45.4039C20.4411 45.3933 20.4548 45.3863 20.4697 45.3838C20.4845 45.3813 20.4998 45.3836 20.5133 45.3903C20.5268 45.3969 20.5379 45.4076 20.545 45.4209C20.5521 45.4341 20.5548 45.4493 20.5529 45.4642C20.5508 45.48 20.5436 45.4946 20.5324 45.5058C20.5212 45.5171 20.5065 45.5243 20.4908 45.5263ZM20.4908 45.1661C20.4759 45.168 20.4607 45.1653 20.4474 45.1582C20.4342 45.1511 20.4235 45.14 20.4168 45.1265C20.4102 45.113 20.4079 45.0977 20.4104 45.0829C20.4128 45.068 20.4199 45.0543 20.4305 45.0437C20.4411 45.0331 20.4548 45.026 20.4697 45.0236C20.4845 45.0211 20.4998 45.0234 20.5133 45.03C20.5268 45.0367 20.5379 45.0474 20.545 45.0606C20.5521 45.0739 20.5548 45.0891 20.5529 45.104C20.5508 45.1197 20.5436 45.1344 20.5324 45.1456C20.5212 45.1568 20.5065 45.164 20.4908 45.1661ZM20.851 46.6071C20.8361 46.609 20.8209 46.6062 20.8077 46.5991C20.7944 46.592 20.7837 46.581 20.777 46.5675C20.7704 46.554 20.7681 46.5387 20.7706 46.5239C20.7731 46.509 20.7801 46.4953 20.7907 46.4847C20.8014 46.474 20.8151 46.467 20.8299 46.4645C20.8448 46.4621 20.86 46.4643 20.8735 46.471C20.887 46.4776 20.8981 46.4883 20.9052 46.5016C20.9123 46.5149 20.9151 46.53 20.9131 46.545C20.9111 46.5607 20.9039 46.5753 20.8926 46.5866C20.8814 46.5978 20.8668 46.605 20.851 46.6071ZM20.851 46.2468C20.8361 46.2488 20.8209 46.246 20.8077 46.2389C20.7944 46.2318 20.7837 46.2207 20.777 46.2072C20.7704 46.1937 20.7681 46.1785 20.7706 46.1636C20.7731 46.1488 20.7801 46.1351 20.7907 46.1244C20.8014 46.1138 20.8151 46.1067 20.8299 46.1043C20.8448 46.1018 20.86 46.1041 20.8735 46.1107C20.887 46.1174 20.8981 46.1281 20.9052 46.1414C20.9123 46.1546 20.9151 46.1698 20.9131 46.1847C20.9111 46.2005 20.9039 46.2151 20.8926 46.2263C20.8814 46.2375 20.8668 46.2448 20.851 46.2468ZM20.851 45.8866C20.8361 45.8885 20.8209 45.8857 20.8077 45.8786C20.7944 45.8715 20.7837 45.8605 20.777 45.847C20.7704 45.8335 20.7681 45.8182 20.7706 45.8034C20.7731 45.7885 20.7801 45.7748 20.7907 45.7642C20.8014 45.7535 20.8151 45.7465 20.8299 45.744C20.8448 45.7416 20.86 45.7438 20.8735 45.7505C20.887 45.7571 20.8981 45.7679 20.9052 45.7811C20.9123 45.7944 20.9151 45.8095 20.9131 45.8245C20.9111 45.8402 20.9039 45.8548 20.8926 45.8661C20.8814 45.8773 20.8668 45.8845 20.851 45.8866ZM20.851 45.5263C20.8361 45.5283 20.8209 45.5255 20.8077 45.5184C20.7944 45.5113 20.7837 45.5002 20.777 45.4867C20.7704 45.4732 20.7681 45.458 20.7706 45.4431C20.7731 45.4283 20.7801 45.4146 20.7907 45.4039C20.8014 45.3933 20.8151 45.3863 20.8299 45.3838C20.8448 45.3813 20.86 45.3836 20.8735 45.3903C20.887 45.3969 20.8981 45.4076 20.9052 45.4209C20.9123 45.4341 20.9151 45.4493 20.9131 45.4642C20.9111 45.48 20.9039 45.4946 20.8926 45.5058C20.8814 45.5171 20.8668 45.5243 20.851 45.5263ZM20.851 45.1661C20.8361 45.168 20.8209 45.1653 20.8077 45.1582C20.7944 45.1511 20.7837 45.14 20.777 45.1265C20.7704 45.113 20.7681 45.0977 20.7706 45.0829C20.7731 45.068 20.7801 45.0543 20.7907 45.0437C20.8014 45.0331 20.8151 45.026 20.8299 45.0236C20.8448 45.0211 20.86 45.0234 20.8735 45.03C20.887 45.0367 20.8981 45.0474 20.9052 45.0606C20.9123 45.0739 20.9151 45.0891 20.9131 45.104C20.9111 45.1197 20.9039 45.1344 20.8926 45.1456C20.8814 45.1568 20.8668 45.164 20.851 45.1661ZM21.6882 46.7517H21.1299V45.599H21.6342C21.6533 45.599 21.6716 45.6065 21.6851 45.6201C21.6987 45.6336 21.7062 45.6519 21.7062 45.671V46.7337C21.7062 46.7385 21.7043 46.7431 21.701 46.7465C21.6976 46.7498 21.693 46.7517 21.6882 46.7517Z" fill="#F0F7FF"/>
<path d="M21.4901 46.4635C21.4758 46.4635 21.4619 46.4678 21.4501 46.4757C21.4382 46.4836 21.429 46.4949 21.4235 46.508C21.4181 46.5212 21.4167 46.5357 21.4194 46.5496C21.4222 46.5636 21.4291 46.5765 21.4391 46.5865C21.4492 46.5966 21.4621 46.6035 21.476 46.6063C21.49 46.609 21.5045 46.6076 21.5177 46.6022C21.5308 46.5967 21.5421 46.5875 21.55 46.5756C21.5579 46.5638 21.5621 46.5498 21.5621 46.5356C21.5621 46.5165 21.5546 46.4982 21.541 46.4846C21.5275 46.4711 21.5092 46.4635 21.4901 46.4635Z" fill="#F0F7FF"/>
<path d="M21.4901 46.1033C21.4758 46.1033 21.4619 46.1075 21.4501 46.1154C21.4382 46.1234 21.429 46.1346 21.4235 46.1478C21.4181 46.1609 21.4167 46.1754 21.4194 46.1894C21.4222 46.2034 21.4291 46.2162 21.4391 46.2263C21.4492 46.2364 21.4621 46.2432 21.476 46.246C21.49 46.2488 21.5045 46.2474 21.5177 46.2419C21.5308 46.2365 21.5421 46.2272 21.55 46.2154C21.5579 46.2035 21.5621 46.1896 21.5621 46.1753C21.5621 46.1562 21.5546 46.1379 21.541 46.1244C21.5275 46.1109 21.5092 46.1033 21.4901 46.1033Z" fill="#F0F7FF"/>
<path d="M21.4901 45.7431C21.4758 45.7431 21.4619 45.7473 21.4501 45.7552C21.4382 45.7631 21.429 45.7744 21.4235 45.7875C21.4181 45.8007 21.4167 45.8152 21.4194 45.8292C21.4222 45.8431 21.4291 45.856 21.4391 45.8661C21.4492 45.8761 21.4621 45.883 21.476 45.8858C21.49 45.8885 21.5045 45.8871 21.5177 45.8817C21.5308 45.8762 21.5421 45.867 21.55 45.8551C21.5579 45.8433 21.5621 45.8294 21.5621 45.8151C21.5621 45.796 21.5546 45.7777 21.541 45.7642C21.5275 45.7506 21.5092 45.7431 21.4901 45.7431Z" fill="#F0F7FF"/>
<path d="M21.2019 46.4635C21.1877 46.4635 21.1737 46.4678 21.1619 46.4757C21.15 46.4836 21.1408 46.4949 21.1353 46.508C21.1299 46.5212 21.1285 46.5357 21.1312 46.5496C21.134 46.5636 21.1409 46.5765 21.151 46.5865C21.161 46.5966 21.1739 46.6035 21.1878 46.6063C21.2018 46.609 21.2163 46.6076 21.2295 46.6022C21.2426 46.5967 21.2539 46.5875 21.2618 46.5756C21.2697 46.5638 21.2739 46.5498 21.2739 46.5356C21.2739 46.5165 21.2664 46.4982 21.2528 46.4846C21.2393 46.4711 21.221 46.4635 21.2019 46.4635Z" fill="#F0F7FF"/>
<path d="M21.2019 46.1033C21.1877 46.1033 21.1737 46.1075 21.1619 46.1154C21.15 46.1234 21.1408 46.1346 21.1353 46.1478C21.1299 46.1609 21.1285 46.1754 21.1312 46.1894C21.134 46.2034 21.1409 46.2162 21.151 46.2263C21.161 46.2364 21.1739 46.2432 21.1878 46.246C21.2018 46.2488 21.2163 46.2474 21.2295 46.2419C21.2426 46.2365 21.2539 46.2272 21.2618 46.2154C21.2697 46.2035 21.2739 46.1896 21.2739 46.1753C21.2739 46.1562 21.2664 46.1379 21.2528 46.1244C21.2393 46.1109 21.221 46.1033 21.2019 46.1033Z" fill="#F0F7FF"/>
<path d="M21.2019 45.7431C21.1877 45.7431 21.1737 45.7473 21.1619 45.7552C21.15 45.7631 21.1408 45.7744 21.1353 45.7875C21.1299 45.8007 21.1285 45.8152 21.1312 45.8292C21.134 45.8431 21.1409 45.856 21.151 45.8661C21.161 45.8761 21.1739 45.883 21.1878 45.8858C21.2018 45.8885 21.2163 45.8871 21.2295 45.8817C21.2426 45.8762 21.2539 45.867 21.2618 45.8551C21.2697 45.8433 21.2739 45.8294 21.2739 45.8151C21.2739 45.796 21.2664 45.7777 21.2528 45.7642C21.2393 45.7506 21.221 45.7431 21.2019 45.7431Z" fill="#F0F7FF"/>
</g>
<rect opacity="0.5" x="23.3778" y="45.1836" width="14.0639" height="1.26806" rx="0.634028" fill="#F0F7FF" fill-opacity="0.6"/>
<g opacity="0.03">
<path d="M26.6456 55.9361C27.9858 53.1875 30.8135 50.6602 35.055 50.6602C35.26 50.6602 35.465 50.6654 35.6804 50.676C37.9405 50.8813 42.1399 52.3819 40.8365 54.4038C40.3897 55.0041 39.5278 55.1199 38.9338 54.6619C37.089 53.0138 33.4625 52.9243 31.6229 54.2301C28.9897 55.736 29.2157 57.9264 28.1803 58.2423C27.497 58.4003 26.8348 58.6583 26.2409 59.0269C25.5681 59.4428 24.99 59.9746 24.5169 60.6117C24.3172 60.9435 23.9808 61.212 23.5656 61.1646C22.9349 61.1225 22.2412 61.0698 21.2951 61.6174C19.0719 62.9654 19.466 65.7244 21.4633 66.8565C21.9941 67.1566 22.5986 67.3041 23.2135 67.3041H26.2724C28.0542 67.3409 28.0226 69.9315 26.2409 69.9473H22.8824C22.5986 69.9473 22.32 69.921 22.0414 69.863C22.0362 69.863 22.0257 69.863 22.0151 69.8578C15.193 68.3624 15.5819 59.0532 22.793 58.4951C23.8127 57.3209 25.1582 56.4258 26.6403 55.9255M35.3125 59.2111L29.3208 67.9043C28.9056 68.5098 29.0633 69.3312 29.673 69.7419C30.2827 70.1526 31.1183 69.9947 31.5388 69.3944L37.5305 60.7013C38.9917 58.4635 42.4027 58.5477 44.0794 60.4801C47.3958 64.1501 42.6813 69.4629 38.2243 66.4405C36.7947 65.4401 35.239 67.5726 36.658 68.5888C37.4201 69.1259 38.9233 69.9683 40.8995 69.9683C47.9319 69.7525 49.5087 62.223 46.0871 58.7267C44.7574 57.184 42.7654 56.3942 40.7892 56.3942C38.6553 56.3942 36.5424 57.3156 35.3073 59.2111" fill="url(#paint0_linear_30685_32538)"/>
</g>
</g>
<rect width="133.031" height="14.0639" transform="translate(48.9695 14)" fill="white"/>
<path d="M51.7362 23.5108H179.233C179.966 23.5108 180.559 24.1043 180.559 24.8365V26.6809C180.559 27.4131 179.966 28.0066 179.233 28.0066H51.7362C51.004 28.0066 50.4105 27.4131 50.4105 26.6809V24.8365C50.4105 24.1043 51.004 23.5108 51.7362 23.5108Z" fill="#F9F9FB"/>
<path d="M51.7362 23.5108H179.233C179.966 23.5108 180.559 24.1043 180.559 24.8365V26.6809C180.559 27.4131 179.966 28.0066 179.233 28.0066H51.7362C51.004 28.0066 50.4105 27.4131 50.4105 26.6809V24.8365C50.4105 24.1043 51.004 23.5108 51.7362 23.5108Z" stroke="#E0E0EB" stroke-width="0.115278"/>
<g clip-path="url(#clip8_30685_32538)">
<path d="M54.6686 25.3371C54.6686 25.2769 54.6447 25.2192 54.6021 25.1766C54.5596 25.1341 54.5018 25.1102 54.4417 25.1102H53.5505C53.5313 25.1102 53.5125 25.1046 53.4966 25.0939L53.3839 25.0186C53.3466 24.9937 53.3027 24.9804 53.2578 24.9805H52.9503C52.8901 24.9805 52.8323 25.0044 52.7898 25.0469C52.7472 25.0895 52.7233 25.1472 52.7233 25.2074V25.402C52.7233 25.4106 52.7267 25.4188 52.7328 25.4249C52.7389 25.431 52.7471 25.4344 52.7557 25.4344H54.6362C54.6448 25.4344 54.653 25.431 54.6591 25.4249C54.6652 25.4188 54.6686 25.4106 54.6686 25.402V25.3371Z" fill="#8585AD"/>
<path d="M52.7233 26.3098C52.7233 26.37 52.7472 26.4277 52.7898 26.4702C52.8323 26.5128 52.8901 26.5367 52.9503 26.5367H54.4417C54.5018 26.5367 54.5596 26.5128 54.6021 26.4702C54.6447 26.4277 54.6686 26.37 54.6686 26.3098V25.5965C54.6686 25.5879 54.6652 25.5796 54.6591 25.5736C54.653 25.5675 54.6448 25.5641 54.6362 25.5641H52.7557C52.7471 25.5641 52.7389 25.5675 52.7328 25.5736C52.7267 25.5796 52.7233 25.5879 52.7233 25.5965V26.3098Z" fill="#8585AD"/>
</g>
<rect x="55.4251" y="24.8945" width="8.87639" height="1.72917" rx="0.691667" fill="#C2C2D6"/>
<g clip-path="url(#clip9_30685_32538)">
<path d="M68.8027 25.6297H68.2354C68.1838 25.6297 68.1343 25.6092 68.0978 25.5727C68.0613 25.5362 68.0408 25.4867 68.0408 25.4352V24.8678C68.0408 24.8635 68.0391 24.8594 68.0361 24.8563C68.033 24.8533 68.0289 24.8516 68.0246 24.8516H67.6518C67.583 24.8516 67.517 24.8789 67.4684 24.9275C67.4197 24.9762 67.3924 25.0421 67.3924 25.1109V26.4078C67.3924 26.4766 67.4197 26.5426 67.4684 26.5912C67.517 26.6399 67.583 26.6672 67.6518 26.6672H68.5596C68.6284 26.6672 68.6943 26.6399 68.743 26.5912C68.7916 26.5426 68.819 26.4766 68.819 26.4078V25.6459C68.819 25.6416 68.8172 25.6375 68.8142 25.6344C68.8112 25.6314 68.807 25.6297 68.8027 25.6297Z" fill="#8585AD"/>
<path d="M68.7672 25.4862L68.1843 24.9034C68.1832 24.9022 68.1818 24.9015 68.1802 24.9012C68.1786 24.9008 68.177 24.901 68.1755 24.9016C68.1741 24.9022 68.1728 24.9033 68.1719 24.9046C68.171 24.9059 68.1705 24.9075 68.1705 24.9091V25.4352C68.1705 25.4524 68.1774 25.4688 68.1895 25.481C68.2017 25.4932 68.2182 25.5 68.2354 25.5H68.7614C68.763 25.5 68.7646 25.4995 68.7659 25.4986C68.7673 25.4977 68.7683 25.4965 68.7689 25.495C68.7695 25.4935 68.7697 25.4919 68.7694 25.4903C68.7691 25.4888 68.7683 25.4873 68.7672 25.4862Z" fill="#8585AD"/>
</g>
<rect x="69.8348" y="24.8945" width="11.7583" height="1.72917" rx="0.691667" fill="#C2C2D6"/>
<rect x="133.122" y="24.8945" width="8.87639" height="1.72917" rx="0.691667" fill="#C2C2D6"/>
<path d="M143.757 27.1417C143.757 27.1894 143.795 27.2281 143.843 27.2281C143.891 27.2281 143.93 27.1894 143.93 27.1417L143.757 27.1417ZM143.757 24.375L143.757 27.1417L143.93 27.1417L143.93 24.375L143.757 24.375Z" fill="#C2C2D6"/>
<rect x="145.688" y="24.8945" width="17.5222" height="1.72917" rx="0.691667" fill="#C2C2D6"/>
<path d="M165.054 25.0667C165.054 24.6847 165.364 24.375 165.746 24.375H178.081C178.463 24.375 178.772 24.6847 178.772 25.0667V26.45C178.772 26.832 178.463 27.1417 178.081 27.1417H165.746C165.364 27.1417 165.054 26.832 165.054 26.45V25.0667Z" fill="white"/>
<path d="M165.054 24.8361C165.054 24.5814 165.261 24.375 165.515 24.375H167.36C167.614 24.375 167.821 24.5814 167.821 24.8361V26.6806C167.821 26.9352 167.614 27.1417 167.36 27.1417H165.515C165.261 27.1417 165.054 26.9352 165.054 26.6806V24.8361Z" fill="#F3F3F7"/>
<g clip-path="url(#clip10_30685_32538)">
<path d="M166.25 25.7024H165.76C165.726 25.7024 165.693 25.6888 165.669 25.6644C165.644 25.6401 165.631 25.6071 165.631 25.5727V25.0828C165.631 25.0484 165.644 25.0154 165.669 24.9911C165.693 24.9668 165.726 24.9531 165.76 24.9531H166.25C166.285 24.9531 166.318 24.9668 166.342 24.9911C166.366 25.0154 166.38 25.0484 166.38 25.0828V25.5727C166.38 25.6071 166.366 25.6401 166.342 25.6644C166.318 25.6888 166.285 25.7024 166.25 25.7024Z" fill="#8585AD"/>
<path d="M167.115 25.7024H166.625C166.591 25.7024 166.558 25.6888 166.533 25.6644C166.509 25.6401 166.495 25.6071 166.495 25.5727V25.0828C166.495 25.0484 166.509 25.0154 166.533 24.9911C166.558 24.9668 166.591 24.9531 166.625 24.9531H167.115C167.149 24.9531 167.182 24.9668 167.207 24.9911C167.231 25.0154 167.245 25.0484 167.245 25.0828V25.5727C167.245 25.6071 167.231 25.6401 167.207 25.6644C167.182 25.6888 167.149 25.7024 167.115 25.7024Z" fill="#8585AD"/>
<path d="M166.25 26.567H165.76C165.726 26.567 165.693 26.5534 165.669 26.529C165.644 26.5047 165.631 26.4717 165.631 26.4373V25.9474C165.631 25.913 165.644 25.88 165.669 25.8557C165.693 25.8314 165.726 25.8177 165.76 25.8177H166.25C166.285 25.8177 166.318 25.8314 166.342 25.8557C166.366 25.88 166.38 25.913 166.38 25.9474V26.4373C166.38 26.4717 166.366 26.5047 166.342 26.529C166.318 26.5534 166.285 26.567 166.25 26.567Z" fill="#8585AD"/>
<path d="M167.115 26.567H166.625C166.591 26.567 166.558 26.5534 166.533 26.529C166.509 26.5047 166.495 26.4717 166.495 26.4373V25.9474C166.495 25.913 166.509 25.88 166.533 25.8557C166.558 25.8314 166.591 25.8177 166.625 25.8177H167.115C167.149 25.8177 167.182 25.8314 167.207 25.8557C167.231 25.88 167.245 25.913 167.245 25.9474V26.4373C167.245 26.4717 167.231 26.5047 167.207 26.529C167.182 26.5534 167.149 26.567 167.115 26.567Z" fill="#8585AD"/>
</g>
<g clip-path="url(#clip11_30685_32538)">
<path fill-rule="evenodd" clip-rule="evenodd" d="M169.377 25.3536C169.377 25.2899 169.429 25.2383 169.492 25.2383C169.556 25.2383 169.608 25.2899 169.608 25.3536C169.608 25.4172 169.556 25.4688 169.492 25.4688C169.429 25.4688 169.377 25.4172 169.377 25.3536ZM169.723 25.3536C169.723 25.3217 169.749 25.2959 169.781 25.2959H170.818C170.85 25.2959 170.876 25.3217 170.876 25.3536C170.876 25.3854 170.85 25.4112 170.818 25.4112H169.781C169.749 25.4112 169.723 25.3854 169.723 25.3536ZM169.377 25.757C169.377 25.6934 169.429 25.6418 169.492 25.6418C169.556 25.6418 169.608 25.6934 169.608 25.757C169.608 25.8207 169.556 25.8723 169.492 25.8723C169.429 25.8723 169.377 25.8207 169.377 25.757ZM169.723 25.757C169.723 25.7252 169.749 25.6994 169.781 25.6994H170.818C170.85 25.6994 170.876 25.7252 170.876 25.757C170.876 25.7889 170.85 25.8147 170.818 25.8147H169.781C169.749 25.8147 169.723 25.7889 169.723 25.757ZM169.377 26.1605C169.377 26.0968 169.429 26.0452 169.492 26.0452C169.556 26.0452 169.608 26.0968 169.608 26.1605C169.608 26.2242 169.556 26.2758 169.492 26.2758C169.429 26.2758 169.377 26.2242 169.377 26.1605ZM169.723 26.1605C169.723 26.1287 169.749 26.1029 169.781 26.1029H170.818C170.85 26.1029 170.876 26.1287 170.876 26.1605C170.876 26.1923 170.85 26.2181 170.818 26.2181H169.781C169.749 26.2181 169.723 26.1923 169.723 26.1605Z" fill="#004299"/>
</g>
<g clip-path="url(#clip12_30685_32538)">
<path fill-rule="evenodd" clip-rule="evenodd" d="M178.003 25.2525C178.027 25.2735 178.03 25.3099 178.009 25.3339L177.202 26.2561C177.191 26.2681 177.176 26.2752 177.16 26.2757C177.144 26.2763 177.129 26.2702 177.118 26.2589L176.772 25.9131C176.749 25.8906 176.749 25.8541 176.772 25.8316C176.794 25.809 176.831 25.809 176.853 25.8316L177.156 26.1338L177.922 25.258C177.943 25.234 177.979 25.2316 178.003 25.2525Z" fill="#004299"/>
</g>
<rect width="130.264" height="9.45278" transform="translate(50.3529 14)" fill="white"/>
<path d="M52.1973 17.5744C52.1973 17.3197 52.4038 17.1133 52.6584 17.1133H55.8862C56.1409 17.1133 56.3473 17.3197 56.3473 17.5744V20.8022C56.3473 21.0568 56.1409 21.2633 55.8862 21.2633H52.6584C52.4038 21.2633 52.1973 21.0568 52.1973 20.8022V17.5744Z" fill="white"/>
<g clip-path="url(#clip13_30685_32538)">
<path fill-rule="evenodd" clip-rule="evenodd" d="M54.673 18.4613C54.7152 18.5035 54.7152 18.572 54.673 18.6142L54.1009 19.1862L54.673 19.7582C54.7152 19.8004 54.7152 19.8688 54.673 19.9111C54.6308 19.9533 54.5623 19.9533 54.5201 19.9111L53.8717 19.2626C53.8295 19.2204 53.8295 19.152 53.8717 19.1098L54.5201 18.4613C54.5623 18.4191 54.6308 18.4191 54.673 18.4613Z" fill="#4092FF"/>
</g>
<line x1="58.2494" y1="17.8047" x2="58.2494" y2="20.5714" stroke="#C2C2D6" stroke-width="0.115278"/>
<g clip-path="url(#clip14_30685_32538)">
<path d="M61.0962 18.562C61.0902 18.5563 61.0822 18.553 61.0738 18.553C61.0655 18.553 61.0574 18.5563 61.0514 18.562L60.3053 19.2748C60.3021 19.2778 60.2996 19.2815 60.2979 19.2855C60.2962 19.2895 60.2953 19.2939 60.2953 19.2982L60.2952 19.9672C60.2952 20.0016 60.3088 20.0346 60.3332 20.0589C60.3575 20.0832 60.3905 20.0969 60.4249 20.0969H60.8143C60.8315 20.0969 60.848 20.09 60.8602 20.0779C60.8723 20.0657 60.8792 20.0492 60.8792 20.032V19.4809C60.8792 19.4723 60.8826 19.464 60.8887 19.4579C60.8947 19.4519 60.903 19.4484 60.9116 19.4484H61.2358C61.2444 19.4484 61.2527 19.4519 61.2587 19.4579C61.2648 19.464 61.2682 19.4723 61.2682 19.4809V20.032C61.2682 20.0492 61.2751 20.0657 61.2872 20.0779C61.2994 20.09 61.3159 20.0969 61.3331 20.0969H61.7224C61.7568 20.0969 61.7898 20.0832 61.8141 20.0589C61.8384 20.0346 61.8521 20.0016 61.8521 19.9672V19.2982C61.8521 19.2939 61.8512 19.2895 61.8495 19.2855C61.8477 19.2815 61.8452 19.2778 61.8421 19.2748L61.0962 18.562Z" fill="#004299"/>
<path d="M62.0257 19.141L61.7226 18.851V18.4109C61.7226 18.3937 61.7158 18.3772 61.7036 18.3651C61.6914 18.3529 61.6749 18.3461 61.6577 18.3461H61.4632C61.446 18.3461 61.4295 18.3529 61.4174 18.3651C61.4052 18.3772 61.3984 18.3937 61.3984 18.4109V18.5406L61.1636 18.3162C61.1417 18.294 61.109 18.2812 61.0737 18.2812C61.0385 18.2812 61.0059 18.294 60.984 18.3162L60.122 19.141C60.0967 19.1653 60.0936 19.2053 60.1165 19.2316C60.1223 19.2383 60.1293 19.2437 60.1373 19.2475C60.1452 19.2513 60.1538 19.2535 60.1626 19.2539C60.1714 19.2543 60.1801 19.2529 60.1884 19.2498C60.1966 19.2467 60.2041 19.242 60.2105 19.2359L61.0514 18.4323C61.0574 18.4266 61.0655 18.4233 61.0738 18.4233C61.0822 18.4233 61.0902 18.4266 61.0962 18.4323L61.9373 19.2359C61.9496 19.2478 61.9662 19.2543 61.9834 19.2539C62.0006 19.2536 62.0169 19.2465 62.0288 19.2341C62.0537 19.2084 62.0516 19.1658 62.0257 19.141Z" fill="#004299"/>
</g>
<rect x="63.0334" y="18.3242" width="17.5222" height="1.72917" rx="0.691667" fill="#004299"/>
<rect x="136.581" y="16.7656" width="4.84167" height="4.84167" rx="2.42083" fill="white"/>
<path d="M139.996 20.0058L139.53 19.5397C139.642 19.3903 139.702 19.2085 139.702 19.0217C139.702 18.5445 139.314 18.1562 138.837 18.1562C138.359 18.1562 137.971 18.5445 137.971 19.0217C137.971 19.4989 138.359 19.8871 138.837 19.8871C139.023 19.8873 139.205 19.8268 139.355 19.7146L139.821 20.1806C139.844 20.2017 139.875 20.213 139.907 20.2121C139.938 20.2112 139.968 20.1982 139.991 20.1759C140.013 20.1535 140.026 20.1234 140.027 20.0918C140.028 20.0601 140.017 20.0294 139.996 20.0058V20.0058ZM138.218 19.0217C138.218 18.8994 138.255 18.7799 138.323 18.6783C138.391 18.5766 138.487 18.4974 138.6 18.4506C138.713 18.4038 138.837 18.3915 138.957 18.4154C139.077 18.4393 139.187 18.4981 139.274 18.5846C139.36 18.671 139.419 18.7812 139.443 18.9011C139.467 19.021 139.455 19.1453 139.408 19.2583C139.361 19.3712 139.282 19.4678 139.18 19.5357C139.078 19.6036 138.959 19.6399 138.837 19.6399C138.673 19.6397 138.516 19.5745 138.4 19.4586C138.284 19.3427 138.219 19.1856 138.218 19.0217V19.0217Z" fill="#8585AD"/>
<path d="M143.267 18.149C143.267 17.385 143.886 16.7656 144.65 16.7656H146.725C147.489 16.7656 148.108 17.385 148.108 18.149V20.224C148.108 20.988 147.489 21.6073 146.725 21.6073H144.65C143.886 21.6073 143.267 20.988 143.267 20.224V18.149Z" fill="white"/>
<g clip-path="url(#clip15_30685_32538)">
<path d="M146.599 19.6102C146.591 19.6003 146.583 19.5904 146.575 19.5809C146.466 19.4491 146.4 19.3695 146.4 18.9964C146.4 18.8032 146.354 18.6447 146.263 18.5258C146.196 18.438 146.105 18.3714 145.985 18.3221C145.984 18.3213 145.982 18.3201 145.981 18.3188C145.938 18.1747 145.82 18.0781 145.688 18.0781C145.555 18.0781 145.437 18.1747 145.394 18.3187C145.393 18.3199 145.391 18.321 145.39 18.3219C145.111 18.4368 144.975 18.6574 144.975 18.9962C144.975 19.3695 144.909 19.4491 144.8 19.5807C144.792 19.5903 144.784 19.6 144.776 19.6101C144.755 19.6357 144.741 19.6669 144.737 19.6999C144.733 19.7329 144.738 19.7664 144.753 19.7964C144.783 19.8608 144.848 19.9008 144.923 19.9008H146.453C146.527 19.9008 146.592 19.8609 146.622 19.7968C146.637 19.7668 146.642 19.7332 146.638 19.7002C146.634 19.6671 146.621 19.6359 146.599 19.6102Z" fill="#8585AD"/>
<path d="M145.688 20.2972C145.759 20.2972 145.829 20.2777 145.891 20.241C145.952 20.2043 146.003 20.1516 146.036 20.0885C146.038 20.0855 146.039 20.0821 146.039 20.0787C146.039 20.0753 146.038 20.072 146.036 20.069C146.034 20.0661 146.032 20.0637 146.029 20.062C146.026 20.0603 146.022 20.0595 146.019 20.0595H145.356C145.353 20.0594 145.349 20.0603 145.346 20.062C145.344 20.0637 145.341 20.0661 145.339 20.069C145.337 20.0719 145.336 20.0753 145.336 20.0787C145.336 20.0821 145.337 20.0855 145.339 20.0885C145.373 20.1516 145.423 20.2042 145.484 20.241C145.546 20.2777 145.616 20.2972 145.688 20.2972Z" fill="#8585AD"/>
</g>
<circle cx="146.379" cy="18.1526" r="0.605208" fill="#CC3347" stroke="#FCFCFC" stroke-width="0.172917"/>
<line x1="151.855" y1="17.8047" x2="151.855" y2="20.5714" stroke="#E0E0EB" stroke-width="0.115278"/>
<g clip-path="url(#clip16_30685_32538)">
<rect x="161.481" y="18.2695" width="4.72639" height="1.84444" rx="0.691667" fill="#C2C2D6"/>
<rect x="166.668" y="18.2695" width="9.56806" height="1.84444" rx="0.691667" fill="#C2C2D6"/>
<g clip-path="url(#clip17_30685_32538)">
<path fill-rule="evenodd" clip-rule="evenodd" d="M177.082 18.8293C177.12 18.7913 177.182 18.7913 177.22 18.8293L177.735 19.3441L178.25 18.8293C178.288 18.7913 178.349 18.7913 178.387 18.8293C178.425 18.8673 178.425 18.9288 178.387 18.9668L177.804 19.5504C177.766 19.5884 177.704 19.5884 177.666 19.5504L177.082 18.9668C177.044 18.9288 177.044 18.8673 177.082 18.8293Z" fill="#3D3D5C"/>
</g>
<circle cx="157.792" cy="19.1884" r="2.24792" fill="#CCE2FF" stroke="#FCFCFC" stroke-width="0.115278"/>
<path d="M157.368 18.7531H158.216V18.8661H157.857V19.8828H157.728V18.8661H157.368V18.7531Z" fill="#4092FF"/>
<g clip-path="url(#clip18_30685_32538)">
<path d="M156.178 20.4404C155.868 20.4404 155.616 20.1883 155.616 19.8784C155.616 19.5685 155.868 19.3164 156.178 19.3164C156.488 19.3164 156.74 19.5685 156.74 19.8784C156.74 20.1883 156.488 20.4404 156.178 20.4404Z" fill="#33CC70"/>
</g>
<rect x="155.486" y="19.1875" width="1.38333" height="1.38333" rx="0.691667" stroke="white" stroke-width="0.230556"/>
</g>
</g>
</g>
<path d="M178.094 12.698H19.9059C17.0297 12.698 14.698 15.0297 14.698 17.9059V106.708C14.698 109.584 17.0297 111.916 19.9059 111.916H178.094C180.97 111.916 183.302 109.584 183.302 106.708V17.9059C183.302 15.0297 180.97 12.698 178.094 12.698Z" stroke="white" stroke-width="2.60392" shape-rendering="crispEdges"/>
</g>
<defs>
<filter id="filter0_d_30685_32538" x="0.376479" y="0.978844" width="197.247" height="127.863" filterUnits="userSpaceOnUse" color-interpolation-filters="sRGB">
<feFlood flood-opacity="0" result="BackgroundImageFix"/>
<feColorMatrix in="SourceAlpha" type="matrix" values="0 0 0 0 0 0 0 0 0 0 0 0 0 0 0 0 0 0 127 0" result="hardAlpha"/>
<feOffset dy="2.60392"/>
<feGaussianBlur stdDeviation="6.5098"/>
<feComposite in2="hardAlpha" operator="out"/>
<feColorMatrix type="matrix" values="0 0 0 0 0 0 0 0 0 0 0 0 0 0 0 0 0 0 0.15 0"/>
<feBlend mode="normal" in2="BackgroundImageFix" result="effect1_dropShadow_30685_32538"/>
<feBlend mode="normal" in="SourceGraphic" in2="effect1_dropShadow_30685_32538" result="shape"/>
</filter>
<linearGradient id="paint0_linear_30685_32538" x1="32.4691" y1="41.9301" x2="32.506" y2="89.6609" gradientUnits="userSpaceOnUse">
<stop stop-color="#53C9FF"/>
<stop offset="1" stop-color="#006EFF"/>
</linearGradient>
<clipPath id="clip0_30685_32538">
<path d="M16 17.9059C16 15.7487 17.7487 14 19.9059 14H178.094C180.251 14 182 15.7487 182 17.9059V106.708C182 108.865 180.251 110.614 178.094 110.614H19.9059C17.7487 110.614 16 108.865 16 106.708V17.9059Z" fill="white"/>
</clipPath>
<clipPath id="clip1_30685_32538">
<rect width="166" height="118.044" fill="white" transform="translate(16 14)"/>
</clipPath>
<clipPath id="clip2_30685_32538">
<path d="M16 14H47.5861C48.3501 14 48.9694 14.6193 48.9694 15.3833V130.661C48.9694 131.425 48.3501 132.044 47.5861 132.044H16V14Z" fill="white"/>
</clipPath>
<clipPath id="clip3_30685_32538">
<rect width="2.30556" height="2.30556" fill="white" transform="translate(46.2029 18.6719) rotate(90)"/>
</clipPath>
<clipPath id="clip4_30685_32538">
<rect width="2.30556" height="2.30556" fill="white" transform="translate(43.8972 19.5938) rotate(-90)"/>
</clipPath>
<clipPath id="clip5_30685_32538">
<rect width="2.30556" height="2.30556" fill="white" transform="translate(19.6889 34.5195)"/>
</clipPath>
<clipPath id="clip6_30685_32538">
<rect width="2.30556" height="2.30556" fill="white" transform="translate(19.6889 39.5898)"/>
</clipPath>
<clipPath id="clip7_30685_32538">
<rect width="2.30556" height="2.30556" fill="white" transform="translate(19.6889 44.6641)"/>
</clipPath>
<clipPath id="clip8_30685_32538">
<rect width="2.075" height="2.075" fill="white" transform="translate(52.6584 24.7227)"/>
</clipPath>
<clipPath id="clip9_30685_32538">
<rect width="2.075" height="2.075" fill="white" transform="translate(67.0682 24.7227)"/>
</clipPath>
<clipPath id="clip10_30685_32538">
<rect width="1.84444" height="1.84444" fill="white" transform="translate(165.515 24.8359)"/>
</clipPath>
<clipPath id="clip11_30685_32538">
<rect width="1.84444" height="1.84444" fill="white" transform="translate(169.204 24.8359)"/>
</clipPath>
<clipPath id="clip12_30685_32538">
<rect width="1.84444" height="1.84444" fill="white" transform="translate(176.467 24.8359)"/>
</clipPath>
<clipPath id="clip13_30685_32538">
<rect width="2.30556" height="2.30556" fill="white" transform="translate(53.1195 18.0352)"/>
</clipPath>
<clipPath id="clip14_30685_32538">
<rect width="2.075" height="2.075" fill="white" transform="translate(60.0362 18.1523)"/>
</clipPath>
<clipPath id="clip15_30685_32538">
<rect width="2.53611" height="2.53611" fill="white" transform="translate(144.42 17.918)"/>
</clipPath>
<clipPath id="clip16_30685_32538">
<rect width="23.2861" height="4.61111" fill="white" transform="translate(155.486 16.8828)"/>
</clipPath>
<clipPath id="clip17_30685_32538">
<rect width="2.075" height="2.075" fill="white" transform="translate(176.697 18.1523)"/>
</clipPath>
<clipPath id="clip18_30685_32538">
<rect x="155.486" y="19.1875" width="1.38333" height="1.38333" rx="0.691667" fill="white"/>
</clipPath>
</defs>
</svg>
