<svg width="56" height="56" viewBox="0 0 56 56" fill="none" xmlns="http://www.w3.org/2000/svg">
<g opacity="0.3">
<path d="M14.0723 2H29.8451L43.1977 15.9236V43.0003C43.1977 46.3815 40.451 49.1282 37.0608 49.1282H14.0723C10.6911 49.1282 7.94446 46.3815 7.94446 43.0003V8.12785C7.9444 4.74663 10.691 2 14.0723 2V2Z" fill="url(#paint0_linear_1151_18942)"/>
<path opacity="0.302" fill-rule="evenodd" clip-rule="evenodd" d="M29.827 2V15.8149H43.1977L29.827 2Z" fill="white"/>
</g>
<path d="M18.9441 6.87183H34.7169L48.0695 20.7954V47.8721C48.0695 51.2534 45.3229 54 41.9326 54H18.9441C15.5629 54 12.8163 51.2534 12.8163 47.8721V12.9997C12.8162 9.61846 15.5629 6.87183 18.9441 6.87183V6.87183Z" fill="url(#paint1_linear_1151_18942)"/>
<path opacity="0.302" fill-rule="evenodd" clip-rule="evenodd" d="M34.6989 6.87183V20.6867H48.0695L34.6989 6.87183Z" fill="white"/>
<g filter="url(#filter0_d_1151_18942)">
<path fill-rule="evenodd" clip-rule="evenodd" d="M29.6787 28.7583C30.0354 28.4015 30.6138 28.4015 30.9705 28.7583L36.4513 34.2391C36.8081 34.5958 36.8081 35.1742 36.4513 35.5309L30.9705 41.0118C30.6138 41.3685 30.0354 41.3685 29.6787 41.0118C29.322 40.655 29.322 40.0766 29.6787 39.7199L33.6001 35.7985H23.9303C23.4258 35.7985 23.0168 35.3895 23.0168 34.885C23.0168 34.3805 23.4258 33.9715 23.9303 33.9715H33.6001L29.6787 30.0501C29.322 29.6934 29.322 29.115 29.6787 28.7583Z" fill="white"/>
</g>
<defs>
<filter id="filter0_d_1151_18942" x="10.3804" y="16.6155" width="38.9748" height="38.9748" filterUnits="userSpaceOnUse" color-interpolation-filters="sRGB">
<feFlood flood-opacity="0" result="BackgroundImageFix"/>
<feColorMatrix in="SourceAlpha" type="matrix" values="0 0 0 0 0 0 0 0 0 0 0 0 0 0 0 0 0 0 127 0" result="hardAlpha"/>
<feOffset dy="1.21796"/>
<feGaussianBlur stdDeviation="3.0449"/>
<feComposite in2="hardAlpha" operator="out"/>
<feColorMatrix type="matrix" values="0 0 0 0 0 0 0 0 0 0 0 0 0 0 0 0 0 0 0.08 0"/>
<feBlend mode="normal" in2="BackgroundImageFix" result="effect1_dropShadow_1151_18942"/>
<feBlend mode="normal" in="SourceGraphic" in2="effect1_dropShadow_1151_18942" result="shape"/>
</filter>
<linearGradient id="paint0_linear_1151_18942" x1="7.43862" y1="1.24116" x2="53.7394" y2="15.9542" gradientUnits="userSpaceOnUse">
<stop stop-color="#338BFF"/>
<stop offset="1" stop-color="#0058CC"/>
</linearGradient>
<linearGradient id="paint1_linear_1151_18942" x1="12.3104" y1="6.11298" x2="58.6112" y2="20.8261" gradientUnits="userSpaceOnUse">
<stop stop-color="#338BFF"/>
<stop offset="1" stop-color="#0058CC"/>
</linearGradient>
</defs>
</svg>
