<svg viewBox="0 0 115 103" fill="none" xmlns="http://www.w3.org/2000/svg">
<path fill-rule="evenodd" clip-rule="evenodd" d="M57.4247 0.0403985C67.3643 -0.617657 75.65 6.89244 83.1393 13.1666C90.025 18.9352 95.1464 26.0671 98.2958 34.2804C101.551 42.7689 102.945 51.6721 101.319 60.5774C99.4843 70.6302 96.3369 80.8663 88.5221 87.8271C80.1566 95.2786 68.7026 101.512 57.4247 99.6758C46.4329 97.8862 41.0706 86.3427 33.1831 78.8174C26.8001 72.7275 20.3246 67.31 15.7293 59.8952C9.85727 50.4201 -1.35845 40.2708 2.97029 30.0664C7.37379 19.6858 24.0189 22.0092 34.1767 16.4082C42.7237 11.6954 47.5785 0.692272 57.4247 0.0403985Z" fill="#F9F9FB"/>
<g filter="url(#filter0_d_29644_37022)">
<path d="M91.9964 24.3273C91.9964 30.0308 87.2236 34.6545 81.336 34.6545C75.4485 34.6545 70.6756 30.0308 70.6756 24.3273C70.6756 18.6237 75.4485 14 81.336 14C87.2236 14 91.9964 18.6237 91.9964 24.3273Z" fill="url(#paint0_linear_29644_37022)"/>
<path d="M73.6618 35.5647C73.6618 35.5647 68.0107 31.9895 64.6578 39.2069C60.0154 50.9785 62.6807 59.2472 65.6789 64.3038C68.6771 69.3604 97.598 71.2997 99.9921 64.3038C102.386 57.3079 104.054 45.9329 98.9925 38.652C94.9425 32.1026 89.709 35.5647 89.709 35.5647C86.6664 38.3191 84.8773 38.6523 81.6693 38.6523C78.4613 38.6523 76.3391 37.6528 73.6618 35.5647Z" fill="#D9D9D9"/>
<path d="M73.6618 35.5647C73.6618 35.5647 68.0107 31.9895 64.6578 39.2069C60.0154 50.9785 62.6807 59.2472 65.6789 64.3038C68.6771 69.3604 97.598 71.2997 99.9921 64.3038C102.386 57.3079 104.054 45.9329 98.9925 38.652C94.9425 32.1026 89.709 35.5647 89.709 35.5647C86.6664 38.3191 84.8773 38.6523 81.6693 38.6523C78.4613 38.6523 76.3391 37.6528 73.6618 35.5647Z" fill="url(#paint1_linear_29644_37022)"/>
<path d="M41.8494 24.3273C41.8494 30.0308 37.0766 34.6545 31.189 34.6545C25.3015 34.6545 20.5287 30.0308 20.5287 24.3273C20.5287 18.6237 25.3015 14 31.189 14C37.0766 14 41.8494 18.6237 41.8494 24.3273Z" fill="url(#paint2_linear_29644_37022)"/>
<path d="M23.5148 35.5647C23.5148 35.5647 17.8637 31.9895 14.5109 39.2069C9.86844 50.9785 12.5337 59.2472 15.5319 64.3038C18.5301 69.3604 47.4511 71.2997 49.8451 64.3038C52.2392 57.3079 53.9074 45.9329 48.8455 38.652C44.7955 32.1026 39.562 35.5647 39.562 35.5647C36.5194 38.3191 34.7304 38.6523 31.5224 38.6523C28.3144 38.6523 26.1922 37.6528 23.5148 35.5647Z" fill="#D9D9D9"/>
<path d="M23.5148 35.5647C23.5148 35.5647 17.8637 31.9895 14.5109 39.2069C9.86844 50.9785 12.5337 59.2472 15.5319 64.3038C18.5301 69.3604 47.4511 71.2997 49.8451 64.3038C52.2392 57.3079 53.9074 45.9329 48.8455 38.652C44.7955 32.1026 39.562 35.5647 39.562 35.5647C36.5194 38.3191 34.7304 38.6523 31.5224 38.6523C28.3144 38.6523 26.1922 37.6528 23.5148 35.5647Z" fill="url(#paint3_linear_29644_37022)"/>
</g>
<g filter="url(#filter1_d_29644_37022)">
<path d="M70.2179 27.6173C70.2179 35.1379 63.9246 41.2345 56.1613 41.2345C48.3981 41.2345 42.1048 35.1379 42.1048 27.6173C42.1048 20.0967 48.3981 14 56.1613 14C63.9246 14 70.2179 20.0967 70.2179 27.6173Z" fill="url(#paint4_linear_29644_37022)"/>
<path d="M46.0421 42.435C46.0421 42.435 38.5907 37.7208 34.1697 47.2376C28.0483 62.7593 31.5627 73.6622 35.516 80.3297C39.4694 86.9972 77.6038 89.5543 80.7606 80.3297C83.9174 71.1051 86.117 56.1063 79.4425 46.5059C74.1023 37.8699 67.2015 42.435 67.2015 42.435C63.1896 46.0669 60.8306 46.5062 56.6006 46.5062C52.3706 46.5062 49.5723 45.1884 46.0421 42.435Z" fill="#D9D9D9"/>
<path d="M46.0421 42.435C46.0421 42.435 38.5907 37.7208 34.1697 47.2376C28.0483 62.7593 31.5627 73.6622 35.516 80.3297C39.4694 86.9972 77.6038 89.5543 80.7606 80.3297C83.9174 71.1051 86.117 56.1063 79.4425 46.5059C74.1023 37.8699 67.2015 42.435 67.2015 42.435C63.1896 46.0669 60.8306 46.5062 56.6006 46.5062C52.3706 46.5062 49.5723 45.1884 46.0421 42.435Z" fill="url(#paint5_linear_29644_37022)"/>
</g>
<defs>
<filter id="filter0_d_29644_37022" x="0" y="6" width="114.294" height="78.8525" filterUnits="userSpaceOnUse" color-interpolation-filters="sRGB">
<feFlood flood-opacity="0" result="BackgroundImageFix"/>
<feColorMatrix in="SourceAlpha" type="matrix" values="0 0 0 0 0 0 0 0 0 0 0 0 0 0 0 0 0 0 127 0" result="hardAlpha"/>
<feOffset dy="4"/>
<feGaussianBlur stdDeviation="6"/>
<feComposite in2="hardAlpha" operator="out"/>
<feColorMatrix type="matrix" values="0 0 0 0 0 0 0 0 0 0 0 0 0 0 0 0 0 0 0.08 0"/>
<feBlend mode="normal" in2="BackgroundImageFix" result="effect1_dropShadow_29644_37022"/>
<feBlend mode="normal" in="SourceGraphic" in2="effect1_dropShadow_29644_37022" result="shape"/>
</filter>
<filter id="filter1_d_29644_37022" x="18.8589" y="6" width="76.9365" height="96.3271" filterUnits="userSpaceOnUse" color-interpolation-filters="sRGB">
<feFlood flood-opacity="0" result="BackgroundImageFix"/>
<feColorMatrix in="SourceAlpha" type="matrix" values="0 0 0 0 0 0 0 0 0 0 0 0 0 0 0 0 0 0 127 0" result="hardAlpha"/>
<feOffset dy="4"/>
<feGaussianBlur stdDeviation="6"/>
<feComposite in2="hardAlpha" operator="out"/>
<feColorMatrix type="matrix" values="0 0 0 0 0 0 0 0 0 0 0 0 0 0 0 0 0 0 0.08 0"/>
<feBlend mode="normal" in2="BackgroundImageFix" result="effect1_dropShadow_29644_37022"/>
<feBlend mode="normal" in="SourceGraphic" in2="effect1_dropShadow_29644_37022" result="shape"/>
</filter>
<linearGradient id="paint0_linear_29644_37022" x1="-26.1307" y1="-4.20123" x2="136.625" y2="173.811" gradientUnits="userSpaceOnUse">
<stop stop-color="#D6D6E5"/>
<stop offset="1" stop-color="#D1D1E0"/>
</linearGradient>
<linearGradient id="paint1_linear_29644_37022" x1="-5.55821" y1="23.1991" x2="59.6229" y2="65.419" gradientUnits="userSpaceOnUse">
<stop stop-color="#E9E9F2"/>
<stop offset="1" stop-color="#D1D1E0"/>
</linearGradient>
<linearGradient id="paint2_linear_29644_37022" x1="-26.1307" y1="-4.20123" x2="136.625" y2="173.811" gradientUnits="userSpaceOnUse">
<stop stop-color="#D6D6E5"/>
<stop offset="1" stop-color="#D1D1E0"/>
</linearGradient>
<linearGradient id="paint3_linear_29644_37022" x1="-5.55821" y1="23.1991" x2="59.6229" y2="65.419" gradientUnits="userSpaceOnUse">
<stop stop-color="#E9E9F2"/>
<stop offset="1" stop-color="#D1D1E0"/>
</linearGradient>
<linearGradient id="paint4_linear_29644_37022" x1="8.50394" y1="-9.9998" x2="177.988" y2="72.4206" gradientUnits="userSpaceOnUse">
<stop stop-color="#8585AD"/>
<stop offset="1" stop-color="#D1D1E0"/>
</linearGradient>
<linearGradient id="paint5_linear_29644_37022" x1="7.70704" y1="26.1301" x2="93.6533" y2="81.8002" gradientUnits="userSpaceOnUse">
<stop stop-color="#8585AD"/>
<stop offset="1" stop-color="#D1D1E0"/>
</linearGradient>
</defs>
</svg>
