<svg width="115" height="103" viewBox="0 0 115 103" fill="none" xmlns="http://www.w3.org/2000/svg">
<path fill-rule="evenodd" clip-rule="evenodd" d="M57.4247 0.0403985C67.3643 -0.617657 75.65 6.89244 83.1393 13.1666C90.025 18.9352 95.1464 26.0671 98.2958 34.2804C101.551 42.7689 102.945 51.6721 101.319 60.5774C99.4843 70.6302 96.3369 80.8663 88.5221 87.8271C80.1566 95.2786 68.7026 101.512 57.4247 99.6758C46.4329 97.8862 41.0706 86.3427 33.1831 78.8174C26.8001 72.7275 20.3246 67.31 15.7293 59.8952C9.85727 50.4201 -1.35845 40.2708 2.97029 30.0664C7.37379 19.6858 24.0189 22.0092 34.1767 16.4082C42.7237 11.6954 47.5785 0.692272 57.4247 0.0403985Z" fill="#F9F9FB"/>
<g opacity="0.4">
<ellipse cx="81.3362" cy="24.3273" rx="10.6604" ry="10.3273" fill="url(#paint0_linear_28854_68280)"/>
<g filter="url(#filter0_d_28854_68280)">
<path d="M73.6618 35.5647C73.6618 35.5647 68.0107 31.9895 64.6578 39.2069C60.0154 50.9785 62.6807 59.2472 65.6789 64.3038C68.6771 69.3604 97.598 71.2997 99.9921 64.3038C102.386 57.3079 104.054 45.9329 98.9925 38.652C94.9425 32.1026 89.709 35.5647 89.709 35.5647C86.6664 38.3191 84.8773 38.6523 81.6693 38.6523C78.4613 38.6523 76.3391 37.6528 73.6618 35.5647Z" fill="#D9D9D9"/>
<path d="M73.6618 35.5647C73.6618 35.5647 68.0107 31.9895 64.6578 39.2069C60.0154 50.9785 62.6807 59.2472 65.6789 64.3038C68.6771 69.3604 97.598 71.2997 99.9921 64.3038C102.386 57.3079 104.054 45.9329 98.9925 38.652C94.9425 32.1026 89.709 35.5647 89.709 35.5647C86.6664 38.3191 84.8773 38.6523 81.6693 38.6523C78.4613 38.6523 76.3391 37.6528 73.6618 35.5647Z" fill="url(#paint1_linear_28854_68280)"/>
</g>
</g>
<g opacity="0.4">
<ellipse cx="31.1892" cy="24.3273" rx="10.6604" ry="10.3273" fill="url(#paint2_linear_28854_68280)"/>
<g filter="url(#filter1_d_28854_68280)">
<path d="M23.5148 35.5647C23.5148 35.5647 17.8637 31.9895 14.5109 39.2069C9.86844 50.9785 12.5337 59.2472 15.5319 64.3038C18.5301 69.3604 47.4511 71.2997 49.8451 64.3038C52.2392 57.3079 53.9074 45.9329 48.8455 38.652C44.7955 32.1026 39.562 35.5647 39.562 35.5647C36.5194 38.3191 34.7304 38.6523 31.5224 38.6523C28.3144 38.6523 26.1922 37.6528 23.5148 35.5647Z" fill="#D9D9D9"/>
<path d="M23.5148 35.5647C23.5148 35.5647 17.8637 31.9895 14.5109 39.2069C9.86844 50.9785 12.5337 59.2472 15.5319 64.3038C18.5301 69.3604 47.4511 71.2997 49.8451 64.3038C52.2392 57.3079 53.9074 45.9329 48.8455 38.652C44.7955 32.1026 39.562 35.5647 39.562 35.5647C36.5194 38.3191 34.7304 38.6523 31.5224 38.6523C28.3144 38.6523 26.1922 37.6528 23.5148 35.5647Z" fill="url(#paint3_linear_28854_68280)"/>
</g>
</g>
<ellipse cx="56.1615" cy="27.6173" rx="14.0565" ry="13.6173" fill="url(#paint4_linear_28854_68280)"/>
<g filter="url(#filter2_d_28854_68280)">
<path d="M46.0421 42.4351C46.0421 42.4351 38.5907 37.7209 34.1697 47.2377C28.0483 62.7594 31.5627 73.6623 35.516 80.3298C39.4694 86.9973 77.6038 89.5544 80.7606 80.3298C83.9174 71.1052 86.117 56.1064 79.4425 46.506C74.1023 37.87 67.2015 42.4351 67.2015 42.4351C63.1896 46.067 60.8306 46.5063 56.6006 46.5063C52.3706 46.5063 49.5723 45.1885 46.0421 42.4351Z" fill="#D9D9D9"/>
<path d="M46.0421 42.4351C46.0421 42.4351 38.5907 37.7209 34.1697 47.2377C28.0483 62.7594 31.5627 73.6623 35.516 80.3298C39.4694 86.9973 77.6038 89.5544 80.7606 80.3298C83.9174 71.1052 86.117 56.1064 79.4425 46.506C74.1023 37.87 67.2015 42.4351 67.2015 42.4351C63.1896 46.067 60.8306 46.5063 56.6006 46.5063C52.3706 46.5063 49.5723 45.1885 46.0421 42.4351Z" fill="url(#paint5_linear_28854_68280)"/>
</g>
<defs>
<filter id="filter0_d_28854_68280" x="50.147" y="26.6504" width="64.147" height="58.2021" filterUnits="userSpaceOnUse" color-interpolation-filters="sRGB">
<feFlood flood-opacity="0" result="BackgroundImageFix"/>
<feColorMatrix in="SourceAlpha" type="matrix" values="0 0 0 0 0 0 0 0 0 0 0 0 0 0 0 0 0 0 127 0" result="hardAlpha"/>
<feOffset dy="4"/>
<feGaussianBlur stdDeviation="6"/>
<feComposite in2="hardAlpha" operator="out"/>
<feColorMatrix type="matrix" values="0 0 0 0 0 0 0 0 0 0 0 0 0 0 0 0 0 0 0.08 0"/>
<feBlend mode="normal" in2="BackgroundImageFix" result="effect1_dropShadow_28854_68280"/>
<feBlend mode="normal" in="SourceGraphic" in2="effect1_dropShadow_28854_68280" result="shape"/>
</filter>
<filter id="filter1_d_28854_68280" x="0" y="26.6504" width="64.147" height="58.2021" filterUnits="userSpaceOnUse" color-interpolation-filters="sRGB">
<feFlood flood-opacity="0" result="BackgroundImageFix"/>
<feColorMatrix in="SourceAlpha" type="matrix" values="0 0 0 0 0 0 0 0 0 0 0 0 0 0 0 0 0 0 127 0" result="hardAlpha"/>
<feOffset dy="4"/>
<feGaussianBlur stdDeviation="6"/>
<feComposite in2="hardAlpha" operator="out"/>
<feColorMatrix type="matrix" values="0 0 0 0 0 0 0 0 0 0 0 0 0 0 0 0 0 0 0.08 0"/>
<feBlend mode="normal" in2="BackgroundImageFix" result="effect1_dropShadow_28854_68280"/>
<feBlend mode="normal" in="SourceGraphic" in2="effect1_dropShadow_28854_68280" result="shape"/>
</filter>
<filter id="filter2_d_28854_68280" x="18.8589" y="33.2295" width="76.9365" height="69.0977" filterUnits="userSpaceOnUse" color-interpolation-filters="sRGB">
<feFlood flood-opacity="0" result="BackgroundImageFix"/>
<feColorMatrix in="SourceAlpha" type="matrix" values="0 0 0 0 0 0 0 0 0 0 0 0 0 0 0 0 0 0 127 0" result="hardAlpha"/>
<feOffset dy="4"/>
<feGaussianBlur stdDeviation="6"/>
<feComposite in2="hardAlpha" operator="out"/>
<feColorMatrix type="matrix" values="0 0 0 0 0 0 0 0 0 0 0 0 0 0 0 0 0 0 0.08 0"/>
<feBlend mode="normal" in2="BackgroundImageFix" result="effect1_dropShadow_28854_68280"/>
<feBlend mode="normal" in="SourceGraphic" in2="effect1_dropShadow_28854_68280" result="shape"/>
</filter>
<linearGradient id="paint0_linear_28854_68280" x1="61.6721" y1="7.14638" x2="119.074" y2="46.5164" gradientUnits="userSpaceOnUse">
<stop stop-color="#8585AD"/>
<stop offset="1" stop-color="#D1D1E0"/>
</linearGradient>
<linearGradient id="paint1_linear_28854_68280" x1="44.5888" y1="23.1991" x2="109.77" y2="65.419" gradientUnits="userSpaceOnUse">
<stop stop-color="#8585AD"/>
<stop offset="1" stop-color="#D1D1E0"/>
</linearGradient>
<linearGradient id="paint2_linear_28854_68280" x1="11.5251" y1="7.14638" x2="68.9271" y2="46.5164" gradientUnits="userSpaceOnUse">
<stop stop-color="#8585AD"/>
<stop offset="1" stop-color="#D1D1E0"/>
</linearGradient>
<linearGradient id="paint3_linear_28854_68280" x1="-5.55821" y1="23.1991" x2="59.6229" y2="65.419" gradientUnits="userSpaceOnUse">
<stop stop-color="#8585AD"/>
<stop offset="1" stop-color="#D1D1E0"/>
</linearGradient>
<linearGradient id="paint4_linear_28854_68280" x1="30.2329" y1="4.96298" x2="105.922" y2="56.8754" gradientUnits="userSpaceOnUse">
<stop stop-color="#8585AD"/>
<stop offset="1" stop-color="#D1D1E0"/>
</linearGradient>
<linearGradient id="paint5_linear_28854_68280" x1="7.70704" y1="26.1301" x2="93.6533" y2="81.8002" gradientUnits="userSpaceOnUse">
<stop stop-color="#8585AD"/>
<stop offset="1" stop-color="#D1D1E0"/>
</linearGradient>
</defs>
</svg>
