<svg width="180" height="180" viewBox="0 0 180 180" fill="none" xmlns="http://www.w3.org/2000/svg">
<path fill-rule="evenodd" clip-rule="evenodd" d="M99.7644 0.0727173C117.656 -1.11178 132.57 12.4064 146.051 23.6999C158.445 34.0833 167.664 46.9208 173.332 61.7047C179.191 76.984 181.7 93.0098 178.774 109.039C175.472 127.134 169.806 145.559 155.74 158.089C140.682 171.501 120.065 182.721 99.7644 179.416C79.9792 176.195 70.3271 155.417 56.1296 141.871C44.6402 130.909 32.9842 121.158 24.7128 107.811C14.1431 90.7562 -6.0452 72.4874 1.74652 54.1196C9.67281 35.4345 39.634 39.6166 57.918 29.5348C73.3026 21.0518 82.0412 1.24609 99.7644 0.0727173Z" fill="#F9F9FB"/>
<path d="M139.641 66.8812C139.484 66.8812 139.332 66.8339 139.203 66.7454C139.074 66.6569 138.975 66.5314 138.919 66.3855L138.03 64.0737C138.01 64.0231 137.981 63.9772 137.942 63.9389C137.904 63.9007 137.858 63.8709 137.808 63.8516L135.496 62.9625C135.35 62.9064 135.224 62.8073 135.136 62.6784C135.047 62.5496 135 62.3969 135 62.2406C135 62.0843 135.047 61.9316 135.136 61.8028C135.224 61.6739 135.35 61.5748 135.496 61.5187L137.808 60.6296C137.858 60.6102 137.904 60.5804 137.942 60.5422C137.98 60.5039 138.01 60.4581 138.03 60.4075L138.911 58.1162C138.96 57.9813 139.046 57.8625 139.158 57.7726C139.27 57.6826 139.405 57.625 139.547 57.6058C139.718 57.585 139.891 57.6219 140.039 57.7106C140.187 57.7994 140.301 57.9349 140.363 58.0957L141.252 60.4075C141.271 60.4581 141.301 60.5039 141.339 60.5422C141.377 60.5804 141.423 60.6102 141.474 60.6296L143.786 61.5187C143.932 61.5748 144.057 61.6739 144.145 61.8028C144.234 61.9316 144.281 62.0843 144.281 62.2406C144.281 62.3969 144.234 62.5496 144.145 62.6784C144.057 62.8073 143.932 62.9064 143.786 62.9625L141.474 63.8516C141.423 63.8709 141.377 63.9007 141.339 63.9389C141.301 63.9772 141.271 64.0231 141.252 64.0737L140.363 66.3855C140.306 66.5314 140.207 66.6569 140.079 66.7454C139.95 66.8339 139.797 66.8812 139.641 66.8812Z" fill="url(#paint0_linear_36616_188920)"/>
<path d="M152.494 80.1001C152.324 80.1 152.157 80.0483 152.017 79.9517C151.876 79.8551 151.768 79.7182 151.707 79.559L150.502 76.4282C150.481 76.373 150.449 76.3229 150.407 76.2811C150.365 76.2393 150.315 76.2068 150.26 76.1856L147.129 74.9811C146.97 74.9199 146.833 74.8118 146.737 74.6713C146.64 74.5307 146.589 74.3643 146.589 74.1938C146.589 74.0234 146.64 73.8569 146.737 73.7164C146.833 73.5758 146.97 73.4678 147.129 73.4065L150.26 72.202C150.315 72.1808 150.365 72.1483 150.407 72.1065C150.449 72.0647 150.481 72.0146 150.502 71.9595L151.698 68.8507C151.753 68.7037 151.846 68.5743 151.968 68.4761C152.091 68.378 152.237 68.3148 152.392 68.2933C152.579 68.2707 152.768 68.3111 152.929 68.4081C153.09 68.5051 153.214 68.6531 153.282 68.8286L154.486 71.9595C154.507 72.0146 154.54 72.0647 154.582 72.1065C154.623 72.1483 154.674 72.1808 154.729 72.202L157.86 73.4065C158.019 73.4678 158.155 73.5758 158.252 73.7164C158.348 73.8569 158.4 74.0234 158.4 74.1938C158.4 74.3643 158.348 74.5307 158.252 74.6713C158.155 74.8118 158.019 74.9199 157.86 74.9811L154.729 76.1856C154.674 76.2068 154.623 76.2393 154.582 76.2811C154.54 76.3229 154.507 76.373 154.486 76.4282L153.282 79.559C153.22 79.7182 153.112 79.8551 152.972 79.9517C152.831 80.0483 152.665 80.1 152.494 80.1001Z" fill="url(#paint1_linear_36616_188920)"/>
<path d="M61.4374 76.4307C61.198 76.4294 60.961 76.4793 60.7419 76.5773C60.5228 76.6753 60.3264 76.8191 60.1657 76.9994C60.005 77.1796 59.8834 77.3923 59.809 77.6234C59.7346 77.8546 59.709 78.0991 59.7338 78.341L65.3364 132.981C65.3353 132.997 65.3353 133.013 65.3364 133.029C65.6292 135.556 66.8251 137.886 68.6972 139.577C70.5692 141.268 72.9871 142.201 75.4918 142.2H124.702C127.206 142.2 129.622 141.266 131.494 139.576C133.365 137.885 134.56 135.556 134.853 133.029V132.984L140.447 78.341C140.472 78.0991 140.446 77.8546 140.372 77.6234C140.297 77.3923 140.176 77.1796 140.015 76.9994C139.854 76.8191 139.658 76.6753 139.439 76.5773C139.22 76.4793 138.983 76.4294 138.743 76.4307H61.4374ZM114.431 115.522C114.755 115.842 115.013 116.224 115.191 116.646C115.368 117.068 115.461 117.522 115.464 117.98C115.467 118.439 115.381 118.894 115.209 119.319C115.038 119.743 114.785 120.129 114.466 120.453C114.146 120.778 113.766 121.034 113.349 121.208C112.931 121.382 112.483 121.47 112.031 121.466C111.58 121.463 111.133 121.368 110.718 121.188C110.303 121.008 109.927 120.745 109.612 120.416L100.098 110.75L90.5812 120.416C89.9393 121.05 89.0778 121.401 88.1828 121.395C87.2878 121.388 86.4313 121.024 85.7983 120.382C85.1653 119.739 84.8066 118.869 84.7999 117.959C84.7932 117.05 85.1388 116.175 85.7622 115.522L95.2788 105.854L85.7622 96.1853C85.1388 95.5328 84.7932 94.6574 84.7999 93.7481C84.8066 92.8388 85.1653 91.9688 85.7983 91.3259C86.4313 90.6831 87.2878 90.3192 88.1828 90.3127C89.0778 90.3063 89.9393 90.6579 90.5812 91.2915L100.098 100.958L109.612 91.2915C110.254 90.6579 111.116 90.3063 112.011 90.3127C112.906 90.3192 113.762 90.6831 114.395 91.3259C115.028 91.9688 115.387 92.8388 115.394 93.7481C115.4 94.6574 115.055 95.5328 114.431 96.1853L104.915 105.854L114.431 115.522Z" fill="url(#paint2_linear_36616_188920)"/>
<path d="M133.497 34.2532L51.9157 56.1128C48.0963 57.1362 45.8022 60.9598 46.7918 64.653L46.9223 65.1401C47.9119 68.8334 51.8104 70.9977 55.6299 69.9742L137.211 48.1147C141.03 47.0913 143.324 43.2677 142.335 39.5745L142.204 39.0874C141.214 35.3941 137.316 33.2298 133.497 34.2532Z" fill="url(#paint3_linear_36616_188920)"/>
<defs>
<linearGradient id="paint0_linear_36616_188920" x1="124.766" y1="22.4447" x2="177.894" y2="28.9781" gradientUnits="userSpaceOnUse">
<stop stop-color="#8585AD"/>
<stop offset="1" stop-color="#D1D1E0"/>
</linearGradient>
<linearGradient id="paint1_linear_36616_188920" x1="124.766" y1="22.4447" x2="177.894" y2="28.9781" gradientUnits="userSpaceOnUse">
<stop stop-color="#8585AD"/>
<stop offset="1" stop-color="#D1D1E0"/>
</linearGradient>
<linearGradient id="paint2_linear_36616_188920" x1="10.6749" y1="22.0666" x2="174.497" y2="117.891" gradientUnits="userSpaceOnUse">
<stop stop-color="#8585AD"/>
<stop offset="1" stop-color="#D1D1E0"/>
</linearGradient>
<linearGradient id="paint3_linear_36616_188920" x1="-5.14328" y1="40.2054" x2="183.498" y2="96.3482" gradientUnits="userSpaceOnUse">
<stop stop-color="#8585AD"/>
<stop offset="1" stop-color="#D1D1E0"/>
</linearGradient>
</defs>
</svg>
