<svg width="108" height="116" viewBox="0 0 108 116" fill="none" xmlns="http://www.w3.org/2000/svg">
<path fill-rule="evenodd" clip-rule="evenodd" d="M55.4247 0.0403985C65.3643 -0.617657 73.65 6.89244 81.1393 13.1666C88.025 18.9352 93.1464 26.0671 96.2958 34.2804C99.5508 42.7689 100.945 51.6721 99.3191 60.5774C97.4843 70.6302 94.3369 80.8663 86.5221 87.8271C78.1566 95.2786 66.7025 101.512 55.4247 99.6757C44.4329 97.8862 39.0706 86.3427 31.1831 78.8174C24.8001 72.7275 18.3245 67.3099 13.7293 59.8952C7.85727 50.4201 -3.35845 40.2708 0.970288 30.0664C5.37379 19.6858 22.0189 22.0092 32.1767 16.4082C40.7237 11.6954 45.5784 0.692272 55.4247 0.0403985Z" fill="#F9F9FB"/>
<path d="M73.7681 26.4249C73.6411 26.4249 73.5172 26.387 73.4125 26.3162C73.3079 26.2454 73.2275 26.1451 73.1819 26.0284L72.4599 24.1788C72.4443 24.1384 72.4201 24.1017 72.389 24.0711C72.358 24.0404 72.3207 24.0167 72.2796 24.0012L70.4024 23.29C70.284 23.245 70.1821 23.1658 70.1103 23.0627C70.0385 22.9596 70 22.8375 70 22.7124C70 22.5873 70.0385 22.4652 70.1103 22.3621C70.1821 22.259 70.284 22.1798 70.4024 22.1349L72.2796 21.4236C72.3207 21.4081 72.3579 21.3843 72.389 21.3537C72.42 21.3231 72.4442 21.2864 72.4599 21.246L73.1754 19.4129C73.2158 19.305 73.2852 19.2099 73.3763 19.138C73.4673 19.066 73.5766 19.0199 73.6923 19.0045C73.8312 18.9879 73.9717 19.0174 74.0916 19.0884C74.2115 19.1594 74.304 19.2678 74.3543 19.3964L75.0762 21.246C75.0919 21.2864 75.1161 21.3231 75.1472 21.3537C75.1782 21.3843 75.2155 21.4081 75.2565 21.4236L77.1337 22.1349C77.2521 22.1798 77.354 22.259 77.4258 22.3621C77.4977 22.4652 77.5361 22.5873 77.5361 22.7124C77.5361 22.8375 77.4977 22.9596 77.4258 23.0627C77.354 23.1658 77.2521 23.245 77.1337 23.29L75.2565 24.0012C75.2154 24.0167 75.1781 24.0404 75.1471 24.0711C75.116 24.1017 75.0918 24.1384 75.0762 24.1788L74.3543 26.0284C74.3087 26.1451 74.2282 26.2454 74.1236 26.3162C74.019 26.387 73.895 26.4249 73.7681 26.4249Z" fill="url(#paint0_linear_1119_9751)"/>
<path d="M84.2047 37C84.0663 37 83.9311 36.9586 83.8169 36.8813C83.7028 36.804 83.6151 36.6945 83.5654 36.5672L82.5874 34.0625C82.5702 34.0183 82.5438 33.9783 82.5099 33.9448C82.4759 33.9114 82.4353 33.8854 82.3905 33.8684L79.8483 32.9048C79.7191 32.8558 79.6081 32.7694 79.5297 32.657C79.4514 32.5445 79.4095 32.4113 79.4095 32.275C79.4095 32.1386 79.4514 32.0054 79.5297 31.893C79.6081 31.7806 79.7191 31.6941 79.8483 31.6451L82.3905 30.6815C82.4353 30.6646 82.4759 30.6386 82.5099 30.6051C82.5438 30.5717 82.5702 30.5316 82.5874 30.4875L83.5582 28.0005C83.6025 27.8829 83.6783 27.7793 83.7776 27.7008C83.8769 27.6223 83.996 27.5718 84.1221 27.5546C84.2737 27.5365 84.427 27.5688 84.5578 27.6464C84.6886 27.724 84.7893 27.8424 84.844 27.9828L85.822 30.4875C85.8392 30.5316 85.8657 30.5717 85.8996 30.6051C85.9335 30.6386 85.9742 30.6646 86.019 30.6815L88.5612 31.6451C88.6904 31.6941 88.8014 31.7806 88.8798 31.893C88.9581 32.0054 89 32.1386 89 32.275C89 32.4113 88.9581 32.5445 88.8798 32.657C88.8014 32.7694 88.6904 32.8558 88.5612 32.9048L86.019 33.8684C85.9742 33.8854 85.9335 33.9114 85.8996 33.9448C85.8657 33.9783 85.8392 34.0183 85.822 34.0625L84.844 36.5672C84.7944 36.6945 84.7067 36.804 84.5926 36.8813C84.4784 36.9586 84.3432 37 84.2047 37Z" fill="url(#paint1_linear_1119_9751)"/>
<path d="M30.1772 35.4771C30.1772 31.4513 33.4834 28 37.5553 28C37.5553 28 40.393 28 48.9062 28C57.4193 28 53.8795 34.0392 59.1219 34.0392L59.2565 50.0001H68.4083C72.4802 50.0001 71.8575 49.8853 71.8575 53.9112V65.6445C71.8575 69.6704 72.4802 72.0001 68.4083 72.0001L37.6058 72.0001C33.6058 72.0001 30.1772 68.5974 30.1772 64.5715V35.4771Z" fill="url(#paint2_linear_1119_9751)"/>
<g filter="url(#filter0_d_1119_9751)">
<path d="M75.3203 65.1269V40.5874C75.3203 36.5714 72.4632 33.7142 68.4886 33.7142L56.4631 33.7205C52.1774 33.7205 49.606 35.9802 49.606 40.5714V65.1429C49.606 69.7143 52.4631 72 56.4631 72H68.4886C72.4632 72 75.3203 69.1429 75.3203 65.1269Z" fill="#C2C2D6"/>
</g>
<rect x="36.1772" y="36.5714" width="3.42858" height="2.57144" rx="1.28572" fill="#F9F9FB"/>
<rect opacity="0.8" x="57.6057" y="40.8572" width="3.42858" height="2.57144" rx="1.28572" fill="#F9F9FB"/>
<rect opacity="0.8" x="57.6057" y="46.8572" width="3.42858" height="2.57144" rx="1.28572" fill="#F9F9FB"/>
<rect opacity="0.8" x="57.6057" y="52.8572" width="3.42858" height="2.57144" rx="1.28572" fill="#F9F9FB"/>
<rect opacity="0.8" x="57.6057" y="58.8572" width="3.42858" height="2.57144" rx="1.28572" fill="#F9F9FB"/>
<rect opacity="0.8" x="64.4631" y="40.8572" width="3.42858" height="2.57144" rx="1.28572" fill="#F9F9FB"/>
<rect opacity="0.8" x="64.4631" y="46.8572" width="3.42858" height="2.57144" rx="1.28572" fill="#F9F9FB"/>
<rect opacity="0.8" x="64.4631" y="52.8572" width="3.42858" height="2.57144" rx="1.28572" fill="#F9F9FB"/>
<rect opacity="0.8" x="64.4631" y="58.8572" width="3.42858" height="2.57144" rx="1.28572" fill="#F9F9FB"/>
<rect x="36.1772" y="42.5714" width="3.42858" height="2.57144" rx="1.28572" fill="#F9F9FB"/>
<rect x="36.1772" y="48.5714" width="3.42858" height="2.57144" rx="1.28572" fill="#F9F9FB"/>
<rect x="36.1772" y="54.5714" width="3.42858" height="2.57144" rx="1.28572" fill="#F9F9FB"/>
<path d="M40.4631 68.3572C40.4631 67.5288 41.1347 66.8572 41.9631 66.8572H42.3917C43.2201 66.8572 43.8917 67.5288 43.8917 68.3572V72H40.4631V68.3572Z" fill="#F9F9FB"/>
<rect x="43.0344" y="36.5714" width="3.42858" height="2.57144" rx="1.28572" fill="#F9F9FB"/>
<rect x="43.0344" y="42.5714" width="3.42858" height="2.57144" rx="1.28572" fill="#F9F9FB"/>
<rect x="43.0344" y="48.5714" width="3.42858" height="2.57144" rx="1.28572" fill="#F9F9FB"/>
<rect x="43.0344" y="54.5714" width="3.42858" height="2.57144" rx="1.28572" fill="#F9F9FB"/>
<defs>
<filter id="filter0_d_1119_9751" x="17.3008" y="12.1775" width="90.3246" height="102.896" filterUnits="userSpaceOnUse" color-interpolation-filters="sRGB">
<feFlood flood-opacity="0" result="BackgroundImageFix"/>
<feColorMatrix in="SourceAlpha" type="matrix" values="0 0 0 0 0 0 0 0 0 0 0 0 0 0 0 0 0 0 127 0" result="hardAlpha"/>
<feOffset dy="10.7684"/>
<feGaussianBlur stdDeviation="16.1526"/>
<feComposite in2="hardAlpha" operator="out"/>
<feColorMatrix type="matrix" values="0 0 0 0 0 0 0 0 0 0 0 0 0 0 0 0 0 0 0.08 0"/>
<feBlend mode="normal" in2="BackgroundImageFix" result="effect1_dropShadow_1119_9751"/>
<feBlend mode="normal" in="SourceGraphic" in2="effect1_dropShadow_1119_9751" result="shape"/>
</filter>
<linearGradient id="paint0_linear_1119_9751" x1="61.6904" y1="-9.12435" x2="104.809" y2="-3.74249" gradientUnits="userSpaceOnUse">
<stop stop-color="#8585AD"/>
<stop offset="1" stop-color="#D1D1E0"/>
</linearGradient>
<linearGradient id="paint1_linear_1119_9751" x1="61.6904" y1="-9.12435" x2="104.809" y2="-3.74249" gradientUnits="userSpaceOnUse">
<stop stop-color="#8585AD"/>
<stop offset="1" stop-color="#D1D1E0"/>
</linearGradient>
<linearGradient id="paint2_linear_1119_9751" x1="-0.655008" y1="13.2419" x2="91.0922" y2="98.194" gradientUnits="userSpaceOnUse">
<stop stop-color="#8585AD"/>
<stop offset="1" stop-color="#D1D1E0"/>
</linearGradient>
</defs>
</svg>
