<svg width="180" height="180" viewBox="0 0 180 180" fill="none" xmlns="http://www.w3.org/2000/svg">
<path fill-rule="evenodd" clip-rule="evenodd" d="M99.7644 0.0727173C117.656 -1.11178 132.57 12.4064 146.051 23.6999C158.445 34.0833 167.664 46.9208 173.332 61.7047C179.191 76.984 181.7 93.0098 178.774 109.039C175.472 127.134 169.806 145.559 155.74 158.089C140.682 171.501 120.065 182.721 99.7644 179.416C79.9792 176.195 70.3271 155.417 56.1296 141.871C44.6402 130.909 32.9842 121.158 24.7128 107.811C14.1431 90.7562 -6.0452 72.4874 1.74652 54.1196C9.67281 35.4345 39.634 39.6166 57.918 29.5348C73.3026 21.0518 82.0412 1.24609 99.7644 0.0727173Z" fill="#F9F9FB"/>
<path d="M64.2168 64.0581C64.2168 60.1428 67.3908 56.9688 71.3061 56.9688C71.3061 56.9688 89.235 56.9688 93.8585 56.9688C98.482 56.9688 101.051 64.0581 106.65 64.0581C112.25 64.0581 128.74 64.2636 128.74 64.2636C132.656 64.2636 135.83 67.4376 135.83 71.3529L133.569 89.1007C133.569 93.016 130.395 96.19 126.48 96.19H73.1555C69.2402 96.19 66.0662 93.016 66.0662 89.1007L64.2168 64.0581Z" fill="url(#paint0_linear_38203_76598)"/>
<g filter="url(#filter0_d_38203_76598)">
<path d="M60.8262 89.4334C60.8262 84.8613 63.7033 82.5496 69.9193 82.5496C75.2107 82.5496 84.7659 82.5496 94.2694 82.5496C100.229 82.5496 102.335 74.8437 107.01 74.8438H132.542C136.173 74.8438 139.117 77.7878 139.117 81.4194L136.8 106.199C136.8 106.199 135 84.599 116.1 87.299C111.752 87.9201 104.042 92.3828 101.903 99.9909C101.754 100.524 101.696 101.087 101.713 101.64C102.234 118.054 117.9 122.62 117.9 122.62H70.844C67.2124 122.62 64.7821 119.692 64.2684 116.044L60.8262 89.4334Z" fill="#C2C2D6"/>
<path d="M107.01 74.9033H132.542C136.141 74.9035 139.057 77.8204 139.058 81.4189H139.059L136.793 105.639C136.779 105.53 136.764 105.405 136.744 105.268C136.658 104.681 136.514 103.846 136.281 102.853C135.816 100.866 134.999 98.2454 133.59 95.708C132.18 93.1704 130.176 90.7137 127.338 89.0615C124.499 87.4089 120.829 86.5635 116.092 87.2402C113.905 87.5526 110.881 88.8291 108.137 90.9785C105.391 93.1284 102.92 96.1557 101.847 99.9746C101.695 100.514 101.637 101.084 101.654 101.643C101.915 109.871 105.973 115.131 109.965 118.332C111.96 119.932 113.939 121.018 115.419 121.704C116.159 122.047 116.775 122.29 117.206 122.447C117.33 122.493 117.44 122.529 117.532 122.561H70.8438C67.3637 122.56 64.9905 119.843 64.3809 116.374L64.3271 116.036L60.8857 89.4336C60.8857 87.1609 61.6 85.4597 63.0781 84.3242C64.5593 83.1864 66.8167 82.6084 69.9189 82.6084H94.2695C97.277 82.6083 99.3097 80.6623 101.164 78.7373C102.094 77.7724 102.978 76.8136 103.921 76.0947C104.863 75.3769 105.859 74.9033 107.01 74.9033Z" stroke="#C2C2D6" stroke-width="0.118551"/>
</g>
<path d="M138.076 120.767L130.323 113.014C132.19 110.529 133.197 107.505 133.194 104.397C133.194 96.4585 126.736 90 118.797 90C110.859 90 104.4 96.4585 104.4 104.397C104.4 112.335 110.859 118.794 118.797 118.794C121.905 118.797 124.93 117.789 127.415 115.923L135.168 123.676C135.56 124.027 136.072 124.214 136.598 124.199C137.124 124.184 137.625 123.969 137.997 123.597C138.369 123.224 138.585 122.724 138.6 122.198C138.614 121.671 138.427 121.16 138.076 120.767ZM107.097 104.397C107.097 102.083 107.783 99.8207 109.069 97.8967C110.355 95.9726 112.182 94.473 114.32 93.5874C116.458 92.7019 118.81 92.4702 121.08 92.9216C123.349 93.3731 125.434 94.4874 127.07 96.1237C128.707 97.76 129.821 99.8447 130.272 102.114C130.724 104.384 130.492 106.736 129.607 108.874C128.721 111.012 127.221 112.839 125.297 114.125C123.373 115.411 121.111 116.097 118.797 116.097C115.695 116.093 112.722 114.859 110.528 112.666C108.335 110.473 107.101 107.499 107.097 104.397Z" fill="url(#paint1_linear_38203_76598)"/>
<path fill-rule="evenodd" clip-rule="evenodd" d="M109.069 97.8967C107.783 99.8207 107.097 102.083 107.097 104.397C107.101 107.499 108.335 110.473 110.528 112.666C112.722 114.859 115.695 116.093 118.797 116.097C121.111 116.097 123.373 115.411 125.297 114.125C127.221 112.839 128.721 111.012 129.607 108.874C130.492 106.736 130.724 104.384 130.272 102.114C129.821 99.8447 128.707 97.76 127.07 96.1237C125.434 94.4874 123.349 93.3731 121.08 92.9216C118.81 92.4702 116.458 92.7019 114.32 93.5874C112.182 94.473 110.355 95.9726 109.069 97.8967Z" fill="url(#paint2_linear_38203_76598)"/>
<path fill-rule="evenodd" clip-rule="evenodd" d="M138.593 104.393C138.59 93.4746 129.715 84.6016 118.796 84.6016C107.876 84.6017 99.0002 93.4776 99 104.398C99 115.317 107.878 124.19 118.796 124.193C121.456 124.195 124.07 123.66 126.49 122.637L131.456 127.603L131.569 127.703C132.99 128.973 134.844 129.651 136.749 129.598C138.654 129.545 140.467 128.764 141.815 127.417C143.163 126.069 143.943 124.256 143.996 122.351C144.05 120.445 143.372 118.592 142.102 117.17L142.001 117.058L137.036 112.092C137.956 109.913 138.485 107.578 138.579 105.193L138.593 104.393ZM121.08 92.923C118.81 92.4716 116.457 92.7037 114.319 93.5893C112.182 94.4747 110.354 95.9739 109.069 97.8977C107.783 99.8216 107.097 102.084 107.096 104.398C107.1 107.5 108.335 110.473 110.528 112.667C112.721 114.86 115.695 116.094 118.796 116.098C121.111 116.098 123.373 115.411 125.297 114.126C127.221 112.84 128.722 111.013 129.607 108.875C130.492 106.738 130.723 104.386 130.271 102.116C129.82 99.8471 128.706 97.762 127.071 96.1258C125.434 94.4896 123.349 93.3746 121.08 92.923ZM118.796 118.795C110.858 118.794 104.4 112.336 104.4 104.398C104.4 96.46 110.858 90.0017 118.796 90.0016C126.735 90.0016 133.193 96.4598 133.193 104.398C133.196 107.506 132.189 110.532 130.322 113.017L138.076 120.769C138.427 121.161 138.615 121.673 138.6 122.199L138.584 122.395C138.528 122.848 138.323 123.273 137.997 123.599L137.851 123.73C137.499 124.021 137.058 124.189 136.598 124.202L136.401 124.196C135.945 124.165 135.51 123.985 135.167 123.678L127.415 115.924C124.93 117.791 121.904 118.798 118.796 118.795Z" fill="#F9F9FB"/>
<defs>
<filter id="filter0_d_38203_76598" x="48.8262" y="54.8438" width="102.291" height="71.7773" filterUnits="userSpaceOnUse" color-interpolation-filters="sRGB">
<feFlood flood-opacity="0" result="BackgroundImageFix"/>
<feColorMatrix in="SourceAlpha" type="matrix" values="0 0 0 0 0 0 0 0 0 0 0 0 0 0 0 0 0 0 127 0" result="hardAlpha"/>
<feOffset dy="-8"/>
<feGaussianBlur stdDeviation="6"/>
<feComposite in2="hardAlpha" operator="out"/>
<feColorMatrix type="matrix" values="0 0 0 0 0 0 0 0 0 0 0 0 0 0 0 0 0 0 0.11 0"/>
<feBlend mode="normal" in2="BackgroundImageFix" result="effect1_dropShadow_38203_76598"/>
<feBlend mode="normal" in="SourceGraphic" in2="effect1_dropShadow_38203_76598" result="shape"/>
</filter>
<linearGradient id="paint0_linear_38203_76598" x1="33.975" y1="42.6157" x2="123.12" y2="124.225" gradientUnits="userSpaceOnUse">
<stop stop-color="#8585AD"/>
<stop offset="1" stop-color="#D1D1E0"/>
</linearGradient>
<linearGradient id="paint1_linear_38203_76598" x1="89.9579" y1="77.4845" x2="152.49" y2="108.837" gradientUnits="userSpaceOnUse">
<stop stop-color="#8585AD"/>
<stop offset="1" stop-color="#D1D1E0"/>
</linearGradient>
<linearGradient id="paint2_linear_38203_76598" x1="89.9579" y1="77.4845" x2="152.49" y2="108.837" gradientUnits="userSpaceOnUse">
<stop stop-color="#8585AD"/>
<stop offset="1" stop-color="#D1D1E0"/>
</linearGradient>
</defs>
</svg>
