<svg width="109" height="101" viewBox="0 0 109 101" fill="none" xmlns="http://www.w3.org/2000/svg">
<path fill-rule="evenodd" clip-rule="evenodd" d="M55.4247 0.0403985C65.3643 -0.617657 73.65 6.89244 81.1393 13.1666C88.025 18.9352 93.1464 26.0671 96.2958 34.2804C99.5508 42.7689 100.945 51.6721 99.3192 60.5774C97.4843 70.6302 94.3369 80.8663 86.5221 87.8271C78.1566 95.2786 66.7026 101.512 55.4247 99.6758C44.4329 97.8862 39.0706 86.3427 31.1831 78.8174C24.8001 72.7275 18.3246 67.31 13.7293 59.8952C7.85727 50.4201 -3.35845 40.2708 0.970288 30.0664C5.37379 19.6858 22.0189 22.0092 32.1767 16.4082C40.7237 11.6954 45.5785 0.692272 55.4247 0.0403985Z" fill="#F9F9FB"/>
<path d="M16.6846 22.2831C16.6846 18.1 20.0756 14.709 24.2587 14.709C24.2587 14.709 24.2587 14.709 24.2587 14.709C24.2587 14.709 43.4134 14.709 48.3531 14.709C53.2927 14.709 56.0369 22.2831 62.0194 22.2831C67.8146 22.2831 84.5283 22.4891 85.5689 22.502C85.6029 22.5024 85.6371 22.5026 85.671 22.5028C89.8305 22.5303 93.1939 25.9107 93.1939 30.0767L90.779 53.3478C90.779 57.5309 87.3879 60.9219 83.2049 60.9219H26.2345C22.0515 60.9219 18.6604 57.5309 18.6604 53.3478L16.6846 22.2831Z" fill="url(#paint0_linear_28828_55650)"/>
<g filter="url(#filter0_d_28828_55650)">
<path d="M13.062 49.3959C13.062 44.5111 16.1359 42.0413 22.7769 42.0413C28.4301 42.0413 38.6386 42.0413 48.792 42.0413C55.1586 42.0413 57.4089 33.8086 62.4034 33.8086H89.6811C93.561 33.8086 96.7063 36.9539 96.7063 40.8338L92.3708 77.8262C91.8768 81.9974 89.2255 84.8514 85.3455 84.8514H23.7649C19.8849 84.8514 17.2885 81.723 16.7396 77.8262L13.062 49.3959Z" fill="#D1D1E0"/>
<path d="M62.4034 33.8679H89.6811C93.5272 33.8679 96.6452 36.9848 96.6471 40.8304L92.3119 77.8193C92.0662 79.8943 91.2843 81.6376 90.0855 82.8615C88.8874 84.0848 87.27 84.7921 85.3455 84.7921H23.7649C19.924 84.7921 17.3445 81.696 16.7983 77.8179L13.1213 49.392C13.1221 46.9649 13.8856 45.1472 15.4652 43.9338C17.0487 42.7173 19.4619 42.1006 22.7769 42.1006H22.8101H22.8434H22.8768H22.9103H22.9438H22.9775H23.0113H23.0452H23.0792H23.1133H23.1476H23.1819H23.2163H23.2508H23.2854H23.3201H23.3549H23.3899H23.4249H23.46H23.4952H23.5305H23.5659H23.6015H23.6371H23.6728H23.7086H23.7445H23.7805H23.8166H23.8528H23.8892H23.9256H23.9621H23.9987H24.0353H24.0721H24.109H24.146H24.1831H24.2203H24.2575H24.2949H24.3324H24.3699H24.4076H24.4453H24.4832H24.5211H24.5592H24.5973H24.6355H24.6738H24.7122H24.7507H24.7893H24.828H24.8668H24.9057H24.9446H24.9837H25.0228H25.0621H25.1014H25.1408H25.1803H25.2199H25.2596H25.2994H25.3393H25.3792H25.4193H25.4594H25.4997H25.54H25.5804H25.6209H25.6615H25.7021H25.7429H25.7837H25.8247H25.8657H25.9068H25.948H25.9893H26.0307H26.0721H26.1137H26.1553H26.197H26.2388H26.2807H26.3227H26.3647H26.4069H26.4491H26.4914H26.5338H26.5763H26.6188H26.6615H26.7042H26.747H26.7899H26.8329H26.876H26.9191H26.9623H27.0056H27.049H27.0925H27.136H27.1797H27.2234H27.2672H27.311H27.355H27.399H27.4431H27.4873H27.5316H27.576H27.6204H27.6649H27.7095H27.7541H27.7989H27.8437H27.8886H27.9336H27.9786H28.0238H28.069H28.1142H28.1596H28.205H28.2506H28.2961H28.3418H28.3875H28.4334H28.4792H28.5252H28.5712H28.6174H28.6635H28.7098H28.7561H28.8026H28.849H28.8956H28.9422H28.9889H29.0357H29.0825H29.1294H29.1764H29.2235H29.2706H29.3178H29.3651H29.4125H29.4599H29.5074H29.5549H29.6025H29.6502H29.698H29.7458H29.7937H29.8417H29.8898H29.9379H29.9861H30.0343H30.0826H30.131H30.1795H30.228H30.2766H30.3252H30.3739H30.4227H30.4716H30.5205H30.5695H30.6185H30.6676H30.7168H30.7661H30.8154H30.8648H30.9142H30.9637H31.0133H31.0629H31.1126H31.1624H31.2122H31.2621H31.312H31.362H31.4121H31.4622H31.5124H31.5627H31.613H31.6634H31.7139H31.7644H31.8149H31.8655H31.9162H31.967H32.0178H32.0687H32.1196H32.1706H32.2216H32.2727H32.3239H32.3751H32.4264H32.4777H32.5291H32.5806H32.6321H32.6836H32.7353H32.787H32.8387H32.8905H32.9423H32.9942H33.0462H33.0982H33.1503H33.2024H33.2546H33.3068H33.3591H33.4115H33.4639H33.5163H33.5689H33.6214H33.674H33.7267H33.7794H33.8322H33.885H33.9379H33.9908H34.0438H34.0969H34.15H34.2031H34.2563H34.3095H34.3628H34.4162H34.4696H34.523H34.5765H34.63H34.6836H34.7373H34.7909H34.8447H34.8985H34.9523H35.0062H35.0601H35.1141H35.1681H35.2222H35.2763H35.3305H35.3847H35.439H35.4933H35.5476H35.602H35.6565H35.711H35.7655H35.8201H35.8747H35.9294H35.9841H36.0389H36.0937H36.1485H36.2034H36.2583H36.3133H36.3683H36.4234H36.4785H36.5337H36.5889H36.6441H36.6994H36.7547H36.81H36.8654H36.9209H36.9764H37.0319H37.0875H37.1431H37.1987H37.2544H37.3101H37.3659H37.4217H37.4775H37.5334H37.5893H37.6453H37.7012H37.7573H37.8133H37.8695H37.9256H37.9818H38.038H38.0942H38.1505H38.2069H38.2632H38.3196H38.3761H38.4325H38.489H38.5456H38.6021H38.6588H38.7154H38.7721H38.8288H38.8855H38.9423H38.9991H39.056H39.1129H39.1698H39.2267H39.2837H39.3407H39.3977H39.4548H39.5119H39.569H39.6262H39.6834H39.7406H39.7979H39.8552H39.9125H39.9698H40.0272H40.0846H40.1421H40.1995H40.257H40.3146H40.3721H40.4297H40.4873H40.5449H40.6026H40.6603H40.718H40.7757H40.8335H40.8913H40.9491H41.007H41.0649H41.1228H41.1807H41.2386H41.2966H41.3546H41.4127H41.4707H41.5288H41.5869H41.645H41.7032H41.7613H41.8195H41.8777H41.936H41.9942H42.0525H42.1108H42.1692H42.2275H42.2859H42.3443H42.4027H42.4611H42.5196H42.5781H42.6366H42.6951H42.7536H42.8122H42.8708H42.9294H42.988H43.0466H43.1053H43.164H43.2226H43.2814H43.3401H43.3988H43.4576H43.5164H43.5752H43.634H43.6928H43.7517H43.8105H43.8694H43.9283H43.9872H44.0461H44.1051H44.164H44.223H44.282H44.341H44.4H44.459H44.5181H44.5771H44.6362H44.6953H44.7544H44.8135H44.8726H44.9317H44.9909H45.05H45.1092H45.1684H45.2276H45.2868H45.346H45.4052H45.4645H45.5237H45.583H45.6422H45.7015H45.7608H45.8201H45.8794H45.9387H45.998H46.0573H46.1167H46.176H46.2354H46.2947H46.3541H46.4135H46.4728H46.5322H46.5916H46.651H46.7104H46.7699H46.8293H46.8887H46.9481H47.0076H47.067H47.1264H47.1859H47.2453H47.3048H47.3643H47.4237H47.4832H47.5427H47.6021H47.6616H47.7211H47.7806H47.8401H47.8996H47.959H48.0185H48.078H48.1375H48.197H48.2565H48.316H48.3755H48.435H48.4945H48.554H48.6135H48.673H48.7325H48.792C52.0033 42.1006 54.1736 40.0228 56.1549 37.9661C56.2752 37.8412 56.3949 37.7164 56.514 37.5921C57.3778 36.6906 58.2147 35.8173 59.1008 35.1421C60.1077 34.3748 61.1724 33.8679 62.4034 33.8679Z" stroke="#D1D1E0" stroke-width="0.118551"/>
</g>
<defs>
<filter id="filter0_d_28828_55650" x="1.06201" y="25.8086" width="107.645" height="75.043" filterUnits="userSpaceOnUse" color-interpolation-filters="sRGB">
<feFlood flood-opacity="0" result="BackgroundImageFix"/>
<feColorMatrix in="SourceAlpha" type="matrix" values="0 0 0 0 0 0 0 0 0 0 0 0 0 0 0 0 0 0 127 0" result="hardAlpha"/>
<feOffset dy="4"/>
<feGaussianBlur stdDeviation="6"/>
<feComposite in2="hardAlpha" operator="out"/>
<feColorMatrix type="matrix" values="0 0 0 0 0 0 0 0 0 0 0 0 0 0 0 0 0 0 0.08 0"/>
<feBlend mode="normal" in2="BackgroundImageFix" result="effect1_dropShadow_28828_55650"/>
<feBlend mode="normal" in="SourceGraphic" in2="effect1_dropShadow_28828_55650" result="shape"/>
</filter>
<linearGradient id="paint0_linear_28828_55650" x1="-15.625" y1="-0.625487" x2="79.6158" y2="86.5637" gradientUnits="userSpaceOnUse">
<stop stop-color="#8585AD"/>
<stop offset="1" stop-color="#D1D1E0"/>
</linearGradient>
</defs>
</svg>
