<svg width="108" height="114" viewBox="0 0 108 114" fill="none" xmlns="http://www.w3.org/2000/svg">
<path fill-rule="evenodd" clip-rule="evenodd" d="M59.8586 0.0456898C70.5934 -0.698555 79.542 7.7952 87.6305 14.8912C95.067 21.4152 100.598 29.4813 103.999 38.7703C107.515 48.3706 109.02 58.4399 107.265 68.5117C105.283 79.8811 101.884 91.4579 93.4439 99.3305C84.4091 107.758 72.0388 114.808 59.8586 112.731C47.9875 110.707 42.1963 97.6516 33.6777 89.1406C26.7841 82.2531 19.7905 76.126 14.8277 67.7401C8.48585 57.024 -3.62712 45.5453 1.04791 34.0044C5.80369 22.2642 23.7804 24.8919 34.7508 18.5573C43.9815 13.2273 49.2247 0.782944 59.8586 0.0456898Z" fill="#EAF1FA"/>
<path d="M18.0195 24.0658C18.0195 19.5481 21.6819 15.8857 26.1996 15.8857C26.1996 15.8857 26.1996 15.8857 26.1996 15.8857C26.1996 15.8857 46.8867 15.8857 52.2215 15.8857C57.5563 15.8857 60.5201 24.0658 66.9811 24.0658C73.2543 24.0658 91.3739 24.2893 92.4221 24.3023C92.4561 24.3027 92.4868 24.3028 92.5208 24.303C97.0149 24.3306 100.65 27.9823 100.65 32.4829L98.0415 57.6157C98.0415 62.1334 94.3792 65.7957 89.8615 65.7957H28.3335C23.8158 65.7957 20.1535 62.1334 20.1535 57.6157L18.0195 24.0658Z" fill="url(#paint0_linear_28164_77983)"/>
<rect x="30.8594" y="21" width="62.9506" height="70.1822" rx="5.09769" fill="url(#paint1_linear_28164_77983)"/>
<g filter="url(#filter0_d_28164_77983)">
<rect x="28" y="24.542" width="61" height="63" rx="5.09769" fill="url(#paint2_linear_28164_77983)"/>
</g>
<g filter="url(#filter1_d_28164_77983)">
<rect x="24" y="28.542" width="61" height="63" rx="5.09769" fill="url(#paint3_linear_28164_77983)"/>
</g>
<path d="M14.1074 53.3479C14.1074 48.0724 17.4272 45.405 24.5995 45.405C30.7049 45.405 41.7302 45.405 52.6958 45.405C59.5717 45.405 62.002 36.5137 67.3961 36.5137H96.856C101.046 36.5137 104.443 39.9106 104.443 44.1009L99.7609 84.0526C99.2274 88.5576 96.364 91.6399 92.1736 91.6399H25.6665C21.4762 91.6399 18.672 88.2612 18.0792 84.0526L14.1074 53.3479Z" fill="#66A8FF"/>
<path d="M74.9243 67.3746C74.9243 75.4607 68.5368 83.3417 60.453 83.3417C52.3692 83.3417 45.7607 75.4607 45.7607 67.3746C45.7607 59.2886 52.3692 54.0596 60.453 54.0596C68.5368 54.0596 74.9243 59.2886 74.9243 67.3746Z" fill="#F0F7FF"/>
<path fill-rule="evenodd" clip-rule="evenodd" d="M60.3426 63.5654C60.76 63.5654 61.0983 63.9038 61.0983 64.3212V72.3215L64.3428 69.0771C64.6379 68.782 65.1164 68.782 65.4116 69.0771C65.7067 69.3723 65.7067 69.8508 65.4116 70.1459L60.877 74.6805C60.5818 74.9757 60.1033 74.9757 59.8082 74.6805L55.2736 70.1459C54.9785 69.8508 54.9785 69.3723 55.2736 69.0771C55.5687 68.782 56.0473 68.782 56.3424 69.0771L59.5868 72.3215V64.3212C59.5868 63.9038 59.9252 63.5654 60.3426 63.5654Z" fill="#004299"/>
<defs>
<filter id="filter0_d_28164_77983" x="16" y="16.542" width="85" height="87" filterUnits="userSpaceOnUse" color-interpolation-filters="sRGB">
<feFlood flood-opacity="0" result="BackgroundImageFix"/>
<feColorMatrix in="SourceAlpha" type="matrix" values="0 0 0 0 0 0 0 0 0 0 0 0 0 0 0 0 0 0 127 0" result="hardAlpha"/>
<feOffset dy="4"/>
<feGaussianBlur stdDeviation="6"/>
<feComposite in2="hardAlpha" operator="out"/>
<feColorMatrix type="matrix" values="0 0 0 0 0 0 0 0 0 0 0 0 0 0 0 0 0 0 0.08 0"/>
<feBlend mode="normal" in2="BackgroundImageFix" result="effect1_dropShadow_28164_77983"/>
<feBlend mode="normal" in="SourceGraphic" in2="effect1_dropShadow_28164_77983" result="shape"/>
</filter>
<filter id="filter1_d_28164_77983" x="12" y="20.542" width="85" height="87" filterUnits="userSpaceOnUse" color-interpolation-filters="sRGB">
<feFlood flood-opacity="0" result="BackgroundImageFix"/>
<feColorMatrix in="SourceAlpha" type="matrix" values="0 0 0 0 0 0 0 0 0 0 0 0 0 0 0 0 0 0 127 0" result="hardAlpha"/>
<feOffset dy="4"/>
<feGaussianBlur stdDeviation="6"/>
<feComposite in2="hardAlpha" operator="out"/>
<feColorMatrix type="matrix" values="0 0 0 0 0 0 0 0 0 0 0 0 0 0 0 0 0 0 0.08 0"/>
<feBlend mode="normal" in2="BackgroundImageFix" result="effect1_dropShadow_28164_77983"/>
<feBlend mode="normal" in="SourceGraphic" in2="effect1_dropShadow_28164_77983" result="shape"/>
</filter>
<linearGradient id="paint0_linear_28164_77983" x1="16.8339" y1="15.0821" x2="96.7746" y2="71.3054" gradientUnits="userSpaceOnUse">
<stop stop-color="#4092FF"/>
<stop offset="1" stop-color="#0058CC"/>
</linearGradient>
<linearGradient id="paint1_linear_28164_77983" x1="62.3347" y1="21" x2="62.3347" y2="91.1822" gradientUnits="userSpaceOnUse">
<stop stop-color="#F0F7FF"/>
<stop offset="1" stop-color="#026FFF"/>
</linearGradient>
<linearGradient id="paint2_linear_28164_77983" x1="58.5" y1="24.542" x2="58.5" y2="87.542" gradientUnits="userSpaceOnUse">
<stop stop-color="#F0F7FF"/>
<stop offset="1" stop-color="#026FFF"/>
</linearGradient>
<linearGradient id="paint3_linear_28164_77983" x1="54.5" y1="28.542" x2="54.5" y2="91.542" gradientUnits="userSpaceOnUse">
<stop stop-color="#F0F7FF"/>
<stop offset="1" stop-color="#026FFF"/>
</linearGradient>
</defs>
</svg>
