<svg viewBox="0 0 80 84" fill="none" xmlns="http://www.w3.org/2000/svg">
<path fill-rule="evenodd" clip-rule="evenodd" d="M44.3397 0.0338443C52.2914 -0.517448 58.92 5.77422 64.9115 11.0305C70.42 15.8631 74.5171 21.838 77.0367 28.7188C79.6406 35.8301 80.7557 43.2889 79.4553 50.7494C77.9874 59.1712 75.4695 67.7466 69.2177 73.5781C62.5253 79.8207 53.362 85.0427 44.3397 83.5044C35.5463 82.0052 31.2565 72.3345 24.9465 66.0301C19.8401 60.9282 14.6596 56.3896 10.9835 50.1778C6.28582 42.24 -2.68676 33.7373 0.776231 25.1885C4.29903 16.492 17.6151 18.4385 25.7413 13.7462C32.5789 9.79797 36.4628 0.579958 44.3397 0.0338443Z" fill="#EAF1FA"/>
<path d="M13.3477 17.8269C13.3477 14.4804 16.0605 11.7676 19.4069 11.7676C19.4069 11.7676 19.4069 11.7676 19.4069 11.7676C19.4069 11.7676 34.7308 11.7676 38.6825 11.7676C42.6342 11.7676 44.8295 17.8269 49.6155 17.8269C54.2388 17.8269 67.5488 17.9908 68.4479 18.0019C68.4819 18.0023 68.5131 18.0024 68.5471 18.0027C71.8699 18.0302 74.5551 20.7324 74.5551 24.0618L72.6232 42.6787C72.6232 46.0251 69.9103 48.7379 66.5639 48.7379H20.9876C17.6412 48.7379 14.9283 46.0251 14.9283 42.6787L13.3477 17.8269Z" fill="url(#paint0_linear_29645_37164)"/>
<rect x="20.6367" y="15.8945" width="46.6301" height="51.9868" rx="5.09769" fill="url(#paint1_linear_29645_37164)"/>
<path d="M10.4497 39.5167C10.4497 35.6089 12.9088 33.633 18.2216 33.633C22.7441 33.633 30.911 33.633 39.0337 33.633C44.127 33.633 45.9272 27.0469 49.9228 27.0469H71.745C74.8489 27.0469 77.3652 29.5631 77.3652 32.6671L73.8967 62.2609C73.5016 65.5979 71.3805 67.8811 68.2765 67.8811H19.012C15.908 67.8811 13.8309 65.3784 13.3918 62.2609L10.4497 39.5167Z" fill="#66A8FF"/>
<path d="M55.4992 49.9067C55.4992 55.8963 50.7678 61.7341 44.7798 61.7341C38.7918 61.7341 33.8966 55.8963 33.8966 49.9067C33.8966 43.917 38.7918 40.0437 44.7798 40.0437C50.7678 40.0437 55.4992 43.917 55.4992 49.9067Z" fill="#F0F7FF"/>
<path fill-rule="evenodd" clip-rule="evenodd" d="M47.9236 47.8547C48.1684 47.5749 48.5937 47.5465 48.8736 47.7914C49.1534 48.0362 49.1817 48.4615 48.9369 48.7413L43.7119 54.7128C43.5892 54.853 43.4138 54.9361 43.2276 54.9423C43.0414 54.9485 42.8609 54.8773 42.7292 54.7455L40.4899 52.5062C40.227 52.2433 40.227 51.8171 40.4899 51.5541C40.7528 51.2912 41.179 51.2912 41.442 51.5541L43.1724 53.2846L47.9236 47.8547Z" fill="#004299"/>
<defs>
<linearGradient id="paint0_linear_29645_37164" x1="12.4694" y1="11.1723" x2="71.6847" y2="52.8192" gradientUnits="userSpaceOnUse">
<stop stop-color="#4092FF"/>
<stop offset="1" stop-color="#0058CC"/>
</linearGradient>
<linearGradient id="paint1_linear_29645_37164" x1="43.9518" y1="15.8945" x2="43.9518" y2="67.8814" gradientUnits="userSpaceOnUse">
<stop stop-color="#F0F7FF"/>
<stop offset="1" stop-color="#026FFF"/>
</linearGradient>
</defs>
</svg>
