<svg width="109" height="101" viewBox="0 0 109 101" fill="none" xmlns="http://www.w3.org/2000/svg">
<path fill-rule="evenodd" clip-rule="evenodd" d="M55.4247 0.0403985C65.3643 -0.617657 73.65 6.89244 81.1393 13.1666C88.025 18.9352 93.1464 26.0671 96.2958 34.2804C99.5508 42.7689 100.945 51.6721 99.3192 60.5774C97.4843 70.6302 94.3369 80.8663 86.5221 87.8271C78.1566 95.2786 66.7026 101.512 55.4247 99.6758C44.4329 97.8862 39.0706 86.3427 31.1831 78.8174C24.8001 72.7275 18.3246 67.31 13.7293 59.8952C7.85727 50.4201 -3.35845 40.2708 0.970288 30.0664C5.37379 19.6858 22.0189 22.0092 32.1767 16.4082C40.7237 11.6954 45.5785 0.692272 55.4247 0.0403985Z" fill="#F9F9FB"/>
<g filter="url(#filter0_d_29643_36988)">
<path d="M16.6844 22.2831C16.6844 18.1 20.0755 14.709 24.2585 14.709C24.2585 14.709 24.2585 14.709 24.2585 14.709C24.2585 14.709 43.4133 14.709 48.3529 14.709C53.2926 14.709 56.0368 22.2831 62.0192 22.2831C67.8144 22.2831 84.5282 22.4891 85.5688 22.502C85.6028 22.5024 85.6369 22.5026 85.6709 22.5028C89.8304 22.5303 93.1938 25.9107 93.1938 30.0767L90.7789 53.3478C90.7789 57.5309 87.3878 60.9219 83.2048 60.9219H26.2344C22.0513 60.9219 18.6603 57.5309 18.6603 53.3478L16.6844 22.2831Z" fill="url(#paint0_linear_29643_36988)"/>
<path d="M13.062 49.3954C13.062 44.5106 16.1359 42.0408 22.7769 42.0408C28.4301 42.0408 38.6386 42.0408 48.792 42.0408C55.1586 42.0408 57.4089 33.8081 62.4034 33.8081H89.6811C93.561 33.8081 96.7063 36.9534 96.7063 40.8334L92.3708 77.8257C91.8768 81.9969 89.2255 84.8509 85.3455 84.8509H23.7649C19.8849 84.8509 17.2885 81.7225 16.7396 77.8257L13.062 49.3954Z" fill="#C2C2D6"/>
<path d="M18.7196 53.3478H18.7197L18.7195 53.3441L18.0411 42.6781C19.345 42.2937 20.9194 42.1001 22.7769 42.1001H22.8101H22.8434H22.8768H22.9103H22.9438H22.9775H23.0113H23.0452H23.0792H23.1133H23.1476H23.1819H23.2163H23.2508H23.2854H23.3201H23.3549H23.3899H23.4249H23.46H23.4952H23.5305H23.5659H23.6015H23.6371H23.6728H23.7086H23.7445H23.7805H23.8166H23.8528H23.8892H23.9256H23.9621H23.9987H24.0353H24.0721H24.109H24.146H24.1831H24.2203H24.2575H24.2949H24.3324H24.3699H24.4076H24.4453H24.4832H24.5211H24.5592H24.5973H24.6355H24.6738H24.7122H24.7507H24.7893H24.828H24.8668H24.9057H24.9446H24.9837H25.0228H25.0621H25.1014H25.1408H25.1803H25.2199H25.2596H25.2994H25.3393H25.3792H25.4193H25.4594H25.4997H25.54H25.5804H25.6209H25.6615H25.7021H25.7429H25.7837H25.8247H25.8657H25.9068H25.948H25.9893H26.0307H26.0721H26.1137H26.1553H26.197H26.2388H26.2807H26.3227H26.3647H26.4069H26.4491H26.4914H26.5338H26.5763H26.6188H26.6615H26.7042H26.747H26.7899H26.8329H26.876H26.9191H26.9623H27.0056H27.049H27.0925H27.136H27.1797H27.2234H27.2672H27.311H27.355H27.399H27.4431H27.4873H27.5316H27.576H27.6204H27.6649H27.7095H27.7541H27.7989H27.8437H27.8886H27.9336H27.9786H28.0238H28.069H28.1142H28.1596H28.205H28.2506H28.2961H28.3418H28.3875H28.4334H28.4792H28.5252H28.5712H28.6174H28.6635H28.7098H28.7561H28.8026H28.849H28.8956H28.9422H28.9889H29.0357H29.0825H29.1294H29.1764H29.2235H29.2706H29.3178H29.3651H29.4125H29.4599H29.5074H29.5549H29.6025H29.6502H29.698H29.7458H29.7937H29.8417H29.8898H29.9379H29.9861H30.0343H30.0826H30.131H30.1795H30.228H30.2766H30.3252H30.3739H30.4227H30.4716H30.5205H30.5695H30.6185H30.6676H30.7168H30.7661H30.8154H30.8648H30.9142H30.9637H31.0133H31.0629H31.1126H31.1624H31.2122H31.2621H31.312H31.362H31.4121H31.4622H31.5124H31.5627H31.613H31.6634H31.7139H31.7644H31.8149H31.8655H31.9162H31.967H32.0178H32.0687H32.1196H32.1706H32.2216H32.2727H32.3239H32.3751H32.4264H32.4777H32.5291H32.5806H32.6321H32.6836H32.7353H32.7869H32.8387H32.8905H32.9423H32.9942H33.0462H33.0982H33.1503H33.2024H33.2546H33.3068H33.3591H33.4115H33.4639H33.5163H33.5689H33.6214H33.674H33.7267H33.7794H33.8322H33.885H33.9379H33.9908H34.0438H34.0969H34.15H34.2031H34.2563H34.3095H34.3628H34.4162H34.4696H34.523H34.5765H34.63H34.6836H34.7373H34.7909H34.8447H34.8985H34.9523H35.0062H35.0601H35.1141H35.1681H35.2222H35.2763H35.3305H35.3847H35.439H35.4933H35.5476H35.602H35.6565H35.711H35.7655H35.8201H35.8747H35.9294H35.9841H36.0389H36.0937H36.1485H36.2034H36.2583H36.3133H36.3683H36.4234H36.4785H36.5337H36.5889H36.6441H36.6994H36.7547H36.81H36.8654H36.9209H36.9764H37.0319H37.0875H37.1431H37.1987H37.2544H37.3101H37.3659H37.4217H37.4775H37.5334H37.5893H37.6453H37.7012H37.7573H37.8133H37.8695H37.9256H37.9818H38.038H38.0942H38.1505H38.2069H38.2632H38.3196H38.3761H38.4325H38.489H38.5456H38.6021H38.6588H38.7154H38.7721H38.8288H38.8855H38.9423H38.9991H39.056H39.1129H39.1698H39.2267H39.2837H39.3407H39.3977H39.4548H39.5119H39.569H39.6262H39.6834H39.7406H39.7979H39.8552H39.9125H39.9698H40.0272H40.0846H40.1421H40.1995H40.257H40.3146H40.3721H40.4297H40.4873H40.5449H40.6026H40.6603H40.718H40.7757H40.8335H40.8913H40.9491H41.007H41.0649H41.1228H41.1807H41.2386H41.2966H41.3546H41.4127H41.4707H41.5288H41.5869H41.645H41.7032H41.7613H41.8195H41.8777H41.936H41.9942H42.0525H42.1108H42.1692H42.2275H42.2859H42.3443H42.4027H42.4611H42.5196H42.5781H42.6366H42.6951H42.7536H42.8122H42.8708H42.9294H42.988H43.0466H43.1053H43.164H43.2226H43.2814H43.3401H43.3988H43.4576H43.5164H43.5752H43.634H43.6928H43.7517H43.8105H43.8694H43.9283H43.9872H44.0461H44.1051H44.164H44.223H44.282H44.341H44.4H44.459H44.5181H44.5771H44.6362H44.6953H44.7544H44.8135H44.8726H44.9317H44.9909H45.05H45.1092H45.1684H45.2276H45.2868H45.346H45.4052H45.4645H45.5237H45.583H45.6422H45.7015H45.7608H45.8201H45.8794H45.9387H45.998H46.0573H46.1167H46.176H46.2354H46.2947H46.3541H46.4135H46.4728H46.5322H46.5916H46.651H46.7104H46.7699H46.8293H46.8887H46.9481H47.0076H47.067H47.1264H47.1859H47.2453H47.3048H47.3643H47.4237H47.4832H47.5427H47.6021H47.6616H47.7211H47.7806H47.8401H47.8996H47.959H48.0185H48.078H48.1375H48.197H48.2565H48.316H48.3755H48.435H48.4945H48.554H48.6135H48.673H48.7325H48.792C52.0033 42.1001 54.1736 40.0223 56.1549 37.9656C56.2752 37.8407 56.3948 37.7159 56.5139 37.5916C57.3778 36.6901 58.2147 35.8169 59.1008 35.1416C60.1077 34.3743 61.1724 33.8674 62.4034 33.8674H89.6811C90.7513 33.8674 91.765 34.1087 92.671 34.5399L90.7199 53.3417L90.7196 53.3417V53.3478C90.7196 57.4982 87.3551 60.8627 83.2048 60.8627H26.2344C22.0841 60.8627 18.7196 57.4982 18.7196 53.3478ZM22.7769 41.9815C20.9254 41.9815 19.3472 42.1731 18.0333 42.5568L16.7437 22.2812C16.7447 18.1317 20.1088 14.7683 24.2585 14.7683V14.709C24.2585 14.7683 24.2586 14.7683 24.2588 14.7683H24.2594H24.2605H24.262H24.264H24.2664H24.2692H24.2724H24.2761H24.2802H24.2847H24.2897H24.295H24.3008H24.307H24.3136H24.3207H24.3281H24.336H24.3442H24.3529H24.362H24.3715H24.3814H24.3917H24.4024H24.4135H24.4249H24.4368H24.4491H24.4618H24.4749H24.4883H24.5022H24.5164H24.531H24.546H24.5614H24.5772H24.5934H24.6099H24.6268H24.6441H24.6618H24.6798H24.6982H24.717H24.7361H24.7556H24.7755H24.7957H24.8163H24.8373H24.8586H24.8803H24.9023H24.9247H24.9475H24.9705H24.994H25.0178H25.0419H25.0664H25.0912H25.1164H25.1419H25.1678H25.194H25.2205H25.2474H25.2746H25.3021H25.33H25.3582H25.3867H25.4156H25.4447H25.4742H25.504H25.5342H25.5646H25.5954H25.6265H25.6579H25.6896H25.7217H25.754H25.7867H25.8196H25.8529H25.8865H25.9203H25.9545H25.989H26.0237H26.0588H26.0942H26.1298H26.1658H26.202H26.2385H26.2754H26.3125H26.3498H26.3875H26.4255H26.4637H26.5022H26.541H26.5801H26.6194H26.659H26.6989H26.739H26.7795H26.8201H26.8611H26.9023H26.9438H26.9855H27.0275H27.0698H27.1123H27.1551H27.1981H27.2414H27.2849H27.3287H27.3727H27.4169H27.4615H27.5062H27.5512H27.5964H27.6419H27.6876H27.7336H27.7798H27.8262H27.8728H27.9197H27.9668H28.0141H28.0617H28.1094H28.1574H28.2057H28.2541H28.3028H28.3516H28.4007H28.45H28.4995H28.5493H28.5992H28.6493H28.6997H28.7502H28.801H28.8519H28.9031H28.9544H29.006H29.0577H29.1097H29.1618H29.2141H29.2666H29.3193H29.3722H29.4253H29.4785H29.5319H29.5856H29.6393H29.6933H29.7475H29.8018H29.8563H29.9109H29.9658H30.0208H30.0759H30.1313H30.1868H30.2424H30.2983H30.3542H30.4104H30.4667H30.5231H30.5797H30.6365H30.6934H30.7504H30.8076H30.865H30.9225H30.9801H31.0379H31.0958H31.1539H31.2121H31.2704H31.3289H31.3875H31.4462H31.505H31.564H31.6231H31.6824H31.7417H31.8012H31.8608H31.9205H31.9804H32.0403H32.1004H32.1606H32.2209H32.2813H32.3418H32.4024H32.4632H32.524H32.5849H32.646H32.7071H32.7683H32.8297H32.8911H32.9526H33.0142H33.0759H33.1377H33.1996H33.2616H33.3236H33.3858H33.448H33.5103H33.5727H33.6351H33.6976H33.7602H33.8229H33.8857H33.9485H34.0114H34.0743H34.1374H34.2004H34.2636H34.3268H34.3901H34.4534H34.5168H34.5802H34.6437H34.7072H34.7708H34.8345H34.8982H34.9619H35.0257H35.0895H35.1534H35.2173H35.2812H35.3452H35.4092H35.4733H35.5373H35.6014H35.6656H35.7298H35.794H35.8582H35.9224H35.9867H36.051H36.1153H36.1796H36.244H36.3083H36.3727H36.4371H36.5015H36.5659H36.6303H36.6947H36.7591H36.8236H36.888H36.9524H37.0168H37.0812H37.1457H37.2101H37.2745H37.3389H37.4032H37.4676H37.532H37.5963H37.6606H37.7249H37.7892H37.8535H37.9177H37.9819H38.0461H38.1103H38.1744H38.2386H38.3026H38.3667H38.4307H38.4947H38.5586H38.6225H38.6863H38.7502H38.8139H38.8777H38.9413H39.005H39.0685H39.1321H39.1956H39.259H39.3223H39.3857H39.4489H39.5121H39.5752H39.6383H39.7013H39.7643H39.8271H39.8899H39.9527H40.0153H40.0779H40.1404H40.2029H40.2652H40.3275H40.3897H40.4518H40.5139H40.5758H40.6377H40.6995H40.7611H40.8227H40.8842H40.9456H41.007H41.0682H41.1293H41.1903H41.2512H41.312H41.3727H41.4333H41.4938H41.5542H41.6145H41.6746H41.7347H41.7946H41.8544H41.9141H41.9737H42.0332H42.0925H42.1517H42.2108H42.2698H42.3286H42.3873H42.4459H42.5043H42.5626H42.6208H42.6788H42.7367H42.7944H42.852H42.9095H42.9668H43.024H43.081H43.1379H43.1946H43.2512H43.3076H43.3639H43.42H43.4759H43.5317H43.5873H43.6428H43.6981H43.7532H43.8082H43.863H43.9176H43.9721H44.0264H44.0805H44.1344H44.1881H44.2417H44.2951H44.3483H44.4014H44.4542H44.5069H44.5593H44.6116H44.6637H44.7156H44.7673H44.8188H44.8701H44.9212H44.9721H45.0228H45.0733H45.1236H45.1737H45.2236H45.2733H45.3228H45.372H45.4211H45.4699H45.5185H45.5669H45.6151H45.663H45.7108H45.7583H45.8055H45.8526H45.8994H45.946H45.9924H46.0385H46.0844H46.1301H46.1755H46.2207H46.2656H46.3103H46.3548H46.399H46.443H46.4867H46.5302H46.5734H46.6164H46.6591H46.7015H46.7437H46.7857H46.8274H46.8688H46.9099H46.9508H46.9915H47.0318H47.0719H47.1118H47.1513H47.1906H47.2296H47.2683H47.3068H47.345H47.3828H47.4205H47.4578H47.4948H47.5316H47.568H47.6042H47.6401H47.6757H47.711H47.746H47.7807H47.8151H47.8492H47.883H47.9165H47.9497H47.9826H48.0152H48.0475H48.0795H48.1111H48.1425H48.1735H48.2042H48.2346H48.2647H48.2944H48.3238H48.3529C49.5718 14.7683 50.6579 15.2352 51.6976 15.9415C52.639 16.5809 53.5382 17.4134 54.4615 18.2683C54.559 18.3585 54.6567 18.449 54.7548 18.5396C56.8042 20.4313 59.0019 22.3424 62.0192 22.3424C67.814 22.3424 84.5272 22.5484 85.5681 22.5613C85.6023 22.5617 85.6367 22.5618 85.6705 22.5621C89.7964 22.5894 93.1328 25.9417 93.1345 30.0736L92.684 34.4149C91.7723 33.9876 90.7546 33.7488 89.6811 33.7488H62.4034C61.1371 33.7488 60.0476 34.271 59.0289 35.0473C58.1349 35.7286 57.2911 36.6092 56.4281 37.5098C56.309 37.6341 56.1896 37.7587 56.0695 37.8833C54.0854 39.943 51.9473 41.9815 48.792 41.9815H48.7325H48.673H48.6135H48.554H48.4945H48.435H48.3755H48.316H48.2565H48.197H48.1375H48.078H48.0185H47.959H47.8996H47.8401H47.7806H47.7211H47.6616H47.6021H47.5427H47.4832H47.4237H47.3643H47.3048H47.2453H47.1859H47.1264H47.067H47.0076H46.9481H46.8887H46.8293H46.7699H46.7104H46.651H46.5916H46.5322H46.4728H46.4135H46.3541H46.2947H46.2354H46.176H46.1167H46.0573H45.998H45.9387H45.8794H45.8201H45.7608H45.7015H45.6422H45.583H45.5237H45.4645H45.4052H45.346H45.2868H45.2276H45.1684H45.1092H45.05H44.9909H44.9317H44.8726H44.8135H44.7544H44.6953H44.6362H44.5771H44.5181H44.459H44.4H44.341H44.282H44.223H44.164H44.1051H44.0461H43.9872H43.9283H43.8694H43.8105H43.7517H43.6928H43.634H43.5752H43.5164H43.4576H43.3988H43.3401H43.2814H43.2226H43.164H43.1053H43.0466H42.988H42.9294H42.8708H42.8122H42.7536H42.6951H42.6366H42.5781H42.5196H42.4611H42.4027H42.3443H42.2859H42.2275H42.1692H42.1108H42.0525H41.9942H41.936H41.8777H41.8195H41.7613H41.7032H41.645H41.5869H41.5288H41.4707H41.4127H41.3546H41.2966H41.2386H41.1807H41.1228H41.0649H41.007H40.9491H40.8913H40.8335H40.7757H40.718H40.6603H40.6026H40.5449H40.4873H40.4297H40.3721H40.3146H40.257H40.1995H40.1421H40.0846H40.0272H39.9698H39.9125H39.8552H39.7979H39.7406H39.6834H39.6262H39.569H39.5119H39.4548H39.3977H39.3407H39.2837H39.2267H39.1698H39.1129H39.056H38.9991H38.9423H38.8855H38.8288H38.7721H38.7154H38.6588H38.6021H38.5456H38.489H38.4325H38.3761H38.3196H38.2632H38.2069H38.1505H38.0942H38.038H37.9818H37.9256H37.8695H37.8133H37.7573H37.7012H37.6453H37.5893H37.5334H37.4775H37.4217H37.3659H37.3101H37.2544H37.1987H37.1431H37.0875H37.0319H36.9764H36.9209H36.8654H36.81H36.7547H36.6994H36.6441H36.5889H36.5337H36.4785H36.4234H36.3683H36.3133H36.2583H36.2034H36.1485H36.0937H36.0389H35.9841H35.9294H35.8747H35.8201H35.7655H35.711H35.6565H35.602H35.5476H35.4933H35.439H35.3847H35.3305H35.2763H35.2222H35.1681H35.1141H35.0601H35.0062H34.9523H34.8985H34.8447H34.7909H34.7373H34.6836H34.63H34.5765H34.523H34.4696H34.4162H34.3628H34.3095H34.2563H34.2031H34.15H34.0969H34.0438H33.9908H33.9379H33.885H33.8322H33.7794H33.7267H33.674H33.6214H33.5689H33.5163H33.4639H33.4115H33.3591H33.3068H33.2546H33.2024H33.1503H33.0982H33.0462H32.9942H32.9423H32.8905H32.8387H32.7869H32.7353H32.6836H32.6321H32.5806H32.5291H32.4777H32.4264H32.3751H32.3239H32.2727H32.2216H32.1706H32.1196H32.0687H32.0178H31.967H31.9162H31.8655H31.8149H31.7644H31.7139H31.6634H31.613H31.5627H31.5124H31.4622H31.4121H31.362H31.312H31.2621H31.2122H31.1624H31.1126H31.0629H31.0133H30.9637H30.9142H30.8648H30.8154H30.7661H30.7168H30.6676H30.6185H30.5695H30.5205H30.4716H30.4227H30.3739H30.3252H30.2766H30.228H30.1795H30.131H30.0826H30.0343H29.9861H29.9379H29.8898H29.8417H29.7937H29.7458H29.698H29.6502H29.6025H29.5549H29.5074H29.4599H29.4125H29.3651H29.3178H29.2706H29.2235H29.1764H29.1294H29.0825H29.0357H28.9889H28.9422H28.8956H28.849H28.8026H28.7561H28.7098H28.6635H28.6174H28.5712H28.5252H28.4792H28.4334H28.3875H28.3418H28.2961H28.2506H28.205H28.1596H28.1142H28.069H28.0238H27.9786H27.9336H27.8886H27.8437H27.7989H27.7541H27.7095H27.6649H27.6204H27.576H27.5316H27.4873H27.4431H27.399H27.355H27.311H27.2672H27.2234H27.1797H27.136H27.0925H27.049H27.0056H26.9623H26.9191H26.876H26.8329H26.7899H26.747H26.7042H26.6615H26.6188H26.5763H26.5338H26.4914H26.4491H26.4069H26.3647H26.3227H26.2807H26.2388H26.197H26.1553H26.1137H26.0721H26.0307H25.9893H25.948H25.9068H25.8657H25.8247H25.7837H25.7429H25.7021H25.6615H25.6209H25.5804H25.54H25.4997H25.4594H25.4193H25.3792H25.3393H25.2994H25.2596H25.2199H25.1803H25.1408H25.1014H25.0621H25.0228H24.9837H24.9446H24.9057H24.8668H24.828H24.7893H24.7507H24.7122H24.6738H24.6355H24.5973H24.5592H24.5211H24.4832H24.4453H24.4076H24.3699H24.3324H24.2949H24.2575H24.2203H24.1831H24.146H24.109H24.0721H24.0353H23.9987H23.9621H23.9256H23.8892H23.8528H23.8166H23.7805H23.7445H23.7086H23.6728H23.6371H23.6015H23.5659H23.5305H23.4952H23.46H23.4249H23.3899H23.3549H23.3201H23.2854H23.2508H23.2163H23.1819H23.1476H23.1133H23.0792H23.0452H23.0113H22.9775H22.9438H22.9103H22.8768H22.8434H22.8101H22.7769ZM92.7845 34.5951C95.0732 35.7359 96.6457 38.0992 96.6471 40.8298L92.3119 77.8187C92.3119 77.8187 92.3119 77.8187 92.3119 77.8188C92.0661 79.8939 91.2843 81.6372 90.0855 82.861C88.8874 84.0843 87.27 84.7916 85.3455 84.7916H23.7649C19.924 84.7916 17.3445 81.6955 16.7983 77.8174L13.1213 49.3916C13.1221 46.9644 13.8856 45.1467 15.4652 43.9333C16.1348 43.4189 16.9527 43.0118 17.9245 42.7131L18.601 53.3497C18.602 57.5647 22.0192 60.9812 26.2344 60.9812H83.2048C87.4195 60.9812 90.8364 57.5653 90.8381 53.351L92.7845 34.5951Z" stroke="#C2C2D6" stroke-width="0.118551"/>
</g>
<defs>
<filter id="filter0_d_29643_36988" x="1.06201" y="6.70898" width="107.645" height="94.1416" filterUnits="userSpaceOnUse" color-interpolation-filters="sRGB">
<feFlood flood-opacity="0" result="BackgroundImageFix"/>
<feColorMatrix in="SourceAlpha" type="matrix" values="0 0 0 0 0 0 0 0 0 0 0 0 0 0 0 0 0 0 127 0" result="hardAlpha"/>
<feOffset dy="4"/>
<feGaussianBlur stdDeviation="6"/>
<feComposite in2="hardAlpha" operator="out"/>
<feColorMatrix type="matrix" values="0 0 0 0 0 0 0 0 0 0 0 0 0 0 0 0 0 0 0.08 0"/>
<feBlend mode="normal" in2="BackgroundImageFix" result="effect1_dropShadow_29643_36988"/>
<feBlend mode="normal" in="SourceGraphic" in2="effect1_dropShadow_29643_36988" result="shape"/>
</filter>
<linearGradient id="paint0_linear_29643_36988" x1="-22.2606" y1="-8.56565" x2="111.126" y2="79.3895" gradientUnits="userSpaceOnUse">
<stop stop-color="#8585AD"/>
<stop offset="1" stop-color="#D1D1E0"/>
</linearGradient>
</defs>
</svg>
