<svg width="117" height="114" viewBox="0 0 117 114" fill="none" xmlns="http://www.w3.org/2000/svg">
<path fill-rule="evenodd" clip-rule="evenodd" d="M59.8586 0.0456898C70.5934 -0.698555 79.542 7.7952 87.6305 14.8912C95.067 21.4152 100.598 29.4813 103.999 38.7703C107.515 48.3706 109.02 58.4399 107.265 68.5117C105.283 79.8811 101.884 91.4579 93.4439 99.3305C84.4091 107.758 72.0388 114.808 59.8586 112.731C47.9875 110.707 42.1963 97.6516 33.6777 89.1406C26.7841 82.2531 19.7905 76.126 14.8277 67.7401C8.48585 57.024 -3.62712 45.5453 1.04791 34.0044C5.80369 22.2642 23.7804 24.8919 34.7508 18.5573C43.9815 13.2273 49.2247 0.782944 59.8586 0.0456898Z" fill="#EAF1FA"/>
<path d="M18.0195 24.0658C18.0195 19.5481 21.6819 15.8857 26.1996 15.8857C26.1996 15.8857 26.1996 15.8857 26.1996 15.8857C26.1996 15.8857 46.8867 15.8857 52.2215 15.8857C57.5563 15.8857 60.5201 24.0658 66.9811 24.0658C73.2543 24.0658 91.3739 24.2893 92.4221 24.3023C92.4561 24.3027 92.4868 24.3028 92.5208 24.303C97.0149 24.3306 100.65 27.9823 100.65 32.4829L98.0415 57.6157C98.0415 62.1334 94.3792 65.7957 89.8615 65.7957H28.3335C23.8158 65.7957 20.1535 62.1334 20.1535 57.6157L18.0195 24.0658Z" fill="url(#paint0_linear_28164_77980)"/>
<path fill-rule="evenodd" clip-rule="evenodd" d="M27.106 25.0581C27.0365 25.3936 27 25.7413 27 26.0975V86.0843C27 88.8997 29.2823 91.182 32.0977 91.182H84.8529C87.6683 91.182 89.9506 88.8997 89.9506 86.0843V26.0975C89.9506 25.7522 89.9163 25.415 89.8509 25.0891L84.9783 28L79.5002 25L89.8322 25H37.5L32.4782 28L27.106 25.0581ZM48 25L42.9782 28L37.5 25L48 25ZM58.5 25L53.4782 28L48 25L58.5 25ZM69 25L63.9782 28L58.5 25L69 25ZM69 25L74.4785 28L79.5002 25L69 25Z" fill="url(#paint1_linear_28164_77980)"/>
<g filter="url(#filter0_d_28164_77980)">
<path d="M14.1074 53.3479C14.1074 48.0724 17.4272 45.405 24.5995 45.405C30.7049 45.405 41.7302 45.405 52.6958 45.405C59.5717 45.405 62.002 36.5137 67.3961 36.5137H96.856C101.046 36.5137 104.443 39.9106 104.443 44.1009L99.7609 84.0526C99.2274 88.5576 96.364 91.6399 92.1736 91.6399H25.6665C21.4762 91.6399 18.672 88.2612 18.0792 84.0526L14.1074 53.3479Z" fill="#66A8FF"/>
</g>
<path d="M74.9243 67.3746C74.9243 75.4607 68.5368 83.3417 60.453 83.3417C52.3692 83.3417 45.7607 75.4607 45.7607 67.3746C45.7607 59.2886 52.3692 54.0596 60.453 54.0596C68.5368 54.0596 74.9243 59.2886 74.9243 67.3746Z" fill="#F0F7FF"/>
<path d="M66.4222 73.7388L61.0554 63.7722C60.675 63.0655 59.6616 63.0655 59.2809 63.7722L53.9144 73.7388C53.8318 73.8922 53.7904 74.0644 53.7942 74.2386C53.798 74.4128 53.8469 74.583 53.9362 74.7326C54.0254 74.8823 54.1519 75.0062 54.3033 75.0924C54.4548 75.1785 54.626 75.2239 54.8002 75.2242H65.5349C65.7092 75.2242 65.8806 75.179 66.0323 75.0929C66.1839 75.0069 66.3106 74.883 66.4001 74.7333C66.4895 74.5836 66.5385 74.4133 66.5424 74.239C66.5463 74.0647 66.5049 73.8923 66.4222 73.7388V73.7388ZM60.1683 73.6812C60.0437 73.6812 59.922 73.6442 59.8184 73.575C59.7148 73.5058 59.6341 73.4075 59.5864 73.2924C59.5388 73.1773 59.5263 73.0507 59.5506 72.9285C59.5749 72.8063 59.6349 72.6941 59.723 72.606C59.8111 72.5179 59.9233 72.458 60.0454 72.4337C60.1676 72.4094 60.2942 72.4218 60.4093 72.4695C60.5244 72.5172 60.6228 72.5979 60.692 72.7015C60.7612 72.805 60.7981 72.9268 60.7981 73.0514C60.7981 73.1341 60.7818 73.216 60.7502 73.2924C60.7185 73.3688 60.6721 73.4382 60.6136 73.4967C60.5552 73.5552 60.4857 73.6016 60.4093 73.6332C60.3329 73.6649 60.251 73.6812 60.1683 73.6812ZM60.8523 67.3469L60.6715 71.1887C60.6715 71.3223 60.6184 71.4505 60.524 71.545C60.4295 71.6395 60.3013 71.6926 60.1677 71.6926C60.0341 71.6926 59.9059 71.6395 59.8114 71.545C59.7169 71.4505 59.6638 71.3223 59.6638 71.1887L59.4831 67.3485C59.479 67.2567 59.4935 67.1651 59.5256 67.079C59.5577 66.993 59.6068 66.9143 59.67 66.8476C59.7332 66.7809 59.8091 66.7276 59.8933 66.6909C59.9775 66.6542 60.0683 66.6349 60.1601 66.634H60.1667C60.2592 66.6339 60.3507 66.6526 60.4358 66.6889C60.5209 66.7252 60.5977 66.7784 60.6616 66.8452C60.7256 66.912 60.7753 66.9911 60.8079 67.0776C60.8404 67.1642 60.8551 67.2564 60.851 67.3488L60.8523 67.3469Z" fill="#CC3347"/>
<defs>
<filter id="filter0_d_28164_77980" x="2.10742" y="28.5137" width="114.336" height="79.126" filterUnits="userSpaceOnUse" color-interpolation-filters="sRGB">
<feFlood flood-opacity="0" result="BackgroundImageFix"/>
<feColorMatrix in="SourceAlpha" type="matrix" values="0 0 0 0 0 0 0 0 0 0 0 0 0 0 0 0 0 0 127 0" result="hardAlpha"/>
<feOffset dy="4"/>
<feGaussianBlur stdDeviation="6"/>
<feComposite in2="hardAlpha" operator="out"/>
<feColorMatrix type="matrix" values="0 0 0 0 0 0 0 0 0 0 0 0 0 0 0 0 0 0 0.08 0"/>
<feBlend mode="normal" in2="BackgroundImageFix" result="effect1_dropShadow_28164_77980"/>
<feBlend mode="normal" in="SourceGraphic" in2="effect1_dropShadow_28164_77980" result="shape"/>
</filter>
<linearGradient id="paint0_linear_28164_77980" x1="16.8339" y1="15.0821" x2="96.7746" y2="71.3054" gradientUnits="userSpaceOnUse">
<stop stop-color="#4092FF"/>
<stop offset="1" stop-color="#0058CC"/>
</linearGradient>
<linearGradient id="paint1_linear_28164_77980" x1="58.4753" y1="20.9998" x2="58.4753" y2="91.182" gradientUnits="userSpaceOnUse">
<stop stop-color="#FFF8F8"/>
<stop offset="1" stop-color="#ED4F4F"/>
</linearGradient>
</defs>
</svg>
