<svg width="100" height="100" viewBox="0 0 100 100" fill="none" xmlns="http://www.w3.org/2000/svg">
<path fill-rule="evenodd" clip-rule="evenodd" d="M55.4247 0.0403985C65.3643 -0.617657 73.65 6.89244 81.1393 13.1666C88.025 18.9352 93.1464 26.0671 96.2958 34.2804C99.5508 42.7689 100.945 51.6721 99.3191 60.5774C97.4843 70.6302 94.3369 80.8663 86.5221 87.8271C78.1566 95.2786 66.7025 101.512 55.4247 99.6757C44.4329 97.8862 39.0706 86.3427 31.1831 78.8174C24.8001 72.7275 18.3245 67.3099 13.7293 59.8952C7.85727 50.4201 -3.35845 40.2708 0.970288 30.0664C5.37379 19.6858 22.0189 22.0092 32.1767 16.4082C40.7237 11.6954 45.5784 0.692272 55.4247 0.0403985Z" fill="#F9F9FB"/>
<path d="M73.7681 26.4249C73.6411 26.4249 73.5172 26.387 73.4125 26.3162C73.3079 26.2454 73.2275 26.1451 73.1819 26.0284L72.4599 24.1788C72.4443 24.1384 72.4201 24.1017 72.389 24.0711C72.358 24.0404 72.3207 24.0167 72.2796 24.0012L70.4024 23.29C70.284 23.245 70.1821 23.1658 70.1103 23.0627C70.0385 22.9596 70 22.8375 70 22.7124C70 22.5873 70.0385 22.4652 70.1103 22.3621C70.1821 22.259 70.284 22.1798 70.4024 22.1349L72.2796 21.4236C72.3207 21.4081 72.3579 21.3843 72.389 21.3537C72.42 21.3231 72.4442 21.2864 72.4599 21.246L73.1754 19.4129C73.2158 19.305 73.2852 19.2099 73.3763 19.138C73.4673 19.066 73.5766 19.0199 73.6923 19.0045C73.8312 18.9879 73.9717 19.0174 74.0916 19.0884C74.2115 19.1594 74.304 19.2678 74.3543 19.3964L75.0762 21.246C75.0919 21.2864 75.1161 21.3231 75.1472 21.3537C75.1782 21.3843 75.2155 21.4081 75.2565 21.4236L77.1337 22.1349C77.2521 22.1798 77.354 22.259 77.4258 22.3621C77.4977 22.4652 77.5361 22.5873 77.5361 22.7124C77.5361 22.8375 77.4977 22.9596 77.4258 23.0627C77.354 23.1658 77.2521 23.245 77.1337 23.29L75.2565 24.0012C75.2154 24.0167 75.1781 24.0404 75.1471 24.0711C75.116 24.1017 75.0918 24.1384 75.0762 24.1788L74.3543 26.0284C74.3087 26.1451 74.2282 26.2454 74.1236 26.3162C74.019 26.387 73.895 26.4249 73.7681 26.4249Z" fill="url(#paint0_linear_1163_9683)"/>
<path d="M84.2047 37C84.0663 37 83.9311 36.9586 83.8169 36.8813C83.7028 36.804 83.6151 36.6945 83.5654 36.5672L82.5874 34.0625C82.5702 34.0183 82.5438 33.9783 82.5099 33.9448C82.4759 33.9114 82.4353 33.8854 82.3905 33.8684L79.8483 32.9048C79.7191 32.8558 79.6081 32.7694 79.5297 32.657C79.4514 32.5445 79.4095 32.4113 79.4095 32.275C79.4095 32.1386 79.4514 32.0054 79.5297 31.893C79.6081 31.7806 79.7191 31.6941 79.8483 31.6451L82.3905 30.6815C82.4353 30.6646 82.4759 30.6386 82.5099 30.6051C82.5438 30.5717 82.5702 30.5316 82.5874 30.4875L83.5582 28.0005C83.6025 27.8829 83.6783 27.7793 83.7776 27.7008C83.8769 27.6223 83.996 27.5718 84.1221 27.5546C84.2737 27.5365 84.427 27.5688 84.5578 27.6464C84.6886 27.724 84.7893 27.8424 84.844 27.9828L85.822 30.4875C85.8392 30.5316 85.8657 30.5717 85.8996 30.6051C85.9335 30.6386 85.9742 30.6646 86.019 30.6815L88.5612 31.6451C88.6904 31.6941 88.8014 31.7806 88.8798 31.893C88.9581 32.0054 89 32.1386 89 32.275C89 32.4113 88.9581 32.5445 88.8798 32.657C88.8014 32.7694 88.6904 32.8558 88.5612 32.9048L86.019 33.8684C85.9742 33.8854 85.9335 33.9114 85.8996 33.9448C85.8657 33.9783 85.8392 34.0183 85.822 34.0625L84.844 36.5672C84.7944 36.6945 84.7067 36.804 84.5926 36.8813C84.4784 36.9586 84.3432 37 84.2047 37Z" fill="url(#paint1_linear_1163_9683)"/>
<path d="M73.5289 72C73.2838 72.0004 73.041 71.9531 72.8146 71.8608C72.5881 71.7685 72.3825 71.633 72.2096 71.4622L31.1466 31.0984C30.8113 30.7515 30.6272 30.2897 30.6334 29.8112C30.6397 29.3328 30.8358 28.8757 31.18 28.5374C31.5241 28.1991 31.9892 28.0063 32.4759 28.0002C32.9626 27.994 33.4325 28.175 33.7854 28.5046L74.8483 68.8684C75.1092 69.1249 75.2868 69.4518 75.3588 69.8076C75.4307 70.1634 75.3937 70.5321 75.2525 70.8673C75.1113 71.2024 74.8722 71.4889 74.5655 71.6905C74.2587 71.8921 73.898 71.9998 73.5289 72Z" fill="url(#paint2_linear_1163_9683)"/>
<path d="M52.0642 56.8464L46.0226 50.9076C45.988 50.8739 45.9435 50.8516 45.8953 50.844C45.8472 50.8364 45.7978 50.8438 45.7542 50.8652C45.7106 50.8866 45.6749 50.9209 45.6521 50.9633C45.6293 51.0056 45.6206 51.0539 45.6271 51.1014C45.871 52.6422 46.607 54.0668 47.7287 55.1693C48.8504 56.2719 50.2996 56.9954 51.8671 57.2351C51.9154 57.2416 51.9645 57.233 52.0076 57.2106C52.0507 57.1882 52.0856 57.1531 52.1074 57.1102C52.1291 57.0673 52.1366 57.0188 52.1289 56.9715C52.1212 56.9242 52.0985 56.8804 52.0642 56.8464Z" fill="url(#paint3_linear_1163_9683)"/>
<path d="M53.9307 43.1204L59.9817 49.066C60.0162 49.1003 60.0608 49.1229 60.1092 49.1308C60.1576 49.1387 60.2072 49.1313 60.2512 49.1099C60.2951 49.0884 60.331 49.0539 60.3538 49.0113C60.3766 48.9686 60.3852 48.92 60.3783 48.8722C60.135 47.3294 59.3985 45.9027 58.2754 44.7988C57.1523 43.6948 55.7009 42.9708 54.1314 42.7317C54.0828 42.7243 54.033 42.7322 53.9893 42.7543C53.9455 42.7764 53.91 42.8114 53.8877 42.8546C53.8655 42.8977 53.8576 42.9466 53.8654 42.9943C53.8731 43.0421 53.896 43.0862 53.9307 43.1204Z" fill="url(#paint4_linear_1163_9683)"/>
<path d="M80.4117 51.9741C80.7979 51.3782 81.002 50.6859 81 49.9794C80.9979 49.2729 80.7897 48.5818 80.4 47.9881C77.3133 43.2958 73.3085 39.3099 68.8195 36.4604C63.8465 33.3047 58.3636 31.6362 52.9601 31.6362C50.1115 31.6401 47.2823 32.0966 44.5819 32.9882C44.5063 33.0129 44.4384 33.0562 44.3847 33.114C44.331 33.1718 44.2932 33.2421 44.2749 33.3184C44.2567 33.3946 44.2586 33.4741 44.2805 33.5494C44.3024 33.6247 44.3435 33.6932 44.3999 33.7484L49.9107 39.1654C49.968 39.2218 50.0392 39.2626 50.1173 39.2837C50.1955 39.3048 50.2778 39.3055 50.3564 39.2858C52.2243 38.8384 54.178 38.8712 56.0294 39.3811C57.8807 39.8909 59.5673 40.8607 60.9268 42.1971C62.2863 43.5334 63.2729 45.1913 63.7916 47.0111C64.3103 48.831 64.3437 50.7514 63.8885 52.5875C63.8687 52.6646 63.8695 52.7453 63.891 52.8219C63.9125 52.8985 63.9538 52.9683 64.011 53.0244L71.9377 60.822C72.0202 60.9032 72.1307 60.9511 72.2473 60.9562C72.3639 60.9613 72.4782 60.9232 72.5677 60.8495C75.6189 58.293 78.263 55.3013 80.4117 51.9741Z" fill="url(#paint5_linear_1163_9683)"/>
<path d="M52.9975 60.9917C51.3022 60.9918 49.6289 60.6135 48.104 59.8855C46.5791 59.1574 45.2422 58.0985 44.1941 56.7886C43.1461 55.4788 42.4143 53.9521 42.0539 52.3238C41.6934 50.6954 41.7138 49.0079 42.1134 47.3884C42.1333 47.3114 42.1324 47.2306 42.1109 47.1541C42.0895 47.0775 42.0481 47.0077 41.991 46.9515L34.1937 39.2835C34.111 39.2022 34.0002 39.1543 33.8833 39.1494C33.7664 39.1445 33.652 39.183 33.5626 39.2572C30.7173 41.6435 28.0797 44.5469 25.6684 47.94C25.2464 48.5355 25.0139 49.2408 25.0006 49.9665C24.9873 50.6921 25.1938 51.4053 25.5938 52.0153C28.6747 56.7546 32.6386 60.7463 37.0587 63.5569C42.0388 66.7252 47.3886 68.3306 52.9601 68.3306C55.8375 68.323 58.6962 67.8762 61.434 67.0061C61.5103 66.9822 61.579 66.9394 61.6336 66.8818C61.6881 66.8242 61.7267 66.7538 61.7455 66.6773C61.7644 66.6008 61.7629 66.5208 61.7413 66.4451C61.7196 66.3693 61.6785 66.3003 61.6218 66.2447L56.0842 60.8025C56.027 60.7463 55.956 60.7057 55.8781 60.6846C55.8002 60.6635 55.7181 60.6626 55.6397 60.6821C54.7746 60.8881 53.8876 60.9921 52.9975 60.9917Z" fill="url(#paint6_linear_1163_9683)"/>
<defs>
<linearGradient id="paint0_linear_1163_9683" x1="61.6904" y1="-9.12435" x2="104.809" y2="-3.74249" gradientUnits="userSpaceOnUse">
<stop stop-color="#8585AD"/>
<stop offset="1" stop-color="#D1D1E0"/>
</linearGradient>
<linearGradient id="paint1_linear_1163_9683" x1="61.6904" y1="-9.12435" x2="104.809" y2="-3.74249" gradientUnits="userSpaceOnUse">
<stop stop-color="#8585AD"/>
<stop offset="1" stop-color="#D1D1E0"/>
</linearGradient>
<linearGradient id="paint2_linear_1163_9683" x1="0.147137" y1="-64.3914" x2="129.447" y2="-49.6983" gradientUnits="userSpaceOnUse">
<stop stop-color="#8585AD"/>
<stop offset="1" stop-color="#D1D1E0"/>
</linearGradient>
<linearGradient id="paint3_linear_1163_9683" x1="0.147137" y1="-64.3914" x2="129.447" y2="-49.6983" gradientUnits="userSpaceOnUse">
<stop stop-color="#8585AD"/>
<stop offset="1" stop-color="#D1D1E0"/>
</linearGradient>
<linearGradient id="paint4_linear_1163_9683" x1="0.147137" y1="-64.3914" x2="129.447" y2="-49.6983" gradientUnits="userSpaceOnUse">
<stop stop-color="#8585AD"/>
<stop offset="1" stop-color="#D1D1E0"/>
</linearGradient>
<linearGradient id="paint5_linear_1163_9683" x1="0.147137" y1="-64.3914" x2="129.447" y2="-49.6983" gradientUnits="userSpaceOnUse">
<stop stop-color="#8585AD"/>
<stop offset="1" stop-color="#D1D1E0"/>
</linearGradient>
<linearGradient id="paint6_linear_1163_9683" x1="0.147137" y1="-64.3914" x2="129.447" y2="-49.6983" gradientUnits="userSpaceOnUse">
<stop stop-color="#8585AD"/>
<stop offset="1" stop-color="#D1D1E0"/>
</linearGradient>
</defs>
</svg>
