<svg width="100" height="100" viewBox="0 0 100 100" fill="none" xmlns="http://www.w3.org/2000/svg">
<g opacity="0.8">
<path fill-rule="evenodd" clip-rule="evenodd" d="M55.4247 0.0403985C65.3643 -0.617657 73.65 6.89244 81.1393 13.1666C88.025 18.9352 93.1464 26.0671 96.2958 34.2804C99.5508 42.7689 100.945 51.6721 99.3192 60.5774C97.4843 70.6302 94.3369 80.8663 86.5221 87.8271C78.1566 95.2786 66.7026 101.512 55.4247 99.6758C44.4329 97.8862 39.0706 86.3427 31.1831 78.8174C24.8001 72.7275 18.3246 67.31 13.7293 59.8952C7.85727 50.4201 -3.35845 40.2708 0.970288 30.0664C5.37379 19.6858 22.0189 22.0092 32.1767 16.4082C40.7237 11.6954 45.5785 0.692272 55.4247 0.0403985Z" fill="#F9F9FB"/>
<mask id="path-2-inside-1_28828_55686" fill="white">
<path fill-rule="evenodd" clip-rule="evenodd" d="M80.6942 86.1515H18.5567C13.7224 85.4474 10.0005 81.321 10.0005 76.3513V43.6943C9.99861 41.8461 10.5175 40.0348 11.4977 38.4679C12.478 36.9011 13.8798 35.6421 15.5427 34.8353L46.4236 19.578C47.4202 19.0891 48.5154 18.835 49.6254 18.835C50.7354 18.835 51.8307 19.0891 52.8273 19.578L83.7082 34.8353C85.371 35.6421 86.7729 36.9011 87.7531 38.4679C88.7334 40.0348 89.2523 41.8461 89.2504 43.6943V76.3513C89.2504 81.321 85.5285 85.4474 80.6942 86.1515Z"/>
</mask>
<g filter="url(#filter0_i_28828_55686)">
<path fill-rule="evenodd" clip-rule="evenodd" d="M80.6942 86.1515H18.5567C13.7224 85.4474 10.0005 81.321 10.0005 76.3513V43.6943C9.99861 41.8461 10.5175 40.0348 11.4977 38.4679C12.478 36.9011 13.8798 35.6421 15.5427 34.8353L46.4236 19.578C47.4202 19.0891 48.5154 18.835 49.6254 18.835C50.7354 18.835 51.8307 19.0891 52.8273 19.578L83.7082 34.8353C85.371 35.6421 86.7729 36.9011 87.7531 38.4679C88.7334 40.0348 89.2523 41.8461 89.2504 43.6943V76.3513C89.2504 81.321 85.5285 85.4474 80.6942 86.1515Z" fill="url(#paint0_linear_28828_55686)" fill-opacity="0.83"/>
</g>
<path d="M80.6942 86.1515V92.2712H81.1376L81.5763 92.2073L80.6942 86.1515ZM18.5567 86.1515L17.6746 92.2073L18.1133 92.2712H18.5567V86.1515ZM10.0005 43.6943L16.1202 43.6943L16.1202 43.6881L10.0005 43.6943ZM11.4977 38.4679L6.30966 35.2222L6.30966 35.2222L11.4977 38.4679ZM15.5427 34.8353L18.214 40.3412L18.2337 40.3316L18.2534 40.3219L15.5427 34.8353ZM46.4236 19.578L43.7286 14.0837L43.7207 14.0875L43.7129 14.0914L46.4236 19.578ZM52.8273 19.578L55.538 14.0914L55.5302 14.0875L55.5223 14.0837L52.8273 19.578ZM83.7082 34.8353L80.9975 40.3219L81.0171 40.3316L81.0369 40.3412L83.7082 34.8353ZM87.7531 38.4679L92.9412 35.2223L92.9412 35.2223L87.7531 38.4679ZM89.2504 43.6943L83.1307 43.6881V43.6943H89.2504ZM80.6942 80.0318H18.5567V92.2712H80.6942V80.0318ZM3.88081 76.3513C3.88081 84.4619 9.93485 91.0799 17.6746 92.2073L19.4387 80.0957C17.5099 79.8148 16.1202 78.1801 16.1202 76.3513H3.88081ZM3.88081 43.6943V76.3513H16.1202V43.6943H3.88081ZM6.30966 35.2222C4.71953 37.764 3.87776 40.7024 3.88081 43.7006L16.1202 43.6881C16.1195 42.9898 16.3155 42.3055 16.6858 41.7136L6.30966 35.2222ZM12.8714 29.3294C10.1739 30.6382 7.89979 32.6805 6.30966 35.2222L16.6858 41.7136C17.0561 41.1216 17.5858 40.646 18.214 40.3412L12.8714 29.3294ZM43.7129 14.0914L12.8319 29.3488L18.2534 40.3219L49.1344 25.0645L43.7129 14.0914ZM49.6254 12.7153C47.5811 12.7153 45.564 13.1834 43.7286 14.0837L49.1187 25.0722C49.2764 24.9949 49.4497 24.9546 49.6254 24.9546V12.7153ZM55.5223 14.0837C53.6869 13.1834 51.6698 12.7153 49.6254 12.7153V24.9546C49.8011 24.9546 49.9745 24.9949 50.1322 25.0722L55.5223 14.0837ZM86.419 29.3488L55.538 14.0914L50.1165 25.0645L80.9975 40.3219L86.419 29.3488ZM92.9412 35.2223C91.3511 32.6805 89.077 30.6382 86.3795 29.3294L81.0369 40.3412C81.6651 40.646 82.1947 41.1216 82.5651 41.7136L92.9412 35.2223ZM95.3701 43.7006C95.3731 40.7024 94.5314 37.764 92.9412 35.2223L82.5651 41.7136C82.9354 42.3055 83.1314 42.9898 83.1307 43.6881L95.3701 43.7006ZM95.3701 76.3513V43.6943H83.1307V76.3513H95.3701ZM81.5763 92.2073C89.316 91.0799 95.3701 84.4619 95.3701 76.3513H83.1307C83.1307 78.1801 81.741 79.8148 79.8121 80.0957L81.5763 92.2073Z" fill="url(#paint1_linear_28828_55686)" mask="url(#path-2-inside-1_28828_55686)"/>
<g filter="url(#filter1_d_28828_55686)">
<path d="M89.2499 45.7607L83.4368 45.7608L49.7779 54.3023L49.1615 54.5939L48.5211 54.4453L16.1203 45.7608H10.0008L10 76.3204C10 81.783 14.4967 86.2267 20.0248 86.2267H79.2251C84.7532 86.2267 89.2499 81.783 89.2499 76.3204V45.7607Z" fill="url(#paint2_linear_28828_55686)"/>
<path d="M49.6388 55.0666C49.7367 55.0257 49.8931 54.9573 50.0348 54.8685L83.5132 46.3727L88.6379 46.3727V76.3204C88.6379 81.4382 84.4221 85.6147 79.2251 85.6147H20.0248C14.8278 85.6147 10.612 81.4382 10.612 76.3204L10.6128 46.3727H16.0397L48.3163 55.024C48.4881 55.0957 48.6874 55.1364 48.805 55.1581C48.8831 55.1725 48.9532 55.1832 49.0037 55.1904C49.0234 55.1932 49.0404 55.1955 49.0541 55.1972L49.2306 55.2382L49.3938 55.161C49.4074 55.1562 49.4244 55.1501 49.4442 55.1428C49.4939 55.1245 49.5628 55.0982 49.6388 55.0666Z" stroke="#8585AD" stroke-width="1.22394"/>
</g>
<g filter="url(#filter2_d_28828_55686)">
<path d="M89.2499 45.7607L83.4368 45.7608L49.7779 54.3023L49.1615 54.5939L48.5211 54.4453L16.1203 45.7608H10.0008L10 76.3204C10 81.783 14.4967 86.2267 20.0248 86.2267H79.2251C84.7532 86.2267 89.2499 81.783 89.2499 76.3204V45.7607Z" fill="url(#paint3_linear_28828_55686)"/>
</g>
<g filter="url(#filter3_d_28828_55686)">
<path d="M49.1612 54.5939L49.7776 54.3023L83.4365 45.7608L89.2496 45.7607V46.9847H88.0257L83.5893 46.9847L50.1937 55.4594L49.2995 55.8825L48.2239 55.6329L15.9588 46.9847H10.0005V45.7608H16.12L48.5208 54.4453L49.1612 54.5939Z" fill="#72729D" fill-opacity="0.5" shape-rendering="crispEdges"/>
</g>
</g>
<defs>
<filter id="filter0_i_28828_55686" x="8.77655" y="16.3871" width="80.4739" height="69.7643" filterUnits="userSpaceOnUse" color-interpolation-filters="sRGB">
<feFlood flood-opacity="0" result="BackgroundImageFix"/>
<feBlend mode="normal" in="SourceGraphic" in2="BackgroundImageFix" result="shape"/>
<feColorMatrix in="SourceAlpha" type="matrix" values="0 0 0 0 0 0 0 0 0 0 0 0 0 0 0 0 0 0 127 0" result="hardAlpha"/>
<feOffset dx="-1.22394" dy="-2.44787"/>
<feGaussianBlur stdDeviation="2.44787"/>
<feComposite in2="hardAlpha" operator="arithmetic" k2="-1" k3="1"/>
<feColorMatrix type="matrix" values="0 0 0 0 0 0 0 0 0 0 0 0 0 0 0 0 0 0 0.25 0"/>
<feBlend mode="normal" in2="shape" result="effect1_innerShadow_28828_55686"/>
</filter>
<filter id="filter1_d_28828_55686" x="5.10425" y="40.865" width="89.0415" height="50.2573" filterUnits="userSpaceOnUse" color-interpolation-filters="sRGB">
<feFlood flood-opacity="0" result="BackgroundImageFix"/>
<feColorMatrix in="SourceAlpha" type="matrix" values="0 0 0 0 0 0 0 0 0 0 0 0 0 0 0 0 0 0 127 0" result="hardAlpha"/>
<feOffset/>
<feGaussianBlur stdDeviation="2.44787"/>
<feComposite in2="hardAlpha" operator="out"/>
<feColorMatrix type="matrix" values="0 0 0 0 0 0 0 0 0 0 0 0 0 0 0 0 0 0 0.15 0"/>
<feBlend mode="normal" in2="BackgroundImageFix" result="effect1_dropShadow_28828_55686"/>
<feBlend mode="normal" in="SourceGraphic" in2="effect1_dropShadow_28828_55686" result="shape"/>
</filter>
<filter id="filter2_d_28828_55686" x="5.10425" y="40.865" width="89.0415" height="50.2573" filterUnits="userSpaceOnUse" color-interpolation-filters="sRGB">
<feFlood flood-opacity="0" result="BackgroundImageFix"/>
<feColorMatrix in="SourceAlpha" type="matrix" values="0 0 0 0 0 0 0 0 0 0 0 0 0 0 0 0 0 0 127 0" result="hardAlpha"/>
<feOffset/>
<feGaussianBlur stdDeviation="2.44787"/>
<feComposite in2="hardAlpha" operator="out"/>
<feColorMatrix type="matrix" values="0 0 0 0 0 0 0 0 0 0 0 0 0 0 0 0 0 0 0.15 0"/>
<feBlend mode="normal" in2="BackgroundImageFix" result="effect1_dropShadow_28828_55686"/>
<feBlend mode="normal" in="SourceGraphic" in2="effect1_dropShadow_28828_55686" result="shape"/>
</filter>
<filter id="filter3_d_28828_55686" x="5.10474" y="40.865" width="89.0405" height="19.9136" filterUnits="userSpaceOnUse" color-interpolation-filters="sRGB">
<feFlood flood-opacity="0" result="BackgroundImageFix"/>
<feColorMatrix in="SourceAlpha" type="matrix" values="0 0 0 0 0 0 0 0 0 0 0 0 0 0 0 0 0 0 127 0" result="hardAlpha"/>
<feOffset/>
<feGaussianBlur stdDeviation="2.44787"/>
<feComposite in2="hardAlpha" operator="out"/>
<feColorMatrix type="matrix" values="0 0 0 0 0 0 0 0 0 0 0 0 0 0 0 0 0 0 0.15 0"/>
<feBlend mode="normal" in2="BackgroundImageFix" result="effect1_dropShadow_28828_55686"/>
<feBlend mode="normal" in="SourceGraphic" in2="effect1_dropShadow_28828_55686" result="shape"/>
</filter>
<linearGradient id="paint0_linear_28828_55686" x1="-31.0014" y1="-12.9874" x2="56.9783" y2="45.1591" gradientUnits="userSpaceOnUse">
<stop stop-color="#8585AD"/>
<stop offset="1" stop-color="#D1D1E0"/>
</linearGradient>
<linearGradient id="paint1_linear_28828_55686" x1="27.7476" y1="26.1786" x2="114.297" y2="106.132" gradientUnits="userSpaceOnUse">
<stop stop-color="#8585AD"/>
<stop offset="1" stop-color="#D1D1E0"/>
</linearGradient>
<linearGradient id="paint2_linear_28828_55686" x1="22.8519" y1="45.7607" x2="53.7251" y2="103.519" gradientUnits="userSpaceOnUse">
<stop stop-color="#8585AD"/>
<stop offset="1" stop-color="#D1D1E0"/>
</linearGradient>
<linearGradient id="paint3_linear_28828_55686" x1="22.8519" y1="45.7607" x2="53.7251" y2="103.519" gradientUnits="userSpaceOnUse">
<stop stop-color="#8585AD"/>
<stop offset="1" stop-color="#D1D1E0"/>
</linearGradient>
</defs>
</svg>
