<svg width="108" height="114" viewBox="0 0 108 114" fill="none" xmlns="http://www.w3.org/2000/svg">
<path fill-rule="evenodd" clip-rule="evenodd" d="M59.8586 0.0456898C70.5934 -0.698555 79.542 7.7952 87.6305 14.8912C95.067 21.4152 100.598 29.4813 103.999 38.7703C107.515 48.3706 109.02 58.4399 107.265 68.5117C105.283 79.8811 101.884 91.4579 93.4439 99.3305C84.4091 107.758 72.0388 114.808 59.8586 112.731C47.9875 110.707 42.1963 97.6516 33.6777 89.1406C26.7841 82.2531 19.7905 76.126 14.8277 67.7401C8.48585 57.024 -3.62712 45.5453 1.04791 34.0044C5.80369 22.2642 23.7804 24.8919 34.7508 18.5573C43.9815 13.2273 49.2247 0.782944 59.8586 0.0456898Z" fill="#EAF1FA"/>
<ellipse cx="57.1907" cy="87.272" rx="6.16117" ry="8.25001" transform="rotate(0.205258 57.1907 87.272)" fill="url(#paint0_linear_28484_107404)"/>
<g filter="url(#filter0_d_28484_107404)">
<path d="M89.709 82.5128C89.4861 82.0204 89.2692 81.5295 89.0545 81.0544C86.1066 74.507 84.3209 70.5538 88.3833 55.3297C90.4865 47.4478 90.3534 40.4847 87.9838 34.6567C86.2385 30.3526 83.3119 26.6599 79.0346 23.3667C78.982 23.3152 78.9389 23.2546 78.9074 23.1877C78.7454 16.8446 75.0588 11.6415 69.7156 10.2158C64.3723 8.78996 58.5856 11.4652 55.2866 16.8782C55.2264 16.9185 55.16 16.9484 55.0902 16.9666C42.6061 18.66 34.7459 26.2028 31.0572 40.0264C26.9932 55.2565 23.4794 57.7957 17.659 61.9969C17.2362 62.3019 16.8058 62.6113 16.365 62.9354C15.2319 63.7525 14.3513 64.8796 13.8276 66.1832C13.3039 67.4867 13.1589 68.9123 13.4099 70.2911C13.938 73.2464 15.1235 74.7931 18.7281 76.9309C22.3327 79.0687 25.4203 80.9166 49.1125 86.4733C72.8047 92.03 77.1982 92.3862 80.6524 92.7954C84.1066 93.2046 86.6654 92.655 88.5965 90.3689C89.5036 89.2988 90.0905 87.99 90.2876 86.5976C90.4848 85.2052 90.284 83.7876 89.709 82.5128Z" fill="url(#paint1_linear_28484_107404)"/>
</g>
<path d="M73.1636 53.3151C73.1636 61.4011 66.776 69.2821 58.6922 69.2821C50.6084 69.2821 44 61.4011 44 53.3151C44 45.229 50.6084 40 58.6922 40C66.776 40 73.1636 45.229 73.1636 53.3151Z" fill="#F0F7FF"/>
<path fill-rule="evenodd" clip-rule="evenodd" d="M63.952 50.7633C64.1614 50.9466 64.1826 51.2649 63.9994 51.4743L56.9456 59.5358C56.8538 59.6407 56.7226 59.7029 56.5832 59.7076C56.4438 59.7122 56.3088 59.6589 56.2102 59.5603L53.1871 56.5372C52.9904 56.3404 52.9904 56.0214 53.1871 55.8247C53.3839 55.6279 53.7029 55.6279 53.8997 55.8247L56.5419 58.4669L63.2411 50.8107C63.4243 50.6013 63.7426 50.5801 63.952 50.7633Z" fill="#004299" stroke="#004299" stroke-width="0.6" stroke-linecap="round" stroke-linejoin="round"/>
<defs>
<filter id="filter0_d_28484_107404" x="0.0625591" y="1.01859" width="103.526" height="109.538" filterUnits="userSpaceOnUse" color-interpolation-filters="sRGB">
<feFlood flood-opacity="0" result="BackgroundImageFix"/>
<feColorMatrix in="SourceAlpha" type="matrix" values="0 0 0 0 0 0 0 0 0 0 0 0 0 0 0 0 0 0 127 0" result="hardAlpha"/>
<feOffset dy="4.40916"/>
<feGaussianBlur stdDeviation="6.61374"/>
<feComposite in2="hardAlpha" operator="out"/>
<feColorMatrix type="matrix" values="0 0 0 0 0 0 0 0 0 0 0 0 0 0 0 0 0 0 0.08 0"/>
<feBlend mode="normal" in2="BackgroundImageFix" result="effect1_dropShadow_28484_107404"/>
<feBlend mode="normal" in="SourceGraphic" in2="effect1_dropShadow_28484_107404" result="shape"/>
</filter>
<linearGradient id="paint0_linear_28484_107404" x1="50.8527" y1="78.7563" x2="67.0414" y2="83.8923" gradientUnits="userSpaceOnUse">
<stop stop-color="#4092FF"/>
<stop offset="1" stop-color="#0058CC"/>
</linearGradient>
<linearGradient id="paint1_linear_28484_107404" x1="47.6472" y1="13.084" x2="105.424" y2="69.1803" gradientUnits="userSpaceOnUse">
<stop stop-color="#66A8FF"/>
<stop offset="1" stop-color="#2684FF"/>
</linearGradient>
</defs>
</svg>
