<svg viewBox="0 0 168 169" fill="none" xmlns="http://www.w3.org/2000/svg">
<path fill-rule="evenodd" clip-rule="evenodd" d="M89.2337 0.0682735C105.236 -1.04384 118.577 11.6482 130.634 22.2516C141.72 32.0004 149.966 44.0535 155.036 57.9338C160.277 72.2794 162.521 87.3258 159.904 102.376C156.95 119.365 151.882 136.664 139.301 148.428C125.832 161.021 107.391 171.555 89.2337 168.452C71.5369 165.428 62.9037 145.919 50.2048 133.201C39.9281 122.909 29.5025 113.754 22.1042 101.223C12.6502 85.21 -5.4071 68.0576 1.56216 50.8123C8.6518 33.269 35.4504 37.1956 51.8044 27.7299C65.5651 19.7653 73.3813 1.16994 89.2337 0.0682735Z" fill="#EAF1FA"/>
<path d="M26.8623 35.9616C26.8623 29.2108 32.3219 23.7383 39.0566 23.7383C39.0566 23.7383 39.0566 23.7383 39.0566 23.7383C39.0566 23.7383 69.8958 23.7383 77.8486 23.7383C85.8014 23.7383 90.2196 35.9616 99.8513 35.9616C109.295 35.9616 136.746 36.3021 137.816 36.3154C137.85 36.3159 137.865 36.3158 137.899 36.316C144.61 36.3437 150.042 41.8056 150.042 48.5391L146.154 86.0947C146.154 92.8454 140.695 98.3179 133.96 98.3179H42.2377C35.503 98.3179 30.0434 92.8454 30.0434 86.0947L26.8623 35.9616Z" fill="url(#paint0_linear_29645_37181)"/>
<path d="M41.5312 37.1622C41.5312 34.3468 43.8136 32.0645 46.6289 32.0645H130.277C133.092 32.0645 135.374 34.3468 135.374 37.1621V131.839C135.374 134.654 133.092 136.937 130.277 136.937H46.6289C43.8136 136.937 41.5312 134.654 41.5312 131.839V37.1622Z" fill="url(#paint1_linear_29645_37181)"/>
<path d="M58.6981 45.8879H65.5013C65.5219 45.8878 65.5421 45.8816 65.5593 45.8701C65.5764 45.8585 65.5898 45.8422 65.5977 45.8231C65.6056 45.8039 65.6077 45.7829 65.6036 45.7626C65.5996 45.7423 65.5897 45.7237 65.5752 45.709L58.0382 38.1643C58.0236 38.1497 58.0049 38.1398 57.9847 38.1358C57.9644 38.1318 57.9434 38.1339 57.9243 38.1418C57.9052 38.1497 57.8888 38.1631 57.8773 38.1802C57.8658 38.1974 57.8596 38.2176 57.8595 38.2383V45.0485C57.8595 45.2711 57.9479 45.4846 58.1051 45.642C58.2624 45.7995 58.4757 45.8879 58.6981 45.8879Z" fill="#002C66"/>
<path d="M57.021 50.0849C56.5587 50.0849 56.1824 50.4144 56.1824 50.8194V51.7637H57.8595V50.8194C57.8595 50.4144 57.4832 50.0849 57.021 50.0849Z" fill="#002C66"/>
<path d="M66.0353 47.5667H58.6981C58.0309 47.5667 57.391 47.3014 56.9192 46.8291C56.4475 46.3569 56.1824 45.7164 56.1824 45.0485V37.7037C56.1824 37.6481 56.1604 37.5947 56.121 37.5553C56.0817 37.516 56.0284 37.4939 55.9728 37.4939H51.1512C50.2616 37.4939 49.4085 37.8476 48.7794 38.4773C48.1504 39.107 47.797 39.961 47.797 40.8515V57.6396C47.797 58.53 48.1504 59.3841 48.7794 60.0137C49.4085 60.6434 50.2616 60.9972 51.1512 60.9972H62.8908C63.7803 60.9972 64.6335 60.6434 65.2625 60.0137C65.8916 59.3841 66.2449 58.53 66.2449 57.6396V47.7766C66.2449 47.7209 66.2229 47.6675 66.1835 47.6282C66.1442 47.5888 66.0909 47.5667 66.0353 47.5667ZM61.2137 55.9607C61.2137 56.406 61.037 56.833 60.7225 57.1478C60.408 57.4627 59.9814 57.6396 59.5366 57.6396H54.5054C54.0606 57.6396 53.634 57.4627 53.3195 57.1478C53.005 56.833 52.8283 56.406 52.8283 55.9607V53.4425C52.8283 52.9973 53.005 52.5703 53.3195 52.2554C53.634 51.9406 54.0606 51.7637 54.5054 51.7637V50.8194C54.5054 49.4889 55.6337 48.4061 57.021 48.4061C58.4082 48.4061 59.5366 49.4889 59.5366 50.8194V51.7637C59.9814 51.7637 60.408 51.9406 60.7225 52.2554C61.037 52.5703 61.2137 52.9973 61.2137 53.4425V55.9607Z" fill="#002C66"/>
<g filter="url(#filter0_d_29645_37181)">
<path d="M21.0303 79.7167C21.0303 71.8335 25.9792 67.8477 36.6713 67.8477C45.7728 67.8477 62.2086 67.8477 78.5555 67.8477C88.8058 67.8477 92.4287 54.5615 100.47 54.5615H144.387C150.634 54.5615 155.698 59.6375 155.698 65.899L148.717 125.598C147.922 132.33 143.653 136.936 137.407 136.936H38.2619C32.0152 136.936 27.8349 131.887 26.9512 125.598L21.0303 79.7167Z" fill="#66A8FF"/>
</g>
<defs>
<filter id="filter0_d_29645_37181" x="9.03027" y="46.5615" width="158.667" height="106.374" filterUnits="userSpaceOnUse" color-interpolation-filters="sRGB">
<feFlood flood-opacity="0" result="BackgroundImageFix"/>
<feColorMatrix in="SourceAlpha" type="matrix" values="0 0 0 0 0 0 0 0 0 0 0 0 0 0 0 0 0 0 127 0" result="hardAlpha"/>
<feOffset dy="4"/>
<feGaussianBlur stdDeviation="6"/>
<feComposite in2="hardAlpha" operator="out"/>
<feColorMatrix type="matrix" values="0 0 0 0 0 0 0 0 0 0 0 0 0 0 0 0 0 0 0.08 0"/>
<feBlend mode="normal" in2="BackgroundImageFix" result="effect1_dropShadow_29645_37181"/>
<feBlend mode="normal" in="SourceGraphic" in2="effect1_dropShadow_29645_37181" result="shape"/>
</filter>
<linearGradient id="paint0_linear_29645_37181" x1="25.0948" y1="22.5374" x2="144.453" y2="106.284" gradientUnits="userSpaceOnUse">
<stop stop-color="#4092FF"/>
<stop offset="1" stop-color="#0058CC"/>
</linearGradient>
<linearGradient id="paint1_linear_29645_37181" x1="88.4528" y1="32.0645" x2="88.4528" y2="136.937" gradientUnits="userSpaceOnUse">
<stop stop-color="#F0F7FF"/>
<stop offset="1" stop-color="#026FFF"/>
</linearGradient>
</defs>
</svg>
