<svg width="168" height="169" viewBox="0 0 168 169" fill="none" xmlns="http://www.w3.org/2000/svg">
<path fill-rule="evenodd" clip-rule="evenodd" d="M89.2337 0.0682735C105.236 -1.04384 118.577 11.6482 130.634 22.2516C141.72 32.0004 149.966 44.0535 155.036 57.9338C160.277 72.2794 162.521 87.3258 159.904 102.376C156.95 119.365 151.882 136.664 139.301 148.428C125.832 161.021 107.391 171.555 89.2337 168.452C71.5369 165.428 62.9037 145.919 50.2048 133.201C39.9281 122.909 29.5025 113.754 22.1042 101.223C12.6502 85.21 -5.4071 68.0576 1.56216 50.8123C8.6518 33.269 35.4504 37.1956 51.8044 27.7299C65.5651 19.7653 73.3813 1.16994 89.2337 0.0682735Z" fill="#EAF1FA"/>
<path d="M26.8625 35.9611C26.8625 29.2103 32.3221 23.7378 39.0568 23.7378C39.0568 23.7378 69.896 23.7378 77.8488 23.7378C85.8016 23.7378 90.2198 35.9611 99.8516 35.9611C109.295 35.9611 136.746 36.3016 137.816 36.315C137.85 36.3154 137.866 36.3153 137.9 36.3155C144.611 36.3432 150.043 41.8051 150.043 48.5386L146.155 86.0942C146.155 92.8449 140.695 98.3175 133.96 98.3175H42.238C35.5032 98.3175 30.0437 92.8449 30.0437 86.0942L26.8625 35.9611Z" fill="url(#paint0_linear_28870_39333)"/>
<rect x="41.531" y="32.064" width="93.843" height="104.872" rx="5.09769" fill="url(#paint1_linear_28870_39333)"/>
<g filter="url(#filter0_d_28870_39333)">
<path d="M21.0305 79.7169C21.0305 71.8338 25.9794 67.8479 36.6715 67.8479C45.7731 67.8479 62.2089 67.8479 78.5558 67.8479C88.806 67.8479 92.429 54.5618 100.47 54.5618H144.387C150.634 54.5618 155.698 59.6378 155.698 65.8993L148.718 125.598C147.922 132.33 143.654 136.936 137.407 136.936H38.2621C32.0154 136.936 27.8351 131.887 26.9515 125.598L21.0305 79.7169Z" fill="#66A8FF"/>
</g>
<path d="M58.6979 45.8874H65.5011C65.5218 45.8874 65.542 45.8812 65.5591 45.8696C65.5763 45.8581 65.5896 45.8417 65.5975 45.8226C65.6054 45.8035 65.6075 45.7825 65.6035 45.7622C65.5995 45.7419 65.5896 45.7232 65.575 45.7085L58.0381 38.1639C58.0234 38.1493 58.0048 38.1394 57.9845 38.1354C57.9642 38.1313 57.9432 38.1334 57.9241 38.1413C57.905 38.1492 57.8887 38.1626 57.8772 38.1798C57.8657 38.197 57.8595 38.2172 57.8594 38.2379V45.048C57.8594 45.2707 57.9477 45.4842 58.105 45.6416C58.2622 45.799 58.4755 45.8874 58.6979 45.8874Z" fill="#002C66"/>
<path d="M57.0208 50.0845C56.5586 50.0845 56.1823 50.4139 56.1823 50.8189V51.7633H57.8594V50.8189C57.8594 50.4139 57.4831 50.0845 57.0208 50.0845Z" fill="#002C66"/>
<path d="M66.0352 47.5663H58.6979C58.0307 47.5663 57.3909 47.3009 56.9191 46.8287C56.4473 46.3564 56.1823 45.7159 56.1823 45.048V37.7033C56.1823 37.6476 56.1602 37.5942 56.1209 37.5549C56.0816 37.5155 56.0283 37.4934 55.9727 37.4934H51.151C50.2615 37.4934 49.4083 37.8472 48.7793 38.4768C48.1503 39.1065 47.7969 39.9605 47.7969 40.851V57.6391C47.7969 58.5296 48.1503 59.3836 48.7793 60.0133C49.4083 60.643 50.2615 60.9967 51.151 60.9967H62.8906C63.7802 60.9967 64.6334 60.643 65.2624 60.0133C65.8914 59.3836 66.2448 58.5296 66.2448 57.6391V47.7761C66.2448 47.7205 66.2227 47.6671 66.1834 47.6277C66.1441 47.5884 66.0908 47.5663 66.0352 47.5663ZM61.2135 55.9603C61.2135 56.4055 61.0368 56.8326 60.7223 57.1474C60.4078 57.4622 59.9812 57.6391 59.5365 57.6391H54.5052C54.0604 57.6391 53.6338 57.4622 53.3193 57.1474C53.0048 56.8326 52.8281 56.4055 52.8281 55.9603V53.4421C52.8281 52.9968 53.0048 52.5698 53.3193 52.255C53.6338 51.9402 54.0604 51.7633 54.5052 51.7633V50.8189C54.5052 49.4885 55.6336 48.4057 57.0208 48.4057C58.4081 48.4057 59.5365 49.4885 59.5365 50.8189V51.7633C59.9812 51.7633 60.4078 51.9402 60.7223 52.255C61.0368 52.5698 61.2135 52.9968 61.2135 53.4421V55.9603Z" fill="#002C66"/>
<defs>
<filter id="filter0_d_28870_39333" x="9.03052" y="46.5618" width="158.667" height="106.374" filterUnits="userSpaceOnUse" color-interpolation-filters="sRGB">
<feFlood flood-opacity="0" result="BackgroundImageFix"/>
<feColorMatrix in="SourceAlpha" type="matrix" values="0 0 0 0 0 0 0 0 0 0 0 0 0 0 0 0 0 0 127 0" result="hardAlpha"/>
<feOffset dy="4"/>
<feGaussianBlur stdDeviation="6"/>
<feComposite in2="hardAlpha" operator="out"/>
<feColorMatrix type="matrix" values="0 0 0 0 0 0 0 0 0 0 0 0 0 0 0 0 0 0 0.08 0"/>
<feBlend mode="normal" in2="BackgroundImageFix" result="effect1_dropShadow_28870_39333"/>
<feBlend mode="normal" in="SourceGraphic" in2="effect1_dropShadow_28870_39333" result="shape"/>
</filter>
<linearGradient id="paint0_linear_28870_39333" x1="25.0951" y1="22.5369" x2="144.453" y2="106.284" gradientUnits="userSpaceOnUse">
<stop stop-color="#4092FF"/>
<stop offset="1" stop-color="#0058CC"/>
</linearGradient>
<linearGradient id="paint1_linear_28870_39333" x1="88.4525" y1="32.064" x2="88.4525" y2="136.936" gradientUnits="userSpaceOnUse">
<stop stop-color="#F0F7FF"/>
<stop offset="1" stop-color="#026FFF"/>
</linearGradient>
</defs>
</svg>
