<svg width="100" height="100" viewBox="0 0 100 100" fill="none" xmlns="http://www.w3.org/2000/svg">
<path fill-rule="evenodd" clip-rule="evenodd" d="M55.4247 0.0403985C65.3643 -0.617657 73.65 6.89244 81.1393 13.1666C88.025 18.9352 93.1464 26.0671 96.2958 34.2804C99.5508 42.7689 100.945 51.6721 99.3191 60.5774C97.4843 70.6302 94.3369 80.8663 86.5221 87.8271C78.1566 95.2786 66.7025 101.512 55.4247 99.6757C44.4329 97.8862 39.0706 86.3427 31.1831 78.8174C24.8001 72.7275 18.3245 67.3099 13.7293 59.8952C7.85727 50.4201 -3.35845 40.2708 0.970288 30.0664C5.37379 19.6858 22.0189 22.0092 32.1767 16.4082C40.7237 11.6954 45.5784 0.692272 55.4247 0.0403985Z" fill="#F9F9FB"/>
<path d="M73.7681 26.4249C73.6411 26.4249 73.5172 26.387 73.4125 26.3162C73.3079 26.2454 73.2275 26.1451 73.1819 26.0284L72.4599 24.1788C72.4443 24.1384 72.4201 24.1017 72.389 24.0711C72.358 24.0404 72.3207 24.0167 72.2796 24.0012L70.4024 23.29C70.284 23.245 70.1821 23.1658 70.1103 23.0627C70.0385 22.9596 70 22.8375 70 22.7124C70 22.5873 70.0385 22.4652 70.1103 22.3621C70.1821 22.259 70.284 22.1798 70.4024 22.1349L72.2796 21.4236C72.3207 21.4081 72.3579 21.3843 72.389 21.3537C72.42 21.3231 72.4442 21.2864 72.4599 21.246L73.1754 19.4129C73.2158 19.305 73.2852 19.2099 73.3763 19.138C73.4673 19.066 73.5766 19.0199 73.6923 19.0045C73.8312 18.9879 73.9717 19.0174 74.0916 19.0884C74.2115 19.1594 74.304 19.2678 74.3543 19.3964L75.0762 21.246C75.0919 21.2864 75.1161 21.3231 75.1472 21.3537C75.1782 21.3843 75.2155 21.4081 75.2565 21.4236L77.1337 22.1349C77.2521 22.1798 77.354 22.259 77.4258 22.3621C77.4977 22.4652 77.5361 22.5873 77.5361 22.7124C77.5361 22.8375 77.4977 22.9596 77.4258 23.0627C77.354 23.1658 77.2521 23.245 77.1337 23.29L75.2565 24.0012C75.2154 24.0167 75.1781 24.0404 75.1471 24.0711C75.116 24.1017 75.0918 24.1384 75.0762 24.1788L74.3543 26.0284C74.3087 26.1451 74.2282 26.2454 74.1236 26.3162C74.019 26.387 73.895 26.4249 73.7681 26.4249Z" fill="url(#paint0_linear_1119_9726)"/>
<path d="M84.2047 37C84.0663 37 83.9311 36.9586 83.8169 36.8813C83.7028 36.804 83.6151 36.6945 83.5654 36.5672L82.5874 34.0625C82.5702 34.0183 82.5438 33.9783 82.5099 33.9448C82.4759 33.9114 82.4353 33.8854 82.3905 33.8684L79.8483 32.9048C79.7191 32.8558 79.6081 32.7694 79.5297 32.657C79.4514 32.5445 79.4095 32.4113 79.4095 32.275C79.4095 32.1386 79.4514 32.0054 79.5297 31.893C79.6081 31.7806 79.7191 31.6941 79.8483 31.6451L82.3905 30.6815C82.4353 30.6646 82.4759 30.6386 82.5099 30.6051C82.5438 30.5717 82.5702 30.5316 82.5874 30.4875L83.5582 28.0005C83.6025 27.8829 83.6783 27.7793 83.7776 27.7008C83.8769 27.6223 83.996 27.5718 84.1221 27.5546C84.2737 27.5365 84.427 27.5688 84.5578 27.6464C84.6886 27.724 84.7893 27.8424 84.844 27.9828L85.822 30.4875C85.8392 30.5316 85.8657 30.5717 85.8996 30.6051C85.9335 30.6386 85.9742 30.6646 86.019 30.6815L88.5612 31.6451C88.6904 31.6941 88.8014 31.7806 88.8798 31.893C88.9581 32.0054 89 32.1386 89 32.275C89 32.4113 88.9581 32.5445 88.8798 32.657C88.8014 32.7694 88.6904 32.8558 88.5612 32.9048L86.019 33.8684C85.9742 33.8854 85.9335 33.9114 85.8996 33.9448C85.8657 33.9783 85.8392 34.0183 85.822 34.0625L84.844 36.5672C84.7944 36.6945 84.7067 36.804 84.5926 36.8813C84.4784 36.9586 84.3432 37 84.2047 37Z" fill="url(#paint1_linear_1119_9726)"/>
<path d="M53 28C40.8503 28 31 37.8503 31 50C31 62.1497 40.8503 72 53 72C65.1497 72 75 62.1497 75 50C75 37.8503 65.1497 28 53 28ZM63.1538 53.3846H53C52.5512 53.3846 52.1207 53.2063 51.8034 52.889C51.486 52.5716 51.3077 52.1411 51.3077 51.6923V36.4615C51.3077 36.0127 51.486 35.5823 51.8034 35.2649C52.1207 34.9475 52.5512 34.7692 53 34.7692C53.4488 34.7692 53.8793 34.9475 54.1966 35.2649C54.514 35.5823 54.6923 36.0127 54.6923 36.4615V50H63.1538C63.6027 50 64.0331 50.1783 64.3505 50.4957C64.6679 50.813 64.8462 51.2435 64.8462 51.6923C64.8462 52.1411 64.6679 52.5716 64.3505 52.889C64.0331 53.2063 63.6027 53.3846 63.1538 53.3846Z" fill="url(#paint2_linear_1119_9726)"/>
<defs>
<linearGradient id="paint0_linear_1119_9726" x1="61.6904" y1="-9.12435" x2="104.809" y2="-3.74249" gradientUnits="userSpaceOnUse">
<stop stop-color="#8585AD"/>
<stop offset="1" stop-color="#D1D1E0"/>
</linearGradient>
<linearGradient id="paint1_linear_1119_9726" x1="61.6904" y1="-9.12435" x2="104.809" y2="-3.74249" gradientUnits="userSpaceOnUse">
<stop stop-color="#8585AD"/>
<stop offset="1" stop-color="#D1D1E0"/>
</linearGradient>
<linearGradient id="paint2_linear_1119_9726" x1="11.4728" y1="-64.3914" x2="113.564" y2="-55.2762" gradientUnits="userSpaceOnUse">
<stop stop-color="#8585AD"/>
<stop offset="1" stop-color="#D1D1E0"/>
</linearGradient>
</defs>
</svg>
