<svg width="102" height="106" viewBox="0 0 102 106" fill="none" xmlns="http://www.w3.org/2000/svg">
<path fill-rule="evenodd" clip-rule="evenodd" d="M55.4247 0.0403985C65.3643 -0.617657 73.65 6.89244 81.1393 13.1666C88.025 18.9352 93.1464 26.0671 96.2958 34.2804C99.5508 42.7689 100.945 51.6721 99.3192 60.5774C97.4843 70.6302 94.3369 80.8663 86.5221 87.8271C78.1566 95.2786 66.7026 101.512 55.4247 99.6758C44.4329 97.8862 39.0706 86.3427 31.1831 78.8174C24.8001 72.7275 18.3246 67.31 13.7293 59.8952C7.85727 50.4201 -3.35845 40.2708 0.970288 30.0664C5.37379 19.6858 22.0189 22.0092 32.1767 16.4082C40.7237 11.6954 45.5785 0.692272 55.4247 0.0403985Z" fill="#F9F9FB"/>
<ellipse cx="54" cy="22.5" rx="16" ry="15.5" fill="url(#paint0_linear_28828_55686)"/>
<g filter="url(#filter0_d_28828_55686)">
<path d="M42.4816 39.3664C42.4816 39.3664 34 34.0005 28.9677 44.833C22 62.5008 26.0003 74.9111 30.5002 82.5005C35.0002 90.0898 78.4071 93.0005 82.0003 82.5005C85.5936 72.0005 88.0973 54.9279 80.5 44.0001C74.4214 34.1701 66.5665 39.3664 66.5665 39.3664C62 43.5005 59.3148 44.0005 54.5 44.0005C49.6852 44.0005 46.5 42.5005 42.4816 39.3664Z" fill="#D9D9D9"/>
<path d="M42.4816 39.3664C42.4816 39.3664 34 34.0005 28.9677 44.833C22 62.5008 26.0003 74.9111 30.5002 82.5005C35.0002 90.0898 78.4071 93.0005 82.0003 82.5005C85.5936 72.0005 88.0973 54.9279 80.5 44.0001C74.4214 34.1701 66.5665 39.3664 66.5665 39.3664C62 43.5005 59.3148 44.0005 54.5 44.0005C49.6852 44.0005 46.5 42.5005 42.4816 39.3664Z" fill="url(#paint1_linear_28828_55686)"/>
</g>
<path d="M102 67.9151C102 77.5801 94.3342 87 84.6326 87C74.931 87 67 77.5801 67 67.9151C67 58.2501 74.931 52 84.6326 52C94.3342 52 102 58.2501 102 67.9151Z" fill="#F3F3F7"/>
<g filter="url(#filter1_i_28828_55686)">
<path d="M95.6815 76.0447L86.6939 59.3543C86.0569 58.171 84.3599 58.171 83.7224 59.3543L74.7354 76.0447C74.597 76.3016 74.5277 76.59 74.5341 76.8817C74.5405 77.1734 74.6224 77.4585 74.7718 77.7091C74.9213 77.9596 75.1331 78.1672 75.3867 78.3115C75.6403 78.4558 75.927 78.5318 76.2188 78.5322H94.1954C94.4874 78.5323 94.7744 78.4565 95.0284 78.3125C95.2823 78.1684 95.4945 77.9608 95.6443 77.7102C95.794 77.4595 95.8762 77.1743 95.8827 76.8824C95.8892 76.5905 95.8199 76.3018 95.6815 76.0447ZM85.2084 75.9482C84.9998 75.9482 84.7959 75.8864 84.6225 75.7705C84.449 75.6546 84.3138 75.4899 84.234 75.2972C84.1542 75.1044 84.1333 74.8924 84.174 74.6878C84.2147 74.4832 84.3151 74.2953 84.4626 74.1478C84.6101 74.0003 84.7981 73.8998 85.0027 73.8591C85.2072 73.8184 85.4193 73.8393 85.612 73.9192C85.8047 73.999 85.9695 74.1342 86.0854 74.3076C86.2012 74.481 86.2631 74.685 86.2631 74.8936C86.2631 75.0321 86.2358 75.1692 86.1828 75.2972C86.1298 75.4251 86.0521 75.5414 85.9542 75.6393C85.8562 75.7373 85.74 75.815 85.612 75.868C85.4841 75.921 85.3469 75.9482 85.2084 75.9482ZM86.3538 65.3407L86.0511 71.7743C86.0511 71.9981 85.9622 72.2127 85.804 72.3709C85.6457 72.5292 85.4311 72.6181 85.2074 72.6181C84.9836 72.6181 84.769 72.5292 84.6107 72.3709C84.4525 72.2127 84.3636 71.9981 84.3636 71.7743L84.0609 65.3434C84.0541 65.1897 84.0783 65.0362 84.1321 64.8921C84.1859 64.748 84.2681 64.6162 84.3739 64.5045C84.4797 64.3928 84.6069 64.3036 84.7479 64.2422C84.8889 64.1807 85.0409 64.1483 85.1947 64.1468H85.2058C85.3606 64.1467 85.5139 64.178 85.6564 64.2388C85.7988 64.2996 85.9274 64.3886 86.0345 64.5005C86.1416 64.6124 86.2249 64.7448 86.2794 64.8897C86.334 65.0347 86.3585 65.1892 86.3517 65.3439L86.3538 65.3407Z" fill="url(#paint2_linear_28828_55686)"/>
</g>
<defs>
<filter id="filter0_d_28828_55686" x="13.1992" y="29.9941" width="84.2559" height="75.333" filterUnits="userSpaceOnUse" color-interpolation-filters="sRGB">
<feFlood flood-opacity="0" result="BackgroundImageFix"/>
<feColorMatrix in="SourceAlpha" type="matrix" values="0 0 0 0 0 0 0 0 0 0 0 0 0 0 0 0 0 0 127 0" result="hardAlpha"/>
<feOffset dy="4"/>
<feGaussianBlur stdDeviation="6"/>
<feComposite in2="hardAlpha" operator="out"/>
<feColorMatrix type="matrix" values="0 0 0 0 0 0 0 0 0 0 0 0 0 0 0 0 0 0 0.08 0"/>
<feBlend mode="normal" in2="BackgroundImageFix" result="effect1_dropShadow_28828_55686"/>
<feBlend mode="normal" in="SourceGraphic" in2="effect1_dropShadow_28828_55686" result="shape"/>
</filter>
<filter id="filter1_i_28828_55686" x="72" y="55" width="27" height="31" filterUnits="userSpaceOnUse" color-interpolation-filters="sRGB">
<feFlood flood-opacity="0" result="BackgroundImageFix"/>
<feBlend mode="normal" in="SourceGraphic" in2="BackgroundImageFix" result="shape"/>
<feColorMatrix in="SourceAlpha" type="matrix" values="0 0 0 0 0 0 0 0 0 0 0 0 0 0 0 0 0 0 127 0" result="hardAlpha"/>
<feOffset dy="4"/>
<feGaussianBlur stdDeviation="2"/>
<feComposite in2="hardAlpha" operator="arithmetic" k2="-1" k3="1"/>
<feColorMatrix type="matrix" values="0 0 0 0 0 0 0 0 0 0 0 0 0 0 0 0 0 0 0.25 0"/>
<feBlend mode="normal" in2="shape" result="effect1_innerShadow_28828_55686"/>
</filter>
<linearGradient id="paint0_linear_28828_55686" x1="24.4865" y1="-3.28648" x2="110.64" y2="55.8034" gradientUnits="userSpaceOnUse">
<stop stop-color="#8585AD"/>
<stop offset="1" stop-color="#D1D1E0"/>
</linearGradient>
<linearGradient id="paint1_linear_28828_55686" x1="-1.15361" y1="20.8071" x2="96.6756" y2="84.1742" gradientUnits="userSpaceOnUse">
<stop stop-color="#8585AD"/>
<stop offset="1" stop-color="#D1D1E0"/>
</linearGradient>
<linearGradient id="paint2_linear_28828_55686" x1="85.2084" y1="58.4668" x2="85.2084" y2="78.5322" gradientUnits="userSpaceOnUse">
<stop stop-color="#47476B"/>
<stop offset="1" stop-color="#47476B" stop-opacity="0.58"/>
</linearGradient>
</defs>
</svg>
