<svg viewBox="0 0 102 107" fill="none" xmlns="http://www.w3.org/2000/svg">
<path fill-rule="evenodd" clip-rule="evenodd" d="M55.4247 1.0404C65.3643 0.382343 73.65 7.89244 81.1393 14.1666C88.025 19.9352 93.1464 27.0671 96.2958 35.2804C99.5508 43.7689 100.945 52.6721 99.3192 61.5774C97.4843 71.6302 94.3369 81.8663 86.5221 88.8271C78.1566 96.2786 66.7026 102.512 55.4247 100.676C44.4329 98.8862 39.0706 87.3427 31.1831 79.8174C24.8001 73.7275 18.3246 68.31 13.7293 60.8952C7.85727 51.4201 -3.35845 41.2708 0.970288 31.0664C5.37379 20.6858 22.0189 23.0092 32.1767 17.4082C40.7237 12.6954 45.5785 1.69227 55.4247 1.0404Z" fill="#F9F9FB"/>
<g filter="url(#filter0_d_29644_37051)">
<path d="M70.0002 23.5C70.0002 32.0604 62.8368 39 54.0002 39C45.1637 39 38.0002 32.0604 38.0002 23.5C38.0002 14.9396 45.1637 8 54.0002 8C62.8368 8 70.0002 14.9396 70.0002 23.5Z" fill="url(#paint0_linear_29644_37051)"/>
<path d="M42.4816 40.3661C42.4816 40.3661 34 35.0001 28.9677 45.8326C22 63.5004 26.0003 75.9107 30.5002 83.5001C35.0002 91.0895 78.4071 94.0001 82.0003 83.5001C85.5936 73.0001 88.0973 55.9276 80.5 44.9998C74.4214 35.1698 66.5665 40.3661 66.5665 40.3661C62 44.5001 59.3148 45.0001 54.5 45.0001C49.6852 45.0001 46.5 43.5001 42.4816 40.3661Z" fill="#D9D9D9"/>
<path d="M42.4816 40.3661C42.4816 40.3661 34 35.0001 28.9677 45.8326C22 63.5004 26.0003 75.9107 30.5002 83.5001C35.0002 91.0895 78.4071 94.0001 82.0003 83.5001C85.5936 73.0001 88.0973 55.9276 80.5 44.9998C74.4214 35.1698 66.5665 40.3661 66.5665 40.3661C62 44.5001 59.3148 45.0001 54.5 45.0001C49.6852 45.0001 46.5 43.5001 42.4816 40.3661Z" fill="url(#paint1_linear_29644_37051)"/>
</g>
<path d="M102 68.9151C102 78.5801 94.3342 88 84.6326 88C74.931 88 67 78.5801 67 68.9151C67 59.2501 74.931 53 84.6326 53C94.3342 53 102 59.2501 102 68.9151Z" fill="#EAEAF1"/>
<path d="M95.6812 77.0452L86.6937 60.3548C86.0567 59.1714 84.3597 59.1714 83.7221 60.3548L74.7351 77.0452C74.5968 77.3021 74.5275 77.5905 74.5339 77.8822C74.5402 78.1739 74.6222 78.4589 74.7716 78.7095C74.921 78.9601 75.1329 79.1677 75.3865 79.312C75.6401 79.4562 75.9268 79.5323 76.2185 79.5327H94.1952C94.4871 79.5327 94.7741 79.457 95.0281 79.3129C95.2821 79.1688 95.4943 78.9613 95.6441 78.7107C95.7938 78.46 95.876 78.1748 95.8825 77.8828C95.889 77.5909 95.8196 77.3023 95.6812 77.0452ZM85.2082 76.9487C84.9996 76.9487 84.7957 76.8869 84.6222 76.771C84.4488 76.6551 84.3136 76.4904 84.2338 76.2976C84.1539 76.1049 84.133 75.8929 84.1737 75.6883C84.2144 75.4837 84.3149 75.2958 84.4624 75.1483C84.6099 75.0007 84.7978 74.9003 85.0024 74.8596C85.207 74.8189 85.4191 74.8398 85.6118 74.9196C85.8045 74.9995 85.9692 75.1346 86.0851 75.3081C86.201 75.4815 86.2629 75.6854 86.2629 75.894C86.2629 76.0325 86.2356 76.1697 86.1826 76.2976C86.1296 76.4256 86.0519 76.5419 85.9539 76.6398C85.856 76.7377 85.7397 76.8154 85.6118 76.8684C85.4838 76.9214 85.3467 76.9487 85.2082 76.9487ZM86.3536 66.3412L86.0509 72.7748C86.0509 72.9986 85.962 73.2132 85.8037 73.3714C85.6455 73.5296 85.4309 73.6185 85.2071 73.6185C84.9833 73.6185 84.7687 73.5296 84.6105 73.3714C84.4523 73.2132 84.3634 72.9986 84.3634 72.7748L84.0607 66.3438C84.0539 66.1902 84.0781 66.0367 84.1318 65.8926C84.1856 65.7484 84.2679 65.6166 84.3737 65.505C84.4795 65.3933 84.6067 65.3041 84.7477 65.2426C84.8887 65.1812 85.0406 65.1488 85.1945 65.1473H85.2055C85.3604 65.1472 85.5137 65.1785 85.6561 65.2393C85.7985 65.3001 85.9272 65.3891 86.0343 65.501C86.1414 65.6128 86.2247 65.7452 86.2792 65.8902C86.3337 66.0352 86.3583 66.1896 86.3514 66.3444L86.3536 66.3412Z" fill="url(#paint2_linear_29644_37051)"/>
<defs>
<filter id="filter0_d_29644_37051" x="13.1992" y="0" width="84.2559" height="106.327" filterUnits="userSpaceOnUse" color-interpolation-filters="sRGB">
<feFlood flood-opacity="0" result="BackgroundImageFix"/>
<feColorMatrix in="SourceAlpha" type="matrix" values="0 0 0 0 0 0 0 0 0 0 0 0 0 0 0 0 0 0 127 0" result="hardAlpha"/>
<feOffset dy="4"/>
<feGaussianBlur stdDeviation="6"/>
<feComposite in2="hardAlpha" operator="out"/>
<feColorMatrix type="matrix" values="0 0 0 0 0 0 0 0 0 0 0 0 0 0 0 0 0 0 0.08 0"/>
<feBlend mode="normal" in2="BackgroundImageFix" result="effect1_dropShadow_29644_37051"/>
<feBlend mode="normal" in="SourceGraphic" in2="effect1_dropShadow_29644_37051" result="shape"/>
</filter>
<linearGradient id="paint0_linear_29644_37051" x1="-0.246526" y1="-19.3179" x2="192.67" y2="74.4982" gradientUnits="userSpaceOnUse">
<stop stop-color="#8585AD"/>
<stop offset="1" stop-color="#D1D1E0"/>
</linearGradient>
<linearGradient id="paint1_linear_29644_37051" x1="-1.1536" y1="21.8071" x2="96.6756" y2="85.1742" gradientUnits="userSpaceOnUse">
<stop stop-color="#8585AD"/>
<stop offset="1" stop-color="#D1D1E0"/>
</linearGradient>
<linearGradient id="paint2_linear_29644_37051" x1="85.2084" y1="59.4668" x2="85.2084" y2="79.5322" gradientUnits="userSpaceOnUse">
<stop stop-color="#47476B"/>
<stop offset="1" stop-color="#47476B" stop-opacity="0.58"/>
</linearGradient>
</defs>
</svg>
