<svg width="180" height="180" viewBox="0 0 180 180" fill="none" xmlns="http://www.w3.org/2000/svg">
<path fill-rule="evenodd" clip-rule="evenodd" d="M99.7644 0.0727173C117.656 -1.11178 132.57 12.4064 146.051 23.6999C158.445 34.0833 167.664 46.9208 173.332 61.7047C179.191 76.984 181.7 93.0098 178.774 109.039C175.472 127.134 169.806 145.559 155.74 158.089C140.682 171.501 120.065 182.721 99.7644 179.416C79.9792 176.195 70.3271 155.417 56.1296 141.871C44.6402 130.909 32.9842 121.158 24.7128 107.811C14.1431 90.7562 -6.0452 72.4874 1.74652 54.1196C9.67281 35.4345 39.634 39.6166 57.918 29.5348C73.3026 21.0518 82.0412 1.24609 99.7644 0.0727173Z" fill="#F9F9FB"/>
<path d="M139.641 30.8811C139.484 30.8811 139.332 30.8337 139.203 30.7453C139.074 30.6568 138.975 30.5313 138.919 30.3854L138.03 28.0735C138.01 28.023 137.981 27.9771 137.942 27.9388C137.904 27.9005 137.858 27.8708 137.808 27.8515L135.496 26.9624C135.35 26.9062 135.224 26.8072 135.136 26.6783C135.047 26.5494 135 26.3968 135 26.2405C135 26.0842 135.047 25.9315 135.136 25.8026C135.224 25.6738 135.35 25.5747 135.496 25.5185L137.808 24.6294C137.858 24.6101 137.904 24.5803 137.942 24.5421C137.98 24.5038 138.01 24.4579 138.03 24.4074L138.911 22.1161C138.96 21.9812 139.046 21.8624 139.158 21.7725C139.27 21.6825 139.405 21.6248 139.547 21.6056C139.718 21.5848 139.891 21.6217 140.039 21.7105C140.187 21.7992 140.301 21.9347 140.363 22.0955L141.252 24.4074C141.271 24.4579 141.301 24.5038 141.339 24.5421C141.377 24.5803 141.423 24.6101 141.474 24.6294L143.786 25.5185C143.932 25.5747 144.057 25.6738 144.145 25.8026C144.234 25.9315 144.281 26.0842 144.281 26.2405C144.281 26.3968 144.234 26.5494 144.145 26.6783C144.057 26.8072 143.932 26.9062 143.786 26.9624L141.474 27.8515C141.423 27.8708 141.377 27.9005 141.339 27.9388C141.301 27.9771 141.271 28.023 141.252 28.0735L140.363 30.3854C140.306 30.5313 140.207 30.6568 140.079 30.7453C139.95 30.8337 139.797 30.8811 139.641 30.8811Z" fill="url(#paint0_linear_36632_66658)"/>
<path d="M152.494 44.1C152.324 44.0999 152.157 44.0482 152.017 43.9516C151.876 43.855 151.768 43.7181 151.707 43.5589L150.502 40.4281C150.481 40.3729 150.449 40.3228 150.407 40.281C150.365 40.2392 150.315 40.2067 150.26 40.1855L147.129 38.981C146.97 38.9197 146.833 38.8117 146.737 38.6712C146.64 38.5306 146.589 38.3642 146.589 38.1937C146.589 38.0232 146.64 37.8568 146.737 37.7162C146.833 37.5757 146.97 37.4677 147.129 37.4064L150.26 36.2019C150.315 36.1807 150.365 36.1482 150.407 36.1064C150.449 36.0646 150.481 36.0145 150.502 35.9593L151.698 32.8506C151.753 32.7036 151.846 32.5742 151.968 32.476C152.091 32.3779 152.237 32.3147 152.392 32.2932C152.579 32.2706 152.768 32.311 152.929 32.408C153.09 32.505 153.214 32.653 153.282 32.8285L154.486 35.9593C154.507 36.0145 154.54 36.0646 154.582 36.1064C154.623 36.1482 154.674 36.1807 154.729 36.2019L157.86 37.4064C158.019 37.4677 158.155 37.5757 158.252 37.7162C158.348 37.8568 158.4 38.0232 158.4 38.1937C158.4 38.3642 158.348 38.5306 158.252 38.6712C158.155 38.8117 158.019 38.9197 157.86 38.981L154.729 40.1855C154.674 40.2067 154.623 40.2392 154.582 40.281C154.54 40.3228 154.507 40.3729 154.486 40.4281L153.282 43.5589C153.22 43.7181 153.112 43.855 152.972 43.9516C152.831 44.0482 152.665 44.0999 152.494 44.1Z" fill="url(#paint1_linear_36632_66658)"/>
<path fill-rule="evenodd" clip-rule="evenodd" d="M137.197 57.5996L132.989 126.225C132.613 132.349 128.145 136.8 122.357 136.8H81.6045C75.846 136.8 71.2882 132.248 70.9736 126.207L63 57.5996H137.197ZM85.9082 64.7998C84.9683 64.8338 84.0794 65.2461 83.4385 65.9453C82.7977 66.6445 82.4568 67.5737 82.4902 68.5283L84.2617 118.929C84.2945 119.861 84.6828 120.744 85.3438 121.392C86.0048 122.039 86.8874 122.401 87.8057 122.4H87.9316C88.3971 122.384 88.8556 122.274 89.2793 122.077C89.7028 121.881 90.0841 121.602 90.4014 121.256C90.7188 120.91 90.9662 120.503 91.1289 120.06C91.2915 119.616 91.3665 119.145 91.3496 118.672L89.5781 68.2715C89.5446 67.3168 89.1384 66.4147 88.4502 65.7637C87.7621 65.1129 86.8478 64.7659 85.9082 64.7998ZM101.98 64.7998C101.041 64.7999 100.139 65.1795 99.4746 65.8545C98.8102 66.5296 98.4375 67.4457 98.4375 68.4004V118.8C98.4375 119.754 98.8102 120.671 99.4746 121.346C100.139 122.021 101.041 122.4 101.98 122.4C102.92 122.4 103.822 122.021 104.486 121.346C105.151 120.671 105.524 119.755 105.524 118.8V68.4004C105.524 67.4456 105.151 66.5296 104.486 65.8545C103.822 65.1795 102.92 64.7998 101.98 64.7998ZM118.054 64.7998C117.588 64.783 117.125 64.8601 116.688 65.0254C116.252 65.1907 115.852 65.4413 115.511 65.7637C115.17 66.086 114.896 66.474 114.702 66.9043C114.509 67.3344 114.4 67.7989 114.384 68.2715L112.612 118.672C112.595 119.145 112.67 119.616 112.833 120.06C112.996 120.503 113.243 120.909 113.56 121.255C113.877 121.601 114.258 121.881 114.682 122.077C115.105 122.274 115.562 122.384 116.027 122.4H116.156C117.074 122.401 117.957 122.039 118.618 121.392C119.279 120.744 119.666 119.861 119.699 118.929L121.472 68.5283C121.488 68.0556 121.413 67.5838 121.25 67.1406C121.087 66.6975 120.84 66.2914 120.522 65.9453C120.205 65.5992 119.824 65.3195 119.4 65.123C118.977 64.9266 118.519 64.8166 118.054 64.7998Z" fill="url(#paint2_linear_36632_66658)"/>
<g filter="url(#filter0_dd_36632_66658)">
<path fill-rule="evenodd" clip-rule="evenodd" d="M115.918 40.1296L136.456 34.6265C137.364 34.3832 138.333 34.5163 139.149 34.9964C139.966 35.4765 140.564 36.2644 140.811 37.1866C141.058 38.1089 140.934 39.09 140.467 39.9141C140 40.7382 139.227 41.3379 138.319 41.5811L134.683 42.5556L66.6504 60.7848L63.0135 61.7593C62.1057 62.0026 61.1368 61.8695 60.3202 61.3894C59.5035 60.9093 58.9059 60.1214 58.6587 59.1992C58.4116 58.2769 58.5353 57.2958 59.0025 56.4717C59.4697 55.6475 60.2422 55.0479 61.15 54.8046L81.688 49.3015L80.2904 44.0855C79.6726 41.7799 79.9817 39.3271 81.1497 37.2668C82.3177 35.2065 84.2489 33.7073 86.5185 33.0992L103.633 28.5132C105.903 27.9051 108.325 28.2378 110.367 29.4381C112.408 30.6384 113.903 32.608 114.52 34.9136L115.918 40.1296ZM109.072 41.964L88.534 47.4671L87.1364 42.2511C87.0724 42.0228 87.054 41.7841 87.0823 41.5492C87.1105 41.3142 87.1849 41.0878 87.3009 40.8831C87.417 40.6784 87.5724 40.4996 87.758 40.3572C87.9437 40.2148 88.1558 40.1117 88.382 40.0539L92.5928 38.9256L105.497 35.4679C105.722 35.4049 105.957 35.3881 106.189 35.4186C106.421 35.4491 106.645 35.5262 106.848 35.6455C107.051 35.7647 107.228 35.9237 107.37 36.113C107.512 36.3024 107.616 36.5182 107.674 36.748L109.072 41.964Z" fill="url(#paint3_linear_36632_66658)"/>
</g>
<defs>
<filter id="filter0_dd_36632_66658" x="53.5352" y="26.2159" width="92.4004" height="43.6624" filterUnits="userSpaceOnUse" color-interpolation-filters="sRGB">
<feFlood flood-opacity="0" result="BackgroundImageFix"/>
<feColorMatrix in="SourceAlpha" type="matrix" values="0 0 0 0 0 0 0 0 0 0 0 0 0 0 0 0 0 0 127 0" result="hardAlpha"/>
<feOffset dy="1"/>
<feGaussianBlur stdDeviation="0.5"/>
<feComposite in2="hardAlpha" operator="out"/>
<feColorMatrix type="matrix" values="0 0 0 0 0 0 0 0 0 0 0 0 0 0 0 0 0 0 0.04 0"/>
<feBlend mode="normal" in2="BackgroundImageFix" result="effect1_dropShadow_36632_66658"/>
<feColorMatrix in="SourceAlpha" type="matrix" values="0 0 0 0 0 0 0 0 0 0 0 0 0 0 0 0 0 0 127 0" result="hardAlpha"/>
<feOffset dy="3"/>
<feGaussianBlur stdDeviation="2.5"/>
<feComposite in2="hardAlpha" operator="out"/>
<feColorMatrix type="matrix" values="0 0 0 0 0 0 0 0 0 0 0 0 0 0 0 0 0 0 0.02 0"/>
<feBlend mode="normal" in2="effect1_dropShadow_36632_66658" result="effect2_dropShadow_36632_66658"/>
<feBlend mode="normal" in="SourceGraphic" in2="effect2_dropShadow_36632_66658" result="shape"/>
</filter>
<linearGradient id="paint0_linear_36632_66658" x1="124.766" y1="-13.5555" x2="177.894" y2="-7.02202" gradientUnits="userSpaceOnUse">
<stop stop-color="#8585AD"/>
<stop offset="1" stop-color="#D1D1E0"/>
</linearGradient>
<linearGradient id="paint1_linear_36632_66658" x1="124.766" y1="-13.5555" x2="177.894" y2="-7.02202" gradientUnits="userSpaceOnUse">
<stop stop-color="#8585AD"/>
<stop offset="1" stop-color="#D1D1E0"/>
</linearGradient>
<linearGradient id="paint2_linear_36632_66658" x1="22.2597" y1="2.25025" x2="183.356" y2="77.2558" gradientUnits="userSpaceOnUse">
<stop stop-color="#8585AD"/>
<stop offset="1" stop-color="#D1D1E0"/>
</linearGradient>
<linearGradient id="paint3_linear_36632_66658" x1="9.33592" y1="18.8404" x2="184.356" y2="49.5956" gradientUnits="userSpaceOnUse">
<stop stop-color="#8585AD"/>
<stop offset="1" stop-color="#D1D1E0"/>
</linearGradient>
</defs>
</svg>
