<svg width="206" height="200" viewBox="0 0 206 200" fill="none" xmlns="http://www.w3.org/2000/svg">
<path fill-rule="evenodd" clip-rule="evenodd" d="M110.849 0.080797C130.729 -1.23531 147.3 13.7849 162.279 26.3333C176.05 37.8703 186.293 52.1343 192.592 68.5607C199.102 85.5378 201.889 103.344 198.638 121.155C194.969 141.26 188.674 161.733 173.044 175.654C156.313 190.557 133.405 203.024 110.849 199.351C88.8657 195.772 78.1412 172.685 62.3662 157.635C49.6002 145.455 36.6491 134.62 27.4587 119.79C15.7145 100.84 -6.71689 80.5416 1.94058 60.1328C10.7476 39.3716 44.0377 44.0184 64.3533 32.8164C81.4473 23.3909 91.1569 1.38454 110.849 0.080797Z" fill="#F9F9FB"/>
<path d="M153.63 76.0659L116 55L74.1008 69.033L54 108.593L82 134L108.185 142L148 114L153.63 76.0659Z" stroke="#D1D1E0" stroke-width="2"/>
<circle cx="154" cy="76" r="4" fill="#47476B"/>
<circle cx="82" cy="134" r="4" fill="#47476B"/>
<circle cx="74" cy="70" r="4" fill="#47476B"/>
<path d="M92.1821 30.4724C92.1821 28.0024 94.2251 26 96.7452 26C96.7452 26 96.7452 26 96.7452 26C96.7452 26 108.285 26 111.261 26C114.237 26 115.89 30.4724 119.495 30.4724C122.899 30.4724 132.557 30.588 133.618 30.6009C133.685 30.6017 133.747 30.6017 133.813 30.6031C136.287 30.6553 138.276 32.6372 138.276 35.0744L136.821 48.8156C136.821 51.2857 134.778 53.288 132.258 53.288H97.9356C95.4155 53.288 93.3725 51.2857 93.3725 48.8156L92.1821 30.4724Z" fill="url(#paint0_linear_28841_55839)"/>
<g filter="url(#filter0_d_28841_55839)">
<path d="M90 46.4814C90 43.597 91.8519 42.1386 95.8529 42.1386C99.2587 42.1386 105.409 42.1386 111.526 42.1386C115.362 42.1386 116.717 37.2773 119.726 37.2773H136.16C138.498 37.2773 140.393 39.1346 140.393 41.4256L137.781 63.269C137.483 65.7321 135.886 67.4173 133.548 67.4173H96.4481C94.1105 67.4173 92.5463 65.57 92.2156 63.269L90 46.4814Z" fill="#D1D1E0"/>
<path d="M119.726 37.3959H136.16C138.432 37.3959 140.27 39.1985 140.274 41.4186L137.663 63.2548C137.517 64.4648 137.052 65.4757 136.345 66.183C135.64 66.8891 134.687 67.2988 133.548 67.2988H96.4481C94.1872 67.2988 92.6583 65.5143 92.3331 63.2528C92.333 63.2526 92.333 63.2524 92.333 63.2521L90.1186 46.4736C90.1202 45.0629 90.5727 44.0193 91.4974 43.3231C92.4305 42.6205 93.8631 42.2572 95.8529 42.2572H95.8729H95.8929H95.913H95.9332H95.9534H95.9737H95.9941H96.0145H96.035H96.0556H96.0762H96.0968H96.1176H96.1384H96.1592H96.1801H96.2011H96.2221H96.2432H96.2644H96.2856H96.3069H96.3282H96.3496H96.3711H96.3926H96.4142H96.4358H96.4575H96.4793H96.5011H96.5229H96.5449H96.5669H96.5889H96.611H96.6332H96.6554H96.6777H96.7H96.7224H96.7449H96.7674H96.79H96.8126H96.8353H96.858H96.8808H96.9037H96.9266H96.9496H96.9726H96.9957H97.0188H97.042H97.0653H97.0886H97.1119H97.1353H97.1588H97.1824H97.2059H97.2296H97.2533H97.277H97.3008H97.3247H97.3486H97.3726H97.3966H97.4207H97.4448H97.469H97.4932H97.5175H97.5418H97.5662H97.5907H97.6152H97.6398H97.6644H97.689H97.7137H97.7385H97.7633H97.7882H97.8131H97.8381H97.8631H97.8882H97.9133H97.9385H97.9638H97.9891H98.0144H98.0398H98.0652H98.0907H98.1163H98.1418H98.1675H98.1932H98.2189H98.2447H98.2706H98.2964H98.3224H98.3484H98.3744H98.4005H98.4266H98.4528H98.4791H98.5054H98.5317H98.5581H98.5845H98.611H98.6375H98.6641H98.6907H98.7174H98.7441H98.7709H98.7977H98.8245H98.8515H98.8784H98.9054H98.9325H98.9596H98.9867H99.0139H99.0411H99.0684H99.0957H99.1231H99.1505H99.178H99.2055H99.2331H99.2607H99.2883H99.316H99.3437H99.3715H99.3993H99.4272H99.4551H99.4831H99.5111H99.5391H99.5672H99.5954H99.6235H99.6518H99.68H99.7083H99.7367H99.7651H99.7935H99.822H99.8505H99.8791H99.9077H99.9364H99.965H99.9938H100.023H100.051H100.08H100.109H100.138H100.167H100.196H100.225H100.254H100.283H100.313H100.342H100.371H100.4H100.43H100.459H100.489H100.518H100.548H100.577H100.607H100.636H100.666H100.696H100.725H100.755H100.785H100.815H100.845H100.875H100.905H100.935H100.965H100.995H101.025H101.055H101.085H101.116H101.146H101.176H101.207H101.237H101.267H101.298H101.328H101.359H101.39H101.42H101.451H101.481H101.512H101.543H101.574H101.605H101.635H101.666H101.697H101.728H101.759H101.79H101.821H101.852H101.884H101.915H101.946H101.977H102.008H102.04H102.071H102.102H102.134H102.165H102.197H102.228H102.26H102.291H102.323H102.355H102.386H102.418H102.45H102.481H102.513H102.545H102.577H102.609H102.641H102.673H102.705H102.737H102.769H102.801H102.833H102.865H102.897H102.929H102.962H102.994H103.026H103.059H103.091H103.123H103.156H103.188H103.221H103.253H103.286H103.318H103.351H103.383H103.416H103.449H103.481H103.514H103.547H103.58H103.612H103.645H103.678H103.711H103.744H103.777H103.81H103.843H103.876H103.909H103.942H103.975H104.008H104.041H104.074H104.108H104.141H104.174H104.207H104.241H104.274H104.307H104.341H104.374H104.407H104.441H104.474H104.508H104.541H104.575H104.609H104.642H104.676H104.709H104.743H104.777H104.81H104.844H104.878H104.912H104.946H104.979H105.013H105.047H105.081H105.115H105.149H105.183H105.217H105.251H105.285H105.319H105.353H105.387H105.421H105.455H105.489H105.524H105.558H105.592H105.626H105.66H105.695H105.729H105.763H105.798H105.832H105.866H105.901H105.935H105.969H106.004H106.038H106.073H106.107H106.142H106.176H106.211H106.246H106.28H106.315H106.349H106.384H106.419H106.453H106.488H106.523H106.557H106.592H106.627H106.662H106.696H106.731H106.766H106.801H106.836H106.871H106.906H106.94H106.975H107.01H107.045H107.08H107.115H107.15H107.185H107.22H107.255H107.29H107.325H107.36H107.395H107.431H107.466H107.501H107.536H107.571H107.606H107.641H107.677H107.712H107.747H107.782H107.818H107.853H107.888H107.923H107.959H107.994H108.029H108.065H108.1H108.135H108.171H108.206H108.241H108.277H108.312H108.348H108.383H108.418H108.454H108.489H108.525H108.56H108.596H108.631H108.667H108.702H108.738H108.773H108.809H108.844H108.88H108.916H108.951H108.987H109.022H109.058H109.093H109.129H109.165H109.2H109.236H109.272H109.307H109.343H109.379H109.414H109.45H109.486H109.521H109.557H109.593H109.628H109.664H109.7H109.735H109.771H109.807H109.843H109.878H109.914H109.95H109.986H110.021H110.057H110.093H110.129H110.165H110.2H110.236H110.272H110.308H110.344H110.379H110.415H110.451H110.487H110.523H110.558H110.594H110.63H110.666H110.702H110.737H110.773H110.809H110.845H110.881H110.917H110.952H110.988H111.024H111.06H111.096H111.132H111.168H111.203H111.239H111.275H111.311H111.347H111.383H111.418H111.454H111.49H111.526C113.499 42.2572 114.829 41.004 116.021 39.7911C116.093 39.7171 116.166 39.6433 116.237 39.57C116.758 39.037 117.258 38.5265 117.786 38.1319C118.384 37.685 119.009 37.3959 119.726 37.3959Z" stroke="#D1D1E0" stroke-width="0.237102"/>
</g>
<path d="M103.639 101.455C103.639 97.3377 107.044 94 111.245 94C111.245 94 111.245 94 111.245 94C111.245 94 130.481 94 135.442 94C140.402 94 143.158 101.455 149.166 101.455C154.938 101.455 171.493 101.654 172.787 101.67C172.846 101.671 172.897 101.671 172.957 101.672C177.116 101.719 180.473 105.038 180.473 109.126L178.048 132.032C178.048 136.149 174.643 139.487 170.442 139.487H113.229C109.028 139.487 105.623 136.149 105.623 132.032L103.639 101.455Z" fill="url(#paint1_linear_28841_55839)"/>
<g filter="url(#filter1_d_28841_55839)">
<path d="M100 128.141C100 123.333 103.087 120.902 109.756 120.902C115.433 120.902 125.685 120.902 135.882 120.902C142.276 120.902 144.535 112.799 149.551 112.799H176.945C180.841 112.799 184 115.895 184 119.714L179.646 156.125C179.15 160.23 176.487 163.04 172.591 163.04H110.748C106.852 163.04 104.244 159.96 103.693 156.125L100 128.141Z" fill="#D1D1E0"/>
<path d="M149.551 112.905H176.945C180.782 112.905 183.89 115.952 183.894 119.707L179.54 156.112C179.295 158.145 178.513 159.851 177.318 161.047C176.124 162.241 174.512 162.933 172.591 162.933H110.748C106.921 162.933 104.345 159.91 103.799 156.11C103.799 156.11 103.799 156.11 103.799 156.11L100.106 128.134C100.108 125.758 100.87 123.986 102.441 122.804C104.02 121.615 106.431 121.009 109.756 121.009H109.79H109.823H109.856H109.89H109.924H109.958H109.992H110.026H110.06H110.094H110.128H110.163H110.197H110.232H110.267H110.302H110.337H110.372H110.407H110.442H110.478H110.513H110.549H110.584H110.62H110.656H110.692H110.728H110.764H110.8H110.837H110.873H110.91H110.946H110.983H111.02H111.057H111.094H111.131H111.168H111.206H111.243H111.281H111.318H111.356H111.394H111.432H111.47H111.508H111.546H111.584H111.623H111.661H111.7H111.738H111.777H111.816H111.855H111.894H111.933H111.972H112.012H112.051H112.091H112.13H112.17H112.21H112.249H112.289H112.329H112.37H112.41H112.45H112.491H112.531H112.572H112.612H112.653H112.694H112.735H112.776H112.817H112.858H112.899H112.941H112.982H113.024H113.065H113.107H113.149H113.191H113.233H113.275H113.317H113.359H113.402H113.444H113.487H113.529H113.572H113.614H113.657H113.7H113.743H113.786H113.829H113.873H113.916H113.959H114.003H114.046H114.09H114.134H114.178H114.222H114.266H114.31H114.354H114.398H114.442H114.487H114.531H114.576H114.62H114.665H114.71H114.755H114.8H114.845H114.89H114.935H114.98H115.025H115.071H115.116H115.162H115.207H115.253H115.299H115.345H115.391H115.437H115.483H115.529H115.575H115.621H115.668H115.714H115.761H115.807H115.854H115.901H115.948H115.995H116.042H116.089H116.136H116.183H116.23H116.278H116.325H116.372H116.42H116.468H116.515H116.563H116.611H116.659H116.707H116.755H116.803H116.851H116.899H116.948H116.996H117.044H117.093H117.142H117.19H117.239H117.288H117.337H117.386H117.435H117.484H117.533H117.582H117.631H117.68H117.73H117.779H117.829H117.878H117.928H117.978H118.028H118.077H118.127H118.177H118.227H118.277H118.328H118.378H118.428H118.478H118.529H118.579H118.63H118.68H118.731H118.782H118.833H118.883H118.934H118.985H119.036H119.087H119.139H119.19H119.241H119.292H119.344H119.395H119.447H119.498H119.55H119.602H119.653H119.705H119.757H119.809H119.861H119.913H119.965H120.017H120.069H120.121H120.174H120.226H120.278H120.331H120.383H120.436H120.489H120.541H120.594H120.647H120.7H120.753H120.806H120.859H120.912H120.965H121.018H121.071H121.124H121.178H121.231H121.284H121.338H121.391H121.445H121.499H121.552H121.606H121.66H121.714H121.767H121.821H121.875H121.929H121.983H122.037H122.092H122.146H122.2H122.254H122.309H122.363H122.418H122.472H122.527H122.581H122.636H122.691H122.745H122.8H122.855H122.91H122.965H123.02H123.075H123.13H123.185H123.24H123.295H123.35H123.405H123.461H123.516H123.571H123.627H123.682H123.738H123.793H123.849H123.905H123.96H124.016H124.072H124.128H124.183H124.239H124.295H124.351H124.407H124.463H124.519H124.575H124.632H124.688H124.744H124.8H124.857H124.913H124.969H125.026H125.082H125.139H125.195H125.252H125.308H125.365H125.422H125.478H125.535H125.592H125.649H125.706H125.762H125.819H125.876H125.933H125.99H126.047H126.104H126.162H126.219H126.276H126.333H126.39H126.448H126.505H126.562H126.62H126.677H126.735H126.792H126.85H126.907H126.965H127.022H127.08H127.138H127.195H127.253H127.311H127.368H127.426H127.484H127.542H127.6H127.658H127.716H127.774H127.832H127.89H127.948H128.006H128.064H128.122H128.18H128.238H128.296H128.355H128.413H128.471H128.529H128.588H128.646H128.705H128.763H128.821H128.88H128.938H128.997H129.055H129.114H129.172H129.231H129.29H129.348H129.407H129.465H129.524H129.583H129.642H129.7H129.759H129.818H129.877H129.936H129.994H130.053H130.112H130.171H130.23H130.289H130.348H130.407H130.466H130.525H130.584H130.643H130.702H130.761H130.82H130.879H130.938H130.998H131.057H131.116H131.175H131.234H131.293H131.353H131.412H131.471H131.531H131.59H131.649H131.708H131.768H131.827H131.886H131.946H132.005H132.065H132.124H132.183H132.243H132.302H132.362H132.421H132.481H132.54H132.6H132.659H132.719H132.778H132.838H132.897H132.957H133.016H133.076H133.136H133.195H133.255H133.314H133.374H133.434H133.493H133.553H133.613H133.672H133.732H133.792H133.851H133.911H133.971H134.03H134.09H134.15H134.209H134.269H134.329H134.388H134.448H134.508H134.568H134.627H134.687H134.747H134.806H134.866H134.926H134.986H135.045H135.105H135.165H135.225H135.284H135.344H135.404H135.464H135.523H135.583H135.643H135.703H135.762H135.822H135.882C139.128 121.009 141.32 118.949 143.309 116.925C143.43 116.802 143.55 116.679 143.67 116.557C144.538 115.669 145.375 114.812 146.262 114.15C147.269 113.398 148.328 112.905 149.551 112.905Z" stroke="#D1D1E0" stroke-width="0.212767"/>
</g>
<g filter="url(#filter2_d_28841_55839)">
<rect x="30" y="82" width="32" height="38.4" rx="4.8" fill="url(#paint2_linear_28841_55839)"/>
</g>
<g filter="url(#filter3_d_28841_55839)">
<g filter="url(#filter4_d_28841_55839)">
<rect x="34.7993" y="86.7998" width="32" height="38.4" rx="4.8" fill="url(#paint3_linear_28841_55839)"/>
</g>
</g>
<g filter="url(#filter5_d_28841_55839)">
<g filter="url(#filter6_d_28841_55839)">
<rect x="39.5996" y="91.6006" width="32" height="38.4" rx="4.8" fill="url(#paint4_linear_28841_55839)"/>
</g>
<path d="M44.2544 100.91H66.3635" stroke="#8585AD" stroke-width="1.6" stroke-linecap="round"/>
<path d="M44.2544 106.728H61.7089" stroke="#8585AD" stroke-width="1.6" stroke-linecap="round"/>
<path d="M44.2539 112.546H53.563" stroke="#8585AD" stroke-width="1.6" stroke-linecap="round"/>
</g>
<defs>
<filter id="filter0_d_28841_55839" x="66" y="21.2773" width="98.3926" height="78.1396" filterUnits="userSpaceOnUse" color-interpolation-filters="sRGB">
<feFlood flood-opacity="0" result="BackgroundImageFix"/>
<feColorMatrix in="SourceAlpha" type="matrix" values="0 0 0 0 0 0 0 0 0 0 0 0 0 0 0 0 0 0 127 0" result="hardAlpha"/>
<feOffset dy="8"/>
<feGaussianBlur stdDeviation="12"/>
<feComposite in2="hardAlpha" operator="out"/>
<feColorMatrix type="matrix" values="0 0 0 0 0 0 0 0 0 0 0 0 0 0 0 0 0 0 0.08 0"/>
<feBlend mode="normal" in2="BackgroundImageFix" result="effect1_dropShadow_28841_55839"/>
<feBlend mode="normal" in="SourceGraphic" in2="effect1_dropShadow_28841_55839" result="shape"/>
</filter>
<filter id="filter1_d_28841_55839" x="78.4633" y="98.441" width="127.073" height="93.3137" filterUnits="userSpaceOnUse" color-interpolation-filters="sRGB">
<feFlood flood-opacity="0" result="BackgroundImageFix"/>
<feColorMatrix in="SourceAlpha" type="matrix" values="0 0 0 0 0 0 0 0 0 0 0 0 0 0 0 0 0 0 127 0" result="hardAlpha"/>
<feOffset dy="7.17892"/>
<feGaussianBlur stdDeviation="10.7684"/>
<feComposite in2="hardAlpha" operator="out"/>
<feColorMatrix type="matrix" values="0 0 0 0 0 0 0 0 0 0 0 0 0 0 0 0 0 0 0.08 0"/>
<feBlend mode="normal" in2="BackgroundImageFix" result="effect1_dropShadow_28841_55839"/>
<feBlend mode="normal" in="SourceGraphic" in2="effect1_dropShadow_28841_55839" result="shape"/>
</filter>
<filter id="filter2_d_28841_55839" x="10.8" y="69.2" width="70.4" height="76.8004" filterUnits="userSpaceOnUse" color-interpolation-filters="sRGB">
<feFlood flood-opacity="0" result="BackgroundImageFix"/>
<feColorMatrix in="SourceAlpha" type="matrix" values="0 0 0 0 0 0 0 0 0 0 0 0 0 0 0 0 0 0 127 0" result="hardAlpha"/>
<feOffset dy="6.4"/>
<feGaussianBlur stdDeviation="9.6"/>
<feComposite in2="hardAlpha" operator="out"/>
<feColorMatrix type="matrix" values="0 0 0 0 0 0 0 0 0 0 0 0 0 0 0 0 0 0 0.08 0"/>
<feBlend mode="normal" in2="BackgroundImageFix" result="effect1_dropShadow_28841_55839"/>
<feBlend mode="normal" in="SourceGraphic" in2="effect1_dropShadow_28841_55839" result="shape"/>
</filter>
<filter id="filter3_d_28841_55839" x="26.7993" y="81.9998" width="44.8" height="51.2004" filterUnits="userSpaceOnUse" color-interpolation-filters="sRGB">
<feFlood flood-opacity="0" result="BackgroundImageFix"/>
<feColorMatrix in="SourceAlpha" type="matrix" values="0 0 0 0 0 0 0 0 0 0 0 0 0 0 0 0 0 0 127 0" result="hardAlpha"/>
<feOffset dx="-1.6" dy="1.6"/>
<feGaussianBlur stdDeviation="3.2"/>
<feComposite in2="hardAlpha" operator="out"/>
<feColorMatrix type="matrix" values="0 0 0 0 0 0 0 0 0 0 0 0 0 0 0 0 0 0 0.13 0"/>
<feBlend mode="normal" in2="BackgroundImageFix" result="effect1_dropShadow_28841_55839"/>
<feBlend mode="normal" in="SourceGraphic" in2="effect1_dropShadow_28841_55839" result="shape"/>
</filter>
<filter id="filter4_d_28841_55839" x="15.5993" y="73.9998" width="70.4" height="76.8004" filterUnits="userSpaceOnUse" color-interpolation-filters="sRGB">
<feFlood flood-opacity="0" result="BackgroundImageFix"/>
<feColorMatrix in="SourceAlpha" type="matrix" values="0 0 0 0 0 0 0 0 0 0 0 0 0 0 0 0 0 0 127 0" result="hardAlpha"/>
<feOffset dy="6.4"/>
<feGaussianBlur stdDeviation="9.6"/>
<feComposite in2="hardAlpha" operator="out"/>
<feColorMatrix type="matrix" values="0 0 0 0 0 0 0 0 0 0 0 0 0 0 0 0 0 0 0.08 0"/>
<feBlend mode="normal" in2="BackgroundImageFix" result="effect1_dropShadow_28841_55839"/>
<feBlend mode="normal" in="SourceGraphic" in2="effect1_dropShadow_28841_55839" result="shape"/>
</filter>
<filter id="filter5_d_28841_55839" x="31.5996" y="86.8006" width="44.8" height="51.2004" filterUnits="userSpaceOnUse" color-interpolation-filters="sRGB">
<feFlood flood-opacity="0" result="BackgroundImageFix"/>
<feColorMatrix in="SourceAlpha" type="matrix" values="0 0 0 0 0 0 0 0 0 0 0 0 0 0 0 0 0 0 127 0" result="hardAlpha"/>
<feOffset dx="-1.6" dy="1.6"/>
<feGaussianBlur stdDeviation="3.2"/>
<feComposite in2="hardAlpha" operator="out"/>
<feColorMatrix type="matrix" values="0 0 0 0 0 0 0 0 0 0 0 0 0 0 0 0 0 0 0.13 0"/>
<feBlend mode="normal" in2="BackgroundImageFix" result="effect1_dropShadow_28841_55839"/>
<feBlend mode="normal" in="SourceGraphic" in2="effect1_dropShadow_28841_55839" result="shape"/>
</filter>
<filter id="filter6_d_28841_55839" x="20.3996" y="78.8006" width="70.4" height="76.8004" filterUnits="userSpaceOnUse" color-interpolation-filters="sRGB">
<feFlood flood-opacity="0" result="BackgroundImageFix"/>
<feColorMatrix in="SourceAlpha" type="matrix" values="0 0 0 0 0 0 0 0 0 0 0 0 0 0 0 0 0 0 127 0" result="hardAlpha"/>
<feOffset dy="6.4"/>
<feGaussianBlur stdDeviation="9.6"/>
<feComposite in2="hardAlpha" operator="out"/>
<feColorMatrix type="matrix" values="0 0 0 0 0 0 0 0 0 0 0 0 0 0 0 0 0 0 0.08 0"/>
<feBlend mode="normal" in2="BackgroundImageFix" result="effect1_dropShadow_28841_55839"/>
<feBlend mode="normal" in="SourceGraphic" in2="effect1_dropShadow_28841_55839" result="shape"/>
</filter>
<linearGradient id="paint0_linear_28841_55839" x1="72.7168" y1="16.9452" x2="129.043" y2="69.5559" gradientUnits="userSpaceOnUse">
<stop stop-color="#8585AD"/>
<stop offset="1" stop-color="#D1D1E0"/>
</linearGradient>
<linearGradient id="paint1_linear_28841_55839" x1="71.1917" y1="78.9065" x2="165.083" y2="166.604" gradientUnits="userSpaceOnUse">
<stop stop-color="#8585AD"/>
<stop offset="1" stop-color="#D1D1E0"/>
</linearGradient>
<linearGradient id="paint2_linear_28841_55839" x1="-21.2" y1="30" x2="47.8344" y2="47.6326" gradientUnits="userSpaceOnUse">
<stop stop-color="#8585AD"/>
<stop offset="1" stop-color="#D1D1E0"/>
</linearGradient>
<linearGradient id="paint3_linear_28841_55839" x1="10.7993" y1="59.5998" x2="52.5148" y2="73.3482" gradientUnits="userSpaceOnUse">
<stop stop-color="#8585AD"/>
<stop offset="1" stop-color="#D1D1E0"/>
</linearGradient>
<linearGradient id="paint4_linear_28841_55839" x1="-5.20039" y1="30.8006" x2="86.2652" y2="70.6871" gradientUnits="userSpaceOnUse">
<stop stop-color="#8585AD"/>
<stop offset="1" stop-color="#D1D1E0"/>
</linearGradient>
</defs>
</svg>
