<svg viewBox="0 0 200 200" fill="none" xmlns="http://www.w3.org/2000/svg">
<path fill-rule="evenodd" clip-rule="evenodd" d="M110.849 0.080797C130.729 -1.23531 147.3 13.7849 162.279 26.3333C176.05 37.8703 186.293 52.1343 192.592 68.5607C199.102 85.5378 201.889 103.344 198.638 121.155C194.969 141.26 188.674 161.733 173.044 175.654C156.313 190.557 133.405 203.024 110.849 199.351C88.8657 195.772 78.1412 172.685 62.3662 157.635C49.6002 145.455 36.6491 134.62 27.4587 119.79C15.7145 100.84 -6.71689 80.5416 1.94058 60.1328C10.7476 39.3716 44.0377 44.0184 64.3533 32.8164C81.4473 23.3909 91.1569 1.38454 110.849 0.080797Z" fill="#F9F9FB"/>
<path d="M153.63 76.0659L116 55L74.1008 69.033L54 108.593L82 134L108.185 142L148 114L153.63 76.0659Z" stroke="#C2C2D6" stroke-width="2"/>
<circle cx="153" cy="77" r="4" fill="#3D3D5C"/>
<circle cx="82" cy="134" r="4" fill="#3D3D5C"/>
<circle cx="74" cy="70" r="4" fill="#3D3D5C"/>
<g filter="url(#filter0_d_29645_37083)">
<path d="M93.9488 32.1033C93.9488 29.8371 95.7732 28 98.0236 28C98.0236 28 98.0236 28 98.0236 28C98.0236 28 108.329 28 110.986 28C113.644 28 115.12 32.1033 118.339 32.1033C121.456 32.1033 130.448 32.2149 131.008 32.2219C131.026 32.2222 131.045 32.2222 131.063 32.2224C133.301 32.2373 135.11 34.0687 135.11 36.3256L133.811 48.9329C133.811 51.1991 131.987 53.0363 129.736 53.0363H99.0866C96.8362 53.0363 95.0118 51.1991 95.0118 48.9329L93.9488 32.1033Z" fill="url(#paint0_linear_29645_37083)"/>
<path d="M92 46.7917C92 44.1453 93.6537 42.8073 97.2266 42.8073C100.268 42.8073 105.76 42.8073 111.222 42.8073C114.648 42.8073 115.858 38.3471 118.545 38.3471H133.22C135.308 38.3471 137 40.0511 137 42.1531L134.667 62.194C134.402 64.4538 132.975 66 130.888 66H97.758C95.6707 66 94.2738 64.3051 93.9785 62.194L92 46.7917Z" fill="#C2C2D6"/>
<path d="M95.0711 48.9329H95.0712L95.071 48.9292L94.7074 43.1724C95.4013 42.9693 96.2386 42.8665 97.2266 42.8665H97.2444H97.2623H97.2803H97.2983H97.3164H97.3345H97.3527H97.3709H97.3892H97.4075H97.4259H97.4444H97.4629H97.4815H97.5001H97.5188H97.5375H97.5563H97.5751H97.594H97.613H97.632H97.651H97.6701H97.6893H97.7085H97.7278H97.7471H97.7665H97.7859H97.8054H97.8249H97.8445H97.8641H97.8838H97.9036H97.9234H97.9432H97.9631H97.9831H98.0031H98.0231H98.0432H98.0634H98.0836H98.1038H98.1241H98.1445H98.1649H98.1854H98.2059H98.2264H98.2471H98.2677H98.2884H98.3092H98.33H98.3509H98.3718H98.3927H98.4138H98.4348H98.4559H98.4771H98.4983H98.5196H98.5409H98.5622H98.5836H98.6051H98.6266H98.6481H98.6697H98.6914H98.713H98.7348H98.7566H98.7784H98.8003H98.8222H98.8442H98.8662H98.8883H98.9104H98.9326H98.9548H98.977H98.9993H99.0217H99.0441H99.0665H99.089H99.1116H99.1341H99.1568H99.1794H99.2022H99.2249H99.2477H99.2706H99.2935H99.3164H99.3394H99.3624H99.3855H99.4086H99.4318H99.455H99.4783H99.5016H99.5249H99.5483H99.5717H99.5952H99.6187H99.6423H99.6659H99.6895H99.7132H99.7369H99.7607H99.7845H99.8084H99.8323H99.8562H99.8802H99.9042H99.9283H99.9524H99.9766H100.001H100.025H100.049H100.074H100.098H100.122H100.147H100.171H100.196H100.22H100.245H100.27H100.294H100.319H100.344H100.369H100.394H100.418H100.443H100.468H100.493H100.518H100.543H100.569H100.594H100.619H100.644H100.669H100.695H100.72H100.746H100.771H100.796H100.822H100.847H100.873H100.899H100.924H100.95H100.976H101.002H101.027H101.053H101.079H101.105H101.131H101.157H101.183H101.209H101.235H101.261H101.287H101.314H101.34H101.366H101.393H101.419H101.445H101.472H101.498H101.525H101.551H101.578H101.604H101.631H101.658H101.684H101.711H101.738H101.765H101.791H101.818H101.845H101.872H101.899H101.926H101.953H101.98H102.007H102.035H102.062H102.089H102.116H102.143H102.171H102.198H102.225H102.253H102.28H102.308H102.335H102.363H102.39H102.418H102.445H102.473H102.501H102.529H102.556H102.584H102.612H102.64H102.668H102.695H102.723H102.751H102.779H102.807H102.835H102.863H102.892H102.92H102.948H102.976H103.004H103.033H103.061H103.089H103.117H103.146H103.174H103.203H103.231H103.26H103.288H103.317H103.345H103.374H103.402H103.431H103.46H103.488H103.517H103.546H103.575H103.603H103.632H103.661H103.69H103.719H103.748H103.777H103.806H103.835H103.864H103.893H103.922H103.951H103.98H104.009H104.039H104.068H104.097H104.126H104.156H104.185H104.214H104.244H104.273H104.302H104.332H104.361H104.391H104.42H104.45H104.479H104.509H104.539H104.568H104.598H104.628H104.657H104.687H104.717H104.746H104.776H104.806H104.836H104.866H104.896H104.925H104.955H104.985H105.015H105.045H105.075H105.105H105.135H105.165H105.195H105.226H105.256H105.286H105.316H105.346H105.376H105.407H105.437H105.467H105.497H105.528H105.558H105.588H105.619H105.649H105.68H105.71H105.74H105.771H105.801H105.832H105.862H105.893H105.923H105.954H105.985H106.015H106.046H106.076H106.107H106.138H106.168H106.199H106.23H106.261H106.291H106.322H106.353H106.384H106.415H106.445H106.476H106.507H106.538H106.569H106.6H106.631H106.662H106.693H106.724H106.755H106.786H106.817H106.848H106.879H106.91H106.941H106.972H107.003H107.034H107.065H107.096H107.128H107.159H107.19H107.221H107.252H107.284H107.315H107.346H107.377H107.409H107.44H107.471H107.503H107.534H107.565H107.597H107.628H107.659H107.691H107.722H107.754H107.785H107.817H107.848H107.879H107.911H107.942H107.974H108.005H108.037H108.068H108.1H108.131H108.163H108.195H108.226H108.258H108.289H108.321H108.353H108.384H108.416H108.447H108.479H108.511H108.542H108.574H108.606H108.638H108.669H108.701H108.733H108.764H108.796H108.828H108.86H108.891H108.923H108.955H108.987H109.018H109.05H109.082H109.114H109.146H109.177H109.209H109.241H109.273H109.305H109.337H109.369H109.4H109.432H109.464H109.496H109.528H109.56H109.592H109.624H109.655H109.687H109.719H109.751H109.783H109.815H109.847H109.879H109.911H109.943H109.975H110.007H110.039H110.071H110.103H110.135H110.167H110.198H110.23H110.262H110.294H110.326H110.358H110.39H110.422H110.454H110.486H110.518H110.55H110.582H110.614H110.646H110.678H110.71H110.742H110.774H110.806H110.838H110.87H110.902H110.934H110.966H110.998H111.03H111.062H111.094H111.126H111.158H111.19H111.222C112.963 42.8665 114.138 41.7317 115.204 40.6182C115.268 40.5504 115.333 40.4828 115.397 40.4154C115.862 39.9269 116.31 39.4555 116.785 39.091C117.324 38.6774 117.891 38.4064 118.545 38.4064H133.22C133.785 38.4064 134.32 38.5331 134.8 38.7598L133.752 48.9269L133.752 48.9268V48.9329C133.752 51.1668 131.954 52.977 129.736 52.977H99.0866C96.8693 52.977 95.0711 51.1668 95.0711 48.9329ZM97.2266 42.748C96.2444 42.748 95.4034 42.8487 94.6997 43.0511L94.0081 32.1015C94.0091 29.8685 95.8069 28.0593 98.0236 28.0593V28C98.0236 28.0593 98.0237 28.0593 98.0238 28.0593H98.0241H98.0247H98.0255H98.0266H98.0279H98.0294H98.0311H98.0331H98.0353H98.0377H98.0404H98.0433H98.0464H98.0497H98.0533H98.0571H98.0611H98.0653H98.0697H98.0744H98.0793H98.0844H98.0897H98.0953H98.101H98.107H98.1132H98.1196H98.1262H98.133H98.14H98.1473H98.1547H98.1624H98.1702H98.1783H98.1866H98.1951H98.2038H98.2127H98.2218H98.2311H98.2406H98.2503H98.2602H98.2703H98.2806H98.2911H98.3018H98.3126H98.3237H98.335H98.3465H98.3581H98.37H98.382H98.3943H98.4067H98.4193H98.4321H98.4451H98.4583H98.4716H98.4852H98.4989H98.5128H98.5269H98.5412H98.5556H98.5703H98.5851H98.6001H98.6152H98.6306H98.6461H98.6618H98.6777H98.6937H98.7099H98.7263H98.7429H98.7596H98.7765H98.7936H98.8108H98.8282H98.8458H98.8635H98.8814H98.8995H98.9177H98.9361H98.9546H98.9733H98.9922H99.0112H99.0304H99.0497H99.0692H99.0889H99.1087H99.1286H99.1487H99.169H99.1894H99.21H99.2307H99.2516H99.2726H99.2938H99.3151H99.3365H99.3581H99.3799H99.4018H99.4238H99.446H99.4683H99.4907H99.5133H99.5361H99.5589H99.582H99.6051H99.6284H99.6518H99.6753H99.699H99.7228H99.7468H99.7709H99.7951H99.8194H99.8439H99.8685H99.8932H99.918H99.943H99.9681H99.9933H100.019H100.044H100.07H100.095H100.121H100.147H100.173H100.199H100.226H100.252H100.279H100.305H100.332H100.359H100.386H100.413H100.44H100.467H100.495H100.522H100.55H100.578H100.606H100.634H100.662H100.69H100.718H100.746H100.775H100.803H100.832H100.861H100.89H100.918H100.948H100.977H101.006H101.035H101.065H101.094H101.124H101.153H101.183H101.213H101.243H101.273H101.303H101.333H101.364H101.394H101.424H101.455H101.486H101.516H101.547H101.578H101.609H101.64H101.671H101.702H101.733H101.765H101.796H101.827H101.859H101.891H101.922H101.954H101.986H102.018H102.05H102.082H102.114H102.146H102.178H102.21H102.243H102.275H102.307H102.34H102.372H102.405H102.438H102.47H102.503H102.536H102.569H102.602H102.635H102.668H102.701H102.734H102.767H102.801H102.834H102.867H102.901H102.934H102.967H103.001H103.035H103.068H103.102H103.135H103.169H103.203H103.237H103.271H103.304H103.338H103.372H103.406H103.44H103.474H103.508H103.542H103.577H103.611H103.645H103.679H103.713H103.748H103.782H103.816H103.851H103.885H103.919H103.954H103.988H104.023H104.057H104.092H104.126H104.161H104.195H104.23H104.264H104.299H104.333H104.368H104.402H104.437H104.472H104.506H104.541H104.576H104.61H104.645H104.68H104.714H104.749H104.784H104.818H104.853H104.888H104.922H104.957H104.991H105.026H105.061H105.095H105.13H105.165H105.199H105.234H105.268H105.303H105.338H105.372H105.407H105.441H105.476H105.51H105.545H105.579H105.614H105.648H105.683H105.717H105.751H105.786H105.82H105.854H105.889H105.923H105.957H105.991H106.025H106.06H106.094H106.128H106.162H106.196H106.23H106.264H106.298H106.332H106.366H106.399H106.433H106.467H106.501H106.534H106.568H106.602H106.635H106.669H106.702H106.736H106.769H106.802H106.835H106.869H106.902H106.935H106.968H107.001H107.034H107.067H107.1H107.133H107.166H107.198H107.231H107.264H107.296H107.329H107.361H107.393H107.426H107.458H107.49H107.522H107.554H107.586H107.618H107.65H107.682H107.714H107.745H107.777H107.808H107.84H107.871H107.902H107.934H107.965H107.996H108.027H108.058H108.089H108.119H108.15H108.181H108.211H108.242H108.272H108.302H108.332H108.362H108.392H108.422H108.452H108.482H108.512H108.541H108.571H108.6H108.629H108.659H108.688H108.717H108.746H108.774H108.803H108.832H108.86H108.889H108.917H108.945H108.973H109.001H109.029H109.057H109.085H109.113H109.14H109.167H109.195H109.222H109.249H109.276H109.303H109.329H109.356H109.383H109.409H109.435H109.461H109.487H109.513H109.539H109.565H109.59H109.616H109.641H109.666H109.691H109.716H109.741H109.766H109.79H109.815H109.839H109.863H109.887H109.911H109.935H109.959H109.982H110.006H110.029H110.052H110.075H110.098H110.121H110.143H110.165H110.188H110.21H110.232H110.254H110.276H110.297H110.318H110.34H110.361H110.382H110.403H110.423H110.444H110.464H110.485H110.505H110.525H110.544H110.564H110.583H110.603H110.622H110.641H110.66H110.678H110.697H110.715H110.733H110.751H110.769H110.787H110.805H110.822H110.839H110.856H110.873H110.89H110.906H110.923H110.939H110.955H110.971H110.986C111.634 28.0593 112.213 28.3092 112.77 28.6901C113.275 29.0353 113.757 29.4848 114.254 29.9482C114.306 29.9971 114.359 30.046 114.412 30.0951C115.513 31.119 116.703 32.1626 118.339 32.1626C121.456 32.1626 130.447 32.2742 131.007 32.2812L131.063 32.2816C133.266 32.2963 135.049 34.0992 135.051 36.3225L134.813 38.6349C134.328 38.412 133.789 38.2878 133.22 38.2878H118.545C117.856 38.2878 117.264 38.5744 116.713 38.997C116.23 39.3675 115.775 39.8463 115.311 40.334C115.247 40.4013 115.182 40.4688 115.118 40.5362C114.05 41.6528 112.907 42.748 111.222 42.748H111.19H111.158H111.126H111.094H111.062H111.03H110.998H110.966H110.934H110.902H110.87H110.838H110.806H110.774H110.742H110.71H110.678H110.646H110.614H110.582H110.55H110.518H110.486H110.454H110.422H110.39H110.358H110.326H110.294H110.262H110.23H110.198H110.167H110.135H110.103H110.071H110.039H110.007H109.975H109.943H109.911H109.879H109.847H109.815H109.783H109.751H109.719H109.687H109.655H109.624H109.592H109.56H109.528H109.496H109.464H109.432H109.4H109.369H109.337H109.305H109.273H109.241H109.209H109.177H109.146H109.114H109.082H109.05H109.018H108.987H108.955H108.923H108.891H108.86H108.828H108.796H108.764H108.733H108.701H108.669H108.638H108.606H108.574H108.542H108.511H108.479H108.447H108.416H108.384H108.353H108.321H108.289H108.258H108.226H108.195H108.163H108.131H108.1H108.068H108.037H108.005H107.974H107.942H107.911H107.879H107.848H107.817H107.785H107.754H107.722H107.691H107.659H107.628H107.597H107.565H107.534H107.503H107.471H107.44H107.409H107.377H107.346H107.315H107.284H107.252H107.221H107.19H107.159H107.128H107.096H107.065H107.034H107.003H106.972H106.941H106.91H106.879H106.848H106.817H106.786H106.755H106.724H106.693H106.662H106.631H106.6H106.569H106.538H106.507H106.476H106.445H106.415H106.384H106.353H106.322H106.291H106.261H106.23H106.199H106.168H106.138H106.107H106.076H106.046H106.015H105.985H105.954H105.923H105.893H105.862H105.832H105.801H105.771H105.74H105.71H105.68H105.649H105.619H105.588H105.558H105.528H105.497H105.467H105.437H105.407H105.376H105.346H105.316H105.286H105.256H105.226H105.195H105.165H105.135H105.105H105.075H105.045H105.015H104.985H104.955H104.925H104.896H104.866H104.836H104.806H104.776H104.746H104.717H104.687H104.657H104.628H104.598H104.568H104.539H104.509H104.479H104.45H104.42H104.391H104.361H104.332H104.302H104.273H104.244H104.214H104.185H104.156H104.126H104.097H104.068H104.039H104.009H103.98H103.951H103.922H103.893H103.864H103.835H103.806H103.777H103.748H103.719H103.69H103.661H103.632H103.603H103.575H103.546H103.517H103.488H103.46H103.431H103.402H103.374H103.345H103.317H103.288H103.26H103.231H103.203H103.174H103.146H103.117H103.089H103.061H103.033H103.004H102.976H102.948H102.92H102.892H102.863H102.835H102.807H102.779H102.751H102.723H102.695H102.668H102.64H102.612H102.584H102.556H102.529H102.501H102.473H102.445H102.418H102.39H102.363H102.335H102.308H102.28H102.253H102.225H102.198H102.171H102.143H102.116H102.089H102.062H102.035H102.007H101.98H101.953H101.926H101.899H101.872H101.845H101.818H101.791H101.765H101.738H101.711H101.684H101.658H101.631H101.604H101.578H101.551H101.525H101.498H101.472H101.445H101.419H101.393H101.366H101.34H101.314H101.287H101.261H101.235H101.209H101.183H101.157H101.131H101.105H101.079H101.053H101.027H101.002H100.976H100.95H100.924H100.899H100.873H100.847H100.822H100.796H100.771H100.746H100.72H100.695H100.669H100.644H100.619H100.594H100.569H100.543H100.518H100.493H100.468H100.443H100.418H100.394H100.369H100.344H100.319H100.294H100.27H100.245H100.22H100.196H100.171H100.147H100.122H100.098H100.074H100.049H100.025H100.001H99.9766H99.9524H99.9283H99.9042H99.8802H99.8562H99.8323H99.8084H99.7845H99.7607H99.7369H99.7132H99.6895H99.6659H99.6423H99.6187H99.5952H99.5717H99.5483H99.5249H99.5016H99.4783H99.455H99.4318H99.4086H99.3855H99.3624H99.3394H99.3164H99.2935H99.2706H99.2477H99.2249H99.2022H99.1794H99.1568H99.1341H99.1116H99.089H99.0665H99.0441H99.0217H98.9993H98.977H98.9548H98.9326H98.9104H98.8883H98.8662H98.8442H98.8222H98.8003H98.7784H98.7566H98.7348H98.713H98.6914H98.6697H98.6481H98.6266H98.6051H98.5836H98.5622H98.5409H98.5196H98.4983H98.4771H98.4559H98.4348H98.4138H98.3927H98.3718H98.3509H98.33H98.3092H98.2884H98.2677H98.2471H98.2264H98.2059H98.1854H98.1649H98.1445H98.1241H98.1038H98.0836H98.0634H98.0432H98.0231H98.0031H97.9831H97.9631H97.9432H97.9234H97.9036H97.8838H97.8641H97.8445H97.8249H97.8054H97.7859H97.7665H97.7471H97.7278H97.7085H97.6893H97.6701H97.651H97.632H97.613H97.594H97.5751H97.5563H97.5375H97.5188H97.5001H97.4815H97.4629H97.4444H97.4259H97.4075H97.3892H97.3709H97.3527H97.3345H97.3164H97.2983H97.2803H97.2623H97.2444H97.2266ZM134.913 38.8158C136.116 39.4358 136.939 40.6956 136.941 42.1497L134.609 62.1871C134.477 63.3066 134.058 64.2451 133.418 64.9031C132.779 65.5604 131.916 65.9407 130.888 65.9407H97.758C95.7102 65.9407 94.3301 64.2788 94.0373 62.1861C94.0373 62.186 94.0372 62.1859 94.0372 62.1858L92.0593 46.7879C92.0601 45.4798 92.4687 44.5046 93.3097 43.854C93.6594 43.5835 94.0854 43.3678 94.5908 43.2078L94.9526 48.9348C94.9536 51.2325 96.8037 53.0955 99.0866 53.0955H129.736C132.019 53.0955 133.869 51.2331 133.87 48.936L134.913 38.8158Z" stroke="#C2C2D6" stroke-width="0.118551"/>
</g>
<g filter="url(#filter1_d_29645_37083)">
<path d="M103.684 101.283C103.684 97.1 107.075 93.709 111.259 93.709C111.259 93.709 111.259 93.709 111.259 93.709C111.259 93.709 130.413 93.709 135.353 93.709C140.293 93.709 143.037 101.283 149.019 101.283C154.814 101.283 171.528 101.489 172.569 101.502C172.603 101.502 172.637 101.503 172.671 101.503C176.83 101.53 180.194 104.911 180.194 109.077L177.779 132.348C177.779 136.531 174.388 139.922 170.205 139.922H113.234C109.051 139.922 105.66 136.531 105.66 132.348L103.684 101.283Z" fill="url(#paint1_linear_29645_37083)"/>
<path d="M100.062 128.395C100.062 123.511 103.136 121.041 109.777 121.041C115.43 121.041 125.639 121.041 135.792 121.041C142.159 121.041 144.409 112.808 149.403 112.808H176.681C180.561 112.808 183.706 115.953 183.706 119.833L179.371 156.826C178.877 160.997 176.225 163.851 172.346 163.851H110.765C106.885 163.851 104.288 160.722 103.74 156.826L100.062 128.395Z" fill="#C2C2D6"/>
<path d="M105.72 132.348H105.72L105.719 132.344L105.041 121.678C106.345 121.294 107.919 121.1 109.777 121.1H109.81H109.843H109.877H109.91H109.944H109.978H110.011H110.045H110.079H110.113H110.148H110.182H110.216H110.251H110.285H110.32H110.355H110.39H110.425H110.46H110.495H110.531H110.566H110.601H110.637H110.673H110.709H110.745H110.781H110.817H110.853H110.889H110.926H110.962H110.999H111.035H111.072H111.109H111.146H111.183H111.22H111.258H111.295H111.332H111.37H111.408H111.445H111.483H111.521H111.559H111.597H111.636H111.674H111.712H111.751H111.789H111.828H111.867H111.906H111.945H111.984H112.023H112.062H112.101H112.141H112.18H112.22H112.26H112.299H112.339H112.379H112.419H112.459H112.5H112.54H112.58H112.621H112.661H112.702H112.743H112.784H112.825H112.866H112.907H112.948H112.989H113.031H113.072H113.114H113.155H113.197H113.239H113.281H113.323H113.365H113.407H113.449H113.491H113.534H113.576H113.619H113.661H113.704H113.747H113.79H113.833H113.876H113.919H113.962H114.006H114.049H114.092H114.136H114.18H114.223H114.267H114.311H114.355H114.399H114.443H114.487H114.532H114.576H114.62H114.665H114.709H114.754H114.799H114.844H114.889H114.934H114.979H115.024H115.069H115.114H115.16H115.205H115.251H115.296H115.342H115.388H115.433H115.479H115.525H115.571H115.617H115.664H115.71H115.756H115.803H115.849H115.896H115.942H115.989H116.036H116.083H116.129H116.176H116.223H116.271H116.318H116.365H116.412H116.46H116.507H116.555H116.603H116.65H116.698H116.746H116.794H116.842H116.89H116.938H116.986H117.034H117.083H117.131H117.179H117.228H117.277H117.325H117.374H117.423H117.472H117.52H117.569H117.619H117.668H117.717H117.766H117.815H117.865H117.914H117.964H118.013H118.063H118.113H118.162H118.212H118.262H118.312H118.362H118.412H118.462H118.512H118.563H118.613H118.663H118.714H118.764H118.815H118.866H118.916H118.967H119.018H119.069H119.12H119.171H119.222H119.273H119.324H119.375H119.426H119.478H119.529H119.581H119.632H119.684H119.735H119.787H119.839H119.89H119.942H119.994H120.046H120.098H120.15H120.202H120.255H120.307H120.359H120.411H120.464H120.516H120.569H120.621H120.674H120.727H120.779H120.832H120.885H120.938H120.991H121.044H121.097H121.15H121.203H121.256H121.31H121.363H121.416H121.47H121.523H121.576H121.63H121.684H121.737H121.791H121.845H121.898H121.952H122.006H122.06H122.114H122.168H122.222H122.276H122.33H122.385H122.439H122.493H122.548H122.602H122.656H122.711H122.766H122.82H122.875H122.929H122.984H123.039H123.094H123.149H123.203H123.258H123.313H123.368H123.423H123.479H123.534H123.589H123.644H123.699H123.755H123.81H123.865H123.921H123.976H124.032H124.087H124.143H124.199H124.254H124.31H124.366H124.422H124.478H124.533H124.589H124.645H124.701H124.757H124.813H124.869H124.926H124.982H125.038H125.094H125.151H125.207H125.263H125.32H125.376H125.433H125.489H125.546H125.602H125.659H125.715H125.772H125.829H125.886H125.942H125.999H126.056H126.113H126.17H126.227H126.284H126.341H126.398H126.455H126.512H126.569H126.626H126.683H126.741H126.798H126.855H126.913H126.97H127.027H127.085H127.142H127.2H127.257H127.315H127.372H127.43H127.487H127.545H127.603H127.66H127.718H127.776H127.834H127.891H127.949H128.007H128.065H128.123H128.181H128.239H128.297H128.355H128.413H128.471H128.529H128.587H128.645H128.703H128.761H128.82H128.878H128.936H128.994H129.053H129.111H129.169H129.228H129.286H129.344H129.403H129.461H129.52H129.578H129.637H129.695H129.754H129.812H129.871H129.929H129.988H130.047H130.105H130.164H130.223H130.281H130.34H130.399H130.458H130.516H130.575H130.634H130.693H130.752H130.811H130.869H130.928H130.987H131.046H131.105H131.164H131.223H131.282H131.341H131.4H131.459H131.518H131.577H131.636H131.695H131.754H131.813H131.873H131.932H131.991H132.05H132.109H132.168H132.228H132.287H132.346H132.405H132.464H132.524H132.583H132.642H132.701H132.761H132.82H132.879H132.939H132.998H133.057H133.117H133.176H133.235H133.295H133.354H133.413H133.473H133.532H133.592H133.651H133.71H133.77H133.829H133.889H133.948H134.008H134.067H134.126H134.186H134.245H134.305H134.364H134.424H134.483H134.543H134.602H134.662H134.721H134.781H134.84H134.9H134.959H135.019H135.078H135.138H135.197H135.257H135.316H135.376H135.435H135.494H135.554H135.613H135.673H135.732H135.792C139.003 121.1 141.174 119.022 143.155 116.966C143.275 116.841 143.395 116.716 143.514 116.592C144.378 115.69 145.215 114.817 146.101 114.142C147.108 113.374 148.172 112.867 149.403 112.867H176.681C177.751 112.867 178.765 113.109 179.671 113.54L177.72 132.342L177.72 132.342V132.348C177.72 136.498 174.355 139.863 170.205 139.863H113.234C109.084 139.863 105.72 136.498 105.72 132.348ZM109.777 120.982C107.925 120.982 106.347 121.173 105.033 121.557L103.744 101.281C103.745 97.1317 107.109 93.7683 111.259 93.7683V93.709C111.259 93.7683 111.259 93.7683 111.259 93.7683H111.259H111.261H111.262H111.264H111.266H111.269H111.272H111.276H111.28H111.285H111.29H111.295H111.301H111.307H111.314H111.321H111.328H111.336H111.344H111.353H111.362H111.371H111.381H111.392H111.402H111.413H111.425H111.437H111.449H111.462H111.475H111.488H111.502H111.516H111.531H111.546H111.561H111.577H111.593H111.61H111.627H111.644H111.662H111.68H111.698H111.717H111.736H111.756H111.775H111.796H111.816H111.837H111.859H111.88H111.902H111.925H111.947H111.971H111.994H112.018H112.042H112.066H112.091H112.116H112.142H112.168H112.194H112.221H112.247H112.275H112.302H112.33H112.358H112.387H112.416H112.445H112.474H112.504H112.534H112.565H112.595H112.627H112.658H112.69H112.722H112.754H112.787H112.82H112.853H112.886H112.92H112.954H112.989H113.024H113.059H113.094H113.13H113.166H113.202H113.239H113.275H113.312H113.35H113.388H113.425H113.464H113.502H113.541H113.58H113.619H113.659H113.699H113.739H113.779H113.82H113.861H113.902H113.944H113.986H114.028H114.07H114.112H114.155H114.198H114.241H114.285H114.329H114.373H114.417H114.461H114.506H114.551H114.596H114.642H114.688H114.734H114.78H114.826H114.873H114.92H114.967H115.014H115.062H115.109H115.157H115.206H115.254H115.303H115.352H115.401H115.45H115.5H115.549H115.599H115.649H115.7H115.75H115.801H115.852H115.903H115.954H116.006H116.058H116.11H116.162H116.214H116.267H116.319H116.372H116.425H116.479H116.532H116.586H116.639H116.693H116.747H116.802H116.856H116.911H116.966H117.021H117.076H117.131H117.187H117.242H117.298H117.354H117.41H117.467H117.523H117.58H117.636H117.693H117.75H117.808H117.865H117.922H117.98H118.038H118.096H118.154H118.212H118.27H118.329H118.387H118.446H118.505H118.564H118.623H118.682H118.742H118.801H118.861H118.921H118.98H119.04H119.1H119.161H119.221H119.281H119.342H119.402H119.463H119.524H119.585H119.646H119.707H119.768H119.83H119.891H119.953H120.014H120.076H120.138H120.2H120.262H120.324H120.386H120.448H120.51H120.573H120.635H120.698H120.76H120.823H120.886H120.948H121.011H121.074H121.137H121.2H121.264H121.327H121.39H121.453H121.517H121.58H121.644H121.707H121.771H121.834H121.898H121.962H122.026H122.089H122.153H122.217H122.281H122.345H122.409H122.473H122.537H122.601H122.666H122.73H122.794H122.858H122.922H122.987H123.051H123.115H123.18H123.244H123.308H123.373H123.437H123.501H123.566H123.63H123.695H123.759H123.824H123.888H123.952H124.017H124.081H124.146H124.21H124.274H124.339H124.403H124.468H124.532H124.596H124.661H124.725H124.789H124.853H124.918H124.982H125.046H125.11H125.174H125.239H125.303H125.367H125.431H125.495H125.559H125.622H125.686H125.75H125.814H125.878H125.941H126.005H126.069H126.132H126.196H126.259H126.322H126.386H126.449H126.512H126.575H126.638H126.701H126.764H126.827H126.89H126.953H127.015H127.078H127.14H127.203H127.265H127.328H127.39H127.452H127.514H127.576H127.638H127.699H127.761H127.823H127.884H127.946H128.007H128.068H128.129H128.19H128.251H128.312H128.373H128.433H128.494H128.554H128.614H128.675H128.735H128.795H128.854H128.914H128.974H129.033H129.093H129.152H129.211H129.27H129.329H129.387H129.446H129.504H129.563H129.621H129.679H129.737H129.794H129.852H129.909H129.967H130.024H130.081H130.138H130.195H130.251H130.308H130.364H130.42H130.476H130.532H130.587H130.643H130.698H130.753H130.808H130.863H130.918H130.972H131.026H131.08H131.134H131.188H131.242H131.295H131.348H131.401H131.454H131.507H131.559H131.612H131.664H131.716H131.767H131.819H131.87H131.921H131.972H132.023H132.073H132.124H132.174H132.224H132.273H132.323H132.372H132.421H132.47H132.519H132.567H132.615H132.663H132.711H132.758H132.806H132.853H132.899H132.946H132.992H133.039H133.084H133.13H133.175H133.221H133.266H133.31H133.355H133.399H133.443H133.487H133.53H133.573H133.616H133.659H133.702H133.744H133.786H133.827H133.869H133.91H133.951H133.991H134.032H134.072H134.112H134.151H134.191H134.23H134.268H134.307H134.345H134.383H134.42H134.458H134.495H134.532H134.568H134.604H134.64H134.676H134.711H134.746H134.781H134.815H134.849H134.883H134.917H134.95H134.983H135.015H135.047H135.079H135.111H135.142H135.173H135.204H135.235H135.265H135.294H135.324H135.353C136.572 93.7683 137.658 94.2352 138.698 94.9415C139.639 95.5809 140.538 96.4134 141.461 97.2683C141.559 97.3585 141.657 97.449 141.755 97.5396C143.804 99.4313 146.002 101.342 149.019 101.342C154.814 101.342 171.527 101.548 172.568 101.561C172.602 101.562 172.637 101.562 172.671 101.562C176.796 101.589 180.133 104.942 180.135 109.074L179.684 113.415C178.772 112.988 177.755 112.749 176.681 112.749H149.403C148.137 112.749 147.048 113.271 146.029 114.047C145.135 114.729 144.291 115.609 143.428 116.51C143.309 116.634 143.19 116.759 143.07 116.883C141.085 118.943 138.947 120.982 135.792 120.982H135.732H135.673H135.613H135.554H135.494H135.435H135.376H135.316H135.257H135.197H135.138H135.078H135.019H134.959H134.9H134.84H134.781H134.721H134.662H134.602H134.543H134.483H134.424H134.364H134.305H134.245H134.186H134.126H134.067H134.008H133.948H133.889H133.829H133.77H133.71H133.651H133.592H133.532H133.473H133.413H133.354H133.295H133.235H133.176H133.117H133.057H132.998H132.939H132.879H132.82H132.761H132.701H132.642H132.583H132.524H132.464H132.405H132.346H132.287H132.228H132.168H132.109H132.05H131.991H131.932H131.873H131.813H131.754H131.695H131.636H131.577H131.518H131.459H131.4H131.341H131.282H131.223H131.164H131.105H131.046H130.987H130.928H130.869H130.811H130.752H130.693H130.634H130.575H130.516H130.458H130.399H130.34H130.281H130.223H130.164H130.105H130.047H129.988H129.929H129.871H129.812H129.754H129.695H129.637H129.578H129.52H129.461H129.403H129.344H129.286H129.228H129.169H129.111H129.053H128.994H128.936H128.878H128.82H128.761H128.703H128.645H128.587H128.529H128.471H128.413H128.355H128.297H128.239H128.181H128.123H128.065H128.007H127.949H127.891H127.834H127.776H127.718H127.66H127.603H127.545H127.487H127.43H127.372H127.315H127.257H127.2H127.142H127.085H127.027H126.97H126.913H126.855H126.798H126.741H126.683H126.626H126.569H126.512H126.455H126.398H126.341H126.284H126.227H126.17H126.113H126.056H125.999H125.942H125.886H125.829H125.772H125.715H125.659H125.602H125.546H125.489H125.433H125.376H125.32H125.263H125.207H125.151H125.094H125.038H124.982H124.926H124.869H124.813H124.757H124.701H124.645H124.589H124.533H124.478H124.422H124.366H124.31H124.254H124.199H124.143H124.087H124.032H123.976H123.921H123.865H123.81H123.755H123.699H123.644H123.589H123.534H123.479H123.423H123.368H123.313H123.258H123.203H123.149H123.094H123.039H122.984H122.929H122.875H122.82H122.766H122.711H122.656H122.602H122.548H122.493H122.439H122.385H122.33H122.276H122.222H122.168H122.114H122.06H122.006H121.952H121.898H121.845H121.791H121.737H121.684H121.63H121.576H121.523H121.47H121.416H121.363H121.31H121.256H121.203H121.15H121.097H121.044H120.991H120.938H120.885H120.832H120.779H120.727H120.674H120.621H120.569H120.516H120.464H120.411H120.359H120.307H120.255H120.202H120.15H120.098H120.046H119.994H119.942H119.89H119.839H119.787H119.735H119.684H119.632H119.581H119.529H119.478H119.426H119.375H119.324H119.273H119.222H119.171H119.12H119.069H119.018H118.967H118.916H118.866H118.815H118.764H118.714H118.663H118.613H118.563H118.512H118.462H118.412H118.362H118.312H118.262H118.212H118.162H118.113H118.063H118.013H117.964H117.914H117.865H117.815H117.766H117.717H117.668H117.619H117.569H117.52H117.472H117.423H117.374H117.325H117.277H117.228H117.179H117.131H117.083H117.034H116.986H116.938H116.89H116.842H116.794H116.746H116.698H116.65H116.603H116.555H116.507H116.46H116.412H116.365H116.318H116.271H116.223H116.176H116.129H116.083H116.036H115.989H115.942H115.896H115.849H115.803H115.756H115.71H115.664H115.617H115.571H115.525H115.479H115.433H115.388H115.342H115.296H115.251H115.205H115.16H115.114H115.069H115.024H114.979H114.934H114.889H114.844H114.799H114.754H114.709H114.665H114.62H114.576H114.532H114.487H114.443H114.399H114.355H114.311H114.267H114.223H114.18H114.136H114.092H114.049H114.006H113.962H113.919H113.876H113.833H113.79H113.747H113.704H113.661H113.619H113.576H113.534H113.491H113.449H113.407H113.365H113.323H113.281H113.239H113.197H113.155H113.114H113.072H113.031H112.989H112.948H112.907H112.866H112.825H112.784H112.743H112.702H112.661H112.621H112.58H112.54H112.5H112.459H112.419H112.379H112.339H112.299H112.26H112.22H112.18H112.141H112.101H112.062H112.023H111.984H111.945H111.906H111.867H111.828H111.789H111.751H111.712H111.674H111.636H111.597H111.559H111.521H111.483H111.445H111.408H111.37H111.332H111.295H111.258H111.22H111.183H111.146H111.109H111.072H111.035H110.999H110.962H110.926H110.889H110.853H110.817H110.781H110.745H110.709H110.673H110.637H110.601H110.566H110.531H110.495H110.46H110.425H110.39H110.355H110.32H110.285H110.251H110.216H110.182H110.148H110.113H110.079H110.045H110.011H109.978H109.944H109.91H109.877H109.843H109.81H109.777ZM179.784 113.595C182.073 114.736 183.646 117.099 183.647 119.83L179.312 156.819C179.312 156.819 179.312 156.819 179.312 156.819C179.066 158.894 178.284 160.637 177.086 161.861C175.887 163.084 174.27 163.792 172.346 163.792H110.765C106.924 163.792 104.345 160.696 103.798 156.817L100.121 128.392C100.122 125.964 100.886 124.147 102.465 122.933C103.135 122.419 103.953 122.012 104.924 121.713L105.601 132.35C105.602 136.565 109.019 139.981 113.234 139.981H170.205C174.42 139.981 177.836 136.565 177.838 132.351L179.784 113.595Z" stroke="#C2C2D6" stroke-width="0.118551"/>
</g>
<g filter="url(#filter2_d_29645_37083)">
<rect x="30" y="82" width="32" height="38.4" rx="4.8" fill="url(#paint2_linear_29645_37083)"/>
</g>
<g filter="url(#filter3_d_29645_37083)">
<g filter="url(#filter4_d_29645_37083)">
<rect x="34.7993" y="86.7998" width="32" height="38.4" rx="4.8" fill="url(#paint3_linear_29645_37083)"/>
</g>
</g>
<g filter="url(#filter5_d_29645_37083)">
<g filter="url(#filter6_d_29645_37083)">
<rect x="39.5996" y="91.6006" width="32" height="38.4" rx="4.8" fill="url(#paint4_linear_29645_37083)"/>
</g>
<path d="M44.2544 100.91H66.3635" stroke="#8585AD" stroke-width="1.6" stroke-linecap="round"/>
<path d="M44.2544 106.728H61.7089" stroke="#8585AD" stroke-width="1.6" stroke-linecap="round"/>
<path d="M44.2539 112.546H53.563" stroke="#8585AD" stroke-width="1.6" stroke-linecap="round"/>
</g>
<defs>
<filter id="filter0_d_29645_37083" x="80" y="20" width="69" height="62" filterUnits="userSpaceOnUse" color-interpolation-filters="sRGB">
<feFlood flood-opacity="0" result="BackgroundImageFix"/>
<feColorMatrix in="SourceAlpha" type="matrix" values="0 0 0 0 0 0 0 0 0 0 0 0 0 0 0 0 0 0 127 0" result="hardAlpha"/>
<feOffset dy="4"/>
<feGaussianBlur stdDeviation="6"/>
<feComposite in2="hardAlpha" operator="out"/>
<feColorMatrix type="matrix" values="0 0 0 0 0 0 0 0 0 0 0 0 0 0 0 0 0 0 0.08 0"/>
<feBlend mode="normal" in2="BackgroundImageFix" result="effect1_dropShadow_29645_37083"/>
<feBlend mode="normal" in="SourceGraphic" in2="effect1_dropShadow_29645_37083" result="shape"/>
</filter>
<filter id="filter1_d_29645_37083" x="88.062" y="85.709" width="107.645" height="94.1416" filterUnits="userSpaceOnUse" color-interpolation-filters="sRGB">
<feFlood flood-opacity="0" result="BackgroundImageFix"/>
<feColorMatrix in="SourceAlpha" type="matrix" values="0 0 0 0 0 0 0 0 0 0 0 0 0 0 0 0 0 0 127 0" result="hardAlpha"/>
<feOffset dy="4"/>
<feGaussianBlur stdDeviation="6"/>
<feComposite in2="hardAlpha" operator="out"/>
<feColorMatrix type="matrix" values="0 0 0 0 0 0 0 0 0 0 0 0 0 0 0 0 0 0 0.08 0"/>
<feBlend mode="normal" in2="BackgroundImageFix" result="effect1_dropShadow_29645_37083"/>
<feBlend mode="normal" in="SourceGraphic" in2="effect1_dropShadow_29645_37083" result="shape"/>
</filter>
<filter id="filter2_d_29645_37083" x="10.8" y="69.2" width="70.4" height="76.8004" filterUnits="userSpaceOnUse" color-interpolation-filters="sRGB">
<feFlood flood-opacity="0" result="BackgroundImageFix"/>
<feColorMatrix in="SourceAlpha" type="matrix" values="0 0 0 0 0 0 0 0 0 0 0 0 0 0 0 0 0 0 127 0" result="hardAlpha"/>
<feOffset dy="6.4"/>
<feGaussianBlur stdDeviation="9.6"/>
<feComposite in2="hardAlpha" operator="out"/>
<feColorMatrix type="matrix" values="0 0 0 0 0 0 0 0 0 0 0 0 0 0 0 0 0 0 0.08 0"/>
<feBlend mode="normal" in2="BackgroundImageFix" result="effect1_dropShadow_29645_37083"/>
<feBlend mode="normal" in="SourceGraphic" in2="effect1_dropShadow_29645_37083" result="shape"/>
</filter>
<filter id="filter3_d_29645_37083" x="26.7993" y="81.9998" width="44.8" height="51.2004" filterUnits="userSpaceOnUse" color-interpolation-filters="sRGB">
<feFlood flood-opacity="0" result="BackgroundImageFix"/>
<feColorMatrix in="SourceAlpha" type="matrix" values="0 0 0 0 0 0 0 0 0 0 0 0 0 0 0 0 0 0 127 0" result="hardAlpha"/>
<feOffset dx="-1.6" dy="1.6"/>
<feGaussianBlur stdDeviation="3.2"/>
<feComposite in2="hardAlpha" operator="out"/>
<feColorMatrix type="matrix" values="0 0 0 0 0 0 0 0 0 0 0 0 0 0 0 0 0 0 0.13 0"/>
<feBlend mode="normal" in2="BackgroundImageFix" result="effect1_dropShadow_29645_37083"/>
<feBlend mode="normal" in="SourceGraphic" in2="effect1_dropShadow_29645_37083" result="shape"/>
</filter>
<filter id="filter4_d_29645_37083" x="15.5993" y="73.9998" width="70.4" height="76.8004" filterUnits="userSpaceOnUse" color-interpolation-filters="sRGB">
<feFlood flood-opacity="0" result="BackgroundImageFix"/>
<feColorMatrix in="SourceAlpha" type="matrix" values="0 0 0 0 0 0 0 0 0 0 0 0 0 0 0 0 0 0 127 0" result="hardAlpha"/>
<feOffset dy="6.4"/>
<feGaussianBlur stdDeviation="9.6"/>
<feComposite in2="hardAlpha" operator="out"/>
<feColorMatrix type="matrix" values="0 0 0 0 0 0 0 0 0 0 0 0 0 0 0 0 0 0 0.08 0"/>
<feBlend mode="normal" in2="BackgroundImageFix" result="effect1_dropShadow_29645_37083"/>
<feBlend mode="normal" in="SourceGraphic" in2="effect1_dropShadow_29645_37083" result="shape"/>
</filter>
<filter id="filter5_d_29645_37083" x="31.5996" y="86.8006" width="44.8" height="51.2004" filterUnits="userSpaceOnUse" color-interpolation-filters="sRGB">
<feFlood flood-opacity="0" result="BackgroundImageFix"/>
<feColorMatrix in="SourceAlpha" type="matrix" values="0 0 0 0 0 0 0 0 0 0 0 0 0 0 0 0 0 0 127 0" result="hardAlpha"/>
<feOffset dx="-1.6" dy="1.6"/>
<feGaussianBlur stdDeviation="3.2"/>
<feComposite in2="hardAlpha" operator="out"/>
<feColorMatrix type="matrix" values="0 0 0 0 0 0 0 0 0 0 0 0 0 0 0 0 0 0 0.13 0"/>
<feBlend mode="normal" in2="BackgroundImageFix" result="effect1_dropShadow_29645_37083"/>
<feBlend mode="normal" in="SourceGraphic" in2="effect1_dropShadow_29645_37083" result="shape"/>
</filter>
<filter id="filter6_d_29645_37083" x="20.3996" y="78.8006" width="70.4" height="76.8004" filterUnits="userSpaceOnUse" color-interpolation-filters="sRGB">
<feFlood flood-opacity="0" result="BackgroundImageFix"/>
<feColorMatrix in="SourceAlpha" type="matrix" values="0 0 0 0 0 0 0 0 0 0 0 0 0 0 0 0 0 0 127 0" result="hardAlpha"/>
<feOffset dy="6.4"/>
<feGaussianBlur stdDeviation="9.6"/>
<feComposite in2="hardAlpha" operator="out"/>
<feColorMatrix type="matrix" values="0 0 0 0 0 0 0 0 0 0 0 0 0 0 0 0 0 0 0.08 0"/>
<feBlend mode="normal" in2="BackgroundImageFix" result="effect1_dropShadow_29645_37083"/>
<feBlend mode="normal" in="SourceGraphic" in2="effect1_dropShadow_29645_37083" result="shape"/>
</filter>
<linearGradient id="paint0_linear_29645_37083" x1="72.9967" y1="15.3908" x2="145.06" y2="62.5791" gradientUnits="userSpaceOnUse">
<stop stop-color="#8585AD"/>
<stop offset="1" stop-color="#D1D1E0"/>
</linearGradient>
<linearGradient id="paint1_linear_29645_37083" x1="64.7394" y1="70.4344" x2="198.126" y2="158.389" gradientUnits="userSpaceOnUse">
<stop stop-color="#8585AD"/>
<stop offset="1" stop-color="#D1D1E0"/>
</linearGradient>
<linearGradient id="paint2_linear_29645_37083" x1="-21.2" y1="30" x2="47.8344" y2="47.6326" gradientUnits="userSpaceOnUse">
<stop stop-color="#8585AD"/>
<stop offset="1" stop-color="#D1D1E0"/>
</linearGradient>
<linearGradient id="paint3_linear_29645_37083" x1="10.7993" y1="59.5998" x2="52.5148" y2="73.3482" gradientUnits="userSpaceOnUse">
<stop stop-color="#8585AD"/>
<stop offset="1" stop-color="#D1D1E0"/>
</linearGradient>
<linearGradient id="paint4_linear_29645_37083" x1="-5.20039" y1="30.8006" x2="86.2652" y2="70.6871" gradientUnits="userSpaceOnUse">
<stop stop-color="#8585AD"/>
<stop offset="1" stop-color="#D1D1E0"/>
</linearGradient>
</defs>
</svg>
