<?xml version="1.0" encoding="iso-8859-1"?>
<!-- Generator: Adobe Illustrator 19.0.0, SVG Export Plug-In . SVG Version: 6.00 Build 0)  -->
<svg version="1.1" id="Capa_1" xmlns="http://www.w3.org/2000/svg" xmlns:xlink="http://www.w3.org/1999/xlink" x="0px" y="0px"
	 viewBox="0 0 512 512" style="enable-background:new 0 0 512 512;" xml:space="preserve">
<path style="fill:#F7F2F4;" d="M432,487H80c-44.112,0-80-35.888-80-80s35.888-80,80-80h352c44.112,0,80,35.888,80,80
	S476.112,487,432,487z"/>
<g>
	<circle style="fill:#6D737F;" cx="206" cy="407" r="25"/>
	<circle style="fill:#6D737F;" cx="106" cy="407" r="25"/>
	<path style="fill:#6D737F;" d="M316,157H196c-8.284,0-15-6.716-15-15v-42c0-41.355,33.645-75,75-75s75,33.645,75,75v42
		C331,150.284,324.284,157,316,157z M211,127h90v-27c0-24.813-20.187-45-45-45s-45,20.187-45,45V127z"/>
</g>
<path style="fill:#5E5F69;" d="M256,25v30c24.813,0,45,20.187,45,45v27h-45v30h60c8.284,0,15-6.716,15-15v-42
	C331,58.645,297.355,25,256,25z"/>
<path style="fill:#FFAC2B;" d="M351,276H161c-8.284,0-15-6.716-15-15V142c0-8.284,6.716-15,15-15h190c8.284,0,15,6.716,15,15v119
	C366,269.284,359.284,276,351,276z"/>
<g>
	<path style="fill:#FF981E;" d="M351,127h-95v149h95c8.284,0,15-6.716,15-15V142C366,133.716,359.284,127,351,127z"/>
	<path style="fill:#FF981E;" d="M281,192c0-8.284-6.716-15-15-15h-20c-8.284,0-15,6.716-15,15c0,6.528,4.178,12.067,10,14.128V212
		c0,8.284,6.716,15,15,15s15-6.716,15-15v-5.872C276.822,204.067,281,198.528,281,192z"/>
</g>
<path style="fill:#DFDAE0;" d="M432,327H256v160h176c44.112,0,80-35.888,80-80S476.112,327,432,327z"/>
<g>
	<circle style="fill:#5E5F69;" cx="306" cy="407" r="25"/>
	<circle style="fill:#5E5F69;" cx="406" cy="407" r="25"/>
</g>
<path style="fill:#FF8512;" d="M266,177h-10v50c8.284,0,15-6.716,15-15v-5.872c5.822-2.061,10-7.6,10-14.128
	C281,183.716,274.284,177,266,177z"/>
<g>
</g>
<g>
</g>
<g>
</g>
<g>
</g>
<g>
</g>
<g>
</g>
<g>
</g>
<g>
</g>
<g>
</g>
<g>
</g>
<g>
</g>
<g>
</g>
<g>
</g>
<g>
</g>
<g>
</g>
</svg>
