<svg width="24" height="24" viewBox="0 0 24 24" fill="none" xmlns="http://www.w3.org/2000/svg">
<path d="M8.94525 10.7774C10.5967 10.7775 12.2087 11.2005 13.541 11.9727C11.8711 13.1542 10.7784 15.0995 10.7783 17.296C10.7783 17.572 10.7975 17.8443 10.831 18.1114H2.22259C2.04674 18.1137 1.87262 18.0764 1.71283 18.003C1.55294 17.9295 1.41155 17.8207 1.29876 17.6856C1.05058 17.3889 0.950272 16.984 1.02435 16.5743C1.34669 14.7862 2.3525 13.2841 3.93353 12.2296C5.33832 11.2934 7.11841 10.7774 8.94525 10.7774Z" fill="var(--fill-color, #000000)"/>
<path d="M8.94525 1.00006C10.0909 1.00013 11.1288 1.44194 11.872 2.2442C12.6244 3.0566 12.9909 4.15073 12.9042 5.3233C12.7318 7.65707 10.959 9.55555 8.94525 9.55573C6.93131 9.55573 5.15496 7.65668 4.98529 5.32233C4.89973 4.13906 5.26381 3.04267 6.01165 2.23639C6.75147 1.43903 7.79341 1.00006 8.94525 1.00006Z" fill="var(--fill-color, #000000)"/>
<path d="M17.2966 11.5927C14.1516 11.5927 11.5929 14.1514 11.5929 17.2964C11.5929 20.4413 14.1516 23.0001 17.2966 23.0001C20.4416 23.0001 23.0003 20.4413 23.0003 17.2964C23.0003 14.1514 20.4416 11.5927 17.2966 11.5927ZM20.265 15.3848L16.5795 19.7723C16.5391 19.8204 16.4888 19.8593 16.432 19.8863C16.3752 19.9133 16.3133 19.9278 16.2505 19.9288H16.2431C16.1816 19.9288 16.1208 19.9159 16.0646 19.8908C16.0084 19.8658 15.9581 19.8292 15.917 19.7835L14.3375 18.0285C14.2974 17.986 14.2662 17.9358 14.2457 17.8811C14.2253 17.8263 14.216 17.768 14.2184 17.7095C14.2208 17.6511 14.2348 17.5938 14.2597 17.5408C14.2846 17.4879 14.3198 17.4405 14.3633 17.4014C14.4067 17.3623 14.4576 17.3323 14.5128 17.3131C14.5681 17.2939 14.6266 17.2859 14.6849 17.2897C14.7433 17.2934 14.8003 17.3088 14.8526 17.3349C14.9049 17.361 14.9515 17.3973 14.9896 17.4417L16.2315 18.8215L19.5932 14.8205C19.6686 14.7333 19.7752 14.6793 19.8901 14.6701C20.005 14.661 20.1189 14.6974 20.2072 14.7715C20.2955 14.8457 20.351 14.9516 20.3618 15.0663C20.3726 15.1811 20.3378 15.2955 20.265 15.3848Z" fill="var(--fill-color, #000000)"/>
</svg>
