<svg width="24" height="24" viewBox="0 0 24 24" fill="none" xmlns="http://www.w3.org/2000/svg">
<path d="M8.94468 10.7778C10.5962 10.7778 12.2085 11.2007 13.5407 11.973C11.871 13.1546 10.778 15.0998 10.778 17.2964C10.778 17.5723 10.7971 17.8441 10.8305 18.1112H2.22246C2.04656 18.1134 1.87223 18.0765 1.7124 18.003C1.55265 17.9295 1.41136 17.8212 1.29863 17.6863C1.05037 17.3895 0.950012 16.9837 1.02411 16.5738C1.34654 14.7857 2.35291 13.2837 3.93405 12.2292C5.33876 11.2932 7.118 10.7779 8.94468 10.7778Z" fill="var(--fill-color, #000000)"/>
<path d="M8.94468 1.00006C10.0905 1.00006 11.1289 1.4421 11.8721 2.24456C12.6245 3.05695 12.9909 4.15066 12.9042 5.32319C12.7318 7.65711 10.9586 9.55562 8.94468 9.55562C6.93086 9.55548 5.15489 7.65663 4.98519 5.3224C4.89964 4.13914 5.26382 3.04289 6.01167 2.23661C6.75144 1.43925 7.7929 1.00012 8.94468 1.00006Z" fill="var(--fill-color, #000000)"/>
<path d="M17.2965 11.5927C14.1516 11.5927 11.5928 14.1514 11.5928 17.2964C11.5928 20.4413 14.1516 23.0001 17.2965 23.0001C20.4415 23.0001 23.0002 20.4413 23.0002 17.2964C23.0002 14.1514 20.4415 11.5927 17.2965 11.5927ZM19.3617 18.7412C19.4041 18.7815 19.4381 18.83 19.4615 18.8836C19.485 18.9373 19.4974 18.9951 19.4982 19.0537C19.4989 19.1122 19.4879 19.1703 19.4659 19.2246C19.4438 19.2788 19.4111 19.3281 19.3697 19.3695C19.3283 19.4109 19.279 19.4436 19.2248 19.4657C19.1705 19.4878 19.1124 19.4987 19.0539 19.498C18.9953 19.4972 18.9375 19.4848 18.8838 19.4613C18.8302 19.4379 18.7817 19.4039 18.7414 19.3615L17.2965 17.9169L15.8517 19.3615C15.7687 19.4403 15.6583 19.4836 15.5439 19.4821C15.4295 19.4806 15.3202 19.4345 15.2393 19.3536C15.1584 19.2727 15.1123 19.1634 15.1108 19.049C15.1093 18.9346 15.1526 18.8242 15.2314 18.7412L16.676 17.2964L15.2314 15.8515C15.1526 15.7686 15.1093 15.6581 15.1108 15.5437C15.1123 15.4293 15.1584 15.32 15.2393 15.2391C15.3202 15.1582 15.4295 15.1121 15.5439 15.1106C15.6583 15.1091 15.7687 15.1524 15.8517 15.2312L17.2965 16.6758L18.7414 15.2312C18.8243 15.1524 18.9348 15.1091 19.0492 15.1106C19.1636 15.1121 19.2729 15.1582 19.3538 15.2391C19.4347 15.32 19.4808 15.4293 19.4823 15.5437C19.4838 15.6581 19.4405 15.7686 19.3617 15.8515L17.9171 17.2964L19.3617 18.7412Z" fill="var(--fill-color, #000000)"/>
</svg>
