<svg width="24" height="24" viewBox="0 0 24 24" fill="none" xmlns="http://www.w3.org/2000/svg">
<path d="M8.94493 10.7778C10.5965 10.7778 12.2087 11.2007 13.541 11.973C11.8712 13.1546 10.7783 15.0998 10.7783 17.2964C10.7783 17.5723 10.7973 17.8441 10.8308 18.1112H2.2227C2.0468 18.1134 1.87247 18.0765 1.71265 18.003C1.5529 17.9295 1.41161 17.8212 1.29888 17.6863C1.05061 17.3895 0.950256 16.9837 1.02435 16.5738C1.34678 14.7857 2.35315 13.2837 3.93429 12.2292C5.339 11.2932 7.11824 10.7779 8.94493 10.7778Z" fill="var(--fill-color, #000000)"/>
<path d="M8.94493 1.00006C10.0908 1.00006 11.1291 1.4421 11.8724 2.24456C12.6248 3.05695 12.9911 4.15066 12.9044 5.32319C12.732 7.65711 10.9588 9.55562 8.94493 9.55562C6.9311 9.55548 5.15513 7.65663 4.98543 5.3224C4.89988 4.13914 5.26406 3.04289 6.01191 2.23661C6.75168 1.43925 7.79314 1.00012 8.94493 1.00006Z" fill="var(--fill-color, #000000)"/>
<path fill-rule="evenodd" clip-rule="evenodd" d="M17.2968 11.5927C20.4418 11.5927 23.0005 14.1514 23.0005 17.2964C23.0005 20.4413 20.4418 23.0001 17.2968 23.0001C14.1518 23.0001 11.5931 20.4413 11.5931 17.2964C11.5931 14.1514 14.1518 11.5927 17.2968 11.5927ZM17.2912 13.1817C17.1817 13.1818 17.0766 13.2251 16.9992 13.3027C16.9218 13.3803 16.8783 13.4858 16.8782 13.5955V14.1055C16.7557 14.07 16.6376 14.0203 16.5281 13.9543C16.4817 13.9263 16.4298 13.9076 16.3761 13.8994C16.3225 13.8913 16.2673 13.8935 16.2146 13.9066C16.162 13.9197 16.1126 13.9436 16.069 13.9758C16.0254 14.0081 15.9887 14.0487 15.9608 14.0952C15.9328 14.1418 15.914 14.1934 15.9059 14.2472C15.8978 14.3009 15.9 14.3559 15.913 14.4087C15.9261 14.4614 15.9501 14.5114 15.9823 14.5551C16.0143 14.5986 16.0546 14.6354 16.1008 14.6633C16.3399 14.8076 16.6038 14.9056 16.8782 14.9554V16.5786L15.4762 15.7662C15.5703 15.503 15.6181 15.2255 15.613 14.9458C15.611 14.8373 15.5662 14.7338 15.4889 14.6578C15.4117 14.5818 15.3075 14.5392 15.1993 14.5392H15.1913C15.1371 14.5402 15.0835 14.5517 15.0338 14.5734C14.9841 14.5951 14.9393 14.6266 14.9017 14.6657C14.8641 14.7049 14.834 14.7512 14.8141 14.8018C14.7944 14.8524 14.7853 14.9066 14.7863 14.9609C14.7886 15.0894 14.7723 15.2174 14.7417 15.3421L14.2134 15.0373C14.1664 15.0093 14.1147 14.9909 14.0606 14.9832C14.0065 14.9755 13.9512 14.9789 13.8983 14.9928C13.8454 15.0066 13.7954 15.0304 13.7519 15.0636C13.7083 15.0968 13.6718 15.1386 13.6444 15.1861C13.6171 15.2336 13.5997 15.2861 13.5927 15.3405C13.5858 15.3949 13.5893 15.4507 13.6039 15.5036C13.6184 15.5564 13.6433 15.6061 13.6771 15.6492C13.7108 15.6924 13.7534 15.7283 13.8012 15.7551L14.3288 16.0598C14.2365 16.1485 14.1344 16.2261 14.0224 16.2882C13.9745 16.3142 13.9325 16.35 13.8983 16.3924C13.864 16.435 13.838 16.484 13.8227 16.5364C13.8074 16.5888 13.8024 16.6437 13.8084 16.698C13.8143 16.7523 13.8313 16.8053 13.8577 16.8531C13.8841 16.901 13.92 16.9433 13.9627 16.9773C14.0054 17.0112 14.0544 17.0364 14.1068 17.0513C14.1592 17.0662 14.2141 17.0705 14.2683 17.064C14.3224 17.0575 14.3744 17.0399 14.4219 17.0131C14.666 16.8776 14.8822 16.698 15.0624 16.4847L16.4653 17.2964L15.0632 18.108C14.8829 17.8946 14.6661 17.7144 14.4219 17.5788C14.3746 17.5522 14.3222 17.5351 14.2683 17.5287C14.2142 17.5223 14.1592 17.5265 14.1068 17.5414C14.0544 17.5563 14.0054 17.5815 13.9627 17.6154C13.92 17.6494 13.8841 17.6917 13.8577 17.7396C13.8313 17.7874 13.8151 17.8404 13.8092 17.8947C13.8032 17.949 13.8082 18.0038 13.8235 18.0563C13.8388 18.1087 13.864 18.1578 13.8983 18.2003C13.9325 18.2427 13.9746 18.2785 14.0224 18.3045C14.1344 18.3666 14.2373 18.4434 14.3296 18.5321L13.8012 18.8393L13.7336 18.8862C13.7129 18.9039 13.6939 18.9243 13.6771 18.9459C13.6434 18.989 13.6184 19.0388 13.6039 19.0915C13.5894 19.1443 13.5858 19.1996 13.5927 19.2538C13.5997 19.3082 13.6171 19.3607 13.6444 19.4082C13.6718 19.4557 13.7084 19.4975 13.7519 19.5307C13.7953 19.5639 13.8454 19.5877 13.8983 19.6016C13.9512 19.6154 14.0065 19.6188 14.0606 19.6111C14.1148 19.6034 14.1672 19.5851 14.2142 19.557L14.7417 19.2506C14.7725 19.3753 14.7885 19.5032 14.7863 19.6318C14.7844 19.7414 14.8258 19.8472 14.9017 19.9262C14.9776 20.0052 15.0819 20.0514 15.1913 20.0535H15.1993C15.3075 20.0535 15.4117 20.0102 15.4889 19.9342C15.5659 19.8582 15.6102 19.7552 15.6123 19.6469C15.6174 19.3671 15.5703 19.089 15.4762 18.8257L16.8782 18.0133V19.6366C16.6038 19.6863 16.34 19.7851 16.1008 19.9294C16.0072 19.9861 15.9394 20.0776 15.913 20.184C15.8867 20.2906 15.9042 20.4034 15.9608 20.4975C16.0173 20.5915 16.1083 20.6596 16.2146 20.6861C16.321 20.7126 16.4342 20.6951 16.5281 20.6384C16.6377 20.5724 16.7556 20.5219 16.8782 20.4864V20.9972C16.8783 21.107 16.9218 21.2124 16.9992 21.2901C17.0766 21.3676 17.1817 21.4109 17.2912 21.411C17.4008 21.411 17.5066 21.3678 17.584 21.2901C17.6615 21.2124 17.7049 21.107 17.705 20.9972V20.4864C17.8276 20.5219 17.9455 20.5724 18.0551 20.6384C18.1489 20.695 18.2615 20.7124 18.3678 20.6861C18.4742 20.6597 18.5659 20.5916 18.6224 20.4975C18.679 20.4034 18.6958 20.2906 18.6694 20.184C18.643 20.0775 18.5754 19.9861 18.4816 19.9294C18.2425 19.7851 17.9794 19.6863 17.705 19.6366V18.0133L19.1062 18.8257C19.012 19.089 18.9651 19.367 18.9702 19.6469C18.9722 19.7554 19.017 19.8589 19.0943 19.935C19.1716 20.0109 19.2757 20.0535 19.384 20.0535H19.3919C19.4461 20.0525 19.4998 20.041 19.5495 20.0193C19.5991 19.9976 19.644 19.9661 19.6816 19.927C19.7191 19.8879 19.7485 19.8414 19.7683 19.7909C19.7881 19.7404 19.7979 19.6861 19.7969 19.6318C19.7946 19.5031 19.81 19.3747 19.8407 19.2498L20.3675 19.5546C20.4145 19.5849 20.4675 19.6058 20.5226 19.6151C20.5776 19.6243 20.6339 19.6226 20.6881 19.6095C20.7424 19.5963 20.7938 19.5722 20.8385 19.5387C20.8833 19.5051 20.9204 19.4623 20.9483 19.4138C20.9763 19.3653 20.9942 19.3118 21.0008 19.2562C21.0075 19.2006 21.003 19.1444 20.9873 19.0907C20.9717 19.037 20.9456 18.9867 20.9101 18.9435C20.8923 18.9218 20.8722 18.9022 20.8505 18.8846L20.7812 18.8393L20.2529 18.5337C20.3453 18.4447 20.4486 18.3675 20.5608 18.3053C20.6557 18.2517 20.726 18.1629 20.7558 18.0579C20.7855 17.9528 20.7726 17.8399 20.72 17.7443C20.6673 17.6488 20.5787 17.5777 20.4741 17.547C20.3957 17.5241 20.313 17.5256 20.2362 17.5494L20.1614 17.5804C19.9169 17.7161 19.6996 17.8959 19.5192 18.1096L18.1164 17.2964L19.5192 16.4839C19.6995 16.6976 19.9161 16.8775 20.1606 17.0131C20.208 17.0399 20.2601 17.0575 20.3141 17.064C20.3683 17.0705 20.424 17.0662 20.4765 17.0513C20.5288 17.0364 20.5779 17.0112 20.6205 16.9773C20.6631 16.9433 20.6984 16.9009 20.7247 16.8531C20.7511 16.8053 20.7681 16.7523 20.7741 16.698C20.78 16.6437 20.775 16.5889 20.7597 16.5364C20.7444 16.484 20.7192 16.4349 20.6849 16.3924C20.6508 16.35 20.6086 16.3142 20.5608 16.2882C20.4485 16.2259 20.3454 16.1488 20.2529 16.0598L20.7804 15.7543L20.7812 15.7551C20.83 15.7289 20.873 15.6932 20.9078 15.65C20.9425 15.6068 20.9681 15.5569 20.9833 15.5036C20.9985 15.4502 21.0028 15.394 20.9961 15.3389C20.9893 15.284 20.9719 15.2309 20.9444 15.1829C20.9167 15.1349 20.8795 15.093 20.8353 15.0596C20.7911 15.0261 20.7403 15.0015 20.6865 14.988C20.6329 14.9745 20.5772 14.9723 20.5226 14.9808C20.4682 14.9893 20.4159 15.0083 20.369 15.0373L19.8407 15.3429C19.8101 15.2185 19.7947 15.0907 19.7969 14.9625C19.7981 14.9082 19.7888 14.854 19.7691 14.8034C19.7494 14.7526 19.72 14.7058 19.6823 14.6665C19.6447 14.6272 19.5993 14.5961 19.5495 14.5742C19.4997 14.5524 19.4462 14.5403 19.3919 14.5392H19.384C19.2757 14.5392 19.1716 14.5825 19.0943 14.6586C19.0173 14.7345 18.9731 14.8375 18.971 14.9458C18.9659 15.2253 19.0123 15.5032 19.1062 15.7662L17.705 16.5786V14.9554C17.9793 14.9056 18.2426 14.8075 18.4816 14.6633C18.5754 14.6067 18.643 14.5152 18.6694 14.4087C18.6958 14.3021 18.679 14.1893 18.6224 14.0952C18.5659 14.0011 18.4742 13.9331 18.3678 13.9066C18.2615 13.8803 18.1489 13.8977 18.0551 13.9543C17.9456 14.0203 17.8275 14.07 17.705 14.1055V13.5955C17.7049 13.4858 17.6615 13.3803 17.584 13.3027C17.5066 13.225 17.4008 13.1817 17.2912 13.1817Z" fill="var(--fill-color, #000000)"/>
</svg>
