<svg id="Capa_1" enable-background="new 0 0 791.454 791.454" viewBox="0 0 791.454 791.454" xmlns="http://www.w3.org/2000/svg"><g><g id="Vrstva_x0020_1_19_" clip-rule="evenodd" fill-rule="evenodd"><path d="m202.621 0h264.884l224.238 233.828v454.717c0 56.783-46.126 102.909-103.061 102.909h-386.06c-56.783 0-102.909-46.126-102.909-102.909v-585.636c-.001-56.783 46.125-102.909 102.908-102.909z" fill="#0505dd"/><g fill="#fff"><path d="m321.362 585.484v-59.37c3.197.304 6.85.457 10.961.457 24.966 0 45.061-6.546 58.153-19.029 10.808-10.2 16.746-25.575 16.746-43.082 0-16.898-7.003-32.273-19.486-42.168-12.179-9.743-29.99-14.462-54.651-14.462-21.312 0-39.276 1.218-53.586 3.654-1.066.304-1.979 1.218-1.979 2.436v171.565c0 1.37 1.066 2.436 2.436 2.436h38.971c1.369-.001 2.435-1.067 2.435-2.437zm156.494-79.465c-15.984-5.633-18.725-8.221-18.725-12.179 0-6.85 7.916-7.764 12.483-7.764 10.047 0 20.399 3.654 26.184 6.85.761.304 1.522.457 2.131.152.761-.304 1.218-.913 1.37-1.675l7.003-27.097c.304-1.066-.152-2.283-1.218-2.74-7.307-3.654-20.704-7.459-36.688-7.459-31.664 0-53.738 17.963-53.738 43.691-.304 12.483 6.089 29.685 37.449 40.189 15.223 5.176 16.898 7.764 16.898 12.179 0 1.979 0 8.221-14.31 8.221-10.808 0-25.271-4.871-32.578-9.286-.609-.304-1.37-.457-2.131-.152s-1.218.913-1.37 1.675l-7.003 28.163c-.304 1.066.152 2.131 1.218 2.74 10.656 5.633 25.879 8.982 41.864 8.982 35.166 0 57.087-16.593 57.087-43.234-.303-20.096-11.264-32.731-35.926-41.256zm-156.494-15.071v-47.496c2.436-.457 6.85-1.066 13.853-1.066 17.963 0 28.315 8.525 28.315 23.139 0 16.289-11.722 26.032-31.512 26.032-4.719 0-8.068-.304-10.656-.609z"/><path d="m467.2 0v232.002h224.542z" opacity=".302"/></g></g></g></svg>