<svg id="Capa_1" enable-background="new 0 0 791.454 791.454" viewBox="0 0 791.454 791.454" xmlns="http://www.w3.org/2000/svg"><g><g id="Vrstva_x0020_1_16_"><path clip-rule="evenodd" d="m202.8 0h264.71l224.217 233.922v454.459c0 56.891-46.182 103.073-103.073 103.073h-385.854c-56.891 0-103.073-46.182-103.073-103.073v-585.308c0-56.891 46.182-103.073 103.073-103.073z" fill="#7542ed" fill-rule="evenodd"/><g fill="#fff"><path clip-rule="evenodd" d="m467.176 0v231.914h224.552z" fill-rule="evenodd" opacity=".302"/><path d="m273.411 567.906c-2.008-1.004-4.016-2.008-5.354-3.681l-64.253-64.253c-1.673-1.339-2.677-3.347-3.681-5.354-.669-2.008-1.339-4.016-1.339-6.358s.669-4.35 1.339-6.358c1.004-2.008 2.008-4.016 3.681-5.354l64.253-64.253c1.339-1.673 3.347-2.677 5.354-3.681 2.008-.669 4.016-1.339 6.358-1.339 4.685 0 8.701 2.008 11.713 5.02 3.347 3.012 5.02 7.362 5.02 11.713 0 2.343-.335 4.35-1.339 6.693-.669 2.008-2.008 3.681-3.681 5.354l-52.206 52.206 52.206 52.206c1.673 1.673 3.012 3.347 3.681 5.354 1.004 2.343 1.339 4.35 1.339 6.693 0 4.35-1.673 8.701-5.02 11.713-3.012 3.012-7.028 5.02-11.713 5.02-2.342-.002-4.35-.672-6.358-1.341zm91.361-110.435c-3.012 3.012-7.362 4.685-11.713 4.685-4.685 0-9.036-1.673-12.048-4.685s-4.685-7.362-4.685-12.047c0-16.398 6.358-31.123 17.402-41.832 10.709-11.044 25.434-17.402 41.832-17.402s31.457 6.358 42.166 17.402c10.709 10.709 17.402 25.434 17.402 41.832 0 14.39-5.02 27.442-13.386 37.816-7.362 9.036-17.402 16.063-29.449 19.41v28.446c0 4.35-1.673 8.701-4.685 11.713s-7.362 5.02-12.048 5.02c-4.35 0-8.701-2.008-11.713-5.02s-5.02-7.362-5.02-11.713v-42.836c0-4.685 2.008-8.701 5.02-11.713s7.362-5.02 11.713-5.02c7.362 0 13.721-3.012 18.406-7.697s7.697-11.044 7.697-18.406c0-7.028-3.012-13.721-7.697-18.406s-11.044-7.362-18.406-7.362c-7.028 0-13.721 2.677-18.406 7.362s-7.362 11.378-7.362 18.406c0 4.684-2.008 9.035-5.02 12.047zm42.835 104.411c3.012 3.012 4.685 7.362 4.685 11.713 0 4.685-1.673 9.036-4.685 12.047-3.012 3.012-7.362 4.685-12.048 4.685-4.35 0-8.701-1.673-11.713-4.685s-5.02-7.362-5.02-12.047c0-4.35 2.008-8.701 5.02-11.713s7.362-5.02 11.713-5.02c4.686 0 9.036 2.008 12.048 5.02zm97.719 6.024c-2.343-1.004-4.016-2.008-5.689-3.681-1.339-1.673-2.677-3.347-3.681-5.354-.669-2.008-1.004-4.35-1.004-6.358 0-2.343.335-4.685 1.004-6.693 1.004-2.008 2.343-3.681 3.681-5.354l52.206-52.206-52.206-52.206c-1.339-1.673-2.677-3.347-3.681-5.354-.669-2.008-1.004-4.35-1.004-6.693 0-4.35 1.673-8.701 4.685-11.713s7.362-5.02 12.048-5.02c2.008 0 4.35.669 6.358 1.339 2.008 1.004 4.016 2.008 5.354 3.681l64.253 64.253c1.339 1.339 2.677 3.347 3.346 5.354 1.004 2.008 1.339 4.016 1.339 6.358s-.335 4.35-1.004 6.358c-1.004 2.008-2.343 4.016-3.681 5.354l-64.253 64.253c-1.339 1.673-3.347 2.677-5.354 3.681-2.008.669-4.351 1.339-6.358 1.339-2.343.001-4.351-.669-6.359-1.338z"/></g></g></g></svg>