<svg id="Capa_1" enable-background="new 0 0 791.454 791.454" viewBox="0 0 791.454 791.454" xmlns="http://www.w3.org/2000/svg"><g><g id="Vrstva_x0020_1_17_"><path clip-rule="evenodd" d="m202.669 0h264.71l224.322 233.811v454.727c0 56.689-46.227 102.916-102.916 102.916h-386.116c-56.932 0-102.916-46.227-102.916-102.916v-585.622c0-56.932 45.984-102.916 102.916-102.916z" fill="#e03303" fill-rule="evenodd"/><g fill="#fff"><path clip-rule="evenodd" d="m467.136 0v231.865h224.565z" fill-rule="evenodd" opacity=".302"/><path d="m385.873 392.443c-59.365 2.92-106.565 52.309-105.835 112.405.973 59.852 49.633 108.755 109.485 109.485 60.338.973 109.728-46.227 112.404-105.592.243-2.92-2.19-5.353-5.109-5.353h-100.483c-2.92 0-5.353-2.433-5.353-5.109v-100.727c.001-2.92-2.189-5.109-5.109-5.109zm26.763-16.302v100.483c0 2.92 2.19 5.109 5.109 5.109h100.726c2.92 0 5.109-2.433 5.109-5.353-2.676-56.932-48.417-102.672-105.592-105.349-2.919-.242-5.352 2.191-5.352 5.11z"/></g></g></g></svg>