<svg width="48" height="48" viewBox="0 0 48 48" fill="none" xmlns="http://www.w3.org/2000/svg">
<path d="M0 8C0 3.58172 3.58172 0 8 0H40C44.4183 0 48 3.58172 48 8V40C48 44.4183 44.4183 48 40 48H8C3.58172 48 0 44.4183 0 40V8Z" fill="#EAE5FF"/>
<path d="M27.7248 7.5H12.3044C10.4794 7.5 9 8.97945 9 10.8043V30.6307C9 32.4557 10.4794 33.9352 12.3044 33.9352H27.7248C29.5498 33.9352 31.0292 32.4557 31.0292 30.6307V10.8043C31.0292 8.97945 29.5498 7.5 27.7248 7.5Z" fill="#D9CFFE"/>
<path d="M31.3254 11.0999H15.905C14.08 11.0999 12.6006 12.5794 12.6006 14.4043V34.2307C12.6006 36.0557 14.08 37.5351 15.905 37.5351H31.3254C33.1504 37.5351 34.6298 36.0557 34.6298 34.2307V14.4043C34.6298 12.5794 33.1504 11.0999 31.3254 11.0999Z" fill="#B09FF4"/>
<path fill-rule="evenodd" clip-rule="evenodd" d="M34.9256 14.7C36.7503 14.7003 38.2291 16.1799 38.2291 18.0047V37.8305C38.2291 39.6553 36.7503 41.1349 34.9256 41.1352H19.5049C17.6799 41.1352 16.2002 39.6555 16.2002 37.8305V18.0047C16.2002 16.1797 17.6799 14.7 19.5049 14.7H34.9256ZM19.4041 28.568C19.0999 28.568 18.8533 28.8146 18.8533 29.1188C18.8533 29.4229 19.0999 29.6696 19.4041 29.6696H25.8131C26.117 29.6693 26.3639 29.4228 26.3639 29.1188C26.3639 28.8148 26.117 28.5683 25.8131 28.568H19.4041ZM19.4041 24.5649C19.0999 24.5649 18.8533 24.8115 18.8533 25.1157C18.8534 25.4198 19.1 25.6664 19.4041 25.6664H31.4205C31.7244 25.6662 31.9712 25.4196 31.9713 25.1157C31.9713 24.8116 31.7245 24.5651 31.4205 24.5649H19.4041ZM19.4041 20.5571C19.0999 20.5571 18.8533 20.8037 18.8533 21.1078C18.8533 21.412 19.0999 21.6586 19.4041 21.6586H34.6244C34.9285 21.6586 35.1752 21.412 35.1752 21.1078C35.1752 20.8037 34.9285 20.5571 34.6244 20.5571H19.4041Z" fill="url(#paint0_linear_244_43717)"/>
<defs>
<linearGradient id="paint0_linear_244_43717" x1="15.8841" y1="14.2743" x2="44.191" y2="24.2952" gradientUnits="userSpaceOnUse">
<stop stop-color="#5C33FF"/>
<stop offset="1" stop-color="#2900CC"/>
</linearGradient>
</defs>
</svg>
