<svg width="48" height="48" viewBox="0 0 48 48" fill="none" xmlns="http://www.w3.org/2000/svg">
<path d="M0 8C0 3.58172 3.58172 0 8 0H40C44.4183 0 48 3.58172 48 8V40C48 44.4183 44.4183 48 40 48H8C3.58172 48 0 44.4183 0 40V8Z" fill="#FFF2E5"/>
<path opacity="0.3" d="M27.6956 8.3999H10.3044C8.47943 8.3999 7 9.87933 7 11.7043V25.5307C7 27.3557 8.47943 28.8351 10.3044 28.8351H27.6956C29.5206 28.8351 31 27.3557 31 25.5307V11.7043C31 9.87933 29.5206 8.3999 27.6956 8.3999Z" fill="#FFB066"/>
<path d="M32.4952 12H13.904C12.079 12 10.5996 13.4794 10.5996 15.3044V29.0956C10.5996 30.9206 12.079 32.4 13.904 32.4H32.4952C34.3202 32.4 35.7996 30.9206 35.7996 29.0956V15.3044C35.7996 13.4794 34.3202 12 32.4952 12Z" fill="#FFB066"/>
<path d="M14.2002 33.1384C14.201 33.8727 14.492 34.5766 15.0095 35.0957C15.5269 35.6149 16.2284 35.9069 16.9602 35.9076H24.6583L24.4284 37.7538H21.5603C21.3162 37.7538 21.0822 37.851 20.9098 38.0242C20.7372 38.1972 20.6402 38.4321 20.6402 38.6769C20.6402 38.9217 20.7372 39.1565 20.9098 39.3296C21.0822 39.5027 21.3162 39.6 21.5603 39.6H34.4403C34.6842 39.6 34.9183 39.5027 35.0908 39.3296C35.2633 39.1565 35.3603 38.9217 35.3603 38.6769C35.3603 38.4321 35.2633 38.1972 35.0908 38.0242C34.9183 37.851 34.6842 37.7538 34.4403 37.7538H31.5721L31.3422 35.9076H39.0402C39.7721 35.9069 40.4736 35.6149 40.9911 35.0957C41.5085 34.5766 41.7995 33.8727 41.8002 33.1384V30.3691H14.2002V33.1384ZM28.0002 32.2153C28.1823 32.2153 28.3601 32.2695 28.5114 32.3709C28.6627 32.4724 28.7806 32.6165 28.8503 32.7852C28.9199 32.9538 28.9381 33.1395 28.9026 33.3185C28.8671 33.4975 28.7795 33.6621 28.6509 33.7912C28.5221 33.9202 28.3582 34.0081 28.1797 34.0438C28.0013 34.0794 27.8163 34.0611 27.6483 33.9912C27.4801 33.9214 27.3364 33.8031 27.2353 33.6513C27.1342 33.4995 27.0803 33.321 27.0803 33.1384C27.0803 32.8936 27.1773 32.6589 27.3497 32.4857C27.5223 32.3125 27.7563 32.2153 28.0002 32.2153Z" fill="url(#paint0_linear_244_43711)"/>
<path d="M41.8002 18.3692C41.7995 17.635 41.5085 16.9311 40.9911 16.412C40.4736 15.8928 39.7721 15.6008 39.0402 15.6001H16.9602C16.2284 15.6008 15.5269 15.8928 15.0095 16.412C14.492 16.9311 14.201 17.635 14.2002 18.3692V29.4462H41.8002V18.3692Z" fill="url(#paint1_linear_244_43711)"/>
<defs>
<linearGradient id="paint0_linear_244_43711" x1="13.8042" y1="15.2135" x2="46.0241" y2="30.954" gradientUnits="userSpaceOnUse">
<stop stop-color="#FF9933"/>
<stop offset="1" stop-color="#CC6600"/>
</linearGradient>
<linearGradient id="paint1_linear_244_43711" x1="13.8042" y1="15.2136" x2="46.0241" y2="30.9541" gradientUnits="userSpaceOnUse">
<stop stop-color="#FF9933"/>
<stop offset="1" stop-color="#CC6600"/>
</linearGradient>
</defs>
</svg>
