<svg width="48" height="48" viewBox="0 0 48 48" fill="none" xmlns="http://www.w3.org/2000/svg">
<path d="M0 8C0 3.58172 3.58172 0 8 0H40C44.4183 0 48 3.58172 48 8V40C48 44.4183 44.4183 48 40 48H8C3.58172 48 0 44.4183 0 40V8Z" fill="#E5F1FF"/>
<path d="M33.5475 17.9082C35.8017 17.9082 37.6291 16.1379 37.6291 13.9541C37.6291 11.7703 35.8017 10 33.5475 10C31.2932 10 29.4658 11.7703 29.4658 13.9541C29.4658 16.1379 31.2932 17.9082 33.5475 17.9082Z" fill="#B2D4FF"/>
<path d="M30.609 18.258C30.609 18.258 28.4453 16.8892 27.1615 19.6525C25.3841 24.1597 26.4046 27.3256 27.5525 29.2616C28.7005 31.1977 39.7738 31.9403 40.6903 29.2616C41.607 26.5831 42.2458 22.2278 40.3076 19.4401C38.757 16.9325 36.7531 18.258 36.7531 18.258C35.5882 19.3127 34.9032 19.4402 33.6749 19.4402C32.4467 19.4402 31.6342 19.0576 30.609 18.258Z" fill="#B2D4FF"/>
<path d="M14.3463 17.9082C16.6005 17.9082 18.428 16.1379 18.428 13.9541C18.428 11.7703 16.6005 10 14.3463 10C12.0921 10 10.2646 11.7703 10.2646 13.9541C10.2646 16.1379 12.0921 17.9082 14.3463 17.9082Z" fill="#B2D4FF"/>
<path d="M11.4088 18.258C11.4088 18.258 9.24509 16.8892 7.96133 19.6526C6.18388 24.1597 7.20436 27.3256 8.35229 29.2616C9.50033 31.1977 20.5736 31.9403 21.4901 29.2616C22.4068 26.5831 23.0456 22.2278 21.1075 19.4401C19.5568 16.9325 17.5529 18.258 17.5529 18.258C16.388 19.3127 15.703 19.4402 14.4747 19.4402C13.2465 19.4402 12.434 19.0576 11.4088 18.258Z" fill="#B2D4FF"/>
<path d="M23.9074 20.4276C26.8798 20.4276 29.2893 18.0933 29.2893 15.2138C29.2893 12.3343 26.8798 10 23.9074 10C20.935 10 18.5254 12.3343 18.5254 15.2138C18.5254 18.0933 20.935 20.4276 23.9074 20.4276Z" fill="url(#paint0_linear_244_43703)"/>
<path d="M20.0331 20.8867C20.0331 20.8867 17.1801 19.0818 15.4874 22.7256C13.1436 28.6684 14.4892 32.843 16.0028 35.3959C17.5165 37.9488 32.1175 38.9277 33.3261 35.3959C34.5348 31.8639 35.3769 26.1212 32.8214 22.4454C30.7767 19.1388 28.1346 20.8867 28.1346 20.8867C26.5986 22.2772 25.6953 22.4455 24.0757 22.4455C22.4562 22.4455 21.3848 21.9409 20.0331 20.8867Z" fill="url(#paint1_linear_244_43703)"/>
<defs>
<linearGradient id="paint0_linear_244_43703" x1="18.3709" y1="9.83206" x2="31.4253" y2="15.5566" gradientUnits="userSpaceOnUse">
<stop stop-color="#338BFF"/>
<stop offset="1" stop-color="#0058CC"/>
</linearGradient>
<linearGradient id="paint1_linear_244_43703" x1="13.9288" y1="20.1471" x2="37.4007" y2="31.8513" gradientUnits="userSpaceOnUse">
<stop stop-color="#338BFF"/>
<stop offset="1" stop-color="#0058CC"/>
</linearGradient>
</defs>
</svg>
