<svg id="Capa_1" enable-background="new 0 0 791.454 791.454" viewBox="0 0 791.454 791.454" xmlns="http://www.w3.org/2000/svg"><g><g id="Vrstva_x0020_1_20_"><path clip-rule="evenodd" d="m202.718 0h264.814l224.164 233.873v454.622c0 56.868-46.092 102.959-102.959 102.959h-386.019c-56.868 0-102.959-46.092-102.959-102.959v-585.536c0-56.867 46.091-102.959 102.959-102.959z" fill="#fa0000" fill-rule="evenodd"/><g fill="#fff"><path clip-rule="evenodd" d="m467.212 0v231.952h224.484z" fill-rule="evenodd" opacity=".302"/><path d="m473.614 491.005c0-4.801-3.628-8.535-8.535-8.535s-8.642 3.734-8.642 8.535c0 33.609-27.207 60.815-60.709 60.815s-60.709-27.207-60.709-60.815c0-4.801-3.734-8.535-8.642-8.535-4.801 0-8.535 3.734-8.535 8.535 0 39.904 29.768 73.405 69.351 77.673v22.939h-31.263c-4.908 0-8.642 3.734-8.642 8.536 0 4.908 3.734 8.642 8.642 8.642h79.594c4.908 0 8.642-3.734 8.642-8.642 0-4.801-3.734-8.536-8.642-8.536h-31.155v-22.939c39.477-4.268 69.245-37.77 69.245-77.673zm-77.887-125.686c-26.353 0-47.799 21.445-47.799 47.799v77.673c0 26.567 21.445 47.799 47.799 48.119 26.353 0 47.905-21.552 47.905-47.905v-77.886c.001-26.354-21.552-47.8-47.905-47.8z"/></g></g></g></svg>