<svg width="56" height="56" viewBox="0 0 56 56" fill="none" xmlns="http://www.w3.org/2000/svg">
<g opacity="0.3">
<path d="M11.2621 2H27.035L40.3875 15.9236V43.0004C40.3875 46.3816 37.6409 49.1282 34.2506 49.1282H11.2621C7.88091 49.1282 5.13428 46.3816 5.13428 43.0004V8.12786C5.13422 4.74664 7.88085 2 11.2621 2V2Z" fill="url(#paint0_linear_1151_18944)"/>
<path opacity="0.302" fill-rule="evenodd" clip-rule="evenodd" d="M27.0168 2V15.8149H40.3875L27.0168 2Z" fill="white"/>
</g>
<path d="M16.1339 6.87183H31.9068L45.2594 20.7954V47.8722C45.2594 51.2534 42.5127 54 39.1224 54H16.134C12.7527 54 10.0061 51.2534 10.0061 47.8722V12.9997C10.006 9.61846 12.7527 6.87183 16.1339 6.87183V6.87183Z" fill="url(#paint1_linear_1151_18944)"/>
<path opacity="0.302" fill-rule="evenodd" clip-rule="evenodd" d="M31.8887 6.87183V20.6867H45.2593L31.8887 6.87183Z" fill="white"/>
<g filter="url(#filter0_d_1151_18944)">
<path fill-rule="evenodd" clip-rule="evenodd" d="M27.4751 26.9431C27.2445 26.706 26.8706 26.706 26.64 26.9431L23.6874 29.9785C23.4567 30.2156 23.4567 30.6 23.6874 30.837L26.64 33.8724C26.8706 34.1095 27.2445 34.1095 27.4751 33.8724C27.7057 33.6354 27.7057 33.251 27.4751 33.0139L25.4418 30.9236C25.7862 30.888 26.3008 30.8631 27.0576 30.8631C28.1087 30.8631 29.1363 31.1835 30.0103 31.7839C30.8843 32.3842 31.5655 33.2376 31.9677 34.2359C32.37 35.2343 32.4752 36.3329 32.2702 37.3927C32.0651 38.4526 31.5589 39.4262 30.8156 40.1903C30.0724 40.9544 29.1254 41.4748 28.0944 41.6856C27.0634 41.8964 25.9948 41.7882 25.0237 41.3747C24.0525 40.9611 23.2225 40.2608 22.6385 39.3623C22.0545 38.4638 21.7428 37.4075 21.7428 36.3268C21.7428 35.9915 21.4784 35.7197 21.1523 35.7197C20.8261 35.7197 20.5618 35.9915 20.5618 36.3268C20.5618 37.6476 20.9427 38.9387 21.6565 40.0369C22.3703 41.1351 23.3848 41.991 24.5717 42.4964C25.7587 43.0019 27.0648 43.1341 28.3248 42.8764C29.5849 42.6188 30.7423 41.9827 31.6508 41.0488C32.5592 40.1149 33.1779 38.925 33.4285 37.6296C33.6792 36.3342 33.5505 34.9915 33.0589 33.7713C32.5672 32.5511 31.7346 31.5081 30.6664 30.7743C29.5982 30.0406 28.3423 29.6489 27.0576 29.6489C26.4682 29.6489 26.0041 29.6635 25.6395 29.6887L27.4751 27.8016C27.7057 27.5645 27.7057 27.1802 27.4751 26.9431Z" fill="white" stroke="white" stroke-width="0.365388" stroke-linecap="round" stroke-linejoin="round"/>
</g>
<defs>
<filter id="filter0_d_1151_18944" x="7.57023" y="16.6156" width="38.9748" height="38.9748" filterUnits="userSpaceOnUse" color-interpolation-filters="sRGB">
<feFlood flood-opacity="0" result="BackgroundImageFix"/>
<feColorMatrix in="SourceAlpha" type="matrix" values="0 0 0 0 0 0 0 0 0 0 0 0 0 0 0 0 0 0 127 0" result="hardAlpha"/>
<feOffset dy="1.21796"/>
<feGaussianBlur stdDeviation="3.0449"/>
<feComposite in2="hardAlpha" operator="out"/>
<feColorMatrix type="matrix" values="0 0 0 0 0 0 0 0 0 0 0 0 0 0 0 0 0 0 0.08 0"/>
<feBlend mode="normal" in2="BackgroundImageFix" result="effect1_dropShadow_1151_18944"/>
<feBlend mode="normal" in="SourceGraphic" in2="effect1_dropShadow_1151_18944" result="shape"/>
</filter>
<linearGradient id="paint0_linear_1151_18944" x1="4.62844" y1="1.24116" x2="50.9293" y2="15.9543" gradientUnits="userSpaceOnUse">
<stop stop-color="#338BFF"/>
<stop offset="1" stop-color="#0058CC"/>
</linearGradient>
<linearGradient id="paint1_linear_1151_18944" x1="9.50026" y1="6.11298" x2="55.8011" y2="20.8261" gradientUnits="userSpaceOnUse">
<stop stop-color="#338BFF"/>
<stop offset="1" stop-color="#0058CC"/>
</linearGradient>
</defs>
</svg>
