<svg width="2020" height="2240" viewBox="0 0 2020 2240" fill="none" xmlns="http://www.w3.org/2000/svg">
<mask id="mask0_24114_138163" style="mask-type:alpha" maskUnits="userSpaceOnUse" x="0" y="0" width="2020" height="2240">
<g style="mix-blend-mode:luminosity">
<rect width="2020" height="2240" fill="url(#paint0_linear_24114_138163)"/>
</g>
</mask>
<g mask="url(#mask0_24114_138163)">
<g opacity="0.06">
<rect x="1557.12" y="84.9976" width="239" height="153" rx="20" transform="rotate(-45 1557.12 84.9976)" fill="white"/>
<rect x="1557.12" y="462.184" width="239" height="153" rx="20" transform="rotate(-45 1557.12 462.184)" fill="white"/>
<rect x="1557.12" y="839.369" width="239" height="153" rx="20" transform="rotate(-45 1557.12 839.369)" fill="white"/>
<rect x="1557.12" y="1593.74" width="239" height="153" rx="20" transform="rotate(-45 1557.12 1593.74)" fill="white"/>
<rect x="1557.12" y="1216.56" width="239" height="153" rx="20" transform="rotate(-45 1557.12 1216.56)" fill="white"/>
<rect x="1557.12" y="1970.93" width="239" height="153" rx="20" transform="rotate(-45 1557.12 1970.93)" fill="white"/>
<rect x="1557.12" y="2348.11" width="239" height="153" rx="20" transform="rotate(-45 1557.12 2348.11)" fill="white"/>
</g>
<g opacity="0.06">
<rect x="1806" y="217.906" width="239" height="153" rx="20" transform="rotate(-45 1806 217.906)" fill="white"/>
<rect x="1806" y="595.092" width="239" height="153" rx="20" transform="rotate(-45 1806 595.092)" fill="white"/>
<rect x="1806" y="972.278" width="239" height="153" rx="20" transform="rotate(-45 1806 972.278)" fill="white"/>
<rect x="1806" y="1726.65" width="239" height="153" rx="20" transform="rotate(-45 1806 1726.65)" fill="white"/>
<rect x="1806" y="1349.46" width="239" height="153" rx="20" transform="rotate(-45 1806 1349.46)" fill="white"/>
<rect x="1806" y="2103.83" width="239" height="153" rx="20" transform="rotate(-45 1806 2103.83)" fill="white"/>
</g>
<g opacity="0.06">
<rect x="1002.74" y="289.184" width="239" height="153" rx="20" transform="rotate(-45 1002.74 289.184)" fill="white"/>
<rect x="1002.74" y="-88.002" width="239" height="153" rx="20" transform="rotate(-45 1002.74 -88.002)" fill="white"/>
<rect x="1002.74" y="666.37" width="239" height="153" rx="20" transform="rotate(-45 1002.74 666.37)" fill="white"/>
<rect x="1002.74" y="1043.56" width="239" height="153" rx="20" transform="rotate(-45 1002.74 1043.56)" fill="white"/>
<rect x="1002.74" y="1797.93" width="239" height="153" rx="20" transform="rotate(-45 1002.74 1797.93)" fill="white"/>
<rect x="1002.74" y="1420.74" width="239" height="153" rx="20" transform="rotate(-45 1002.74 1420.74)" fill="white"/>
<rect x="1002.74" y="2175.11" width="239" height="153" rx="20" transform="rotate(-45 1002.74 2175.11)" fill="white"/>
</g>
<g opacity="0.06">
<rect x="1279.93" y="376.185" width="239" height="153" rx="20" transform="rotate(-45 1279.93 376.185)" fill="white"/>
<rect x="1279.93" y="-1.00146" width="239" height="153" rx="20" transform="rotate(-45 1279.93 -1.00146)" fill="white"/>
<rect x="1279.93" y="753.371" width="239" height="153" rx="20" transform="rotate(-45 1279.93 753.371)" fill="white"/>
<rect x="1279.93" y="1130.56" width="239" height="153" rx="20" transform="rotate(-45 1279.93 1130.56)" fill="white"/>
<rect x="1279.93" y="1884.93" width="239" height="153" rx="20" transform="rotate(-45 1279.93 1884.93)" fill="white"/>
<rect x="1279.93" y="1507.74" width="239" height="153" rx="20" transform="rotate(-45 1279.93 1507.74)" fill="white"/>
<rect x="1279.93" y="2262.11" width="239" height="153" rx="20" transform="rotate(-45 1279.93 2262.11)" fill="white"/>
</g>
<g opacity="0.06">
<rect x="725.558" y="527.185" width="239" height="153" rx="20" transform="rotate(-45 725.558 527.185)" fill="white"/>
<rect x="725.558" y="149.999" width="239" height="153" rx="20" transform="rotate(-45 725.558 149.999)" fill="white"/>
<rect x="725.558" y="904.37" width="239" height="153" rx="20" transform="rotate(-45 725.558 904.37)" fill="white"/>
<rect x="725.558" y="1281.56" width="239" height="153" rx="20" transform="rotate(-45 725.558 1281.56)" fill="white"/>
<rect x="725.558" y="2035.93" width="239" height="153" rx="20" transform="rotate(-45 725.558 2035.93)" fill="white"/>
<rect x="725.558" y="1658.74" width="239" height="153" rx="20" transform="rotate(-45 725.558 1658.74)" fill="white"/>
</g>
<g opacity="0.06">
<rect x="448.372" y="440.185" width="239" height="153" rx="20" transform="rotate(-45 448.372 440.185)" fill="white"/>
<rect x="448.372" y="62.9985" width="239" height="153" rx="20" transform="rotate(-45 448.372 62.9985)" fill="white"/>
<rect x="448.372" y="817.371" width="239" height="153" rx="20" transform="rotate(-45 448.372 817.371)" fill="white"/>
<rect x="448.372" y="1194.56" width="239" height="153" rx="20" transform="rotate(-45 448.372 1194.56)" fill="white"/>
<rect x="448.372" y="1948.93" width="239" height="153" rx="20" transform="rotate(-45 448.372 1948.93)" fill="white"/>
<rect x="448.372" y="1571.74" width="239" height="153" rx="20" transform="rotate(-45 448.372 1571.74)" fill="white"/>
<rect x="448.372" y="2326.11" width="239" height="153" rx="20" transform="rotate(-45 448.372 2326.11)" fill="white"/>
</g>
<g opacity="0.06">
<rect x="171.186" y="354.185" width="239" height="153" rx="20" transform="rotate(-45 171.186 354.185)" fill="white"/>
<rect x="171.186" y="-23.0015" width="239" height="153" rx="20" transform="rotate(-45 171.186 -23.0015)" fill="white"/>
<rect x="171.186" y="731.371" width="239" height="153" rx="20" transform="rotate(-45 171.186 731.371)" fill="white"/>
<rect x="171.186" y="1108.56" width="239" height="153" rx="20" transform="rotate(-45 171.186 1108.56)" fill="white"/>
<rect x="171.186" y="1862.93" width="239" height="153" rx="20" transform="rotate(-45 171.186 1862.93)" fill="white"/>
<rect x="171.186" y="1485.74" width="239" height="153" rx="20" transform="rotate(-45 171.186 1485.74)" fill="white"/>
<rect x="171.186" y="2240.11" width="239" height="153" rx="20" transform="rotate(-45 171.186 2240.11)" fill="white"/>
</g>
<g opacity="0.06">
<rect x="-106" y="267.185" width="239" height="153" rx="20" transform="rotate(-45 -106 267.185)" fill="white"/>
<rect x="-106" y="644.371" width="239" height="153" rx="20" transform="rotate(-45 -106 644.371)" fill="white"/>
<rect x="-106" y="1021.56" width="239" height="153" rx="20" transform="rotate(-45 -106 1021.56)" fill="white"/>
<rect x="-106" y="1775.93" width="239" height="153" rx="20" transform="rotate(-45 -106 1775.93)" fill="white"/>
<rect x="-106" y="1398.74" width="239" height="153" rx="20" transform="rotate(-45 -106 1398.74)" fill="white"/>
<rect x="-106" y="2153.11" width="239" height="153" rx="20" transform="rotate(-45 -106 2153.11)" fill="white"/>
</g>
</g>
<defs>
<linearGradient id="paint0_linear_24114_138163" x1="2020" y1="1173.9" x2="-0.013953" y2="1183.56" gradientUnits="userSpaceOnUse">
<stop stop-color="white"/>
<stop offset="1" stop-color="#FEFEFE" stop-opacity="0"/>
</linearGradient>
</defs>
</svg>
