<svg width="24" height="24" viewBox="0 0 24 24" fill="none" xmlns="http://www.w3.org/2000/svg">
<path fill-rule="evenodd" clip-rule="evenodd" d="M12.0002 1.5C12.1066 1.50003 12.2118 1.52259 12.3088 1.56641C16.0925 3.27547 17.7854 3.8018 21.84 4.5293C22.0052 4.55888 22.1561 4.64238 22.2678 4.76758C22.3795 4.89281 22.4456 5.05225 22.4562 5.21973C22.6367 8.08426 22.2515 10.7538 21.3107 13.1533C20.5423 15.1099 19.4043 16.9002 17.9592 18.4268C15.4528 21.0859 12.792 22.2409 12.2844 22.4453C12.104 22.5183 11.9023 22.5183 11.7219 22.4453C11.2138 22.2408 8.55319 21.0857 6.04707 18.4268C4.59955 16.9008 3.45907 15.1105 2.68867 13.1533C1.74789 10.7538 1.36269 8.08426 1.54316 5.21973C1.55378 5.05224 1.62089 4.89281 1.73262 4.76758C1.84434 4.64248 1.99524 4.55884 2.16035 4.5293C6.21468 3.80185 7.90721 3.2753 11.6906 1.56641C11.7877 1.52253 11.8937 1.5 12.0002 1.5ZM16.0002 8C15.7073 7.70715 15.2326 7.70725 14.9396 8L12.0002 10.9395L9.00019 8C8.70734 7.70714 8.23255 7.70722 7.93965 8C7.64675 8.29289 7.64675 8.76765 7.93965 9.06055L10.9396 12L7.93965 14.9395C7.64675 15.2323 7.64675 15.7071 7.93965 16C8.23255 16.2927 8.70736 16.2928 9.00019 16L12.0002 13.0605L14.9396 16C15.2326 16.2927 15.7074 16.2928 16.0002 16C16.293 15.7072 16.2929 15.2323 16.0002 14.9395L13.0607 12L16.0002 9.06055C16.2929 8.76767 16.293 8.29285 16.0002 8Z" fill="var(--fill-color, #000000)"/>
</svg>
