<svg id="Capa_1" enable-background="new 0 0 791.454 791.454" viewBox="0 0 791.454 791.454" xmlns="http://www.w3.org/2000/svg"><g><g id="Vrstva_x0020_1_21_"><path clip-rule="evenodd" d="m202.808 0h264.609l224.265 233.758v454.661c0 56.956-46.079 103.035-102.838 103.035h-386.036c-56.956 0-103.035-46.079-103.035-103.035v-585.384c-.001-56.956 46.078-103.035 103.035-103.035z" fill="#ff9100" fill-rule="evenodd"/><g fill="#fff"><path clip-rule="evenodd" d="m467.219 0v231.978h224.463z" fill-rule="evenodd" opacity=".302"/><path d="m256.204 576.484c-14.635 0-27.292-4.351-38.169-13.25s-16.81-19.974-17.799-32.829l31.642-9.295c.791 7.12 3.56 13.052 8.702 17.601 4.944 4.746 10.877 6.922 17.206 6.922 5.34 0 9.69-.989 12.855-3.362 3.362-2.373 4.944-5.537 4.944-9.295 0-3.164-1.187-5.735-3.758-7.911-2.769-2.175-6.131-3.955-10.284-5.34s-8.702-2.769-13.844-4.153-10.284-3.164-15.426-5.34c-4.944-2.175-9.69-4.746-13.844-7.911-4.153-2.966-7.515-7.12-10.086-12.459-2.571-5.537-3.955-11.866-3.955-18.985 0-11.866 5.142-21.754 15.03-29.467 10.086-7.911 22.347-11.866 36.586-11.866 14.041 0 26.303 3.362 36.784 10.284 10.482 6.922 17.008 15.821 19.579 26.896l-32.829 13.646c-1.582-6.131-4.351-10.877-8.306-14.635-4.153-3.56-9.295-5.34-15.228-5.34-4.746 0-8.306.791-11.075 2.769-2.571 1.78-3.955 4.351-3.955 7.515 0 2.966 1.78 5.34 5.34 7.317 3.56 1.978 7.911 3.362 13.25 4.153 5.34.989 10.877 2.373 17.206 4.549 6.131 1.978 11.866 4.549 17.008 7.515 5.34 2.966 9.69 7.713 13.25 14.239s5.34 14.437 5.34 23.534c0 13.25-5.142 23.93-15.426 32.236-10.282 8.109-23.928 12.262-40.738 12.262zm217.343-6.328-22.545 20.37-19.381-20.765c-10.284 4.549-21.161 6.724-32.829 6.724-21.556 0-39.553-6.922-53.594-20.963-14.239-13.844-21.359-31.445-21.359-52.408 0-21.161 7.12-38.762 21.359-52.605 14.041-14.041 32.038-20.963 53.594-20.963 21.359 0 39.157 6.922 53.199 20.963 14.041 13.844 21.161 31.445 21.161 52.605 0 18.59-5.735 34.609-17.008 48.057zm-74.952-24.919c2.966 0 6.131-.198 9.295-.989l-20.963-22.545 22.941-20.568 21.754 23.732c3.362-6.922 4.944-14.239 4.944-21.754 0-12.261-3.56-22.347-10.679-30.456-7.12-7.911-16.217-11.866-27.292-11.866s-20.172 3.955-27.489 11.866c-7.12 8.108-10.679 18.194-10.679 30.456 0 12.064 3.56 22.15 10.679 30.258 7.317 7.911 16.414 11.866 27.489 11.866zm93.345 29.665v-143.775h36.784v112.528h62.494v31.247z"/></g></g></g></svg>