<svg width="94" height="77" viewBox="0 0 94 77" fill="none" xmlns="http://www.w3.org/2000/svg">
<path d="M87.1562 31.6806C87.2542 32.1006 87.4222 32.4296 87.6602 32.6676C87.8982 32.9056 88.1782 33.0806 88.5002 33.1926C88.8362 33.2906 89.1862 33.3396 89.5502 33.3396C90.1802 33.3396 90.6702 33.2136 91.0202 32.9616C91.3702 32.7096 91.5452 32.3946 91.5452 32.0166C91.5452 31.6946 91.4332 31.4426 91.2092 31.2606C90.9992 31.0646 90.7122 30.9106 90.3482 30.7986C89.9982 30.6866 89.6202 30.5816 89.2142 30.4836C88.8502 30.3856 88.4512 30.2736 88.0172 30.1476C87.5972 30.0216 87.1982 29.8536 86.8202 29.6436C86.4562 29.4196 86.1552 29.1396 85.9172 28.8036C85.6792 28.4536 85.5602 28.0126 85.5602 27.4806C85.5602 26.8506 85.7282 26.3046 86.0642 25.8426C86.4142 25.3666 86.8902 25.0026 87.4922 24.7506C88.1082 24.4846 88.8012 24.3516 89.5712 24.3516C90.4672 24.3516 91.2512 24.5476 91.9232 24.9396C92.6092 25.3176 93.1062 25.8916 93.4142 26.6616L91.6292 27.2496C91.5312 26.9836 91.3702 26.7666 91.1462 26.5986C90.9222 26.4306 90.6632 26.3186 90.3692 26.2626C90.0892 26.1926 89.8092 26.1576 89.5292 26.1576C88.9972 26.1576 88.5562 26.2626 88.2062 26.4726C87.8562 26.6826 87.6812 26.9906 87.6812 27.3966C87.6812 27.6206 87.7372 27.8096 87.8492 27.9636C87.9612 28.1036 88.1152 28.2226 88.3112 28.3206C88.5212 28.4046 88.7662 28.4816 89.0462 28.5516C89.3262 28.6216 89.6272 28.6986 89.9492 28.7826C90.3692 28.9086 90.7962 29.0486 91.2302 29.2026C91.6642 29.3426 92.0632 29.5246 92.4272 29.7486C92.7912 29.9726 93.0852 30.2666 93.3092 30.6306C93.5332 30.9946 93.6522 31.4426 93.6662 31.9746C93.6662 32.5906 93.4912 33.1366 93.1412 33.6126C92.8052 34.0886 92.3222 34.4666 91.6922 34.7466C91.0762 35.0126 90.3412 35.1456 89.4872 35.1456C88.4512 35.1456 87.5692 34.9146 86.8412 34.4526C86.1132 33.9906 85.6232 33.2766 85.3712 32.3106L87.1562 31.6806Z" fill="url(#paint0_linear_31063_32783)"/>
<path d="M81.8759 24.5H83.9339L77.8439 39.2H75.8909L77.7389 34.79L73.5809 24.5H75.7649L78.8099 32.459L81.8759 24.5Z" fill="url(#paint1_linear_31063_32783)"/>
<path d="M70.1828 34.9986L70.0148 33.4656C69.6928 33.9976 69.2728 34.4106 68.7548 34.7046C68.2508 34.9846 67.5928 35.1246 66.7808 35.1246C66.0248 35.1246 65.3808 35.0056 64.8488 34.7676C64.3168 34.5156 63.9038 34.1726 63.6098 33.7386C63.3298 33.2906 63.1898 32.7726 63.1898 32.1846C63.1898 31.3026 63.5188 30.5746 64.1768 30.0006C64.8348 29.4126 65.7868 29.0486 67.0328 28.9086L70.0148 28.5726V27.7536C70.0148 27.3056 69.8328 26.9276 69.4688 26.6196C69.1048 26.2976 68.5798 26.1366 67.8938 26.1366C67.2498 26.1366 66.7038 26.2906 66.2558 26.5986C65.8078 26.8926 65.5068 27.3336 65.3528 27.9216L63.5888 27.2916C63.8548 26.3676 64.3728 25.6466 65.1428 25.1286C65.9268 24.6106 66.8718 24.3516 67.9778 24.3516C69.2938 24.3516 70.2948 24.6806 70.9808 25.3386C71.6668 25.9966 72.0098 26.8646 72.0098 27.9426V34.9986H70.1828ZM70.0148 30.1896L67.1378 30.5466C66.5218 30.6306 66.0598 30.8056 65.7518 31.0716C65.4438 31.3236 65.2898 31.6596 65.2898 32.0796C65.2898 32.4716 65.4368 32.8006 65.7308 33.0666C66.0388 33.3186 66.4658 33.4446 67.0118 33.4446C67.6838 33.4446 68.2438 33.3186 68.6918 33.0666C69.1398 32.8146 69.4688 32.4646 69.6788 32.0166C69.9028 31.5546 70.0148 31.0226 70.0148 30.4206V30.1896Z" fill="url(#paint2_linear_31063_32783)"/>
<path d="M58.871 26.2839L58.64 26.3469V19.8789H60.635V34.9989H58.829L58.682 33.4239C58.332 33.8999 57.856 34.3059 57.254 34.6419C56.666 34.9779 55.945 35.1459 55.091 35.1459C54.139 35.1459 53.306 34.9219 52.592 34.4739C51.892 34.0259 51.339 33.3959 50.933 32.5839C50.541 31.7719 50.345 30.8269 50.345 29.7489C50.345 28.6709 50.541 27.7259 50.933 26.9139C51.339 26.1019 51.892 25.4719 52.592 25.0239C53.306 24.5759 54.139 24.3519 55.091 24.3519C56.001 24.3519 56.771 24.5409 57.401 24.9189C58.045 25.2829 58.535 25.7379 58.871 26.2839ZM52.466 29.7489C52.466 30.8269 52.746 31.6949 53.306 32.3529C53.866 33.0109 54.615 33.3399 55.553 33.3399C56.127 33.3399 56.645 33.1999 57.107 32.9199C57.569 32.6399 57.94 32.2339 58.22 31.7019C58.5 31.1559 58.64 30.5049 58.64 29.7489C58.64 28.9929 58.5 28.3489 58.22 27.8169C57.94 27.2849 57.569 26.8789 57.107 26.5989C56.645 26.3049 56.127 26.1579 55.553 26.1579C54.629 26.1579 53.88 26.4869 53.306 27.1449C52.746 27.8029 52.466 28.6709 52.466 29.7489Z" fill="url(#paint3_linear_31063_32783)"/>
<path d="M5.1198 4.47242H9.91821e-05V0H10.509V37.2702H5.1198V4.47242Z" fill="url(#paint4_linear_31063_32783)"/>
<path d="M42.8983 0V4.47242H24.6829V15.6002C25.4374 14.5709 26.5332 13.7367 27.9703 13.0978C29.4074 12.4589 31.0421 12.1394 32.8744 12.1394C35.2097 12.1394 37.1678 12.5299 38.7486 13.3108C40.3294 14.0917 41.6049 15.1033 42.5749 16.3456C43.5809 17.588 44.2995 18.9368 44.7306 20.3921C45.1976 21.8119 45.4312 23.1785 45.4312 24.4918C45.4312 26.9055 44.9102 29.1062 43.8683 31.094C42.8623 33.0817 41.3534 34.679 39.3414 35.8859C37.3295 37.0572 34.8864 37.6429 32.0122 37.6429C29.4254 37.6429 27.1619 37.1992 25.2218 36.3118C23.3177 35.3889 21.7907 34.1466 20.641 32.5848C19.5273 30.9875 18.8087 29.1772 18.4854 27.154H23.7129C24.1799 28.9998 25.132 30.4551 26.5691 31.5199C28.0422 32.5493 29.8745 33.064 32.0661 33.064C33.8624 33.064 35.3535 32.709 36.5391 31.9991C37.7247 31.2892 38.5869 30.3131 39.1259 29.0708C39.7007 27.7929 39.9881 26.3021 39.9881 24.5983C39.9881 22.1136 39.3055 20.1791 37.9402 18.7948C36.575 17.4105 34.6349 16.7183 32.12 16.7183C30.2158 16.7183 28.599 17.162 27.2697 18.0494C25.9404 18.9368 24.9883 20.1437 24.4135 21.67H19.3476V0H42.8983Z" fill="url(#paint5_linear_31063_32783)"/>
<g style="mix-blend-mode:darken">
<path d="M37 53.5H56C62.3513 53.5 67.5 58.6487 67.5 65C67.5 71.3513 62.3513 76.5 56 76.5H37C30.6487 76.5 25.5 71.3513 25.5 65C25.5 58.6487 30.6487 53.5 37 53.5Z" stroke="#0058CC"/>
<path d="M34.613 62.5V60.4H36.038V62.5H37.913V63.76H36.038V67.45C36.038 67.91 36.128 68.235 36.308 68.425C36.498 68.615 36.733 68.725 37.013 68.755C37.303 68.775 37.603 68.765 37.913 68.725V69.94C37.503 70.03 37.098 70.055 36.698 70.015C36.308 69.985 35.953 69.875 35.633 69.685C35.323 69.495 35.073 69.22 34.883 68.86C34.703 68.49 34.613 68.02 34.613 67.45V63.76H33.533V62.5H34.613ZM39.6444 62.5H40.9344L41.0244 63.505C41.2344 63.245 41.4744 63.03 41.7444 62.86C42.0244 62.68 42.3244 62.555 42.6444 62.485C42.9744 62.415 43.3144 62.42 43.6644 62.5V63.835C43.3344 63.755 43.0144 63.745 42.7044 63.805C42.3944 63.865 42.1144 63.995 41.8644 64.195C41.6244 64.385 41.4294 64.64 41.2794 64.96C41.1294 65.28 41.0544 65.665 41.0544 66.115V70H39.6444V62.5ZM45.4686 62.5H46.8936V70H45.4686V62.5ZM46.1886 61.18C45.9186 61.18 45.6936 61.09 45.5136 60.91C45.3336 60.73 45.2436 60.51 45.2436 60.25C45.2436 59.98 45.3336 59.755 45.5136 59.575C45.6936 59.385 45.9186 59.29 46.1886 59.29C46.4486 59.29 46.6686 59.385 46.8486 59.575C47.0386 59.755 47.1336 59.98 47.1336 60.25C47.1336 60.51 47.0386 60.73 46.8486 60.91C46.6686 61.09 46.4486 61.18 46.1886 61.18ZM53.9822 70L53.8622 68.905C53.6322 69.285 53.3322 69.58 52.9622 69.79C52.6022 69.99 52.1322 70.09 51.5522 70.09C51.0122 70.09 50.5522 70.005 50.1722 69.835C49.7922 69.655 49.4972 69.41 49.2872 69.1C49.0872 68.78 48.9872 68.41 48.9872 67.99C48.9872 67.36 49.2222 66.84 49.6922 66.43C50.1622 66.01 50.8422 65.75 51.7322 65.65L53.8622 65.41V64.825C53.8622 64.505 53.7322 64.235 53.4722 64.015C53.2122 63.785 52.8372 63.67 52.3472 63.67C51.8872 63.67 51.4972 63.78 51.1772 64C50.8572 64.21 50.6422 64.525 50.5322 64.945L49.2722 64.495C49.4622 63.835 49.8322 63.32 50.3822 62.95C50.9422 62.58 51.6172 62.395 52.4072 62.395C53.3472 62.395 54.0622 62.63 54.5522 63.1C55.0422 63.57 55.2872 64.19 55.2872 64.96V70H53.9822ZM53.8622 66.565L51.8072 66.82C51.3672 66.88 51.0372 67.005 50.8172 67.195C50.5972 67.375 50.4872 67.615 50.4872 67.915C50.4872 68.195 50.5922 68.43 50.8022 68.62C51.0222 68.8 51.3272 68.89 51.7172 68.89C52.1972 68.89 52.5972 68.8 52.9172 68.62C53.2372 68.44 53.4722 68.19 53.6222 67.87C53.7822 67.54 53.8622 67.16 53.8622 66.73V66.565ZM57.4674 59.2H58.8774V70H57.4674V59.2Z" fill="#0058CC"/>
</g>
<defs>
<linearGradient id="paint0_linear_31063_32783" x1="85.2521" y1="24.1778" x2="96.0915" y2="27.7164" gradientUnits="userSpaceOnUse">
<stop stop-color="#4092FF"/>
<stop offset="1" stop-color="#0058CC"/>
</linearGradient>
<linearGradient id="paint1_linear_31063_32783" x1="73.4324" y1="24.2633" x2="87.1729" y2="28.3743" gradientUnits="userSpaceOnUse">
<stop stop-color="#4092FF"/>
<stop offset="1" stop-color="#0058CC"/>
</linearGradient>
<linearGradient id="paint2_linear_31063_32783" x1="63.0633" y1="24.1781" x2="74.4407" y2="28.1352" gradientUnits="userSpaceOnUse">
<stop stop-color="#4092FF"/>
<stop offset="1" stop-color="#0058CC"/>
</linearGradient>
<linearGradient id="paint3_linear_31063_32783" x1="50.1973" y1="19.6331" x2="63.9493" y2="23.5706" gradientUnits="userSpaceOnUse">
<stop stop-color="#4092FF"/>
<stop offset="1" stop-color="#0058CC"/>
</linearGradient>
<linearGradient id="paint4_linear_31063_32783" x1="-0.651782" y1="-0.606115" x2="51.3675" y2="26.0644" gradientUnits="userSpaceOnUse">
<stop stop-color="#4092FF"/>
<stop offset="1" stop-color="#0058CC"/>
</linearGradient>
<linearGradient id="paint5_linear_31063_32783" x1="-0.651782" y1="-0.606115" x2="51.3675" y2="26.0644" gradientUnits="userSpaceOnUse">
<stop stop-color="#4092FF"/>
<stop offset="1" stop-color="#0058CC"/>
</linearGradient>
</defs>
</svg>
