<svg width="100" height="77" viewBox="0 0 100 77" fill="none" xmlns="http://www.w3.org/2000/svg">
<path d="M93.3279 31.7638C93.4249 32.1792 93.591 32.5046 93.8264 32.7399C94.0618 32.9753 94.3387 33.1484 94.6571 33.2592C94.9894 33.3561 95.3356 33.4045 95.6956 33.4045C96.3186 33.4045 96.8032 33.2799 97.1493 33.0307C97.4955 32.7815 97.6686 32.47 97.6686 32.0961C97.6686 31.7777 97.5578 31.5285 97.3363 31.3485C97.1286 31.1546 96.8447 31.0023 96.4848 30.8916C96.1386 30.7808 95.7648 30.6769 95.3633 30.58C95.0033 30.4831 94.6087 30.3723 94.1795 30.2477C93.7641 30.1231 93.3695 29.957 92.9956 29.7493C92.6357 29.5278 92.338 29.2508 92.1026 28.9185C91.8672 28.5724 91.7495 28.1363 91.7495 27.6101C91.7495 26.9871 91.9157 26.4471 92.248 25.9902C92.5941 25.5194 93.0649 25.1594 93.6602 24.9102C94.2695 24.6472 94.9548 24.5156 95.7163 24.5156C96.6024 24.5156 97.3778 24.7095 98.0424 25.0971C98.7208 25.471 99.2124 26.0386 99.517 26.8002L97.7516 27.3817C97.6547 27.1186 97.4955 26.904 97.274 26.7379C97.0524 26.5717 96.7963 26.4609 96.5055 26.4056C96.2286 26.3363 95.9517 26.3017 95.6748 26.3017C95.1486 26.3017 94.7125 26.4056 94.3664 26.6132C94.0202 26.8209 93.8472 27.1255 93.8472 27.5271C93.8472 27.7486 93.9025 27.9355 94.0133 28.0878C94.1241 28.2263 94.2764 28.344 94.4702 28.4409C94.6779 28.5239 94.9202 28.6001 95.1971 28.6693C95.474 28.7386 95.7717 28.8147 96.0902 28.8978C96.5055 29.0224 96.9278 29.1608 97.357 29.3131C97.7862 29.4516 98.1808 29.6316 98.5408 29.8531C98.9008 30.0747 99.1916 30.3654 99.4131 30.7254C99.6346 31.0854 99.7523 31.5285 99.7662 32.0546C99.7662 32.6638 99.5931 33.2038 99.247 33.6745C98.9147 34.1453 98.437 34.5191 97.8139 34.796C97.2047 35.0591 96.4778 35.1906 95.6332 35.1906C94.6087 35.1906 93.7364 34.9622 93.0164 34.5053C92.2964 34.0484 91.8118 33.3422 91.5626 32.3869L93.3279 31.7638Z" fill="url(#paint0_linear_31063_32773)"/>
<path d="M83.9711 24.6589H85.7572L85.8818 26.0504C86.1725 25.6904 86.5048 25.3927 86.8787 25.1574C87.2664 24.9081 87.6817 24.7351 88.1248 24.6382C88.5817 24.5412 89.0524 24.5482 89.537 24.6589V26.5073C89.0801 26.3966 88.6371 26.3827 88.2079 26.4658C87.7786 26.5489 87.391 26.7289 87.0448 27.0058C86.7125 27.2688 86.4425 27.6219 86.2348 28.065C86.0272 28.508 85.9233 29.0411 85.9233 29.6641V35.0432H83.9711V24.6589Z" fill="url(#paint1_linear_31063_32773)"/>
<path d="M80.3616 35.0483H78.5755L78.4301 33.823C78.0978 34.266 77.6755 34.6052 77.1633 34.8406C76.6648 35.076 76.1041 35.1937 75.481 35.1937C74.678 35.1937 73.9787 35.0275 73.3834 34.6952C72.788 34.3491 72.3242 33.8507 71.9919 33.1999C71.6734 32.5353 71.5142 31.7115 71.5142 30.7285V24.6641H73.4872V30.4792C73.4872 31.4346 73.6811 32.1615 74.0687 32.6599C74.4703 33.1584 75.0726 33.4076 75.8756 33.4076C76.6648 33.4076 77.2809 33.1515 77.724 32.6392C78.1809 32.1269 78.4094 31.3654 78.4094 30.3546V24.6641H80.3616V35.0483Z" fill="url(#paint2_linear_31063_32773)"/>
<path d="M63.3498 35.1906C62.3667 35.1906 61.4806 34.976 60.6914 34.5468C59.916 34.1037 59.3068 33.4876 58.8638 32.6984C58.4207 31.8954 58.1992 30.9539 58.1992 29.8739C58.1992 28.7801 58.4276 27.8317 58.8845 27.0286C59.3414 26.2256 59.9645 25.6094 60.7537 25.1802C61.5429 24.7372 62.429 24.5156 63.4121 24.5156C64.3951 24.5156 65.2812 24.7372 66.0704 25.1802C66.8735 25.6094 67.5035 26.2256 67.9604 27.0286C68.4173 27.8178 68.6457 28.7524 68.6457 29.8324C68.6457 30.9262 68.4103 31.8746 67.9396 32.6776C67.4827 33.4807 66.8527 34.1037 66.0497 34.5468C65.2466 34.976 64.3466 35.1906 63.3498 35.1906ZM63.329 33.4045C63.8828 33.4045 64.402 33.2799 64.8866 33.0307C65.3712 32.7676 65.7658 32.373 66.0704 31.8469C66.3889 31.3208 66.5481 30.6493 66.5481 29.8324C66.5481 29.0293 66.3958 28.3716 66.0912 27.8594C65.8004 27.3332 65.4128 26.9455 64.9282 26.6963C64.4436 26.4332 63.9244 26.3017 63.3705 26.3017C62.8305 26.3017 62.3252 26.4332 61.8544 26.6963C61.3975 26.9455 61.0237 27.3332 60.7329 27.8594C60.4422 28.3855 60.2968 29.057 60.2968 29.8739C60.2968 30.6769 60.4352 31.3415 60.7122 31.8677C61.0029 32.38 61.3768 32.7676 61.8337 33.0307C62.2906 33.2799 62.789 33.4045 63.329 33.4045Z" fill="url(#paint3_linear_31063_32773)"/>
<path d="M52.9662 34.5243V24.6593H54.9392V34.5451C54.9392 35.5143 54.7384 36.3381 54.3369 37.0166C53.9492 37.7088 53.4369 38.235 52.8 38.595C52.177 38.9688 51.5054 39.1696 50.7855 39.1972L50.4739 37.4735C51.277 37.4042 51.8931 37.1066 52.3223 36.5804C52.7515 36.0681 52.9662 35.3828 52.9662 34.5243ZM53.9423 22.8317C54.3161 22.8317 54.6276 22.7071 54.8769 22.4578C55.1261 22.2086 55.2507 21.904 55.2507 21.544C55.2507 21.1702 55.1261 20.8587 54.8769 20.6094C54.6276 20.3464 54.3161 20.2148 53.9423 20.2148C53.5823 20.2148 53.2708 20.3464 53.0077 20.6094C52.7585 20.8587 52.6339 21.1702 52.6339 21.544C52.6339 21.904 52.7585 22.2086 53.0077 22.4578C53.2708 22.7071 53.5823 22.8317 53.9423 22.8317Z" fill="url(#paint4_linear_31063_32773)"/>
<path d="M5.11979 4.47242H9.15527e-05V0H10.5089V37.2702H5.11979V4.47242Z" fill="url(#paint5_linear_31063_32773)"/>
<path d="M42.8983 0V4.47242H24.6829V15.6002C25.4374 14.5709 26.5332 13.7367 27.9703 13.0978C29.4074 12.4589 31.0421 12.1394 32.8744 12.1394C35.2097 12.1394 37.1678 12.5299 38.7486 13.3108C40.3294 14.0917 41.6049 15.1033 42.5749 16.3456C43.5809 17.588 44.2994 18.9368 44.7306 20.3921C45.1976 21.8119 45.4312 23.1785 45.4312 24.4918C45.4312 26.9055 44.9102 29.1062 43.8683 31.094C42.8623 33.0817 41.3534 34.679 39.3414 35.8859C37.3295 37.0572 34.8864 37.6429 32.0122 37.6429C29.4254 37.6429 27.1619 37.1992 25.2218 36.3118C23.3177 35.3889 21.7907 34.1466 20.641 32.5848C19.5273 30.9875 18.8087 29.1772 18.4854 27.154H23.7129C24.1799 28.9998 25.132 30.4551 26.5691 31.5199C28.0421 32.5493 29.8745 33.064 32.0661 33.064C33.8624 33.064 35.3534 32.709 36.5391 31.9991C37.7247 31.2892 38.5869 30.3131 39.1259 29.0708C39.7007 27.7929 39.9881 26.3021 39.9881 24.5983C39.9881 22.1136 39.3055 20.1791 37.9402 18.7948C36.575 17.4105 34.6349 16.7183 32.1199 16.7183C30.2158 16.7183 28.599 17.162 27.2697 18.0494C25.9404 18.9368 24.9883 20.1437 24.4134 21.67H19.3476V0H42.8983Z" fill="url(#paint6_linear_31063_32773)"/>
<g style="mix-blend-mode:darken">
<path d="M37 53.5H65C71.3513 53.5 76.5 58.6487 76.5 65C76.5 71.3513 71.3513 76.5 65 76.5H37C30.6487 76.5 25.5 71.3513 25.5 65C25.5 58.6487 30.6487 53.5 37 53.5Z" stroke="#0058CC"/>
<path d="M37.64 70.105C36.92 70.105 36.28 69.94 35.72 69.61C35.17 69.27 34.735 68.805 34.415 68.215C34.105 67.625 33.95 66.95 33.95 66.19C33.95 65.46 34.105 64.81 34.415 64.24C34.725 63.67 35.15 63.22 35.69 62.89C36.24 62.56 36.86 62.395 37.55 62.395C38.25 62.395 38.87 62.55 39.41 62.86C39.95 63.16 40.37 63.585 40.67 64.135C40.97 64.675 41.115 65.3 41.105 66.01C41.105 66.13 41.1 66.255 41.09 66.385C41.08 66.505 41.065 66.64 41.045 66.79H35.495C35.525 67.19 35.635 67.545 35.825 67.855C36.025 68.155 36.275 68.39 36.575 68.56C36.885 68.73 37.235 68.815 37.625 68.815C38.125 68.815 38.56 68.72 38.93 68.53C39.3 68.33 39.56 68.065 39.71 67.735L40.94 68.17C40.64 68.78 40.2 69.255 39.62 69.595C39.05 69.935 38.39 70.105 37.64 70.105ZM39.56 65.575C39.56 65.215 39.47 64.89 39.29 64.6C39.11 64.31 38.865 64.085 38.555 63.925C38.255 63.755 37.915 63.67 37.535 63.67C37.195 63.67 36.88 63.755 36.59 63.925C36.31 64.085 36.07 64.31 35.87 64.6C35.68 64.88 35.56 65.205 35.51 65.575H39.56ZM43.8271 67.63C43.8971 67.93 44.0171 68.165 44.1871 68.335C44.3571 68.505 44.5571 68.63 44.7871 68.71C45.0271 68.78 45.2771 68.815 45.5371 68.815C45.9871 68.815 46.3371 68.725 46.5871 68.545C46.8371 68.365 46.9621 68.14 46.9621 67.87C46.9621 67.64 46.8821 67.46 46.7221 67.33C46.5721 67.19 46.3671 67.08 46.1071 67C45.8571 66.92 45.5871 66.845 45.2971 66.775C45.0371 66.705 44.7521 66.625 44.4421 66.535C44.1421 66.445 43.8571 66.325 43.5871 66.175C43.3271 66.015 43.1121 65.815 42.9421 65.575C42.7721 65.325 42.6871 65.01 42.6871 64.63C42.6871 64.18 42.8071 63.79 43.0471 63.46C43.2971 63.12 43.6371 62.86 44.0671 62.68C44.5071 62.49 45.0021 62.395 45.5521 62.395C46.1921 62.395 46.7521 62.535 47.2321 62.815C47.7221 63.085 48.0771 63.495 48.2971 64.045L47.0221 64.465C46.9521 64.275 46.8371 64.12 46.6771 64C46.5171 63.88 46.3321 63.8 46.1221 63.76C45.9221 63.71 45.7221 63.685 45.5221 63.685C45.1421 63.685 44.8271 63.76 44.5771 63.91C44.3271 64.06 44.2021 64.28 44.2021 64.57C44.2021 64.73 44.2421 64.865 44.3221 64.975C44.4021 65.075 44.5121 65.16 44.6521 65.23C44.8021 65.29 44.9771 65.345 45.1771 65.395C45.3771 65.445 45.5921 65.5 45.8221 65.56C46.1221 65.65 46.4271 65.75 46.7371 65.86C47.0471 65.96 47.3321 66.09 47.5921 66.25C47.8521 66.41 48.0621 66.62 48.2221 66.88C48.3821 67.14 48.4671 67.46 48.4771 67.84C48.4771 68.28 48.3521 68.67 48.1021 69.01C47.8621 69.35 47.5171 69.62 47.0671 69.82C46.6271 70.01 46.1021 70.105 45.4921 70.105C44.7521 70.105 44.1221 69.94 43.6021 69.61C43.0821 69.28 42.7321 68.77 42.5521 68.08L43.8271 67.63ZM51.1842 67.63C51.2542 67.93 51.3742 68.165 51.5442 68.335C51.7142 68.505 51.9142 68.63 52.1442 68.71C52.3842 68.78 52.6342 68.815 52.8942 68.815C53.3442 68.815 53.6942 68.725 53.9442 68.545C54.1942 68.365 54.3192 68.14 54.3192 67.87C54.3192 67.64 54.2392 67.46 54.0792 67.33C53.9292 67.19 53.7242 67.08 53.4642 67C53.2142 66.92 52.9442 66.845 52.6542 66.775C52.3942 66.705 52.1092 66.625 51.7992 66.535C51.4992 66.445 51.2142 66.325 50.9442 66.175C50.6842 66.015 50.4692 65.815 50.2992 65.575C50.1292 65.325 50.0442 65.01 50.0442 64.63C50.0442 64.18 50.1642 63.79 50.4042 63.46C50.6542 63.12 50.9942 62.86 51.4242 62.68C51.8642 62.49 52.3592 62.395 52.9092 62.395C53.5492 62.395 54.1092 62.535 54.5892 62.815C55.0792 63.085 55.4342 63.495 55.6542 64.045L54.3792 64.465C54.3092 64.275 54.1942 64.12 54.0342 64C53.8742 63.88 53.6892 63.8 53.4792 63.76C53.2792 63.71 53.0792 63.685 52.8792 63.685C52.4992 63.685 52.1842 63.76 51.9342 63.91C51.6842 64.06 51.5592 64.28 51.5592 64.57C51.5592 64.73 51.5992 64.865 51.6792 64.975C51.7592 65.075 51.8692 65.16 52.0092 65.23C52.1592 65.29 52.3342 65.345 52.5342 65.395C52.7342 65.445 52.9492 65.5 53.1792 65.56C53.4792 65.65 53.7842 65.75 54.0942 65.86C54.4042 65.96 54.6892 66.09 54.9492 66.25C55.2092 66.41 55.4192 66.62 55.5792 66.88C55.7392 67.14 55.8242 67.46 55.8342 67.84C55.8342 68.28 55.7092 68.67 55.4592 69.01C55.2192 69.35 54.8742 69.62 54.4242 69.82C53.9842 70.01 53.4592 70.105 52.8492 70.105C52.1092 70.105 51.4792 69.94 50.9592 69.61C50.4392 69.28 50.0892 68.77 49.9092 68.08L51.1842 67.63ZM62.2762 70L62.1562 68.905C61.9262 69.285 61.6262 69.58 61.2562 69.79C60.8962 69.99 60.4262 70.09 59.8462 70.09C59.3062 70.09 58.8462 70.005 58.4662 69.835C58.0862 69.655 57.7912 69.41 57.5812 69.1C57.3812 68.78 57.2812 68.41 57.2812 67.99C57.2812 67.36 57.5162 66.84 57.9862 66.43C58.4562 66.01 59.1362 65.75 60.0262 65.65L62.1562 65.41V64.825C62.1562 64.505 62.0262 64.235 61.7662 64.015C61.5062 63.785 61.1312 63.67 60.6412 63.67C60.1812 63.67 59.7912 63.78 59.4712 64C59.1512 64.21 58.9362 64.525 58.8262 64.945L57.5662 64.495C57.7562 63.835 58.1262 63.32 58.6762 62.95C59.2362 62.58 59.9112 62.395 60.7012 62.395C61.6412 62.395 62.3562 62.63 62.8462 63.1C63.3362 63.57 63.5812 64.19 63.5812 64.96V70H62.2762ZM62.1562 66.565L60.1012 66.82C59.6612 66.88 59.3312 67.005 59.1112 67.195C58.8912 67.375 58.7812 67.615 58.7812 67.915C58.7812 68.195 58.8862 68.43 59.0962 68.62C59.3162 68.8 59.6212 68.89 60.0112 68.89C60.4912 68.89 60.8912 68.8 61.2112 68.62C61.5312 68.44 61.7662 68.19 61.9162 67.87C62.0762 67.54 62.1562 67.16 62.1562 66.73V66.565ZM65.9863 62.5H67.4113V70H65.9863V62.5ZM66.7063 61.18C66.4363 61.18 66.2113 61.09 66.0313 60.91C65.8513 60.73 65.7613 60.51 65.7613 60.25C65.7613 59.98 65.8513 59.755 66.0313 59.575C66.2113 59.385 66.4363 59.29 66.7063 59.29C66.9663 59.29 67.1863 59.385 67.3663 59.575C67.5563 59.755 67.6513 59.98 67.6513 60.25C67.6513 60.51 67.5563 60.73 67.3663 60.91C67.1863 61.09 66.9663 61.18 66.7063 61.18Z" fill="#0058CC"/>
</g>
<defs>
<linearGradient id="paint0_linear_31063_32773" x1="91.4449" y1="24.3437" x2="102.165" y2="27.8434" gradientUnits="userSpaceOnUse">
<stop stop-color="#4092FF"/>
<stop offset="1" stop-color="#0058CC"/>
</linearGradient>
<linearGradient id="paint1_linear_31063_32773" x1="83.8912" y1="24.4017" x2="91.5492" y2="26.1307" gradientUnits="userSpaceOnUse">
<stop stop-color="#4092FF"/>
<stop offset="1" stop-color="#0058CC"/>
</linearGradient>
<linearGradient id="paint2_linear_31063_32773" x1="71.3873" y1="24.4945" x2="82.7348" y2="28.5449" gradientUnits="userSpaceOnUse">
<stop stop-color="#4092FF"/>
<stop offset="1" stop-color="#0058CC"/>
</linearGradient>
<linearGradient id="paint3_linear_31063_32773" x1="58.0493" y1="24.3437" x2="70.9291" y2="29.6981" gradientUnits="userSpaceOnUse">
<stop stop-color="#4092FF"/>
<stop offset="1" stop-color="#0058CC"/>
</linearGradient>
<linearGradient id="paint4_linear_31063_32773" x1="50.4054" y1="19.9092" x2="57.2345" y2="20.6392" gradientUnits="userSpaceOnUse">
<stop stop-color="#4092FF"/>
<stop offset="1" stop-color="#0058CC"/>
</linearGradient>
<linearGradient id="paint5_linear_31063_32773" x1="-0.651789" y1="-0.606115" x2="51.3675" y2="26.0644" gradientUnits="userSpaceOnUse">
<stop stop-color="#4092FF"/>
<stop offset="1" stop-color="#0058CC"/>
</linearGradient>
<linearGradient id="paint6_linear_31063_32773" x1="-0.651789" y1="-0.606115" x2="51.3675" y2="26.0644" gradientUnits="userSpaceOnUse">
<stop stop-color="#4092FF"/>
<stop offset="1" stop-color="#0058CC"/>
</linearGradient>
</defs>
</svg>
