<svg width="156" height="133" viewBox="0 0 156 133" fill="none" xmlns="http://www.w3.org/2000/svg">
<g style="mix-blend-mode:darken" filter="url(#filter0_di_30685_32517)">
<rect x="26.2103" width="133.348" height="101.269" rx="39" transform="rotate(15 26.2103 0)" fill="#E5F1FF"/>
</g>
<path d="M62.075 38.28H57.8V34.5H66.575V66H62.075V38.28Z" fill="url(#paint0_linear_30685_32517)"/>
<path d="M93.6204 34.5V38.28H78.4104V47.685C79.0404 46.815 79.9554 46.11 81.1554 45.57C82.3554 45.03 83.7204 44.76 85.2504 44.76C87.2004 44.76 88.8354 45.09 90.1554 45.75C91.4754 46.41 92.5404 47.265 93.3504 48.315C94.1904 49.365 94.7904 50.505 95.1504 51.735C95.5404 52.935 95.7354 54.09 95.7354 55.2C95.7354 57.24 95.3004 59.1 94.4304 60.78C93.5904 62.46 92.3304 63.81 90.6504 64.83C88.9704 65.82 86.9304 66.315 84.5304 66.315C82.3704 66.315 80.4804 65.94 78.8604 65.19C77.2704 64.41 75.9954 63.36 75.0354 62.04C74.1054 60.69 73.5054 59.16 73.2354 57.45H77.6004C77.9904 59.01 78.7854 60.24 79.9854 61.14C81.2154 62.01 82.7454 62.445 84.5754 62.445C86.0754 62.445 87.3204 62.145 88.3104 61.545C89.3004 60.945 90.0204 60.12 90.4704 59.07C90.9504 57.99 91.1904 56.73 91.1904 55.29C91.1904 53.19 90.6204 51.555 89.4804 50.385C88.3404 49.215 86.7204 48.63 84.6204 48.63C83.0304 48.63 81.6804 49.005 80.5704 49.755C79.4604 50.505 78.6654 51.525 78.1854 52.815H73.9554V34.5H93.6204Z" fill="url(#paint1_linear_30685_32517)"/>
<path d="M27.1725 91.8949V84.2949H28.6925V91.9109C28.6925 92.6575 28.5379 93.2922 28.2285 93.8149C27.9299 94.3482 27.5352 94.7535 27.0445 95.0309C26.5645 95.3189 26.0472 95.4735 25.4925 95.4949L25.2525 94.1669C25.8712 94.1135 26.3459 93.8842 26.6765 93.4789C27.0072 93.0842 27.1725 92.5562 27.1725 91.8949ZM27.9245 82.8869C28.2125 82.8869 28.4525 82.7909 28.6445 82.5989C28.8365 82.4069 28.9325 82.1722 28.9325 81.8949C28.9325 81.6069 28.8365 81.3669 28.6445 81.1749C28.4525 80.9722 28.2125 80.8709 27.9245 80.8709C27.6472 80.8709 27.4072 80.9722 27.2045 81.1749C27.0125 81.3669 26.9165 81.6069 26.9165 81.8949C26.9165 82.1722 27.0125 82.4069 27.2045 82.5989C27.4072 82.7909 27.6472 82.8869 27.9245 82.8869Z" fill="url(#paint2_linear_30685_32517)"/>
<path d="M34.922 92.4069C34.1647 92.4069 33.482 92.2415 32.874 91.9109C32.2767 91.5695 31.8074 91.0949 31.466 90.4869C31.1247 89.8682 30.954 89.1429 30.954 88.3109C30.954 87.4682 31.13 86.7375 31.482 86.1189C31.834 85.5002 32.314 85.0255 32.922 84.6949C33.53 84.3535 34.2127 84.1829 34.97 84.1829C35.7274 84.1829 36.41 84.3535 37.018 84.6949C37.6367 85.0255 38.122 85.5002 38.474 86.1189C38.826 86.7269 39.002 87.4469 39.002 88.2789C39.002 89.1215 38.8207 89.8522 38.458 90.4709C38.106 91.0895 37.6207 91.5695 37.002 91.9109C36.3834 92.2415 35.69 92.4069 34.922 92.4069ZM34.906 91.0309C35.3327 91.0309 35.7327 90.9349 36.106 90.7429C36.4794 90.5402 36.7834 90.2362 37.018 89.8309C37.2634 89.4255 37.386 88.9082 37.386 88.2789C37.386 87.6602 37.2687 87.1535 37.034 86.7589C36.81 86.3535 36.5114 86.0549 36.138 85.8629C35.7647 85.6602 35.3647 85.5589 34.938 85.5589C34.522 85.5589 34.1327 85.6602 33.77 85.8629C33.418 86.0549 33.13 86.3535 32.906 86.7589C32.682 87.1642 32.57 87.6815 32.57 88.3109C32.57 88.9295 32.6767 89.4415 32.89 89.8469C33.114 90.2415 33.402 90.5402 33.754 90.7429C34.106 90.9349 34.49 91.0309 34.906 91.0309Z" fill="url(#paint3_linear_30685_32517)"/>
<path d="M47.7779 92.2949H46.4019L46.2899 91.3509C46.0339 91.6922 45.7086 91.9535 45.3139 92.1349C44.9299 92.3162 44.4979 92.4069 44.0179 92.4069C43.3992 92.4069 42.8606 92.2789 42.4019 92.0229C41.9432 91.7562 41.5859 91.3722 41.3299 90.8709C41.0846 90.3589 40.9619 89.7242 40.9619 88.9669V84.2949H42.4819V88.7749C42.4819 89.5109 42.6312 90.0709 42.9299 90.4549C43.2392 90.8389 43.7032 91.0309 44.3219 91.0309C44.9299 91.0309 45.4046 90.8335 45.7459 90.4389C46.0979 90.0442 46.2739 89.4575 46.2739 88.6789V84.2949H47.7779V92.2949Z" fill="url(#paint4_linear_30685_32517)"/>
<path d="M50.3086 84.2949H51.6846L51.7806 85.3669C52.0046 85.0895 52.2606 84.8602 52.5486 84.6789C52.8473 84.4869 53.1673 84.3535 53.5086 84.2789C53.8606 84.2042 54.2233 84.2095 54.5966 84.2949V85.7189C54.2446 85.6335 53.9033 85.6229 53.5726 85.6869C53.242 85.7509 52.9433 85.8895 52.6766 86.1029C52.4206 86.3055 52.2126 86.5775 52.0526 86.9189C51.8926 87.2602 51.8126 87.6709 51.8126 88.1509V92.2949H50.3086V84.2949Z" fill="url(#paint5_linear_30685_32517)"/>
<path d="M57.2671 89.7669C57.3418 90.0869 57.4698 90.3375 57.6511 90.5189C57.8325 90.7002 58.0458 90.8335 58.2911 90.9189C58.5471 90.9935 58.8138 91.0309 59.0911 91.0309C59.5711 91.0309 59.9445 90.9349 60.2111 90.7429C60.4778 90.5509 60.6111 90.3109 60.6111 90.0229C60.6111 89.7775 60.5258 89.5855 60.3551 89.4469C60.1951 89.2975 59.9765 89.1802 59.6991 89.0949C59.4325 89.0095 59.1445 88.9295 58.8351 88.8549C58.5578 88.7802 58.2538 88.6949 57.9231 88.5989C57.6031 88.5029 57.2991 88.3749 57.0111 88.2149C56.7338 88.0442 56.5045 87.8309 56.3231 87.5749C56.1418 87.3082 56.0511 86.9722 56.0511 86.5669C56.0511 86.0869 56.1791 85.6709 56.4351 85.3189C56.7018 84.9562 57.0645 84.6789 57.5231 84.4869C57.9925 84.2842 58.5205 84.1829 59.1071 84.1829C59.7898 84.1829 60.3871 84.3322 60.8991 84.6309C61.4218 84.9189 61.8005 85.3562 62.0351 85.9429L60.6751 86.3909C60.6005 86.1882 60.4778 86.0229 60.3071 85.8949C60.1365 85.7669 59.9391 85.6815 59.7151 85.6389C59.5018 85.5855 59.2885 85.5589 59.0751 85.5589C58.6698 85.5589 58.3338 85.6389 58.0671 85.7989C57.8005 85.9589 57.6671 86.1935 57.6671 86.5029C57.6671 86.6735 57.7098 86.8175 57.7951 86.9349C57.8805 87.0415 57.9978 87.1322 58.1471 87.2069C58.3071 87.2709 58.4938 87.3295 58.7071 87.3829C58.9205 87.4362 59.1498 87.4949 59.3951 87.5589C59.7151 87.6549 60.0405 87.7615 60.3711 87.8789C60.7018 87.9855 61.0058 88.1242 61.2831 88.2949C61.5605 88.4655 61.7845 88.6895 61.9551 88.9669C62.1258 89.2442 62.2165 89.5855 62.2271 89.9909C62.2271 90.4602 62.0938 90.8762 61.8271 91.2389C61.5711 91.6015 61.2031 91.8895 60.7231 92.1029C60.2538 92.3055 59.6938 92.4069 59.0431 92.4069C58.2538 92.4069 57.5818 92.2309 57.0271 91.8789C56.4725 91.5269 56.0991 90.9829 55.9071 90.2469L57.2671 89.7669Z" fill="url(#paint6_linear_30685_32517)"/>
<path d="M75.075 85.6549L74.899 85.7029V80.7749H76.419V92.2949H75.043L74.931 91.0949C74.6644 91.4575 74.3017 91.7669 73.843 92.0229C73.395 92.2789 72.8457 92.4069 72.195 92.4069C71.4697 92.4069 70.835 92.2362 70.291 91.8949C69.7577 91.5535 69.3364 91.0735 69.027 90.4549C68.7284 89.8362 68.579 89.1162 68.579 88.2949C68.579 87.4735 68.7284 86.7535 69.027 86.1349C69.3364 85.5162 69.7577 85.0362 70.291 84.6949C70.835 84.3535 71.4697 84.1829 72.195 84.1829C72.8884 84.1829 73.475 84.3269 73.955 84.6149C74.4457 84.8922 74.819 85.2389 75.075 85.6549ZM70.195 88.2949C70.195 89.1162 70.4084 89.7775 70.835 90.2789C71.2617 90.7802 71.8323 91.0309 72.547 91.0309C72.9843 91.0309 73.379 90.9242 73.731 90.7109C74.083 90.4975 74.3657 90.1882 74.579 89.7829C74.7924 89.3669 74.899 88.8709 74.899 88.2949C74.899 87.7189 74.7924 87.2282 74.579 86.8229C74.3657 86.4175 74.083 86.1082 73.731 85.8949C73.379 85.6709 72.9843 85.5589 72.547 85.5589C71.843 85.5589 71.2724 85.8095 70.835 86.3109C70.4084 86.8122 70.195 87.4735 70.195 88.2949Z" fill="url(#paint7_linear_30685_32517)"/>
<path d="M78.4373 84.8069L79.3973 81.0949H81.1413L79.5573 84.8069H78.4373Z" fill="url(#paint8_linear_30685_32517)"/>
<path d="M86.89 92.4069C86.122 92.4069 85.4394 92.2309 84.842 91.8789C84.2554 91.5162 83.7913 91.0202 83.45 90.3909C83.1193 89.7615 82.954 89.0415 82.954 88.2309C82.954 87.4522 83.1193 86.7589 83.45 86.1509C83.7807 85.5429 84.234 85.0629 84.81 84.7109C85.3967 84.3589 86.058 84.1829 86.794 84.1829C87.5407 84.1829 88.202 84.3482 88.778 84.6789C89.354 84.9989 89.802 85.4522 90.122 86.0389C90.442 86.6149 90.5967 87.2815 90.586 88.0389C90.586 88.1669 90.5807 88.3002 90.57 88.4389C90.5593 88.5669 90.5434 88.7109 90.522 88.8709H84.602C84.634 89.2975 84.7514 89.6762 84.954 90.0069C85.1674 90.3269 85.434 90.5775 85.754 90.7589C86.0847 90.9402 86.458 91.0309 86.874 91.0309C87.4074 91.0309 87.8714 90.9295 88.266 90.7269C88.6607 90.5135 88.938 90.2309 89.098 89.8789L90.41 90.3429C90.09 90.9935 89.6207 91.5002 89.002 91.8629C88.394 92.2255 87.69 92.4069 86.89 92.4069ZM88.938 87.5749C88.938 87.1909 88.842 86.8442 88.65 86.5349C88.458 86.2255 88.1967 85.9855 87.866 85.8149C87.546 85.6335 87.1834 85.5429 86.778 85.5429C86.4154 85.5429 86.0794 85.6335 85.77 85.8149C85.4714 85.9855 85.2154 86.2255 85.002 86.5349C84.7994 86.8335 84.6714 87.1802 84.618 87.5749H88.938Z" fill="url(#paint9_linear_30685_32517)"/>
<path d="M93.5796 89.7669C93.6543 90.0869 93.7823 90.3375 93.9636 90.5189C94.145 90.7002 94.3583 90.8335 94.6036 90.9189C94.8596 90.9935 95.1263 91.0309 95.4036 91.0309C95.8836 91.0309 96.257 90.9349 96.5236 90.7429C96.7903 90.5509 96.9236 90.3109 96.9236 90.0229C96.9236 89.7775 96.8383 89.5855 96.6676 89.4469C96.5076 89.2975 96.289 89.1802 96.0116 89.0949C95.745 89.0095 95.457 88.9295 95.1476 88.8549C94.8703 88.7802 94.5663 88.6949 94.2356 88.5989C93.9156 88.5029 93.6116 88.3749 93.3236 88.2149C93.0463 88.0442 92.817 87.8309 92.6356 87.5749C92.4543 87.3082 92.3636 86.9722 92.3636 86.5669C92.3636 86.0869 92.4916 85.6709 92.7476 85.3189C93.0143 84.9562 93.377 84.6789 93.8356 84.4869C94.305 84.2842 94.833 84.1829 95.4196 84.1829C96.1023 84.1829 96.6996 84.3322 97.2116 84.6309C97.7343 84.9189 98.113 85.3562 98.3476 85.9429L96.9876 86.3909C96.913 86.1882 96.7903 86.0229 96.6196 85.8949C96.449 85.7669 96.2516 85.6815 96.0276 85.6389C95.8143 85.5855 95.601 85.5589 95.3876 85.5589C94.9823 85.5589 94.6463 85.6389 94.3796 85.7989C94.113 85.9589 93.9796 86.1935 93.9796 86.5029C93.9796 86.6735 94.0223 86.8175 94.1076 86.9349C94.193 87.0415 94.3103 87.1322 94.4596 87.2069C94.6196 87.2709 94.8063 87.3295 95.0196 87.3829C95.233 87.4362 95.4623 87.4949 95.7076 87.5589C96.0276 87.6549 96.353 87.7615 96.6836 87.8789C97.0143 87.9855 97.3183 88.1242 97.5956 88.2949C97.873 88.4655 98.097 88.6895 98.2676 88.9669C98.4383 89.2442 98.529 89.5855 98.5396 89.9909C98.5396 90.4602 98.4063 90.8762 98.1396 91.2389C97.8836 91.6015 97.5156 91.8895 97.0356 92.1029C96.5663 92.3055 96.0063 92.4069 95.3556 92.4069C94.5663 92.4069 93.8943 92.2309 93.3396 91.8789C92.785 91.5269 92.4116 90.9829 92.2196 90.2469L93.5796 89.7669Z" fill="url(#paint10_linear_30685_32517)"/>
<path d="M101.517 89.7669C101.592 90.0869 101.72 90.3375 101.901 90.5189C102.082 90.7002 102.296 90.8335 102.541 90.9189C102.797 90.9935 103.064 91.0309 103.341 91.0309C103.821 91.0309 104.194 90.9349 104.461 90.7429C104.728 90.5509 104.861 90.3109 104.861 90.0229C104.861 89.7775 104.776 89.5855 104.605 89.4469C104.445 89.2975 104.226 89.1802 103.949 89.0949C103.682 89.0095 103.394 88.9295 103.085 88.8549C102.808 88.7802 102.504 88.6949 102.173 88.5989C101.853 88.5029 101.549 88.3749 101.261 88.2149C100.984 88.0442 100.754 87.8309 100.573 87.5749C100.392 87.3082 100.301 86.9722 100.301 86.5669C100.301 86.0869 100.429 85.6709 100.685 85.3189C100.952 84.9562 101.314 84.6789 101.773 84.4869C102.242 84.2842 102.77 84.1829 103.357 84.1829C104.04 84.1829 104.637 84.3322 105.149 84.6309C105.672 84.9189 106.05 85.3562 106.285 85.9429L104.925 86.3909C104.85 86.1882 104.728 86.0229 104.557 85.8949C104.386 85.7669 104.189 85.6815 103.965 85.6389C103.752 85.5855 103.538 85.5589 103.325 85.5589C102.92 85.5589 102.584 85.6389 102.317 85.7989C102.05 85.9589 101.917 86.1935 101.917 86.5029C101.917 86.6735 101.96 86.8175 102.045 86.9349C102.13 87.0415 102.248 87.1322 102.397 87.2069C102.557 87.2709 102.744 87.3295 102.957 87.3829C103.17 87.4362 103.4 87.4949 103.645 87.5589C103.965 87.6549 104.29 87.7615 104.621 87.8789C104.952 87.9855 105.256 88.1242 105.533 88.2949C105.81 88.4655 106.034 88.6895 106.205 88.9669C106.376 89.2442 106.466 89.5855 106.477 89.9909C106.477 90.4602 106.344 90.8762 106.077 91.2389C105.821 91.6015 105.453 91.8895 104.973 92.1029C104.504 92.3055 103.944 92.4069 103.293 92.4069C102.504 92.4069 101.832 92.2309 101.277 91.8789C100.722 91.5269 100.349 90.9829 100.157 90.2469L101.517 89.7669Z" fill="url(#paint11_linear_30685_32517)"/>
<path d="M113.439 92.2949L113.311 91.1269C113.065 91.5322 112.745 91.8469 112.351 92.0709C111.967 92.2842 111.465 92.3909 110.847 92.3909C110.271 92.3909 109.78 92.3002 109.375 92.1189C108.969 91.9269 108.655 91.6655 108.431 91.3349C108.217 90.9935 108.111 90.5989 108.111 90.1509C108.111 89.4789 108.361 88.9242 108.863 88.4869C109.364 88.0389 110.089 87.7615 111.039 87.6549L113.311 87.3989V86.7749C113.311 86.4335 113.172 86.1455 112.895 85.9109C112.617 85.6655 112.217 85.5429 111.695 85.5429C111.204 85.5429 110.788 85.6602 110.447 85.8949C110.105 86.1189 109.876 86.4549 109.759 86.9029L108.415 86.4229C108.617 85.7189 109.012 85.1695 109.599 84.7749C110.196 84.3802 110.916 84.1829 111.759 84.1829C112.761 84.1829 113.524 84.4335 114.047 84.9349C114.569 85.4362 114.831 86.0975 114.831 86.9189V92.2949H113.439ZM113.311 88.6309L111.119 88.9029C110.649 88.9669 110.297 89.1002 110.063 89.3029C109.828 89.4949 109.711 89.7509 109.711 90.0709C109.711 90.3695 109.823 90.6202 110.047 90.8229C110.281 91.0149 110.607 91.1109 111.023 91.1109C111.535 91.1109 111.961 91.0149 112.303 90.8229C112.644 90.6309 112.895 90.3642 113.055 90.0229C113.225 89.6709 113.311 89.2655 113.311 88.8069V88.6309Z" fill="url(#paint12_linear_30685_32517)"/>
<path d="M117.486 84.2949H119.006V92.2949H117.486V84.2949ZM118.254 82.8869C117.966 82.8869 117.726 82.7909 117.534 82.5989C117.342 82.4069 117.246 82.1722 117.246 81.8949C117.246 81.6069 117.342 81.3669 117.534 81.1749C117.726 80.9722 117.966 80.8709 118.254 80.8709C118.531 80.8709 118.766 80.9722 118.958 81.1749C119.161 81.3669 119.262 81.6069 119.262 81.8949C119.262 82.1722 119.161 82.4069 118.958 82.5989C118.766 82.7909 118.531 82.8869 118.254 82.8869Z" fill="url(#paint13_linear_30685_32517)"/>
<path d="M122.673 89.7669C122.748 90.0869 122.876 90.3375 123.057 90.5189C123.239 90.7002 123.452 90.8335 123.697 90.9189C123.953 90.9935 124.22 91.0309 124.497 91.0309C124.977 91.0309 125.351 90.9349 125.617 90.7429C125.884 90.5509 126.017 90.3109 126.017 90.0229C126.017 89.7775 125.932 89.5855 125.761 89.4469C125.601 89.2975 125.383 89.1802 125.105 89.0949C124.839 89.0095 124.551 88.9295 124.241 88.8549C123.964 88.7802 123.66 88.6949 123.329 88.5989C123.009 88.5029 122.705 88.3749 122.417 88.2149C122.14 88.0442 121.911 87.8309 121.729 87.5749C121.548 87.3082 121.457 86.9722 121.457 86.5669C121.457 86.0869 121.585 85.6709 121.841 85.3189C122.108 84.9562 122.471 84.6789 122.929 84.4869C123.399 84.2842 123.927 84.1829 124.513 84.1829C125.196 84.1829 125.793 84.3322 126.305 84.6309C126.828 84.9189 127.207 85.3562 127.441 85.9429L126.081 86.3909C126.007 86.1882 125.884 86.0229 125.713 85.8949C125.543 85.7669 125.345 85.6815 125.121 85.6389C124.908 85.5855 124.695 85.5589 124.481 85.5589C124.076 85.5589 123.74 85.6389 123.473 85.7989C123.207 85.9589 123.073 86.1935 123.073 86.5029C123.073 86.6735 123.116 86.8175 123.201 86.9349C123.287 87.0415 123.404 87.1322 123.553 87.2069C123.713 87.2709 123.9 87.3295 124.113 87.3829C124.327 87.4362 124.556 87.4949 124.801 87.5589C125.121 87.6549 125.447 87.7615 125.777 87.8789C126.108 87.9855 126.412 88.1242 126.689 88.2949C126.967 88.4655 127.191 88.6895 127.361 88.9669C127.532 89.2442 127.623 89.5855 127.633 89.9909C127.633 90.4602 127.5 90.8762 127.233 91.2389C126.977 91.6015 126.609 91.8895 126.129 92.1029C125.66 92.3055 125.1 92.4069 124.449 92.4069C123.66 92.4069 122.988 92.2309 122.433 91.8789C121.879 91.5269 121.505 90.9829 121.313 90.2469L122.673 89.7669Z" fill="url(#paint14_linear_30685_32517)"/>
<defs>
<filter id="filter0_di_30685_32517" x="3.75537" y="3.75391" width="147.504" height="124.82" filterUnits="userSpaceOnUse" color-interpolation-filters="sRGB">
<feFlood flood-opacity="0" result="BackgroundImageFix"/>
<feColorMatrix in="SourceAlpha" type="matrix" values="0 0 0 0 0 0 0 0 0 0 0 0 0 0 0 0 0 0 127 0" result="hardAlpha"/>
<feOffset/>
<feGaussianBlur stdDeviation="2.5"/>
<feComposite in2="hardAlpha" operator="out"/>
<feColorMatrix type="matrix" values="0 0 0 0 0 0 0 0 0 0 0 0 0 0 0 0 0 0 0.05 0"/>
<feBlend mode="normal" in2="BackgroundImageFix" result="effect1_dropShadow_30685_32517"/>
<feBlend mode="normal" in="SourceGraphic" in2="effect1_dropShadow_30685_32517" result="shape"/>
<feColorMatrix in="SourceAlpha" type="matrix" values="0 0 0 0 0 0 0 0 0 0 0 0 0 0 0 0 0 0 127 0" result="hardAlpha"/>
<feOffset dy="4"/>
<feGaussianBlur stdDeviation="10"/>
<feComposite in2="hardAlpha" operator="arithmetic" k2="-1" k3="1"/>
<feColorMatrix type="matrix" values="0 0 0 0 0.226921 0 0 0 0 0.628922 0 0 0 0 1 0 0 0 0.25 0"/>
<feBlend mode="normal" in2="shape" result="effect2_innerShadow_30685_32517"/>
</filter>
<linearGradient id="paint0_linear_30685_32517" x1="23.7835" y1="33.5179" x2="121.926" y2="103.499" gradientUnits="userSpaceOnUse">
<stop stop-color="#4092FF"/>
<stop offset="1" stop-color="#0058CC"/>
</linearGradient>
<linearGradient id="paint1_linear_30685_32517" x1="23.7835" y1="33.5179" x2="121.926" y2="103.499" gradientUnits="userSpaceOnUse">
<stop stop-color="#4092FF"/>
<stop offset="1" stop-color="#0058CC"/>
</linearGradient>
<linearGradient id="paint2_linear_30685_32517" x1="23.7835" y1="33.5179" x2="121.926" y2="103.499" gradientUnits="userSpaceOnUse">
<stop stop-color="#4092FF"/>
<stop offset="1" stop-color="#0058CC"/>
</linearGradient>
<linearGradient id="paint3_linear_30685_32517" x1="23.7835" y1="33.5179" x2="121.926" y2="103.499" gradientUnits="userSpaceOnUse">
<stop stop-color="#4092FF"/>
<stop offset="1" stop-color="#0058CC"/>
</linearGradient>
<linearGradient id="paint4_linear_30685_32517" x1="23.7835" y1="33.5179" x2="121.926" y2="103.499" gradientUnits="userSpaceOnUse">
<stop stop-color="#4092FF"/>
<stop offset="1" stop-color="#0058CC"/>
</linearGradient>
<linearGradient id="paint5_linear_30685_32517" x1="23.7835" y1="33.5179" x2="121.926" y2="103.499" gradientUnits="userSpaceOnUse">
<stop stop-color="#4092FF"/>
<stop offset="1" stop-color="#0058CC"/>
</linearGradient>
<linearGradient id="paint6_linear_30685_32517" x1="23.7835" y1="33.5179" x2="121.926" y2="103.499" gradientUnits="userSpaceOnUse">
<stop stop-color="#4092FF"/>
<stop offset="1" stop-color="#0058CC"/>
</linearGradient>
<linearGradient id="paint7_linear_30685_32517" x1="23.7835" y1="33.5179" x2="121.926" y2="103.499" gradientUnits="userSpaceOnUse">
<stop stop-color="#4092FF"/>
<stop offset="1" stop-color="#0058CC"/>
</linearGradient>
<linearGradient id="paint8_linear_30685_32517" x1="23.7835" y1="33.5179" x2="121.926" y2="103.499" gradientUnits="userSpaceOnUse">
<stop stop-color="#4092FF"/>
<stop offset="1" stop-color="#0058CC"/>
</linearGradient>
<linearGradient id="paint9_linear_30685_32517" x1="23.7835" y1="33.5179" x2="121.926" y2="103.499" gradientUnits="userSpaceOnUse">
<stop stop-color="#4092FF"/>
<stop offset="1" stop-color="#0058CC"/>
</linearGradient>
<linearGradient id="paint10_linear_30685_32517" x1="23.7835" y1="33.5179" x2="121.926" y2="103.499" gradientUnits="userSpaceOnUse">
<stop stop-color="#4092FF"/>
<stop offset="1" stop-color="#0058CC"/>
</linearGradient>
<linearGradient id="paint11_linear_30685_32517" x1="23.7835" y1="33.5179" x2="121.926" y2="103.499" gradientUnits="userSpaceOnUse">
<stop stop-color="#4092FF"/>
<stop offset="1" stop-color="#0058CC"/>
</linearGradient>
<linearGradient id="paint12_linear_30685_32517" x1="23.7835" y1="33.5179" x2="121.926" y2="103.499" gradientUnits="userSpaceOnUse">
<stop stop-color="#4092FF"/>
<stop offset="1" stop-color="#0058CC"/>
</linearGradient>
<linearGradient id="paint13_linear_30685_32517" x1="23.7835" y1="33.5179" x2="121.926" y2="103.499" gradientUnits="userSpaceOnUse">
<stop stop-color="#4092FF"/>
<stop offset="1" stop-color="#0058CC"/>
</linearGradient>
<linearGradient id="paint14_linear_30685_32517" x1="23.7835" y1="33.5179" x2="121.926" y2="103.499" gradientUnits="userSpaceOnUse">
<stop stop-color="#4092FF"/>
<stop offset="1" stop-color="#0058CC"/>
</linearGradient>
</defs>
</svg>
