<svg id="Capa_1" enable-background="new 0 0 791.454 791.454" viewBox="0 0 791.454 791.454" xmlns="http://www.w3.org/2000/svg"><g><g id="Vrstva_x0020_1_27_"><path clip-rule="evenodd" d="m202.621 0h264.884l224.238 233.828v454.717c0 56.783-46.126 102.909-103.061 102.909h-386.06c-56.783 0-102.909-46.126-102.909-102.909v-585.636c-.001-56.783 46.125-102.909 102.908-102.909z" fill="#f60" fill-rule="evenodd"/><g fill="#fff"><path clip-rule="evenodd" d="m467.2 0v232.002h224.542z" fill-rule="evenodd" opacity=".302"/><path d="m528.55 522.46h-8.677c-2.892-42.016-27.097-79.161-62.263-99.56h30.903c3.501 9.591 12.635 16.593 23.444 16.593 13.701 0 24.814-11.265 24.814-24.966s-11.113-24.966-24.814-24.966c-10.808 0-19.942 7.003-23.444 16.593h-67.895v-8.221c0-4.567-3.806-8.373-8.373-8.373h-33.187c-4.567 0-8.221 3.806-8.221 8.373v8.221h-68.047c-3.349-9.591-12.483-16.593-23.292-16.593-13.701 0-24.966 11.265-24.966 24.966s11.265 24.966 24.966 24.966c10.808 0 19.942-7.003 23.292-16.593h31.055c-35.318 20.399-59.523 57.544-62.263 99.56h-8.677c-4.567 0-8.373 3.654-8.373 8.221v33.339c0 4.567 3.806 8.221 8.373 8.221h33.187c4.567 0 8.221-3.654 8.221-8.221v-33.339c0-4.567-3.654-8.221-8.221-8.221h-7.612c3.654-46.431 37.145-85.554 82.358-96.211v4.871c0 4.567 3.654 8.373 8.221 8.373h33.187c4.567 0 8.373-3.806 8.373-8.373v-4.871c45.061 10.656 78.552 49.78 82.205 96.211h-7.459c-4.719 0-8.373 3.654-8.373 8.221v33.339c0 4.567 3.654 8.221 8.373 8.221h33.187c4.567 0 8.221-3.654 8.221-8.221v-33.339c-.003-4.567-3.656-8.221-8.223-8.221z"/></g></g></g></svg>