<svg id="Capa_1" enable-background="new 0 0 791.454 791.454" viewBox="0 0 791.454 791.454" xmlns="http://www.w3.org/2000/svg"><g><g id="Vrstva_x0020_1_13_"><path clip-rule="evenodd" d="m202.808 0h264.609l224.265 233.758v454.661c0 56.956-46.079 103.035-102.838 103.035h-386.036c-56.956 0-103.035-46.079-103.035-103.035v-585.384c-.001-56.956 46.078-103.035 103.035-103.035z" fill="#fa0000" fill-rule="evenodd"/><g fill="#fff"><path clip-rule="evenodd" d="m467.219 0v231.978h224.463z" fill-rule="evenodd" opacity=".302"/><path d="m395.826 359.141c-70.602 0-127.954 57.352-127.954 127.954s57.352 127.755 127.954 127.755 127.756-57.154 127.756-127.756-57.352-127.756-127.756-127.953zm53.792 131.909c-.989 1.78-2.373 3.164-4.153 4.153l-72.975 36.586c-4.549 2.175-10.086.396-12.261-4.153-.791-1.187-.989-2.571-.989-4.153v-72.975c0-5.142 4.153-9.097 9.097-9.097 1.384 0 2.769.198 4.153.989l72.975 36.389c4.549 2.372 6.328 7.712 4.153 12.261z"/></g></g></g></svg>