<svg width="608" height="186" viewBox="0 0 608 186" fill="none" xmlns="http://www.w3.org/2000/svg">
<g clip-path="url(#clip0_34866_53295)">
<path d="M0 12C0 5.37258 5.37258 0 12 0H596C602.627 0 608 5.37258 608 12V174C608 180.627 602.627 186 596 186H12C5.37257 186 0 180.627 0 174V12Z" fill="#F9F9FB"/>
<g opacity="0.4" filter="url(#filter0_f_34866_53295)">
<ellipse cx="461.966" cy="155.416" rx="93.3142" ry="1.0311" fill="black"/>
</g>
<path d="M382.113 34.7119H542.436C544.553 34.7119 546.27 36.4287 546.27 38.5459V148.248C546.27 148.483 546.079 148.674 545.844 148.674H378.705C378.47 148.674 378.279 148.483 378.279 148.248V38.5459C378.279 36.4287 379.995 34.7119 382.113 34.7119Z" fill="#E2E8F0" stroke="#CBD5E0" stroke-width="0.283974"/>
<path d="M379.168 38.7253C379.168 37.0001 380.567 35.6016 382.292 35.6016H542.257C543.982 35.6016 545.381 37.0001 545.381 38.7253V144.485H379.168V38.7253Z" fill="#E2E8F0"/>
<rect x="382.467" y="40.9629" width="158.789" height="98.9853" fill="#F9FAFE"/>
<path d="M357.929 148.276C357.929 148.119 358.056 147.992 358.213 147.992H565.514C565.671 147.992 565.798 148.119 565.798 148.276V151.704H357.929V148.276Z" fill="#E2E8F0"/>
<path d="M357.929 148.276C357.929 148.119 358.056 147.992 358.213 147.992H565.514C565.671 147.992 565.798 148.119 565.798 148.276V151.704H357.929V148.276Z" fill="url(#paint0_linear_34866_53295)"/>
<path d="M357.929 151.705H565.798L563.41 152.628C556.878 155.153 549.936 156.448 542.933 156.448H380.656C373.007 156.448 365.437 154.903 358.4 151.906L357.929 151.705Z" fill="#E2E8F0"/>
<path d="M357.929 151.705H565.798L563.41 152.628C556.878 155.153 549.936 156.448 542.933 156.448H380.656C373.007 156.448 365.437 154.903 358.4 151.906L357.929 151.705Z" fill="url(#paint1_linear_34866_53295)"/>
<path fill-rule="evenodd" clip-rule="evenodd" d="M444.754 147.992C444.86 149.604 446.201 150.879 447.841 150.879H476.093C477.732 150.879 479.073 149.604 479.179 147.992H444.754Z" fill="#E2E8F0"/>
<path fill-rule="evenodd" clip-rule="evenodd" d="M444.754 147.992C444.86 149.604 446.201 150.879 447.841 150.879H476.093C477.732 150.879 479.073 149.604 479.179 147.992H444.754Z" fill="url(#paint2_linear_34866_53295)"/>
<rect x="-74.0613" y="11.6506" width="339.614" height="250.699" rx="14.9639" stroke="#E0E0EB" stroke-width="1.3012" stroke-dasharray="2.82 2.82"/>
<rect opacity="0.8" x="389" y="48" width="143" height="85" rx="6.44134" fill="white" stroke="#E0E0EB"/>
<path opacity="0.8" d="M389 54.4413C389 50.8839 391.884 48 395.441 48H425V133H395.441C391.884 133 389 130.116 389 126.559V54.4413Z" fill="white" fill-opacity="0.9" stroke="#E0E0EB"/>
<path d="M438.128 55.6973H445.489L451.72 62.2419V74.9689C451.72 76.5582 450.439 77.8492 448.856 77.8492H438.128C436.55 77.8492 435.268 76.5582 435.268 74.9689V58.5776C435.268 56.9883 436.55 55.6973 438.128 55.6973V55.6973Z" fill="#3582DA"/>
<path opacity="0.302" fill-rule="evenodd" clip-rule="evenodd" d="M445.48 55.6973V62.1907H451.72L445.48 55.6973Z" fill="white"/>
<path d="M446.394 67.2234H440.594C440.327 67.2234 440.107 67.0061 440.107 66.7377C440.107 66.4693 440.327 66.252 440.594 66.252H446.394C446.661 66.252 446.876 66.4693 446.876 66.7377C446.876 67.0061 446.661 67.2234 446.394 67.2234V67.2234ZM444.461 73.065H440.594C440.327 73.065 440.107 72.8477 440.107 72.5792C440.107 72.3108 440.327 72.0935 440.594 72.0935H444.461C444.727 72.0935 444.943 72.3108 444.943 72.5792C444.943 72.8477 444.727 73.065 444.461 73.065ZM446.394 71.1178H440.594C440.327 71.1178 440.107 70.9005 440.107 70.632C440.107 70.3636 440.327 70.1463 440.594 70.1463H446.394C446.661 70.1463 446.876 70.3636 446.876 70.632C446.876 70.9005 446.661 71.1178 446.394 71.1178V71.1178ZM446.394 69.1706H440.594C440.327 69.1706 440.107 68.9533 440.107 68.6849C440.107 68.4164 440.327 68.1991 440.594 68.1991H446.394C446.661 68.1991 446.876 68.4164 446.876 68.6849C446.876 68.9533 446.661 69.1706 446.394 69.1706V69.1706Z" fill="white"/>
<g opacity="0.2">
<path fill-rule="evenodd" clip-rule="evenodd" d="M438.151 85.8496H445.507L451.741 92.3937V105.121C451.741 106.708 450.456 108.002 448.881 108.002H438.151C436.569 108.002 435.291 106.708 435.291 105.121V88.7301C435.291 87.1367 436.569 85.8496 438.151 85.8496V85.8496Z" fill="#514A5E"/>
<path opacity="0.302" fill-rule="evenodd" clip-rule="evenodd" d="M445.501 85.8496V92.3393H451.741L445.501 85.8496Z" fill="white"/>
<path d="M446.413 100.293H440.619C440.348 100.293 440.132 100.511 440.132 100.783C440.132 101.049 440.348 101.266 440.619 101.266H446.413C446.684 101.266 446.9 101.048 446.9 100.783C446.9 100.511 446.684 100.293 446.413 100.293ZM446.413 102.24H440.619C440.348 102.24 440.132 102.458 440.132 102.731C440.132 102.996 440.348 103.214 440.619 103.214H446.413C446.684 103.214 446.9 102.996 446.9 102.731C446.9 102.458 446.684 102.24 446.413 102.24ZM443.465 96.4043H440.619C440.348 96.4043 440.132 96.6154 440.132 96.8878C440.132 97.1602 440.348 97.3713 440.619 97.3713H443.465C443.736 97.3713 443.952 97.1602 443.952 96.8878C443.952 96.6154 443.736 96.4043 443.465 96.4043V96.4043ZM446.413 98.345H440.619C440.348 98.345 440.132 98.563 440.132 98.8354C440.132 99.1009 440.348 99.3188 440.619 99.3188H446.413C446.684 99.3188 446.9 99.1009 446.9 98.8354C446.9 98.563 446.684 98.345 446.413 98.345Z" fill="white"/>
</g>
<g opacity="0.2">
<path fill-rule="evenodd" clip-rule="evenodd" d="M468.146 55.6973H475.502L481.736 62.2414V74.9687C481.736 76.5554 480.451 77.8492 478.876 77.8492H468.146C466.563 77.8492 465.286 76.5554 465.286 74.9687V58.5778C465.286 56.9843 466.563 55.6973 468.146 55.6973V55.6973Z" fill="#514A5E"/>
<path opacity="0.302" fill-rule="evenodd" clip-rule="evenodd" d="M475.495 55.6973V62.1869H481.736L475.495 55.6973Z" fill="white"/>
<path d="M476.408 70.1403H470.614C470.343 70.1403 470.127 70.3582 470.127 70.6306C470.127 70.8962 470.343 71.1141 470.614 71.1141H476.408C476.679 71.1141 476.895 70.8962 476.895 70.6306C476.895 70.3582 476.679 70.1403 476.408 70.1403ZM476.408 72.0879H470.614C470.343 72.0879 470.127 72.3058 470.127 72.5782C470.127 72.8438 470.343 73.0617 470.614 73.0617H476.408C476.679 73.0617 476.895 72.8437 476.895 72.5782C476.895 72.3058 476.679 72.0879 476.408 72.0879ZM473.46 66.252H470.614C470.343 66.252 470.127 66.463 470.127 66.7354C470.127 67.0078 470.343 67.2189 470.614 67.2189H473.46C473.731 67.2189 473.947 67.0078 473.947 66.7354C473.947 66.463 473.731 66.252 473.46 66.252V66.252ZM476.408 68.1927H470.614C470.343 68.1927 470.127 68.4106 470.127 68.683C470.127 68.9486 470.343 69.1665 470.614 69.1665H476.408C476.679 69.1665 476.895 68.9486 476.895 68.683C476.895 68.4106 476.679 68.1927 476.408 68.1927Z" fill="white"/>
</g>
<g opacity="0.2">
<path fill-rule="evenodd" clip-rule="evenodd" d="M468.146 85.8496H475.502L481.736 92.3937V105.121C481.736 106.708 480.451 108.002 478.876 108.002H468.146C466.563 108.002 465.286 106.708 465.286 105.121V88.7301C465.286 87.1367 466.563 85.8496 468.146 85.8496V85.8496Z" fill="#514A5E"/>
<path opacity="0.302" fill-rule="evenodd" clip-rule="evenodd" d="M475.495 85.8496V92.3393H481.736L475.495 85.8496Z" fill="white"/>
<path d="M476.408 100.293H470.614C470.343 100.293 470.127 100.511 470.127 100.783C470.127 101.049 470.343 101.266 470.614 101.266H476.408C476.679 101.266 476.895 101.048 476.895 100.783C476.895 100.511 476.679 100.293 476.408 100.293ZM476.408 102.24H470.614C470.343 102.24 470.127 102.458 470.127 102.731C470.127 102.996 470.343 103.214 470.614 103.214H476.408C476.679 103.214 476.895 102.996 476.895 102.731C476.895 102.458 476.679 102.24 476.408 102.24ZM473.46 96.4043H470.614C470.343 96.4043 470.127 96.6154 470.127 96.8878C470.127 97.1602 470.343 97.3713 470.614 97.3713H473.46C473.731 97.3713 473.947 97.1602 473.947 96.8878C473.947 96.6154 473.731 96.4043 473.46 96.4043V96.4043ZM476.408 98.345H470.614C470.343 98.345 470.127 98.563 470.127 98.8354C470.127 99.1009 470.343 99.3188 470.614 99.3188H476.408C476.679 99.3188 476.895 99.1009 476.895 98.8354C476.895 98.563 476.679 98.345 476.408 98.345Z" fill="white"/>
</g>
<g opacity="0.2">
<path fill-rule="evenodd" clip-rule="evenodd" d="M498.14 55.6973H505.497L511.731 62.2414V74.9687C511.731 76.5554 510.446 77.8492 508.871 77.8492H498.14C496.558 77.8492 495.28 76.5554 495.28 74.9687V58.5778C495.28 56.9843 496.558 55.6973 498.14 55.6973V55.6973Z" fill="#514A5E"/>
<path opacity="0.302" fill-rule="evenodd" clip-rule="evenodd" d="M505.49 55.6973V62.1869H511.731L505.49 55.6973Z" fill="white"/>
<path d="M506.403 70.1403H500.609C500.338 70.1403 500.122 70.3582 500.122 70.6306C500.122 70.8962 500.338 71.1141 500.609 71.1141H506.403C506.674 71.1141 506.89 70.8962 506.89 70.6306C506.89 70.3582 506.674 70.1403 506.403 70.1403ZM506.403 72.0879H500.609C500.338 72.0879 500.122 72.3058 500.122 72.5782C500.122 72.8438 500.338 73.0617 500.609 73.0617H506.403C506.674 73.0617 506.89 72.8437 506.89 72.5782C506.89 72.3058 506.674 72.0879 506.403 72.0879ZM503.455 66.252H500.609C500.338 66.252 500.122 66.463 500.122 66.7354C500.122 67.0078 500.338 67.2189 500.609 67.2189H503.455C503.726 67.2189 503.942 67.0078 503.942 66.7354C503.942 66.463 503.726 66.252 503.455 66.252V66.252ZM506.403 68.1927H500.609C500.338 68.1927 500.122 68.4106 500.122 68.683C500.122 68.9486 500.338 69.1665 500.609 69.1665H506.403C506.674 69.1665 506.89 68.9486 506.89 68.683C506.89 68.4106 506.674 68.1927 506.403 68.1927Z" fill="white"/>
</g>
<g opacity="0.2">
<path fill-rule="evenodd" clip-rule="evenodd" d="M498.14 85.8496H505.497L511.731 92.3937V105.121C511.731 106.708 510.446 108.002 508.871 108.002H498.14C496.558 108.002 495.28 106.708 495.28 105.121V88.7301C495.28 87.1367 496.558 85.8496 498.14 85.8496V85.8496Z" fill="#514A5E"/>
<path opacity="0.302" fill-rule="evenodd" clip-rule="evenodd" d="M505.49 85.8496V92.3393H511.731L505.49 85.8496Z" fill="white"/>
<path d="M506.403 100.293H500.609C500.338 100.293 500.122 100.511 500.122 100.783C500.122 101.049 500.338 101.266 500.609 101.266H506.403C506.674 101.266 506.89 101.048 506.89 100.783C506.89 100.511 506.674 100.293 506.403 100.293ZM506.403 102.24H500.609C500.338 102.24 500.122 102.458 500.122 102.731C500.122 102.996 500.338 103.214 500.609 103.214H506.403C506.674 103.214 506.89 102.996 506.89 102.731C506.89 102.458 506.674 102.24 506.403 102.24ZM503.455 96.4043H500.609C500.338 96.4043 500.122 96.6154 500.122 96.8878C500.122 97.1602 500.338 97.3713 500.609 97.3713H503.455C503.726 97.3713 503.942 97.1602 503.942 96.8878C503.942 96.6154 503.726 96.4043 503.455 96.4043V96.4043ZM506.403 98.345H500.609C500.338 98.345 500.122 98.563 500.122 98.8354C500.122 99.1009 500.338 99.3188 500.609 99.3188H506.403C506.674 99.3188 506.89 99.1009 506.89 98.8354C506.89 98.563 506.674 98.345 506.403 98.345Z" fill="white"/>
</g>
<rect opacity="0.89" x="393.556" y="66.0664" width="26.3938" height="4.71318" rx="1.25685" fill="#8585AD"/>
<rect opacity="0.89" x="393.556" y="51.6133" width="2.5137" height="2.5137" rx="1.25685" fill="#A3A3C2"/>
<rect opacity="0.89" x="397.798" y="51.6133" width="2.6708" height="2.5137" rx="1.25685" fill="#A3A3C2"/>
<rect opacity="0.89" x="402.197" y="51.6133" width="2.5137" height="2.5137" rx="1.25685" fill="#A3A3C2"/>
<rect opacity="0.3" x="393.556" y="74.5508" width="26.3938" height="4.71318" rx="1.25685" fill="#A3A3C2"/>
<rect opacity="0.3" x="393.556" y="83.0352" width="26.3938" height="4.71318" rx="1.25685" fill="#A3A3C2"/>
<rect opacity="0.3" x="393.556" y="91.5176" width="26.3938" height="4.71318" rx="1.25685" fill="#A3A3C2"/>
<circle cx="435.346" cy="56.7969" r="2.04238" fill="#006EFF" stroke="white" stroke-width="0.942636"/>
<g filter="url(#filter1_d_34866_53295)">
<path d="M-150 31.1931C-150 24.8247 -144.837 19.6621 -138.469 19.6621H244.828C251.196 19.6621 256.359 24.8247 256.359 31.193V302.093C256.359 308.461 251.196 313.624 244.828 313.624H-138.469C-144.837 313.624 -150 308.461 -150 302.093V31.1931Z" fill="white"/>
<g clip-path="url(#clip1_34866_53295)">
<rect width="389.362" height="276.88" transform="translate(-142.148 28.5215)" fill="#F3F3F7"/>
<g filter="url(#filter2_d_34866_53295)">
<rect width="165.479" height="213.879" transform="translate(8.45923 80.166)" fill="white"/>
<g clip-path="url(#clip2_34866_53295)">
<rect x="18.1934" y="127.756" width="61.649" height="2.43351" rx="1.21676" fill="#E0E0EB"/>
<g opacity="0.5">
<rect x="18.1934" y="131.271" width="45.9664" height="2.43351" rx="1.21676" fill="#E0E0EB"/>
</g>
<g opacity="0.5">
<rect x="18.1934" y="134.785" width="45.9664" height="2.43351" rx="1.21676" fill="#E0E0EB"/>
</g>
<g opacity="0.5">
<rect x="18.1934" y="138.301" width="45.9664" height="2.43351" rx="1.21676" fill="#E0E0EB"/>
</g>
<g opacity="0.5">
<rect x="18.1934" y="141.816" width="45.9664" height="2.43351" rx="1.21676" fill="#E0E0EB"/>
</g>
</g>
<g clip-path="url(#clip3_34866_53295)">
<rect x="18.1934" y="150.738" width="61.649" height="2.43351" rx="1.21676" fill="#E0E0EB"/>
<g opacity="0.5">
<rect x="18.1934" y="154.254" width="45.9664" height="2.43351" rx="1.21676" fill="#E0E0EB"/>
</g>
<g opacity="0.5">
<rect x="18.1934" y="157.768" width="45.9664" height="2.43351" rx="1.21676" fill="#E0E0EB"/>
</g>
<g opacity="0.5">
<rect x="18.1934" y="161.283" width="45.9664" height="2.43351" rx="1.21676" fill="#E0E0EB"/>
</g>
<g opacity="0.5">
<rect x="18.1934" y="164.799" width="45.9664" height="2.43351" rx="1.21676" fill="#E0E0EB"/>
</g>
</g>
<g clip-path="url(#clip4_34866_53295)">
<rect x="18.1934" y="173.723" width="61.649" height="2.43351" rx="1.21676" fill="#E0E0EB"/>
<g opacity="0.5">
<rect x="18.1934" y="177.238" width="45.9664" height="2.43351" rx="1.21676" fill="#E0E0EB"/>
</g>
<g opacity="0.5">
<rect x="18.1934" y="180.752" width="45.9664" height="2.43351" rx="1.21676" fill="#E0E0EB"/>
</g>
<g opacity="0.5">
<rect x="18.1934" y="184.268" width="45.9664" height="2.43351" rx="1.21676" fill="#E0E0EB"/>
</g>
</g>
<rect x="55.2373" y="108.016" width="61.649" height="4.59664" rx="2.16312" fill="#E0E0EB"/>
<g opacity="0.5">
<rect x="19.2754" y="118.02" width="133.573" height="2.43351" rx="1.21676" fill="#E0E0EB"/>
</g>
<g opacity="0.7">
<rect x="19.2754" y="91.793" width="88.4177" height="8.11171" rx="2.16312" fill="#C2C2D6"/>
</g>
<path fill-rule="evenodd" clip-rule="evenodd" d="M161.358 85.9863C159.323 85.9863 157.673 87.713 157.673 89.8429V91.7333C156.655 91.7333 155.831 92.591 155.831 93.649V97.9592C155.831 99.0172 156.655 99.8749 157.673 99.8749H165.042C166.06 99.8749 166.885 99.0172 166.885 97.9592V93.649C166.885 92.591 166.06 91.7333 165.042 91.7333V89.8429C165.042 87.713 163.393 85.9863 161.358 85.9863ZM163.609 91.7333V89.8429C163.609 88.6596 162.488 87.4861 161.358 87.4861C160.227 87.4861 159.106 88.6596 159.106 89.8429V91.7333H163.609Z" fill="#006EFF"/>
</g>
<rect width="312.031" height="41.6401" transform="translate(-64.8169 28.5215)" fill="white"/>
<mask id="path-57-inside-1_34866_53295" fill="white">
<path d="M-62.6538 50.6934H245.051V70.1615H-62.6538V50.6934Z"/>
</mask>
<path d="M-62.6538 50.6934H245.051V70.1615H-62.6538V50.6934Z" fill="white"/>
<path d="M245.051 70.1615V69.8911H-62.6538V70.1615V70.4319H245.051V70.1615Z" fill="#EAEAF1" mask="url(#path-57-inside-1_34866_53295)"/>
<rect x="-44.2673" y="57.1836" width="61.649" height="6.48937" rx="2.16312" fill="#A3A3C2"/>
<g clip-path="url(#clip5_34866_53295)">
<path fill-rule="evenodd" clip-rule="evenodd" d="M125.132 59.8177C124.971 59.8177 124.816 59.8818 124.702 59.9959C124.588 60.11 124.524 60.2647 124.524 60.4261C124.524 60.5874 124.588 60.7422 124.702 60.8563C124.816 60.9704 124.971 61.0345 125.132 61.0345H125.611C125.723 61.0345 125.814 61.1252 125.814 61.2372C125.814 61.3492 125.723 61.44 125.611 61.44H125.132C124.863 61.44 124.606 61.3332 124.415 61.1431C124.225 60.9529 124.118 60.695 124.118 60.4261C124.118 60.1572 124.225 59.8992 124.415 59.7091C124.606 59.5189 124.863 59.4121 125.132 59.4121H125.601C125.713 59.4121 125.803 59.5029 125.803 59.6149C125.803 59.7269 125.713 59.8177 125.601 59.8177H125.132ZM126.354 59.6149C126.354 59.5029 126.445 59.4121 126.557 59.4121H127.025C127.294 59.4121 127.552 59.5189 127.742 59.7091C127.932 59.8992 128.039 60.1572 128.039 60.4261C128.039 60.695 127.932 60.9529 127.742 61.1431C127.552 61.3332 127.294 61.44 127.025 61.44H126.546C126.434 61.44 126.344 61.3492 126.344 61.2372C126.344 61.1252 126.434 61.0345 126.546 61.0345H127.025C127.186 61.0345 127.341 60.9704 127.455 60.8563C127.569 60.7422 127.633 60.5874 127.633 60.4261C127.633 60.2647 127.569 60.11 127.455 59.9959C127.341 59.8818 127.186 59.8177 127.025 59.8177H126.557C126.445 59.8177 126.354 59.7269 126.354 59.6149ZM125.141 60.4261C125.141 60.3141 125.232 60.2233 125.344 60.2233H126.83C126.942 60.2233 127.033 60.3141 127.033 60.4261C127.033 60.5381 126.942 60.6289 126.83 60.6289H125.344C125.232 60.6289 125.141 60.5381 125.141 60.4261Z" fill="#C2C2D6"/>
</g>
<rect x="130.946" y="58.8047" width="25.4167" height="3.24469" rx="1.62234" fill="#C2C2D6"/>
<g clip-path="url(#clip6_34866_53295)">
<path d="M172.315 60.833C172.289 60.833 172.262 60.8251 172.24 60.8102C172.218 60.7954 172.201 60.7743 172.19 60.7496C172.18 60.7249 172.178 60.6977 172.183 60.6715C172.188 60.6453 172.201 60.6212 172.22 60.6023L173.554 59.2677C173.485 59.2302 173.408 59.2106 173.329 59.2107H171.301C171.176 59.2108 171.056 59.2607 170.967 59.3494C170.878 59.4382 170.828 59.5584 170.828 59.6839V61.7118C170.828 61.8373 170.878 61.9575 170.967 62.0463C171.056 62.135 171.176 62.1849 171.301 62.185H173.329C173.455 62.1849 173.575 62.135 173.664 62.0463C173.752 61.9575 173.802 61.8373 173.802 61.7118V59.6839C173.802 59.6053 173.783 59.5279 173.745 59.4589L172.411 60.7934C172.398 60.806 172.383 60.816 172.367 60.8228C172.351 60.8296 172.333 60.8331 172.315 60.833Z" fill="#C2C2D6"/>
<path d="M174.208 58.6699H173.262C173.226 58.6699 173.191 58.6842 173.166 58.7095C173.141 58.7349 173.126 58.7693 173.126 58.8051C173.126 58.841 173.141 58.8754 173.166 58.9007C173.191 58.9261 173.226 58.9403 173.262 58.9403H173.882L173.554 59.2677C173.635 59.3116 173.701 59.378 173.745 59.4589L174.073 59.1315V59.7515C174.073 59.7873 174.087 59.8217 174.112 59.8471C174.138 59.8724 174.172 59.8867 174.208 59.8867C174.244 59.8867 174.278 59.8724 174.304 59.8471C174.329 59.8217 174.343 59.7873 174.343 59.7515V58.8051C174.343 58.7693 174.329 58.7349 174.304 58.7095C174.278 58.6842 174.244 58.6699 174.208 58.6699Z" fill="#C2C2D6"/>
</g>
<rect x="177.453" y="58.8047" width="25.4167" height="3.24469" rx="1.62234" fill="#C2C2D6"/>
<path d="M212.063 57.7237C212.063 56.529 213.031 55.5605 214.226 55.5605H236.398C237.593 55.5605 238.561 56.529 238.561 57.7237V63.1315C238.561 64.3261 237.593 65.2946 236.398 65.2946H214.226C213.031 65.2946 212.063 64.3261 212.063 63.1315V57.7237Z" fill="#3D3D5C"/>
<rect width="305.541" height="22.172" transform="translate(-61.5723 28.5215)" fill="white"/>
<rect x="-35.074" y="39.0664" width="41.9105" height="3.24469" rx="1.62234" fill="#E0E0EB"/>
<rect x="8.99951" y="39.0664" width="25.6871" height="3.24469" rx="1.62234" fill="#E0E0EB"/>
<rect x="36.8499" y="39.0664" width="25.6871" height="3.24469" rx="1.62234" fill="#CCE2FF"/>
<g clip-path="url(#clip7_34866_53295)">
<path d="M183.377 41.6816C183.358 41.6583 183.339 41.6351 183.32 41.6127C183.065 41.3035 182.91 41.1169 182.91 40.2417C182.91 39.7886 182.801 39.4168 182.588 39.138C182.43 38.932 182.217 38.7757 181.937 38.6602C181.933 38.6582 181.93 38.6556 181.927 38.6524C181.826 38.3143 181.55 38.0879 181.238 38.0879C180.927 38.0879 180.65 38.3143 180.55 38.6521C180.547 38.6551 180.544 38.6577 180.54 38.6596C179.885 38.9293 179.567 39.4467 179.567 40.2413C179.567 41.1169 179.412 41.3035 179.156 41.6123C179.138 41.6347 179.119 41.6575 179.1 41.6812C179.05 41.7413 179.018 41.8144 179.009 41.8918C178.999 41.9693 179.012 42.0479 179.046 42.1183C179.117 42.2693 179.27 42.3631 179.444 42.3631H183.033C183.207 42.3631 183.359 42.2694 183.431 42.1191C183.464 42.0487 183.477 41.97 183.468 41.8925C183.458 41.8149 183.427 41.7417 183.377 41.6816Z" fill="#8585AD"/>
<path d="M181.238 43.2929C181.406 43.2928 181.571 43.2472 181.715 43.161C181.859 43.0748 181.977 42.9513 182.057 42.8034C182.06 42.7963 182.062 42.7884 182.062 42.7804C182.062 42.7724 182.059 42.7646 182.055 42.7577C182.051 42.7508 182.045 42.7452 182.038 42.7412C182.031 42.7373 182.024 42.7352 182.016 42.7352H180.461C180.453 42.7352 180.445 42.7372 180.438 42.7412C180.431 42.7451 180.425 42.7508 180.421 42.7576C180.417 42.7645 180.415 42.7723 180.415 42.7804C180.414 42.7884 180.416 42.7963 180.42 42.8034C180.499 42.9513 180.618 43.0748 180.762 43.161C180.906 43.2472 181.07 43.2927 181.238 43.2929Z" fill="#8585AD"/>
</g>
<line x1="193.541" y1="37.4453" x2="193.541" y2="43.9347" stroke="#E0E0EB" stroke-width="0.27039"/>
<rect x="210.981" y="39.0664" width="27.8502" height="3.24469" rx="1.62234" fill="#A3A3C2"/>
<path d="M205.033 37.1738C203.094 37.1738 201.517 38.7507 201.517 40.6889C201.517 42.6271 203.094 44.204 205.033 44.204C206.971 44.204 208.548 42.6271 208.548 40.6889C208.548 38.7507 206.971 37.1738 205.033 37.1738ZM204.184 39.148C204.398 38.9211 204.699 38.7962 205.033 38.7962C205.366 38.7962 205.664 38.9219 205.879 39.15C206.097 39.3812 206.203 39.6918 206.178 40.0258C206.128 40.6889 205.614 41.2297 205.033 41.2297C204.451 41.2297 203.936 40.6889 203.887 40.0256C203.862 39.689 203.968 39.3773 204.184 39.148ZM205.033 43.6632C204.635 43.6635 204.242 43.584 203.877 43.4295C203.511 43.275 203.18 43.0486 202.903 42.7638C203.062 42.5379 203.264 42.3457 203.497 42.1987C203.928 41.9226 204.473 41.7705 205.033 41.7705C205.592 41.7705 206.137 41.9226 206.568 42.1987C206.801 42.3457 207.003 42.5378 207.162 42.7638C206.885 43.0487 206.554 43.2751 206.188 43.4295C205.823 43.584 205.43 43.6635 205.033 43.6632V43.6632Z" fill="url(#paint3_linear_34866_53295)"/>
<g clip-path="url(#clip8_34866_53295)">
<path d="M207.736 44.7125C207.009 44.7125 206.418 44.1211 206.418 43.3943C206.418 42.6675 207.009 42.0762 207.736 42.0762C208.463 42.0762 209.054 42.6675 209.054 43.3943C209.054 44.1211 208.463 44.7125 207.736 44.7125Z" fill="#2EB865"/>
</g>
<rect x="206.384" y="42.0419" width="2.7039" height="2.7039" rx="1.35195" stroke="white" stroke-width="0.540781"/>
</g>
</g>
<path opacity="0.7" d="M371.559 98.748L361.454 93.159L361.666 104.704L371.559 98.748ZM361.339 98.5922L361.405 97.5944C359.134 97.4455 356.893 97.2222 354.682 96.932L354.552 97.9235L354.422 98.915C356.675 99.2107 358.958 99.4383 361.274 99.5901L361.339 98.5922ZM347.832 96.8277L348.023 95.8461C345.796 95.413 343.599 94.9164 341.428 94.3644L341.182 95.3335L340.935 96.3027C343.14 96.8635 345.375 97.3686 347.641 97.8093L347.832 96.8277ZM334.626 93.482L334.922 92.5268C332.756 91.8558 330.617 91.1356 328.503 90.3749L328.165 91.3158L327.826 92.2567C329.966 93.0268 332.133 93.7567 334.33 94.4372L334.626 93.482ZM321.8 88.8833L322.174 87.9559C320.067 87.1058 317.985 86.2229 315.924 85.3165L315.521 86.2319L315.119 87.1473C317.196 88.0609 319.298 88.9519 321.426 89.8106L321.8 88.8833ZM309.319 83.4129L309.742 82.5071C307.676 81.5406 305.631 80.5597 303.605 79.5743L303.167 80.4736L302.73 81.3729C304.763 82.3614 306.817 83.3468 308.895 84.3187L309.319 83.4129ZM297.055 77.4713L297.498 76.5748C295.442 75.5585 293.402 74.5476 291.379 73.5551L290.939 74.4529L290.498 75.3507C292.518 76.3414 294.554 77.3503 296.612 78.3677L297.055 77.4713ZM284.804 71.4881L285.232 70.5843C283.148 69.5972 281.078 68.6415 279.019 67.7306L278.614 68.6451L278.209 69.5596C280.249 70.4619 282.303 71.4101 284.376 72.3918L284.804 71.4881ZM272.326 66.0047L272.694 65.0745C270.534 64.2217 268.382 63.4337 266.235 62.7266L265.923 63.6763L265.61 64.6261C267.714 65.3195 269.829 66.0939 271.959 66.9348L272.326 66.0047ZM259.379 61.787L259.617 60.8158C257.356 60.2617 255.096 59.816 252.834 59.4979L252.695 60.4881L252.556 61.4784C254.744 61.7862 256.938 62.2185 259.141 62.7583L259.379 61.787ZM245.907 59.9432L245.924 58.9433C244.767 58.9236 243.609 58.942 242.449 59.0013L242.5 60L242.551 60.9987C243.664 60.9418 244.777 60.924 245.89 60.943L245.907 59.9432Z" fill="#8585AD"/>
<g filter="url(#filter3_d_34866_53295)">
<path d="M311.625 67C307.713 67 304.542 70.2634 304.542 74.289V77.8621C302.586 77.8621 301 79.4831 301 81.4828V89.6293C301 91.629 302.586 93.25 304.542 93.25H318.708C320.664 93.25 322.25 91.629 322.25 89.6293V81.4828C322.25 79.4831 320.664 77.8621 318.708 77.8621H315.954H307.296V74.289C307.296 72.0526 309.452 69.8346 311.625 69.8346C313.111 69.8346 314.589 70.8719 315.375 72.243C315.375 72.243 316.196 73.1521 317.25 72.625C318.304 72.0979 317.968 71.0412 317.968 71.0412C316.807 68.6456 314.403 67 311.625 67Z" fill="url(#paint4_linear_34866_53295)"/>
</g>
</g>
<defs>
<filter id="filter0_f_34866_53295" x="362.404" y="148.137" width="199.123" height="14.5574" filterUnits="userSpaceOnUse" color-interpolation-filters="sRGB">
<feFlood flood-opacity="0" result="BackgroundImageFix"/>
<feBlend mode="normal" in="SourceGraphic" in2="BackgroundImageFix" result="shape"/>
<feGaussianBlur stdDeviation="3.12371" result="effect1_foregroundBlur_34866_53295"/>
</filter>
<filter id="filter1_d_34866_53295" x="-155.962" y="14.8926" width="418.283" height="305.885" filterUnits="userSpaceOnUse" color-interpolation-filters="sRGB">
<feFlood flood-opacity="0" result="BackgroundImageFix"/>
<feColorMatrix in="SourceAlpha" type="matrix" values="0 0 0 0 0 0 0 0 0 0 0 0 0 0 0 0 0 0 127 0" result="hardAlpha"/>
<feOffset dy="1.19238"/>
<feGaussianBlur stdDeviation="2.98095"/>
<feComposite in2="hardAlpha" operator="out"/>
<feColorMatrix type="matrix" values="0 0 0 0 0 0 0 0 0 0 0 0 0 0 0 0 0 0 0.15 0"/>
<feBlend mode="normal" in2="BackgroundImageFix" result="effect1_dropShadow_34866_53295"/>
<feBlend mode="normal" in="SourceGraphic" in2="effect1_dropShadow_34866_53295" result="shape"/>
</filter>
<filter id="filter2_d_34866_53295" x="5.21454" y="78.0029" width="171.968" height="220.368" filterUnits="userSpaceOnUse" color-interpolation-filters="sRGB">
<feFlood flood-opacity="0" result="BackgroundImageFix"/>
<feColorMatrix in="SourceAlpha" type="matrix" values="0 0 0 0 0 0 0 0 0 0 0 0 0 0 0 0 0 0 127 0" result="hardAlpha"/>
<feOffset dy="1.08156"/>
<feGaussianBlur stdDeviation="1.62234"/>
<feComposite in2="hardAlpha" operator="out"/>
<feColorMatrix type="matrix" values="0 0 0 0 0 0 0 0 0 0 0 0 0 0 0 0 0 0 0.08 0"/>
<feBlend mode="normal" in2="BackgroundImageFix" result="effect1_dropShadow_34866_53295"/>
<feBlend mode="normal" in="SourceGraphic" in2="effect1_dropShadow_34866_53295" result="shape"/>
</filter>
<filter id="filter3_d_34866_53295" x="281" y="51" width="61.25" height="66.25" filterUnits="userSpaceOnUse" color-interpolation-filters="sRGB">
<feFlood flood-opacity="0" result="BackgroundImageFix"/>
<feColorMatrix in="SourceAlpha" type="matrix" values="0 0 0 0 0 0 0 0 0 0 0 0 0 0 0 0 0 0 127 0" result="hardAlpha"/>
<feOffset dy="4"/>
<feGaussianBlur stdDeviation="10"/>
<feComposite in2="hardAlpha" operator="out"/>
<feColorMatrix type="matrix" values="0 0 0 0 0 0 0 0 0 0 0 0 0 0 0 0 0 0 0.15 0"/>
<feBlend mode="normal" in2="BackgroundImageFix" result="effect1_dropShadow_34866_53295"/>
<feBlend mode="normal" in="SourceGraphic" in2="effect1_dropShadow_34866_53295" result="shape"/>
</filter>
<linearGradient id="paint0_linear_34866_53295" x1="357.929" y1="149.848" x2="565.798" y2="149.848" gradientUnits="userSpaceOnUse">
<stop stop-color="#B7C2D0"/>
<stop offset="0.0295345" stop-color="#CAD4DB"/>
<stop offset="0.0625" stop-color="#BECCDE"/>
<stop offset="0.133609" stop-color="#B7C2D0" stop-opacity="0.3"/>
<stop offset="0.865967" stop-color="#B7C2D0" stop-opacity="0.3"/>
<stop offset="0.941937" stop-color="#BECCDE"/>
<stop offset="0.971275" stop-color="#CAD4DB"/>
<stop offset="0.996436" stop-color="#B7C2D0"/>
</linearGradient>
<linearGradient id="paint1_linear_34866_53295" x1="461.863" y1="151.705" x2="461.863" y2="156.448" gradientUnits="userSpaceOnUse">
<stop stop-color="#D1DBE9" stop-opacity="0.6"/>
<stop offset="1" stop-color="#AAB5C6" stop-opacity="0.6"/>
</linearGradient>
<linearGradient id="paint2_linear_34866_53295" x1="448.15" y1="149.745" x2="476.402" y2="149.745" gradientUnits="userSpaceOnUse">
<stop stop-color="#CFD9E7"/>
<stop offset="0.317518" stop-color="#CFD9E7" stop-opacity="0"/>
<stop offset="0.660584" stop-color="#CFD9E7" stop-opacity="0"/>
<stop offset="1" stop-color="#CFD9E7"/>
</linearGradient>
<linearGradient id="paint3_linear_34866_53295" x1="201.417" y1="37.0606" x2="210.028" y2="40.7189" gradientUnits="userSpaceOnUse">
<stop stop-color="#338BFF"/>
<stop offset="1" stop-color="#0058CC"/>
</linearGradient>
<linearGradient id="paint4_linear_34866_53295" x1="301" y1="67" x2="324" y2="99" gradientUnits="userSpaceOnUse">
<stop stop-color="#B82E40"/>
<stop offset="1" stop-color="#910819"/>
</linearGradient>
<clipPath id="clip0_34866_53295">
<path d="M0 12C0 5.37258 5.37258 0 12 0H596C602.627 0 608 5.37258 608 12V174C608 180.627 602.627 186 596 186H12C5.37257 186 0 180.627 0 174V12Z" fill="white"/>
</clipPath>
<clipPath id="clip1_34866_53295">
<rect width="389.362" height="276.88" fill="white" transform="translate(-142.148 28.5215)"/>
</clipPath>
<clipPath id="clip2_34866_53295">
<rect width="61.649" height="16.4938" fill="white" transform="translate(18.1934 127.756)"/>
</clipPath>
<clipPath id="clip3_34866_53295">
<rect width="61.649" height="16.4938" fill="white" transform="translate(18.1934 150.738)"/>
</clipPath>
<clipPath id="clip4_34866_53295">
<rect width="61.649" height="16.4938" fill="white" transform="translate(18.1934 173.723)"/>
</clipPath>
<clipPath id="clip5_34866_53295">
<rect width="4.32625" height="4.32625" fill="white" transform="translate(123.916 58.2637)"/>
</clipPath>
<clipPath id="clip6_34866_53295">
<rect width="4.32625" height="4.32625" fill="white" transform="translate(170.423 58.2637)"/>
</clipPath>
<clipPath id="clip7_34866_53295">
<rect width="5.94859" height="5.94859" fill="white" transform="translate(178.264 37.7148)"/>
</clipPath>
<clipPath id="clip8_34866_53295">
<rect x="206.114" y="41.7715" width="3.24469" height="3.24469" rx="1.62234" fill="white"/>
</clipPath>
</defs>
</svg>
