<svg id="Capa_1" enable-background="new 0 0 791.454 791.454" viewBox="0 0 791.454 791.454" xmlns="http://www.w3.org/2000/svg"><g><g id="Vrstva_x0020_1_29_"><path d="m202.621 0h264.884l224.238 233.828v454.717c0 56.783-46.126 102.909-103.061 102.909h-386.06c-56.783 0-102.909-46.126-102.909-102.909v-585.636c-.001-56.783 46.125-102.909 102.908-102.909z" fill="#0263d1"/><g fill="#fff"><path clip-rule="evenodd" d="m467.2 0v232.002h224.542z" fill-rule="evenodd" opacity=".302"/><path d="m500.082 411.788h-208.71c-9.591 0-17.507-7.764-17.507-17.354s7.916-17.354 17.507-17.354h208.71c9.591 0 17.354 7.764 17.354 17.354s-7.763 17.354-17.354 17.354zm-69.57 208.71h-139.14c-9.591 0-17.507-7.764-17.507-17.354s7.916-17.354 17.507-17.354h139.14c9.591 0 17.354 7.764 17.354 17.354s-7.763 17.354-17.354 17.354zm69.57-69.57h-208.71c-9.591 0-17.507-7.764-17.507-17.354s7.916-17.354 17.507-17.354h208.71c9.591 0 17.354 7.764 17.354 17.354s-7.763 17.354-17.354 17.354zm0-69.57h-208.71c-9.591 0-17.507-7.764-17.507-17.354s7.916-17.354 17.507-17.354h208.71c9.591 0 17.354 7.764 17.354 17.354s-7.763 17.354-17.354 17.354z"/></g></g></g></svg>