<svg width="24" height="24" viewBox="0 0 24 24" fill="none" xmlns="http://www.w3.org/2000/svg">
<path d="M20.8506 12.5498C21.3268 12.5498 21.7137 12.9359 21.7139 13.4121V15.1377C21.7138 15.614 21.3269 16 20.8506 16H19.9883C19.5121 15.9999 19.1261 15.6139 19.126 15.1377V13.4121C19.1262 12.936 19.5121 12.5499 19.9883 12.5498H20.8506Z" fill="var(--fill-color, #000000)"/>
<path fill-rule="evenodd" clip-rule="evenodd" d="M22.875 9.75C22.9745 9.75 23.0703 9.78905 23.1406 9.85938C23.2109 9.9297 23.25 10.0256 23.25 10.125V18.375C23.25 19.0712 22.9737 19.7392 22.4814 20.2314C21.9892 20.7237 21.3212 21 20.625 21H3.375C2.67883 21 2.01083 20.7237 1.51855 20.2314C1.0263 19.7392 0.75003 19.0712 0.75 18.375V10.125C0.75 10.0256 0.789084 9.9297 0.859375 9.85938C0.929701 9.78905 1.02554 9.75 1.125 9.75H22.875ZM18.1396 11.6875C17.568 11.6875 17.7251 13.4121 16 13.4121H15.8604V12H15V13.4209C14.5891 13.4649 14.2746 13.7011 14.2744 13.9873V14H14V16H14.8604V15.1045C14.9476 15.1243 15.0405 15.1377 15.1377 15.1377H16L16.1602 15.1426C17.7891 15.244 17.5859 16.8622 18.1396 16.8623H21.541C22.1124 16.8622 22.576 16.4283 22.5762 15.8926V12.6582C22.5762 12.1224 22.1125 11.6876 21.541 11.6875H18.1396ZM2 14V16H2.86035V14H2ZM4 14V16H4.86035V14H4ZM6 14V16H6.86035V14H6ZM8 14V16H8.86035V14H8ZM10 14V16H10.8604V14H10ZM12 14V16H12.8604V14H12ZM1 12V14H1.86035V12H1ZM3 12V14H3.86035V12H3ZM5 12V14H5.86035V12H5ZM7 12V14H7.86035V12H7ZM9 12V14H9.86035V12H9ZM11 12V14H11.8604V12H11ZM13 12V14H13.8604V12H13Z" fill="var(--fill-color, #000000)"/>
<path d="M6.93262 3C7.45163 2.99904 7.95918 3.15291 8.39062 3.44141L9.69336 4.3125C9.87808 4.4354 10.0955 4.50066 10.3174 4.5H20.625C21.3212 4.5 21.9892 4.77628 22.4814 5.26856C22.9737 5.76084 23.25 6.42884 23.25 7.125V7.875C23.25 7.97422 23.2107 8.06939 23.1406 8.13965C23.0703 8.20998 22.9745 8.25 22.875 8.25H1.125C1.02554 8.25 0.929701 8.20998 0.859375 8.13965C0.789345 8.06939 0.75003 7.97422 0.75 7.875V5.625C0.75 4.92884 1.02631 4.26084 1.51855 3.76856C2.01084 3.27628 2.67881 3 3.375 3H6.93262Z" fill="var(--fill-color, #000000)"/>
</svg>
