<?xml version="1.0" encoding="utf-8"?>
<!-- Generator: $$$/GeneralStr/196=Adobe Illustrator 27.6.0, SVG Export Plug-In . SVG Version: 6.00 Build 0)  -->
<svg version="1.1" id="Calque_1" xmlns="http://www.w3.org/2000/svg" xmlns:xlink="http://www.w3.org/1999/xlink" x="0px" y="0px"
	 viewBox="0 0 55.3 55.3" style="enable-background:new 0 0 55.3 55.3;" xml:space="preserve">
<style type="text/css">
	.st0{fill:#00294B;}
	.st1{fill:#FFFFFF;}
</style>
<g>
	<path class="st0" d="M26.5,0.1C26,0,25.5,0,25,0C18.2,0,12,2.9,6.6,8.7C1.6,13.9,0,18.2,0,23.3C0,26,0.5,29,1.2,32.5
		c1.3,6.6,5.3,13,10.8,17.6c4.2,3.5,8.9,5.2,13.9,5.3c2.6,0,5.2-0.4,7.9-1.4c8.6-3,16.9-11.5,20.1-20.7c1-2.9,1.5-5.8,1.5-8.5
		c0-6.6-3-12.4-8.8-16.5C39.5,3.2,32.8,0.4,26.5,0.1z"/>
	<g>
		<path class="st1" d="M16.6,27.7h-1.9v0.1c0,0.4-0.2,3.6-3.1,3.6c-2.6,0-3.9-2.3-3.9-6.9c0-4.6,1.3-6.9,3.9-6.9
			c2.9,0,3.1,3.4,3.1,3.6v0.1h1.9c0.2,0,0.4-0.1,0.5-0.2c0.1-0.1,0.2-0.3,0.2-0.4c0-0.9-0.5-5.4-5.7-5.4c-4.2,0-6.4,3.2-6.4,9.2
			s2.2,9.2,6.4,9.2c5,0,5.6-4.1,5.7-5.3c0-0.2-0.1-0.3-0.2-0.5C17,27.8,16.8,27.7,16.6,27.7z"/>
		<path class="st1" d="M46.1,23.4L46.1,23.4l-1.6-0.7c-1.6-0.7-2.1-1.4-2.1-2.6c0-1.6,1.1-2.6,2.9-2.6c1,0,1.8,0.2,2.8,1.2l0.1,0.1
			L49,18c0.5-0.5,0.4-0.9,0.1-1.2c-0.8-1-2.2-1.6-3.9-1.6c-3.1,0-5.4,2.1-5.4,4.9c0,2.8,1.7,3.9,3.6,4.8l1.7,0.7
			c1.7,0.7,2.5,1.4,2.5,3c0,2.2-2,2.8-3.2,2.8c-1,0-2.1-0.2-3.5-1.8l-0.1-0.1L40,30.4c-0.5,0.4-0.5,0.8,0,1.3
			c1.3,1.6,3.1,1.9,4.4,1.9c2.8,0,5.7-1.7,5.7-5.1C50.1,25.7,48.5,24.4,46.1,23.4z"/>
		<path class="st1" d="M30,20.6c0-2.8-2.3-5.2-5.2-5.2c-1.3,0-2.6,0.5-3.5,1.3v-1h-1.7c-0.5,0-0.7,0.3-0.7,0.7V33
			c0,0.5,0.3,0.7,0.7,0.7h1.7V20.7c0-1.7,1.4-3.1,3.1-3.1c1.7,0,3.1,1.4,3.1,3.1v13.1h1.7c0.5,0,0.7-0.3,0.7-0.7
			C30,33,30,20.6,30,20.6z"/>
		<path class="st1" d="M39.8,16.5c0.1-0.1,0.1-0.2,0.1-0.4c0-0.3-0.2-0.5-0.4-0.6c-0.5-0.2-1-0.2-1.6-0.2c-1.3,0-2.6,0.5-3.5,1.3v-1
			h-1.7c-0.5,0-0.7,0.3-0.7,0.7V33c0,0.5,0.3,0.7,0.7,0.7h1.7V20.6c0-1.7,1.4-3.1,3.1-3.1c0.4,0,0.9,0.1,1.3,0.3L39.8,16.5
			L39.8,16.5z"/>
	</g>
</g>
</svg>
