<?xml version="1.0" encoding="iso-8859-1"?>
<!-- Generator: Adobe Illustrator 18.0.0, SVG Export Plug-In . SVG Version: 6.00 Build 0)  -->
<!DOCTYPE svg PUBLIC "-//W3C//DTD SVG 1.1//EN" "http://www.w3.org/Graphics/SVG/1.1/DTD/svg11.dtd">
<svg version="1.1" id="Capa_1" xmlns="http://www.w3.org/2000/svg" xmlns:xlink="http://www.w3.org/1999/xlink" x="0px" y="0px"
	 viewBox="0 0 317.001 317.001" style="enable-background:new 0 0 317.001 317.001;" xml:space="preserve">
<g>
	<path d="M270.826,70.55L212.17,3.66C210.13,1.334,207.187,0,204.093,0H55.941C49.076,0,43.51,5.566,43.51,12.431V304.57
		c0,6.866,5.566,12.431,12.431,12.431h205.118c6.866,0,12.432-5.566,12.432-12.432V77.633
		C273.491,75.027,272.544,72.51,270.826,70.55z M136.418,292.4h-32.741v-51.319h31.675v9.518h-20.025v10.66h18.883v9.441h-18.883
		v12.183h21.092V292.4z M176.393,292.4h-32.056v-51.319h11.649v41.573h20.406V292.4z M214.616,250.599h-19.721v11.726h18.427v9.441
		h-18.427V292.4h-11.649v-51.319h31.37V250.599z M55.941,211.073L55.941,211.073V12.432H199.94v63.601
		c0,3.431,2.78,6.216,6.216,6.216h54.903l0.006,128.824H55.941z"/>
	<path d="M159.982,104.836c1.993,0,3.609-1.616,3.609-3.609V88.446c0-1.993-1.616-3.609-3.609-3.609h-7.425
		c-0.899-3.382-2.247-6.582-3.969-9.539l5.263-5.263c1.409-1.409,1.409-3.695,0-5.104l-9.038-9.038c-1.41-1.409-3.695-1.409-5.104,0
		l-5.263,5.263c-2.957-1.722-6.156-3.069-9.539-3.969v-7.424c0-1.993-1.616-3.609-3.609-3.609h-12.781
		c-1.993,0-3.609,1.616-3.609,3.609v7.424c-3.382,0.899-6.582,2.247-9.539,3.969l-5.262-5.263c-1.41-1.409-3.695-1.409-5.104,0
		l-9.038,9.038c-1.41,1.409-1.41,3.695,0,5.104l5.262,5.263c-1.722,2.957-3.07,6.156-3.969,9.539h-7.424
		c-1.993,0-3.609,1.616-3.609,3.609v12.781c0,1.993,1.616,3.609,3.609,3.609h7.424c0.899,3.382,2.247,6.582,3.969,9.539
		l-5.262,5.263c-1.41,1.409-1.41,3.695,0,5.104l9.038,9.038c1.409,1.409,3.695,1.409,5.104,0l5.262-5.263
		c2.957,1.722,6.156,3.069,9.539,3.969v7.425c0,1.993,1.616,3.609,3.609,3.609h12.781c1.993,0,3.609-1.616,3.609-3.609v-7.425
		c3.383-0.899,6.582-2.247,9.539-3.969l5.262,5.262c1.409,1.41,3.695,1.41,5.104,0l9.038-9.038c1.409-1.409,1.409-3.695,0-5.104
		l-5.263-5.263c1.722-2.957,3.07-6.156,3.969-9.539H159.982z M114.906,113.793c-10.453,0-18.957-8.504-18.957-18.957
		s8.504-18.957,18.957-18.957s18.957,8.504,18.957,18.957S125.36,113.793,114.906,113.793z"/>
	<path d="M228.191,144.883h-5.31c-0.643-2.419-1.607-4.707-2.839-6.822l3.764-3.764c1.008-1.008,1.008-2.642,0-3.651l-6.464-6.464
		c-1.008-1.008-2.642-1.008-3.651,0l-3.764,3.764c-2.115-1.232-4.403-2.195-6.822-2.838v-5.31c0-1.426-1.156-2.581-2.581-2.581
		h-9.141c-1.426,0-2.581,1.156-2.581,2.581v5.31c-2.419,0.643-4.707,1.607-6.822,2.838l-3.764-3.764
		c-1.008-1.008-2.642-1.008-3.651,0l-6.464,6.464c-1.008,1.008-1.008,2.643,0,3.651l3.764,3.764
		c-1.232,2.115-2.195,4.403-2.838,6.822h-5.31c-1.426,0-2.581,1.156-2.581,2.581v9.141c0,1.426,1.156,2.581,2.581,2.581h5.31
		c0.643,2.419,1.607,4.707,2.838,6.822l-3.764,3.764c-1.008,1.008-1.008,2.643,0,3.651l6.464,6.464c1.008,1.008,2.643,1.008,3.651,0
		l3.764-3.764c2.115,1.232,4.403,2.195,6.822,2.838v5.311c0,1.426,1.156,2.581,2.581,2.581h9.141c1.426,0,2.581-1.156,2.581-2.581
		v-5.311c2.419-0.643,4.707-1.607,6.822-2.838l3.764,3.764c1.008,1.008,2.642,1.008,3.651,0l6.464-6.464
		c1.008-1.008,1.008-2.642,0-3.651l-3.764-3.764c1.232-2.115,2.195-4.403,2.839-6.822h5.31c1.426,0,2.581-1.156,2.581-2.581v-9.141
		C230.773,146.038,229.617,144.883,228.191,144.883z M195.953,165.593c-7.476,0-13.558-6.082-13.558-13.558
		c0-7.476,6.082-13.558,13.558-13.558s13.558,6.082,13.558,13.558C209.511,159.511,203.429,165.593,195.953,165.593z"/>
</g>
<g>
</g>
<g>
</g>
<g>
</g>
<g>
</g>
<g>
</g>
<g>
</g>
<g>
</g>
<g>
</g>
<g>
</g>
<g>
</g>
<g>
</g>
<g>
</g>
<g>
</g>
<g>
</g>
<g>
</g>
</svg>
