<?xml version="1.0" encoding="iso-8859-1"?>
<!-- Generator: Adobe Illustrator 18.0.0, SVG Export Plug-In . SVG Version: 6.00 Build 0)  -->
<!DOCTYPE svg PUBLIC "-//W3C//DTD SVG 1.1//EN" "http://www.w3.org/Graphics/SVG/1.1/DTD/svg11.dtd">
<svg version="1.1" id="Capa_1" xmlns="http://www.w3.org/2000/svg" xmlns:xlink="http://www.w3.org/1999/xlink" x="0px" y="0px"
	 viewBox="0 0 317.001 317.001" style="enable-background:new 0 0 317.001 317.001;" xml:space="preserve">
<g>
	<path d="M270.825,70.55L212.17,3.66C210.13,1.334,207.187,0,204.093,0H55.941C49.076,0,43.51,5.566,43.51,12.431V304.57
		c0,6.866,5.566,12.431,12.431,12.431h205.118c6.866,0,12.432-5.566,12.432-12.432V77.633
		C273.491,75.027,272.544,72.51,270.825,70.55z M124.787,288.195H92.539v-50.548h31.198v9.375h-19.724v10.499h18.599v9.3h-18.599
		v11.999h20.773V288.195z M176.087,288.195l-0.75-19.35c-0.226-6.074-0.45-13.424-0.45-20.773h-0.225
		c-1.575,6.449-3.675,13.649-5.625,19.574l-6.149,19.724h-8.925l-5.4-19.574c-1.649-5.925-3.375-13.124-4.574-19.724h-0.15
		c-0.3,6.824-0.524,14.624-0.899,20.924l-0.9,19.199h-10.574l3.225-50.548h15.225l4.949,16.874c1.575,5.85,3.15,12.149,4.275,18.074
		h0.225c1.425-5.85,3.15-12.524,4.8-18.149l5.399-16.799h14.925l2.775,50.548H176.087z M227.612,288.195h-31.573v-50.548h11.475
		v40.948h20.099V288.195z M55.941,211.073L55.941,211.073V12.432H199.94v63.601c0,3.431,2.78,6.216,6.216,6.216h54.904
		l0.006,128.824H55.941z"/>
	<path d="M210.087,100.746H106.914c-6.14,0-11.134,4.994-11.134,11.134v63.282c0,6.14,4.994,11.134,11.134,11.134h103.173
		c6.14,0,11.134-4.994,11.134-11.134V111.88C221.221,105.74,216.227,100.746,210.087,100.746z M106.914,109.824h103.173
		c0.379,0,0.74,0.103,1.053,0.291l-53.229,35.864l-52.083-35.844C106.148,109.935,106.521,109.824,106.914,109.824z
		 M104.857,168.438v-47.949l35.107,24.16L104.857,168.438z M210.087,177.218H108.086l39.908-27.043l9.862,6.787l11.697-7.881
		l41.402,27.941C210.688,177.149,210.391,177.218,210.087,177.218z M212.143,166.872l-34.469-23.262l34.469-23.225V166.872z"/>
</g>
<g>
</g>
<g>
</g>
<g>
</g>
<g>
</g>
<g>
</g>
<g>
</g>
<g>
</g>
<g>
</g>
<g>
</g>
<g>
</g>
<g>
</g>
<g>
</g>
<g>
</g>
<g>
</g>
<g>
</g>
</svg>
