<?xml version="1.0" encoding="iso-8859-1"?>
<!-- Generator: Adobe Illustrator 16.0.0, SVG Export Plug-In . SVG Version: 6.00 Build 0)  -->
<!DOCTYPE svg PUBLIC "-//W3C//DTD SVG 1.1//EN" "http://www.w3.org/Graphics/SVG/1.1/DTD/svg11.dtd">
<svg version="1.1" id="Capa_1" xmlns="http://www.w3.org/2000/svg" xmlns:xlink="http://www.w3.org/1999/xlink" x="0px" y="0px"
	 width="550.801px" height="550.801px" viewBox="0 0 550.801 550.801" style="enable-background:new 0 0 550.801 550.801;"
	 xml:space="preserve">
<g>
	<g>
		<path d="M274.999,413.364c-6.02,0-10.101,0.58-12.245,1.171v38.675c2.531,0.58,5.643,0.786,9.914,0.786
			c15.747,0,25.471-7.979,25.471-21.384C298.139,420.557,289.775,413.364,274.999,413.364z"/>
		<path d="M475.095,131.992c-0.032-2.526-0.844-5.021-2.579-6.993L366.324,3.694c-0.031-0.034-0.062-0.045-0.084-0.076
			c-0.633-0.707-1.371-1.29-2.151-1.804c-0.232-0.15-0.464-0.285-0.707-0.422c-0.675-0.366-1.382-0.67-2.13-0.892
			c-0.201-0.058-0.38-0.14-0.58-0.192C359.87,0.114,359.037,0,358.193,0H97.2C85.292,0,75.6,9.693,75.6,21.601v507.6
			c0,11.913,9.692,21.601,21.6,21.601H453.6c11.908,0,21.601-9.688,21.601-21.601V133.202
			C475.2,132.796,475.137,132.398,475.095,131.992z M213.187,522.988H129.6V391.985h80.866v24.29h-51.124v27.216h48.202v24.104
			h-48.202v31.104h53.844V522.988z M315.436,462.935c-10.114,9.523-25.08,13.801-42.569,13.801c-3.892,0-7.391-0.195-10.112-0.58
			v46.844h-29.355V393.731c9.142-1.556,21.967-2.722,40.047-2.722c18.27,0,31.295,3.496,40.049,10.5
			c8.354,6.602,13.985,17.481,13.985,30.316C327.48,444.656,323.209,455.541,315.436,462.935z M378.422,524.935
			c-14.966,0-29.731-3.887-37.125-7.969l6.033-24.489c7.963,4.081,20.207,8.163,32.843,8.163c13.605,0,20.798-5.643,20.798-14.191
			c0-8.168-6.223-12.83-21.958-18.462c-21.764-7.583-35.965-19.639-35.965-38.686c0-22.35,18.657-39.456,49.575-39.456
			c14.761,0,25.65,3.111,33.429,6.607l-6.613,23.904c-5.252-2.521-14.575-6.212-27.411-6.212c-12.825,0-19.048,5.832-19.048,12.635
			c0,8.358,7.394,12.045,24.3,18.463c23.13,8.554,34.02,20.604,34.02,39.07C431.293,506.271,414.387,524.935,378.422,524.935z
			 M97.2,366.752V21.601h250.192v110.515c0,5.961,4.842,10.8,10.801,10.8H453.6v223.836H97.2z"/>
		<path d="M290.703,288.41c-33.452-5.289-37.346-41.679-37.744-52.722h10.766v-54.087h-12.337V124.67
			c4.103-1.231,7.116-4.994,7.116-9.498c-0.011-5.502-4.461-9.964-9.97-9.964c-5.497,0-9.967,4.467-9.967,9.964
			c0,4.504,3.017,8.267,7.127,9.498v36.737c-9.45-27.129-30.884-32.002-41.763-32.646v-22.024h-30.364v54.082h30.364v-24.675
			c29.344,3.499,37.059,30.153,39.042,45.457h-9.619v54.082H245.7v59.018c-4.116,1.224-7.127,4.988-7.127,9.503
			c0,5.505,4.469,9.967,9.967,9.967c5.508,0,9.958-4.462,9.969-9.967c0-4.509-3.008-8.274-7.117-9.498v-29.895
			c9.131,24.395,28.216,29.984,39.316,31.061v22.19h30.375v-54.101h-30.375v24.448H290.703z"/>
	</g>
</g>
<g>
</g>
<g>
</g>
<g>
</g>
<g>
</g>
<g>
</g>
<g>
</g>
<g>
</g>
<g>
</g>
<g>
</g>
<g>
</g>
<g>
</g>
<g>
</g>
<g>
</g>
<g>
</g>
<g>
</g>
</svg>
