<?xml version="1.0" encoding="iso-8859-1"?>
<!-- Generator: Adobe Illustrator 16.0.0, SVG Export Plug-In . SVG Version: 6.00 Build 0)  -->
<!DOCTYPE svg PUBLIC "-//W3C//DTD SVG 1.1//EN" "http://www.w3.org/Graphics/SVG/1.1/DTD/svg11.dtd">
<svg version="1.1" id="Capa_1" xmlns="http://www.w3.org/2000/svg" xmlns:xlink="http://www.w3.org/1999/xlink" x="0px" y="0px"
	 width="550.801px" height="550.801px" viewBox="0 0 550.801 550.801" style="enable-background:new 0 0 550.801 550.801;"
	 xml:space="preserve">
<g>
	<g>
		<g>
			<path d="M362.201,411.213c-20.029,0-31.684,19.042-31.684,44.508c0,25.66,12.045,43.737,31.873,43.737
				c20.018,0,31.493-19.048,31.493-44.508C393.884,431.431,382.609,411.213,362.201,411.213z"/>
		</g>
		<g>
			<path d="M475.095,131.992c-0.032-2.526-0.844-5.021-2.579-6.993L366.324,3.694c-0.031-0.034-0.062-0.045-0.084-0.076
				c-0.633-0.707-1.371-1.29-2.151-1.804c-0.232-0.15-0.464-0.285-0.707-0.422c-0.675-0.366-1.382-0.67-2.13-0.892
				c-0.201-0.058-0.38-0.14-0.58-0.192C359.87,0.114,359.037,0,358.193,0H97.2C85.292,0,75.6,9.693,75.6,21.601v507.6
				c0,11.913,9.692,21.601,21.6,21.601H453.6c11.908,0,21.601-9.688,21.601-21.601V133.202
				C475.2,132.796,475.137,132.398,475.095,131.992z M174.604,520.842h-29.731V389.834h29.731V520.842z M232.345,522.788
				c-14.963,0-29.742-3.892-37.125-7.974l6.022-24.49c7.966,4.082,20.219,8.164,32.843,8.164c13.614,0,20.801-5.633,20.801-14.186
				c0-8.164-6.212-12.836-21.958-18.468c-21.766-7.583-35.962-19.633-35.962-38.676c0-22.359,18.668-39.466,49.57-39.466
				c14.776,0,25.663,3.111,33.431,6.612l-6.613,23.915c-5.244-2.536-14.575-6.223-27.4-6.223c-12.835,0-19.045,5.833-19.045,12.636
				c0,8.358,7.383,12.05,24.289,18.473c23.127,8.543,34.021,20.593,34.021,39.061C285.219,504.12,268.305,522.788,232.345,522.788z
				 M360.84,522.978c-38.875,0-61.625-29.352-61.625-66.667c0-39.266,25.08-68.617,63.756-68.617
				c40.236,0,62.205,30.132,62.205,66.287C425.176,496.938,399.125,522.978,360.84,522.978z M97.2,366.752V21.601h250.192v110.515
				c0,5.961,4.842,10.8,10.801,10.8H453.6v223.836H97.2z"/>
		</g>
		<g>
			<g>
				<polygon points="309.256,101.683 171.737,132.485 309.256,132.485 				"/>
			</g>
			<g>
				<g>
					<path d="M265.476,275.4c0-34.884,25.102-63.975,58.187-70.253v-65.309H165.185v192.557h128.767
						C276.687,319.317,265.476,298.667,265.476,275.4z"/>
				</g>
			</g>
			<g>
				<g>
					<path d="M340.464,211.95c-35.037,0-63.45,28.408-63.45,63.45s28.413,63.45,63.45,63.45c35.042,0,63.45-28.408,63.45-63.45
						S375.506,211.95,340.464,211.95z M340.464,309.814c-19.006,0-34.415-15.408-34.415-34.414
						c0-19.008,15.409-34.415,34.415-34.415c19.005,0,34.414,15.407,34.414,34.415C374.878,294.406,359.469,309.814,340.464,309.814
						z"/>
				</g>
				<g>
					<path d="M340.464,296.694c-11.739,0-21.294-9.556-21.294-21.294c0-11.739,9.561-21.292,21.294-21.292
						c11.738,0,21.294,9.553,21.294,21.292C361.758,287.139,352.202,296.694,340.464,296.694z M340.464,259.509
						c-8.765,0-15.895,7.127-15.895,15.892s7.13,15.895,15.895,15.895s15.894-7.13,15.894-15.895S349.229,259.509,340.464,259.509z"
						/>
				</g>
			</g>
		</g>
	</g>
</g>
<g>
</g>
<g>
</g>
<g>
</g>
<g>
</g>
<g>
</g>
<g>
</g>
<g>
</g>
<g>
</g>
<g>
</g>
<g>
</g>
<g>
</g>
<g>
</g>
<g>
</g>
<g>
</g>
<g>
</g>
</svg>
