<?xml version="1.0" encoding="iso-8859-1"?>
<!-- Generator: Adobe Illustrator 16.0.0, SVG Export Plug-In . SVG Version: 6.00 Build 0)  -->
<!DOCTYPE svg PUBLIC "-//W3C//DTD SVG 1.1//EN" "http://www.w3.org/Graphics/SVG/1.1/DTD/svg11.dtd">
<svg version="1.1" id="Capa_1" xmlns="http://www.w3.org/2000/svg" xmlns:xlink="http://www.w3.org/1999/xlink" x="0px" y="0px"
	 width="548.291px" height="548.291px" viewBox="0 0 548.291 548.291" style="enable-background:new 0 0 548.291 548.291;"
	 xml:space="preserve">
<g>
	<g>
		<path d="M203.823,439.949h-0.193c-0.971,3.889-1.94,8.835-3.011,12.614l-3.879,13.891h14.465l-4.079-13.891
			C205.958,448.678,204.797,443.837,203.823,439.949z"/>
		<path d="M472.918,131.39c-0.021-2.509-0.823-4.997-2.55-6.96L364.656,3.672c-0.031-0.034-0.062-0.044-0.084-0.076
			c-0.63-0.704-1.365-1.279-2.142-1.795c-0.231-0.145-0.463-0.284-0.704-0.42c-0.672-0.365-1.387-0.662-2.121-0.882
			c-0.2-0.063-0.377-0.145-0.577-0.197C358.231,0.113,357.4,0,356.561,0H96.757C84.893,0,75.255,9.649,75.255,21.502V526.79
			c0,11.854,9.638,21.501,21.502,21.501h354.775c11.853,0,21.503-9.647,21.503-21.501V132.595
			C473.036,132.186,472.971,131.79,472.918,131.39z M96.757,21.502H345.81v110.016c0,5.935,4.819,10.751,10.751,10.751h94.972
			v222.815H96.757V21.502z M153.818,494.305l-0.974-25.039c-0.292-7.854-0.58-17.376-0.58-26.887h-0.296
			c-2.037,8.347-4.756,17.67-7.279,25.339l-7.961,25.527h-11.546l-6.99-25.34c-2.133-7.669-4.37-16.992-5.921-25.526h-0.195
			c-0.388,8.84-0.682,18.93-1.172,27.076l-1.161,24.85H96.059l4.171-65.418h19.701l6.407,21.839
			c2.036,7.568,4.076,15.728,5.533,23.406h0.289c1.851-7.58,4.076-16.215,6.216-23.502l6.987-21.736h19.312l3.594,65.417h-14.449
			V494.305z M218.386,494.305l-5.047-16.786h-18.728l-4.662,16.786h-15.341l20.003-65.418h19.41l20.281,65.418H218.386z
			 M274.114,483.05c4.462,0,9.417-0.966,12.325-2.142l2.23,11.556c-2.714,1.358-8.834,2.808-16.792,2.808
			c-22.615,0-34.263-14.068-34.263-32.709c0-22.315,15.922-34.746,35.725-34.746c7.672,0,13.489,1.548,16.112,2.913l-3.013,11.743
			c-3.013-1.259-7.181-2.425-12.428-2.425c-11.746,0-20.87,7.087-20.87,21.647C253.15,474.794,260.911,483.05,274.114,483.05z
			 M352.362,494.305h-14.751v-27.369h-24.369v27.369h-14.844v-65.418h14.844v25.146h24.369v-25.146h14.751V494.305z
			 M387.217,473.728h-25.429v-9.796h25.429V473.728z M425.465,495.377c-19.407,0-30.769-14.656-30.769-33.297
			c0-19.597,12.521-34.259,31.839-34.259c20.089,0,31.061,15.041,31.061,33.098C457.602,482.368,444.594,495.377,425.465,495.377z"
			/>
		<path d="M426.146,439.565c-9.993,0-15.821,9.513-15.821,22.227c0,12.813,6.022,21.838,15.922,21.838
			c10.001,0,15.722-9.507,15.722-22.222C441.968,449.654,436.341,439.565,426.146,439.565z"/>
		<path d="M149.726,146.582c2.155,0,3.935-0.496,5.36-1.478c1.426-0.979,2.462-2.414,3.124-4.297l-5.124-0.869
			c-0.292,0.977-0.709,1.688-1.253,2.129c-0.543,0.438-1.23,0.658-2.054,0.658c-1.176,0-2.161-0.417-2.961-1.279
			c-0.79-0.848-1.21-2.036-1.236-3.558h12.965c0-3.946-0.83-6.88-2.488-8.803c-1.657-1.924-3.937-2.882-6.84-2.882
			c-2.575,0-4.708,0.914-6.391,2.753c-1.683,1.837-2.524,4.375-2.524,7.598c0,2.702,0.64,4.948,1.918,6.72
			C143.838,145.479,146.346,146.582,149.726,146.582z M146.752,131.38c0.738-0.816,1.662-1.231,2.775-1.231
			c1.06,0,1.953,0.388,2.688,1.168c0.738,0.779,1.124,1.918,1.157,3.423h-7.719C145.652,133.319,146.017,132.196,146.752,131.38z"/>
		<polygon points="166.261,146.142 170.259,140.095 174.228,146.142 180.559,146.142 173.356,135.897 179.952,126.666 
			173.899,126.666 170.259,132.021 166.826,126.666 160.513,126.666 167.256,136.094 160.235,146.142 		"/>
		<path d="M191.564,146.582c2.149,0,3.933-0.496,5.351-1.478c1.42-0.979,2.457-2.414,3.129-4.297l-5.126-0.869
			c-0.292,0.977-0.711,1.688-1.254,2.129c-0.544,0.438-1.231,0.658-2.053,0.658c-1.184,0-2.166-0.417-2.956-1.279
			c-0.796-0.848-1.221-2.036-1.249-3.558h12.971c0-3.946-0.821-6.88-2.483-8.803c-1.662-1.924-3.935-2.882-6.843-2.882
			c-2.58,0-4.714,0.914-6.391,2.753c-1.683,1.837-2.532,4.375-2.532,7.598c0,2.702,0.64,4.948,1.926,6.72
			C185.671,145.479,188.175,146.582,191.564,146.582z M188.584,131.38c0.738-0.816,1.662-1.231,2.77-1.231
			c1.057,0,1.956,0.388,2.693,1.168c0.735,0.779,1.118,1.918,1.155,3.423h-7.719C187.482,133.319,187.847,132.196,188.584,131.38z"
			/>
		<path d="M215.409,141.545c-0.625,0.56-1.436,0.827-2.42,0.827c-1.302,0-2.344-0.473-3.118-1.418
			c-0.775-0.947-1.166-2.58-1.166-4.914c0-2.082,0.375-3.559,1.145-4.441c0.758-0.881,1.774-1.322,3.058-1.322
			c0.973,0,1.764,0.259,2.365,0.769c0.609,0.517,1,1.281,1.167,2.291l5.08-0.926c-0.617-2.089-1.622-3.643-3.017-4.669
			c-1.396-1.016-3.273-1.534-5.653-1.534c-2.903,0-5.209,0.893-6.908,2.688c-1.699,1.795-2.554,4.307-2.554,7.535
			c0,3.185,0.845,5.662,2.538,7.457c1.693,1.795,3.966,2.698,6.827,2.698c2.51,0,4.515-0.596,6.002-1.785
			c1.501-1.189,2.501-2.939,3.017-5.268l-5.047-0.851C216.472,140.028,216.031,140.987,215.409,141.545z"/>
		<path d="M351.751,145.669h-30.446v-20.347c0-10.59-8.619-19.199-19.196-19.199h-162.16c-10.596,0-19.203,8.614-19.203,19.199
			v146.152c0,10.598,8.611,19.202,19.203,19.202h31.735c-0.436,0.052-0.856,0.184-1.289,0.226v20.115
			c0,10.594,8.614,19.202,19.199,19.202h162.157c10.594,0,19.197-8.614,19.197-19.202V164.868
			C370.956,154.281,362.345,145.669,351.751,145.669z M139.949,284.272c-7.063,0-12.812-5.737-12.812-12.798V125.322
			c0-7.058,5.743-12.798,12.812-12.798h162.155c7.055,0,12.797,5.74,12.797,12.798v146.152c0,7.061-5.742,12.798-12.797,12.798
			H139.949L139.949,284.272z M364.56,311.028c0,7.056-5.742,12.798-12.809,12.798H189.595c-7.057,0-12.797-5.742-12.797-12.798
			v-20.347h125.307c10.582,0,19.201-8.609,19.201-19.202V152.07h30.446c7.062,0,12.809,5.741,12.809,12.803V311.028z"/>
		<path d="M208.281,209.4c-2.625-13.208,9.916-20.958,9.916-20.958s-4.89-7.063-13.105-8.888c-8.197-1.816-12.316,0.465-16.41,2.168
			c-4.107,1.703-6.155,1.703-6.155,1.703c-5.93,0-10.257-6.269-21.533-3.412c-7.779,1.956-15.966,10.927-17.443,21.641
			c-1.473,10.717,1.714,24.386,7.869,34.987c6.155,10.607,12.422,14.589,16.864,14.702c4.449,0.112,8.89-3.187,14.244-3.987
			c5.354-0.791,8.648,1.94,13.9,3.422c5.247,1.473,7.074,0.103,13.105-5.026c6.042-5.131,11.52-19.83,11.52-19.83
			S210.908,222.627,208.281,209.4z"/>
		<path d="M182.301,177.722c0,0,8.541-0.795,14.352-6.719c5.827-5.935,3.842-15.111,3.842-15.111s-8.17,1.436-13.635,7.128
			C181.394,168.725,182.301,177.722,182.301,177.722z"/>
	</g>
</g>
<g>
</g>
<g>
</g>
<g>
</g>
<g>
</g>
<g>
</g>
<g>
</g>
<g>
</g>
<g>
</g>
<g>
</g>
<g>
</g>
<g>
</g>
<g>
</g>
<g>
</g>
<g>
</g>
<g>
</g>
</svg>
