<?xml version="1.0" encoding="iso-8859-1"?>
<!-- Generator: Adobe Illustrator 18.0.0, SVG Export Plug-In . SVG Version: 6.00 Build 0)  -->
<!DOCTYPE svg PUBLIC "-//W3C//DTD SVG 1.1//EN" "http://www.w3.org/Graphics/SVG/1.1/DTD/svg11.dtd">
<svg version="1.1" id="Capa_1" xmlns="http://www.w3.org/2000/svg" xmlns:xlink="http://www.w3.org/1999/xlink" x="0px" y="0px"
	 viewBox="0 0 317.001 317.001" style="enable-background:new 0 0 317.001 317.001;" xml:space="preserve">
<g>
	<path d="M120.435,253.439h-0.103c-0.512,2.048-1.023,4.658-1.587,6.655l-2.048,7.32h7.628l-2.15-7.32
		C121.561,258.047,120.947,255.487,120.435,253.439z"/>
	<path d="M237.676,253.234c-5.272,0-8.344,5.017-8.344,11.724c0,6.757,3.174,11.519,8.396,11.519c5.272,0,8.293-5.018,8.293-11.724
		C246.021,258.559,243.052,253.234,237.676,253.234z"/>
	<path d="M270.825,70.55L212.17,3.66C210.13,1.334,207.187,0,204.093,0H55.941C49.076,0,43.51,5.566,43.51,12.431V304.57
		c0,6.866,5.566,12.431,12.431,12.431h205.117c6.866,0,12.432-5.566,12.432-12.432V77.633
		C273.491,75.027,272.544,72.51,270.825,70.55z M94.067,282.107l-0.513-13.208c-0.153-4.146-0.307-9.163-0.307-14.181h-0.153
		c-1.075,4.403-2.509,9.317-3.84,13.361l-4.198,13.464h-6.092l-3.686-13.361c-1.127-4.044-2.304-8.959-3.123-13.464h-0.103
		c-0.205,4.659-0.358,9.983-0.614,14.283l-0.614,13.105h-7.218l2.201-34.504H76.2l3.379,11.519c1.075,3.992,2.15,8.293,2.918,12.337
		h0.153c0.973-3.993,2.15-8.549,3.276-12.389l3.687-11.467H99.8l1.894,34.504H94.067z M128.114,282.107l-2.661-8.856h-9.881
		l-2.457,8.856h-8.089l10.546-34.504h10.238l10.7,34.504H128.114z M157.502,276.169c2.355,0,4.966-0.512,6.502-1.126l1.178,6.092
		c-1.434,0.717-4.659,1.484-8.856,1.484c-11.929,0-18.071-7.423-18.071-17.252c0-11.774,8.396-18.327,18.839-18.327
		c4.044,0,7.116,0.819,8.498,1.536l-1.587,6.194c-1.587-0.666-3.788-1.28-6.553-1.28c-6.194,0-11.007,3.737-11.007,11.416
		C146.444,271.817,150.54,276.169,157.502,276.169z M198.765,282.107h-7.781v-14.437h-12.85v14.437h-7.832v-34.504h7.832v13.259
		h12.85v-13.259h7.781V282.107z M217.147,271.255h-13.412v-5.171h13.412V271.255z M237.318,282.671
		c-10.238,0-16.228-7.73-16.228-17.56c0-10.341,6.604-18.071,16.791-18.071c10.597,0,16.382,7.935,16.382,17.457
		C254.263,275.81,247.404,282.671,237.318,282.671z M55.941,211.073L55.941,211.073V12.432H199.94v63.601
		c0,3.431,2.781,6.216,6.216,6.216h54.903l0.006,128.824H55.941z"/>
	<path d="M156.68,128.958c-0.145-14.505,11.829-21.461,12.364-21.807c-6.728-9.845-17.208-11.194-20.943-11.35
		c-8.919-0.903-17.403,5.251-21.93,5.251c-4.515,0-11.5-5.118-18.897-4.983c-9.722,0.145-18.685,5.653-23.691,14.359
		c-10.101,17.527-2.587,43.492,7.258,57.706c4.811,6.958,10.546,14.773,18.078,14.494c7.253-0.289,9.995-4.693,18.763-4.693
		c8.768,0,11.233,4.693,18.908,4.549c7.804-0.145,12.749-7.091,17.526-14.07c5.524-8.072,7.799-15.887,7.933-16.288
		C171.876,152.047,156.831,146.283,156.68,128.958z"/>
	<path d="M142.259,86.391c3.997-4.85,6.695-11.578,5.959-18.29c-5.758,0.234-12.737,3.835-16.868,8.674
		c-3.707,4.292-6.951,11.143-6.082,17.721C131.696,94.998,138.257,91.23,142.259,86.391z"/>
</g>
<g>
</g>
<g>
</g>
<g>
</g>
<g>
</g>
<g>
</g>
<g>
</g>
<g>
</g>
<g>
</g>
<g>
</g>
<g>
</g>
<g>
</g>
<g>
</g>
<g>
</g>
<g>
</g>
<g>
</g>
</svg>
