<?xml version="1.0" encoding="iso-8859-1"?>
<!-- Generator: Adobe Illustrator 16.0.0, SVG Export Plug-In . SVG Version: 6.00 Build 0)  -->
<!DOCTYPE svg PUBLIC "-//W3C//DTD SVG 1.1//EN" "http://www.w3.org/Graphics/SVG/1.1/DTD/svg11.dtd">
<svg version="1.1" id="Capa_1" xmlns="http://www.w3.org/2000/svg" xmlns:xlink="http://www.w3.org/1999/xlink" x="0px" y="0px"
	 width="550.801px" height="550.801px" viewBox="0 0 550.801 550.801" style="enable-background:new 0 0 550.801 550.801;"
	 xml:space="preserve">
<g>
	<g>
		<path d="M300.491,463.546h-10.336v37.779c2.979,0.396,6.56,0.396,11.728,0.396c13.722,0,25.84-5.168,25.84-19.285
			C327.723,468.914,315.604,463.546,300.491,463.546z"/>
		<path d="M475.095,131.992c-0.032-2.526-0.833-5.021-2.568-6.993L366.324,3.694c-0.021-0.031-0.053-0.045-0.084-0.076
			c-0.633-0.707-1.36-1.29-2.141-1.804c-0.232-0.15-0.465-0.285-0.707-0.422c-0.686-0.366-1.393-0.67-2.131-0.892
			c-0.2-0.058-0.379-0.14-0.58-0.192C359.87,0.119,359.047,0,358.203,0H97.2C85.292,0,75.6,9.693,75.6,21.601v507.6
			c0,11.913,9.692,21.601,21.6,21.601H453.6c11.918,0,21.601-9.688,21.601-21.601V133.202
			C475.2,132.796,475.137,132.398,475.095,131.992z M174.453,524.992c-39.767,0-63.031-30.027-63.031-68.201
			c0-40.168,25.645-70.189,65.211-70.189c41.159,0,63.624,30.817,63.624,67.801C240.258,498.346,213.619,524.992,174.453,524.992z
			 M345.626,512.062c-9.745,7.752-26.045,12.129-52.691,12.129c-14.908,0-26.046-1.002-32.807-1.988V390.577
			c7.96-1.587,24.058-2.778,39.171-2.778c18.489,0,29.821,1.782,39.567,7.546c9.339,4.973,16.1,14.117,16.1,26.246
			c0,11.929-6.961,23.061-22.064,28.629v0.401c15.304,4.171,26.642,15.699,26.642,32.996
			C359.543,495.756,353.975,505.301,345.626,512.062z M436.678,473.492c0,38.174-18.294,51.5-47.72,51.5
			c-6.955,0-16.104-1.197-22.074-3.19l3.386-24.453c4.171,1.393,9.545,2.384,15.504,2.384c12.725,0,20.682-5.759,20.682-26.642
			V388.79h30.223V473.492z M97.2,366.752V21.601h250.203v110.515c0,5.961,4.831,10.8,10.8,10.8H453.6l0.011,223.836H97.2z"/>
		<path d="M324.549,425.366c0-10.136-7.752-15.504-21.474-15.504c-6.561,0-10.336,0.401-12.92,0.791v31.219h9.94
			C316.006,441.878,324.549,435.317,324.549,425.366z"/>
		<path d="M175.84,410.659c-20.477,0-32.405,19.485-32.405,45.536c0,26.24,12.324,44.739,32.606,44.739
			c20.482,0,32.21-19.485,32.21-45.536C208.245,431.341,196.718,410.659,175.84,410.659z"/>
	</g>
	<g>
		<path style="fill:#231F20;" d="M380.806,164.803c-0.543-0.367-1.234-0.443-1.835-0.195l-102.348,41.186
			c-0.748,0.303-1.239,1.02-1.239,1.832v122.939c0,0.654,0.333,1.266,0.87,1.641c0.327,0.222,0.712,0.337,1.098,0.337
			c0.253,0,0.506-0.047,0.738-0.137l102.352-41.196c0.744-0.301,1.239-1.018,1.239-1.83V166.436
			C381.681,165.781,381.349,165.17,380.806,164.803z M363.245,286.475l-77.056,30.997V255.14L363.245,286.475z M286.189,245.89
			v-32.297l84.681-34.074V280.31L286.189,245.89z"/>
		<path style="fill:#231F20;" d="M266.079,205.788l-102.352-41.186c-0.599-0.248-1.29-0.171-1.835,0.195
			c-0.545,0.366-0.87,0.983-0.87,1.638v122.934c0,0.808,0.493,1.529,1.237,1.83l102.352,41.196c0.232,0.095,0.485,0.138,0.736,0.138
			c0.388,0,0.778-0.116,1.1-0.338c0.545-0.369,0.87-0.986,0.87-1.641V207.621C267.316,206.814,266.825,206.092,266.079,205.788z
			 M171.838,282.963V179.519l84.673,34.074v32.113L171.838,282.963z M256.511,255.063v62.408l-74.071-29.806L256.511,255.063z"/>
		<path style="fill:#231F20;" d="M378.865,155.946c0-0.81-0.496-1.54-1.256-1.84l-105.104-41.03
			c-0.464-0.182-0.994-0.177-1.453,0.005l-102.344,41.186c-0.752,0.304-1.237,1.021-1.237,1.833c0,0.799,0.485,1.526,1.231,1.83
			l101.055,41.036c0.237,0.097,0.491,0.14,0.744,0.14c0.24,0,0.482-0.042,0.715-0.129l106.394-41.186
			C378.358,157.491,378.865,156.764,378.865,155.946z M273.845,186.366V125.21l78.663,30.705L273.845,186.366z M265.265,127.063
			v58.401l-72.241-29.329L265.265,127.063z"/>
	</g>
</g>
<g>
</g>
<g>
</g>
<g>
</g>
<g>
</g>
<g>
</g>
<g>
</g>
<g>
</g>
<g>
</g>
<g>
</g>
<g>
</g>
<g>
</g>
<g>
</g>
<g>
</g>
<g>
</g>
<g>
</g>
</svg>
