<?xml version="1.0" encoding="iso-8859-1"?>
<!-- Generator: Adobe Illustrator 16.0.0, SVG Export Plug-In . SVG Version: 6.00 Build 0)  -->
<!DOCTYPE svg PUBLIC "-//W3C//DTD SVG 1.1//EN" "http://www.w3.org/Graphics/SVG/1.1/DTD/svg11.dtd">
<svg version="1.1" id="Capa_1" xmlns="http://www.w3.org/2000/svg" xmlns:xlink="http://www.w3.org/1999/xlink" x="0px" y="0px"
	 width="550.801px" height="550.801px" viewBox="0 0 550.801 550.801" style="enable-background:new 0 0 550.801 550.801;"
	 xml:space="preserve">
<g>
	<g>
		<path d="M280.167,415.969c-6.251,0-10.312,0.56-12.711,1.107v81.237c2.394,0.56,6.265,0.56,9.769,0.56
			c25.429,0.179,41.998-13.827,41.998-43.485C319.412,429.606,304.309,415.969,280.167,415.969z"/>
		<path d="M161.146,415.6c-18.963,0-30.029,18.057-30.029,42.188c0,24.327,11.422,41.455,30.219,41.455
			c18.977,0,29.834-18.062,29.834-42.193C191.17,434.764,180.489,415.6,161.146,415.6z"/>
		<path d="M475.095,131.986c-0.032-2.525-0.844-5.015-2.568-6.992L366.324,3.684c-0.021-0.029-0.053-0.045-0.084-0.071
			c-0.633-0.712-1.36-1.289-2.141-1.803c-0.232-0.15-0.465-0.29-0.707-0.422c-0.686-0.372-1.393-0.669-2.131-0.891
			c-0.2-0.058-0.379-0.145-0.59-0.188C359.87,0.114,359.037,0,358.203,0H97.2C85.292,0,75.6,9.688,75.6,21.601v507.6
			c0,11.907,9.692,21.601,21.6,21.601H453.6c11.908,0,21.601-9.693,21.601-21.601V133.197
			C475.2,132.791,475.137,132.393,475.095,131.986z M159.861,521.522c-36.837,0-58.395-27.802-58.395-63.182
			c0-37.214,23.759-65.037,60.431-65.037c38.129,0,58.946,28.562,58.946,62.828C220.838,496.843,196.151,521.522,159.861,521.522z
			 M328.44,504.764c-13.078,10.879-32.97,16.031-57.291,16.031c-14.552,0-24.867-0.918-31.87-1.846V396.995
			c10.315-1.655,23.76-2.578,37.945-2.578c23.583,0,38.876,4.234,50.847,13.263c12.898,9.576,20.999,24.869,20.999,46.796
			C349.07,478.238,340.422,494.639,328.44,504.764z M448.379,418.917h-33.887v100.591h-28.191V418.917h-33.339V395.34h95.417
			V418.917z M97.2,366.747V21.601h250.203v110.51c0,5.962,4.831,10.8,10.8,10.8H453.6l0.011,223.837H97.2z"/>
		<path d="M234.911,203.078c1.242-1.793,2.647-3.462,4.018-5.163c1.329-1.737,2.855-3.277,4.271-4.952
			c1.382-1.696,3.02-3.132,4.514-4.709c1.495-1.603,3.154-2.995,4.767-4.453c1.572-1.519,3.277-2.848,5.013-4.158
			c1.716-1.313,3.354-2.798,5.221-3.879c1.824-1.149,3.631-2.401,5.508-3.499c1.938-0.949,3.884-1.943,5.801-3.014
			c1.914-1.118,4.014-1.671,6.038-2.558l3.091-1.226c1.044-0.351,2.136-0.546,3.195-0.875c2.136-0.572,4.282-1.258,6.486-1.767
			c2.215-0.306,4.451-0.593,6.708-0.989c2.288-0.496,4.566-0.538,6.887-0.569l7.056-0.369c-2.235-0.728-4.514-1.351-6.823-2.025
			c-2.31-0.664-4.651-1.268-7.056-1.442c-2.395-0.316-4.825-0.527-7.268-0.759c-2.426-0.024-4.872,0.14-7.34,0.221
			c-2.5-0.008-4.926,0.435-7.352,0.949c-2.402,0.541-4.946,0.789-7.291,1.603c-2.371,0.73-4.746,1.529-7.106,2.376
			c-2.299,0.952-4.524,2.08-6.816,3.132c-2.32,0.994-4.379,2.376-6.549,3.623c-2.202,1.21-4.261,2.637-6.231,4.153
			c-1.993,1.492-4.071,2.911-5.888,4.601c-1.846,1.669-3.815,3.22-5.524,5.018c-1.737,1.767-3.586,3.452-5.168,5.36
			c-1.635,1.87-3.299,3.718-4.81,5.688c-0.54,0.649-1.004,1.361-1.508,2.036l-2.289-2.608c-1.824-1.953-3.509-4.071-5.508-5.827
			l-6.064-5.173c-2.025-1.727-4.358-2.979-6.518-4.478l-3.309-2.144l-3.488-1.769c-2.344-1.118-4.612-2.436-7.017-3.359
			l-7.256-2.674c-2.426-0.788-4.904-1.421-7.349-2.128c-2.426-0.746-4.926-1.21-7.415-1.664c-2.479-0.506-4.97-0.875-7.47-1.134
			c-2.489-0.311-4.968-0.638-7.467-0.749c-5.002-0.25-9.98-0.359-14.937-0.034c-4.947,0.282-9.872,0.82-14.694,1.917
			c4.873,0.736,9.65,1.582,14.365,2.616c4.714,0.991,9.387,2.062,13.943,3.428c2.302,0.556,4.559,1.273,6.805,1.993
			c2.257,0.67,4.48,1.424,6.653,2.305c2.16,0.896,4.406,1.492,6.494,2.499c2.133,0.937,4.271,1.793,6.341,2.777l6.064,3.198
			c2.036,0.992,3.86,2.341,5.798,3.48c1.951,1.124,3.766,2.41,5.508,3.797c1.716,1.395,3.652,2.544,5.2,4.105l4.822,4.474
			c1.593,1.493,2.813,3.317,4.271,4.92l2.139,2.458c0.654,0.859,1.184,1.814,1.782,2.71l3.576,5.426l7.646,11.654l6.518-11.789
			c0.852-1.538,2.088-3.515,3.251-5.266C232.366,206.603,233.603,204.829,234.911,203.078z"/>
		<path d="M410.315,226.218c-2.394-0.319-4.825-0.53-7.267-0.762c-2.437-0.021-4.873,0.14-7.341,0.221
			c-2.499-0.005-4.925,0.438-7.351,0.949c-2.405,0.541-4.947,0.791-7.288,1.606c-2.373,0.728-4.757,1.526-7.108,2.375
			c-2.311,0.949-4.525,2.078-6.803,3.133c-2.331,0.991-4.388,2.376-6.561,3.623c-2.204,1.21-4.261,2.634-6.233,4.152
			c-1.993,1.49-4.071,2.911-5.885,4.602c-1.846,1.666-3.829,3.217-5.537,5.015c-1.729,1.767-3.575,3.452-5.157,5.363
			c-1.635,1.869-3.302,3.715-4.81,5.685c-0.538,0.648-1.002,1.363-1.509,2.038l-2.299-2.61c-1.814-1.954-3.491-4.071-5.495-5.824
			l-6.064-5.173c-2.024-1.73-4.371-2.982-6.528-4.477l-3.301-2.144l-3.491-1.772c-2.342-1.118-4.609-2.436-7.014-3.359l-7.246-2.685
			c-2.437-0.788-4.915-1.418-7.361-2.128c-2.426-0.743-4.926-1.208-7.412-1.661c-2.479-0.509-4.968-0.875-7.47-1.134
			c-2.489-0.313-4.968-0.638-7.478-0.751c-4.991-0.248-9.97-0.356-14.927-0.032c-4.936,0.28-9.872,0.82-14.691,1.917
			c4.87,0.733,9.647,1.582,14.362,2.613c4.714,0.994,9.387,2.062,13.943,3.428c2.302,0.556,4.559,1.276,6.806,1.993
			c2.257,0.67,4.479,1.427,6.652,2.307c2.159,0.896,4.403,1.49,6.497,2.5c2.13,0.934,4.266,1.793,6.339,2.774l6.064,3.199
			c2.035,0.994,3.859,2.344,5.795,3.482c1.951,1.124,3.776,2.408,5.511,3.797c1.72,1.393,3.654,2.542,5.2,4.103l4.825,4.477
			c1.592,1.49,2.811,3.314,4.271,4.92l2.136,2.455c0.653,0.859,1.187,1.816,1.782,2.713l3.575,5.427l7.646,11.654l6.518-11.791
			c0.85-1.54,2.089-3.513,3.243-5.264c1.224-1.793,2.458-3.57,3.761-5.32c1.239-1.793,2.646-3.46,4.018-5.163
			c1.329-1.737,2.854-3.277,4.262-4.952c1.392-1.693,3.032-3.129,4.535-4.707c1.481-1.605,3.132-2.998,4.756-4.456
			c1.572-1.516,3.275-2.845,5.016-4.158c1.714-1.313,3.354-2.797,5.221-3.876c1.835-1.149,3.628-2.404,5.505-3.501
			c1.941-0.949,3.882-1.943,5.801-3.011c1.909-1.118,4.019-1.674,6.044-2.56l3.09-1.226c1.039-0.351,2.131-0.546,3.196-0.875
			c2.13-0.572,4.292-1.257,6.486-1.764c2.204-0.309,4.45-0.596,6.718-0.988c2.278-0.496,4.557-0.541,6.871-0.572l7.062-0.367
			c-2.226-0.73-4.52-1.35-6.829-2.025C415.062,226.995,412.721,226.389,410.315,226.218z"/>
	</g>
</g>
<g>
</g>
<g>
</g>
<g>
</g>
<g>
</g>
<g>
</g>
<g>
</g>
<g>
</g>
<g>
</g>
<g>
</g>
<g>
</g>
<g>
</g>
<g>
</g>
<g>
</g>
<g>
</g>
<g>
</g>
</svg>
