<?xml version="1.0" encoding="iso-8859-1"?>
<!-- Generator: Adobe Illustrator 16.0.0, SVG Export Plug-In . SVG Version: 6.00 Build 0)  -->
<!DOCTYPE svg PUBLIC "-//W3C//DTD SVG 1.1//EN" "http://www.w3.org/Graphics/SVG/1.1/DTD/svg11.dtd">
<svg version="1.1" id="Capa_1" xmlns="http://www.w3.org/2000/svg" xmlns:xlink="http://www.w3.org/1999/xlink" x="0px" y="0px"
	 width="548.29px" height="548.291px" viewBox="0 0 548.29 548.291" style="enable-background:new 0 0 548.29 548.291;"
	 xml:space="preserve">
<g>
	<g>
		<g>
			<path d="M472.929,131.39c-0.031-2.514-0.828-4.997-2.556-6.96L364.65,3.677c-0.021-0.031-0.052-0.044-0.089-0.075
				c-0.625-0.704-1.355-1.284-2.127-1.796c-0.23-0.149-0.462-0.283-0.703-0.419c-0.683-0.365-1.387-0.667-2.127-0.888
				c-0.199-0.058-0.371-0.139-0.571-0.191C358.23,0.118,357.4,0,356.566,0H96.757C84.904,0,75.255,9.649,75.255,21.502V526.79
				c0,11.858,9.649,21.501,21.502,21.501h354.776c11.862,0,21.502-9.643,21.502-21.501V132.595
				C473.035,132.191,472.973,131.795,472.929,131.39z M178.896,518.202c-36.417,0-57.719-27.491-57.719-62.452
				c0-36.783,23.485-64.279,59.725-64.279c37.693,0,58.271,28.226,58.271,62.09C239.174,493.802,214.774,518.202,178.896,518.202z
				 M337.333,416.783h-33.508v99.418h-27.858v-99.418h-32.956v-23.308h94.322V416.783z M427.112,416.237h-47.161v28.042h44.075
				v22.583h-44.075v49.344H352.1v-122.73h75.013V416.237z M96.757,365.081V21.502H345.82v110.011
				c0,5.935,4.809,10.751,10.751,10.751h94.962l0.01,222.816H96.757z"/>
			<path d="M180.167,413.502c-18.751,0-29.677,17.849-29.677,41.706c0,24.032,11.299,40.967,29.869,40.967
				c18.751,0,29.492-17.849,29.492-41.701C209.851,432.442,199.286,413.502,180.167,413.502z"/>
		</g>
		<g>
			<path d="M355.773,193.838c0,62.531-44.835,115.915-107.366,115.915c-46.297,0-78.461-33.928-78.461-83.765
				c0-61.649,46.02-116.802,107.375-116.802C324.214,109.186,355.773,144.285,355.773,193.838z M198.265,228.638
				c0,39.526,16.525,70.789,52.507,70.789c49.263,0,76.992-60.169,76.992-108.543c0-39.228-14.457-71.373-52.802-71.373
				C228.653,119.506,198.265,177.023,198.265,228.638z"/>
		</g>
	</g>
</g>
<g>
</g>
<g>
</g>
<g>
</g>
<g>
</g>
<g>
</g>
<g>
</g>
<g>
</g>
<g>
</g>
<g>
</g>
<g>
</g>
<g>
</g>
<g>
</g>
<g>
</g>
<g>
</g>
<g>
</g>
</svg>
