<?xml version="1.0" encoding="iso-8859-1"?>
<!-- Generator: Adobe Illustrator 18.0.0, SVG Export Plug-In . SVG Version: 6.00 Build 0)  -->
<!DOCTYPE svg PUBLIC "-//W3C//DTD SVG 1.1//EN" "http://www.w3.org/Graphics/SVG/1.1/DTD/svg11.dtd">
<svg version="1.1" id="Capa_1" xmlns="http://www.w3.org/2000/svg" xmlns:xlink="http://www.w3.org/1999/xlink" x="0px" y="0px"
	 viewBox="0 0 317.001 317.001" style="enable-background:new 0 0 317.001 317.001;" xml:space="preserve">
<g>
	<path d="M217.602,117.105h-8.327v-4.974c0-2.017-0.801-3.952-2.228-5.379l-34.109-34.109c-1.427-1.427-3.361-2.228-5.379-2.228
		h-52.451c-4.201,0-7.607,3.406-7.607,7.607v0.629h-8.103c-1.991,0-3.605,1.614-3.605,3.605v3.157c0,1.991,1.614,3.605,3.605,3.605
		h8.103v8.859h-8.103c-1.991,0-3.605,1.614-3.605,3.605v3.157c0,1.991,1.614,3.605,3.605,3.605h8.103v8.859h-8.103
		c-1.991,0-3.605,1.614-3.605,3.605v3.157c0,1.991,1.614,3.605,3.605,3.605h8.103v8.859h-8.103c-1.991,0-3.605,1.614-3.605,3.605
		v3.157c0,1.991,1.614,3.605,3.605,3.605h8.103v8.859h-8.103c-1.991,0-3.605,1.614-3.605,3.605v3.157
		c0,1.991,1.614,3.605,3.605,3.605h8.103v18.256c0,4.201,3.406,7.607,7.607,7.607h86.56c4.201,0,7.607-3.406,7.607-7.607v-18.256
		h8.327c1.991,0,3.605-1.614,3.605-3.605v-3.157c0-1.991-1.614-3.605-3.605-3.605h-8.327V146.7h8.327
		c1.991,0,3.605-1.614,3.605-3.605v-3.157c0-1.991-1.614-3.605-3.605-3.605h-8.327v-8.859h8.327c1.991,0,3.605-1.614,3.605-3.605
		v-3.157C221.207,118.72,219.593,117.105,217.602,117.105z M198.907,181.421h-81.038V80.784h9.115v27.448
		c-1.488,0.523-2.557,1.937-2.557,3.604v8.718c0,2.111,1.711,3.823,3.823,3.823h8.718c2.111,0,3.823-1.711,3.823-3.823v-8.718
		c0-1.982-1.508-3.611-3.439-3.803V80.784h12.056v33.876c-1.714,0.378-2.998,1.903-2.998,3.731v8.718
		c0,2.111,1.711,3.823,3.823,3.823h8.718c2.111,0,3.823-1.711,3.823-3.823v-8.718c0-1.828-1.284-3.354-2.998-3.731V80.784h6.639
		l19.684,19.684h-12.471c-2.111,0-3.823,1.711-3.823,3.823v2.722c0,2.111,1.712,3.823,3.823,3.823h21.429
		c0.424,0,0.83-0.072,1.211-0.199l2.638,2.638V181.421z"/>
	<path d="M99.251,244.052c-2.775,0-4.35,0.225-5.175,0.375v13.949h4.5c5.699,0,9.074-2.85,9.074-7.274
		C107.65,246.452,104.501,244.128,99.251,244.052z"/>
	<path d="M148.899,244.203c-7.725,0-12.225,7.35-12.225,17.174c0,9.899,4.65,16.874,12.3,16.874c7.725,0,12.149-7.35,12.149-17.174
		C161.124,252.002,156.774,244.203,148.899,244.203z"/>
	<path d="M270.825,70.55L212.17,3.66C210.13,1.334,207.187,0,204.093,0H55.941C49.076,0,43.51,5.566,43.51,12.431V304.57
		c0,6.866,5.566,12.431,12.431,12.431h205.118c6.866,0,12.432-5.566,12.432-12.432V77.633
		C273.491,75.027,272.544,72.51,270.825,70.55z M109.226,286.501c-0.825-1.425-2.025-5.55-3.525-11.774
		c-1.35-6.3-3.524-8.024-8.174-8.1h-3.45v19.874H82.752v-49.873c3.675-0.6,9.149-1.05,15.224-1.05c7.5,0,12.75,1.125,16.35,3.975
		c3,2.4,4.649,5.925,4.649,10.575c0,6.449-4.574,10.874-8.924,12.449v0.225c3.524,1.425,5.475,4.8,6.749,9.45
		c1.575,5.699,3.15,12.299,4.125,14.249H109.226z M148.374,287.326c-14.999,0-23.773-11.325-23.773-25.725
		c0-15.149,9.675-26.474,24.599-26.474c15.524,0,23.999,11.625,23.999,25.574C173.198,277.276,163.148,287.326,148.374,287.326z
		 M224.199,286.501l-0.75-19.35c-0.226-6.074-0.45-13.424-0.45-20.773h-0.225c-1.575,6.449-3.675,13.649-5.625,19.574L211,285.675
		h-8.925l-5.4-19.574c-1.649-5.925-3.375-13.124-4.574-19.724h-0.15c-0.3,6.824-0.524,14.624-0.899,20.924l-0.9,19.199h-10.574
		l3.225-50.548h15.225l4.949,16.874c1.575,5.85,3.15,12.149,4.275,18.074h0.225c1.425-5.85,3.15-12.524,4.8-18.149l5.399-16.799
		h14.925l2.775,50.548H224.199z M55.941,211.073L55.941,211.073V12.432H199.94v63.601c0,3.431,2.78,6.216,6.216,6.216h54.904
		l0.006,128.824H55.941z"/>
</g>
<g>
</g>
<g>
</g>
<g>
</g>
<g>
</g>
<g>
</g>
<g>
</g>
<g>
</g>
<g>
</g>
<g>
</g>
<g>
</g>
<g>
</g>
<g>
</g>
<g>
</g>
<g>
</g>
<g>
</g>
</svg>
