<?xml version="1.0" encoding="iso-8859-1"?>
<!-- Generator: Adobe Illustrator 16.0.0, SVG Export Plug-In . SVG Version: 6.00 Build 0)  -->
<!DOCTYPE svg PUBLIC "-//W3C//DTD SVG 1.1//EN" "http://www.w3.org/Graphics/SVG/1.1/DTD/svg11.dtd">
<svg version="1.1" id="Capa_1" xmlns="http://www.w3.org/2000/svg" xmlns:xlink="http://www.w3.org/1999/xlink" x="0px" y="0px"
	 width="550.801px" height="550.801px" viewBox="0 0 550.801 550.801" style="enable-background:new 0 0 550.801 550.801;"
	 xml:space="preserve">
<g>
	<g>
		<path d="M280.173,409.52c-20.683,0-32.611,20.282-32.611,45.336c-0.198,25.449,12.129,44.935,32.413,44.935
			c20.485,0,32.414-19.284,32.414-45.53C312.389,429.796,300.845,409.52,280.173,409.52z"/>
		<path d="M475.095,131.997c-0.031-2.526-0.833-5.021-2.568-6.992L366.319,3.694c-0.021-0.034-0.053-0.045-0.089-0.076
			c-0.628-0.707-1.361-1.29-2.136-1.804c-0.232-0.15-0.465-0.287-0.707-0.422c-0.686-0.366-1.393-0.67-2.136-0.892
			c-0.2-0.058-0.374-0.14-0.575-0.192C359.87,0.119,359.037,0,358.198,0H97.2c-11.907,0-21.6,9.693-21.6,21.601v507.6
			c0,11.913,9.692,21.601,21.6,21.601h356.4c11.918,0,21.6-9.688,21.6-21.601V133.207
			C475.2,132.796,475.137,132.398,475.095,131.997z M147.166,523.643c-15.314,0-30.417-3.977-37.979-8.153l6.172-25.049
			c8.155,4.166,20.672,8.343,33.605,8.343c13.912,0,21.271-5.759,21.271-14.513c0-8.353-6.373-13.125-22.465-18.89
			c-22.275-7.752-36.79-20.081-36.79-39.561c0-22.866,19.09-40.368,50.702-40.368c15.113,0,26.248,3.185,34.203,6.76l-6.761,24.453
			c-5.368-2.584-14.916-6.359-28.031-6.359c-13.133,0-19.488,5.959-19.488,12.925c0,8.549,7.549,12.324,24.861,18.89
			c23.657,8.749,34.792,21.067,34.792,39.957C201.253,504.562,183.946,523.643,147.166,523.643z M336.245,544.726
			c-19.09-5.569-34.994-11.338-52.893-18.89c-2.979-1.191-6.164-1.793-9.347-1.988c-30.217-1.988-58.448-24.252-58.448-68.001
			c0-40.162,25.449-70.385,65.411-70.385c40.965,0,63.43,31.019,63.43,67.601c0,30.428-14.123,51.896-31.815,59.854v0.791
			c10.336,2.984,21.869,5.368,32.4,7.552L336.245,544.726z M447.979,521.659h-83.71V387.65h30.428v108.56h53.282V521.659z
			 M97.2,366.758V21.605h250.204v110.516c0,5.962,4.83,10.8,10.8,10.8h95.396l0.011,223.837H97.2z"/>
		<rect x="132.161" y="102.492" width="59.102" height="11.82"/>
		<rect x="202.337" y="102.492" width="59.104" height="11.82"/>
		<rect x="132.161" y="139.021" width="38.328" height="11.817"/>
		<rect x="177.681" y="139.021" width="38.33" height="11.817"/>
		<rect x="222.474" y="139.021" width="38.33" height="11.817"/>
		<rect x="267.991" y="139.021" width="38.333" height="11.817"/>
		<rect x="132.161" y="176.655" width="43.896" height="11.82"/>
		<rect x="184.291" y="176.655" width="43.896" height="11.82"/>
		<rect x="235.591" y="176.655" width="43.896" height="11.82"/>
		<rect x="287.729" y="176.655" width="43.896" height="11.82"/>
		<rect x="132.58" y="215.033" width="18.615" height="11.82"/>
		<rect x="154.688" y="215.033" width="18.624" height="11.82"/>
		<rect x="176.455" y="215.033" width="18.615" height="11.82"/>
		<rect x="198.563" y="215.033" width="18.624" height="11.82"/>
		<rect x="220.649" y="215.033" width="18.625" height="11.82"/>
		<rect x="242.769" y="215.033" width="18.623" height="11.82"/>
		<rect x="264.524" y="215.033" width="18.628" height="11.82"/>
		<rect x="286.644" y="215.033" width="18.615" height="11.82"/>
		<rect x="309.678" y="215.033" width="18.62" height="11.82"/>
		<rect x="331.795" y="215.033" width="18.625" height="11.82"/>
		<rect x="353.553" y="215.033" width="18.62" height="11.82"/>
		<rect x="375.67" y="215.033" width="18.615" height="11.82"/>
		<rect x="132.58" y="251.488" width="26.483" height="11.82"/>
		<rect x="164.036" y="251.488" width="26.491" height="11.82"/>
		<rect x="194.988" y="251.488" width="26.494" height="11.82"/>
		<rect x="226.45" y="251.488" width="26.48" height="11.82"/>
		<rect x="257.866" y="251.488" width="26.478" height="11.82"/>
		<rect x="289.322" y="251.488" width="26.494" height="11.82"/>
		<rect x="320.277" y="251.488" width="26.488" height="11.82"/>
		<rect x="351.733" y="251.488" width="26.483" height="11.82"/>
		<rect x="132.58" y="292.792" width="21.104" height="11.823"/>
		<rect x="157.642" y="292.792" width="21.115" height="11.823"/>
		<rect x="182.309" y="292.792" width="21.104" height="11.823"/>
		<rect x="207.37" y="292.792" width="21.104" height="11.823"/>
		<rect x="232.401" y="292.792" width="21.112" height="11.823"/>
		<rect x="257.465" y="292.792" width="21.104" height="11.823"/>
		<rect x="282.129" y="292.792" width="21.104" height="11.823"/>
		<rect x="307.194" y="292.792" width="21.104" height="11.823"/>
	</g>
</g>
<g>
</g>
<g>
</g>
<g>
</g>
<g>
</g>
<g>
</g>
<g>
</g>
<g>
</g>
<g>
</g>
<g>
</g>
<g>
</g>
<g>
</g>
<g>
</g>
<g>
</g>
<g>
</g>
<g>
</g>
</svg>
