<?xml version="1.0" encoding="iso-8859-1"?>
<!-- Generator: Adobe Illustrator 18.0.0, SVG Export Plug-In . SVG Version: 6.00 Build 0)  -->
<!DOCTYPE svg PUBLIC "-//W3C//DTD SVG 1.1//EN" "http://www.w3.org/Graphics/SVG/1.1/DTD/svg11.dtd">
<svg version="1.1" id="Capa_1" xmlns="http://www.w3.org/2000/svg" xmlns:xlink="http://www.w3.org/1999/xlink" x="0px" y="0px"
	 viewBox="0 0 317.001 317.001" style="enable-background:new 0 0 317.001 317.001;" xml:space="preserve">
<g>
	<path d="M211.648,249.457c-2.36,0-3.959,0.229-4.797,0.456v15.152c0.99,0.229,2.208,0.305,3.884,0.305
		c6.167,0,9.975-3.122,9.975-8.375C220.709,252.273,217.435,249.457,211.648,249.457z"/>
	<path d="M270.825,70.55L212.17,3.66C210.13,1.334,207.187,0,204.093,0H55.941C49.076,0,43.51,5.566,43.51,12.431V304.57
		c0,6.866,5.566,12.431,12.431,12.431h205.118c6.866,0,12.432-5.566,12.432-12.432V77.633
		C273.491,75.027,272.544,72.51,270.825,70.55z M121.114,250.218L100.708,292.4H88.45l20.405-39.822v-0.152h-22.69v-9.518h34.949
		V250.218z M166.343,292.4h-39.898v-6.243l24.441-35.178v-0.305h-22.157v-9.594h37.233v6.7l-23.908,34.721v0.305h24.289V292.4z
		 M185.303,292.4h-11.649v-51.319h11.649V292.4z M227.486,268.873c-3.96,3.73-9.822,5.405-16.675,5.405
		c-1.523,0-2.894-0.076-3.96-0.228v18.35h-11.497v-50.634c3.578-0.609,8.604-1.066,15.685-1.066c7.158,0,12.259,1.371,15.686,4.112
		c3.274,2.588,5.482,6.853,5.482,11.878S230.531,265.979,227.486,268.873z M55.941,211.073L55.941,211.073V12.432H199.94v63.601
		c0,3.431,2.78,6.216,6.216,6.216h54.904l0.006,128.824H55.941z"/>
	<g>
		<path d="M123.123,41.893V31.871c0-2.203-1.786-3.989-3.989-3.989h-13.037c-2.203,0-3.989-1.786-3.989-3.989V14.2
			c0-2.203-1.786-3.989-3.989-3.989H76.964c-2.203,0-3.989,1.786-3.989,3.989v10.022c0,2.203,1.786,3.989,3.989,3.989h13.037
			c2.203,0,3.989,1.786,3.989,3.989v8.798c0,2.203-1.786,3.989-3.989,3.989H76.964c-2.203,0-3.989,1.786-3.989,3.989v10.022
			c0,2.203,1.786,3.989,3.989,3.989h13.037c2.203,0,3.989,1.786,3.989,3.989v9.266c0,2.203-1.786,3.989-3.989,3.989H76.964
			c-2.203,0-3.989,1.786-3.989,3.989v10.022c0,2.203,1.786,3.989,3.989,3.989H98.12c2.203,0,3.989-1.786,3.989-3.989v-9.595
			c0-2.203,1.786-3.989,3.989-3.989h13.037c2.203,0,3.989-1.786,3.989-3.989V66.646c0-2.203-1.786-3.989-3.989-3.989h-13.037
			c-2.203,0-3.989-1.786-3.989-3.989v-8.798c0-2.203,1.786-3.989,3.989-3.989h13.037C121.338,45.882,123.123,44.096,123.123,41.893z
			"/>
		<path d="M76.964,148.9h3.827c2.203,0,3.989,1.786,3.989,3.989v22.342c0,2.203,1.786,3.989,3.989,3.989h18.562
			c2.203,0,3.989-1.786,3.989-3.989v-22.342c0-2.203,1.786-3.989,3.989-3.989h3.827c2.203,0,3.989-1.786,3.989-3.989v-32.798
			c0-2.203-1.786-3.989-3.989-3.989H76.964c-2.203,0-3.989,1.786-3.989,3.989v32.798C72.975,147.115,74.761,148.9,76.964,148.9z"/>
	</g>
</g>
<g>
</g>
<g>
</g>
<g>
</g>
<g>
</g>
<g>
</g>
<g>
</g>
<g>
</g>
<g>
</g>
<g>
</g>
<g>
</g>
<g>
</g>
<g>
</g>
<g>
</g>
<g>
</g>
<g>
</g>
</svg>
