<?xml version="1.0" encoding="utf-8"?>
<!-- Generator: Adobe Illustrator 26.5.0, SVG Export Plug-In . SVG Version: 6.00 Build 0)  -->
<svg version="1.1" id="Calque_1" xmlns="http://www.w3.org/2000/svg" xmlns:xlink="http://www.w3.org/1999/xlink" x="0px" y="0px"
	 viewBox="0 0 100.5 63.8" style="enable-background:new 0 0 100.5 63.8;" xml:space="preserve">
<style type="text/css">
	.st0{fill:url(#SVGID_1_);}
	.st1{fill:url(#SVGID_00000062181533290656993490000000925974974957274772_);}
	.st2{fill:url(#SVGID_00000124125730920483004510000009837168888421786802_);}
	.st3{fill:url(#SVGID_00000069392234112766505130000016922766699101201559_);}
	.st4{fill:url(#SVGID_00000079454167291568102830000008394408864367073430_);}
	.st5{fill:url(#SVGID_00000124159131837432978560000008148748833094346371_);}
	.st6{fill:url(#SVGID_00000088830834066854138660000006064237148619005096_);}
	.st7{fill:url(#SVGID_00000071559480255200073370000003382766333672919958_);}
</style>
<g>

		<linearGradient id="SVGID_1_" gradientUnits="userSpaceOnUse" x1="-0.8276" y1="12.5905" x2="48.3157" y2="12.5905" gradientTransform="matrix(1 0 0 -1 0 66.6)">
		<stop  offset="0" style="stop-color:#53C9FF"/>
		<stop  offset="1" style="stop-color:#006EFF"/>
	</linearGradient>
	<path class="st0" d="M47.8,59.7c-0.8-1.1-1.5-2.4-2.6-3.3c-0.2-0.2,0-0.2,0.1-0.3c2.2-1.5,3.2-3.5,3-6.2c-0.3-3.1-2.4-5.1-5.7-5.4
		c-1-0.1-2-0.1-2.9-0.1c-1.2,0-2.5,0-3.8,0l0,0c-1.2,0-1.9,0.7-2,1.9c0,0.1,0,0.3,0,0.4c0,2.4,0,4.9,0,7.3s0,4.9,0,7.3
		c0,0.2,0,0.5,0.1,0.8c0.1,0.6,0.4,1.1,1,1.3c1.3,0.5,2.6-0.3,2.6-1.6c0-1.5,0-2.9,0-4.3c0-0.3,0.1-0.4,0.4-0.4c0.7,0,1.3,0,2,0
		c0.8,0,1.5,0.3,2.1,0.8c0.4,0.4,0.8,0.9,1.1,1.4c0.8,1.2,1.6,2.3,2.4,3.5c0.4,0.6,1,0.9,1.7,0.8c1.4-0.1,2.1-1.5,1.4-2.8
		C48.4,60.5,48.1,60.1,47.8,59.7z M44.7,51.3c-0.2,1.7-1.4,2.5-2.8,2.6C41,54,40.1,54,39.2,54c-0.5,0-0.9,0-1.3,0
		c-0.3,0-0.3-0.2-0.3-0.4c0-0.9,0-1.8,0-2.7c0-0.9,0-1.8,0-2.7c0-0.2,0-0.3,0.3-0.3c0.2,0,0.5,0,0.7,0c0.3,0,0.6,0,0.9,0l0,0
		c0.9,0,1.8,0,2.7,0.1C43.9,48.1,44.9,49.6,44.7,51.3z"/>

		<linearGradient id="SVGID_00000036226438267339786930000011490315483923696531_" gradientUnits="userSpaceOnUse" x1="17.9672" y1="12.3" x2="65.6614" y2="12.3" gradientTransform="matrix(1 0 0 -1 0 66.6)">
		<stop  offset="0" style="stop-color:#53C9FF"/>
		<stop  offset="1" style="stop-color:#006EFF"/>
	</linearGradient>
	<path style="fill:url(#SVGID_00000036226438267339786930000011490315483923696531_);" d="M64.8,61.6c1.4-1.6,1.7-4.1,0.8-5.9
		C65,54.6,64,53.9,63,53.4c-1.2-0.6-2.5-0.9-3.7-1.3c-0.9-0.3-1.9-0.5-2.7-1.1c-1-0.7-1-2,0-2.7c0.6-0.5,1.4-0.6,2.1-0.6
		c1.4,0,2.5,0.5,3.5,1.5s1.9,1,2.8-0.1c0.1-0.1,0.1-0.1,0.2-0.2c0.4-0.6,0.4-1.1,0-1.7c-0.3-0.4-0.6-0.8-1-1.1
		c-1.6-1.1-3.3-1.7-5.1-1.7c-0.7,0-1.5,0.1-2.2,0.3l0,0c-2.2,0.5-3.8,1.8-4.3,4c-0.6,2.3,0,4.4,2.4,5.7c1.2,0.6,2.5,1,3.8,1.4
		c1,0.3,2,0.6,3,1.2c1.4,0.7,1.1,2,0.4,2.8c-0.6,0.6-1.4,0.9-2.2,1c-1.8,0.2-3.3-0.4-4.6-1.6c-0.4-0.3-0.8-0.7-1.2-0.9
		c-0.5-0.2-0.9-0.2-1.3,0.1c-1.1,0.7-1.7,1.8-0.5,3.1c0.1,0.1,0.1,0.2,0.2,0.2c1.9,1.7,4.1,2.5,6.7,2.5c0.4,0,0.8,0,1.1-0.1
		C62,63.6,63.6,63,64.8,61.6z"/>

		<linearGradient id="SVGID_00000124880355283443004350000015553769977478403762_" gradientUnits="userSpaceOnUse" x1="-33.4423" y1="12.4674" x2="13.8034" y2="12.4674" gradientTransform="matrix(1 0 0 -1 0 66.6)">
		<stop  offset="0" style="stop-color:#53C9FF"/>
		<stop  offset="1" style="stop-color:#006EFF"/>
	</linearGradient>
	<path style="fill:url(#SVGID_00000124880355283443004350000015553769977478403762_);" d="M1.3,44.6C0.5,44.8,0,45.5,0,46.4
		c0,2.6,0,5.1,0,7.7c0,0.4,0,0.7,0,1.1c0,2.2,0,4.4,0,6.6c0,0.9,0.4,1.5,1.2,1.8c1.3,0.5,2.5-0.4,2.5-1.7c0-1.1,0-2.1,0-3.2
		c0-0.5,0-0.5,0.5-0.5c1.2,0,2.4,0,3.6,0c1,0,2-0.3,2.9-0.7c2.6-1.3,4-4.3,3.7-7c-0.4-3.3-3-5.8-6.4-5.9c-0.5,0-0.9,0-1.3,0H1.8
		C1.5,44.5,1.4,44.5,1.3,44.6z M3.6,51.3c0-1,0-2,0-3c0-0.3,0.1-0.4,0.4-0.4c0.5,0,0.9,0,1.4,0c0.7,0,1.5,0,2.2,0
		c1.1,0.1,2,0.5,2.7,1.5c0.9,1.4,0.6,3.5-0.6,4.5c-0.7,0.6-1.5,0.8-2.3,0.8c-0.7,0-1.4,0-2,0c-0.4,0-0.9,0-1.3,0l0,0
		c-0.3,0-0.3-0.1-0.3-0.4l0,0C3.6,53.4,3.6,52.3,3.6,51.3z"/>

		<linearGradient id="SVGID_00000029759262486954522650000007814912502206959241_" gradientUnits="userSpaceOnUse" x1="39.8092" y1="12.7872" x2="81.4375" y2="12.7872" gradientTransform="matrix(1 0 0 -1 0 66.6)">
		<stop  offset="0" style="stop-color:#53C9FF"/>
		<stop  offset="1" style="stop-color:#006EFF"/>
	</linearGradient>
	<path style="fill:url(#SVGID_00000029759262486954522650000007814912502206959241_);" d="M81.6,61.4c-0.2-0.7-0.9-1.1-1.7-1.1
		c-2.2,0-4.5,0-6.7,0c-0.3,0-0.5-0.2-0.5-0.5V56c0-0.3,0.2-0.5,0.5-0.5c1.7,0,3.4,0,5.2,0c0.8,0,1.5-0.5,1.7-1.2s0-1.3-0.6-1.8
		c-0.4-0.3-0.8-0.4-1.3-0.4c-1.7,0-3.4,0-5.1,0c-0.3,0-0.4-0.1-0.4-0.4c0-1.2,0-2.3,0-3.5c0-0.3,0.1-0.5,0.5-0.5c2,0,4,0,5.9,0
		c0.3,0,0.6,0,0.9,0c0.9-0.1,1.5-0.7,1.5-1.5c0.1-0.9-0.4-1.6-1.3-1.8c-0.2,0-0.3-0.1-0.5-0.1h-8.2c-0.2,0-0.5,0-0.8,0
		c-0.7,0.1-1.3,0.5-1.5,1.2c-0.1,0.3-0.1,0.5-0.1,0.8c0,2.5,0,5,0,7.5s0,5.1,0,7.6c0,0.7,0.2,1.3,0.9,1.7c0.4,0.2,0.8,0.2,1.2,0.2
		c2.7,0,5.5,0,8.2,0c0.2,0,0.4,0,0.6,0C81.3,63.5,82,62.5,81.6,61.4z"/>
	<g>

			<linearGradient id="SVGID_00000009572256771789913480000012116303913888742310_" gradientUnits="userSpaceOnUse" x1="-23.5602" y1="12.5838" x2="30.4711" y2="12.5838" gradientTransform="matrix(1 0 0 -1 0 66.6)">
			<stop  offset="0" style="stop-color:#53C9FF"/>
			<stop  offset="1" style="stop-color:#006EFF"/>
		</linearGradient>
		<path style="fill:url(#SVGID_00000009572256771789913480000012116303913888742310_);" d="M25.7,48.2c-0.4-1-0.8-1.9-1.2-2.8
			c-0.3-0.7-0.9-1.1-1.6-1.1c-0.2,0-0.5,0-0.7,0.1c-0.6,0.2-0.9,0.7-1.1,1.3c-1.5,3.6-3,7.3-4.5,10.9c-0.6,1.5-1.2,3-1.8,4.5
			c-0.3,0.7-0.3,1.4,0.3,2c1,1,2.5,0.8,3.1-0.5c0.3-0.7,0.6-1.5,0.8-2.2c0.1-0.3,0.3-0.4,0.6-0.4c2.3,0,4.6,0,6.9,0
			c0.3,0,0.5,0.1,0.6,0.4c0.3,0.7,0.5,1.5,0.9,2.2c0.3,0.8,1.2,1.2,2,1.1c0.9-0.2,1.5-0.9,1.5-1.8c0-0.3-0.1-0.6-0.2-0.9
			C29.2,56.7,27.4,52.5,25.7,48.2z M25,56.8c-1.5,0-3,0-4.5,0c-0.3,0-0.4,0-0.3-0.3l0,0c0.8-2.2,1.6-4.3,2.5-6.5c0,0,0-0.1,0.1-0.2
			c0.1,0.2,0.1,0.4,0.2,0.5c0.8,2,1.5,4,2.3,6.1C25.5,56.8,25.5,56.8,25,56.8z"/>
	</g>

		<linearGradient id="SVGID_00000137109926576293108900000005051638800630561671_" gradientUnits="userSpaceOnUse" x1="44.6161" y1="12.4853" x2="99.5074" y2="12.4853" gradientTransform="matrix(1 0 0 -1 0 66.6)">
		<stop  offset="0" style="stop-color:#53C9FF"/>
		<stop  offset="1" style="stop-color:#006EFF"/>
	</linearGradient>
	<path style="fill:url(#SVGID_00000137109926576293108900000005051638800630561671_);" d="M91.8,44.3L91.8,44.3
		c-2.2,0.2-4.1,1-5.6,2.5c-2.1,2-3,4.5-3,7.2c0,0.9,0.1,1.7,0.3,2.6c0.8,3,2.5,5.2,5.4,6.5c3,1.3,6,1,8.9-0.4c0.9-0.4,1.7-1,2.3-1.8
		s0.5-1.6-0.3-2.3c-0.8-0.7-1.5-0.8-2.3-0.1c-0.1,0.1-0.3,0.2-0.4,0.3c-1.4,1.3-3,1.9-4.9,1.6c-1.7-0.2-3-0.9-4-2.2
		c-1.3-1.8-1.5-3.8-1.1-5.9c0.5-2.1,1.7-3.7,3.9-4.3c2.2-0.7,4.2-0.4,5.9,1.2c1,1,1.7,0.9,2.7-0.1l0.1-0.1c0.6-0.7,0.6-1.4,0-2.1
		c-0.4-0.5-0.9-0.9-1.5-1.2c-1.5-0.9-3.1-1.3-4.8-1.4h-1.1C92.2,44.3,92,44.3,91.8,44.3z"/>

		<linearGradient id="SVGID_00000093897609125283070160000010774100724400590215_" gradientUnits="userSpaceOnUse" x1="20.0805" y1="48.3" x2="99.7092" y2="48.3" gradientTransform="matrix(1 0 0 -1 0 66.6)">
		<stop  offset="0" style="stop-color:#53C9FF"/>
		<stop  offset="1" style="stop-color:#006EFF"/>
	</linearGradient>
	<path style="fill:url(#SVGID_00000093897609125283070160000010774100724400590215_);" d="M38.4,31.6h-5.8c-1.2,0-2.3-0.3-3.3-0.8
		c-3.8-2.2-4.5-7.4-0.3-10c1.8-1,3.1-0.9,4.3-0.9c0.8,0.1,1.4-0.4,1.8-1c0.9-1.2,2-2.2,3.3-3c1.1-0.7,2.4-1.2,3.7-1.5
		c2-0.6,1.5-4.8,6.5-7.6C52.1,4.3,59,4.5,62.5,7.6c1.1,0.9,2.8,0.7,3.6-0.5c2.5-3.8-5.5-6.7-9.8-7.1c-0.4,0-0.8,0-1.2,0
		c-8.1,0-13.4,4.8-16,10l0,0c-2.8,1-5.4,2.6-7.3,4.9c-13.7,1-14.5,18.7-1.5,21.5l0,0c0.5,0.1,1.1,0.2,1.6,0.2h6.4
		C41.7,36.6,41.8,31.6,38.4,31.6z"/>

		<linearGradient id="SVGID_00000025420373957783833820000000945936096493958026_" gradientUnits="userSpaceOnUse" x1="27.8688" y1="42.8268" x2="115.2466" y2="42.8268" gradientTransform="matrix(1 0 0 -1 0 66.6)">
		<stop  offset="0" style="stop-color:#53C9FF"/>
		<stop  offset="1" style="stop-color:#006EFF"/>
	</linearGradient>
	<path style="fill:url(#SVGID_00000025420373957783833820000000945936096493958026_);" d="M66,10.9c-4.1,0-8.1,1.8-10.4,5.4l0,0
		L44.2,32.7c-0.8,1.1-0.5,2.7,0.7,3.5s2.8,0.5,3.5-0.7L59.8,19c2.8-4.2,9.3-4.1,12.5-0.4c6.3,7-2.7,17.1-11.1,11.3
		c-2.7-1.9-5.7,2.2-3,4.1c1.5,1,4.3,2.6,8.1,2.6c13.4-0.4,16.4-14.7,9.9-21.3C73.6,12.4,69.8,10.9,66,10.9z"/>
</g>
</svg>
