<?xml version="1.0" encoding="UTF-8"?>
<svg id="Layer_2" data-name="Layer 2" xmlns="http://www.w3.org/2000/svg" xmlns:xlink="http://www.w3.org/1999/xlink" viewBox="0 0 58.41 36.69">
  <defs>
    <style>
      .cls-1 {
        fill: none;
      }

      .cls-2 {
        clip-path: url(#clippath);
      }

      .cls-3 {
        clip-path: url(#clippath-1);
      }

      .cls-4 {
        fill: url(#New_Gradient_Swatch_1);
      }

      .cls-5 {
        fill: url(#New_Gradient_Swatch_1-2);
      }
    </style>
    <clipPath id="clippath">
      <path class="cls-1" d="M18.09,10.02c-2.82,.95-5.38,2.65-7.32,4.88-13.72,1.06-14.46,18.74-1.48,21.58,.01,0,.03,0,.05,.01,.53,.11,1.06,.16,1.6,.16h6.39c3.39-.03,3.45-4.96,.06-5.02h-5.82c-1.16,0-2.32-.27-3.33-.85-3.8-2.16-4.55-7.39-.32-9.95,1.8-1.04,3.12-.94,4.32-.86,.78,.08,1.42-.43,1.81-1.05,.9-1.21,2.01-2.22,3.28-3.01,1.13-.7,2.38-1.18,3.69-1.49,1.97-.61,1.54-4.77,6.55-7.62,3.49-2.48,10.4-2.32,13.91,.82,1.13,.86,2.76,.65,3.62-.49C47.56,3.27,39.58,.43,35.28,.03c-.4-.02-.8-.03-1.19-.03-8.07,0-13.45,4.8-16,10.02"/>
    </clipPath>
    <linearGradient id="New_Gradient_Swatch_1" data-name="New Gradient Swatch 1" x1="-93.61" y1="-35.5" x2="-91.55" y2="-35.5" gradientTransform="translate(1120.33 2895.82) rotate(90) scale(30.94 -30.94)" gradientUnits="userSpaceOnUse">
      <stop offset="0" stop-color="#53c9ff"/>
      <stop offset="1" stop-color="#006eff"/>
    </linearGradient>
    <clipPath id="clippath-1">
      <path class="cls-1" d="M34.59,16.26l-11.4,16.51c-.79,1.15-.49,2.71,.67,3.49,1.16,.78,2.75,.48,3.55-.66l11.4-16.51c2.78-4.25,9.27-4.09,12.46-.42,6.31,6.97-2.66,17.06-11.14,11.32-2.72-1.9-5.68,2.15-2.98,4.08,1.45,1.02,4.31,2.62,8.07,2.62,13.38-.41,16.38-14.71,9.87-21.35-2.53-2.93-6.32-4.43-10.08-4.43-4.06,0-8.08,1.75-10.43,5.35"/>
    </clipPath>
    <linearGradient id="New_Gradient_Swatch_1-2" data-name="New Gradient Swatch 1" y1="-35.12" x2="-91.55" y2="-35.12" gradientTransform="translate(1128.83 2895.82) rotate(90) scale(30.94 -30.94)" xlink:href="#New_Gradient_Swatch_1"/>
  </defs>
  <g id="Calque_1" data-name="Calque 1">
    <g>
      <g class="cls-2">
        <rect class="cls-4" x="-3.69" width="51.26" height="36.65"/>
      </g>
      <g class="cls-3">
        <rect class="cls-5" x="22.39" y="10.91" width="39.21" height="26.13"/>
      </g>
    </g>
  </g>
</svg>
