<?xml version="1.0" encoding="UTF-8"?>
<svg id="Layer_2" data-name="Layer 2" xmlns="http://www.w3.org/2000/svg" xmlns:xlink="http://www.w3.org/1999/xlink" viewBox="0 0 114.03 19.38">
  <defs>
    <linearGradient id="linear-gradient" x1="15.41" y1="-8.76" x2="15.45" y2="39.13" gradientUnits="userSpaceOnUse">
      <stop offset="0" stop-color="#53c9ff"/>
      <stop offset="1" stop-color="#006eff"/>
    </linearGradient>
    <linearGradient id="New_Gradient_Swatch_1_copy" data-name="New Gradient Swatch 1 copy" x1="75.61" y1="-43.86" x2="75.61" y2="25.45" gradientUnits="userSpaceOnUse">
      <stop offset="0" stop-color="#53c9ff"/>
      <stop offset="1" stop-color="#006eff"/>
    </linearGradient>
  </defs>
  <g id="Calque_1" data-name="Calque 1">
    <g id="logo_row_gradient">
      <path id="icon" d="m9.56,5.29C10.91,2.54,13.75,0,18.01,0c.21,0,.41,0,.63.02,2.27.21,6.49,1.71,5.18,3.74-.45.6-1.31.72-1.91.26-1.85-1.66-5.5-1.74-7.35-.43-2.65,1.51-2.42,3.71-3.46,4.03-.69.16-1.35.42-1.95.79-.68.42-1.26.95-1.73,1.59-.2.33-.54.6-.95.56-.63-.04-1.33-.09-2.28.45-2.23,1.35-1.84,4.12.17,5.26.53.3,1.14.45,1.76.45h3.07c1.79.04,1.76,2.64-.03,2.65h-3.37c-.28,0-.57-.03-.84-.09,0,0-.02,0-.02,0-6.86-1.5-6.46-10.84.78-11.4,1.03-1.18,2.38-2.07,3.87-2.58m8.72,3.3l-6.02,8.72c-.42.61-.26,1.43.36,1.84.62.41,1.45.26,1.87-.35l6.02-8.72c1.47-2.24,4.9-2.16,6.58-.22,3.33,3.68-1.41,9.01-5.89,5.98-1.44-1.01-3,1.14-1.57,2.16.76.54,2.28,1.39,4.26,1.39,7.07-.22,8.66-7.77,5.21-11.28-1.34-1.55-3.34-2.34-5.32-2.34-2.14,0-4.27.93-5.51,2.83" style="fill: url(#linear-gradient);"/>
      <path d="m91.97,2.81c.99,0,1.97,0,2.96,0h2.96c.24,0,.48,0,.71.06.65.17,1.02.7.96,1.39-.05.61-.52,1.07-1.17,1.13-.22.02-.44.03-.66.03-1.51,0-3.02,0-4.53,0-.27,0-.35.07-.35.34.01.88.01,1.76,0,2.64,0,.24.06.32.32.32,1.3,0,2.6,0,3.89,0,.36,0,.71.07,1,.29.43.33.6.85.43,1.36-.17.53-.68.89-1.31.89-1.32,0-2.63,0-3.95,0q-.38,0-.38.37v2.88q0,.38.38.38c1.71,0,3.41,0,5.12,0,.63,0,1.1.33,1.27.85.27.83-.24,1.6-1.11,1.7-.15.02-.3.03-.45.03-2.1,0-4.19,0-6.29,0-.31,0-.62-.02-.9-.18-.52-.3-.7-.77-.7-1.32,0-1.95,0-3.9,0-5.84s0-3.83,0-5.74c0-.21.02-.42.08-.62.16-.53.59-.89,1.16-.94.19-.02.39-.03.58-.03m-46.65,9.89c-.69.35-1.43.53-2.2.55-.93.01-1.85,0-2.77,0-.36,0-.36,0-.36.37,0,.81,0,1.63,0,2.44-.02,1.04-.95,1.68-1.92,1.33-.55-.2-.87-.7-.88-1.37,0-1.68,0-3.35,0-5.03,0-.28,0-.56,0-.84,0-1.96,0-3.92,0-5.87,0-.72.39-1.25,1.01-1.4.2-.05.41-.06.61-.06.52,0,1.04,0,1.56,0,.29,0,.57,0,.86,0,.69,0,1.37,0,2.06.03,2.61.08,4.59,1.95,4.88,4.5.23,2.05-.86,4.37-2.85,5.36Zm-.26-6.13c-.46-.74-1.18-1.09-2.03-1.13-.56-.03-1.13-.03-1.69-.02-.35,0-.7,0-1.06,0-.25,0-.32.09-.32.33.01.76,0,1.52,0,2.28s0,1.57,0,2.36c0,.19.05.28.26.28h0c.33,0,.66,0,.99,0,.52,0,1.05,0,1.57-.02.66-.02,1.28-.19,1.8-.63.91-.79,1.12-2.38.46-3.44Zm7.65,5.36c-.09.24,0,.26.21.26,1.15,0,2.29,0,3.44,0,.35,0,.35,0,.22-.34-.58-1.55-1.17-3.09-1.75-4.64-.04-.12-.09-.24-.16-.4-.04.09-.06.12-.08.16-.63,1.65-1.25,3.31-1.88,4.96m1.42-9.19c.18-.07.37-.11.55-.11.53,0,1.02.3,1.25.82.32.72.61,1.45.91,2.18,1.35,3.25,2.69,6.5,4.04,9.75.1.24.19.47.17.69,0,.71-.46,1.23-1.16,1.38-.61.13-1.23-.2-1.5-.82-.24-.55-.45-1.12-.65-1.69-.08-.23-.2-.31-.45-.31-1.76,0-3.52,0-5.28,0-.25,0-.37.08-.45.31-.2.56-.4,1.12-.64,1.67-.42.99-1.59,1.18-2.33.39-.42-.45-.43-.98-.21-1.52.46-1.14.94-2.28,1.41-3.42,1.15-2.77,2.3-5.55,3.44-8.32.18-.44.41-.81.88-1m53.3-.06c-1.65.16-3.1.76-4.29,1.9-1.59,1.51-2.26,3.41-2.28,5.55-.02.67.06,1.33.23,1.97.59,2.28,1.9,4,4.12,4.94,2.29.97,4.56.78,6.78-.27.7-.33,1.32-.77,1.76-1.41.44-.62.35-1.23-.22-1.76-.58-.54-1.14-.57-1.77-.1-.11.08-.21.16-.31.25-1.05.98-2.29,1.43-3.75,1.25-1.27-.15-2.3-.7-3.05-1.72-1-1.37-1.16-2.91-.81-4.51.35-1.62,1.31-2.79,2.96-3.29,1.66-.5,3.19-.29,4.5.94.79.74,1.32.71,2.06-.07.03-.03.06-.07.09-.1.45-.54.46-1.04.02-1.59-.31-.39-.69-.71-1.12-.95-1.26-.73-2.61-1.07-4.03-1.07-.29,0-.59.01-.89.04m-26.85.15c-1.67.41-2.87,1.39-3.3,3.08-.45,1.73.02,3.37,1.85,4.33.92.48,1.92.73,2.89,1.05.77.25,1.56.49,2.28.88,1.04.56.84,1.57.32,2.12-.46.49-1.05.7-1.71.77-1.35.13-2.5-.3-3.49-1.19-.29-.26-.59-.53-.96-.7-.34-.16-.68-.15-.99.05-.84.53-1.27,1.37-.37,2.34.05.06.11.12.17.17,1.43,1.32,3.16,1.89,5.1,1.93.3.01.59-.02.88-.06,1.39-.17,2.61-.67,3.54-1.74,1.09-1.25,1.33-3.15.57-4.54-.45-.83-1.18-1.36-2.01-1.78-.9-.46-1.88-.7-2.83-.99-.72-.22-1.46-.4-2.09-.83-.77-.52-.78-1.5-.03-2.06.48-.35,1.03-.47,1.61-.48,1.06-.02,1.95.38,2.69,1.12.77.77,1.42.74,2.15-.07.05-.05.09-.11.13-.17.32-.44.33-.86.02-1.32-.21-.32-.48-.59-.79-.81-1.22-.86-2.54-1.31-3.93-1.31-.55,0-1.11.07-1.68.21m-13.27,2.55c-.22,0-.45,0-.67,0-.17,0-.34,0-.52,0-.19,0-.22.09-.22.25,0,.69,0,1.38,0,2.07s0,1.38,0,2.07c0,.16.01.28.22.28.34,0,.68,0,1.02,0,.69.01,1.38.02,2.06-.04,1.13-.1,2.01-.69,2.18-1.98.18-1.36-.64-2.45-2.02-2.6-.69-.07-1.37-.06-2.06-.05m-2.69-2.57c.95,0,1.91-.03,2.87-.03.75,0,1.5.02,2.25.07,2.53.19,4.15,1.76,4.38,4.11.2,2.01-.58,3.57-2.26,4.72-.09.06-.24.1-.08.24.82.71,1.32,1.66,1.96,2.51.23.3.45.61.64.93.55.91.02,1.99-1.04,2.1-.56.06-.98-.21-1.29-.64-.62-.88-1.24-1.77-1.86-2.65-.26-.37-.52-.75-.86-1.06-.45-.42-.97-.67-1.61-.64-.5.02-1.01.02-1.52,0-.25,0-.31.08-.31.32,0,1.11.01,2.22,0,3.33-.01,1.03-1.01,1.66-1.98,1.25-.46-.2-.69-.56-.77-1.03-.03-.19-.04-.38-.04-.57,0-1.87,0-3.74,0-5.61s0-3.72,0-5.58c0-.1,0-.21,0-.31.07-.93.55-1.42,1.49-1.43" style="fill: url(#New_Gradient_Swatch_1_copy);"/>
    </g>
  </g>
</svg>
