<?xml version="1.0" encoding="UTF-8"?>
<svg id="Layer_2" data-name="Layer 2" xmlns="http://www.w3.org/2000/svg" xmlns:xlink="http://www.w3.org/1999/xlink" viewBox="0 0 100.44 63.96">
  <defs>
    <linearGradient id="New_Gradient_Swatch_1_copy" data-name="New Gradient Swatch 1 copy" x1="50.32" y1="-16.58" x2="50.4" y2="74.07" gradientUnits="userSpaceOnUse">
      <stop offset="0" stop-color="#53c9ff"/>
      <stop offset="1" stop-color="#006eff"/>
    </linearGradient>
    <linearGradient id="New_Gradient_Swatch_1_copy-2" data-name="New Gradient Swatch 1 copy" x1="50.22" y1="-16.46" x2="50.22" y2="74.13" xlink:href="#New_Gradient_Swatch_1_copy"/>
  </defs>
  <g id="Calque_1" data-name="Calque 1">
    <g id="logo_column_gradient">
      <path id="icon" d="m39.24,10.02c2.55-5.22,7.93-10.02,16-10.02.39,0,.78.01,1.19.03,4.3.39,12.29,3.24,9.81,7.08-.85,1.14-2.49,1.36-3.62.49-3.51-3.13-10.41-3.3-13.91-.82-5.01,2.86-4.58,7.02-6.55,7.62-1.3.3-2.56.79-3.69,1.49-1.28.79-2.38,1.8-3.28,3.01-.38.63-1.02,1.14-1.81,1.05-1.2-.08-2.52-.18-4.32.86-4.23,2.56-3.48,7.8.32,9.95,1.01.57,2.16.85,3.33.85h5.82c3.39.07,3.33,4.99-.06,5.02h-6.39c-.54,0-1.07-.05-1.6-.16-.01,0-.03,0-.05-.01-12.98-2.84-12.24-20.52,1.48-21.58,1.94-2.23,4.5-3.93,7.32-4.88m16.5,6.24l-11.4,16.51c-.79,1.15-.49,2.71.67,3.49,1.16.78,2.75.48,3.55-.66l11.4-16.51c2.78-4.25,9.27-4.09,12.46-.42,6.31,6.97-2.66,17.06-11.14,11.32-2.72-1.9-5.68,2.15-2.98,4.08,1.45,1.02,4.31,2.62,8.07,2.62,13.38-.41,16.38-14.71,9.87-21.35-2.53-2.93-6.32-4.43-10.08-4.43-4.06,0-8.08,1.75-10.43,5.35" style="fill: url(#New_Gradient_Swatch_1_copy);"/>
      <path d="m71.61,44.54c1.29,0,2.58,0,3.87,0h3.87c.31,0,.63,0,.93.08.85.22,1.33.92,1.25,1.81-.06.79-.68,1.39-1.53,1.48-.29.02-.58.04-.87.04-1.97,0-3.95,0-5.93,0-.35,0-.46.1-.46.45.02,1.15.02,2.3,0,3.46,0,.31.08.42.41.41,1.7-.01,3.39,0,5.09,0,.47,0,.92.09,1.31.38.57.42.78,1.11.56,1.78-.22.69-.89,1.16-1.71,1.17-1.72.01-3.44,0-5.16,0q-.5,0-.5.48v3.77q0,.5.49.5c2.23,0,4.46,0,6.69,0,.82,0,1.44.43,1.66,1.12.35,1.08-.31,2.09-1.46,2.22-.2.02-.39.04-.59.04-2.74,0-5.48,0-8.22,0-.41,0-.81-.02-1.18-.23-.67-.39-.92-1-.92-1.73,0-2.55,0-5.09,0-7.64s0-5,0-7.5c0-.28.03-.55.1-.81.21-.7.77-1.16,1.51-1.23.25-.02.51-.04.76-.04m-60.97,12.93c-.91.45-1.87.7-2.88.71-1.21.02-2.42,0-3.63,0-.47,0-.47,0-.47.48,0,1.06.01,2.13,0,3.19-.02,1.36-1.24,2.19-2.5,1.73-.72-.26-1.14-.92-1.15-1.79,0-2.19,0-4.38,0-6.58,0-.37,0-.73,0-1.1,0-2.56,0-5.12,0-7.67,0-.94.51-1.64,1.33-1.83.26-.06.53-.08.8-.08.68,0,1.36,0,2.04,0,.37,0,.75,0,1.12,0,.9,0,1.79,0,2.69.04,3.41.11,6,2.55,6.38,5.88.3,2.67-1.12,5.71-3.72,7.01Zm-.34-8.01c-.61-.97-1.54-1.42-2.65-1.48-.73-.04-1.47-.03-2.21-.03-.46,0-.92,0-1.38,0-.33,0-.41.12-.41.42.02.99,0,1.99,0,2.98s0,2.06,0,3.08c0,.25.06.37.34.37h.01c.43,0,.86,0,1.29,0,.68,0,1.37,0,2.05-.02.86-.03,1.68-.25,2.35-.82,1.19-1.03,1.46-3.11.6-4.5Zm10,7c-.12.31,0,.34.27.34,1.5,0,2.99,0,4.49,0,.45,0,.46-.01.29-.44-.76-2.02-1.53-4.04-2.29-6.07-.06-.15-.12-.31-.21-.52-.06.11-.08.16-.1.21-.82,2.16-1.63,4.32-2.46,6.48m1.86-12.01c.24-.09.48-.14.72-.14.69,0,1.33.39,1.64,1.07.42.94.8,1.9,1.2,2.85,1.76,4.25,3.52,8.5,5.27,12.75.13.31.25.62.22.9,0,.92-.6,1.61-1.52,1.81-.8.17-1.61-.26-1.96-1.08-.31-.72-.58-1.47-.85-2.21-.1-.3-.26-.4-.58-.4-2.3.01-4.6.01-6.9,0-.32,0-.48.1-.58.4-.26.73-.53,1.46-.83,2.18-.55,1.29-2.08,1.54-3.05.51-.55-.59-.56-1.28-.27-1.98.61-1.5,1.23-2.98,1.85-4.47,1.5-3.63,3-7.25,4.5-10.88.23-.57.54-1.06,1.15-1.31m69.66-.08c-2.15.21-4.05,1-5.61,2.48-2.08,1.98-2.95,4.45-2.98,7.25-.03.88.08,1.74.3,2.58.77,2.98,2.49,5.22,5.39,6.45,2.99,1.27,5.96,1.02,8.86-.36.91-.43,1.72-1.01,2.31-1.84.57-.8.46-1.61-.28-2.3-.75-.7-1.49-.74-2.31-.13-.14.1-.27.21-.4.33-1.38,1.28-3,1.86-4.9,1.64-1.66-.2-3.01-.91-3.98-2.25-1.3-1.79-1.51-3.81-1.06-5.89.46-2.11,1.72-3.64,3.86-4.3,2.16-.66,4.17-.38,5.88,1.23,1.03.97,1.72.93,2.69-.1.04-.04.08-.09.12-.13.59-.7.6-1.36.02-2.08-.41-.51-.9-.92-1.47-1.25-1.65-.95-3.41-1.4-5.27-1.4-.38,0-.77.02-1.16.06m-35.09.2c-2.19.53-3.75,1.81-4.32,4.02-.58,2.26.03,4.4,2.42,5.66,1.2.63,2.51.96,3.78,1.38,1.01.33,2.03.64,2.98,1.14,1.36.73,1.09,2.05.41,2.77-.6.64-1.37.92-2.23,1-1.76.17-3.27-.4-4.56-1.55-.39-.34-.77-.7-1.25-.92-.45-.2-.89-.2-1.3.06-1.1.7-1.66,1.79-.48,3.06.07.07.14.15.22.22,1.87,1.73,4.14,2.46,6.66,2.53.39.01.77-.02,1.15-.07,1.81-.22,3.41-.87,4.62-2.27,1.43-1.64,1.74-4.11.75-5.93-.59-1.08-1.55-1.77-2.63-2.32-1.17-.6-2.45-.91-3.7-1.29-.94-.29-1.91-.53-2.73-1.09-1.01-.68-1.02-1.97-.04-2.69.62-.46,1.35-.62,2.1-.63,1.39-.03,2.55.49,3.52,1.46,1.01,1.01,1.85.97,2.8-.09.06-.07.12-.14.17-.22.41-.58.43-1.13.03-1.72-.28-.41-.63-.77-1.03-1.06-1.6-1.13-3.31-1.71-5.14-1.71-.72,0-1.45.09-2.2.27m-17.34,3.33c-.29,0-.58,0-.88,0-.22,0-.45,0-.67,0-.25,0-.28.12-.28.32,0,.9,0,1.8,0,2.7s0,1.8,0,2.7c0,.2.02.36.29.36.44,0,.89,0,1.34.01.9.01,1.8.03,2.7-.05,1.48-.13,2.62-.9,2.85-2.59.23-1.78-.83-3.21-2.64-3.39-.9-.09-1.8-.08-2.69-.07m-3.52-3.36c1.25-.01,2.5-.05,3.75-.05.98,0,1.96.02,2.94.1,3.31.25,5.43,2.3,5.73,5.37.26,2.62-.76,4.67-2.95,6.17-.12.08-.31.13-.1.32,1.07.93,1.73,2.17,2.56,3.28.3.39.59.79.84,1.21.72,1.19.03,2.6-1.36,2.75-.73.08-1.28-.27-1.68-.84-.81-1.15-1.62-2.31-2.43-3.47-.34-.49-.68-.98-1.12-1.39-.59-.55-1.26-.87-2.1-.84-.66.02-1.32.02-1.98,0-.33-.01-.41.11-.41.41.01,1.45.01,2.9,0,4.35-.01,1.35-1.32,2.16-2.58,1.63-.6-.26-.9-.73-1.01-1.34-.04-.25-.05-.5-.05-.75,0-2.44,0-4.89,0-7.33s0-4.86,0-7.3c0-.13,0-.27,0-.41.09-1.21.72-1.85,1.95-1.86" style="fill: url(#New_Gradient_Swatch_1_copy-2);"/>
    </g>
  </g>
</svg>
