<?xml version="1.0" encoding="UTF-8"?>
<svg id="Layer_2" data-name="Layer 2" xmlns="http://www.w3.org/2000/svg" xmlns:xlink="http://www.w3.org/1999/xlink" viewBox="0 0 116.28 28.36">
  <defs>
    <clipPath id="clippath">
      <path d="M71.3,4.79c.63,0,1.26-.02,1.88,.05,1.27,.13,2.01,1.13,1.85,2.37-.16,1.18-.96,1.72-1.99,1.81-.63,.06-1.26,.05-1.89,.04-.31,0-.63-.01-.94,0-.19,0-.2-.11-.2-.25,0-.63,0-1.26,0-1.89s0-1.26,0-1.89c0-.14,.02-.23,.2-.23,.16,0,.31,0,.47,0,.2,0,.41,0,.61,0m-2.46-2.35c-.87,0-1.3,.46-1.37,1.3,0,.1,0,.19,0,.29,0,1.7,0,3.4,0,5.1s0,3.42,0,5.12c0,.18,0,.35,.04,.52,.07,.43,.29,.76,.71,.94,.88,.37,1.79-.2,1.8-1.14,.01-1.01,0-2.03,0-3.04,0-.21,.05-.3,.28-.29,.46,.02,.93,.02,1.39,0,.58-.02,1.06,.2,1.47,.59,.31,.29,.55,.63,.79,.97,.57,.81,1.13,1.62,1.7,2.43,.28,.4,.67,.64,1.18,.59,.97-.1,1.45-1.08,.95-1.92-.18-.29-.38-.57-.59-.85-.58-.78-1.04-1.64-1.79-2.29-.15-.13-.01-.17,.07-.22,1.53-1.05,2.24-2.48,2.06-4.31-.21-2.14-1.7-3.58-4.01-3.75-.68-.05-1.37-.07-2.06-.07-.87,0-1.75,.02-2.62,.03"/>
    </clipPath>
    <clipPath id="clippath-1">
      <path d="M83.42,2.46c-1.53,.37-2.62,1.27-3.02,2.81-.41,1.58,.02,3.08,1.69,3.96,.84,.44,1.75,.67,2.65,.96,.71,.23,1.42,.45,2.08,.8,.95,.51,.76,1.43,.29,1.94-.42,.45-.96,.64-1.56,.7-1.23,.12-2.28-.28-3.19-1.09-.27-.24-.54-.49-.87-.64-.31-.14-.62-.14-.91,.04-.77,.49-1.16,1.25-.33,2.14,.05,.05,.1,.11,.15,.15,1.31,1.21,2.89,1.72,4.66,1.77,.27,.01,.54-.02,.8-.05,1.27-.16,2.38-.61,3.23-1.59,1-1.15,1.22-2.88,.52-4.15-.41-.76-1.08-1.24-1.84-1.63-.82-.42-1.71-.64-2.59-.9-.66-.2-1.33-.37-1.91-.76-.7-.48-.72-1.37-.03-1.88,.44-.32,.94-.43,1.47-.44,.97-.02,1.78,.34,2.46,1.02,.71,.71,1.3,.67,1.96-.07,.04-.05,.08-.1,.12-.15,.29-.4,.3-.79,.02-1.2-.19-.29-.44-.54-.72-.74-1.12-.79-2.32-1.2-3.59-1.2-.5,0-1.01,.06-1.54,.19"/>
    </clipPath>
    <clipPath id="clippath-2">
      <path d="M46.32,9.35c0-.72,0-1.44,0-2.16s0-1.39,0-2.08c0-.21,.06-.3,.29-.3,.32,0,.64,0,.96,0,.51,0,1.03,0,1.54,.02,.77,.04,1.43,.35,1.85,1.03,.6,.97,.41,2.43-.42,3.15-.47,.4-1.04,.55-1.64,.58-.48,.02-.96,.01-1.43,.01-.3,0-.6,0-.9,0h0c-.19,0-.24-.09-.24-.26m.36-6.92c-.48,0-.95,0-1.43,0-.19,0-.38,.01-.56,.05-.57,.13-.93,.62-.93,1.28,0,1.79,0,3.57,0,5.36,0,.26,0,.51,0,.77,0,1.53,0,3.07,0,4.6,0,.61,.3,1.07,.8,1.25,.88,.32,1.73-.26,1.75-1.21,.01-.74,0-1.49,0-2.23,0-.33,0-.33,.33-.33,.84,0,1.69,.01,2.54,0,.71-.01,1.38-.18,2.01-.5,1.82-.91,2.81-3.03,2.6-4.9-.26-2.33-2.07-4.04-4.46-4.11-.63-.02-1.25-.02-1.88-.02-.26,0-.52,0-.79,0"/>
    </clipPath>
    <clipPath id="clippath-3">
      <path d="M93.83,2.43c-.18,0-.36,.01-.53,.02-.52,.05-.91,.37-1.06,.86-.06,.19-.07,.38-.07,.57,0,1.75,0,3.5,0,5.24s0,3.56,0,5.34c0,.51,.17,.94,.64,1.21,.26,.15,.54,.16,.83,.16,1.92,0,3.83,0,5.75,0,.14,0,.28-.01,.41-.03,.8-.09,1.26-.8,1.02-1.55-.16-.48-.59-.78-1.16-.78-1.56,0-3.12,0-4.68,0q-.34,0-.34-.35v-2.63q0-.34,.35-.34c1.2,0,2.4,0,3.61,0,.57,0,1.04-.33,1.2-.82,.15-.47,0-.95-.39-1.24-.27-.2-.59-.26-.92-.26-1.19,0-2.37,0-3.56,0-.23,0-.29-.07-.29-.29,.01-.81,.01-1.61,0-2.42,0-.25,.08-.32,.32-.31,1.38,0,2.76,0,4.14,0,.2,0,.41-.01,.61-.03,.59-.06,1.02-.48,1.07-1.03,.05-.62-.28-1.11-.88-1.27-.21-.05-.43-.06-.65-.06h-2.7c-.9,0-1.8,0-2.71,0"/>
    </clipPath>
    <clipPath id="clippath-4">
      <path d="M57.96,10.77c.58-1.51,1.14-3.02,1.72-4.53,.01-.03,.03-.07,.07-.15,.06,.15,.11,.26,.15,.36,.53,1.41,1.07,2.83,1.6,4.24,.11,.3,.11,.31-.2,.31-1.05,0-2.09,0-3.14,0-.19,0-.27-.02-.19-.24m1.3-8.4c-.42,.17-.64,.52-.8,.91-1.05,2.53-2.09,5.07-3.14,7.6-.43,1.04-.87,2.08-1.29,3.13-.2,.49-.19,.97,.19,1.39,.67,.72,1.74,.55,2.13-.36,.21-.5,.4-1.01,.58-1.52,.07-.21,.18-.28,.41-.28,1.61,0,3.21,0,4.82,0,.22,0,.34,.07,.41,.28,.18,.52,.37,1.04,.59,1.54,.24,.57,.82,.87,1.37,.75,.64-.14,1.06-.62,1.06-1.26,.02-.2-.06-.42-.15-.63-1.23-2.97-2.46-5.94-3.69-8.91-.28-.66-.54-1.34-.84-1.99-.22-.48-.66-.75-1.15-.75-.17,0-.34,.03-.51,.1"/>
    </clipPath>
    <clipPath id="clippath-5">
      <path d="M107.96,2.32c-1.5,.14-2.83,.7-3.92,1.73-1.46,1.38-2.07,3.11-2.08,5.07-.02,.61,.06,1.21,.21,1.8,.54,2.08,1.74,3.65,3.76,4.51,2.09,.89,4.17,.71,6.19-.25,.64-.3,1.2-.71,1.61-1.28,.4-.56,.32-1.13-.2-1.61-.53-.49-1.04-.52-1.61-.09-.1,.07-.19,.15-.28,.23-.96,.9-2.09,1.3-3.43,1.15-1.16-.14-2.1-.64-2.79-1.57-.91-1.25-1.06-2.66-.74-4.12,.32-1.48,1.2-2.55,2.7-3,1.51-.46,2.92-.26,4.11,.86,.72,.68,1.2,.65,1.88-.07,.03-.03,.06-.06,.08-.09,.41-.49,.42-.95,.02-1.45-.29-.35-.63-.64-1.03-.87-1.15-.67-2.39-.98-3.68-.98-.27,0-.54,.01-.81,.04"/>
    </clipPath>
  </defs>
  <g id="Calque_1" data-name="Calque 1">
    <g id="logo_strapeline_black">
      <text transform="translate(42.88 25.95) scale(1.03 1)" style="font-family: Montserrat-Italic, Montserrat; font-size: 9.21px;"><tspan x="0" y="0" style="letter-spacing: -.01em;">T</tspan><tspan x="5.16" y="0">rust t</tspan><tspan x="29.45" y="0" style="letter-spacing: 0em;">h</tspan><tspan x="35.71" y="0">e Cloud</tspan></text>
      <g id="text">
        <g>
          <path d="M71.3,4.79c.63,0,1.26-.02,1.88,.05,1.27,.13,2.01,1.13,1.85,2.37-.16,1.18-.96,1.72-1.99,1.81-.63,.06-1.26,.05-1.89,.04-.31,0-.63-.01-.94,0-.19,0-.2-.11-.2-.25,0-.63,0-1.26,0-1.89s0-1.26,0-1.89c0-.14,.02-.23,.2-.23,.16,0,.31,0,.47,0,.2,0,.41,0,.61,0m-2.46-2.35c-.87,0-1.3,.46-1.37,1.3,0,.1,0,.19,0,.29,0,1.7,0,3.4,0,5.1s0,3.42,0,5.12c0,.18,0,.35,.04,.52,.07,.43,.29,.76,.71,.94,.88,.37,1.79-.2,1.8-1.14,.01-1.01,0-2.03,0-3.04,0-.21,.05-.3,.28-.29,.46,.02,.93,.02,1.39,0,.58-.02,1.06,.2,1.47,.59,.31,.29,.55,.63,.79,.97,.57,.81,1.13,1.62,1.7,2.43,.28,.4,.67,.64,1.18,.59,.97-.1,1.45-1.08,.95-1.92-.18-.29-.38-.57-.59-.85-.58-.78-1.04-1.64-1.79-2.29-.15-.13-.01-.17,.07-.22,1.53-1.05,2.24-2.48,2.06-4.31-.21-2.14-1.7-3.58-4.01-3.75-.68-.05-1.37-.07-2.06-.07-.87,0-1.75,.02-2.62,.03"/>
          <g style="clip-path: url(#clippath);">
            <rect x="67.47" y="2.41" width="10.8" height="13.69"/>
          </g>
        </g>
        <g>
          <path d="M83.42,2.46c-1.53,.37-2.62,1.27-3.02,2.81-.41,1.58,.02,3.08,1.69,3.96,.84,.44,1.75,.67,2.65,.96,.71,.23,1.42,.45,2.08,.8,.95,.51,.76,1.43,.29,1.94-.42,.45-.96,.64-1.56,.7-1.23,.12-2.28-.28-3.19-1.09-.27-.24-.54-.49-.87-.64-.31-.14-.62-.14-.91,.04-.77,.49-1.16,1.25-.33,2.14,.05,.05,.1,.11,.15,.15,1.31,1.21,2.89,1.72,4.66,1.77,.27,.01,.54-.02,.8-.05,1.27-.16,2.38-.61,3.23-1.59,1-1.15,1.22-2.88,.52-4.15-.41-.76-1.08-1.24-1.84-1.63-.82-.42-1.71-.64-2.59-.9-.66-.2-1.33-.37-1.91-.76-.7-.48-.72-1.37-.03-1.88,.44-.32,.94-.43,1.47-.44,.97-.02,1.78,.34,2.46,1.02,.71,.71,1.3,.67,1.96-.07,.04-.05,.08-.1,.12-.15,.29-.4,.3-.79,.02-1.2-.19-.29-.44-.54-.72-.74-1.12-.79-2.32-1.2-3.59-1.2-.5,0-1.01,.06-1.54,.19"/>
          <g style="clip-path: url(#clippath-1);">
            <rect x="79.42" y="2.27" width="10.89" height="13.74"/>
          </g>
        </g>
        <g>
          <path d="M46.32,9.35c0-.72,0-1.44,0-2.16s0-1.39,0-2.08c0-.21,.06-.3,.29-.3,.32,0,.64,0,.96,0,.51,0,1.03,0,1.54,.02,.77,.04,1.43,.35,1.85,1.03,.6,.97,.41,2.43-.42,3.15-.47,.4-1.04,.55-1.64,.58-.48,.02-.96,.01-1.43,.01-.3,0-.6,0-.9,0h0c-.19,0-.24-.09-.24-.26m.36-6.92c-.48,0-.95,0-1.43,0-.19,0-.38,.01-.56,.05-.57,.13-.93,.62-.93,1.28,0,1.79,0,3.57,0,5.36,0,.26,0,.51,0,.77,0,1.53,0,3.07,0,4.6,0,.61,.3,1.07,.8,1.25,.88,.32,1.73-.26,1.75-1.21,.01-.74,0-1.49,0-2.23,0-.33,0-.33,.33-.33,.84,0,1.69,.01,2.54,0,.71-.01,1.38-.18,2.01-.5,1.82-.91,2.81-3.03,2.6-4.9-.26-2.33-2.07-4.04-4.46-4.11-.63-.02-1.25-.02-1.88-.02-.26,0-.52,0-.79,0"/>
          <g style="clip-path: url(#clippath-2);">
            <rect x="43.76" y="2.43" width="10.25" height="13.64"/>
          </g>
        </g>
        <g>
          <path d="M93.83,2.43c-.18,0-.36,.01-.53,.02-.52,.05-.91,.37-1.06,.86-.06,.19-.07,.38-.07,.57,0,1.75,0,3.5,0,5.24s0,3.56,0,5.34c0,.51,.17,.94,.64,1.21,.26,.15,.54,.16,.83,.16,1.92,0,3.83,0,5.75,0,.14,0,.28-.01,.41-.03,.8-.09,1.26-.8,1.02-1.55-.16-.48-.59-.78-1.16-.78-1.56,0-3.12,0-4.68,0q-.34,0-.34-.35v-2.63q0-.34,.35-.34c1.2,0,2.4,0,3.61,0,.57,0,1.04-.33,1.2-.82,.15-.47,0-.95-.39-1.24-.27-.2-.59-.26-.92-.26-1.19,0-2.37,0-3.56,0-.23,0-.29-.07-.29-.29,.01-.81,.01-1.61,0-2.42,0-.25,.08-.32,.32-.31,1.38,0,2.76,0,4.14,0,.2,0,.41-.01,.61-.03,.59-.06,1.02-.48,1.07-1.03,.05-.62-.28-1.11-.88-1.27-.21-.05-.43-.06-.65-.06h-2.7c-.9,0-1.8,0-2.71,0"/>
          <g style="clip-path: url(#clippath-3);">
            <rect x="92.16" y="2.43" width="8.9" height="13.41"/>
          </g>
        </g>
        <g>
          <path d="M57.96,10.77c.58-1.51,1.14-3.02,1.72-4.53,.01-.03,.03-.07,.07-.15,.06,.15,.11,.26,.15,.36,.53,1.41,1.07,2.83,1.6,4.24,.11,.3,.11,.31-.2,.31-1.05,0-2.09,0-3.14,0-.19,0-.27-.02-.19-.24m1.3-8.4c-.42,.17-.64,.52-.8,.91-1.05,2.53-2.09,5.07-3.14,7.6-.43,1.04-.87,2.08-1.29,3.13-.2,.49-.19,.97,.19,1.39,.67,.72,1.74,.55,2.13-.36,.21-.5,.4-1.01,.58-1.52,.07-.21,.18-.28,.41-.28,1.61,0,3.21,0,4.82,0,.22,0,.34,.07,.41,.28,.18,.52,.37,1.04,.59,1.54,.24,.57,.82,.87,1.37,.75,.64-.14,1.06-.62,1.06-1.26,.02-.2-.06-.42-.15-.63-1.23-2.97-2.46-5.94-3.69-8.91-.28-.66-.54-1.34-.84-1.99-.22-.48-.66-.75-1.15-.75-.17,0-.34,.03-.51,.1"/>
          <g style="clip-path: url(#clippath-4);">
            <rect x="53.82" y="2.27" width="11.78" height="13.85"/>
          </g>
        </g>
        <g>
          <path d="M107.96,2.32c-1.5,.14-2.83,.7-3.92,1.73-1.46,1.38-2.07,3.11-2.08,5.07-.02,.61,.06,1.21,.21,1.8,.54,2.08,1.74,3.65,3.76,4.51,2.09,.89,4.17,.71,6.19-.25,.64-.3,1.2-.71,1.61-1.28,.4-.56,.32-1.13-.2-1.61-.53-.49-1.04-.52-1.61-.09-.1,.07-.19,.15-.28,.23-.96,.9-2.09,1.3-3.43,1.15-1.16-.14-2.1-.64-2.79-1.57-.91-1.25-1.06-2.66-.74-4.12,.32-1.48,1.2-2.55,2.7-3,1.51-.46,2.92-.26,4.11,.86,.72,.68,1.2,.65,1.88-.07,.03-.03,.06-.06,.08-.09,.41-.49,.42-.95,.02-1.45-.29-.35-.63-.64-1.03-.87-1.15-.67-2.39-.98-3.68-.98-.27,0-.54,.01-.81,.04"/>
          <g style="clip-path: url(#clippath-5);">
            <rect x="101.93" y="2.28" width="12.19" height="14.04"/>
          </g>
        </g>
      </g>
      <path id="icon" d="M12.79,7.09C14.6,3.39,18.4,0,24.11,0c.28,0,.55,0,.84,.02,3.04,.28,8.69,2.29,6.94,5.01-.6,.81-1.76,.96-2.56,.35-2.48-2.22-7.36-2.33-9.83-.58-3.54,2.02-3.24,4.96-4.63,5.39-.92,.21-1.81,.56-2.61,1.05-.9,.56-1.68,1.27-2.32,2.12-.27,.44-.72,.8-1.28,.74-.85-.06-1.78-.13-3.05,.61-2.99,1.81-2.46,5.51,.23,7.04,.71,.41,1.53,.6,2.35,.6h4.12c2.4,.05,2.36,3.53-.04,3.55H7.73c-.38,0-.76-.04-1.13-.11-.01,0-.02,0-.03,0-9.18-2.01-8.65-14.51,1.05-15.26,1.37-1.57,3.18-2.78,5.18-3.45m11.67,4.41l-8.06,11.67c-.56,.81-.35,1.92,.48,2.47,.82,.55,1.95,.34,2.51-.47l8.06-11.67c1.97-3,6.56-2.9,8.81-.3,4.46,4.93-1.88,12.07-7.88,8.01-1.92-1.35-4.01,1.52-2.1,2.89,1.02,.72,3.05,1.85,5.71,1.85,9.46-.29,11.59-10.4,6.98-15.1-1.79-2.07-4.47-3.13-7.13-3.13-2.87,0-5.71,1.24-7.37,3.79"/>
    </g>
  </g>
</svg>