<?xml version="1.0" encoding="UTF-8"?>
<svg id="Layer_2" data-name="Layer 2" xmlns="http://www.w3.org/2000/svg" viewBox="0 0 58.41 36.69">
  <g id="Calque_1" data-name="Calque 1">
    <g id="logo_icon_black">
      <path id="icon" d="M18.09,10.02C20.64,4.8,26.02,0,34.09,0c.39,0,.78,.01,1.19,.03,4.3,.39,12.29,3.24,9.81,7.08-.85,1.14-2.49,1.36-3.62,.49-3.51-3.13-10.41-3.3-13.91-.82-5.01,2.86-4.58,7.02-6.55,7.62-1.3,.3-2.56,.79-3.69,1.49-1.28,.79-2.38,1.8-3.28,3.01-.38,.63-1.02,1.14-1.81,1.05-1.2-.08-2.52-.18-4.32,.86-4.23,2.56-3.48,7.8,.32,9.95,1.01,.57,2.16,.85,3.33,.85h5.82c3.39,.07,3.33,4.99-.06,5.02h-6.39c-.54,0-1.07-.05-1.6-.16-.01,0-.03,0-.05-.01-12.98-2.84-12.24-20.52,1.48-21.58,1.94-2.23,4.5-3.93,7.32-4.88m16.5,6.24l-11.4,16.51c-.79,1.15-.49,2.71,.67,3.49,1.16,.78,2.75,.48,3.55-.66l11.4-16.51c2.78-4.25,9.27-4.09,12.46-.42,6.31,6.97-2.66,17.06-11.14,11.32-2.72-1.9-5.68,2.15-2.98,4.08,1.45,1.02,4.31,2.62,8.07,2.62,13.38-.41,16.38-14.71,9.87-21.35-2.53-2.93-6.32-4.43-10.08-4.43-4.06,0-8.08,1.75-10.43,5.35"/>
    </g>
  </g>
</svg>