<?xml version="1.0" encoding="UTF-8"?>
<svg id="Layer_2" data-name="Layer 2" xmlns="http://www.w3.org/2000/svg" xmlns:xlink="http://www.w3.org/1999/xlink" viewBox="0 0 94.17 20.74">
  <defs>
    <style>
      .cls-1 {
        clip-path: url(#clippath);
      }

      .cls-2, .cls-3 {
        fill: #006dff;
      }

      .cls-4 {
        letter-spacing: -.01em;
      }

      .cls-3 {
        font-family: Montserrat-Regular, Montserrat;
        font-size: 6px;
      }

      .cls-5 {
        clip-path: url(#clippath-1);
      }

      .cls-6 {
        clip-path: url(#clippath-4);
      }

      .cls-7 {
        clip-path: url(#clippath-3);
      }

      .cls-8 {
        clip-path: url(#clippath-2);
      }

      .cls-9 {
        clip-path: url(#clippath-7);
      }

      .cls-10 {
        clip-path: url(#clippath-6);
      }

      .cls-11 {
        clip-path: url(#clippath-5);
      }

      .cls-12 {
        letter-spacing: 0em;
      }

      .cls-13 {
        letter-spacing: 0em;
      }

      .cls-14 {
        letter-spacing: 0em;
      }
    </style>
    <clipPath id="clippath">
      <path class="cls-2" d="M59.16,2.06c.51,0,1.03-.01,1.54,.04,1.04,.11,1.65,.92,1.52,1.95-.13,.97-.79,1.41-1.63,1.48-.52,.05-1.03,.04-1.55,.03-.26,0-.51,0-.77,0-.16,0-.17-.09-.17-.21,0-.52,0-1.03,0-1.55s0-1.03,0-1.55c0-.12,.02-.19,.16-.19,.13,0,.26,0,.39,0,.17,0,.33,0,.5,0m-2.02-1.92c-.71,0-1.07,.37-1.12,1.07,0,.08,0,.16,0,.24,0,1.4,0,2.79,0,4.18s0,2.8,0,4.2c0,.14,0,.29,.03,.43,.06,.35,.24,.62,.58,.77,.72,.31,1.47-.16,1.48-.93,0-.83,0-1.66,0-2.49,0-.18,.04-.24,.23-.24,.38,.01,.76,.01,1.14,0,.48-.02,.87,.16,1.2,.48,.25,.24,.45,.52,.64,.8,.47,.66,.93,1.33,1.39,1.99,.23,.33,.55,.53,.97,.48,.79-.09,1.19-.89,.78-1.57-.15-.24-.31-.47-.48-.7-.48-.64-.85-1.35-1.47-1.88-.12-.11,0-.14,.06-.18,1.26-.86,1.84-2.04,1.69-3.54-.17-1.76-1.39-2.93-3.29-3.08-.56-.04-1.12-.06-1.69-.06-.72,0-1.43,.02-2.15,.03"/>
    </clipPath>
    <clipPath id="clippath-1">
      <path class="cls-2" d="M69.1,.15c-1.25,.31-2.15,1.04-2.48,2.31-.33,1.29,.02,2.52,1.39,3.24,.69,.36,1.44,.55,2.17,.79,.58,.19,1.17,.37,1.71,.66,.78,.42,.63,1.18,.24,1.59-.34,.37-.79,.53-1.28,.57-1.01,.1-1.87-.23-2.62-.89-.22-.2-.44-.4-.72-.53-.26-.12-.51-.11-.74,.04-.63,.4-.95,1.03-.27,1.75,.04,.04,.08,.09,.12,.13,1.07,.99,2.37,1.41,3.82,1.45,.22,0,.44-.01,.66-.04,1.04-.13,1.95-.5,2.65-1.3,.82-.94,1-2.36,.43-3.4-.34-.62-.89-1.02-1.51-1.33-.67-.34-1.41-.52-2.12-.74-.54-.16-1.09-.3-1.57-.62-.58-.39-.59-1.13-.03-1.54,.36-.26,.77-.35,1.2-.36,.8-.02,1.46,.28,2.02,.84,.58,.58,1.06,.55,1.61-.05,.04-.04,.07-.08,.1-.12,.24-.33,.24-.65,.02-.99-.16-.24-.36-.44-.59-.61-.92-.65-1.9-.98-2.95-.98-.41,0-.83,.05-1.26,.15"/>
    </clipPath>
    <clipPath id="clippath-2">
      <path class="cls-2" d="M38.67,5.81c0-.59,0-1.18,0-1.77s0-1.14,0-1.71c0-.18,.05-.25,.24-.24,.26,0,.53,0,.79,0,.42,0,.84,0,1.27,.02,.64,.03,1.17,.29,1.52,.85,.5,.79,.34,1.99-.34,2.58-.39,.33-.85,.45-1.35,.47-.39,.01-.78,.01-1.18,.01-.25,0-.49,0-.74,0h0c-.16,0-.2-.07-.19-.21m.29-5.67c-.39,0-.78,0-1.17,0-.15,0-.31,.01-.46,.04-.47,.11-.76,.51-.76,1.05,0,1.47,0,2.93,0,4.4,0,.21,0,.42,0,.63,0,1.26,0,2.51,0,3.77,0,.5,.25,.88,.66,1.03,.72,.26,1.42-.21,1.44-.99,.01-.61,0-1.22,0-1.83,0-.27,0-.27,.27-.27,.69,0,1.39,0,2.08,0,.58,0,1.13-.15,1.65-.41,1.49-.74,2.31-2.49,2.13-4.02-.22-1.91-1.7-3.31-3.66-3.37-.51-.02-1.03-.02-1.54-.02-.21,0-.43,0-.64,0"/>
    </clipPath>
    <clipPath id="clippath-3">
      <path class="cls-2" d="M77.64,.13c-.15,0-.29,0-.44,.02-.42,.04-.75,.3-.87,.7-.05,.15-.06,.31-.06,.47,0,1.43,0,2.87,0,4.3s0,2.92,0,4.38c0,.42,.14,.77,.53,.99,.21,.12,.44,.13,.68,.13,1.57,0,3.14,0,4.72,0,.11,0,.23,0,.34-.02,.66-.07,1.03-.66,.83-1.27-.13-.39-.49-.64-.95-.64-1.28,0-2.56,0-3.84,0q-.28,0-.28-.29v-2.16q0-.28,.28-.28c.98,0,1.97,0,2.96,0,.47,0,.85-.27,.98-.67,.12-.39,0-.78-.32-1.02-.22-.16-.48-.22-.75-.22-.97,0-1.94,0-2.92,0-.19,0-.24-.06-.24-.24,.01-.66,.01-1.32,0-1.98,0-.2,.06-.26,.26-.26,1.13,0,2.27,0,3.4,0,.17,0,.33,0,.5-.02,.49-.05,.84-.39,.88-.85,.04-.51-.23-.91-.72-1.04-.17-.04-.35-.05-.53-.05h-2.22c-.74,0-1.48,0-2.22,0"/>
    </clipPath>
    <clipPath id="clippath-4">
      <path class="cls-2" d="M48.22,6.97c.47-1.24,.94-2.48,1.41-3.71,.01-.03,.03-.06,.06-.12,.05,.12,.09,.21,.12,.3,.44,1.16,.88,2.32,1.31,3.48,.09,.25,.09,.25-.17,.25-.86,0-1.72,0-2.58,0-.15,0-.22-.02-.16-.2M49.28,.08c-.35,.14-.52,.42-.66,.75-.86,2.08-1.72,4.16-2.58,6.24-.35,.85-.71,1.71-1.06,2.57-.16,.4-.16,.8,.16,1.14,.55,.59,1.43,.45,1.75-.29,.18-.41,.33-.83,.48-1.25,.06-.17,.15-.23,.33-.23,1.32,0,2.64,0,3.96,0,.18,0,.27,.06,.33,.23,.15,.43,.31,.85,.49,1.27,.2,.47,.67,.71,1.12,.62,.53-.11,.87-.51,.87-1.04,.02-.16-.05-.34-.13-.52-1.01-2.44-2.02-4.87-3.02-7.31-.23-.55-.44-1.1-.69-1.63-.18-.4-.54-.62-.94-.62-.14,0-.28,.03-.41,.08"/>
    </clipPath>
    <clipPath id="clippath-5">
      <path class="cls-2" d="M89.22,.04c-1.23,.12-2.32,.57-3.22,1.42-1.19,1.14-1.69,2.55-1.71,4.16-.02,.5,.05,1,.17,1.48,.44,1.71,1.43,2.99,3.09,3.7,1.71,.73,3.42,.58,5.08-.21,.52-.25,.99-.58,1.32-1.05,.33-.46,.26-.92-.16-1.32-.43-.4-.85-.43-1.32-.07-.08,.06-.16,.12-.23,.19-.79,.74-1.72,1.07-2.81,.94-.95-.11-1.73-.52-2.28-1.29-.75-1.03-.87-2.18-.61-3.38,.26-1.21,.98-2.09,2.22-2.46,1.24-.38,2.39-.22,3.37,.7,.59,.55,.99,.53,1.54-.06,.02-.02,.05-.05,.07-.07,.34-.4,.34-.78,.01-1.19-.24-.29-.52-.53-.84-.72-.95-.55-1.96-.8-3.02-.8-.22,0-.44,.01-.67,.03"/>
    </clipPath>
    <clipPath id="clippath-6">
      <path class="cls-2" d="M9.45,5.24c-1.48,.49-2.81,1.38-3.82,2.55-7.16,.55-7.55,9.79-.77,11.27,0,0,.02,0,.02,0,.27,.06,.55,.08,.83,.08h3.34c1.77-.02,1.8-2.59,.03-2.62h-3.04c-.61,0-1.21-.14-1.74-.44-1.99-1.13-2.38-3.86-.17-5.2,.94-.54,1.63-.49,2.26-.45,.41,.04,.74-.22,.94-.55,.47-.63,1.05-1.16,1.71-1.57,.59-.36,1.25-.62,1.93-.78,1.03-.32,.81-2.49,3.42-3.98,1.82-1.3,5.43-1.21,7.26,.43,.59,.45,1.44,.34,1.89-.26C24.84,1.72,20.67,.23,18.43,.03c-.21-.01-.42-.02-.62-.02C13.59,0,10.78,2.52,9.45,5.24"/>
    </clipPath>
    <clipPath id="clippath-7">
      <path class="cls-2" d="M18.06,8.5l-5.96,8.62c-.41,.6-.26,1.42,.35,1.82,.61,.41,1.44,.25,1.85-.35l5.95-8.62c1.45-2.22,4.84-2.14,6.51-.22,3.3,3.64-1.39,8.91-5.82,5.91-1.42-.99-2.96,1.12-1.55,2.13,.76,.53,2.25,1.37,4.21,1.37,6.99-.21,8.56-7.68,5.16-11.15-1.32-1.53-3.3-2.32-5.26-2.32-2.12,0-4.22,.92-5.45,2.8"/>
    </clipPath>
  </defs>
  <g id="Calque_1" data-name="Calque 1">
    <g id="Parsec">
      <g>
        <path class="cls-2" d="M59.16,2.06c.51,0,1.03-.01,1.54,.04,1.04,.11,1.65,.92,1.52,1.95-.13,.97-.79,1.41-1.63,1.48-.52,.05-1.03,.04-1.55,.03-.26,0-.51,0-.77,0-.16,0-.17-.09-.17-.21,0-.52,0-1.03,0-1.55s0-1.03,0-1.55c0-.12,.02-.19,.16-.19,.13,0,.26,0,.39,0,.17,0,.33,0,.5,0m-2.02-1.92c-.71,0-1.07,.37-1.12,1.07,0,.08,0,.16,0,.24,0,1.4,0,2.79,0,4.18s0,2.8,0,4.2c0,.14,0,.29,.03,.43,.06,.35,.24,.62,.58,.77,.72,.31,1.47-.16,1.48-.93,0-.83,0-1.66,0-2.49,0-.18,.04-.24,.23-.24,.38,.01,.76,.01,1.14,0,.48-.02,.87,.16,1.2,.48,.25,.24,.45,.52,.64,.8,.47,.66,.93,1.33,1.39,1.99,.23,.33,.55,.53,.97,.48,.79-.09,1.19-.89,.78-1.57-.15-.24-.31-.47-.48-.7-.48-.64-.85-1.35-1.47-1.88-.12-.11,0-.14,.06-.18,1.26-.86,1.84-2.04,1.69-3.54-.17-1.76-1.39-2.93-3.29-3.08-.56-.04-1.12-.06-1.69-.06-.72,0-1.43,.02-2.15,.03"/>
        <g class="cls-1">
          <rect class="cls-2" x="56.02" y=".11" width="8.86" height="11.22"/>
        </g>
      </g>
      <g>
        <path class="cls-2" d="M69.1,.15c-1.25,.31-2.15,1.04-2.48,2.31-.33,1.29,.02,2.52,1.39,3.24,.69,.36,1.44,.55,2.17,.79,.58,.19,1.17,.37,1.71,.66,.78,.42,.63,1.18,.24,1.59-.34,.37-.79,.53-1.28,.57-1.01,.1-1.87-.23-2.62-.89-.22-.2-.44-.4-.72-.53-.26-.12-.51-.11-.74,.04-.63,.4-.95,1.03-.27,1.75,.04,.04,.08,.09,.12,.13,1.07,.99,2.37,1.41,3.82,1.45,.22,0,.44-.01,.66-.04,1.04-.13,1.95-.5,2.65-1.3,.82-.94,1-2.36,.43-3.4-.34-.62-.89-1.02-1.51-1.33-.67-.34-1.41-.52-2.12-.74-.54-.16-1.09-.3-1.57-.62-.58-.39-.59-1.13-.03-1.54,.36-.26,.77-.35,1.2-.36,.8-.02,1.46,.28,2.02,.84,.58,.58,1.06,.55,1.61-.05,.04-.04,.07-.08,.1-.12,.24-.33,.24-.65,.02-.99-.16-.24-.36-.44-.59-.61-.92-.65-1.9-.98-2.95-.98-.41,0-.83,.05-1.26,.15"/>
        <g class="cls-5">
          <rect class="cls-2" x="65.82" width="8.93" height="11.27"/>
        </g>
      </g>
      <g>
        <path class="cls-2" d="M38.67,5.81c0-.59,0-1.18,0-1.77s0-1.14,0-1.71c0-.18,.05-.25,.24-.24,.26,0,.53,0,.79,0,.42,0,.84,0,1.27,.02,.64,.03,1.17,.29,1.52,.85,.5,.79,.34,1.99-.34,2.58-.39,.33-.85,.45-1.35,.47-.39,.01-.78,.01-1.18,.01-.25,0-.49,0-.74,0h0c-.16,0-.2-.07-.19-.21m.29-5.67c-.39,0-.78,0-1.17,0-.15,0-.31,.01-.46,.04-.47,.11-.76,.51-.76,1.05,0,1.47,0,2.93,0,4.4,0,.21,0,.42,0,.63,0,1.26,0,2.51,0,3.77,0,.5,.25,.88,.66,1.03,.72,.26,1.42-.21,1.44-.99,.01-.61,0-1.22,0-1.83,0-.27,0-.27,.27-.27,.69,0,1.39,0,2.08,0,.58,0,1.13-.15,1.65-.41,1.49-.74,2.31-2.49,2.13-4.02-.22-1.91-1.7-3.31-3.66-3.37-.51-.02-1.03-.02-1.54-.02-.21,0-.43,0-.64,0"/>
        <g class="cls-8">
          <rect class="cls-2" x="36.57" y=".13" width="8.41" height="11.18"/>
        </g>
      </g>
      <g>
        <path class="cls-2" d="M77.64,.13c-.15,0-.29,0-.44,.02-.42,.04-.75,.3-.87,.7-.05,.15-.06,.31-.06,.47,0,1.43,0,2.87,0,4.3s0,2.92,0,4.38c0,.42,.14,.77,.53,.99,.21,.12,.44,.13,.68,.13,1.57,0,3.14,0,4.72,0,.11,0,.23,0,.34-.02,.66-.07,1.03-.66,.83-1.27-.13-.39-.49-.64-.95-.64-1.28,0-2.56,0-3.84,0q-.28,0-.28-.29v-2.16q0-.28,.28-.28c.98,0,1.97,0,2.96,0,.47,0,.85-.27,.98-.67,.12-.39,0-.78-.32-1.02-.22-.16-.48-.22-.75-.22-.97,0-1.94,0-2.92,0-.19,0-.24-.06-.24-.24,.01-.66,.01-1.32,0-1.98,0-.2,.06-.26,.26-.26,1.13,0,2.27,0,3.4,0,.17,0,.33,0,.5-.02,.49-.05,.84-.39,.88-.85,.04-.51-.23-.91-.72-1.04-.17-.04-.35-.05-.53-.05h-2.22c-.74,0-1.48,0-2.22,0"/>
        <g class="cls-7">
          <rect class="cls-2" x="76.27" y=".13" width="7.3" height="11"/>
        </g>
      </g>
      <g>
        <path class="cls-2" d="M48.22,6.97c.47-1.24,.94-2.48,1.41-3.71,.01-.03,.03-.06,.06-.12,.05,.12,.09,.21,.12,.3,.44,1.16,.88,2.32,1.31,3.48,.09,.25,.09,.25-.17,.25-.86,0-1.72,0-2.58,0-.15,0-.22-.02-.16-.2M49.28,.08c-.35,.14-.52,.42-.66,.75-.86,2.08-1.72,4.16-2.58,6.24-.35,.85-.71,1.71-1.06,2.57-.16,.4-.16,.8,.16,1.14,.55,.59,1.43,.45,1.75-.29,.18-.41,.33-.83,.48-1.25,.06-.17,.15-.23,.33-.23,1.32,0,2.64,0,3.96,0,.18,0,.27,.06,.33,.23,.15,.43,.31,.85,.49,1.27,.2,.47,.67,.71,1.12,.62,.53-.11,.87-.51,.87-1.04,.02-.16-.05-.34-.13-.52-1.01-2.44-2.02-4.87-3.02-7.31-.23-.55-.44-1.1-.69-1.63-.18-.4-.54-.62-.94-.62-.14,0-.28,.03-.41,.08"/>
        <g class="cls-6">
          <rect class="cls-2" x="44.82" y="0" width="9.66" height="11.36"/>
        </g>
      </g>
      <g>
        <path class="cls-2" d="M89.22,.04c-1.23,.12-2.32,.57-3.22,1.42-1.19,1.14-1.69,2.55-1.71,4.16-.02,.5,.05,1,.17,1.48,.44,1.71,1.43,2.99,3.09,3.7,1.71,.73,3.42,.58,5.08-.21,.52-.25,.99-.58,1.32-1.05,.33-.46,.26-.92-.16-1.32-.43-.4-.85-.43-1.32-.07-.08,.06-.16,.12-.23,.19-.79,.74-1.72,1.07-2.81,.94-.95-.11-1.73-.52-2.28-1.29-.75-1.03-.87-2.18-.61-3.38,.26-1.21,.98-2.09,2.22-2.46,1.24-.38,2.39-.22,3.37,.7,.59,.55,.99,.53,1.54-.06,.02-.02,.05-.05,.07-.07,.34-.4,.34-.78,.01-1.19-.24-.29-.52-.53-.84-.72-.95-.55-1.96-.8-3.02-.8-.22,0-.44,.01-.67,.03"/>
        <g class="cls-11">
          <rect class="cls-2" x="84.28" y="0" width="10" height="11.52"/>
        </g>
      </g>
    </g>
    <g id="Logo">
      <g>
        <path class="cls-2" d="M9.45,5.24c-1.48,.49-2.81,1.38-3.82,2.55-7.16,.55-7.55,9.79-.77,11.27,0,0,.02,0,.02,0,.27,.06,.55,.08,.83,.08h3.34c1.77-.02,1.8-2.59,.03-2.62h-3.04c-.61,0-1.21-.14-1.74-.44-1.99-1.13-2.38-3.86-.17-5.2,.94-.54,1.63-.49,2.26-.45,.41,.04,.74-.22,.94-.55,.47-.63,1.05-1.16,1.71-1.57,.59-.36,1.25-.62,1.93-.78,1.03-.32,.81-2.49,3.42-3.98,1.82-1.3,5.43-1.21,7.26,.43,.59,.45,1.44,.34,1.89-.26C24.84,1.72,20.67,.23,18.43,.03c-.21-.01-.42-.02-.62-.02C13.59,0,10.78,2.52,9.45,5.24"/>
        <g class="cls-10">
          <rect class="cls-2" x="-1.93" y="0" width="26.77" height="19.14"/>
        </g>
      </g>
      <g>
        <path class="cls-2" d="M18.06,8.5l-5.96,8.62c-.41,.6-.26,1.42,.35,1.82,.61,.41,1.44,.25,1.85-.35l5.95-8.62c1.45-2.22,4.84-2.14,6.51-.22,3.3,3.64-1.39,8.91-5.82,5.91-1.42-.99-2.96,1.12-1.55,2.13,.76,.53,2.25,1.37,4.21,1.37,6.99-.21,8.56-7.68,5.16-11.15-1.32-1.53-3.3-2.32-5.26-2.32-2.12,0-4.22,.92-5.45,2.8"/>
        <g class="cls-9">
          <rect class="cls-2" x="11.7" y="5.7" width="20.48" height="13.65"/>
        </g>
      </g>
    </g>
    <text class="cls-3" transform="translate(36.57 19.17) scale(1.03 1)"><tspan class="cls-4" x="0" y="0">T</tspan><tspan class="cls-12" x="3.36" y="0">rust t</tspan><tspan class="cls-14" x="19.18" y="0">h</tspan><tspan x="23.26" y="0">e </tspan><tspan class="cls-13" x="28.45" y="0">c</tspan><tspan x="31.78" y="0">loud</tspan></text>
  </g>
</svg>
