<?xml version="1.0" encoding="UTF-8"?>
<svg id="Layer_2" data-name="Layer 2" xmlns="http://www.w3.org/2000/svg" xmlns:xlink="http://www.w3.org/1999/xlink" viewBox="0 0 113.98 19.38">
  <defs>
    <clipPath id="clippath">
      <path d="M67.27,5.33c.69,0,1.37-.02,2.06,.05,1.39,.14,2.2,1.23,2.02,2.6-.17,1.29-1.05,1.88-2.18,1.98-.69,.06-1.38,.05-2.06,.04-.34,0-.68-.01-1.02,0-.21,0-.22-.12-.22-.28,0-.69,0-1.38,0-2.07s0-1.38,0-2.07c0-.15,.03-.25,.22-.25,.17,0,.34,0,.52,0,.22,0,.45,0,.67,0m-2.69-2.57c-.95,0-1.43,.5-1.49,1.43,0,.11,0,.21,0,.31,0,1.86,0,3.72,0,5.58s0,3.74,0,5.61c0,.19,0,.39,.04,.57,.08,.47,.32,.83,.77,1.03,.96,.41,1.96-.21,1.98-1.25,.01-1.11,0-2.22,0-3.33,0-.23,.06-.33,.31-.32,.51,.02,1.01,.02,1.52,0,.64-.02,1.16,.22,1.61,.64,.34,.31,.6,.69,.86,1.06,.62,.88,1.24,1.77,1.86,2.65,.31,.44,.73,.7,1.29,.64,1.06-.11,1.59-1.19,1.04-2.1-.19-.32-.42-.63-.64-.93-.63-.85-1.14-1.8-1.96-2.51-.16-.14-.01-.18,.08-.24,1.68-1.15,2.45-2.72,2.26-4.72-.23-2.34-1.86-3.92-4.38-4.11-.75-.06-1.5-.07-2.25-.07-.95,0-1.91,.03-2.87,.03"/>
    </clipPath>
    <clipPath id="clippath-1">
      <path d="M80.54,2.78c-1.67,.41-2.87,1.39-3.3,3.08-.45,1.73,.02,3.37,1.85,4.33,.92,.48,1.92,.73,2.89,1.05,.77,.25,1.56,.49,2.28,.88,1.04,.56,.84,1.57,.32,2.12-.46,.49-1.05,.7-1.71,.77-1.35,.13-2.5-.3-3.49-1.19-.29-.26-.59-.53-.96-.7-.34-.16-.68-.15-.99,.05-.84,.53-1.27,1.37-.37,2.34,.05,.06,.11,.12,.17,.17,1.43,1.32,3.16,1.89,5.1,1.93,.3,.01,.59-.02,.88-.06,1.39-.17,2.61-.67,3.54-1.74,1.09-1.25,1.33-3.15,.57-4.54-.45-.83-1.18-1.36-2.01-1.78-.9-.46-1.88-.7-2.83-.99-.72-.22-1.46-.4-2.09-.83-.77-.52-.78-1.5-.03-2.06,.48-.35,1.03-.47,1.61-.48,1.06-.02,1.95,.38,2.69,1.12,.77,.77,1.42,.74,2.15-.07,.05-.05,.09-.11,.13-.17,.32-.44,.33-.86,.02-1.32-.21-.32-.48-.59-.79-.81-1.22-.86-2.54-1.31-3.93-1.31-.55,0-1.11,.07-1.68,.21"/>
    </clipPath>
    <clipPath id="clippath-2">
      <path d="M39.93,10.32c0-.79,0-1.57,0-2.36s0-1.52,0-2.28c0-.23,.06-.33,.32-.33,.35,0,.7,0,1.06,0,.56,0,1.13,0,1.69,.02,.85,.04,1.56,.39,2.03,1.13,.66,1.06,.45,2.66-.46,3.44-.51,.44-1.14,.61-1.8,.63-.52,.02-1.05,.02-1.57,.02-.33,0-.66,0-.99,0h0c-.21,0-.26-.09-.26-.28m.39-7.57c-.52,0-1.04,0-1.56,0-.2,0-.41,.01-.61,.06-.62,.15-1.01,.68-1.01,1.4,0,1.96,0,3.91,0,5.87,0,.28,0,.56,0,.84,0,1.68,0,3.35,0,5.03,0,.67,.33,1.17,.88,1.37,.97,.35,1.9-.29,1.92-1.33,.01-.81,0-1.63,0-2.44,0-.36,0-.36,.36-.37,.92,0,1.85,.01,2.77,0,.77-.01,1.51-.2,2.2-.55,1.99-.99,3.08-3.32,2.85-5.36-.29-2.55-2.27-4.42-4.88-4.5-.69-.02-1.37-.03-2.06-.03-.29,0-.57,0-.86,0"/>
    </clipPath>
    <clipPath id="clippath-3">
      <path d="M91.93,2.75c-.19,0-.39,.01-.58,.03-.56,.05-1,.4-1.16,.94-.06,.2-.08,.41-.08,.62,0,1.91,0,3.83,0,5.74s0,3.89,0,5.84c0,.56,.19,1.03,.7,1.32,.28,.16,.59,.18,.9,.18,2.1,0,4.2,0,6.29,0,.15,0,.3-.01,.45-.03,.87-.1,1.38-.87,1.11-1.7-.17-.52-.65-.85-1.27-.85-1.71,0-3.41,0-5.12,0q-.38,0-.38-.38v-2.88q0-.37,.38-.37c1.31,0,2.63,0,3.95,0,.63,0,1.14-.36,1.31-.89,.17-.51,0-1.04-.43-1.36-.3-.22-.64-.29-1-.29-1.3,0-2.6,0-3.89,0-.25,0-.32-.08-.32-.32,.01-.88,.01-1.76,0-2.64,0-.27,.08-.35,.35-.34,1.51,0,3.02,0,4.53,0,.22,0,.44-.01,.66-.03,.65-.06,1.12-.52,1.17-1.13,.06-.68-.31-1.22-.96-1.39-.23-.06-.47-.06-.71-.06h-2.96c-.99,0-1.97,0-2.96,0"/>
    </clipPath>
    <clipPath id="clippath-4">
      <path d="M52.67,11.88c.63-1.65,1.25-3.3,1.88-4.96,.01-.04,.04-.08,.08-.16,.07,.16,.12,.28,.16,.4,.58,1.55,1.17,3.09,1.75,4.64,.12,.33,.12,.34-.22,.34-1.15,0-2.29,0-3.44,0-.21,0-.3-.03-.21-.26m1.42-9.19c-.46,.19-.7,.56-.88,1-1.14,2.77-2.29,5.55-3.44,8.32-.47,1.14-.95,2.28-1.41,3.42-.22,.54-.21,1.07,.21,1.52,.74,.79,1.91,.6,2.33-.39,.23-.55,.44-1.11,.64-1.67,.08-.23,.2-.31,.45-.31,1.76,0,3.52,0,5.28,0,.25,0,.37,.08,.45,.31,.2,.57,.41,1.14,.65,1.69,.27,.62,.89,.95,1.5,.82,.7-.15,1.16-.68,1.16-1.38,.02-.22-.07-.46-.17-.69-1.35-3.25-2.69-6.5-4.04-9.75-.3-.73-.59-1.46-.91-2.18-.24-.53-.73-.82-1.25-.82-.18,0-.37,.03-.55,.11"/>
    </clipPath>
    <clipPath id="clippath-5">
      <path d="M107.39,2.63c-1.65,.16-3.1,.76-4.29,1.9-1.59,1.51-2.26,3.41-2.28,5.55-.02,.67,.06,1.33,.23,1.97,.59,2.28,1.9,4,4.12,4.94,2.29,.97,4.56,.78,6.78-.27,.7-.33,1.32-.77,1.76-1.41,.44-.62,.35-1.23-.22-1.76-.58-.54-1.14-.57-1.77-.1-.11,.08-.21,.16-.31,.25-1.05,.98-2.29,1.43-3.75,1.25-1.27-.15-2.3-.7-3.05-1.72-1-1.37-1.16-2.91-.81-4.51,.35-1.62,1.31-2.79,2.96-3.29,1.66-.5,3.19-.29,4.5,.94,.79,.74,1.32,.71,2.06-.07,.03-.03,.06-.07,.09-.1,.45-.54,.46-1.04,.02-1.59-.31-.39-.69-.71-1.12-.95-1.26-.73-2.61-1.07-4.03-1.07-.29,0-.59,.01-.89,.04"/>
    </clipPath>
  </defs>
  <g id="Calque_1" data-name="Calque 1">
    <g id="logo_row_black">
      <g id="text">
        <g>
          <path d="M67.27,5.33c.69,0,1.37-.02,2.06,.05,1.39,.14,2.2,1.23,2.02,2.6-.17,1.29-1.05,1.88-2.18,1.98-.69,.06-1.38,.05-2.06,.04-.34,0-.68-.01-1.02,0-.21,0-.22-.12-.22-.28,0-.69,0-1.38,0-2.07s0-1.38,0-2.07c0-.15,.03-.25,.22-.25,.17,0,.34,0,.52,0,.22,0,.45,0,.67,0m-2.69-2.57c-.95,0-1.43,.5-1.49,1.43,0,.11,0,.21,0,.31,0,1.86,0,3.72,0,5.58s0,3.74,0,5.61c0,.19,0,.39,.04,.57,.08,.47,.32,.83,.77,1.03,.96,.41,1.96-.21,1.98-1.25,.01-1.11,0-2.22,0-3.33,0-.23,.06-.33,.31-.32,.51,.02,1.01,.02,1.52,0,.64-.02,1.16,.22,1.61,.64,.34,.31,.6,.69,.86,1.06,.62,.88,1.24,1.77,1.86,2.65,.31,.44,.73,.7,1.29,.64,1.06-.11,1.59-1.19,1.04-2.1-.19-.32-.42-.63-.64-.93-.63-.85-1.14-1.8-1.96-2.51-.16-.14-.01-.18,.08-.24,1.68-1.15,2.45-2.72,2.26-4.72-.23-2.34-1.86-3.92-4.38-4.11-.75-.06-1.5-.07-2.25-.07-.95,0-1.91,.03-2.87,.03"/>
          <g style="clip-path: url(#clippath);">
            <rect x="63.08" y="2.73" width="11.82" height="14.98"/>
          </g>
        </g>
        <g>
          <path d="M80.54,2.78c-1.67,.41-2.87,1.39-3.3,3.08-.45,1.73,.02,3.37,1.85,4.33,.92,.48,1.92,.73,2.89,1.05,.77,.25,1.56,.49,2.28,.88,1.04,.56,.84,1.57,.32,2.12-.46,.49-1.05,.7-1.71,.77-1.35,.13-2.5-.3-3.49-1.19-.29-.26-.59-.53-.96-.7-.34-.16-.68-.15-.99,.05-.84,.53-1.27,1.37-.37,2.34,.05,.06,.11,.12,.17,.17,1.43,1.32,3.16,1.89,5.1,1.93,.3,.01,.59-.02,.88-.06,1.39-.17,2.61-.67,3.54-1.74,1.09-1.25,1.33-3.15,.57-4.54-.45-.83-1.18-1.36-2.01-1.78-.9-.46-1.88-.7-2.83-.99-.72-.22-1.46-.4-2.09-.83-.77-.52-.78-1.5-.03-2.06,.48-.35,1.03-.47,1.61-.48,1.06-.02,1.95,.38,2.69,1.12,.77,.77,1.42,.74,2.15-.07,.05-.05,.09-.11,.13-.17,.32-.44,.33-.86,.02-1.32-.21-.32-.48-.59-.79-.81-1.22-.86-2.54-1.31-3.93-1.31-.55,0-1.11,.07-1.68,.21"/>
          <g style="clip-path: url(#clippath-1);">
            <rect x="76.16" y="2.58" width="11.92" height="15.04"/>
          </g>
        </g>
        <g>
          <path d="M39.93,10.32c0-.79,0-1.57,0-2.36s0-1.52,0-2.28c0-.23,.06-.33,.32-.33,.35,0,.7,0,1.06,0,.56,0,1.13,0,1.69,.02,.85,.04,1.56,.39,2.03,1.13,.66,1.06,.45,2.66-.46,3.44-.51,.44-1.14,.61-1.8,.63-.52,.02-1.05,.02-1.57,.02-.33,0-.66,0-.99,0h0c-.21,0-.26-.09-.26-.28m.39-7.57c-.52,0-1.04,0-1.56,0-.2,0-.41,.01-.61,.06-.62,.15-1.01,.68-1.01,1.4,0,1.96,0,3.91,0,5.87,0,.28,0,.56,0,.84,0,1.68,0,3.35,0,5.03,0,.67,.33,1.17,.88,1.37,.97,.35,1.9-.29,1.92-1.33,.01-.81,0-1.63,0-2.44,0-.36,0-.36,.36-.37,.92,0,1.85,.01,2.77,0,.77-.01,1.51-.2,2.2-.55,1.99-.99,3.08-3.32,2.85-5.36-.29-2.55-2.27-4.42-4.88-4.5-.69-.02-1.37-.03-2.06-.03-.29,0-.57,0-.86,0"/>
          <g style="clip-path: url(#clippath-2);">
            <rect x="37.13" y="2.75" width="11.22" height="14.92"/>
          </g>
        </g>
        <g>
          <path d="M91.93,2.75c-.19,0-.39,.01-.58,.03-.56,.05-1,.4-1.16,.94-.06,.2-.08,.41-.08,.62,0,1.91,0,3.83,0,5.74s0,3.89,0,5.84c0,.56,.19,1.03,.7,1.32,.28,.16,.59,.18,.9,.18,2.1,0,4.2,0,6.29,0,.15,0,.3-.01,.45-.03,.87-.1,1.38-.87,1.11-1.7-.17-.52-.65-.85-1.27-.85-1.71,0-3.41,0-5.12,0q-.38,0-.38-.38v-2.88q0-.37,.38-.37c1.31,0,2.63,0,3.95,0,.63,0,1.14-.36,1.31-.89,.17-.51,0-1.04-.43-1.36-.3-.22-.64-.29-1-.29-1.3,0-2.6,0-3.89,0-.25,0-.32-.08-.32-.32,.01-.88,.01-1.76,0-2.64,0-.27,.08-.35,.35-.34,1.51,0,3.02,0,4.53,0,.22,0,.44-.01,.66-.03,.65-.06,1.12-.52,1.17-1.13,.06-.68-.31-1.22-.96-1.39-.23-.06-.47-.06-.71-.06h-2.96c-.99,0-1.97,0-2.96,0"/>
          <g style="clip-path: url(#clippath-3);">
            <rect x="90.11" y="2.75" width="9.74" height="14.67"/>
          </g>
        </g>
        <g>
          <path d="M52.67,11.88c.63-1.65,1.25-3.3,1.88-4.96,.01-.04,.04-.08,.08-.16,.07,.16,.12,.28,.16,.4,.58,1.55,1.17,3.09,1.75,4.64,.12,.33,.12,.34-.22,.34-1.15,0-2.29,0-3.44,0-.21,0-.3-.03-.21-.26m1.42-9.19c-.46,.19-.7,.56-.88,1-1.14,2.77-2.29,5.55-3.44,8.32-.47,1.14-.95,2.28-1.41,3.42-.22,.54-.21,1.07,.21,1.52,.74,.79,1.91,.6,2.33-.39,.23-.55,.44-1.11,.64-1.67,.08-.23,.2-.31,.45-.31,1.76,0,3.52,0,5.28,0,.25,0,.37,.08,.45,.31,.2,.57,.41,1.14,.65,1.69,.27,.62,.89,.95,1.5,.82,.7-.15,1.16-.68,1.16-1.38,.02-.22-.07-.46-.17-.69-1.35-3.25-2.69-6.5-4.04-9.75-.3-.73-.59-1.46-.91-2.18-.24-.53-.73-.82-1.25-.82-.18,0-.37,.03-.55,.11"/>
          <g style="clip-path: url(#clippath-4);">
            <rect x="48.14" y="2.58" width="12.9" height="15.16"/>
          </g>
        </g>
        <g>
          <path d="M107.39,2.63c-1.65,.16-3.1,.76-4.29,1.9-1.59,1.51-2.26,3.41-2.28,5.55-.02,.67,.06,1.33,.23,1.97,.59,2.28,1.9,4,4.12,4.94,2.29,.97,4.56,.78,6.78-.27,.7-.33,1.32-.77,1.76-1.41,.44-.62,.35-1.23-.22-1.76-.58-.54-1.14-.57-1.77-.1-.11,.08-.21,.16-.31,.25-1.05,.98-2.29,1.43-3.75,1.25-1.27-.15-2.3-.7-3.05-1.72-1-1.37-1.16-2.91-.81-4.51,.35-1.62,1.31-2.79,2.96-3.29,1.66-.5,3.19-.29,4.5,.94,.79,.74,1.32,.71,2.06-.07,.03-.03,.06-.07,.09-.1,.45-.54,.46-1.04,.02-1.59-.31-.39-.69-.71-1.12-.95-1.26-.73-2.61-1.07-4.03-1.07-.29,0-.59,.01-.89,.04"/>
          <g style="clip-path: url(#clippath-5);">
            <rect x="100.8" y="2.59" width="13.35" height="15.37"/>
          </g>
        </g>
      </g>
      <path id="icon" d="M9.56,5.29C10.91,2.54,13.75,0,18.01,0c.21,0,.41,0,.63,.02,2.27,.21,6.49,1.71,5.18,3.74-.45,.6-1.31,.72-1.91,.26-1.85-1.66-5.5-1.74-7.35-.43-2.65,1.51-2.42,3.71-3.46,4.03-.69,.16-1.35,.42-1.95,.79-.68,.42-1.26,.95-1.73,1.59-.2,.33-.54,.6-.95,.56-.63-.04-1.33-.09-2.28,.45-2.23,1.35-1.84,4.12,.17,5.26,.53,.3,1.14,.45,1.76,.45h3.07c1.79,.04,1.76,2.64-.03,2.65h-3.37c-.28,0-.57-.03-.84-.09,0,0-.02,0-.02,0-6.86-1.5-6.46-10.84,.78-11.4,1.03-1.18,2.38-2.07,3.87-2.58m8.72,3.3l-6.02,8.72c-.42,.61-.26,1.43,.36,1.84,.62,.41,1.45,.26,1.87-.35l6.02-8.72c1.47-2.24,4.9-2.16,6.58-.22,3.33,3.68-1.41,9.01-5.89,5.98-1.44-1.01-3,1.14-1.57,2.16,.76,.54,2.28,1.39,4.26,1.39,7.07-.22,8.66-7.77,5.21-11.28-1.34-1.55-3.34-2.34-5.32-2.34-2.14,0-4.27,.93-5.51,2.83"/>
    </g>
  </g>
</svg>