<?xml version="1.0" encoding="UTF-8"?>
<svg id="Layer_2" data-name="Layer 2" xmlns="http://www.w3.org/2000/svg" xmlns:xlink="http://www.w3.org/1999/xlink" viewBox="0 0 113.98 26.02">
  <defs>
    <linearGradient id="linear-gradient" x1="20.63" y1="-11.73" x2="20.68" y2="52.38" gradientUnits="userSpaceOnUse">
      <stop offset="0" stop-color="#53c9ff"/>
      <stop offset="1" stop-color="#006eff"/>
    </linearGradient>
    <linearGradient id="New_Gradient_Swatch_1_copy" data-name="New Gradient Swatch 1 copy" x1="78.8" y1="-40.28" x2="78.8" y2="23.18" gradientUnits="userSpaceOnUse">
      <stop offset="0" stop-color="#53c9ff"/>
      <stop offset="1" stop-color="#006eff"/>
    </linearGradient>
  </defs>
  <g id="Calque_1" data-name="Calque 1">
    <g id="logo_strapeline_gradient">
      <g>
        <path d="m45.9,20.28h-2.28l.12-.57h5.23l-.13.57h-2.27l-1.17,5.68h-.67l1.17-5.68Z" style="fill: #4092ff;"/>
        <path d="m51.91,21.23l-.12.62c-.06,0-.11,0-.18,0-1.03,0-1.72.57-1.96,1.74l-.49,2.38h-.66l.96-4.7h.63l-.17.86c.43-.62,1.07-.89,1.99-.89Z" style="fill: #4092ff;"/>
        <path d="m57.54,21.27l-.97,4.7h-.63l.16-.75c-.47.54-1.13.79-1.87.79-1.09,0-1.72-.57-1.72-1.54,0-.17.02-.34.06-.53l.55-2.68h.66l-.55,2.68c-.03.15-.05.29-.05.42,0,.68.41,1.07,1.24,1.07,1.02,0,1.73-.55,1.96-1.64l.52-2.53h.66Z" style="fill: #4092ff;"/>
        <path d="m57.89,25.44l.31-.5c.37.31,1.02.52,1.68.52.93,0,1.44-.31,1.44-.84,0-1.06-2.75-.33-2.75-1.92,0-.89.83-1.46,2.1-1.46.62,0,1.27.17,1.64.44l-.28.51c-.38-.28-.92-.4-1.42-.4-.89,0-1.4.35-1.4.86,0,1.09,2.75.35,2.75,1.91,0,.93-.86,1.46-2.15,1.46-.79,0-1.55-.24-1.93-.57Z" style="fill: #4092ff;"/>
        <path d="m63.97,24.54c-.02.11-.04.21-.04.3,0,.4.23.62.7.62.27,0,.53-.08.75-.24l.16.48c-.3.22-.71.3-1.08.3-.73,0-1.18-.4-1.18-1.07,0-.12,0-.24.04-.37l.56-2.77h-.86l.1-.54h.87l.21-1.03h.66l-.21,1.03h1.48l-.11.54h-1.48l-.56,2.74Z" style="fill: #4092ff;"/>
        <path d="m70.13,24.54c-.02.11-.04.21-.04.3,0,.4.23.62.7.62.27,0,.53-.08.75-.24l.16.48c-.3.22-.71.3-1.08.3-.73,0-1.18-.4-1.18-1.07,0-.12,0-.24.04-.37l.56-2.77h-.86l.1-.54h.87l.21-1.03h.66l-.21,1.03h1.48l-.11.54h-1.48l-.56,2.74Z" style="fill: #4092ff;"/>
        <path d="m77.89,22.76c0,.17-.02.35-.06.54l-.55,2.67h-.66l.55-2.68c.03-.15.05-.3.05-.43,0-.67-.42-1.05-1.25-1.05-1.03,0-1.74.54-1.97,1.64l-.52,2.52h-.65l1.37-6.63h.66l-.54,2.63c.46-.51,1.11-.74,1.85-.74,1.1,0,1.73.57,1.73,1.53Z" style="fill: #4092ff;"/>
        <path d="m79.7,23.79c0,.06,0,.12,0,.19,0,.94.55,1.46,1.67,1.46.65,0,1.23-.22,1.59-.59l.3.46c-.45.44-1.18.7-1.94.7-1.4,0-2.26-.77-2.26-2,0-1.6,1.14-2.78,2.68-2.78,1.28,0,2.11.74,2.11,1.99,0,.2-.03.39-.06.57h-4.08Zm.06-.47h3.46c0-.06,0-.12,0-.17,0-.89-.62-1.38-1.52-1.38-.98,0-1.71.62-1.95,1.55Z" style="fill: #4092ff;"/>
        <path d="m87.24,23.42c0-2.05,1.51-3.76,3.93-3.76,1.03,0,1.86.32,2.3.91l-.48.41c-.41-.48-1.02-.73-1.87-.73-1.96,0-3.2,1.44-3.2,3.13,0,1.22.82,2.04,2.4,2.04.84,0,1.53-.25,2.05-.74l.4.44c-.57.58-1.48.89-2.5.89-1.92,0-3.02-1.05-3.02-2.6Z" style="fill: #4092ff;"/>
        <path d="m95.08,19.34h.65l-1.36,6.63h-.66l1.37-6.63Z" style="fill: #4092ff;"/>
        <path d="m96.15,24.02c0-1.6,1.17-2.79,2.8-2.79,1.35,0,2.2.77,2.2,1.98,0,1.61-1.17,2.79-2.8,2.79-1.35,0-2.2-.79-2.2-1.99Zm4.35-.77c0-.92-.58-1.46-1.6-1.46-1.21,0-2.1.93-2.1,2.21,0,.92.58,1.46,1.6,1.46,1.21,0,2.1-.92,2.1-2.2Z" style="fill: #4092ff;"/>
        <path d="m107.32,21.27l-.97,4.7h-.63l.16-.75c-.47.54-1.12.79-1.87.79-1.09,0-1.72-.57-1.72-1.54,0-.17.02-.34.05-.53l.55-2.68h.65l-.55,2.68c-.03.15-.05.29-.05.42,0,.68.41,1.07,1.24,1.07,1.02,0,1.74-.55,1.96-1.64l.52-2.53h.66Z" style="fill: #4092ff;"/>
        <path d="m113.98,19.34l-1.37,6.63h-.63l.16-.74c-.46.49-1.11.79-1.89.79-1.24,0-2.11-.75-2.11-1.99,0-1.61,1.16-2.79,2.74-2.79.92,0,1.56.37,1.84,1.02l.6-2.91h.65Zm-1.49,3.91c0-.92-.58-1.46-1.6-1.46-1.21,0-2.1.93-2.1,2.21,0,.92.58,1.46,1.6,1.46,1.21,0,2.1-.92,2.1-2.2Z" style="fill: #4092ff;"/>
      </g>
      <path id="icon" d="m12.79,7.09c1.81-3.69,5.61-7.09,11.31-7.09.28,0,.55,0,.84.02,3.04.28,8.69,2.29,6.94,5.01-.6.81-1.76.96-2.56.35-2.48-2.22-7.36-2.33-9.83-.58-3.54,2.02-3.24,4.96-4.63,5.39-.92.21-1.81.56-2.61,1.05-.9.56-1.68,1.27-2.32,2.12-.27.44-.72.8-1.28.74-.85-.06-1.78-.13-3.05.61-2.99,1.81-2.46,5.51.23,7.04.71.41,1.53.6,2.35.6h4.12c2.4.05,2.36,3.53-.04,3.55h-4.52c-.38,0-.76-.04-1.13-.11-.01,0-.02,0-.03,0-9.18-2.01-8.65-14.51,1.05-15.26,1.37-1.57,3.18-2.78,5.18-3.45m11.67,4.41l-8.06,11.67c-.56.81-.35,1.92.48,2.47.82.55,1.95.34,2.51-.47l8.06-11.67c1.97-3,6.56-2.9,8.81-.3,4.46,4.93-1.88,12.07-7.88,8.01-1.92-1.35-4.01,1.52-2.1,2.89,1.02.72,3.05,1.85,5.71,1.85,9.46-.29,11.59-10.4,6.98-15.1-1.79-2.07-4.47-3.13-7.13-3.13-2.87,0-5.71,1.24-7.37,3.79" style="fill: url(#linear-gradient);"/>
      <path d="m93.78,2.45c.9,0,1.81,0,2.71,0h2.71c.22,0,.44,0,.65.06.6.16.93.64.88,1.27-.04.55-.48.98-1.07,1.03-.2.02-.41.03-.61.03-1.38,0-2.77,0-4.15,0-.24,0-.32.07-.32.31.01.81.01,1.61,0,2.42,0,.22.06.29.29.29,1.19,0,2.38,0,3.56,0,.33,0,.65.06.92.26.4.3.55.77.39,1.25-.16.48-.62.81-1.2.82-1.21,0-2.41,0-3.61,0q-.35,0-.35.34v2.64q0,.35.34.35c1.56,0,3.12,0,4.69,0,.57,0,1.01.3,1.17.78.24.76-.22,1.47-1.02,1.56-.14.02-.28.03-.41.03-1.92,0-3.84,0-5.76,0-.29,0-.57-.02-.83-.16-.47-.27-.64-.7-.65-1.21,0-1.78,0-3.57,0-5.35s0-3.5,0-5.25c0-.19.02-.38.07-.57.14-.49.54-.81,1.06-.86.18-.01.36-.02.54-.02m-42.71,9.06c-.64.32-1.31.49-2.02.5-.85.01-1.69,0-2.54,0-.33,0-.33,0-.33.34,0,.74,0,1.49,0,2.23-.02.95-.87,1.54-1.75,1.22-.5-.18-.8-.64-.8-1.25,0-1.54,0-3.07,0-4.61,0-.26,0-.51,0-.77,0-1.79,0-3.58,0-5.37,0-.66.36-1.15.93-1.28.18-.04.37-.06.56-.05.48,0,.95,0,1.43,0,.26,0,.53,0,.79,0,.63,0,1.26,0,1.88.02,2.39.08,4.2,1.78,4.47,4.12.21,1.87-.79,4-2.6,4.91Zm-.23-5.61c-.42-.68-1.08-.99-1.86-1.03-.51-.02-1.03-.02-1.55-.02-.32,0-.65,0-.97,0-.23,0-.29.08-.29.3.01.7,0,1.39,0,2.09s0,1.44,0,2.16c0,.17.04.26.24.26h0c.3,0,.6,0,.91,0,.48,0,.96,0,1.44-.01.6-.02,1.18-.17,1.65-.58.83-.72,1.03-2.18.42-3.15Zm7.01,4.91c-.08.22,0,.24.19.24,1.05,0,2.1,0,3.15,0,.32,0,.32,0,.21-.31-.54-1.42-1.07-2.83-1.6-4.25-.04-.11-.09-.22-.15-.37-.04.08-.06.11-.07.15-.57,1.51-1.14,3.03-1.72,4.54m1.3-8.41c.17-.07.34-.1.51-.1.48,0,.93.27,1.15.75.3.66.56,1.33.84,1.99,1.23,2.98,2.46,5.95,3.69,8.93.09.22.17.43.15.63,0,.65-.42,1.13-1.06,1.27-.56.12-1.13-.18-1.37-.75-.22-.51-.41-1.03-.59-1.55-.07-.21-.18-.28-.41-.28-1.61,0-3.22,0-4.83,0-.22,0-.33.07-.41.28-.18.51-.37,1.03-.58,1.53-.39.9-1.46,1.08-2.13.36-.39-.41-.39-.9-.19-1.39.43-1.05.86-2.09,1.29-3.13,1.05-2.54,2.1-5.08,3.15-7.62.16-.4.38-.75.81-.92m48.8-.05c-1.51.14-2.84.7-3.93,1.74-1.46,1.39-2.07,3.12-2.09,5.08-.02.61.06,1.22.21,1.81.54,2.08,1.74,3.66,3.77,4.52,2.09.89,4.18.71,6.2-.25.64-.3,1.2-.71,1.61-1.29.4-.56.32-1.13-.2-1.61-.53-.49-1.04-.52-1.62-.09-.1.07-.19.15-.28.23-.97.9-2.1,1.31-3.43,1.15-1.16-.14-2.11-.64-2.79-1.58-.91-1.25-1.06-2.67-.74-4.13.32-1.48,1.2-2.55,2.71-3.01,1.52-.46,2.92-.26,4.12.86.72.68,1.21.65,1.88-.07.03-.03.06-.06.08-.09.41-.49.42-.96.02-1.45-.29-.36-.63-.65-1.03-.87-1.16-.67-2.39-.98-3.69-.98-.27,0-.54.01-.81.04m-24.58.14c-1.53.37-2.63,1.27-3.02,2.82-.41,1.58.02,3.08,1.69,3.96.84.44,1.76.67,2.65.96.71.23,1.42.45,2.09.8.95.51.77,1.44.29,1.94-.42.45-.96.64-1.56.7-1.23.12-2.29-.28-3.2-1.09-.27-.24-.54-.49-.88-.64-.31-.14-.62-.14-.91.04-.77.49-1.17,1.26-.33,2.14.05.05.1.11.15.15,1.31,1.21,2.9,1.73,4.67,1.77.27.01.54-.02.81-.05,1.27-.16,2.39-.61,3.24-1.59,1-1.15,1.22-2.88.52-4.16-.42-.76-1.08-1.24-1.84-1.63-.82-.42-1.72-.64-2.59-.9-.66-.2-1.34-.37-1.92-.76-.71-.48-.72-1.38-.03-1.88.44-.32.94-.43,1.47-.44.97-.02,1.78.34,2.46,1.02.71.71,1.3.68,1.96-.07.04-.05.08-.1.12-.15.29-.4.3-.79.02-1.2-.2-.29-.44-.54-.72-.74-1.12-.79-2.32-1.2-3.6-1.2-.5,0-1.01.06-1.54.19m-12.15,2.33c-.21,0-.41,0-.61,0-.16,0-.31,0-.47,0-.17,0-.2.09-.2.23,0,.63,0,1.26,0,1.89s0,1.26,0,1.89c0,.14.01.25.2.25.31,0,.62,0,.94,0,.63.01,1.26.02,1.89-.04,1.03-.09,1.84-.63,1.99-1.81.16-1.25-.58-2.25-1.85-2.38-.63-.07-1.26-.05-1.89-.05m-2.47-2.35c.87,0,1.75-.03,2.62-.03.69,0,1.38.02,2.06.07,2.32.18,3.8,1.61,4.01,3.76.18,1.84-.53,3.27-2.07,4.32-.08.05-.22.09-.07.22.75.65,1.21,1.52,1.79,2.3.21.28.41.56.59.85.5.84.02,1.82-.95,1.92-.51.05-.9-.19-1.18-.59-.57-.81-1.13-1.62-1.7-2.43-.24-.34-.48-.69-.79-.97-.41-.39-.89-.61-1.47-.59-.46.02-.93.01-1.39,0-.23,0-.29.08-.28.29,0,1.01.01,2.03,0,3.05-.01.94-.93,1.52-1.81,1.14-.42-.18-.63-.51-.71-.94-.03-.17-.04-.35-.04-.53,0-1.71,0-3.42,0-5.13s0-3.41,0-5.11c0-.09,0-.19,0-.29.06-.85.5-1.3,1.37-1.31" style="fill: url(#New_Gradient_Swatch_1_copy);"/>
    </g>
  </g>
</svg>
