<svg width="624" height="424" viewBox="0 0 624 424" fill="none" xmlns="http://www.w3.org/2000/svg">
<g filter="url(#filter0_d_21708_30666)">
<g clip-path="url(#clip0_21708_30666)">
<rect x="12" y="8" width="600" height="400" rx="15.2318" fill="url(#paint0_linear_21708_30666)"/>
<mask id="mask0_21708_30666" style="mask-type:alpha" maskUnits="userSpaceOnUse" x="12" y="8" width="690" height="450">
<rect x="12" y="8" width="690" height="449.338" fill="#D9D9D9"/>
</mask>
<g mask="url(#mask0_21708_30666)">
<g filter="url(#filter1_f_21708_30666)">
<path d="M-198.96 -129.086C-198.96 -158.529 -175.092 -182.397 -145.649 -182.397H170.411C199.854 -182.397 223.722 -158.529 223.722 -129.086V207.536H-145.649C-175.092 207.536 -198.96 183.668 -198.96 154.225V-129.086Z" fill="#0058CC"/>
</g>
<g filter="url(#filter2_f_21708_30666)">
<path d="M420.212 -25.5099C420.212 -54.9529 444.08 -78.8212 473.523 -78.8212H789.583C819.026 -78.8212 842.894 -54.9529 842.894 -25.5099V517.503H473.523C444.08 517.503 420.212 493.635 420.212 464.192V-25.5099Z" fill="#338BFF"/>
</g>
<g filter="url(#filter3_f_21708_30666)">
<path d="M-19.2252 366.709C-19.2252 337.266 4.64304 313.397 34.086 313.397H350.146C379.589 313.397 403.457 337.266 403.457 366.709V703.331H34.0861C4.64309 703.331 -19.2252 679.463 -19.2252 650.02V366.709Z" fill="#66A8FF"/>
</g>
<g opacity="0.05" filter="url(#filter4_b_21708_30666)">
<mask id="mask1_21708_30666" style="mask-type:alpha" maskUnits="userSpaceOnUse" x="279" y="32" width="463" height="385">
<path d="M279.318 32.8319H741.105V416.973H279.318V32.8319Z" fill="#1B1B28"/>
</mask>
<g mask="url(#mask1_21708_30666)">
<mask id="mask2_21708_30666" style="mask-type:alpha" maskUnits="userSpaceOnUse" x="282" y="37" width="459" height="372">
<path d="M464.488 138.976C436.136 148.533 410.529 165.749 391.039 188.258C253.319 198.999 245.829 377.762 376.177 406.391C376.334 406.43 376.491 406.47 376.608 406.509C381.902 407.615 387.275 408.128 392.647 408.128H456.762C490.839 407.812 491.428 358.057 457.39 357.346H398.961C387.275 357.346 375.706 354.582 365.589 348.817C327.434 326.98 319.865 274.066 362.334 248.161C380.373 237.697 393.667 238.645 405.705 239.474C413.548 240.303 420.019 235.17 423.862 228.852C432.881 216.61 443.978 206.422 456.802 198.485C468.134 191.417 480.761 186.481 493.82 183.401C513.623 177.28 509.309 135.225 559.621 106.359C594.679 81.2446 664.009 82.9031 699.185 114.573C710.557 123.3 726.948 121.128 735.497 109.597C760.398 70.7407 680.205 41.9933 637.069 38.005C632.991 37.7681 629.07 37.6891 625.148 37.6891C544.171 37.6891 490.173 86.2201 464.488 138.976Z" fill="#1B1B28"/>
</mask>
<g mask="url(#mask2_21708_30666)">
<mask id="mask3_21708_30666" style="mask-type:alpha" maskUnits="userSpaceOnUse" x="282" y="37" width="459" height="372">
<path d="M464.488 138.976C436.136 148.533 410.529 165.749 391.039 188.258C253.319 198.999 245.829 377.762 376.177 406.391C376.334 406.43 376.491 406.47 376.608 406.509C381.902 407.615 387.275 408.128 392.647 408.128H456.762C490.839 407.812 491.428 358.057 457.39 357.346H398.961C387.275 357.346 375.706 354.582 365.589 348.817C327.434 326.98 319.865 274.066 362.334 248.161C380.373 237.697 393.667 238.645 405.705 239.474C413.548 240.303 420.019 235.17 423.862 228.852C432.881 216.61 443.978 206.422 456.802 198.485C468.134 191.417 480.761 186.481 493.82 183.401C513.623 177.28 509.309 135.225 559.621 106.359C594.679 81.2446 664.009 82.9031 699.185 114.573C710.557 123.3 726.948 121.128 735.497 109.597C760.398 70.7407 680.205 41.9933 637.069 38.005C632.991 37.7681 629.07 37.6891 625.148 37.6891C544.171 37.6891 490.173 86.2201 464.488 138.976Z" fill="#1B1B28"/>
</mask>
<g mask="url(#mask3_21708_30666)">
<path d="M245.829 37.6891H760.398V408.128H245.829V37.6891Z" fill="#E5F1FF"/>
</g>
</g>
</g>
<mask id="mask4_21708_30666" style="mask-type:alpha" maskUnits="userSpaceOnUse" x="510" y="144" width="362" height="273">
<path d="M510.212 144.031H871.61V416.973H510.212V144.031Z" fill="#1B1B28"/>
</mask>
<g mask="url(#mask4_21708_30666)">
<mask id="mask5_21708_30666" style="mask-type:alpha" maskUnits="userSpaceOnUse" x="511" y="147" width="359" height="262">
<path d="M630.129 202.039L515.663 368.916C507.702 380.526 510.761 396.281 522.447 404.179C534.133 412.077 550.054 409.076 558.014 397.466L672.48 230.628C700.401 187.665 765.575 189.245 797.613 226.363C860.944 296.85 770.869 398.848 685.774 340.84C658.442 321.57 628.796 362.598 655.893 382.105C670.441 392.451 699.185 408.602 736.909 408.602C871.257 404.455 901.374 259.889 836.004 192.759C810.554 163.103 772.516 147.94 734.792 147.94C694.048 147.94 653.697 165.67 630.129 202.039Z" fill="#1B1B28"/>
</mask>
<g mask="url(#mask5_21708_30666)">
<mask id="mask6_21708_30666" style="mask-type:alpha" maskUnits="userSpaceOnUse" x="511" y="147" width="359" height="262">
<path d="M630.129 202.039L515.663 368.916C507.702 380.526 510.761 396.281 522.447 404.179C534.133 412.077 550.054 409.076 558.014 397.466L672.48 230.628C700.401 187.665 765.575 189.245 797.613 226.363C860.944 296.85 770.869 398.848 685.774 340.84C658.442 321.57 628.796 362.598 655.893 382.105C670.441 392.451 699.185 408.602 736.909 408.602C871.257 404.455 901.374 259.889 836.004 192.759C810.554 163.103 772.516 147.94 734.792 147.94C694.048 147.94 653.697 165.67 630.129 202.039Z" fill="#1B1B28"/>
</mask>
<g mask="url(#mask6_21708_30666)">
<path d="M507.702 147.94H901.374V412.077H507.702V147.94Z" fill="#E5F1FF"/>
</g>
</g>
</g>
</g>
<path d="M296.936 178.51C300.374 171.472 307.628 165 318.509 165C319.035 165 319.561 165.013 320.114 165.04C325.911 165.566 336.685 169.409 333.341 174.587C332.195 176.124 329.983 176.42 328.46 175.247C323.727 171.027 314.424 170.798 309.704 174.142C302.949 177.998 303.529 183.607 300.873 184.416C299.12 184.821 297.421 185.481 295.898 186.425C294.172 187.49 292.688 188.852 291.475 190.484C290.963 191.333 290.1 192.021 289.034 191.899C287.416 191.791 285.637 191.657 283.21 193.059C277.506 196.511 278.517 203.576 283.641 206.475C285.003 207.243 286.554 207.621 288.131 207.621H295.978C300.549 207.715 300.468 214.349 295.898 214.39H287.282C286.554 214.39 285.839 214.322 285.124 214.174C285.111 214.174 285.084 214.174 285.057 214.16C267.555 210.331 268.553 186.492 287.052 185.063C289.668 182.056 293.12 179.764 296.922 178.483M319.17 186.897L303.799 209.158C302.734 210.709 303.138 212.812 304.702 213.864C306.266 214.915 308.41 214.511 309.489 212.974L324.86 190.713C328.608 184.982 337.359 185.198 341.66 190.146C350.168 199.544 338.073 213.149 326.64 205.41C322.972 202.848 318.981 208.309 322.622 210.911C324.577 212.286 328.433 214.443 333.503 214.443C351.543 213.891 355.588 194.609 346.811 185.657C343.399 181.706 338.289 179.683 333.219 179.683C327.745 179.683 322.325 182.043 319.156 186.897" fill="white"/>
<path d="M340.581 225.054C342.321 225.054 344.06 225.054 345.799 225.054H351.017C351.435 225.054 351.867 225.054 352.271 225.162C353.417 225.459 354.065 226.402 353.957 227.602C353.876 228.668 353.04 229.477 351.894 229.598C351.503 229.625 351.112 229.652 350.721 229.652C348.065 229.652 345.395 229.652 342.725 229.652C342.253 229.652 342.105 229.787 342.105 230.259C342.132 231.809 342.132 233.36 342.105 234.924C342.105 235.342 342.213 235.49 342.658 235.477C344.95 235.463 347.229 235.477 349.521 235.477C350.155 235.477 350.761 235.598 351.287 235.989C352.056 236.555 352.339 237.486 352.042 238.389C351.746 239.319 350.842 239.953 349.737 239.967C347.417 239.98 345.098 239.967 342.779 239.967C342.33 239.967 342.105 240.182 342.105 240.614V245.697C342.105 246.146 342.325 246.371 342.766 246.371C345.772 246.371 348.779 246.371 351.786 246.371C352.892 246.371 353.728 246.951 354.024 247.881C354.496 249.338 353.606 250.699 352.056 250.875C351.786 250.902 351.53 250.929 351.26 250.929C347.566 250.929 343.871 250.929 340.177 250.929C339.624 250.929 339.085 250.902 338.586 250.618C337.682 250.093 337.345 249.27 337.345 248.286C337.345 244.848 337.345 241.423 337.345 237.985C337.345 234.546 337.345 231.243 337.345 227.872C337.345 227.495 337.386 227.13 337.48 226.78C337.763 225.836 338.518 225.216 339.516 225.121C339.853 225.094 340.204 225.067 340.541 225.067M258.333 242.501C257.106 243.108 255.811 243.445 254.45 243.459C252.818 243.486 251.187 243.459 249.555 243.459C248.921 243.459 248.921 243.459 248.921 244.106C248.921 245.535 248.935 246.978 248.921 248.407C248.894 250.241 247.249 251.36 245.551 250.74C244.58 250.389 244.013 249.499 244 248.326C244 245.373 244 242.421 244 239.454C244 238.955 244 238.47 244 237.971C244 234.519 244 231.068 244 227.629C244 226.362 244.688 225.418 245.793 225.162C246.144 225.081 246.508 225.054 246.872 225.054C247.789 225.054 248.706 225.054 249.623 225.054C250.121 225.054 250.634 225.054 251.133 225.054C252.346 225.054 253.546 225.054 254.76 225.108C259.358 225.256 262.85 228.546 263.362 233.036C263.767 236.636 261.852 240.735 258.346 242.488L258.333 242.501ZM257.874 231.701C257.052 230.393 255.798 229.787 254.301 229.706C253.317 229.652 252.319 229.665 251.321 229.665C250.701 229.665 250.081 229.665 249.461 229.665C249.016 229.665 248.908 229.827 248.908 230.232C248.935 231.566 248.908 232.915 248.908 234.25C248.908 235.585 248.908 237.027 248.908 238.403C248.908 238.74 248.989 238.901 249.366 238.901H249.38C249.96 238.901 250.539 238.901 251.119 238.901C252.036 238.901 252.966 238.901 253.883 238.874C255.043 238.834 256.149 238.537 257.052 237.769C258.656 236.38 259.02 233.576 257.861 231.701H257.874ZM271.358 241.14C271.196 241.558 271.358 241.598 271.722 241.598C273.744 241.598 275.753 241.598 277.776 241.598C278.383 241.598 278.396 241.585 278.167 241.005C277.142 238.281 276.104 235.558 275.079 232.82C274.998 232.618 274.917 232.402 274.796 232.119C274.715 232.268 274.688 232.335 274.661 232.402C273.556 235.315 272.463 238.227 271.344 241.14M273.852 224.946C274.176 224.825 274.499 224.757 274.823 224.757C275.753 224.757 276.616 225.283 277.034 226.2C277.601 227.468 278.113 228.762 278.652 230.043C281.025 235.773 283.398 241.504 285.758 247.234C285.933 247.652 286.095 248.07 286.055 248.448C286.055 249.688 285.246 250.618 284.005 250.888C282.926 251.117 281.834 250.538 281.362 249.432C280.944 248.461 280.58 247.45 280.216 246.452C280.081 246.048 279.866 245.913 279.434 245.913C276.333 245.926 273.232 245.926 270.131 245.913C269.699 245.913 269.484 246.048 269.349 246.452C268.998 247.436 268.634 248.421 268.23 249.391C267.488 251.131 265.425 251.468 264.117 250.079C263.376 249.284 263.362 248.353 263.753 247.409C264.576 245.387 265.412 243.391 266.248 241.382C268.27 236.488 270.293 231.607 272.315 226.712C272.625 225.944 273.043 225.283 273.866 224.946M367.791 224.838C364.892 225.121 362.33 226.187 360.227 228.182C357.422 230.852 356.249 234.182 356.209 237.958C356.168 239.144 356.316 240.304 356.613 241.436C357.651 245.454 359.97 248.475 363.881 250.133C367.912 251.845 371.917 251.508 375.827 249.648C377.054 249.068 378.146 248.286 378.942 247.167C379.71 246.088 379.562 244.996 378.564 244.066C377.553 243.122 376.555 243.068 375.449 243.89C375.261 244.025 375.085 244.173 374.91 244.335C373.049 246.061 370.865 246.843 368.303 246.546C366.065 246.277 364.245 245.32 362.937 243.513C361.184 241.099 360.901 238.376 361.508 235.571C362.128 232.726 363.827 230.663 366.712 229.773C369.625 228.883 372.335 229.261 374.64 231.432C376.029 232.74 376.959 232.686 378.267 231.297C378.321 231.243 378.375 231.175 378.429 231.122C379.225 230.178 379.238 229.288 378.456 228.317C377.903 227.629 377.243 227.077 376.474 226.632C374.249 225.351 371.876 224.744 369.368 224.744C368.856 224.744 368.33 224.771 367.804 224.825M320.491 225.094C317.538 225.809 315.435 227.535 314.666 230.515C313.884 233.562 314.707 236.447 317.929 238.146C319.547 238.996 321.314 239.441 323.026 240.007C324.388 240.452 325.763 240.87 327.044 241.544C328.878 242.528 328.514 244.308 327.597 245.279C326.788 246.142 325.75 246.52 324.59 246.627C322.217 246.857 320.181 246.088 318.442 244.537C317.916 244.079 317.403 243.594 316.756 243.297C316.149 243.027 315.556 243.027 315.003 243.378C313.52 244.322 312.765 245.791 314.356 247.504C314.451 247.598 314.545 247.706 314.653 247.8C317.174 250.133 320.235 251.117 323.633 251.212C324.159 251.225 324.671 251.185 325.183 251.117C327.624 250.821 329.781 249.944 331.413 248.057C333.341 245.845 333.759 242.515 332.424 240.061C331.628 238.605 330.334 237.674 328.878 236.933C327.3 236.124 325.574 235.706 323.889 235.194C322.621 234.802 321.314 234.479 320.208 233.724C318.846 232.807 318.833 231.068 320.154 230.097C320.99 229.477 321.974 229.261 322.986 229.247C324.86 229.207 326.424 229.908 327.732 231.216C329.094 232.578 330.226 232.524 331.507 231.095C331.588 231 331.669 230.906 331.736 230.798C332.289 230.016 332.316 229.274 331.777 228.479C331.399 227.926 330.927 227.441 330.388 227.05C328.231 225.526 325.925 224.744 323.457 224.744C322.487 224.744 321.502 224.865 320.491 225.108M297.111 229.598C296.72 229.598 296.329 229.598 295.924 229.598C295.628 229.598 295.318 229.598 295.021 229.598C294.684 229.598 294.644 229.76 294.644 230.029C294.644 231.243 294.644 232.456 294.644 233.67C294.644 234.883 294.644 236.097 294.644 237.31C294.644 237.58 294.67 237.796 295.035 237.796C295.628 237.796 296.235 237.796 296.841 237.809C298.055 237.823 299.268 237.85 300.482 237.742C302.477 237.567 304.014 236.528 304.325 234.25C304.635 231.85 303.205 229.922 300.765 229.679C299.551 229.557 298.338 229.571 297.138 229.584M292.392 225.054C294.077 225.041 295.763 224.987 297.448 224.987C298.769 224.987 300.091 225.014 301.412 225.121C305.875 225.459 308.734 228.223 309.138 232.362C309.489 235.895 308.113 238.659 305.161 240.681C304.999 240.789 304.743 240.857 305.026 241.113C306.468 242.367 307.358 244.039 308.477 245.535C308.882 246.061 309.273 246.6 309.61 247.167C310.581 248.771 309.651 250.672 307.776 250.875C306.792 250.983 306.05 250.511 305.511 249.742C304.419 248.191 303.327 246.627 302.235 245.063C301.776 244.403 301.318 243.742 300.725 243.189C299.929 242.448 299.026 242.016 297.893 242.057C297.003 242.084 296.113 242.084 295.223 242.057C294.778 242.043 294.67 242.205 294.67 242.609C294.684 244.564 294.684 246.52 294.67 248.475C294.657 250.295 292.891 251.387 291.192 250.672C290.383 250.322 289.978 249.688 289.83 248.866C289.776 248.529 289.763 248.191 289.763 247.854C289.763 244.564 289.763 241.261 289.763 237.971C289.763 234.681 289.763 231.418 289.763 228.128C289.763 227.953 289.763 227.764 289.763 227.575C289.884 225.944 290.733 225.081 292.392 225.067" fill="white"/>
</g>
</g>
</g>
<defs>
<filter id="filter0_d_21708_30666" x="0" y="0" width="624" height="424" filterUnits="userSpaceOnUse" color-interpolation-filters="sRGB">
<feFlood flood-opacity="0" result="BackgroundImageFix"/>
<feColorMatrix in="SourceAlpha" type="matrix" values="0 0 0 0 0 0 0 0 0 0 0 0 0 0 0 0 0 0 127 0" result="hardAlpha"/>
<feOffset dy="4"/>
<feGaussianBlur stdDeviation="6"/>
<feComposite in2="hardAlpha" operator="out"/>
<feColorMatrix type="matrix" values="0 0 0 0 0 0 0 0 0 0 0 0 0 0 0 0 0 0 0.08 0"/>
<feBlend mode="normal" in2="BackgroundImageFix" result="effect1_dropShadow_21708_30666"/>
<feBlend mode="normal" in="SourceGraphic" in2="effect1_dropShadow_21708_30666" result="shape"/>
</filter>
<filter id="filter1_f_21708_30666" x="-561.477" y="-544.914" width="1147.72" height="1114.97" filterUnits="userSpaceOnUse" color-interpolation-filters="sRGB">
<feFlood flood-opacity="0" result="BackgroundImageFix"/>
<feBlend mode="normal" in="SourceGraphic" in2="BackgroundImageFix" result="shape"/>
<feGaussianBlur stdDeviation="181.258" result="effect1_foregroundBlur_21708_30666"/>
</filter>
<filter id="filter2_f_21708_30666" x="179.55" y="-319.483" width="904.007" height="1077.65" filterUnits="userSpaceOnUse" color-interpolation-filters="sRGB">
<feFlood flood-opacity="0" result="BackgroundImageFix"/>
<feBlend mode="normal" in="SourceGraphic" in2="BackgroundImageFix" result="shape"/>
<feGaussianBlur stdDeviation="120.331" result="effect1_foregroundBlur_21708_30666"/>
</filter>
<filter id="filter3_f_21708_30666" x="-314.722" y="17.9008" width="1013.68" height="980.927" filterUnits="userSpaceOnUse" color-interpolation-filters="sRGB">
<feFlood flood-opacity="0" result="BackgroundImageFix"/>
<feBlend mode="normal" in="SourceGraphic" in2="BackgroundImageFix" result="shape"/>
<feGaussianBlur stdDeviation="147.748" result="effect1_foregroundBlur_21708_30666"/>
</filter>
<filter id="filter4_b_21708_30666" x="245.808" y="-2.66228" width="661.821" height="453.146" filterUnits="userSpaceOnUse" color-interpolation-filters="sRGB">
<feFlood flood-opacity="0" result="BackgroundImageFix"/>
<feGaussianBlur in="BackgroundImageFix" stdDeviation="16.755"/>
<feComposite in2="SourceAlpha" operator="in" result="effect1_backgroundBlur_21708_30666"/>
<feBlend mode="normal" in="SourceGraphic" in2="effect1_backgroundBlur_21708_30666" result="shape"/>
</filter>
<linearGradient id="paint0_linear_21708_30666" x1="3.39073" y1="1.55932" x2="620.44" y2="394.755" gradientUnits="userSpaceOnUse">
<stop stop-color="#1888FF"/>
<stop offset="1" stop-color="#0058CC"/>
</linearGradient>
<clipPath id="clip0_21708_30666">
<rect x="12" y="8" width="600" height="400" rx="15.2318" fill="white"/>
</clipPath>
</defs>
</svg>
