<svg xmlns="http://www.w3.org/2000/svg" width="32" height="32" viewBox="0 0 32 32"><path fill="none" d="M0 0h24v24H0V0z"/><path fill="#0b419b" d="M 16 0 A 16 16 0 0 0 0 16 A 16 16 0 0 0 16 32 A 16 16 0 0 0 32 16 A 16 16 0 0 0 16 0 z M 16 5.5 C 16.83 5.5 17.5 6.17 17.5 7 L 17.5 8.1699219 C 20.64 8.8499219 23 11.65 23 15 L 23 21 L 25 23 L 25 24 L 7 24 L 7 23 L 9 21 L 9 15 C 9 11.65 11.36 8.8499219 14.5 8.1699219 L 14.5 7 C 14.5 6.17 15.17 5.5 16 5.5 z M 16 10 C 13.24 10 11 12.24 11 15 L 11 22 L 21 22 L 21 15 C 21 12.24 18.76 10 16 10 z M 14.009766 25.009766 L 17.990234 25.009766 C 17.990234 26.109766 17.1 27 16 27 C 14.9 27 14.009766 26.109766 14.009766 25.009766 z "/></svg>
