<svg width="266" height="103" viewBox="0 0 266 103" fill="none" xmlns="http://www.w3.org/2000/svg">
<rect width="265.721" height="102.2" fill="white"/>
<g filter="url(#filter0_dd_82_6259)">
<path d="M35 34.6188C35 29.3065 39.3065 25 44.6188 25H220.857C226.169 25 230.475 29.3065 230.475 34.6188V67.2377C230.475 72.55 226.169 76.8565 220.857 76.8565H44.6188C39.3065 76.8565 35 72.55 35 67.2377V34.6188Z" fill="url(#paint0_linear_82_6259)" shape-rendering="crispEdges"/>
<path d="M60.8155 43.9623C62.2775 43.9623 63.5344 44.2381 64.586 44.7896C65.6505 45.341 66.4713 46.1234 67.0485 47.1365C67.6384 48.1497 67.9334 49.3553 67.9334 50.7532C67.9334 52.1383 67.6384 53.3311 67.0485 54.3314C66.4713 55.319 65.6505 56.0821 64.586 56.6207C63.5344 57.1594 62.2775 57.4287 60.8155 57.4287H56.1984V43.9623H60.8155ZM60.8155 55.8127C62.5084 55.8127 63.7909 55.3703 64.663 54.4853C65.5479 53.5876 65.9904 52.3435 65.9904 50.7532C65.9904 49.1373 65.5479 47.874 64.663 46.9634C63.7909 46.04 62.5084 45.5783 60.8155 45.5783H58.1222V55.8127H60.8155ZM74.5322 57.5634C73.6216 57.5634 72.8008 57.3646 72.0698 56.967C71.3516 56.5566 70.7873 55.9859 70.3769 55.2549C69.9665 54.511 69.7613 53.6389 69.7613 52.6385C69.7613 51.6253 69.9729 50.7468 70.3961 50.003C70.8194 49.2591 71.3965 48.6884 72.1275 48.2908C72.8585 47.8804 73.6794 47.6752 74.5899 47.6752C75.5005 47.6752 76.3213 47.8804 77.0524 48.2908C77.7962 48.6884 78.3798 49.2591 78.803 50.003C79.2262 50.734 79.4378 51.5997 79.4378 52.6001C79.4378 53.6132 79.2198 54.4918 78.7838 55.2356C78.3605 55.9795 77.777 56.5566 77.0331 56.967C76.2893 57.3646 75.4556 57.5634 74.5322 57.5634ZM74.513 55.9089C75.026 55.9089 75.5069 55.7935 75.9558 55.5627C76.4047 55.319 76.7702 54.9535 77.0524 54.4661C77.3473 53.9788 77.4948 53.3567 77.4948 52.6001C77.4948 51.8562 77.3538 51.247 77.0716 50.7725C76.8023 50.2851 76.4432 49.926 75.9943 49.6952C75.5454 49.4515 75.0645 49.3296 74.5515 49.3296C74.0513 49.3296 73.5832 49.4515 73.1471 49.6952C72.7239 49.926 72.3776 50.2851 72.1083 50.7725C71.8389 51.2598 71.7043 51.8818 71.7043 52.6385C71.7043 53.3824 71.8325 53.998 72.089 54.4853C72.3584 54.9599 72.7046 55.319 73.1279 55.5627C73.5511 55.7935 74.0128 55.9089 74.513 55.9089ZM85.5285 57.4287H83.7971L80.7768 47.8099H82.6236L84.6436 55.2741L86.7982 47.8099H88.5296L90.6073 55.2356L92.608 47.8099H94.3971L91.4152 57.4287H89.6646L87.6062 50.4454L85.5285 57.4287ZM96.4817 47.8099H98.1361L98.2515 48.9257C98.5593 48.5281 98.9505 48.2203 99.425 48.0022C99.8996 47.7842 100.425 47.6752 101.003 47.6752C101.746 47.6752 102.388 47.8355 102.926 48.1561C103.478 48.4639 103.901 48.9257 104.196 49.5413C104.504 50.1569 104.658 50.9264 104.658 51.8498V57.4287H102.849V52.0806C102.849 51.1829 102.657 50.5031 102.272 50.0414C101.9 49.5669 101.355 49.3296 100.637 49.3296C99.8932 49.3296 99.316 49.5733 98.9056 50.0607C98.4952 50.5352 98.29 51.2406 98.29 52.1768V57.4287H96.4817V47.8099ZM107.506 43.5776H109.314V57.4287H107.506V43.5776ZM116.524 57.5634C115.614 57.5634 114.793 57.3646 114.062 56.967C113.344 56.5566 112.78 55.9859 112.369 55.2549C111.959 54.511 111.754 53.6389 111.754 52.6385C111.754 51.6253 111.965 50.7468 112.388 50.003C112.812 49.2591 113.389 48.6884 114.12 48.2908C114.851 47.8804 115.672 47.6752 116.582 47.6752C117.493 47.6752 118.314 47.8804 119.045 48.2908C119.788 48.6884 120.372 49.2591 120.795 50.003C121.218 50.734 121.43 51.5997 121.43 52.6001C121.43 53.6132 121.212 54.4918 120.776 55.2356C120.353 55.9795 119.769 56.5566 119.025 56.967C118.282 57.3646 117.448 57.5634 116.524 57.5634ZM116.505 55.9089C117.018 55.9089 117.499 55.7935 117.948 55.5627C118.397 55.319 118.762 54.9535 119.045 54.4661C119.34 53.9788 119.487 53.3567 119.487 52.6001C119.487 51.8562 119.346 51.247 119.064 50.7725C118.795 50.2851 118.435 49.926 117.987 49.6952C117.538 49.4515 117.057 49.3296 116.544 49.3296C116.044 49.3296 115.575 49.4515 115.139 49.6952C114.716 49.926 114.37 50.2851 114.101 50.7725C113.831 51.2598 113.697 51.8818 113.697 52.6385C113.697 53.3824 113.825 53.998 114.081 54.4853C114.351 54.9599 114.697 55.319 115.12 55.5627C115.543 55.7935 116.005 55.9089 116.505 55.9089ZM129.748 57.4287L129.594 56.0244C129.299 56.5117 128.914 56.8901 128.44 57.1594C127.978 57.4159 127.375 57.5441 126.631 57.5441C125.939 57.5441 125.349 57.4351 124.861 57.2171C124.374 56.9862 123.996 56.672 123.726 56.2744C123.47 55.864 123.342 55.3895 123.342 54.8509C123.342 54.0429 123.643 53.376 124.246 52.8501C124.849 52.3115 125.721 51.978 126.862 51.8498L129.594 51.542V50.7917C129.594 50.3813 129.427 50.035 129.094 49.7529C128.76 49.4579 128.279 49.3104 127.651 49.3104C127.061 49.3104 126.561 49.4515 126.15 49.7336C125.74 50.003 125.464 50.407 125.323 50.9456L123.707 50.3685C123.951 49.522 124.425 48.8615 125.131 48.387C125.849 47.9125 126.715 47.6752 127.728 47.6752C128.933 47.6752 129.85 47.9766 130.479 48.5794C131.107 49.1822 131.422 49.9773 131.422 50.9648V57.4287H129.748ZM129.594 53.0233L126.958 53.3503C126.394 53.4273 125.971 53.5876 125.689 53.8313C125.407 54.0621 125.265 54.3699 125.265 54.7547C125.265 55.1138 125.4 55.4152 125.669 55.6588C125.952 55.8897 126.343 56.0051 126.843 56.0051C127.459 56.0051 127.972 55.8897 128.382 55.6588C128.792 55.428 129.094 55.1074 129.286 54.697C129.491 54.2737 129.594 53.7864 129.594 53.2349V53.0233ZM141.518 49.4451L141.307 49.5028V43.5776H143.134V57.4287H141.48L141.345 55.9859C141.025 56.4219 140.588 56.7939 140.037 57.1017C139.498 57.4095 138.838 57.5634 138.056 57.5634C137.183 57.5634 136.42 57.3582 135.766 56.9478C135.125 56.5374 134.618 55.9602 134.246 55.2164C133.887 54.4725 133.708 53.6068 133.708 52.6193C133.708 51.6318 133.887 50.7661 134.246 50.0222C134.618 49.2783 135.125 48.7012 135.766 48.2908C136.42 47.8804 137.183 47.6752 138.056 47.6752C138.889 47.6752 139.595 47.8483 140.172 48.1946C140.762 48.5281 141.21 48.9449 141.518 49.4451ZM135.651 52.6193C135.651 53.6068 135.907 54.402 136.42 55.0048C136.933 55.6075 137.619 55.9089 138.479 55.9089C139.005 55.9089 139.479 55.7807 139.902 55.5242C140.326 55.2677 140.665 54.8957 140.922 54.4084C141.178 53.9082 141.307 53.3118 141.307 52.6193C141.307 51.9267 141.178 51.3368 140.922 50.8494C140.665 50.3621 140.326 49.9901 139.902 49.7336C139.479 49.4643 139.005 49.3296 138.479 49.3296C137.632 49.3296 136.946 49.631 136.42 50.2338C135.907 50.8366 135.651 51.6318 135.651 52.6193ZM156.904 50.3685C157.533 50.3685 158.046 50.2723 158.443 50.0799C158.854 49.8747 159.155 49.5926 159.348 49.2335C159.54 48.8744 159.636 48.4575 159.636 47.983C159.636 47.2263 159.418 46.6364 158.982 46.2131C158.546 45.7899 157.853 45.5783 156.904 45.5783H153.807V50.3685H156.904ZM161.56 47.983C161.56 48.4704 161.477 48.9577 161.31 49.4451C161.143 49.9196 160.874 50.3492 160.502 50.734C160.13 51.1188 159.643 51.4266 159.04 51.6574C158.45 51.8754 157.738 51.9844 156.904 51.9844H153.807V57.4287H151.883V43.9623H156.904C157.956 43.9623 158.822 44.1483 159.501 44.5202C160.194 44.8793 160.707 45.3667 161.04 45.9823C161.387 46.5851 161.56 47.252 161.56 47.983ZM168.997 57.4287L168.843 56.0244C168.548 56.5117 168.164 56.8901 167.689 57.1594C167.227 57.4159 166.625 57.5441 165.881 57.5441C165.188 57.5441 164.598 57.4351 164.111 57.2171C163.623 56.9862 163.245 56.672 162.976 56.2744C162.719 55.864 162.591 55.3895 162.591 54.8509C162.591 54.0429 162.892 53.376 163.495 52.8501C164.098 52.3115 164.97 51.978 166.112 51.8498L168.843 51.542V50.7917C168.843 50.3813 168.677 50.035 168.343 49.7529C168.01 49.4579 167.529 49.3104 166.9 49.3104C166.31 49.3104 165.81 49.4515 165.4 49.7336C164.989 50.003 164.714 50.407 164.573 50.9456L162.957 50.3685C163.2 49.522 163.675 48.8615 164.38 48.387C165.098 47.9125 165.964 47.6752 166.977 47.6752C168.183 47.6752 169.1 47.9766 169.728 48.5794C170.357 49.1822 170.671 49.9773 170.671 50.9648V57.4287H168.997ZM168.843 53.0233L166.208 53.3503C165.643 53.4273 165.22 53.5876 164.938 53.8313C164.656 54.0621 164.515 54.3699 164.515 54.7547C164.515 55.1138 164.65 55.4152 164.919 55.6588C165.201 55.8897 165.592 56.0051 166.092 56.0051C166.708 56.0051 167.221 55.8897 167.631 55.6588C168.042 55.428 168.343 55.1074 168.536 54.697C168.741 54.2737 168.843 53.7864 168.843 53.2349V53.0233ZM173.515 47.8099H175.17L175.285 49.0988C175.554 48.7653 175.862 48.4896 176.208 48.2716C176.567 48.0407 176.952 47.8804 177.363 47.7906C177.786 47.7009 178.222 47.7073 178.671 47.8099V49.522C178.248 49.4194 177.837 49.4066 177.44 49.4835C177.042 49.5605 176.683 49.7272 176.362 49.9837C176.054 50.2274 175.804 50.5544 175.612 50.9648C175.42 51.3753 175.323 51.869 175.323 52.4462V57.4287H173.515V47.8099ZM181.822 54.3892C181.911 54.7739 182.065 55.0753 182.283 55.2933C182.501 55.5114 182.758 55.6717 183.053 55.7743C183.361 55.864 183.681 55.9089 184.015 55.9089C184.592 55.9089 185.041 55.7935 185.361 55.5627C185.682 55.3318 185.842 55.0432 185.842 54.697C185.842 54.402 185.74 54.1711 185.534 54.0044C185.342 53.8249 185.079 53.6838 184.746 53.5812C184.425 53.4786 184.079 53.3824 183.707 53.2926C183.373 53.2028 183.008 53.1002 182.61 52.9848C182.226 52.8694 181.86 52.7155 181.514 52.5231C181.18 52.3179 180.905 52.0614 180.687 51.7536C180.468 51.433 180.359 51.029 180.359 50.5416C180.359 49.9645 180.513 49.4643 180.821 49.0411C181.142 48.605 181.578 48.2716 182.129 48.0407C182.694 47.797 183.328 47.6752 184.034 47.6752C184.855 47.6752 185.573 47.8548 186.188 48.2139C186.817 48.5601 187.272 49.086 187.554 49.7914L185.919 50.33C185.829 50.0863 185.682 49.8875 185.477 49.7336C185.271 49.5797 185.034 49.4771 184.765 49.4258C184.508 49.3617 184.252 49.3296 183.995 49.3296C183.508 49.3296 183.104 49.4258 182.783 49.6182C182.463 49.8106 182.302 50.0927 182.302 50.4647C182.302 50.6699 182.354 50.843 182.456 50.9841C182.559 51.1123 182.7 51.2214 182.88 51.3111C183.072 51.3881 183.296 51.4586 183.553 51.5227C183.809 51.5869 184.085 51.6574 184.38 51.7344C184.765 51.8498 185.156 51.978 185.554 52.1191C185.951 52.2474 186.317 52.4141 186.65 52.6193C186.984 52.8245 187.253 53.0938 187.458 53.4273C187.663 53.7607 187.772 54.1711 187.785 54.6585C187.785 55.2228 187.625 55.723 187.304 56.159C186.996 56.5951 186.554 56.9414 185.977 57.1979C185.413 57.4415 184.739 57.5634 183.957 57.5634C183.008 57.5634 182.2 57.3518 181.533 56.9285C180.866 56.5053 180.417 55.8512 180.186 54.9663L181.822 54.3892ZM194.402 57.5634C193.479 57.5634 192.658 57.3518 191.94 56.9285C191.235 56.4925 190.677 55.8961 190.266 55.1394C189.869 54.3827 189.67 53.517 189.67 52.5423C189.67 51.6061 189.869 50.7725 190.266 50.0414C190.664 49.3104 191.209 48.7333 191.901 48.31C192.607 47.8868 193.402 47.6752 194.287 47.6752C195.185 47.6752 195.98 47.874 196.672 48.2716C197.365 48.6563 197.904 49.2014 198.288 49.9068C198.673 50.5993 198.859 51.4009 198.846 52.3115C198.846 52.4654 198.84 52.6257 198.827 52.7924C198.814 52.9463 198.795 53.1195 198.769 53.3118H191.651C191.69 53.8249 191.831 54.2801 192.075 54.6777C192.331 55.0625 192.652 55.3639 193.037 55.5819C193.434 55.7999 193.883 55.9089 194.383 55.9089C195.024 55.9089 195.582 55.7871 196.057 55.5434C196.531 55.2869 196.865 54.947 197.057 54.5238L198.635 55.0817C198.25 55.864 197.686 56.4732 196.942 56.9093C196.211 57.3453 195.364 57.5634 194.402 57.5634ZM196.865 51.7536C196.865 51.2919 196.749 50.8751 196.519 50.5031C196.288 50.1312 195.973 49.8427 195.576 49.6374C195.191 49.4194 194.755 49.3104 194.268 49.3104C193.832 49.3104 193.428 49.4194 193.056 49.6374C192.697 49.8427 192.389 50.1312 192.132 50.5031C191.889 50.8622 191.735 51.2791 191.671 51.7536H196.865ZM205.425 57.5634C204.502 57.5634 203.687 57.3582 202.982 56.9478C202.277 56.5245 201.725 55.9474 201.327 55.2164C200.943 54.4853 200.75 53.6325 200.75 52.6578C200.75 51.6702 200.949 50.8045 201.347 50.0607C201.744 49.3168 202.296 48.7333 203.001 48.31C203.707 47.8868 204.527 47.6752 205.464 47.6752C206.451 47.6752 207.317 47.9061 208.061 48.3678C208.817 48.8295 209.362 49.4515 209.696 50.2338L208.061 50.8109C207.868 50.3621 207.541 50.003 207.08 49.7336C206.631 49.4643 206.118 49.3296 205.541 49.3296C204.951 49.3296 204.444 49.4707 204.021 49.7529C203.598 50.0222 203.27 50.407 203.04 50.9071C202.809 51.3945 202.693 51.9716 202.693 52.6385C202.693 53.6389 202.95 54.434 203.463 55.024C203.976 55.614 204.668 55.9089 205.541 55.9089C206.118 55.9089 206.631 55.7807 207.08 55.5242C207.541 55.2677 207.888 54.915 208.118 54.4661L209.734 55.0432C209.375 55.8127 208.811 56.4284 208.041 56.8901C207.272 57.3389 206.4 57.5634 205.425 57.5634Z" fill="#FCFCFC"/>
</g>
<defs>
<filter id="filter0_dd_82_6259" x="28.9882" y="22.5953" width="207.499" height="63.88" filterUnits="userSpaceOnUse" color-interpolation-filters="sRGB">
<feFlood flood-opacity="0" result="BackgroundImageFix"/>
<feColorMatrix in="SourceAlpha" type="matrix" values="0 0 0 0 0 0 0 0 0 0 0 0 0 0 0 0 0 0 127 0" result="hardAlpha"/>
<feOffset dy="1.20236"/>
<feGaussianBlur stdDeviation="0.601178"/>
<feComposite in2="hardAlpha" operator="out"/>
<feColorMatrix type="matrix" values="0 0 0 0 0 0 0 0 0 0 0 0 0 0 0 0 0 0 0.04 0"/>
<feBlend mode="normal" in2="BackgroundImageFix" result="effect1_dropShadow_82_6259"/>
<feColorMatrix in="SourceAlpha" type="matrix" values="0 0 0 0 0 0 0 0 0 0 0 0 0 0 0 0 0 0 127 0" result="hardAlpha"/>
<feOffset dy="3.60707"/>
<feGaussianBlur stdDeviation="3.00589"/>
<feComposite in2="hardAlpha" operator="out"/>
<feColorMatrix type="matrix" values="0 0 0 0 0 0 0 0 0 0 0 0 0 0 0 0 0 0 0.02 0"/>
<feBlend mode="normal" in2="effect1_dropShadow_82_6259" result="effect2_dropShadow_82_6259"/>
<feBlend mode="normal" in="SourceGraphic" in2="effect2_dropShadow_82_6259" result="shape"/>
</filter>
<linearGradient id="paint0_linear_82_6259" x1="32.1952" y1="24.165" x2="111.497" y2="151.155" gradientUnits="userSpaceOnUse">
<stop stop-color="#338BFF"/>
<stop offset="1" stop-color="#0058CC"/>
</linearGradient>
</defs>
</svg>
