<svg width="266" height="103" viewBox="0 0 266 103" fill="none" xmlns="http://www.w3.org/2000/svg">
<rect width="265.721" height="102.2" fill="white"/>
<g filter="url(#filter0_ddd_82_6253)">
<path d="M27.6542 34.8679C27.6542 29.5555 31.9607 25.249 37.273 25.249H229.511C234.823 25.249 239.13 29.5555 239.13 34.8679V67.4867C239.13 72.7991 234.823 77.1055 229.511 77.1055H37.273C31.9607 77.1055 27.6542 72.799 27.6542 67.4867V34.8679Z" fill="url(#paint0_linear_82_6253)" shape-rendering="crispEdges"/>
<path d="M47.7477 44.2114H58.0783V45.8273H53.8845V57.6777H51.9608V45.8273H47.7477V44.2114ZM64.3894 43.8074V45.2694L60.6765 47.174V45.9235L64.3894 43.8074ZM62.7541 57.8124C61.8307 57.8124 61.0099 57.6008 60.2917 57.1776C59.5863 56.7415 59.0284 56.1451 58.618 55.3884C58.2205 54.6318 58.0217 53.7661 58.0217 52.7914C58.0217 51.8551 58.2205 51.0215 58.618 50.2905C59.0156 49.5594 59.5607 48.9823 60.2532 48.5591C60.9586 48.1358 61.7538 47.9242 62.6387 47.9242C63.5365 47.9242 64.3316 48.123 65.0242 48.5206C65.7168 48.9054 66.2554 49.4504 66.6402 50.1558C67.0249 50.8484 67.2109 51.6499 67.1981 52.5605C67.1981 52.7144 67.1916 52.8747 67.1788 53.0415C67.166 53.1954 67.1468 53.3685 67.1211 53.5609H60.0032C60.0416 54.0739 60.1827 54.5292 60.4264 54.9267C60.6829 55.3115 61.0035 55.6129 61.3883 55.8309C61.7859 56.0489 62.2347 56.158 62.7349 56.158C63.3762 56.158 63.9341 56.0361 64.4086 55.7924C64.8831 55.5359 65.2166 55.1961 65.4089 54.7728L66.9864 55.3307C66.6017 56.1131 66.0374 56.7223 65.2935 57.1583C64.5625 57.5944 63.716 57.8124 62.7541 57.8124ZM65.2166 52.0026C65.2166 51.5409 65.1011 51.1241 64.8703 50.7522C64.6394 50.3802 64.3252 50.0917 63.9276 49.8865C63.5429 49.6684 63.1068 49.5594 62.6195 49.5594C62.1834 49.5594 61.7794 49.6684 61.4075 49.8865C61.0484 50.0917 60.7406 50.3802 60.4841 50.7522C60.2404 51.1113 60.0865 51.5281 60.0224 52.0026H65.2166ZM69.66 43.8266H71.4684V57.6777H69.66V43.8266ZM80.2755 43.8074V45.2694L76.5626 47.174V45.9235L80.2755 43.8074ZM78.6403 57.8124C77.7169 57.8124 76.8961 57.6008 76.1778 57.1776C75.4725 56.7415 74.9146 56.1451 74.5042 55.3884C74.1066 54.6318 73.9078 53.7661 73.9078 52.7914C73.9078 51.8551 74.1066 51.0215 74.5042 50.2905C74.9017 49.5594 75.4468 48.9823 76.1394 48.5591C76.8447 48.1358 77.6399 47.9242 78.5248 47.9242C79.4226 47.9242 80.2178 48.123 80.9103 48.5206C81.6029 48.9054 82.1415 49.4504 82.5263 50.1558C82.911 50.8484 83.097 51.6499 83.0842 52.5605C83.0842 52.7144 83.0778 52.8747 83.0649 53.0415C83.0521 53.1954 83.0329 53.3685 83.0072 53.5609H75.8893C75.9278 54.0739 76.0688 54.5292 76.3125 54.9267C76.569 55.3115 76.8896 55.6129 77.2744 55.8309C77.672 56.0489 78.1208 56.158 78.621 56.158C79.2623 56.158 79.8202 56.0361 80.2947 55.7924C80.7692 55.5359 81.1027 55.1961 81.2951 54.7728L82.8726 55.3307C82.4878 56.1131 81.9235 56.7223 81.1796 57.1583C80.4486 57.5944 79.6022 57.8124 78.6403 57.8124ZM81.1027 52.0026C81.1027 51.5409 80.9873 51.1241 80.7564 50.7522C80.5256 50.3802 80.2113 50.0917 79.8138 49.8865C79.429 49.6684 78.993 49.5594 78.5056 49.5594C78.0695 49.5594 77.6656 49.6684 77.2936 49.8865C76.9345 50.0917 76.6267 50.3802 76.3702 50.7522C76.1265 51.1113 75.9726 51.5281 75.9085 52.0026H81.1027ZM89.663 57.8124C88.7396 57.8124 87.9252 57.6072 87.2198 57.1968C86.5144 56.7736 85.963 56.1964 85.5654 55.4654C85.1806 54.7344 84.9883 53.8815 84.9883 52.9068C84.9883 51.9193 85.187 51.0536 85.5846 50.3097C85.9822 49.5658 86.5337 48.9823 87.2391 48.5591C87.9444 48.1358 88.7652 47.9242 89.7015 47.9242C90.689 47.9242 91.5547 48.1551 92.2986 48.6168C93.0553 49.0785 93.6003 49.7005 93.9338 50.4828L92.2986 51.06C92.1062 50.6111 91.7792 50.252 91.3174 49.9827C90.8686 49.7133 90.3556 49.5787 89.7784 49.5787C89.1885 49.5787 88.6819 49.7197 88.2587 50.0019C87.8354 50.2712 87.5084 50.656 87.2775 51.1562C87.0467 51.6435 86.9313 52.2206 86.9313 52.8876C86.9313 53.8879 87.1878 54.6831 87.7008 55.273C88.2138 55.863 88.9063 56.158 89.7784 56.158C90.3556 56.158 90.8686 56.0297 91.3174 55.7732C91.7792 55.5167 92.1254 55.164 92.3563 54.7151L93.9722 55.2923C93.6131 56.0618 93.0488 56.6774 92.2793 57.1391C91.5098 57.588 90.6377 57.8124 89.663 57.8124ZM96.4199 43.8266H98.2283V49.117C98.5361 48.745 98.9337 48.4565 99.421 48.2513C99.9084 48.0332 100.447 47.9242 101.037 47.9242C101.755 47.9242 102.384 48.0845 102.922 48.4052C103.474 48.713 103.903 49.1811 104.211 49.8095C104.519 50.4251 104.673 51.1946 104.673 52.118V57.6777H102.768V52.3489C102.768 51.4511 102.582 50.765 102.21 50.2905C101.839 49.8159 101.293 49.5787 100.575 49.5787C99.8314 49.5787 99.2543 49.8223 98.8439 50.3097C98.4335 50.7971 98.2283 51.5088 98.2283 52.4451V57.6777H96.4199V43.8266ZM113.405 57.6777L113.252 56.2734C112.957 56.7607 112.572 57.1391 112.097 57.4084C111.636 57.6649 111.033 57.7932 110.289 57.7932C109.596 57.7932 109.006 57.6841 108.519 57.4661C108.032 57.2353 107.653 56.9211 107.384 56.5235C107.128 56.1131 106.999 55.6385 106.999 55.0999C106.999 54.2919 107.301 53.625 107.903 53.0992C108.506 52.5605 109.378 52.2271 110.52 52.0988L113.252 51.791V51.0407C113.252 50.6303 113.085 50.2841 112.751 50.0019C112.418 49.7069 111.937 49.5594 111.309 49.5594C110.719 49.5594 110.218 49.7005 109.808 49.9827C109.398 50.252 109.122 50.656 108.981 51.1946L107.365 50.6175C107.609 49.771 108.083 49.1106 108.788 48.636C109.507 48.1615 110.372 47.9242 111.386 47.9242C112.591 47.9242 113.508 48.2256 114.136 48.8284C114.765 49.4312 115.079 50.2263 115.079 51.2139V57.6777H113.405ZM113.252 53.2723L110.616 53.5993C110.052 53.6763 109.628 53.8366 109.346 54.0803C109.064 54.3111 108.923 54.6189 108.923 55.0037C108.923 55.3628 109.058 55.6642 109.327 55.9079C109.609 56.1387 110 56.2541 110.501 56.2541C111.116 56.2541 111.629 56.1387 112.04 55.9079C112.45 55.677 112.751 55.3564 112.944 54.946C113.149 54.5228 113.252 54.0354 113.252 53.4839V53.2723ZM117.923 48.0589H119.578L119.693 49.3478C119.963 49.0144 120.27 48.7386 120.617 48.5206C120.976 48.2897 121.36 48.1294 121.771 48.0397C122.194 47.9499 122.63 47.9563 123.079 48.0589V49.771C122.656 49.6684 122.245 49.6556 121.848 49.7326C121.45 49.8095 121.091 49.9762 120.77 50.2328C120.463 50.4764 120.213 50.8035 120.02 51.2139C119.828 51.6243 119.732 52.118 119.732 52.6952V57.6777H117.923V48.0589ZM132.179 48.0589H133.833V56.1002C133.833 57.2289 133.564 58.1972 133.025 59.0051C132.487 59.8131 131.711 60.4351 130.697 60.8712C129.697 61.3072 128.485 61.5253 127.062 61.5253L126.773 59.9285C128.492 59.8901 129.793 59.5438 130.678 58.8897C131.563 58.2485 132.006 57.3186 132.006 56.1002V56.0041L132.217 56.0233C131.909 56.5106 131.467 56.9339 130.89 57.293C130.326 57.6393 129.62 57.8124 128.774 57.8124C127.914 57.8124 127.151 57.6072 126.484 57.1968C125.83 56.7864 125.317 56.2093 124.945 55.4654C124.586 54.7215 124.407 53.8558 124.407 52.8683C124.407 51.8808 124.586 51.0151 124.945 50.2712C125.317 49.5274 125.83 48.9502 126.484 48.5398C127.151 48.1294 127.914 47.9242 128.774 47.9242C129.3 47.9242 129.768 47.9948 130.178 48.1358C130.601 48.2769 130.967 48.4693 131.275 48.713C131.582 48.9438 131.839 49.2067 132.044 49.5017L132.179 48.0589ZM126.35 52.8683C126.35 53.8558 126.606 54.651 127.119 55.2538C127.645 55.8566 128.344 56.158 129.216 56.158C129.729 56.158 130.197 56.0297 130.62 55.7732C131.044 55.5039 131.377 55.1255 131.621 54.6382C131.877 54.138 132.006 53.548 132.006 52.8683C132.006 52.1758 131.877 51.5858 131.621 51.0984C131.377 50.6111 131.037 50.2392 130.601 49.9827C130.178 49.7133 129.716 49.5787 129.216 49.5787C128.344 49.5787 127.645 49.8801 127.119 50.4828C126.606 51.0856 126.35 51.8808 126.35 52.8683ZM140.99 57.8124C140.066 57.8124 139.246 57.6008 138.527 57.1776C137.822 56.7415 137.264 56.1451 136.854 55.3884C136.456 54.6318 136.257 53.7661 136.257 52.7914C136.257 51.8551 136.456 51.0215 136.854 50.2905C137.251 49.5594 137.796 48.9823 138.489 48.5591C139.194 48.1358 139.99 47.9242 140.874 47.9242C141.772 47.9242 142.567 48.123 143.26 48.5206C143.953 48.9054 144.491 49.4504 144.876 50.1558C145.261 50.8484 145.447 51.6499 145.434 52.5605C145.434 52.7144 145.427 52.8747 145.415 53.0415C145.402 53.1954 145.383 53.3685 145.357 53.5609H138.239C138.277 54.0739 138.418 54.5292 138.662 54.9267C138.919 55.3115 139.239 55.6129 139.624 55.8309C140.022 56.0489 140.47 56.158 140.971 56.158C141.612 56.158 142.17 56.0361 142.644 55.7924C143.119 55.5359 143.452 55.1961 143.645 54.7728L145.222 55.3307C144.837 56.1131 144.273 56.7223 143.529 57.1583C142.798 57.5944 141.952 57.8124 140.99 57.8124ZM143.452 52.0026C143.452 51.5409 143.337 51.1241 143.106 50.7522C142.875 50.3802 142.561 50.0917 142.163 49.8865C141.779 49.6684 141.343 49.5594 140.855 49.5594C140.419 49.5594 140.015 49.6684 139.643 49.8865C139.284 50.0917 138.976 50.3802 138.72 50.7522C138.476 51.1113 138.322 51.5281 138.258 52.0026H143.452ZM147.896 48.0589H149.55L149.666 49.3478C149.935 49.0144 150.243 48.7386 150.589 48.5206C150.948 48.2897 151.333 48.1294 151.743 48.0397C152.167 47.9499 152.603 47.9563 153.051 48.0589V49.771C152.628 49.6684 152.218 49.6556 151.82 49.7326C151.423 49.8095 151.064 49.9762 150.743 50.2328C150.435 50.4764 150.185 50.8035 149.993 51.2139C149.8 51.6243 149.704 52.118 149.704 52.6952V57.6777H147.896V48.0589ZM165.913 50.6175C166.541 50.6175 167.054 50.5213 167.452 50.3289C167.862 50.1237 168.164 49.8416 168.356 49.4825C168.548 49.1234 168.645 48.7066 168.645 48.232C168.645 47.4753 168.427 46.8854 167.991 46.4622C167.555 46.0389 166.862 45.8273 165.913 45.8273H162.816V50.6175H165.913ZM170.568 48.232C170.568 48.7194 170.485 49.2067 170.318 49.6941C170.152 50.1686 169.882 50.5983 169.51 50.983C169.138 51.3678 168.651 51.6756 168.048 51.9064C167.458 52.1245 166.747 52.2335 165.913 52.2335H162.816V57.6777H160.892V44.2114H165.913C166.965 44.2114 167.83 44.3973 168.51 44.7692C169.203 45.1284 169.716 45.6157 170.049 46.2313C170.395 46.8341 170.568 47.501 170.568 48.232ZM178.006 57.6777L177.852 56.2734C177.557 56.7607 177.172 57.1391 176.698 57.4084C176.236 57.6649 175.633 57.7932 174.889 57.7932C174.197 57.7932 173.607 57.6841 173.119 57.4661C172.632 57.2353 172.254 56.9211 171.984 56.5235C171.728 56.1131 171.6 55.6385 171.6 55.0999C171.6 54.2919 171.901 53.625 172.504 53.0992C173.107 52.5605 173.979 52.2271 175.12 52.0988L177.852 51.791V51.0407C177.852 50.6303 177.685 50.2841 177.352 50.0019C177.018 49.7069 176.537 49.5594 175.909 49.5594C175.319 49.5594 174.819 49.7005 174.408 49.9827C173.998 50.252 173.722 50.656 173.581 51.1946L171.965 50.6175C172.209 49.771 172.683 49.1106 173.389 48.636C174.107 48.1615 174.973 47.9242 175.986 47.9242C177.191 47.9242 178.108 48.2256 178.737 48.8284C179.365 49.4312 179.679 50.2263 179.679 51.2139V57.6777H178.006ZM177.852 53.2723L175.216 53.5993C174.652 53.6763 174.229 53.8366 173.947 54.0803C173.664 54.3111 173.523 54.6189 173.523 55.0037C173.523 55.3628 173.658 55.6642 173.927 55.9079C174.21 56.1387 174.601 56.2541 175.101 56.2541C175.716 56.2541 176.229 56.1387 176.64 55.9079C177.05 55.677 177.352 55.3564 177.544 54.946C177.749 54.5228 177.852 54.0354 177.852 53.4839V53.2723ZM182.524 48.0589H184.178L184.293 49.3478C184.563 49.0144 184.871 48.7386 185.217 48.5206C185.576 48.2897 185.961 48.1294 186.371 48.0397C186.794 47.9499 187.23 47.9563 187.679 48.0589V49.771C187.256 49.6684 186.846 49.6556 186.448 49.7326C186.051 49.8095 185.691 49.9762 185.371 50.2328C185.063 50.4764 184.813 50.8035 184.621 51.2139C184.428 51.6243 184.332 52.118 184.332 52.6952V57.6777H182.524V48.0589ZM190.83 54.6382C190.92 55.0229 191.074 55.3243 191.292 55.5424C191.51 55.7604 191.766 55.9207 192.061 56.0233C192.369 56.1131 192.69 56.158 193.023 56.158C193.6 56.158 194.049 56.0425 194.37 55.8117C194.69 55.5808 194.851 55.2923 194.851 54.946C194.851 54.651 194.748 54.4202 194.543 54.2534C194.351 54.0739 194.088 53.9328 193.754 53.8302C193.434 53.7276 193.087 53.6314 192.715 53.5416C192.382 53.4519 192.016 53.3493 191.619 53.2338C191.234 53.1184 190.869 52.9645 190.522 52.7721C190.189 52.5669 189.913 52.3104 189.695 52.0026C189.477 51.682 189.368 51.278 189.368 50.7906C189.368 50.2135 189.522 49.7133 189.83 49.2901C190.15 48.854 190.586 48.5206 191.138 48.2897C191.702 48.0461 192.337 47.9242 193.042 47.9242C193.863 47.9242 194.581 48.1038 195.197 48.4629C195.825 48.8092 196.281 49.335 196.563 50.0404L194.928 50.579C194.838 50.3354 194.69 50.1366 194.485 49.9827C194.28 49.8288 194.043 49.7262 193.773 49.6749C193.517 49.6107 193.26 49.5787 193.004 49.5787C192.517 49.5787 192.113 49.6749 191.792 49.8672C191.471 50.0596 191.311 50.3418 191.311 50.7137C191.311 50.9189 191.362 51.092 191.465 51.2331C191.568 51.3614 191.709 51.4704 191.888 51.5602C192.081 51.6371 192.305 51.7076 192.561 51.7718C192.818 51.8359 193.094 51.9064 193.389 51.9834C193.773 52.0988 194.165 52.2271 194.562 52.3681C194.96 52.4964 195.325 52.6631 195.659 52.8683C195.992 53.0735 196.262 53.3428 196.467 53.6763C196.672 54.0097 196.781 54.4202 196.794 54.9075C196.794 55.4718 196.633 55.972 196.313 56.408C196.005 56.8441 195.563 57.1904 194.985 57.4469C194.421 57.6906 193.748 57.8124 192.965 57.8124C192.016 57.8124 191.208 57.6008 190.542 57.1776C189.875 56.7543 189.426 56.1002 189.195 55.2153L190.83 54.6382ZM203.411 57.8124C202.488 57.8124 201.667 57.6008 200.949 57.1776C200.243 56.7415 199.685 56.1451 199.275 55.3884C198.877 54.6318 198.678 53.7661 198.678 52.7914C198.678 51.8551 198.877 51.0215 199.275 50.2905C199.672 49.5594 200.217 48.9823 200.91 48.5591C201.615 48.1358 202.411 47.9242 203.296 47.9242C204.193 47.9242 204.988 48.123 205.681 48.5206C206.374 48.9054 206.912 49.4504 207.297 50.1558C207.682 50.8484 207.868 51.6499 207.855 52.5605C207.855 52.7144 207.848 52.8747 207.836 53.0415C207.823 53.1954 207.804 53.3685 207.778 53.5609H200.66C200.698 54.0739 200.839 54.5292 201.083 54.9267C201.34 55.3115 201.66 55.6129 202.045 55.8309C202.443 56.0489 202.892 56.158 203.392 56.158C204.033 56.158 204.591 56.0361 205.065 55.7924C205.54 55.5359 205.873 55.1961 206.066 54.7728L207.643 55.3307C207.258 56.1131 206.694 56.7223 205.95 57.1583C205.219 57.5944 204.373 57.8124 203.411 57.8124ZM205.873 52.0026C205.873 51.5409 205.758 51.1241 205.527 50.7522C205.296 50.3802 204.982 50.0917 204.584 49.8865C204.2 49.6684 203.764 49.5594 203.276 49.5594C202.84 49.5594 202.436 49.6684 202.064 49.8865C201.705 50.0917 201.397 50.3802 201.141 50.7522C200.897 51.1113 200.743 51.5281 200.679 52.0026H205.873ZM214.434 57.8124C213.51 57.8124 212.696 57.6072 211.99 57.1968C211.285 56.7736 210.734 56.1964 210.336 55.4654C209.951 54.7344 209.759 53.8815 209.759 52.9068C209.759 51.9193 209.958 51.0536 210.355 50.3097C210.753 49.5658 211.304 48.9823 212.01 48.5591C212.715 48.1358 213.536 47.9242 214.472 47.9242C215.46 47.9242 216.325 48.1551 217.069 48.6168C217.826 49.0785 218.371 49.7005 218.704 50.4828L217.069 51.06C216.877 50.6111 216.55 50.252 216.088 49.9827C215.639 49.7133 215.126 49.5787 214.549 49.5787C213.959 49.5787 213.453 49.7197 213.029 50.0019C212.606 50.2712 212.279 50.656 212.048 51.1562C211.817 51.6435 211.702 52.2206 211.702 52.8876C211.702 53.8879 211.958 54.6831 212.471 55.273C212.984 55.863 213.677 56.158 214.549 56.158C215.126 56.158 215.639 56.0297 216.088 55.7732C216.55 55.5167 216.896 55.164 217.127 54.7151L218.743 55.2923C218.384 56.0618 217.819 56.6774 217.05 57.1391C216.28 57.588 215.408 57.8124 214.434 57.8124Z" fill="#FCFCFC"/>
</g>
<defs>
<filter id="filter0_ddd_82_6253" x="14.6542" y="14.249" width="237.475" height="77.8564" filterUnits="userSpaceOnUse" color-interpolation-filters="sRGB">
<feFlood flood-opacity="0" result="BackgroundImageFix"/>
<feColorMatrix in="SourceAlpha" type="matrix" values="0 0 0 0 0 0 0 0 0 0 0 0 0 0 0 0 0 0 127 0" result="hardAlpha"/>
<feOffset dy="1.20236"/>
<feGaussianBlur stdDeviation="0.601178"/>
<feComposite in2="hardAlpha" operator="out"/>
<feColorMatrix type="matrix" values="0 0 0 0 0 0 0 0 0 0 0 0 0 0 0 0 0 0 0.04 0"/>
<feBlend mode="normal" in2="BackgroundImageFix" result="effect1_dropShadow_82_6253"/>
<feColorMatrix in="SourceAlpha" type="matrix" values="0 0 0 0 0 0 0 0 0 0 0 0 0 0 0 0 0 0 127 0" result="hardAlpha"/>
<feOffset dy="3.60707"/>
<feGaussianBlur stdDeviation="3.00589"/>
<feComposite in2="hardAlpha" operator="out"/>
<feColorMatrix type="matrix" values="0 0 0 0 0 0 0 0 0 0 0 0 0 0 0 0 0 0 0.02 0"/>
<feBlend mode="normal" in2="effect1_dropShadow_82_6253" result="effect2_dropShadow_82_6253"/>
<feColorMatrix in="SourceAlpha" type="matrix" values="0 0 0 0 0 0 0 0 0 0 0 0 0 0 0 0 0 0 127 0" result="hardAlpha"/>
<feOffset dy="2"/>
<feGaussianBlur stdDeviation="6.5"/>
<feComposite in2="hardAlpha" operator="out"/>
<feColorMatrix type="matrix" values="0 0 0 0 0 0 0 0 0 0 0 0 0 0 0 0 0 0 0.15 0"/>
<feBlend mode="normal" in2="effect2_dropShadow_82_6253" result="effect3_dropShadow_82_6253"/>
<feBlend mode="normal" in="SourceGraphic" in2="effect3_dropShadow_82_6253" result="shape"/>
</filter>
<linearGradient id="paint0_linear_82_6253" x1="24.6198" y1="24.414" x2="101.044" y2="156.812" gradientUnits="userSpaceOnUse">
<stop stop-color="#338BFF"/>
<stop offset="1" stop-color="#0058CC"/>
</linearGradient>
</defs>
</svg>
