<svg width="24" height="24" viewBox="0 0 24 24" fill="none" xmlns="http://www.w3.org/2000/svg">
<rect x="3" y="11" width="4" height="1" fill="#444444"/>
<path fill-rule="evenodd" clip-rule="evenodd" d="M2 13V10H10V8H1C0.447715 8 0 8.44772 0 9V14C0 14.5523 0.447715 15 1 15H10V13H2Z" fill="#444444"/>
<path fill-rule="evenodd" clip-rule="evenodd" d="M23.5243 10.5534L22.2366 10.3386C22.143 9.95592 22.0065 9.59014 21.8288 9.24897L22.6532 8.22679C22.8285 8.01077 22.8205 7.69994 22.6357 7.49145L22.1235 6.91502C21.9379 6.70675 21.63 6.6627 21.3952 6.81106L20.2939 7.50337C19.8095 7.16494 19.2608 6.91502 18.6689 6.77L18.4535 5.4753C18.4083 5.20115 18.171 5 17.8926 5H17.1207C16.8428 5 16.6048 5.20115 16.5606 5.4753L16.344 6.77041C15.8546 6.89023 15.3958 7.08363 14.9771 7.33835L13.9297 6.59088C13.704 6.42961 13.394 6.45483 13.197 6.65139L12.6517 7.19707C12.4552 7.39406 12.4299 7.7041 12.5916 7.92983L13.3408 8.97921C13.0885 9.39477 12.8971 9.85099 12.7773 10.336L11.4753 10.5534C11.2015 10.5986 11 10.8359 11 11.1144V11.8856C11 12.1641 11.2015 12.4014 11.4753 12.4466L12.7773 12.664C12.8757 13.0631 13.0185 13.4444 13.2083 13.7978L12.3877 14.8142C12.213 15.0301 12.2203 15.3411 12.4051 15.5494L12.9169 16.1258C13.1026 16.3345 13.4106 16.3778 13.6455 16.2298L14.7626 15.528C15.2353 15.8513 15.7701 16.0889 16.344 16.2298L16.5606 17.5247C16.6048 17.7988 16.8428 18 17.1207 18H17.8926C18.171 18 18.4083 17.7989 18.4535 17.5247L18.6693 16.2298C19.1525 16.1116 19.6055 15.9215 20.0205 15.6712L21.1115 16.4504C21.3368 16.6122 21.6471 16.5868 21.8439 16.3897L22.3894 15.8442C22.5857 15.6478 22.6123 15.3379 22.4492 15.1118L21.6725 14.0227C21.9255 13.6058 22.118 13.1487 22.237 12.6616L23.5248 12.4465C23.7993 12.4013 24 12.1641 24 11.8856V11.1143C23.9996 10.8359 23.7989 10.5986 23.5243 10.5534ZM17.5204 13.9375C16.1745 13.9375 15.0829 12.8457 15.0829 11.5C15.0829 10.1541 16.1745 9.0625 17.5204 9.0625C18.866 9.0625 19.9578 10.1541 19.9578 11.5C19.9578 12.8457 18.866 13.9375 17.5204 13.9375Z" fill="#444444"/>
</svg>
