<?xml version="1.0" encoding="UTF-8"?>
<svg
    width="32"
    height="32"
    viewBox="0 0 32 32"
    fill="none"
    xmlns="http://www.w3.org/2000/svg"
>
    <path d="M10.3495 20.4231L15.6049 26.795C15.6896 26.8977 15.7947 26.9801 15.9129 27.0366C16.0311 27.0931 16.1597 27.1223 16.2899 27.1223C16.42 27.1223 16.5486 27.0931 16.6669 27.0366C16.7851 26.9801 16.8902 26.8977 16.9749 26.795L22.2303 20.4231C22.7319 19.8149 22.316 18.8755 21.5453 18.8755L11.033 18.8755C10.2622 18.8755 9.84641 19.8149 10.3495 20.4231Z" fill="#F9F9FB"/>
    <path d="M22.2326 13.4558L16.9772 7.08389C16.8925 6.98124 16.7874 6.89884 16.6691 6.84234C16.5509 6.78585 16.4223 6.7566 16.2921 6.7566C16.162 6.7566 16.0334 6.78585 15.9151 6.84234C15.7969 6.89884 15.6918 6.98124 15.6071 7.08389L10.3517 13.4558C9.85015 14.064 10.266 15.0034 11.0367 15.0034L21.549 15.0034C22.3198 15.0034 22.7356 14.064 22.2326 13.4558Z" fill="#F9F9FB"/>
</svg>
