<svg width="14" height="14" viewBox="0 0 14 14" fill="none" xmlns="http://www.w3.org/2000/svg">
<path fill-rule="evenodd" clip-rule="evenodd" d="M0.294404 0.294466C-0.0961199 0.68499 -0.0998005 1.32183 0.290724 1.71236L5.57837 7L5.57841 7.00005L0.29081 12.2877C-0.0997145 12.6782 -0.0960336 13.315 0.294491 13.7055C0.685015 14.0961 1.32186 14.0997 1.71238 13.7092L6.99999 8.42162L12.2876 13.7092C12.6781 14.0997 13.315 14.0961 13.7055 13.7055C14.096 13.315 14.0997 12.6782 13.7092 12.2877L8.42156 7.00005L8.42161 7L13.7093 1.71236C14.0998 1.32183 14.0961 0.68499 13.7056 0.294466C13.315 -0.0960591 12.6782 -0.0997395 12.2877 0.290785L7.00003 5.57843L6.99999 5.57847L6.99994 5.57843L1.7123 0.290785C1.32177 -0.0997395 0.684928 -0.0960591 0.294404 0.294466Z" fill="#AAAAAA"/>
</svg>
