<svg width="24" height="24" viewBox="0 0 24 24" fill="none" xmlns="http://www.w3.org/2000/svg">
<path fill-rule="evenodd" clip-rule="evenodd" d="M5 6C4.44772 6 4 6.44772 4 7V16.4074C4 16.9597 4.44772 17.4074 5 17.4074H6.72783C7.02679 17.4074 7.31006 17.5412 7.50002 17.772L8.56115 19.0616C8.96117 19.5477 9.7055 19.5477 10.1055 19.0616L11.1667 17.772C11.3566 17.5412 11.6399 17.4074 11.9388 17.4074H19C19.5523 17.4074 20 16.9597 20 16.4074V7C20 6.44772 19.5523 6 19 6H5ZM17 9H7V10H17V9ZM17 11H7V12H17V11ZM7 13H15V14H7V13Z" fill="#444444"/>
</svg>
