<svg width="24" height="24" viewBox="0 0 24 24" fill="none" xmlns="http://www.w3.org/2000/svg">
<path fill-rule="evenodd" clip-rule="evenodd" d="M6 16V13H7.2V11H5C4.44772 11 4 11.4477 4 12V17C4 17.5523 4.44772 18 5 18H19C19.5523 18 20 17.5523 20 17V12C20 11.4477 19.5523 11 19 11H16.8V13H18V16H6Z" fill="#444444"/>
<path fill-rule="evenodd" clip-rule="evenodd" d="M13.9996 8.5L15.2025 8.5C15.7911 8.5 16 8.49063 16 8.75503C16 8.94763 15.8986 9.29489 15.6987 9.4874L12.6667 12.6478C12.179 13.1174 11.821 13.1174 11.3333 12.6478L8.30133 9.4874C8.10142 9.29489 8 8.94763 8 8.75503C8 8.49056 8.20889 8.5 8.79749 8.5C8.79749 8.5 9.4909 8.5 9.99708 8.5C9.99708 8.28638 9.99708 5 9.99708 5L13.9996 5C13.9996 5 13.9996 8.29916 13.9996 8.5Z" fill="#444444"/>
</svg>
