<svg width="24" height="24" viewBox="0 0 24 24" fill="none" xmlns="http://www.w3.org/2000/svg">
<rect x="4" y="6" width="16" height="13" rx="1" stroke="#444444" stroke-width="2"/>
<path fill-rule="evenodd" clip-rule="evenodd" d="M14.148 8.69651C13.8858 8.43384 13.4601 8.43384 13.1979 8.69651V8.69651C12.9362 8.95858 12.9362 9.38302 13.1979 9.64509L15.3401 11.7908C15.7296 12.1809 15.7299 12.8126 15.3409 13.2031L13.1967 15.3554C12.9357 15.6173 12.9357 16.041 13.1967 16.3029V16.3029C13.4591 16.5663 13.8855 16.5663 14.1478 16.3029L17.3302 13.1086V13.1086C17.668 12.7702 17.668 12.2222 17.3302 11.8838L14.148 8.69651Z" fill="#444444"/>
<path fill-rule="evenodd" clip-rule="evenodd" d="M9.85199 16.3035C10.1142 16.5662 10.5399 16.5662 10.8021 16.3035V16.3035C11.0638 16.0414 11.0638 15.617 10.8021 15.3549L8.65987 13.2092C8.2704 12.8191 8.27006 12.1874 8.65911 11.7969L10.8033 9.64461C11.0643 9.38266 11.0643 8.959 10.8033 8.69706V8.69706C10.5409 8.43371 10.1145 8.43371 9.85218 8.69706L6.66983 11.8914V11.8914C6.33201 12.2298 6.33201 12.7778 6.66983 13.1162L9.85199 16.3035Z" fill="#444444"/>
</svg>
