<svg width="16" height="16" viewBox="0 0 16 16" fill="none" xmlns="http://www.w3.org/2000/svg">
<path fill-rule="evenodd" clip-rule="evenodd" d="M7.99857 1.6C4.46508 1.6 1.6 4.46548 1.6 8.00029C1.6 9.70508 2.26458 11.2515 3.35202 12.3999C4.52033 13.6337 6.16874 14.4 7.99857 14.4C11.5348 14.4 14.4 11.5335 14.4 8.00029C14.4 4.46592 11.5348 1.6 7.99857 1.6ZM0 8.00029C0 3.58219 3.58105 0 7.99857 0C12.4184 0 16 3.58219 16 8.00029C16 12.4172 12.4184 16 7.99857 16C5.71117 16 3.64805 15.0395 2.19023 13.5C0.83265 12.0663 0 10.1304 0 8.00029ZM7 4H9V9H7V4ZM9 10H7V12H9V10Z" fill="#CB0000"/>
</svg>
