<svg width="30" height="40" viewBox="0 0 30 40" fill="none" xmlns="http://www.w3.org/2000/svg">
<path d="M30 7.44186L22 0H3C1.22739 0 0 0.822551 0 2.32558V37.2093C0 38.7123 1.22739 40 3 40H27C28.7726 40 30 38.7123 30 37.2093V7.44186Z" fill="#D0D5DA"/>
<path d="M24.1042 7.27273H29.9631L22 0V5.32334C22 6.4105 22.949 7.27273 24.1042 7.27273Z" fill="#646464"/>
<path d="M16.9562 22.3485H12.9746V17.803H10.9839L14.9654 14.1667L18.947 17.803H16.9562V22.3485Z" fill="#646464"/>
<path d="M20.9378 23.7121C20.9378 24.1666 20.4401 24.6212 19.9424 24.6212H9.98848C9.49078 24.6212 8.99309 24.1666 8.99309 23.7121V22.3485C8.99309 21.8939 9.49078 21.4394 9.98848 21.4394H10.9839V20.0757H9.49078C8.49539 20.0757 7.5 20.9848 7.5 21.8939V24.1666C7.5 25.0757 8.61982 25.9848 9.49078 25.9848H20.4401C21.3111 25.9848 22.4309 25.0757 22.4309 24.1666V21.8939C22.4309 20.9848 21.4355 20.0757 20.4401 20.0757H18.947V21.4394H19.9424C20.4401 21.4394 20.9378 21.8939 20.9378 22.3485V23.7121Z" fill="#646464"/>
</svg>
