<svg width="30" height="40" viewBox="0 0 30 40" fill="none" xmlns="http://www.w3.org/2000/svg">
<path d="M0 3C0 1.34315 1.34315 0 3 0H22.9167L30 7.08333V37C30 38.6569 28.6569 40 27 40H3C1.34315 40 0 38.6569 0 37V3Z" fill="#78A73B"/>
<path d="M22.9167 0L30.0001 7.08333H25.9168C24.2599 7.08333 22.9167 5.74019 22.9167 4.08333V0Z" fill="#5A7D2B"/>
<path d="M6.17644 15.2941H23.8235V16.4706H6.17644V15.2941Z" fill="white"/>
<path d="M6.17644 19.1177H23.8235V20.2941H6.17644V19.1177Z" fill="white"/>
<path d="M6.17644 22.9412H23.8235V24.1177H6.17644V22.9412Z" fill="white"/>
<path d="M6.17644 26.7647H23.8235V27.9412H6.17644V26.7647Z" fill="white"/>
<path d="M5.88232 27.9412L5.88232 15.2941L7.0588 15.2941L7.0588 27.9412H5.88232Z" fill="white"/>
<path d="M11.4706 27.9412L11.4706 15.2941L12.647 15.2941V27.9412H11.4706Z" fill="white"/>
<path d="M17.0588 27.9412L17.0588 15.2941L18.2353 15.2941V27.9412H17.0588Z" fill="white"/>
<path d="M22.647 27.9412V15.2941H23.8235V27.9412H22.647Z" fill="white"/>
</svg>
