<svg width="30" height="40" viewBox="0 0 30 40" fill="none" xmlns="http://www.w3.org/2000/svg">
<path d="M0 3C0 1.34315 1.34315 0 3 0H22.9167L30 7.08333V37C30 38.6569 28.6569 40 27 40H3C1.34315 40 0 38.6569 0 37V3Z" fill="#F36700"/>
<path d="M22.9167 0L30.0001 7.08333H25.9168C24.2599 7.08333 22.9167 5.74019 22.9167 4.08333V0Z" fill="#AB531F"/>
<path d="M6.17627 16.1275H23.8233V17.3039H6.17627V16.1275Z" fill="white"/>
<path d="M6.17627 28.7745L6.17627 16.1275L7.35274 16.1275L7.35274 28.7745H6.17627Z" fill="white"/>
<path d="M23.8233 16.1275V28.7745H22.6469V16.1275L23.8233 16.1275Z" fill="white"/>
<path d="M6.17627 27.598H23.8233V28.7745H6.17627L6.17627 27.598Z" fill="white"/>
</svg>
