<svg width="30" height="40" viewBox="0 0 30 40" fill="none" xmlns="http://www.w3.org/2000/svg">
<path d="M0 3C0 1.34315 1.34315 0 3 0H21.674C22.4697 0 23.2327 0.316071 23.7953 0.87868L29.1213 6.20465C29.6839 6.76726 30 7.53032 30 8.32597V37C30 38.6569 28.6569 40 27 40H3C1.34315 40 0 38.6569 0 37V3Z" fill="#3779A6"/>
<path d="M22.9167 0L30.0001 7.08333H25.9167C24.2599 7.08333 22.9167 5.74019 22.9167 4.08333V0Z" fill="#1D5880"/>
<path d="M6.17627 14.7059H23.8233V15.8823H6.17627V14.7059Z" fill="white"/>
<path d="M6.17627 18.5294H23.8233V19.7059H6.17627V18.5294Z" fill="white"/>
<path d="M6.17627 22.3529H23.8233V23.5294H6.17627V22.3529Z" fill="white"/>
<path d="M6.17627 26.1765H23.8233V27.3529H6.17627V26.1765Z" fill="white"/>
</svg>
