<svg width="153" height="28" viewBox="0 0 153 28" fill="none" xmlns="http://www.w3.org/2000/svg">
<path fill-rule="evenodd" clip-rule="evenodd" d="M13.3403 27.6567L0.801116 21.8897C-0.267039 21.3862 -0.267039 20.6081 0.801116 20.1504L5.16662 18.1365L13.2939 21.8897C14.362 22.3932 16.0804 22.3932 17.1021 21.8897L25.2294 18.1365L29.5949 20.1504C30.663 20.6539 30.663 21.432 29.5949 21.8897L17.0556 27.6567C16.0804 28.1144 14.362 28.1144 13.3403 27.6567Z" fill="#FF6F3D"/>
<path fill-rule="evenodd" clip-rule="evenodd" d="M13.3403 20.5623L0.801116 14.7953C-0.267039 14.2918 -0.267039 13.5137 0.801116 13.056L5.07373 11.0879L13.3403 14.8868C14.4085 15.3903 16.1268 15.3903 17.1485 14.8868L25.4151 11.0879L29.6877 13.056C30.7559 13.5595 30.7559 14.3376 29.6877 14.7953L17.1485 20.5623C16.0804 21.0658 14.362 21.0658 13.3403 20.5623Z" fill="#95C038"/>
<path fill-rule="evenodd" clip-rule="evenodd" d="M13.3403 13.651L0.801116 7.88393C-0.267039 7.38045 -0.267039 6.60236 0.801116 6.14466L13.3403 0.377605C14.4085 -0.125868 16.1268 -0.125868 17.1485 0.377605L29.6877 6.14466C30.7559 6.64813 30.7559 7.42622 29.6877 7.88393L17.1485 13.651C16.0804 14.1087 14.362 14.1087 13.3403 13.651Z" fill="#5DC0E8"/>
<path d="M38.1528 13.9433C38.1528 11.5581 38.8442 9.75803 40.2731 8.58797C41.6559 7.3729 43.3152 6.78787 45.2051 6.78787C47.0949 6.78787 48.7081 7.3729 50.0909 8.58797C51.4737 9.80304 52.1651 11.5581 52.1651 13.9883C52.1651 16.3734 51.4737 18.1735 50.0909 19.3436C48.7081 20.5586 47.0488 21.1437 45.2051 21.1437C43.3152 21.1437 41.702 20.5586 40.2731 19.3436C38.8442 18.1285 38.1528 16.3284 38.1528 13.9433ZM41.195 13.9433C41.195 15.6084 41.5176 16.7784 42.1168 17.5435C42.7621 18.3085 43.4535 18.8035 44.191 18.9835C44.3754 19.0285 44.5137 19.0735 44.698 19.0735C44.8363 19.0735 45.0207 19.1185 45.159 19.1185C45.3433 19.1185 45.4816 19.1185 45.666 19.0735C45.8504 19.0735 45.9886 19.0285 46.173 18.9835C46.9105 18.8035 47.6019 18.3085 48.2011 17.5435C48.8003 16.7784 49.123 15.5633 49.123 13.9883C49.123 12.3682 48.8003 11.1981 48.2011 10.4331C47.6019 9.66803 46.9105 9.173 46.173 8.99299C45.9886 8.94799 45.8043 8.90299 45.666 8.90299C45.4816 8.90299 45.3433 8.85798 45.159 8.85798C44.9746 8.85798 44.8363 8.85798 44.698 8.90299C44.5598 8.90299 44.3754 8.94799 44.191 8.99299C43.4535 9.173 42.7621 9.66803 42.1168 10.4331C41.5176 11.1081 41.195 12.3232 41.195 13.9433Z" fill="white"/>
<path d="M53.6863 6.92288H57.4659L62.444 15.7434L63.1814 17.6785H63.2275L63.1814 15.1583V6.92288H66.0853V20.9636H62.3057L57.3276 11.7831L56.5901 10.2081H56.544L56.5901 12.6832V20.9636H53.6863V6.92288Z" fill="white"/>
<path d="M69.0813 6.92288H71.9852V18.5785H77.7007V20.9636H69.0813V6.92288Z" fill="white"/>
<path d="M75.9031 6.92288H79.2679L82.2178 11.8281L82.6787 12.8182H82.7709L83.2319 11.8281L86.2279 6.92288H89.3161L84.1076 15.2483V20.9636H81.2038V15.2033L75.9031 6.92288Z" fill="white"/>
<path d="M88.9473 13.9433C88.9473 11.5581 89.6387 9.75803 91.0675 8.58797C92.4503 7.3729 94.1097 6.78787 95.9995 6.78787C97.8893 6.78787 99.5026 7.3729 100.885 8.58797C102.268 9.80304 102.96 11.5581 102.96 13.9883C102.96 16.3734 102.268 18.1735 100.885 19.3436C99.5026 20.5586 97.8432 21.1437 95.9995 21.1437C94.1097 21.1437 92.4964 20.5586 91.0675 19.3436C89.6848 18.1285 88.9473 16.3284 88.9473 13.9433ZM91.9894 13.9433C91.9894 15.6084 92.3121 16.7784 92.9113 17.5435C93.5566 18.3085 94.2019 18.8035 94.9855 18.9835C95.1698 19.0285 95.3081 19.0735 95.4925 19.0735C95.6308 19.0735 95.8151 19.1185 95.9534 19.1185C96.1378 19.1185 96.2761 19.1185 96.4604 19.0735C96.6448 19.0735 96.7831 19.0285 96.9675 18.9835C97.7049 18.8035 98.3963 18.3085 98.9955 17.5435C99.5948 16.7784 99.9174 15.5633 99.9174 13.9883C99.9174 12.3682 99.5948 11.1981 98.9955 10.4331C98.3963 9.66803 97.7049 9.173 96.9675 8.99299C96.7831 8.94799 96.5987 8.90299 96.4604 8.90299C96.2761 8.90299 96.1378 8.85798 95.9534 8.85798C95.769 8.85798 95.6308 8.85798 95.4925 8.90299C95.3542 8.90299 95.1698 8.94799 94.9855 8.99299C94.248 9.173 93.5566 9.66803 92.9113 10.4331C92.3121 11.1081 91.9894 12.3232 91.9894 13.9433Z" fill="white"/>
<path d="M104.988 6.92288H113.008V9.26301H107.891V12.6832H112.777V15.0683H107.891V20.9636H104.988V6.92288Z" fill="white"/>
<path d="M115.174 6.92288H123.195V9.26301H118.078V12.6832H122.964V15.0683H118.078V20.9636H115.174V6.92288Z" fill="white"/>
<path d="M124.9 20.9636V6.92288H127.804V20.9636H124.9Z" fill="white"/>
<path d="M140.599 7.2378V9.66793C140.092 9.48792 139.585 9.35291 139.032 9.26291C138.478 9.1729 137.833 9.1279 137.188 9.1279C135.667 9.1279 134.515 9.57792 133.685 10.523C132.855 11.423 132.44 12.5931 132.44 13.9882C132.44 15.3382 132.809 16.4633 133.593 17.3633C134.376 18.2634 135.482 18.7584 136.911 18.7584C137.418 18.7584 137.925 18.7134 138.525 18.6684C139.124 18.5784 139.723 18.4434 140.368 18.1734L140.553 20.5585C140.46 20.6035 140.322 20.6485 140.184 20.6935C140 20.7385 139.815 20.7835 139.585 20.8285C139.216 20.9185 138.755 20.9635 138.202 21.0535C137.649 21.0985 137.096 21.1436 136.497 21.1436C136.404 21.1436 136.312 21.1436 136.266 21.1436C136.174 21.1436 136.082 21.1436 136.036 21.1436C134.376 21.0535 132.855 20.4235 131.472 19.3435C130.09 18.2184 129.398 16.4633 129.398 14.1232C129.398 11.828 130.09 10.0279 131.426 8.76788C132.763 7.50781 134.607 6.87778 136.865 6.87778C137.464 6.87778 138.018 6.87778 138.478 6.92278C138.986 6.96778 139.446 7.05779 139.953 7.14779C140.046 7.19279 140.184 7.19279 140.276 7.2378C140.368 7.19279 140.46 7.2378 140.599 7.2378Z" fill="white"/>
<path d="M142.903 6.92294H151.523V9.12806H145.853V12.6383H150.97V14.7984H145.853V18.7586H151.523V20.9637H142.903V6.92294Z" fill="white"/>
</svg>
