<svg width="24" height="24" viewBox="0 0 24 24" fill="none" xmlns="http://www.w3.org/2000/svg">
<path fill-rule="evenodd" clip-rule="evenodd" d="M5 5C5 3.89543 5.89543 3 7 3H16C17.1046 3 18 3.89543 18 5V8H17V6H6V18H17V16H18V19C18 20.1046 17.1046 21 16 21H7C5.89543 21 5 20.1046 5 19V5ZM13 4H10V5H13V4ZM12 19.5C12 19.7761 11.7761 20 11.5 20C11.2239 20 11 19.7761 11 19.5C11 19.2239 11.2239 19 11.5 19C11.7761 19 12 19.2239 12 19.5Z" fill="#444444"/>
<rect x="7" y="9" width="1" height="6" fill="#444444"/>
<path fill-rule="evenodd" clip-rule="evenodd" d="M12 8V9L11 9V15H12V16H9V15H10V9H9V8H12Z" fill="#444444"/>
<path fill-rule="evenodd" clip-rule="evenodd" d="M15 10H18V14H15H14H13V15H14H18C18.5523 15 19 14.5523 19 14V10C19 9.44772 18.5523 9 18 9H14H13V10H14H15Z" fill="#444444"/>
</svg>
