<svg width="24" height="24" viewBox="0 0 24 24" fill="none" xmlns="http://www.w3.org/2000/svg">
<path fill-rule="evenodd" clip-rule="evenodd" d="M8 3C6.89543 3 6 3.89543 6 5V19C6 20.1046 6.89543 21 8 21H16C17.1046 21 18 20.1046 18 19V5C18 3.89543 17.1046 3 16 3H8ZM16.8462 6H7.15385V18H16.8462V6ZM10.3846 4H13.6154V5H10.3846V4ZM12 20C12.2974 20 12.5385 19.7761 12.5385 19.5C12.5385 19.2239 12.2974 19 12 19C11.7026 19 11.4615 19.2239 11.4615 19.5C11.4615 19.7761 11.7026 20 12 20Z" fill="#444444"/>
</svg>
