<svg
    xmlns="http://www.w3.org/2000/svg"
    viewBox="0 0 137 137"
    id="vector">
    <path
        id="path"
        d="M 72 24.465 C 70.99 24.646 69.991 24.895 69 25.156 C 67.993 25.421 66.992 25.713 66 26.028 C 64.651 26.458 63.306 26.918 62 27.465 C 60.621 28.042 59.28 28.706 58 29.479 C 56.596 30.327 55.264 31.284 54 32.329 C 52.96 33.189 51.984 34.114 51.004 35.04 L 50.015 36.015 L 48.104 38.001 L 46.379 40 L 44.901 41.996 C 43.809 43.559 42.839 45.237 41.472 46.585 L 39.815 47.954 L 38.907 48.532 L 36.985 49.59 L 35.996 50.119 L 34 51.257 C 32.976 51.874 31.987 52.536 31 53.209 L 29 54.661 C 27.67 55.635 26.396 56.696 25 57.577 C 24.044 58.18 23.058 58.744 22 59.151 L 21 59.522 L 17 60.749 C 15.98 61.078 14.976 61.461 14 61.904 C 12.617 62.532 11.277 63.262 10.015 64.108 C 9.017 64.776 8.06 65.505 7.185 66.329 L 5.529 68.093 L 4.789 69.04 L 4.108 70.015 L 2.905 72.001 L 1.905 74 L 1.108 76 C 0.665 77.291 0.321 78.638 0.185 80 C 0.02 81.664 0.002 83.329 0.002 85 C 0.002 87.344 0.002 89.703 0.529 92 C 0.843 93.366 1.304 94.722 1.88 96 L 2.328 97 C 3.013 98.383 3.732 99.742 4.638 100.996 L 6.213 102.957 L 8.043 104.787 L 10.004 106.363 L 12 107.647 C 12.966 108.221 13.981 108.729 15 109.201 C 15.98 109.654 16.973 110.065 18 110.402 C 18.982 110.724 19.99 110.964 21 111.181 C 22.32 111.463 23.656 111.695 25 111.829 C 27.322 112.063 29.67 111.999 32 112 L 36 111.999 L 38 111.985 L 39.996 111.891 L 40.985 111.772 L 41.956 111.566 L 42.891 111.258 L 44.566 110.258 L 45.82 108.772 L 46.253 107.891 L 46.713 105.985 L 46.638 104.019 L 45.968 102.148 L 45.396 101.318 L 44.682 100.603 L 42.941 99.603 L 40.995 99.148 L 39.999 99.059 L 37 99.001 L 32 98.996 C 29.987 98.972 27.983 98.916 26 98.532 L 24 98.057 L 23 97.736 L 22 97.347 L 20.004 96.272 L 19.015 95.57 L 18.044 94.772 L 16.228 92.956 L 14.742 90.996 L 14.179 89.999 L 13.743 89 L 13.244 87 L 13.149 85 L 13.229 84 L 13.398 83 L 13.653 82.001 L 14.009 81.004 L 14.457 80.015 L 15.009 79.043 L 16.394 77.213 L 18.105 75.638 L 19.043 74.97 L 20.015 74.367 L 21.004 73.84 L 22.001 73.367 L 24 72.638 L 25 72.39 C 25.99 72.167 26.993 72.109 27.996 71.985 C 28.981 71.862 29.979 71.771 30.91 71.397 L 31.83 70.972 L 33.576 69.686 L 36.17 67.074 L 38.039 65.328 L 40.004 63.789 L 42 62.479 L 43 61.905 L 44 61.377 L 45.996 60.46 C 47.563 59.761 49.247 59.243 50.61 58.157 L 51.363 57.49 L 52.651 55.867 C 53.272 54.951 53.757 53.951 54.309 52.995 L 55.468 51 C 56.12 49.979 56.776 48.966 57.529 48.015 L 59.185 46.093 L 60.093 45.185 L 61.04 44.329 L 63.004 42.789 C 63.982 42.114 64.968 41.471 66 40.88 C 66.977 40.321 67.98 39.825 69 39.349 L 71 38.549 L 72 38.221 L 74 37.681 C 75.97 37.229 77.978 37.007 80 37.105 C 82.034 37.204 84.039 37.628 86 38.159 C 87.708 38.622 89.39 39.175 91 39.914 C 92.381 40.549 93.677 41.332 95 42.076 L 97 43.076 L 98.999 43.678 L 100.985 43.794 L 101.956 43.663 L 103.772 42.972 L 105.257 41.682 L 105.816 40.852 L 106.512 38.981 L 106.638 37.999 L 106.442 36.039 L 105.678 34.174 L 104.427 32.468 L 103.656 31.684 L 102.811 30.939 L 100.96 29.61 C 99.407 28.619 97.702 27.896 96 27.208 C 94.687 26.678 93.357 26.178 92 25.771 C 90.684 25.376 89.344 25.089 88 24.808 C 86.68 24.532 85.342 24.305 84 24.17 C 82.339 24.004 80.667 24.001 79 24.001 C 77.667 24.001 76.33 23.997 75 24.09 C 73.992 24.161 72.995 24.285 72 24.465 M 98 50.468 C 94.819 51.068 91.772 52.258 89.004 53.931 C 86.981 55.152 85.105 56.596 83.465 58.301 C 82.072 59.748 80.884 61.373 79.721 63.004 L 76.28 68 L 73.424 72 L 71.344 75 L 68 80 L 63.333 87 L 59.974 92 L 57.86 95 L 56.44 97 L 55.764 98 L 54.569 100 L 53.704 102 L 53.244 103.999 L 53.167 104.996 L 53.333 106.956 L 54.028 108.772 L 54.603 109.566 L 56.148 110.806 L 58.019 111.458 L 59.004 111.543 L 60.985 111.214 L 62.907 110.254 L 64.674 108.772 L 66.24 106.956 L 68.34 103.999 L 69.72 102 L 71.859 99 L 73.975 96 L 83.344 82 L 85.424 79 L 88.28 75 L 90.345 72.004 L 91.76 70.04 L 92.518 69.094 L 94.184 67.34 L 96.04 65.854 L 97.015 65.228 L 99.001 64.228 L 101 63.558 L 102 63.34 L 103 63.189 L 105 63.056 L 106 63.058 C 107.012 63.111 108.008 63.172 109 63.394 C 110.78 63.791 112.436 64.549 113.996 65.483 L 115.96 66.789 L 116.907 67.529 L 117.815 68.329 L 119.468 70.093 L 120.2 71.04 L 121.467 73.004 C 121.986 73.972 122.519 74.953 122.867 76 L 123.464 78 L 123.775 80 L 123.813 81 L 123.656 83 L 123.195 85 L 122.852 86 L 122.427 87 L 121.297 89 L 120.581 89.999 L 118.892 91.981 L 117.956 92.945 C 117.008 93.843 116.064 94.729 114.999 95.49 L 113 96.721 L 111 97.597 L 109 98.231 L 107 98.634 L 105 98.721 L 104 98.631 L 103 98.456 L 101 97.891 L 99 97.1 L 97 96.154 L 95 95.21 L 94 94.815 L 93 94.503 L 92 94.294 L 91.001 94.191 L 90.005 94.203 L 88.059 94.608 L 86.318 95.603 L 85.029 97.148 L 84.337 99.019 L 84.207 100.986 L 84.608 102.907 L 85.029 103.815 L 86.318 105.471 L 88.059 106.892 L 90.005 108.095 C 91.295 108.779 92.609 109.435 94 109.896 L 96 110.51 L 99 111.192 C 100.319 111.468 101.658 111.701 103 111.829 C 104.322 111.955 105.674 112.01 107 111.907 L 108 111.829 L 109 111.711 L 110 111.561 C 111.339 111.328 112.68 111.083 114 110.761 C 115.009 110.515 116.024 110.258 117 109.899 L 118 109.532 L 120 108.676 C 121.016 108.186 122.022 107.685 122.999 107.12 C 124.713 106.13 126.368 105.03 127.816 103.671 C 128.997 102.562 130.014 101.308 130.945 99.985 C 131.622 99.024 132.249 98.024 132.826 97 L 133.865 95 L 134.731 93 L 135.427 91 L 135.71 90 C 135.96 89.005 136.192 88.009 136.381 87 C 136.568 86.006 136.729 85.007 136.829 84 C 136.961 82.673 137 81.333 136.957 80 C 136.891 77.977 136.603 75.978 136.181 74 C 135.967 72.992 135.729 71.986 135.427 71 C 135.007 69.632 134.489 68.286 133.861 67 C 133.175 65.594 132.378 64.255 131.443 63 C 130.389 61.584 129.186 60.305 127.96 59.04 L 126.985 58.093 L 124.999 56.329 C 123.45 55.051 121.796 53.906 120 52.999 C 118.104 52.042 116.059 51.402 114 50.9 C 112.688 50.579 111.347 50.292 110 50.174 L 108 50.039 L 105 50.001 C 102.655 50.001 100.313 50.031 98 50.468 Z"
        fill="#0167ed"
        stroke="#00000000"/>
</svg>
