<svg width="146" height="146" viewBox="0 0 146 146" fill="none" xmlns="http://www.w3.org/2000/svg">
<path fill-rule="evenodd" clip-rule="evenodd" d="M18.25 36.5399C18.25 33.9981 20.3106 31.9375 22.8524 31.9375H123.148C125.689 31.9375 127.75 33.9981 127.75 36.5399V104.898C127.75 107.439 125.689 109.5 123.148 109.5H22.8524C20.3106 109.5 18.25 107.439 18.25 104.898V36.5399ZM22.8524 22.8125C15.271 22.8125 9.125 28.9585 9.125 36.5399V104.898C9.125 108.42 10.4516 111.632 12.6324 114.062H4.5625C2.0427 114.062 0 116.105 0 118.625C0 121.145 2.0427 123.188 4.5625 123.188H141.438C143.957 123.188 146 121.145 146 118.625C146 116.105 143.957 114.062 141.438 114.062H133.368C135.548 111.632 136.875 108.42 136.875 104.898V36.5399C136.875 28.9585 130.729 22.8125 123.148 22.8125H22.8524Z" fill="#004299"/>
<g opacity="0.5">
<rect x="122" y="35" width="15" height="100" rx="2" transform="rotate(90 122 35)" fill="#D1D1E0"/>
<rect x="22" y="35" width="19" height="71" rx="2" fill="#002C66"/>
<path d="M28.7725 95.7081C29.41 94.2973 30.755 93 32.7725 93C32.87 93 32.9675 93.0027 33.07 93.0081C34.145 93.1135 36.1425 93.8838 35.5225 94.9216C35.31 95.2297 34.9 95.2892 34.6175 95.0541C33.74 94.2081 32.015 94.1622 31.14 94.8324C29.8875 95.6054 29.995 96.7297 29.5025 96.8919C29.1775 96.973 28.8625 97.1054 28.58 97.2946C28.26 97.5081 27.985 97.7811 27.76 98.1081C27.665 98.2784 27.505 98.4162 27.3075 98.3919C27.0075 98.3703 26.6775 98.3432 26.2275 98.6243C25.17 99.3162 25.3575 100.732 26.3075 101.314C26.56 101.468 26.8475 101.543 27.14 101.543H28.595C29.4425 101.562 29.4275 102.892 28.58 102.9H26.9825C26.8475 102.9 26.715 102.886 26.5825 102.857C26.58 102.857 26.575 102.857 26.57 102.854C23.325 102.086 23.51 97.3081 26.94 97.0216C27.425 96.4189 28.065 95.9595 28.77 95.7027M32.895 97.3892L30.045 101.851C29.8475 102.162 29.9225 102.584 30.2125 102.795C30.5025 103.005 30.9 102.924 31.1 102.616L33.95 98.1541C34.645 97.0054 36.2675 97.0486 37.065 98.0405C38.6425 99.9243 36.4 102.651 34.28 101.1C33.6 100.586 32.86 101.681 33.535 102.203C33.8975 102.478 34.6125 102.911 35.5525 102.911C38.8975 102.8 39.6475 98.9351 38.02 97.1405C37.3875 96.3486 36.44 95.9432 35.5 95.9432C34.485 95.9432 33.48 96.4162 32.8925 97.3892" fill="white"/>
</g>
<g filter="url(#filter0_d_21769_30776)">
<rect x="49" y="58" width="49" height="29" rx="3" fill="#F0F7FF"/>
<path fill-rule="evenodd" clip-rule="evenodd" d="M63.25 65.5071C63.25 65.0545 63.617 64.6875 64.0696 64.6875H81.9304C82.383 64.6875 82.75 65.0545 82.75 65.5071V77.6804C82.75 78.133 82.383 78.5 81.9304 78.5H64.0696C63.617 78.5 63.25 78.133 63.25 77.6804V65.5071ZM64.0696 63.0625C62.7195 63.0625 61.625 64.157 61.625 65.5071V77.6804C61.625 78.3076 61.8612 78.8797 62.2496 79.3125H60.8125C60.3638 79.3125 60 79.6763 60 80.125C60 80.5737 60.3638 80.9375 60.8125 80.9375H85.1875C85.6362 80.9375 86 80.5737 86 80.125C86 79.6763 85.6362 79.3125 85.1875 79.3125H83.7504C84.1388 78.8797 84.375 78.3076 84.375 77.6804V65.5071C84.375 64.157 83.2805 63.0625 81.9304 63.0625H64.0696Z" fill="#004299"/>
<path fill-rule="evenodd" clip-rule="evenodd" d="M73 68.875C73.1726 68.875 73.3125 69.0149 73.3125 69.1875V71.6875H75.8125C75.9851 71.6875 76.125 71.8274 76.125 72C76.125 72.1726 75.9851 72.3125 75.8125 72.3125H73.3125V74.8125C73.3125 74.9851 73.1726 75.125 73 75.125C72.8274 75.125 72.6875 74.9851 72.6875 74.8125V72.3125H70.1875C70.0149 72.3125 69.875 72.1726 69.875 72C69.875 71.8274 70.0149 71.6875 70.1875 71.6875H72.6875V69.1875C72.6875 69.0149 72.8274 68.875 73 68.875Z" fill="#004299"/>
</g>
<defs>
<filter id="filter0_d_21769_30776" x="37" y="50" width="73" height="53" filterUnits="userSpaceOnUse" color-interpolation-filters="sRGB">
<feFlood flood-opacity="0" result="BackgroundImageFix"/>
<feColorMatrix in="SourceAlpha" type="matrix" values="0 0 0 0 0 0 0 0 0 0 0 0 0 0 0 0 0 0 127 0" result="hardAlpha"/>
<feOffset dy="4"/>
<feGaussianBlur stdDeviation="6"/>
<feComposite in2="hardAlpha" operator="out"/>
<feColorMatrix type="matrix" values="0 0 0 0 0 0 0 0 0 0 0 0 0 0 0 0 0 0 0.08 0"/>
<feBlend mode="normal" in2="BackgroundImageFix" result="effect1_dropShadow_21769_30776"/>
<feBlend mode="normal" in="SourceGraphic" in2="effect1_dropShadow_21769_30776" result="shape"/>
</filter>
</defs>
</svg>
