<svg width="133" height="83" viewBox="0 0 133 83" fill="none" xmlns="http://www.w3.org/2000/svg">
<path opacity="0.8" d="M78.0529 9.56235C78.7881 6.81843 81.6085 5.19007 84.3524 5.9253L125.589 16.9746C128.333 17.7098 129.961 20.5303 129.226 23.2742L116.194 71.9122C115.458 74.6561 112.638 76.2845 109.894 75.5493L68.6574 64.5C65.9135 63.7647 64.2851 60.9443 65.0203 58.2004L78.0529 9.56235Z" fill="#FEFEFE" stroke="#CCE2FF" stroke-width="2.84866"/>
<path opacity="0.8" d="M54.9471 9.56235C54.2119 6.81843 51.3915 5.19007 48.6476 5.9253L7.41098 16.9746C4.66707 17.7098 3.03871 20.5303 3.77394 23.2742L16.8065 71.9122C17.5417 74.6561 20.3621 76.2845 23.106 75.5493L64.3426 64.5C67.0865 63.7647 68.7149 60.9443 67.9797 58.2004L54.9471 9.56235Z" fill="#FEFEFE" stroke="#CCE2FF" stroke-width="2.84866"/>
<mask id="mask0_23284_115221" style="mask-type:alpha" maskUnits="userSpaceOnUse" x="32" y="0" width="67" height="83">
<rect x="32.0337" width="66.9435" height="82.6111" rx="7.12165" fill="white"/>
</mask>
<g mask="url(#mask0_23284_115221)">
<path d="M32.0337 8.54598C32.0337 3.82617 35.5598 0 39.9094 0H91.1015C95.4511 0 98.9772 3.82617 98.9772 8.54598V74.0652C98.9772 78.785 95.4511 82.6111 91.1015 82.6111H39.9094C35.5598 82.6111 32.0337 78.785 32.0337 74.0652V8.54598Z" fill="#FEFEFE"/>
<path d="M56.2703 31.7768L28.2259 65.3428C27.9254 65.7025 27.7607 66.1564 27.7607 66.6251V83.459C27.7607 84.5636 28.6562 85.459 29.7607 85.459H104.099C105.203 85.459 106.099 84.5636 106.099 83.459V64.3266C106.099 63.8285 105.913 63.3483 105.578 62.98L84.2122 39.5173C83.3717 38.5942 81.9002 38.6584 81.1431 39.6511L75.1996 47.4452C74.4136 48.4759 72.8698 48.4981 72.0544 47.4904L59.3599 31.8011C58.5676 30.8218 57.078 30.8101 56.2703 31.7768Z" fill="url(#paint0_linear_23284_115221)" stroke="#99C5FF" stroke-width="1.5"/>
<circle cx="88.2947" cy="16.3797" r="4.27299" fill="#E5F1FF" stroke="#99C5FF" stroke-width="1.42433"/>
<path d="M33.458 8.54598C33.458 4.50104 36.4537 1.42433 39.9094 1.42433H91.1015C94.5572 1.42433 97.5529 4.50104 97.5529 8.54598V74.0652C97.5529 78.1101 94.5572 81.1868 91.1015 81.1868H39.9094C36.4537 81.1868 33.458 78.1101 33.458 74.0652V8.54598Z" stroke="#CCE2FF" stroke-width="2.84866"/>
</g>
<defs>
<linearGradient id="paint0_linear_23284_115221" x1="64.7933" y1="29.9102" x2="64.7933" y2="81.8982" gradientUnits="userSpaceOnUse">
<stop stop-color="#CCE2FF"/>
<stop offset="1" stop-color="#CCE2FF" stop-opacity="0"/>
</linearGradient>
</defs>
</svg>
