<?xml version="1.0" encoding="UTF-8"?>
<svg id="Layer_2" data-name="Layer 2" xmlns="http://www.w3.org/2000/svg" xmlns:xlink="http://www.w3.org/1999/xlink" viewBox="0 0 100.51 74">
  <defs>
    <style>
      .cls-1 {
        clip-path: url(#clippath);
      }

      .cls-2, .cls-3 {
        fill: #006dff;
      }

      .cls-4 {
        letter-spacing: -.03em;
      }

      .cls-5 {
        letter-spacing: 0em;
      }

      .cls-6 {
        clip-path: url(#clippath-1);
      }

      .cls-7 {
        clip-path: url(#clippath-4);
      }

      .cls-8 {
        clip-path: url(#clippath-3);
      }

      .cls-9 {
        clip-path: url(#clippath-2);
      }

      .cls-10 {
        clip-path: url(#clippath-7);
      }

      .cls-11 {
        clip-path: url(#clippath-6);
      }

      .cls-12 {
        clip-path: url(#clippath-5);
      }

      .cls-3 {
        font-family: Montserrat-LightItalic, Montserrat;
        font-size: 4.26px;
      }

      .cls-13 {
        letter-spacing: .02em;
      }

      .cls-14 {
        letter-spacing: 0em;
      }
    </style>
    <clipPath id="clippath">
      <path class="cls-2" d="M39.42,47.91c.9-.01,1.8-.02,2.69,.07,1.81,.19,2.88,1.61,2.65,3.4-.22,1.69-1.37,2.46-2.85,2.59-.9,.08-1.8,.07-2.7,.05-.45,0-.89-.01-1.34-.01-.27,0-.29-.16-.29-.36,0-.9,0-1.8,0-2.7s0-1.8,0-2.7c0-.2,.04-.33,.28-.32,.23,0,.45,0,.67,0,.29,0,.58,0,.88,0m-3.52-3.36c-1.24,.01-1.86,.65-1.95,1.87-.01,.14,0,.28,0,.41,0,2.44,0,4.87,0,7.3s0,4.89,0,7.34c0,.25,0,.5,.05,.75,.1,.61,.41,1.09,1.01,1.34,1.26,.54,2.57-.28,2.58-1.63,.01-1.45,.01-2.9,0-4.35,0-.31,.07-.43,.41-.41,.66,.02,1.33,.02,1.99,0,.84-.03,1.51,.29,2.1,.84,.44,.41,.78,.9,1.13,1.39,.81,1.16,1.62,2.32,2.43,3.47,.4,.57,.96,.92,1.68,.84,1.38-.15,2.08-1.55,1.36-2.75-.25-.42-.55-.82-.84-1.22-.83-1.11-1.49-2.35-2.56-3.28-.21-.19-.02-.24,.1-.32,2.19-1.5,3.21-3.55,2.95-6.18-.3-3.07-2.43-5.12-5.73-5.37-.98-.07-1.96-.1-2.94-.1-1.25,0-2.5,.04-3.75,.05"/>
    </clipPath>
    <clipPath id="clippath-1">
      <path class="cls-2" d="M56.77,44.58c-2.19,.53-3.75,1.81-4.32,4.03-.58,2.26,.03,4.4,2.42,5.66,1.2,.63,2.51,.96,3.79,1.38,1.01,.33,2.03,.64,2.98,1.15,1.36,.73,1.09,2.05,.41,2.77-.6,.64-1.37,.92-2.23,1-1.76,.17-3.27-.4-4.57-1.55-.39-.34-.77-.7-1.25-.92-.45-.2-.89-.2-1.3,.06-1.1,.7-1.67,1.8-.48,3.06,.07,.07,.14,.15,.22,.22,1.88,1.73,4.14,2.47,6.67,2.53,.39,.01,.77-.02,1.15-.07,1.81-.22,3.41-.87,4.62-2.27,1.43-1.64,1.74-4.12,.75-5.94-.59-1.08-1.55-1.77-2.63-2.33-1.18-.6-2.45-.91-3.7-1.29-.94-.29-1.91-.53-2.74-1.09-1.01-.69-1.02-1.97-.04-2.69,.62-.46,1.35-.62,2.1-.63,1.39-.03,2.55,.49,3.52,1.46,1.01,1.01,1.85,.97,2.81-.09,.06-.07,.12-.14,.17-.22,.41-.58,.43-1.13,.03-1.72-.28-.41-.63-.77-1.03-1.06-1.6-1.13-3.32-1.71-5.14-1.71-.72,0-1.45,.09-2.2,.27"/>
    </clipPath>
    <clipPath id="clippath-2">
      <path class="cls-2" d="M3.66,54.44c.01-1.03,0-2.06,0-3.09s.01-1.99,0-2.98c0-.31,.08-.43,.41-.43,.46,0,.92,0,1.38,0,.74,0,1.47,0,2.21,.03,1.11,.06,2.04,.51,2.65,1.48,.87,1.39,.59,3.48-.6,4.5-.67,.58-1.49,.79-2.35,.82-.69,.02-1.37,.02-2.05,.02-.43,0-.86,0-1.29,0h-.01c-.28,0-.34-.12-.34-.37m.51-9.9c-.68,0-1.36,0-2.04,0-.27,0-.54,.02-.8,.08-.82,.19-1.32,.89-1.33,1.83,0,2.56,0,5.12,0,7.68,0,.37,0,.73,0,1.1,0,2.19,0,4.39,0,6.58,0,.87,.43,1.53,1.15,1.79,1.26,.46,2.48-.37,2.51-1.74,.02-1.06,0-2.13,0-3.19,0-.48,0-.48,.47-.48,1.21,0,2.42,.01,3.63,0,1.01-.02,1.97-.26,2.88-.71,2.6-1.3,4.02-4.34,3.72-7.01-.38-3.34-2.97-5.78-6.38-5.89-.9-.03-1.79-.04-2.69-.04-.38,0-.75,0-1.13,0"/>
    </clipPath>
    <clipPath id="clippath-3">
      <path class="cls-2" d="M71.66,44.54c-.25,0-.51,.01-.76,.04-.74,.07-1.31,.53-1.51,1.23-.08,.27-.1,.54-.1,.82,0,2.5,0,5,0,7.5s0,5.09,0,7.64c0,.73,.25,1.35,.92,1.73,.37,.21,.77,.23,1.18,.23,2.74,0,5.49,0,8.23,0,.2,0,.39-.01,.59-.04,1.14-.13,1.81-1.14,1.46-2.22-.23-.68-.85-1.11-1.67-1.12-2.23,0-4.46,0-6.69,0q-.49,0-.49-.5v-3.77q0-.49,.5-.49c1.72,0,3.44,0,5.16,0,.82,0,1.49-.48,1.71-1.17,.22-.67,0-1.35-.56-1.78-.39-.29-.84-.38-1.31-.38-1.7,0-3.39,0-5.09,0-.33,0-.41-.1-.41-.41,.02-1.15,.02-2.31,0-3.46,0-.35,.11-.45,.46-.45,1.98,.01,3.95,0,5.93,0,.29,0,.58-.02,.87-.04,.85-.08,1.47-.69,1.53-1.48,.08-.89-.4-1.59-1.26-1.81-.3-.08-.62-.08-.93-.08h-3.87c-1.29,0-2.58,0-3.87,0"/>
    </clipPath>
    <clipPath id="clippath-4">
      <path class="cls-2" d="M20.32,56.47c.83-2.16,1.64-4.32,2.46-6.48,.02-.05,.05-.1,.1-.21,.09,.21,.15,.37,.21,.52,.76,2.02,1.53,4.05,2.29,6.07,.16,.43,.16,.44-.29,.44-1.5,0-3,0-4.5,0-.27,0-.39-.04-.27-.34m1.86-12.02c-.61,.24-.92,.74-1.15,1.31-1.5,3.63-3,7.26-4.5,10.89-.62,1.49-1.24,2.98-1.85,4.48-.28,.7-.28,1.39,.27,1.99,.96,1.03,2.49,.78,3.05-.51,.31-.71,.57-1.45,.83-2.18,.1-.3,.26-.4,.58-.4,2.3,.01,4.6,.01,6.9,0,.32,0,.48,.1,.58,.4,.26,.74,.54,1.49,.85,2.21,.35,.82,1.17,1.24,1.96,1.08,.92-.19,1.52-.89,1.52-1.81,.03-.29-.09-.6-.22-.9-1.76-4.25-3.52-8.51-5.28-12.76-.4-.95-.77-1.91-1.2-2.85-.31-.69-.95-1.08-1.64-1.08-.24,0-.48,.05-.72,.14"/>
    </clipPath>
    <clipPath id="clippath-5">
      <path class="cls-2" d="M91.89,44.38c-2.15,.21-4.05,1-5.61,2.48-2.08,1.98-2.96,4.45-2.98,7.25-.03,.88,.08,1.74,.3,2.58,.77,2.98,2.49,5.23,5.39,6.46,2.99,1.27,5.97,1.02,8.86-.36,.91-.43,1.72-1.01,2.31-1.84,.57-.8,.46-1.61-.28-2.31-.75-.7-1.49-.75-2.31-.13-.14,.1-.27,.21-.4,.33-1.38,1.29-3,1.87-4.91,1.64-1.66-.2-3.01-.91-3.99-2.25-1.3-1.79-1.51-3.81-1.06-5.9,.46-2.11,1.72-3.65,3.87-4.3,2.17-.66,4.18-.38,5.89,1.23,1.03,.97,1.72,.93,2.69-.1,.04-.04,.08-.09,.12-.13,.59-.7,.6-1.36,.02-2.08-.41-.51-.9-.92-1.47-1.25-1.65-.95-3.42-1.4-5.27-1.4-.38,0-.77,.02-1.16,.06"/>
    </clipPath>
    <clipPath id="clippath-6">
      <path class="cls-2" d="M39.14,10.02c-2.82,.95-5.38,2.65-7.32,4.88-13.72,1.06-14.46,18.74-1.48,21.58,.01,0,.03,0,.05,.01,.53,.11,1.06,.16,1.6,.16h6.39c3.39-.03,3.45-4.96,.06-5.02h-5.82c-1.16,0-2.32-.27-3.33-.85-3.8-2.16-4.55-7.39-.32-9.95,1.8-1.04,3.12-.94,4.32-.86,.78,.08,1.42-.43,1.81-1.05,.9-1.21,2.01-2.22,3.28-3.01,1.13-.7,2.38-1.18,3.69-1.49,1.97-.61,1.54-4.77,6.55-7.62,3.49-2.48,10.4-2.32,13.91,.82,1.13,.86,2.76,.65,3.62-.49C68.62,3.27,60.63,.43,56.33,.03c-.4-.02-.8-.03-1.19-.03-8.07,0-13.45,4.8-16,10.02"/>
    </clipPath>
    <clipPath id="clippath-7">
      <path class="cls-2" d="M55.64,16.26l-11.4,16.51c-.79,1.15-.49,2.71,.67,3.49,1.16,.78,2.75,.48,3.55-.66l11.4-16.51c2.78-4.25,9.27-4.09,12.46-.42,6.31,6.97-2.66,17.06-11.14,11.32-2.72-1.9-5.68,2.15-2.98,4.08,1.45,1.02,4.31,2.62,8.07,2.62,13.38-.41,16.38-14.71,9.87-21.35-2.53-2.93-6.32-4.43-10.08-4.43-4.06,0-8.08,1.75-10.43,5.35"/>
    </clipPath>
  </defs>
  <g id="Calque_1" data-name="Calque 1">
    <g>
      <g>
        <path class="cls-2" d="M39.42,47.91c.9-.01,1.8-.02,2.69,.07,1.81,.19,2.88,1.61,2.65,3.4-.22,1.69-1.37,2.46-2.85,2.59-.9,.08-1.8,.07-2.7,.05-.45,0-.89-.01-1.34-.01-.27,0-.29-.16-.29-.36,0-.9,0-1.8,0-2.7s0-1.8,0-2.7c0-.2,.04-.33,.28-.32,.23,0,.45,0,.67,0,.29,0,.58,0,.88,0m-3.52-3.36c-1.24,.01-1.86,.65-1.95,1.87-.01,.14,0,.28,0,.41,0,2.44,0,4.87,0,7.3s0,4.89,0,7.34c0,.25,0,.5,.05,.75,.1,.61,.41,1.09,1.01,1.34,1.26,.54,2.57-.28,2.58-1.63,.01-1.45,.01-2.9,0-4.35,0-.31,.07-.43,.41-.41,.66,.02,1.33,.02,1.99,0,.84-.03,1.51,.29,2.1,.84,.44,.41,.78,.9,1.13,1.39,.81,1.16,1.62,2.32,2.43,3.47,.4,.57,.96,.92,1.68,.84,1.38-.15,2.08-1.55,1.36-2.75-.25-.42-.55-.82-.84-1.22-.83-1.11-1.49-2.35-2.56-3.28-.21-.19-.02-.24,.1-.32,2.19-1.5,3.21-3.55,2.95-6.18-.3-3.07-2.43-5.12-5.73-5.37-.98-.07-1.96-.1-2.94-.1-1.25,0-2.5,.04-3.75,.05"/>
        <g class="cls-1">
          <rect class="cls-2" x="33.93" y="44.5" width="15.46" height="19.59"/>
        </g>
      </g>
      <g>
        <path class="cls-2" d="M56.77,44.58c-2.19,.53-3.75,1.81-4.32,4.03-.58,2.26,.03,4.4,2.42,5.66,1.2,.63,2.51,.96,3.79,1.38,1.01,.33,2.03,.64,2.98,1.15,1.36,.73,1.09,2.05,.41,2.77-.6,.64-1.37,.92-2.23,1-1.76,.17-3.27-.4-4.57-1.55-.39-.34-.77-.7-1.25-.92-.45-.2-.89-.2-1.3,.06-1.1,.7-1.67,1.8-.48,3.06,.07,.07,.14,.15,.22,.22,1.88,1.73,4.14,2.47,6.67,2.53,.39,.01,.77-.02,1.15-.07,1.81-.22,3.41-.87,4.62-2.27,1.43-1.64,1.74-4.12,.75-5.94-.59-1.08-1.55-1.77-2.63-2.33-1.18-.6-2.45-.91-3.7-1.29-.94-.29-1.91-.53-2.74-1.09-1.01-.69-1.02-1.97-.04-2.69,.62-.46,1.35-.62,2.1-.63,1.39-.03,2.55,.49,3.52,1.46,1.01,1.01,1.85,.97,2.81-.09,.06-.07,.12-.14,.17-.22,.41-.58,.43-1.13,.03-1.72-.28-.41-.63-.77-1.03-1.06-1.6-1.13-3.32-1.71-5.14-1.71-.72,0-1.45,.09-2.2,.27"/>
        <g class="cls-6">
          <rect class="cls-2" x="51.04" y="44.31" width="15.59" height="19.67"/>
        </g>
      </g>
      <g>
        <path class="cls-2" d="M3.66,54.44c.01-1.03,0-2.06,0-3.09s.01-1.99,0-2.98c0-.31,.08-.43,.41-.43,.46,0,.92,0,1.38,0,.74,0,1.47,0,2.21,.03,1.11,.06,2.04,.51,2.65,1.48,.87,1.39,.59,3.48-.6,4.5-.67,.58-1.49,.79-2.35,.82-.69,.02-1.37,.02-2.05,.02-.43,0-.86,0-1.29,0h-.01c-.28,0-.34-.12-.34-.37m.51-9.9c-.68,0-1.36,0-2.04,0-.27,0-.54,.02-.8,.08-.82,.19-1.32,.89-1.33,1.83,0,2.56,0,5.12,0,7.68,0,.37,0,.73,0,1.1,0,2.19,0,4.39,0,6.58,0,.87,.43,1.53,1.15,1.79,1.26,.46,2.48-.37,2.51-1.74,.02-1.06,0-2.13,0-3.19,0-.48,0-.48,.47-.48,1.21,0,2.42,.01,3.63,0,1.01-.02,1.97-.26,2.88-.71,2.6-1.3,4.02-4.34,3.72-7.01-.38-3.34-2.97-5.78-6.38-5.89-.9-.03-1.79-.04-2.69-.04-.38,0-.75,0-1.13,0"/>
        <g class="cls-9">
          <rect class="cls-2" x="0" y="44.54" width="14.67" height="19.52"/>
        </g>
      </g>
      <g>
        <path class="cls-2" d="M71.66,44.54c-.25,0-.51,.01-.76,.04-.74,.07-1.31,.53-1.51,1.23-.08,.27-.1,.54-.1,.82,0,2.5,0,5,0,7.5s0,5.09,0,7.64c0,.73,.25,1.35,.92,1.73,.37,.21,.77,.23,1.18,.23,2.74,0,5.49,0,8.23,0,.2,0,.39-.01,.59-.04,1.14-.13,1.81-1.14,1.46-2.22-.23-.68-.85-1.11-1.67-1.12-2.23,0-4.46,0-6.69,0q-.49,0-.49-.5v-3.77q0-.49,.5-.49c1.72,0,3.44,0,5.16,0,.82,0,1.49-.48,1.71-1.17,.22-.67,0-1.35-.56-1.78-.39-.29-.84-.38-1.31-.38-1.7,0-3.39,0-5.09,0-.33,0-.41-.1-.41-.41,.02-1.15,.02-2.31,0-3.46,0-.35,.11-.45,.46-.45,1.98,.01,3.95,0,5.93,0,.29,0,.58-.02,.87-.04,.85-.08,1.47-.69,1.53-1.48,.08-.89-.4-1.59-1.26-1.81-.3-.08-.62-.08-.93-.08h-3.87c-1.29,0-2.58,0-3.87,0"/>
        <g class="cls-8">
          <rect class="cls-2" x="69.28" y="44.54" width="12.74" height="19.19"/>
        </g>
      </g>
      <g>
        <path class="cls-2" d="M20.32,56.47c.83-2.16,1.64-4.32,2.46-6.48,.02-.05,.05-.1,.1-.21,.09,.21,.15,.37,.21,.52,.76,2.02,1.53,4.05,2.29,6.07,.16,.43,.16,.44-.29,.44-1.5,0-3,0-4.5,0-.27,0-.39-.04-.27-.34m1.86-12.02c-.61,.24-.92,.74-1.15,1.31-1.5,3.63-3,7.26-4.5,10.89-.62,1.49-1.24,2.98-1.85,4.48-.28,.7-.28,1.39,.27,1.99,.96,1.03,2.49,.78,3.05-.51,.31-.71,.57-1.45,.83-2.18,.1-.3,.26-.4,.58-.4,2.3,.01,4.6,.01,6.9,0,.32,0,.48,.1,.58,.4,.26,.74,.54,1.49,.85,2.21,.35,.82,1.17,1.24,1.96,1.08,.92-.19,1.52-.89,1.52-1.81,.03-.29-.09-.6-.22-.9-1.76-4.25-3.52-8.51-5.28-12.76-.4-.95-.77-1.91-1.2-2.85-.31-.69-.95-1.08-1.64-1.08-.24,0-.48,.05-.72,.14"/>
        <g class="cls-7">
          <rect class="cls-2" x="14.39" y="44.31" width="16.87" height="19.83"/>
        </g>
      </g>
      <g>
        <path class="cls-2" d="M91.89,44.38c-2.15,.21-4.05,1-5.61,2.48-2.08,1.98-2.96,4.45-2.98,7.25-.03,.88,.08,1.74,.3,2.58,.77,2.98,2.49,5.23,5.39,6.46,2.99,1.27,5.97,1.02,8.86-.36,.91-.43,1.72-1.01,2.31-1.84,.57-.8,.46-1.61-.28-2.31-.75-.7-1.49-.75-2.31-.13-.14,.1-.27,.21-.4,.33-1.38,1.29-3,1.87-4.91,1.64-1.66-.2-3.01-.91-3.99-2.25-1.3-1.79-1.51-3.81-1.06-5.9,.46-2.11,1.72-3.65,3.87-4.3,2.17-.66,4.18-.38,5.89,1.23,1.03,.97,1.72,.93,2.69-.1,.04-.04,.08-.09,.12-.13,.59-.7,.6-1.36,.02-2.08-.41-.51-.9-.92-1.47-1.25-1.65-.95-3.42-1.4-5.27-1.4-.38,0-.77,.02-1.16,.06"/>
        <g class="cls-12">
          <rect class="cls-2" x="83.26" y="44.32" width="17.46" height="20.1"/>
        </g>
      </g>
      <g>
        <path class="cls-2" d="M39.14,10.02c-2.82,.95-5.38,2.65-7.32,4.88-13.72,1.06-14.46,18.74-1.48,21.58,.01,0,.03,0,.05,.01,.53,.11,1.06,.16,1.6,.16h6.39c3.39-.03,3.45-4.96,.06-5.02h-5.82c-1.16,0-2.32-.27-3.33-.85-3.8-2.16-4.55-7.39-.32-9.95,1.8-1.04,3.12-.94,4.32-.86,.78,.08,1.42-.43,1.81-1.05,.9-1.21,2.01-2.22,3.28-3.01,1.13-.7,2.38-1.18,3.69-1.49,1.97-.61,1.54-4.77,6.55-7.62,3.49-2.48,10.4-2.32,13.91,.82,1.13,.86,2.76,.65,3.62-.49C68.62,3.27,60.63,.43,56.33,.03c-.4-.02-.8-.03-1.19-.03-8.07,0-13.45,4.8-16,10.02"/>
        <g class="cls-11">
          <rect class="cls-2" x="17.36" width="51.26" height="36.65"/>
        </g>
      </g>
      <g>
        <path class="cls-2" d="M55.64,16.26l-11.4,16.51c-.79,1.15-.49,2.71,.67,3.49,1.16,.78,2.75,.48,3.55-.66l11.4-16.51c2.78-4.25,9.27-4.09,12.46-.42,6.31,6.97-2.66,17.06-11.14,11.32-2.72-1.9-5.68,2.15-2.98,4.08,1.45,1.02,4.31,2.62,8.07,2.62,13.38-.41,16.38-14.71,9.87-21.35-2.53-2.93-6.32-4.43-10.08-4.43-4.06,0-8.08,1.75-10.43,5.35"/>
        <g class="cls-10">
          <rect class="cls-2" x="43.45" y="10.91" width="39.21" height="26.13"/>
        </g>
      </g>
    </g>
    <text class="cls-3" transform="translate(13.21 72.89) scale(1.03 1)"><tspan x="0" y="0">Une solution </tspan><tspan class="cls-5" x="27.93" y="0">c</tspan><tspan x="30.26" y="0">e</tspan><tspan class="cls-13" x="32.81" y="0">r</tspan><tspan x="34.55" y="0">tifiée par l</tspan><tspan class="cls-4" x="56.03" y="0">’</tspan><tspan class="cls-14" x="56.75" y="0">ANSSI</tspan></text>
  </g>
</svg>