<svg width="809" height="582" viewBox="0 0 809 582" fill="none" xmlns="http://www.w3.org/2000/svg">
<path opacity="0.3" d="M289 128C289 240.666 197.666 332 85.0002 332H84.6051H84.2083H83.8099H83.4099H83.0082H82.6048H82.1999H81.7933H81.3851H80.9753H80.564H80.151H79.7365H79.3205H78.9029H78.4837H78.063H77.6409H77.2172H76.792H76.3653H75.9371H75.5075H75.0764H74.6439H74.2099H73.7745H73.3376H72.8994H72.4597H72.0186H71.5762H71.1324H70.6872H70.2407H69.7928H69.3436H68.8931H68.4412H67.9881H67.5336H67.0779H66.6208H66.1626H65.703H65.2422H64.7802H64.3169H63.8524H63.3867H62.9198H62.4516H61.9824H61.5119H61.0403H60.5675H60.0936H59.6185H59.1423H58.665H58.1866H57.7071H57.2265H56.7449H56.2621H55.7784H55.2935H54.8076H54.3207H53.8328H53.3439H52.8539H52.363H51.8711H51.3782H50.8843H50.3895H49.8938H49.3971H48.8995H48.401H47.9015H47.4012H46.9H46.3979H45.895H45.3911H44.8865H44.381H43.8747H43.3675H42.8596H42.3508H41.8413H41.3309H40.8199H40.308H39.7954H39.282H38.768H38.2531H37.7376H37.2214H36.7045H36.1869H35.6686H35.1496H34.63H34.1098H33.5889H33.0674H32.5452H32.0225H31.4992H30.9752H30.4507H29.9256H29.4H28.8738H28.3471H27.8198H27.292H26.7637H26.2349H25.7056H25.1758H24.6456H24.1148H23.5837H23.052H22.52H21.9875H21.4546H20.9213H20.3876H19.8535H19.319H18.7841H18.2489H17.7134H17.1775H16.6413H16.1047H15.5679H15.0307H14.4932H13.9555H13.4175H12.8792H12.3407H11.8019H11.2629H10.7237H10.1842H9.64456H9.10471H8.56467H8.02444H7.48405H6.94351H6.40282H5.86198H5.32103H4.77994H4.23874H3.69745H3.15606H2.61459H2.07304H1.53144H0.989784H0.448082H-0.0936584H-0.635422H-1.17719H-1.71898H-2.26076H-2.80252H-3.34426H-3.88596H-4.42764H-4.96925H-5.5108H-6.05228H-6.59367H-7.13499H-7.67619H-8.21729H-8.75828H-9.29913H-9.83984H-10.3804H-10.9208H-11.4611H-12.0011H-12.541H-13.0807H-13.6202H-14.1594H-14.6985H-15.2373H-15.7758H-16.3142H-16.8522H-17.39H-17.9275H-18.4647H-19.0016H-19.5382H-20.0744H-20.6104H-21.146H-21.6812H-22.2161H-22.7506H-23.2848H-23.8186H-24.3519H-24.8849H-25.4174H-25.9495H-26.4812H-27.0125H-27.5432H-28.0736H-28.6034H-29.1328H-29.6617H-30.19H-30.7179H-31.2452H-31.772H-32.2983H-32.824H-33.3492H-33.8738H-34.3978H-34.9212H-35.444H-35.9662H-36.4878H-37.0088H-37.5291H-38.0488H-38.5679H-39.0862H-39.6039H-40.1209H-40.6373H-41.1529H-41.6678H-42.182H-42.6954H-43.2081H-43.7201H-44.2313H-44.7417H-45.2514H-45.7602H-46.2683H-46.7756H-47.282H-47.7876H-48.2924H-48.7963H-49.2994H-49.8016H-50.3029H-50.8033H-51.3029H-51.8015H-52.2992H-52.7961H-53.2919H-53.7869H-54.2808H-54.7739H-55.2659H-55.757H-56.247H-56.7361H-57.2242H-57.7112H-58.1973H-58.6822H-59.1662H-59.6491H-60.1309H-60.6116H-61.0913H-61.5698H-62.0472H-62.5236H-62.9988H-63.4729H-63.9458H-64.4176H-64.8882H-65.3576H-65.8259H-66.293H-66.7588H-67.2235H-67.6869H-68.1492H-68.6101H-69.0698H-69.5283H-69.9855H-70.4414H-70.8961H-71.3494H-71.8014H-72.2521H-72.7015H-73.1496H-73.5963H-74.0416H-74.4856H-74.9283H-75.3695H-75.8093H-76.2478H-76.6848H-77.1204H-77.5546H-77.9873H-78.4186H-78.8485H-79.2768H-79.7037H-80.1291H-80.553H-80.9754H-81.3963H-81.8156H-82.2334H-82.6497H-83.0644H-83.4775H-83.8891H-84.2991H-84.7075H-85.1143H-85.5195H-85.923H-86.325H-86.7252H-87.1239H-87.5209H-87.9162H-88.3098H-88.7017H-89.092H-89.4805H-89.8673H-90.2524H-90.6357H-91.0173H-91.3972H-91.7753H-92.1516H-92.5261H-92.8988H-93.2697H-93.6388H-94.0061H-94.3716H-94.7352H-95.0969H-95.4568H-95.8149H-96.171H-96.5253H-96.8776H-97.2281H-97.5766H-97.9232H-98.2678H-98.6106H-98.9513H-99.2901H-99.6269H-99.9617H-100.295H-100.625H-100.954H-101.281H-101.606H-101.928H-102.249H-102.568H-102.884H-103.199H-103.511H-103.821H-104.129H-104.435H-104.739H-105.041H-105.341H-105.638H-105.933H-106.227H-106.517H-106.806H-107.093H-107.377H-107.659H-107.939H-108.216H-108.492H-108.765H-109.036H-109.304H-109.57H-109.834H-110.096H-110.355H-110.612H-110.867H-111.119H-111.369H-111.617H-111.862H-112.105H-112.345H-112.583H-112.818H-113.052H-113.282H-113.511H-113.736H-113.96H-114.181H-114.399H-114.615H-114.828H-115.039H-115.247H-115.453H-115.656H-115.857H-116.055H-116.251H-116.444H-116.634H-116.822H-117.007H-117.19H-117.37H-117.547H-117.722H-117.894H-118.063H-118.23H-118.394H-118.555H-118.714H-118.87H-119L-119 329.014L-119 310.193L-119 249.847L-119 128C-119 15.3339 -27.6659 -76 85.0002 -76C197.666 -76 289 15.3339 289 128Z" stroke="url(#paint0_linear_33319_189940)" stroke-width="8"/>
<path opacity="0.3" d="M440 278C357.157 278 290 345.157 290 428C290 510.843 357.157 578 440 578C480.131 578 804.5 578 804.5 578" stroke="url(#paint1_linear_33319_189940)" stroke-width="8" stroke-linecap="round"/>
<defs>
<linearGradient id="paint0_linear_33319_189940" x1="85.0001" y1="-80" x2="85.0001" y2="336" gradientUnits="userSpaceOnUse">
<stop stop-color="white"/>
<stop offset="1" stop-color="white" stop-opacity="0.11"/>
</linearGradient>
<linearGradient id="paint1_linear_33319_189940" x1="440" y1="278" x2="440" y2="578" gradientUnits="userSpaceOnUse">
<stop stop-color="white"/>
<stop offset="1" stop-color="white" stop-opacity="0.11"/>
</linearGradient>
</defs>
</svg>
